<svg xmlns="http://www.w3.org/2000/svg" viewBox="0 0 997 705"><defs><style>.a3bd92fb-1b97-445b-81b8-7ea70ab8b03b{fill:#f1f2f1;}.a73181d0-4bca-4d8e-a849-c9f6b2c2ba9d{fill:#40c9ad;}.b608c306-526a-446a-8156-17da6ebdda6e{fill:#d1d3d2;}.aba5c704-a1ad-4fdb-872e-572c3fda2530{fill:#203830;}.b98e4e29-60d0-4b52-ab72-4648a1c2cffc{fill:#3b5a53;}.f4c5e613-91a8-4ac7-9af4-ef07b624dd47{fill:#7ddbad;}.f61aed8c-eaf5-4428-b263-1f25d31268bf{fill:#eaa9a4;}.a8cb7ebf-29b3-470a-a79f-9176bfeb290a{fill:#fff;}.a2e32747-de28-4802-a2e0-94784d9bbd71{fill:#3c3c3c;}.a4f7fc6d-e335-4905-922d-2003c6ce2060{fill:#e8babf;}.e82249d2-129e-4fdf-a16d-4f291878b883{fill:#d7f4e6;}.bed2ae79-ee36-4c44-9fff-26668ad44137{fill:#019977;}.b4d51689-88a5-4971-b870-09795f79f83e{fill:#ececec;}.afd29f19-501d-4e56-8492-8d37089bd25f{fill:#bcc0be;}.bd53eea0-b53a-4b90-bb6f-2c1545378b8a{fill:#deb8ad;}</style></defs><g id="f41c6189-ef82-43e9-8220-f8d9ba3b0201" data-name="Shadow"><path class="a3bd92fb-1b97-445b-81b8-7ea70ab8b03b" d="M453.9636,573.1181c-28.1927.084-56.3851.7616-84.5277,3.8918-10.6112,1.18-21,3.7763-31.6351,4.8234-21.2437,2.0916-42.1071,5.9934-63.4261,7.7932-17.1677,1.4493-34.4076,2.3046-51.5257,4.1435a181.3384,181.3384,0,0,1-49.7419-1.5221c-11.79-2.1085-23.6334-3.2956-35.2254-6.6825-12.9672-3.7888-27.0546-6.4975-40.5652-6.4-19.2659.1389-38.0282.1553-56.4656,6.845-6.4722,2.3483-14.3953,6.2086-19.31,11.1369C10.29,608.429,8.767,636.5791,20.0008,648.28c18.9213,19.6933,59.3049,27.42,85.8269,27.7851,29.0627.4,57.296-1.7577,86.4015-3.0263,27.0451-1.1788,54.0227-2.8559,81.1126-2.7969,55.3283.1206,110.6638,0,165.8925-3.6959,51.8883-3.4724,103.9071-2.28,155.9094-2.28,53.3259,0,106.2913.4192,159.2325,7.5063,23.0673,3.088,46.5675,4.1689,69.75,6.3323,20.7624,1.9376,40.7141-.0381,61.394-1.8288a146.53,146.53,0,0,0,50.3909-13.5025c12.4874-5.9677,34.7492-24.5074,38.5787-38.752,10.7357-39.9346-151.3-38.9747-176.1792-38.8848-27.8315.1006-55.8837,1.0161-83.6934-.045-11.698-.4463-23.224-2.7326-34.641-5.2381-11.372-2.4955-22.83-1.8609-34.3622-2.91-48.0917-4.3736-96.2906-3.7345-144.5356-3.7345C485.3792,573.2088,469.6714,573.0713,453.9636,573.1181Z"/></g><g id="b8266a80-b87c-45d3-8214-4f7d79cf35c6" data-name="Object"><rect class="a73181d0-4bca-4d8e-a849-c9f6b2c2ba9d" x="314.167" y="22" width="421.1918" height="277.9896"/><rect class="b608c306-526a-446a-8156-17da6ebdda6e" x="304.0399" y="297.0808" width="441.4458" height="18.5382"/><polygon class="aba5c704-a1ad-4fdb-872e-572c3fda2530" points="337.173 549.37 336.531 555.698 348.029 563.589 354.739 558.042 349.311 550.933 337.814 543.041 337.173 549.37"/><polygon class="b98e4e29-60d0-4b52-ab72-4648a1c2cffc" points="337.459 355.881 335.512 375.101 352.754 441.136 336.744 547.249 348.529 551.309 379.604 447.711 384.536 417.573 384.356 353.771 337.459 355.881"/><polygon class="b98e4e29-60d0-4b52-ab72-4648a1c2cffc" points="428.099 377.302 403.311 555.11 392.043 555.11 390.016 441.136 369.508 361.138 428.099 377.302"/><polygon class="aba5c704-a1ad-4fdb-872e-572c3fda2530" points="404.293 553.704 410.385 560.091 404.293 566.478 392.108 560.091 392.108 553.704 404.293 553.704"/><path class="f4c5e613-91a8-4ac7-9af4-ef07b624dd47" d="M399.7238,238.8474c-8.9658-7.4224-30.5819-3.155-41.9543-3.155-2.37,24.9544-6.9443,49.8759-12.5427,74.283-4.838,21.0915-14.06,41.6531-18.1652,62.7153-3.6612,18.7843-11.6386,32.2887-26.6391,45.1555-2.3374,2.0049-5.0294,4.6075-4.3331,7.6072.42,1.8091,1.9907,3.0936,3.5223,4.1441,15.1238,10.373,34.5665,11.4534,52.903,11.7628q20.8848.3523,41.7735-.025c18.1391-.3278,38.32-2.4614,53.7861-12.954.9767-.6626,2.0191-1.5175,2.0932-2.6954a4.4667,4.4667,0,0,0-1.2059-2.7142c-10.8032-14.9268-9.5528-39.6139-11.6587-57.09-2.3766-19.7234-4.7633-39.5025-9.4714-58.8027A249.8306,249.8306,0,0,0,415.8,270.38c-3.7669-9.0585-8.2617-23.8946-15.3387-30.8676Q400.1083,239.1653,399.7238,238.8474Z"/><path class="b98e4e29-60d0-4b52-ab72-4648a1c2cffc" d="M373.1911,204.7921a19.331,19.331,0,0,1,7.8592-12.3239,16.6972,16.6972,0,0,1,6.9518,26.3779,18.9714,18.9714,0,0,0-15.3528-14.1136Z"/><path class="f61aed8c-eaf5-4428-b263-1f25d31268bf" d="M381.0737,241.0309c5.3781-2.5306,8.7981-8.219,9.78-14.0811s-.1763-11.8868-1.9879-17.5473c-6.0287-18.8372-29.715-12.5364-34.7037,3.9335C349.8145,227.69,365.4363,248.3883,381.0737,241.0309Z"/><path class="b98e4e29-60d0-4b52-ab72-4648a1c2cffc" d="M374.4915,372.654c3.42-2.6,3.0233-7.7129,3.9078-11.9165s6.1826-8.384,8.9767-5.1213c5.9406-2.443,9.0644-9.32,9.0451-15.7436s-2.5475-12.54-5.0343-18.4625c-8.8508-21.078-19.0282-41.2187-19.1547-64.52-.0427-7.872,1.1114-15.6961,2.2627-23.4837,1.0243-6.9282,1.88-13.9064,3.0765-20.8065.7932-4.5742,3.9868-8.6434,4.3553-12.988a10.232,10.232,0,0,0-3.551-8.0916,14.3412,14.3412,0,0,0-11.7849-4.0676c-15.9845,1.5825-26.8045,12.4863-29.4085,28.6064-2.2017,13.6294,1.3246,27.4336,3.8638,41.0042,3.818,20.406,2.5287,44.6971-7.4434,63.1319-4.0636,7.5119-8.579,15.1029-9.5633,23.5865s2.7221,18.23,10.7327,21.1915c3.13,1.1571,6.6847,1.2213,9.5051,3.0048a5.5522,5.5522,0,0,1,1.4943,8.291c4.2265,5.63,7.5545.7389,11.8111-.9608C362.7739,373.2353,370.1164,375.98,374.4915,372.654Z"/><polygon class="f4c5e613-91a8-4ac7-9af4-ef07b624dd47" points="385.529 237.931 440.149 234.027 467.683 203.032 481.348 211.179 451.165 253.548 392.206 265.911 385.529 237.931"/><polygon class="f61aed8c-eaf5-4428-b263-1f25d31268bf" points="471.051 205.04 473.859 195.3 477.33 195.3 478.414 192.468 483.837 192.468 488.825 199.854 478.88 209.708 471.051 205.04"/><polygon class="a8cb7ebf-29b3-470a-a79f-9176bfeb290a" points="473.859 195.3 471.051 179.9 476.028 177.948 479.938 195.3 473.859 195.3"/><path class="a2e32747-de28-4802-a2e0-94784d9bbd71" d="M661.6059,546.417l11.4018-10.5315c3.3082-1.6739,6.8076-2.8431,9.6431-2.8072a5.4567,5.4567,0,0,1,4.7986,2.25,5.5251,5.5251,0,0,1,.5166,5.0784,6.8605,6.8605,0,0,1-.9907,1.6035l.0006,0-.0054.0061c-.34.4252-.711.8283-1.0809,1.2256-.2357.2531-.4951.5249-.7712.808-2.3594,2.5575-6.313,6.7223-7.8823,7.6638-2.3021,1.3813-7.3668,5.0648-13.3524.9209.0222-.02.0473-.0387.07-.0586A5.772,5.772,0,0,1,661.6059,546.417Z"/><path class="a4f7fc6d-e335-4905-922d-2003c6ce2060" d="M670.5555,454.7l.9208,13.216,4.5171,64.3415-4.5171,7.485s-.9208,5.9855,5.9855,5.525c2.0546-.1368,9.3309-9.3883,9.3309-9.3883l-1.0518-4.24,5.12-48.3107-.0472-14.0317,2.4494-15.58Z"/><path class="a2e32747-de28-4802-a2e0-94784d9bbd71" d="M742.8336,530.0786a5.8957,5.8957,0,0,1,5.6842.6914,5.97,5.97,0,0,1,2.2422,5.0389,10.8792,10.8792,0,0,1-1.1755,3.61c-2.7534,5.9679-10.4758,19.4609-19.3361,16.9881-3.7232-1.04-5.1329-4.8408-4.377-8.1985C727.01,543.1493,735.7362,532.3108,742.8336,530.0786Z"/><path class="a4f7fc6d-e335-4905-922d-2003c6ce2060" d="M698.174,446.9817l1.543,19.03,37.3561,67.26s-5.37,9.3809-1.9641,10.1958,13.3925-2.0265,13.4136-12.6193c-3.9277-12.8284-19.3658-56.39-19.3658-56.39l-7.2289-11.2406.1061-21.1244Z"/><path class="e82249d2-129e-4fdf-a16d-4f291878b883" d="M740.38,383.28c.2949-5.61-1.5-20.2467-3.3428-25.4917-6.72-19.1241-8.016-28.5495-8.016-44.1156s6.9063-64.92,6.9063-64.92l-23.9932-14.402-28.7614.8073-15.971,5.2671s-3.3812,62.0946-4.3413,82.108c-.6848,14.2823-1.6768,26.6515-2.9825,43.2,0,0-3.661,37.745,1.9951,78.2074,0,0,1.2626,13.4359,1.8287,14.6129.0748.3995.1168.6138.1168.6138l.23.0011,63.957-.0011,0-23.0584q3.1935-11.1017,6.0892-22.2888C736.5577,404.3473,739.8326,393.6914,740.38,383.28Z"/><path class="b98e4e29-60d0-4b52-ab72-4648a1c2cffc" d="M675.8664,214.5544c-1.4029,5.4291,1.8179,10.7924,4.6363,15.3714,1.1514,1.8708,2.9357,4.4736,1.45,6.6091-1.6631,2.3908-5.7943,1.9115-7.6118.1241a11.1045,11.1045,0,0,1-2.4613-4.6421c-2.4533-7.4772-5.8786-17.951-5.2086-25.8111.5373-6.3026,8.2662-17.4948,16.2279-13.49a8.2733,8.2733,0,0,1,3.1649,3.4355,6.4909,6.4909,0,0,1,1.0249,2.5569c.3758,3.6491-3.1438,4.5882-5.4558,6.55A18.4326,18.4326,0,0,0,675.8664,214.5544Z"/><path class="a4f7fc6d-e335-4905-922d-2003c6ce2060" d="M689.1524,234.0574c-5.3175-.6757-9.7626-4.3927-12.1413-8.8676s-2.9464-9.6237-2.8531-14.6448c.31-16.7086,22.4663-17.6368,31.0807-5.6292C712.7462,215.38,704.6134,236.0215,689.1524,234.0574Z"/><path class="b98e4e29-60d0-4b52-ab72-4648a1c2cffc" d="M704.277,212.8035c.1827,2.0233,1.2119,4.1688,1.4959,6.2476.5225,3.8263-.3344,8.7916,1.0663,12.2877a23.5657,23.5657,0,0,0,11.4885-5.6283c2.94-2.7229,2.4108-6.7716,3.0681-10.7827.6077-3.71,1.3825-7.4384,1.1706-11.1919-1.16-20.55-21.6666-31.787-39.7338-22.517-6.8354,3.5072-9.8242,12.42-4.7966,18.2765,5.4074,6.299,16.3948,3.5679,22.871,8.2416A11.0536,11.0536,0,0,1,704.277,212.8035Z"/><path class="a4f7fc6d-e335-4905-922d-2003c6ce2060" d="M688.7068,232.3334q.4045,1.866.8088,3.7319c.1234.57.0772,2.2027.5683,2.5936a1.311,1.311,0,0,0,.972.1324c.96-.118,9.5592-1.2129,9.4657-1.76a30.16,30.16,0,0,0-.99-4.3028c-.3695-1.1313-.5107-3.26-1.1931-4.118a15.4891,15.4891,0,0,1-4.69,2.104q-2.49.7059-5.0043,1.3291Z"/><path class="b98e4e29-60d0-4b52-ab72-4648a1c2cffc" d="M605.7917,363.008l83.2624-30.6393a5.0774,5.0774,0,0,0,2.7739-6.6131L648.579,208.2267a5.0773,5.0773,0,0,0-6.3988-3.2377l-83.2625,30.64a5.0773,5.0773,0,0,0-2.7739,6.6131L599.3928,359.77A5.0773,5.0773,0,0,0,605.7917,363.008Z"/><path class="bed2ae79-ee36-4c44-9fff-26668ad44137" d="M635.667,289.7984l21.8032-8.0233a2.72,2.72,0,0,0,1.486-3.5426l-8.3818-22.7775a2.72,2.72,0,0,0-3.4279-1.7344l-21.8032,8.0232a2.72,2.72,0,0,0-1.4859,3.5426l8.3818,22.7775A2.72,2.72,0,0,0,635.667,289.7984Z"/><path class="bed2ae79-ee36-4c44-9fff-26668ad44137" d="M595.4682,304.591l21.8032-8.0233a2.72,2.72,0,0,0,1.486-3.5426l-8.3818-22.7776a2.72,2.72,0,0,0-3.4279-1.7344l-21.8032,8.0233a2.72,2.72,0,0,0-1.486,3.5427l8.3818,22.7775A2.72,2.72,0,0,0,595.4682,304.591Z"/><path class="bed2ae79-ee36-4c44-9fff-26668ad44137" d="M649.37,327.0353l21.8032-8.0232a2.72,2.72,0,0,0,1.4859-3.5426l-8.3818-22.7776a2.72,2.72,0,0,0-3.4279-1.7344l-21.8031,8.0233a2.72,2.72,0,0,0-1.486,3.5426l8.3818,22.7775A2.72,2.72,0,0,0,649.37,327.0353Z"/><path class="f4c5e613-91a8-4ac7-9af4-ef07b624dd47" d="M609.1709,341.828l21.8032-8.0233a2.72,2.72,0,0,0,1.4859-3.5426l-8.3818-22.7776A2.72,2.72,0,0,0,620.65,305.75l-21.8032,8.0233a2.72,2.72,0,0,0-1.486,3.5426l8.3819,22.7776A2.72,2.72,0,0,0,609.1709,341.828Z"/><path class="b4d51689-88a5-4971-b870-09795f79f83e" d="M637.2064,264.3231a1.6932,1.6932,0,0,1-.05-1.188,1.2209,1.2209,0,0,1,.7728-.7421,1.2546,1.2546,0,0,1,1.07.0641,1.6409,1.6409,0,0,1,.7491.9307l2.5211,6.8512,6.1578-2.266a1.3763,1.3763,0,0,1,1.11.07,1.4418,1.4418,0,0,1,.7667.82,1.3394,1.3394,0,0,1-.0333,1.0938,1.4509,1.4509,0,0,1-.846.7273l-6.1577,2.2659,2.5279,6.87a1.6107,1.6107,0,0,1-.0063,1.1671,1.2342,1.2342,0,0,1-.7337.7692,1.22,1.22,0,0,1-1.07-.064,1.6934,1.6934,0,0,1-.7321-.9371l-2.5278-6.8694-6.1919,2.2786a1.42,1.42,0,0,1-1.1071-.0086,1.3558,1.3558,0,0,1-.7258-.8145,1.4708,1.4708,0,0,1,.02-1.13,1.36,1.36,0,0,1,.8154-.7576l6.1919-2.2784Z"/><path class="b4d51689-88a5-4971-b870-09795f79f83e" d="M594.7824,291.28a.8376.8376,0,0,1-.6776-.0522.8925.8925,0,0,1-.475-.5011l-.7145-1.9418a.7523.7523,0,0,1,.0195-.6311.9377.9377,0,0,1,.54-.4275l14.1406-5.2036a.7619.7619,0,0,1,.6114.0038.8032.8032,0,0,1,.3984.4773l.7147,1.9418a1.0014,1.0014,0,0,1,.0363.7042.7131.7131,0,0,1-.453.4266Z"/><path class="b4d51689-88a5-4971-b870-09795f79f83e" d="M606.7859,323.2183a.8389.8389,0,0,1-.6778-.0523.8933.8933,0,0,1-.4749-.5011l-.7146-1.9419a.7527.7527,0,0,1,.02-.6311.9377.9377,0,0,1,.54-.4275l14.1408-5.2035a.7608.7608,0,0,1,.6113.0038.8036.8036,0,0,1,.3985.4774l.7146,1.9417a1.002,1.002,0,0,1,.0363.7042.7133.7133,0,0,1-.453.4267Z"/><path class="b4d51689-88a5-4971-b870-09795f79f83e" d="M609.4041,330.3335a.8375.8375,0,0,1-.6776-.0521.8936.8936,0,0,1-.475-.5012l-.7145-1.9418a.753.753,0,0,1,.0195-.6311.9379.9379,0,0,1,.54-.4275l14.1407-5.2035a.7608.7608,0,0,1,.6113.0037.8029.8029,0,0,1,.3985.4774l.7146,1.9417a1.0009,1.0009,0,0,1,.0363.7042.7123.7123,0,0,1-.453.4267Z"/><path class="b4d51689-88a5-4971-b870-09795f79f83e" d="M648.4659,312.6837a.8376.8376,0,0,1-.6776-.0523.8932.8932,0,0,1-.475-.5011l-.7146-1.9417a.7532.7532,0,0,1,.02-.6312.9377.9377,0,0,1,.54-.4275l14.1407-5.2036a.7621.7621,0,0,1,.6115.0038.8039.8039,0,0,1,.3984.4773l.7146,1.9419a1.0014,1.0014,0,0,1,.0363.7042.7135.7135,0,0,1-.453.4267Z"/><path class="b4d51689-88a5-4971-b870-09795f79f83e" d="M651.3153,304.4337a1.9612,1.9612,0,1,0,1.11-2.6471A2.0324,2.0324,0,0,0,651.3153,304.4337Z"/><path class="b4d51689-88a5-4971-b870-09795f79f83e" d="M654.6755,313.565a1.9612,1.9612,0,1,0,1.11-2.647A2.0325,2.0325,0,0,0,654.6755,313.565Z"/><path class="b98e4e29-60d0-4b52-ab72-4648a1c2cffc" d="M564.0691,263.7784l92.65-33.4307-7.9527-21.6113a5.2427,5.2427,0,0,0-6.7308-3.11L559.441,236.0205a5.2428,5.2428,0,0,0-3.11,6.7308Z"/><rect class="b4d51689-88a5-4971-b870-09795f79f83e" x="568.1397" y="233.7867" width="79.949" height="18.764" transform="translate(-46.5633 224.9693) rotate(-20.2028)"/><polygon class="a4f7fc6d-e335-4905-922d-2003c6ce2060" points="730.257 244.409 741.025 250.277 742.951 267.297 730.956 310.247 660.367 331.456 639.741 335.519 635.504 330.269 639.156 323.94 648.063 321.665 647.211 316.563 656.872 318.005 713.515 296.834 723.222 260.816 730.257 244.409"/><polygon class="b98e4e29-60d0-4b52-ab72-4648a1c2cffc" points="198.698 451.846 145.795 432.391 156.699 525.066 149.381 610.021 149.211 610.554 149.338 610.568 149.324 610.742 159.76 611.738 159.762 611.727 160.15 611.77 184.451 535.535 196.785 459.655 196.785 459.655 198.698 451.846"/><polygon class="aba5c704-a1ad-4fdb-872e-572c3fda2530" points="160.217 610.381 149.394 610.108 146.63 619.24 146.903 619.321 146.834 619.329 164.727 629.931 173.234 630.877 174.316 621.154 172.017 619.47 160.217 610.381"/><polygon class="b98e4e29-60d0-4b52-ab72-4648a1c2cffc" points="234.733 453.438 218.856 618.116 208.384 618.591 197.864 526.911 179.627 441.582 234.733 453.438"/><polygon class="aba5c704-a1ad-4fdb-872e-572c3fda2530" points="218.829 615.8 232.699 623.664 231.399 630.209 206.616 626.473 208.074 617.044 218.829 615.8"/><path class="afd29f19-501d-4e56-8492-8d37089bd25f" d="M259.5356,493.2881c3.3476-2.3245,3.4193-6.3715,3.4133-10.4249a101.2942,101.2942,0,0,0-3.1246-22.7885c-3.322-13.8759-7.0879-30.5884-8.7442-48.5689-4.28-46.47-18.9549-77.6545-18.9549-77.6545L227.39,321.2239q-1.4118-2.463-2.9372-4.8656c-5.914-9.2807-16.183-25.052-27.1654-27.6336q-.3443-.0811-.6924-.1573c-11.5467-2.5343-26.3426-1.3582-36.7779,4.2553a36.4411,36.4411,0,0,0-5.4887,3.8942c-5.1026,4.116-9.2638,6.3447-11.4637,12.6169-1.91,5.446-2.3541,11.3886-3.4071,17.032-2.1395,11.4662-3.4158,23.0694-5.1241,34.6023-3.2036,21.6268-5.9241,43.3238-9.3511,64.9176-1.7638,11.1132-3.54,22.247-4.3735,33.4769-.7366,9.9287-9.694,20.0108-14.7275,28.9088-1.7516,3.0963,23.4041,11.12,25.6583,11.6448,10.4349,2.4291,21.535,1.8086,32.2918,1.8576q35.36.16,70.6718-2.1791c7.8165-.5181,17.4486-2.01,24.3845-5.902Q259.2306,493.5,259.5356,493.2881Z"/><path class="a8cb7ebf-29b3-470a-a79f-9176bfeb290a" d="M183.647,287.2967s-13.2786-3.5845-15.113,26.3767-4.8915,105.7812-9.1718,126.5706-10.7,61.5666-10.7,61.5666l40.6615,1.4131,46.4705-3.6687s-15.8978-29.35-18.3436-50.1392,1.8343-99.0553-8.56-128.405S196.3142,287.8242,183.647,287.2967Z"/><polygon class="afd29f19-501d-4e56-8492-8d37089bd25f" points="243.743 354.029 246.8 357.698 267.694 353.397 213.782 293.495 197.272 288.604 205.221 310.005 243.743 354.029"/><path class="b98e4e29-60d0-4b52-ab72-4648a1c2cffc" d="M191.8415,258.684c3.9114,5.013,3.3232,12.0476,2.7566,18.0825-.5024,5.3515-.1706,8.6389,5.6848,7.9562,3.2992-.3846,9.1762-1.0031,11.0232-4.2894,1.3975-2.4893-1.6812-7.55-3.4376-9.3717-1.3416-1.3906-3.6331-1.5254-4.9371-2.9513a6.2164,6.2164,0,0,1-1.1291-2.0881,32.374,32.374,0,0,1-1.9684-9.52,32.8243,32.8243,0,0,0-.5686-6.5878c-.8083-3.0988-4.1787-5.8484-6.277-8.2149-3.9036-4.4024-13.5873-8.7293-18.2141-2.5431a9.3963,9.3963,0,0,0-1.439,5.0007,7.8073,7.8073,0,0,0,.2138,3.1209c1.3545,3.9633,5.1944,3.35,8.35,4.3452A20.9719,20.9719,0,0,1,191.8415,258.684Z"/><path class="f61aed8c-eaf5-4428-b263-1f25d31268bf" d="M188.1919,284.9587c4.816-3.1037,7.3585-8.9751,7.5494-14.7014s-1.6843-11.3353-4.137-16.5129c-8.1624-17.23-29.9909-8.1893-32.6575,8.1837C156.623,276.1969,174.1886,293.9824,188.1919,284.9587Z"/><path class="f61aed8c-eaf5-4428-b263-1f25d31268bf" d="M187.5024,283.0341q.9522,3.1012,1.9042,6.2026a.9914.9914,0,0,1-.8247,1.5028l-5.0389,1.595a5.7543,5.7543,0,0,1-2.5642.3983c-1.8895-.2883-2.9813-2.3232-3.3613-4.1965s-.378-3.8978-1.3813-5.5248c4.0257.4719,5.9257-4.4982,9.9514-4.0263Z"/><path class="b98e4e29-60d0-4b52-ab72-4648a1c2cffc" d="M160.5565,229.871c-5.1344,4.0562-6.7822,11.29-11.6427,15.6712-2.7875,2.5125-6.5932,4.057-8.4344,7.3271-4.1263,7.328,4.5542,16.55,1.8548,24.5147-.5614,1.6562-1.59,3.1226-2.1569,4.7766-1.2222,3.5679-.1624,7.47.9,11.0886a11.8852,11.8852,0,0,0,.9632,2.441c3.6767,7.9226,15.3891,3.1783,19.9284.9757,4.9816-2.4171,2.23-4.6846,2.23-4.6846l-.27-.1632a10.5274,10.5274,0,0,1,.2918-10.2331,12.9064,12.9064,0,0,0,1.9289-3.4524c.7029-2.89-1.8658-5.4775-2.6322-8.3514-3.0857-11.5759,16.6571-15.8684,19.143-25.7723C185.7085,231.864,170.2533,222.2106,160.5565,229.871Z"/><polygon class="bd53eea0-b53a-4b90-bb6f-2c1545378b8a" points="117.792 417.986 127.054 427.382 131.243 423.599 126.325 415.76 129.136 414.89 120.231 407.815 115.346 411.16 117.792 417.986"/><polygon class="afd29f19-501d-4e56-8492-8d37089bd25f" points="159.201 336.276 128.166 359.895 123.294 406.208 113.005 413.881 102.039 346.039 154.328 296.717 159.201 336.276"/><rect class="b98e4e29-60d0-4b52-ab72-4648a1c2cffc" x="147.9534" y="337.7411" width="6.3457" height="118.0832" transform="translate(41.386 -13.3792) rotate(5.872)"/><rect class="b98e4e29-60d0-4b52-ab72-4648a1c2cffc" x="202.8255" y="343.3846" width="6.3457" height="118.0832" transform="translate(42.2513 -18.9633) rotate(5.872)"/><rect class="b98e4e29-60d0-4b52-ab72-4648a1c2cffc" x="257.6974" y="349.0282" width="6.3457" height="118.0831" transform="translate(43.1159 -24.547) rotate(5.8719)"/><rect class="b98e4e29-60d0-4b52-ab72-4648a1c2cffc" x="124.5737" y="336.61" width="180.8467" height="14.7773" transform="translate(36.3225 -20.1911) rotate(5.8722)"/><rect class="b98e4e29-60d0-4b52-ab72-4648a1c2cffc" x="112.4928" y="454.0735" width="180.8466" height="14.7773" transform="translate(48.2764 -18.3387) rotate(5.8721)"/><path class="a73181d0-4bca-4d8e-a849-c9f6b2c2ba9d" d="M139.2261,353.7592h31.0218a7.0884,7.0884,0,0,1,7.0884,7.0884v1.6559a7.0886,7.0886,0,0,1-7.0886,7.0886H139.2264a7.0885,7.0885,0,0,1-7.0885-7.0885v-1.6561a7.0883,7.0883,0,0,1,7.0883-7.0883Z" transform="translate(37.8136 -13.9328) rotate(5.872)"/><path class="a73181d0-4bca-4d8e-a849-c9f6b2c2ba9d" d="M135.6156,388.8663H166.637a7.0885,7.0885,0,0,1,7.0885,7.0885v1.6561a7.0883,7.0883,0,0,1-7.0883,7.0883H135.6157a7.0885,7.0885,0,0,1-7.0885-7.0885v-1.656A7.0884,7.0884,0,0,1,135.6156,388.8663Z" transform="translate(41.3875 -13.3795) rotate(5.8722)"/><path class="a73181d0-4bca-4d8e-a849-c9f6b2c2ba9d" d="M133.5969,408.4934h31.0215a7.0884,7.0884,0,0,1,7.0884,7.0884v1.6561a7.0884,7.0884,0,0,1-7.0884,7.0884H133.597a7.0885,7.0885,0,0,1-7.0885-7.0885v-1.656a7.0884,7.0884,0,0,1,7.0884-7.0884Z" transform="translate(43.3865 -13.0704) rotate(5.8724)"/><path class="a73181d0-4bca-4d8e-a849-c9f6b2c2ba9d" d="M131.559,428.3082h31.022a7.088,7.088,0,0,1,7.088,7.088v1.656a7.0888,7.0888,0,0,1-7.0888,7.0888H131.5591a7.0885,7.0885,0,0,1-7.0885-7.0885v-1.6559a7.0885,7.0885,0,0,1,7.0885-7.0885Z" transform="translate(45.4031 -12.7579) rotate(5.8724)"/><path class="a73181d0-4bca-4d8e-a849-c9f6b2c2ba9d" d="M194.0982,359.4027H225.12a7.0885,7.0885,0,0,1,7.0885,7.0885v1.656a7.0884,7.0884,0,0,1-7.0884,7.0884H194.0981a7.0883,7.0883,0,0,1-7.0883-7.0883V366.491a7.0884,7.0884,0,0,1,7.0884-7.0884Z" transform="translate(38.68 -19.5175) rotate(5.8722)"/><path class="a73181d0-4bca-4d8e-a849-c9f6b2c2ba9d" d="M192.0352,379.46h31.0221a7.0881,7.0881,0,0,1,7.0881,7.0881v1.656a7.0888,7.0888,0,0,1-7.0888,7.0888H192.0355a7.0885,7.0885,0,0,1-7.0885-7.0885v-1.6561A7.0883,7.0883,0,0,1,192.0352,379.46Z" transform="translate(40.7212 -19.2012) rotate(5.8722)"/><rect class="a73181d0-4bca-4d8e-a849-c9f6b2c2ba9d" x="181.3804" y="414.1369" width="45.1985" height="15.8329" rx="7.0885" transform="translate(44.2505 -18.6544) rotate(5.8722)"/><path class="a73181d0-4bca-4d8e-a849-c9f6b2c2ba9d" d="M186.431,433.9517h31.0219a7.0881,7.0881,0,0,1,7.0881,7.0881v1.6563a7.0884,7.0884,0,0,1-7.0884,7.0884H186.431a7.0885,7.0885,0,0,1-7.0885-7.0885V441.04a7.0884,7.0884,0,0,1,7.0884-7.0884Z" transform="translate(46.2653 -18.3413) rotate(5.872)"/><path class="a73181d0-4bca-4d8e-a849-c9f6b2c2ba9d" d="M248.97,365.0462h31.0215a7.0885,7.0885,0,0,1,7.0885,7.0885v1.656a7.0884,7.0884,0,0,1-7.0884,7.0884H248.97a7.0885,7.0885,0,0,1-7.0885-7.0885v-1.6559a7.0884,7.0884,0,0,1,7.0884-7.0884Z" transform="translate(39.5443 -25.1012) rotate(5.872)"/><path class="a73181d0-4bca-4d8e-a849-c9f6b2c2ba9d" d="M245.3594,400.1533H276.381a7.0885,7.0885,0,0,1,7.0885,7.0885v1.6559a7.0885,7.0885,0,0,1-7.0885,7.0885H245.3595a7.0885,7.0885,0,0,1-7.0885-7.0885v-1.656a7.0884,7.0884,0,0,1,7.0884-7.0884Z" transform="translate(43.1183 -24.5482) rotate(5.8722)"/><path class="a73181d0-4bca-4d8e-a849-c9f6b2c2ba9d" d="M243.3408,419.78h31.0215a7.0885,7.0885,0,0,1,7.0885,7.0885v1.6561a7.0883,7.0883,0,0,1-7.0883,7.0883H243.3409a7.0885,7.0885,0,0,1-7.0885-7.0885v-1.656a7.0884,7.0884,0,0,1,7.0884-7.0884Z" transform="translate(45.1172 -24.2394) rotate(5.8724)"/><path class="a73181d0-4bca-4d8e-a849-c9f6b2c2ba9d" d="M241.3029,439.5952h31.022a7.0881,7.0881,0,0,1,7.0881,7.0881v1.656a7.0888,7.0888,0,0,1-7.0888,7.0888H241.3029a7.0885,7.0885,0,0,1-7.0885-7.0885v-1.656a7.0884,7.0884,0,0,1,7.0884-7.0884Z" transform="translate(47.1336 -23.9268) rotate(5.8723)"/><polygon class="f61aed8c-eaf5-4428-b263-1f25d31268bf" points="292.035 359.349 287.035 354.979 278.896 359.837 279.363 372.411 286.962 375.275 292.035 359.349"/><path class="f61aed8c-eaf5-4428-b263-1f25d31268bf" d="M735.0592,378.8768l-6.38,1.4729c-2.3288.5378-10.059,9.1492-11.6664,11.09-.9181,1.1085,9.7011,2.1155,10.7163,1.931,1.7321-.3148,4.83-3.6309,6.4524-4.72l3.4569,1.3967,2.9307-3.7827Z"/><polygon class="aba5c704-a1ad-4fdb-872e-572c3fda2530" points="890.796 614.994 891.697 622.002 878.582 630.812 870.674 624.705 876.78 616.796 889.895 607.987 890.796 614.994"/><polygon class="b98e4e29-60d0-4b52-ab72-4648a1c2cffc" points="891.239 612.642 881.125 523.271 893.294 423.22 890.557 401.937 836.206 399.872 834.245 434.512 843.369 523.408 877.696 617.209 891.239 612.642"/><polygon class="a73181d0-4bca-4d8e-a849-c9f6b2c2ba9d" points="827.551 302.93 803.122 317.285 787.659 344.185 732.707 377.467 740.791 390.31 788.162 374.525 812.382 362.027 827.551 302.93"/><polygon class="b98e4e29-60d0-4b52-ab72-4648a1c2cffc" points="796.325 409.888 796.182 500.075 814.335 616.175 827.402 616.045 834.584 508.679 851.394 401.217 796.325 409.888"/><polygon class="b98e4e29-60d0-4b52-ab72-4648a1c2cffc" points="827.382 621.555 813.322 628.761 806.186 621.767 813.181 614.631 827.311 614.49 827.382 621.555"/><path class="a73181d0-4bca-4d8e-a849-c9f6b2c2ba9d" d="M898.9183,440.5606c-.1246-3.9082-.3418-7.17-.373-8.3345-.28-10.484-1.214-20.9445-2.5265-31.3542-1.1761-9.3282-2.6606-32.4861-4.257-41.7569-1.3182-7.6545-5.9111-26.7605-9.23-33.86-8.2529-17.6563-5.703-19.2874-41.9556-24.53-15.8883-2.2978-19.6438,7.604-32.6331,18.9907-1.281,1.1229-1.2105,7.81-1.5077,9.58-.5235,3.1183-1.0841,6.2312-1.7272,9.3295-.5054,2.4353-1.0629,4.8629-1.6885,7.2746l.0012-.0008s-10.9047,49.6243-18.1159,60.1637-22.1091,25.2737,2.8117,34.27a89.1141,89.1141,0,0,0,13.4574,3.5122s20.3811-2.2649,30.8624-2.1867a178.0715,178.0715,0,0,1,28.8369,2.6856c6.3463,1.0607,12.8221,2.602,18.4992,5.5674,5.416,2.8291,9.3249,6.9907,14.82,9.92a2.87,2.87,0,0,0,1.6828.4827C899.0323,459.8767,899.1805,448.7863,898.9183,440.5606Z"/><path class="f61aed8c-eaf5-4428-b263-1f25d31268bf" d="M841.9339,302.6816c1.7522,1.0447,6.0306,1.7078,10.6592.3042a2.3523,2.3523,0,0,0,1.6763-2.08,61.0228,61.0228,0,0,0-.0121-8.201c3.4609-.9179,7.4923-2.3859,8.3573-5.8605a10.091,10.091,0,0,0,.0665-3.3658q-.6442-6.9636-1.2883-13.9274a12.3205,12.3205,0,0,0-1.0651-4.6845c-1.3234-2.501-4.1747-3.7747-6.9158-4.4767-6.9948-1.7917-14.8445-.8661-20.71,3.3444a11.03,11.03,0,0,0-3.79,4.255c-1.2147,2.7026-.7129,5.8291-.1887,8.7453q.7261,4.0377,1.4521,8.0754c.5567,3.096,1.434,6.6347,4.2665,8.003,1.504.7265,3.35.6949,4.684,1.7C841.4784,296.2844,840.8535,299.9416,841.9339,302.6816Z"/><path class="b98e4e29-60d0-4b52-ab72-4648a1c2cffc" d="M804.6113,253.7717a29.8169,29.8169,0,0,0-2.0273-3.4631c-1.6415-2.3858-3.73-4.4849-4.9971-7.0891s-1.5149-6.0185.422-8.1713a8.9744,8.9744,0,0,1,4.9762-2.3681,34.7042,34.7042,0,0,1,18.2216,1.1018c5.5525,1.89,10.4354,4.68,16.308,3,5.518-1.578,9.3247-.4567,14.7683,1.9847,5.8908,2.642,13.9883,3.7952,19.2341,7.2824a16.2384,16.2384,0,0,1,5.1126,5.907,24.4669,24.4669,0,0,1-1.9714,25.7979,34.96,34.96,0,0,1-4.1735,4.4842c-3.1049,2.8754-6.8285,6.4357-10.8534,7.2742.1845-3.5268,4.2672-14.37,1.7925-17.4685-3.9276-4.9163-13.7517-4.0859-19.1616-3.38-5.9011.7707-11.3991,4.4719-17.2226,4.8954-4.1905.3047-9.3144-2.1434-12.6663-4.5619C808.2374,266.0117,806.8236,258.1475,804.6113,253.7717Z"/><polygon class="a73181d0-4bca-4d8e-a849-c9f6b2c2ba9d" points="869.533 307.257 895.239 313.858 875.451 272.304 882.698 256.989 921.55 317.914 916.826 341.692 869.88 349.892 869.533 307.257"/><path class="f61aed8c-eaf5-4428-b263-1f25d31268bf" d="M881.951,261.09a62.9874,62.9874,0,0,0-5.256-13.9339c-.7461-1.4354-1.8885-3.0408-3.5031-2.9425-1.8519.1129-2.7227,2.3326-2.9549,4.1733a26.054,26.054,0,0,0,.7958,10.3881c-.3967.6942-1.3869-.5245-2.1661-.346a1.0438,1.0438,0,0,0-.6637.8058c-1.3269,4.8263,4.9105,8.1705,7.7483,10.5345,2.5345-3.03,3.3692-6.5553,6.7468-9.0017Z"/><rect class="a8cb7ebf-29b3-470a-a79f-9176bfeb290a" x="592.8558" y="392.3804" width="78.5587" height="78.5587"/><path class="bed2ae79-ee36-4c44-9fff-26668ad44137" d="M672.7986,472.3227h-81.327V390.9965h81.327ZM594.24,469.555h75.79V393.7644H594.24Z"/><rect class="a8cb7ebf-29b3-470a-a79f-9176bfeb290a" x="671.4145" y="392.3804" width="78.5587" height="78.5587"/><path class="bed2ae79-ee36-4c44-9fff-26668ad44137" d="M751.3573,472.3227H670.03V390.9965h81.327Zm-78.5587-2.7677h75.79V393.7644h-75.79Z"/><rect class="a8cb7ebf-29b3-470a-a79f-9176bfeb290a" x="749.9732" y="392.3804" width="78.5586" height="78.5587"/><path class="bed2ae79-ee36-4c44-9fff-26668ad44137" d="M829.9159,472.3227h-81.327V390.9965h81.327Zm-78.5586-2.7677h75.79V393.7644h-75.79Z"/><rect class="a8cb7ebf-29b3-470a-a79f-9176bfeb290a" x="592.8558" y="470.9391" width="78.5587" height="78.5586"/><path class="bed2ae79-ee36-4c44-9fff-26668ad44137" d="M672.7986,550.8817h-81.327V469.555h81.327ZM594.24,548.1139h75.79V472.3227H594.24Z"/><rect class="a8cb7ebf-29b3-470a-a79f-9176bfeb290a" x="671.4145" y="470.9391" width="78.5587" height="78.5586"/><path class="bed2ae79-ee36-4c44-9fff-26668ad44137" d="M751.3573,550.8817H670.03V469.555h81.327Zm-78.5587-2.7678h75.79V472.3227h-75.79Z"/><rect class="a8cb7ebf-29b3-470a-a79f-9176bfeb290a" x="749.9732" y="470.9391" width="78.5586" height="78.5586"/><path class="bed2ae79-ee36-4c44-9fff-26668ad44137" d="M829.9159,550.8817h-81.327V469.555h81.327Zm-78.5586-2.7678h75.79V472.3227h-75.79Z"/><rect class="a8cb7ebf-29b3-470a-a79f-9176bfeb290a" x="592.8558" y="549.4977" width="78.5587" height="78.5587"/><path class="bed2ae79-ee36-4c44-9fff-26668ad44137" d="M672.7986,629.44h-81.327V548.1139h81.327ZM594.24,626.6723h75.79V550.8817H594.24Z"/><rect class="a8cb7ebf-29b3-470a-a79f-9176bfeb290a" x="671.4145" y="549.4977" width="78.5587" height="78.5587"/><path class="bed2ae79-ee36-4c44-9fff-26668ad44137" d="M751.3573,629.44H670.03V548.1139h81.327Zm-78.5587-2.7678h75.79V550.8817h-75.79Z"/><rect class="a8cb7ebf-29b3-470a-a79f-9176bfeb290a" x="749.9732" y="549.4977" width="78.5586" height="78.5587"/><path class="bed2ae79-ee36-4c44-9fff-26668ad44137" d="M829.9159,629.44h-81.327V548.1139h81.327Zm-78.5586-2.7678h75.79V550.8817h-75.79Z"/><path class="b98e4e29-60d0-4b52-ab72-4648a1c2cffc" d="M803.7884,446.6325v7.084H776.0769v-6.5172l13.4307-14.2808q4.1928-4.5331,4.194-8.2739a4.5375,4.5375,0,0,0-1.388-3.599,5.9779,5.9779,0,0,0-4.0522-1.218q-5.1582,0-10.7112,3.91l-2.8336-6.3468a17.7639,17.7639,0,0,1,6.2338-3.3156,25.098,25.098,0,0,1,7.7072-1.2181q6.2908,0,10.0027,3.0316a9.9623,9.9623,0,0,1,3.7113,8.1322,14.658,14.658,0,0,1-1.4444,6.4891,28.0188,28.0188,0,0,1-4.8459,6.6018l-9.1239,9.5207Z"/><path class="b98e4e29-60d0-4b52-ab72-4648a1c2cffc" d="M805.5551,594.6064a10.8859,10.8859,0,0,1-2.1251,14.5929q-4.0253,3.06-10.9381,3.06a26.5539,26.5539,0,0,1-8.0469-1.218,17.1026,17.1026,0,0,1-6.2339-3.3157l2.8336-6.3468a18.61,18.61,0,0,0,11.0509,3.91q3.6831,0,5.355-1.2751a4.7709,4.7709,0,0,0,1.6725-4.0516,4.4818,4.4818,0,0,0-1.6725-3.8824q-1.6713-1.2175-5.355-1.2182h-5.78v-6.914h4.8171a8.9949,8.9949,0,0,0,5.2133-1.218,4.2616,4.2616,0,0,0,1.7-3.712,4.7559,4.7559,0,0,0-1.5021-3.7971,6.3341,6.3341,0,0,0-4.278-1.3033,15.4925,15.4925,0,0,0-5.3273.9918,21.1712,21.1712,0,0,0-5.3274,2.9182l-2.8336-6.3468a17.7655,17.7655,0,0,1,6.2338-3.3156,25.4581,25.4581,0,0,1,7.8213-1.2181,17.65,17.65,0,0,1,7.1679,1.36,10.9541,10.9541,0,0,1,4.7607,3.7971,10.6653,10.6653,0,0,1,.0288,11.419,9.5039,9.5039,0,0,1-4.6478,3.5419A10.0333,10.0333,0,0,1,805.5551,594.6064Z"/><path class="b98e4e29-60d0-4b52-ab72-4648a1c2cffc" d="M720.424,427.1713a11.33,11.33,0,0,1,4.5337,4.5619,13.92,13.92,0,0,1,1.6149,6.8007,13.411,13.411,0,0,1-1.8981,7.1685,12.4179,12.4179,0,0,1-5.44,4.76,19.1216,19.1216,0,0,1-8.2449,1.6719,24.1363,24.1363,0,0,1-7.6231-1.2469,17.3824,17.3824,0,0,1-6.0922-3.2868l2.8336-6.3468a18.5391,18.5391,0,0,0,10.9945,3.91q7.0834,0,7.084-6.29a6.1786,6.1786,0,0,0-1.8418-4.7319,7.0375,7.0375,0,0,0-5.0152-1.729,11.5693,11.5693,0,0,0-3.9958.7373,12.2649,12.2649,0,0,0-3.5984,2.04h-5.044V411.3315h25.8984v6.8005H707.3055v9.01a12.41,12.41,0,0,1,6.46-1.5866A13.5194,13.5194,0,0,1,720.424,427.1713Z"/><path class="b98e4e29-60d0-4b52-ab72-4648a1c2cffc" d="M719.8748,587.2105a11.5155,11.5155,0,0,1,4.3631,4.6472,14.3813,14.3813,0,0,1,1.5585,6.7724,13.8716,13.8716,0,0,1-1.7854,7.0269,12.7283,12.7283,0,0,1-4.93,4.8736,14.3256,14.3256,0,0,1-7.1116,1.7571q-7.8776,0-12.1279-5.2139t-4.25-14.8475a29.0247,29.0247,0,0,1,2.04-11.42,16.2058,16.2058,0,0,1,5.8375-7.3386,15.8739,15.8739,0,0,1,9.0675-2.55,22.4577,22.4577,0,0,1,7.2533,1.19,17.8283,17.8283,0,0,1,6.0069,3.3439l-2.89,6.3468q-5.1-3.91-9.9739-3.91a7.086,7.086,0,0,0-6.1775,3.2016q-2.21,3.2022-2.4361,9.379a9.3675,9.3675,0,0,1,3.7676-3.5984,11.3262,11.3262,0,0,1,5.4691-1.3321A12.1163,12.1163,0,0,1,719.8748,587.2105Zm-4.08,16.4066A6.6,6.6,0,0,0,717.41,598.97a6.7315,6.7315,0,0,0-1.5872-4.7319,5.6306,5.6306,0,0,0-4.3633-1.7289,5.7367,5.7367,0,0,0-4.392,1.7853,6.56,6.56,0,0,0-1.6725,4.6755,6.42,6.42,0,0,0,1.7,4.6184,5.7581,5.7581,0,0,0,4.3644,1.7853A5.6038,5.6038,0,0,0,715.7948,603.6171Z"/><path class="b98e4e29-60d0-4b52-ab72-4648a1c2cffc" d="M697.3444,491.273h28.9589v6.5737l-17.9644,33.7761H698.874l17.908-33.2658H697.3444Z"/><path class="b98e4e29-60d0-4b52-ab72-4648a1c2cffc" d="M644.1086,594.5782a9.3392,9.3392,0,0,1,2.1528,6.2338,9.8,9.8,0,0,1-1.9546,6.0923,12.3616,12.3616,0,0,1-5.4691,3.9664,24.0152,24.0152,0,0,1-16.095,0,12.3509,12.3509,0,0,1-5.4679-3.9664,9.793,9.793,0,0,1-1.9558-6.0923,9.367,9.367,0,0,1,2.1828-6.262,11.195,11.195,0,0,1,6.0346-3.5421,11.1962,11.1962,0,0,1-5.3262-3.5137,8.6373,8.6373,0,0,1-1.9271-5.61,9.3751,9.3751,0,0,1,1.87-5.7807,11.7914,11.7914,0,0,1,5.1856-3.8253,21.5175,21.5175,0,0,1,14.904,0,11.7846,11.7846,0,0,1,5.1856,3.8253,9.3686,9.3686,0,0,1,1.8707,5.7807,8.868,8.868,0,0,1-1.9559,5.7236,10.1958,10.1958,0,0,1-5.2986,3.4A11.46,11.46,0,0,1,644.1086,594.5782Zm-8.0192,9.5207a4.53,4.53,0,0,0,1.9546-3.9671,4.81,4.81,0,0,0-1.9546-3.9669,7.9012,7.9012,0,0,0-10.5972,0,4.8081,4.8081,0,0,0-1.9558,3.9669,4.5282,4.5282,0,0,0,1.9558,3.9671,11.0039,11.0039,0,0,0,10.5972,0Zm-9.8047-25.0484a4.5248,4.5248,0,0,0-1.6714,3.7964,4.8075,4.8075,0,0,0,1.6714,3.8254,6.051,6.051,0,0,0,9.011,0,4.8082,4.8082,0,0,0,1.6726-3.8254,4.5253,4.5253,0,0,0-1.6726-3.7964,8.4356,8.4356,0,0,0-9.011,0Z"/><path class="b98e4e29-60d0-4b52-ab72-4648a1c2cffc" d="M635.21,523.3094h8.7277v7.0839H617.6428v-7.0839h8.7265V499.9047l-8.16,4.8165v-7.7636l11.8434-6.914H635.21Z"/><path class="e82249d2-129e-4fdf-a16d-4f291878b883" d="M245.7706,135.337a34.5959,34.5959,0,0,0-36.4488-32.22c-.0151-.5968-.0346-1.1943-.075-1.7957a41.9581,41.9581,0,0,0-75.2609-22.5973A38.8,38.8,0,0,0,67.781,106.63c-.8791-.0075-1.7626.0068-2.654.0666a34.5978,34.5978,0,0,0-9.19,67.1486,42.5691,42.5691,0,0,0,63.4247,46.5478c1.9383,1.0944,3.2075,1.948,3.2075,1.948a33.4606,33.4606,0,0,0,46.6121-14.3285,37.3868,37.3868,0,0,0,54.9525-35.47c-.06-.8961-.1626-1.779-.2839-2.6554A34.6137,34.6137,0,0,0,245.7706,135.337Z"/><circle class="e82249d2-129e-4fdf-a16d-4f291878b883" cx="94.0932" cy="246.3514" r="15.0641" transform="translate(-30.8137 14.0998) rotate(-7.3675)"/><path class="e82249d2-129e-4fdf-a16d-4f291878b883" d="M107.0579,273.5594a10.5577,10.5577,0,1,1,11.0782,10.01A10.5577,10.5577,0,0,1,107.0579,273.5594Z"/><path class="bed2ae79-ee36-4c44-9fff-26668ad44137" d="M109.009,151.7759l-.5954,9.2689-7.43-.4772-.6395,9.9585-11.7211-.7528.64-9.9585-22.9034-1.4711.5707-8.8857L94.2716,115.37l9.5755.6149-2.2682,35.3142Zm-31.1011-1.9974,11.95.7674,1.102-17.1588Z"/><path class="bed2ae79-ee36-4c44-9fff-26668ad44137" d="M187.8443,123.09a12.3621,12.3621,0,0,1,4.1929,7.6558,12.9693,12.9693,0,0,1-1.1979,8.3826,16.3579,16.3579,0,0,1-6.2552,6.3893,31.7829,31.7829,0,0,1-21,3.5733A16.3451,16.3451,0,0,1,155.57,145.13a12.96,12.96,0,0,1-3.9044-7.5146,12.3974,12.3974,0,0,1,1.4577-8.655,14.8173,14.8173,0,0,1,7.0872-5.9612,14.8183,14.8183,0,0,1-7.7293-3.402,11.43,11.43,0,0,1-3.76-6.8919,12.4075,12.4075,0,0,1,1.1558-7.9574,15.6094,15.6094,0,0,1,5.9167-6.1423,28.4789,28.4789,0,0,1,19.4457-3.3087,15.599,15.599,0,0,1,7.6153,3.84,12.3991,12.3991,0,0,1,3.724,7.127,11.7367,11.7367,0,0,1-1.2812,7.902,13.4946,13.4946,0,0,1-6.1583,5.6129A15.1672,15.1672,0,0,1,187.8443,123.09Zm-8.3494,14.2025a5.9957,5.9957,0,0,0,1.67-5.61,6.3669,6.3669,0,0,0-3.4311-4.742,14.8532,14.8532,0,0,0-7.3662-1.4853,14.8407,14.8407,0,0,0-6.46,3.8379,6.3642,6.3642,0,0,0-1.6712,5.61,5.9928,5.9928,0,0,0,3.4326,4.7417,14.5632,14.5632,0,0,0,13.8266-2.3526Zm-18.3536-30.5049a5.9886,5.9886,0,0,0-1.3378,5.3244,6.3627,6.3627,0,0,0,3.03,4.62,12.7621,12.7621,0,0,0,6.326,1.6243,12.7627,12.7627,0,0,0,5.4312-3.6249,6.3637,6.3637,0,0,0,1.3329-5.3624,5.99,5.99,0,0,0-3.025-4.5821,11.1648,11.1648,0,0,0-11.7572,2.0006Z"/><path class="bed2ae79-ee36-4c44-9fff-26668ad44137" d="M158.2554,186.2379l2.3368,8.4353-32.9976,9.1415-2.15-7.76,11.2818-21.4355q3.4973-6.7809,2.2647-11.2355a5.6061,5.6061,0,0,0-2.84-3.8276,7.3867,7.3867,0,0,0-5.2271-.1138q-6.1421,1.7016-11.4646,8.1893l-5.4678-6.6227a21.9532,21.9532,0,0,1,6.3293-6.0046,31.0118,31.0118,0,0,1,8.7755-3.9928q7.4908-2.0753,12.9109.31a12.31,12.31,0,0,1,7.1018,8.4592,18.11,18.11,0,0,1,.4207,8.2033,34.6306,34.6306,0,0,1-3.5924,9.46L138.2138,191.79Z"/><path class="bed2ae79-ee36-4c44-9fff-26668ad44137" d="M889.5976,160.4734a34.802,34.802,0,0,1-4.6626,10.9174,27.2623,27.2623,0,0,1-7.2729,7.4844,25.7428,25.7428,0,0,1-9.3247,3.946,31.51,31.51,0,0,1-10.8171.3037l-4.3806,14.827q-.4249,1.364-2.7114,1.5241a21.3359,21.3359,0,0,1-6.2819-.8433q-2.5372-.6376-4.2362-1.1876a12.8423,12.8423,0,0,1-2.62-1.1082,3.1425,3.1425,0,0,1-1.2482-1.212,2.4582,2.4582,0,0,1-.1889-1.5182l3.8648-18.3062a18.7407,18.7407,0,0,1,1.2351-3.9372,5.3635,5.3635,0,0,1,1.733-2.1789,4.2576,4.2576,0,0,1,2.3542-.7562,11.2212,11.2212,0,0,1,3.0062.3882l1.0768.2706a17.8462,17.8462,0,0,0,7.3584.4612,14.4617,14.4617,0,0,0,5.7476-2.2316,13.7,13.7,0,0,0,4.0792-4.3653,22.0735,22.0735,0,0,0,2.4466-6.0017,21.7007,21.7007,0,0,0,.6629-7.0224,14.6287,14.6287,0,0,0-1.818-6.0931,14.3107,14.3107,0,0,0-4.4411-4.7511,22.0752,22.0752,0,0,0-7.1926-3.0746,28.9055,28.9055,0,0,0-7.107-.9693,36.7956,36.7956,0,0,0-5.5742.3964q-2.3827.3815-3.9972.7918a5.3372,5.3372,0,0,1-2.383.218,1.6831,1.6831,0,0,1-.9118-.5966,2.634,2.634,0,0,1-.449-1.4608A13.8,13.8,0,0,1,835.7,131.65a40.6778,40.6778,0,0,1,.89-4.3507,24.4683,24.4683,0,0,1,1.2144-3.8612,3.8289,3.8289,0,0,1,1.5022-1.7458A11.7636,11.7636,0,0,1,842.68,120.62a35.37,35.37,0,0,1,5.63-.6268,58.6492,58.6492,0,0,1,7.061.1823,48.1412,48.1412,0,0,1,7.8377,1.3164,44.4,44.4,0,0,1,14.8915,6.3983,30.0576,30.0576,0,0,1,8.8745,9.3782,27.073,27.073,0,0,1,3.5982,11.1964A35.5131,35.5131,0,0,1,889.5976,160.4734Zm-39.2929,60.1288a24.6519,24.6519,0,0,1-1.831,5.176,7.3937,7.3937,0,0,1-2.6371,3.0133,7.4777,7.4777,0,0,1-3.8545,1.0327,20.642,20.642,0,0,1-5.3306-.7277,20.9035,20.9035,0,0,1-5.1557-1.9082,7.469,7.469,0,0,1-2.87-2.7229,7.3768,7.3768,0,0,1-.897-3.9016,24.5312,24.5312,0,0,1,.8324-5.4271,25.5349,25.5349,0,0,1,1.8616-5.291,7.6643,7.6643,0,0,1,2.6546-3.09,7.3038,7.3038,0,0,1,3.826-1.08,20.8606,20.8606,0,0,1,5.4453.7557,20.602,20.602,0,0,1,5.0409,1.88,7.3126,7.3126,0,0,1,2.8985,2.7708,7.6793,7.6793,0,0,1,.88,3.9785A25.6546,25.6546,0,0,1,850.3047,220.6022Z"/></g></svg>