<svg xmlns="http://www.w3.org/2000/svg" xmlns:xlink="http://www.w3.org/1999/xlink" viewBox="0 0 200 200"><defs><clipPath id="a"><rect x="0.0361" width="199.9639" height="200" style="fill:none"/></clipPath></defs><rect y="10.4468" width="200" height="189.5532" rx="27" style="fill:#fefefe"/><g style="clip-path:url(#a)"><path d="M.0722,33.2312c.9546-2.237,1.1876-4.6994,2.2706-6.91C7.3494,16.1038,15.5745,10.8709,26.8816,10.7684c15.0259-.1363,30.0543.0215,45.081-.0641,5.3315-.03,7.1749,4.7348,5.368,7.84-1.219,2.0952-3.1345,2.6742-5.4557,2.6679q-22.2478-.06-44.4959-.0113c-6.7908.0134-12.0417,2.7534-15.2147,8.951A15.4593,15.4593,0,0,0,10.58,37.3129q-.0024,67.9266.0217,135.8532c.0108,9.5,6.8352,15.99,16.632,16.0217,14.3114.0466,28.6231.012,42.9346.012q50.8386,0,101.6773.01c3.9311.002,7.6006-.7247,10.8-3.1759,4.4741-3.4281,6.36-8.0569,6.3617-13.5712q.0054-22.4471.0062-44.894c.0025-3.3635,1.8794-5.5841,4.7938-5.7617a5.1146,5.1146,0,0,1,5.57,4.3463,5.3029,5.3029,0,0,1,.1054.9681c-.0053,15.68.2979,31.3684-.12,47.0376-.3742,14.02-10.1864,23.9026-24.2175,25.4161-.2732.03-.5016.073-.561.3878H173.412a3.9886,3.9886,0,0,0-2.1028-.192q-71.8789-.0152-143.7578,0a3.988,3.988,0,0,0-2.1029.192H24.2773a23.9039,23.9039,0,0,1-12.0785-3.846C5.3183,191.54.8484,185.3862.0722,176.925Z" style="fill:#48b592"/><path d="M199.96,21.9075c-.9914,5.4559-5.1342,8.6808-8.6857,12.3384-.9909,1.02-1.3383,0-1.7966-.4566Q178.2211,22.583,167.0005,11.3407a7.1876,7.1876,0,0,0-.5555-.5462c-.463-.3714-.4459-.7059-.0191-1.1106,2.4-2.2765,4.4766-4.9308,7.27-6.7485a12.7538,12.7538,0,0,1,15.2271.9156,83.0664,83.0664,0,0,1,8.0127,7.9522c1.63,1.7777,2.1836,4.0519,3.0233,6.2Z" style="fill:#056766"/><path d="M25.4485,199.9628c.4373-.7685,1.166-.3712,1.7413-.3715q72.2359-.0309,144.472-.0009c.58,0,1.3042-.3738,1.75.3724Z" style="fill:#aeaeae"/><path d="M183.415,42.6892a5.8874,5.8874,0,0,0-1.343.7578q-6.5822,6.5244-13.1181,13.0955-30.4194,30.4248-60.8079,60.88c-1.2047,1.21-1.7643,1.2206-2.9619.0016Q94.2457,106.2894,83.1183,95.3411c-1.0012-.9884-.9047-1.4563.0352-2.3943q37.1523-37.0761,74.2214-74.2356c.9279-.93,1.3776-.8426,2.2426.03q11.1912,11.2968,22.4634,22.5135C182.4,41.5744,182.6968,41.9155,183.415,42.6892Z" style="fill:#056766"/><path d="M96.3382,123.875l-26.8191,7.4368c2.5367-9.1628,5.0027-18.07,7.4182-26.7946Z" style="fill:#056766"/></g></svg>