<svg id="Capa_1" data-name="Capa 1" xmlns="http://www.w3.org/2000/svg" viewBox="0 0 200 200"><defs><style>.cls-1{fill:#e6e6f1;}.cls-2{fill:#f1f1f1;}.cls-3{fill:#056766;}.cls-4{fill:#fefefe;}.cls-5{fill:#cdcde5;}.cls-6{fill:#48b592;}.cls-7{fill:#474f54;}.cls-8{fill:#575f64;}.cls-9{fill:#e6e6f0;}.cls-10{fill:#f1f1f0;}.cls-11{fill:#485055;}</style></defs><path class="cls-1" d="M199.63,65.13V193.3H100.22l0-42.75c.26-.51.5-1,.78-1.54a40.75,40.75,0,0,0,4.73-25.18,45.15,45.15,0,0,0-5.51-15.93V65.2c.77,0,1.55-.06,2.32-.06Zm-70.3,29.15c0-1.49,0-3,0-4.46,0-1-.35-1.4-1.36-1.39q-4.47,0-8.92,0c-1,0-1.4.34-1.39,1.36,0,3,0,5.95,0,8.92,0,1,.34,1.4,1.36,1.39,3,0,5.94,0,8.92,0,1,0,1.42-.35,1.39-1.36C129.3,97.25,129.33,95.77,129.33,94.28ZM141,94.11c0,1.49,0,3,0,4.46,0,1,.27,1.55,1.41,1.53,3,0,6,0,8.93,0,1,0,1.34-.46,1.33-1.42,0-3,0-6,0-8.92,0-1-.46-1.34-1.42-1.33-3,0-5.95,0-8.92,0-1,0-1.36.46-1.33,1.41C141,91.26,141,92.69,141,94.11Zm29.28-5.67c-1.49,0-3,0-4.46,0-1,0-1.55.27-1.54,1.41,0,3,0,6,0,8.93,0,1,.46,1.34,1.41,1.33,3,0,5.95,0,8.93,0,1,0,1.34-.46,1.33-1.42,0-3,0-6,0-8.92,0-1-.46-1.36-1.42-1.33C173.11,88.47,171.69,88.44,170.27,88.44Zm-52.58,29c0,1.49,0,3,0,4.46-.06,1.22.46,1.57,1.6,1.55q4.28-.09,8.54,0c1.21,0,1.56-.47,1.54-1.61,0-2.84-.06-5.69,0-8.53,0-1.22-.47-1.57-1.61-1.55-2.85.06-5.69.06-8.54,0-1.21,0-1.59.46-1.54,1.61C117.74,114.68,117.69,116,117.69,117.4Zm29.16-5.66c-1.42,0-2.84.05-4.26,0-1.13,0-1.65.3-1.62,1.53.06,2.84.05,5.69,0,8.53,0,1.13.31,1.65,1.53,1.62,2.85-.06,5.7-.07,8.54,0,1.33,0,1.64-.53,1.62-1.73-.06-2.71-.1-5.43,0-8.15.06-1.52-.56-1.91-1.94-1.81S148.15,111.74,146.85,111.74Zm23.09,11.65c1.49,0,3,0,4.46,0,1,0,1.57-.23,1.55-1.39,0-3,0-6,0-8.93,0-1-.42-1.36-1.4-1.35-3,0-5.94,0-8.92,0-1,0-1.36.42-1.35,1.39,0,3,0,5.95,0,8.93,0,1,.42,1.38,1.39,1.35C167.09,123.36,168.52,123.39,169.94,123.39Zm-46.61,23.3c1.55,0,3.11,0,4.66,0,1,0,1.37-.4,1.36-1.39q-.06-4.45,0-8.92c0-1-.41-1.37-1.39-1.36q-4.47.06-8.92,0c-1,0-1.37.41-1.36,1.39q0,4.47,0,8.92c0,1,.4,1.39,1.39,1.36C120.49,146.66,121.91,146.69,123.33,146.69Zm23.31,0c1.49,0,3,0,4.46,0,1,0,1.57-.23,1.55-1.39-.05-3,0-5.95,0-8.92,0-1-.42-1.37-1.4-1.36-3,0-5.95,0-8.92,0-1,0-1.36.42-1.35,1.4,0,3,0,5.95,0,8.92,0,1,.42,1.38,1.39,1.35C143.79,146.66,145.22,146.69,146.64,146.69Zm29.3-5.81c0-1.48,0-3,0-4.46,0-1-.34-1.4-1.36-1.39-3,0-6,0-8.92,0-1,0-1.4.34-1.39,1.36,0,3,0,6,0,8.92,0,1,.34,1.4,1.36,1.39,3,0,6,0,8.92,0,1,0,1.42-.34,1.39-1.36C175.9,143.86,175.94,142.37,175.94,140.88Zm-58.25,22.84c0,1.8,0,3.29,0,4.77,0,1,.31,1.54,1.44,1.52,2.91,0,5.82,0,8.73,0,1,0,1.53-.31,1.51-1.43,0-2.91-.06-5.82,0-8.73,0-1.24-.52-1.57-1.64-1.52-1.42.06-2.84-.05-4.26,0-1.85.1-4.19-.82-5.41.42S117.86,162.24,117.69,163.72Zm34.95.47c0-1.49,0-3,0-4.47,0-1-.35-1.4-1.36-1.38-3,0-5.95,0-8.92,0-1,0-1.41.34-1.39,1.35,0,3,0,5.95,0,8.92,0,1,.34,1.41,1.35,1.4,3,0,5.95,0,8.93,0,1,0,1.42-.34,1.39-1.35C152.6,167.16,152.63,165.67,152.64,164.19Zm23.3.16c0-1.55,0-3.1,0-4.65,0-1-.4-1.38-1.38-1.36-3,0-5.95,0-8.93,0-1,0-1.37.39-1.36,1.38,0,3,0,5.95,0,8.92,0,1,.4,1.38,1.38,1.36q4.47,0,8.92,0c1,0,1.4-.4,1.37-1.39C175.9,167.2,175.94,165.78,175.94,164.35Z"/><path class="cls-2" d="M100.2,65.2v42.69c-.38-.52-.76-1-1.13-1.55C90.75,94.79,79.65,88.53,65.26,88.5a23.86,23.86,0,0,0-6.37.43A40.85,40.85,0,0,0,25.68,139.1C30,157,47.47,170.62,65.26,169.93a37.29,37.29,0,0,0,17.9-4,42.43,42.43,0,0,0,17-15.36q0,21.38,0,42.75H.41V65.52l.4-.43c.39,0,.78,0,1.17,0H98.87c.45,0,.91,0,1.36-.06Z"/><path class="cls-3" d="M199.63,65.13H102.52c-.77,0-1.55,0-2.32.06l0-.13q0-11.59,0-23.18c3.23,0,6.46-.13,9.69,0,1.62.06,2-.43,2-2-.07-7.11,0-14.21,0-21.31h34.82c0,7.23.07,14.45,0,21.68,0,1.25.32,1.69,1.61,1.65,3.36-.1,6.71-.07,10.07-.09s6.45-.05,9.67.1c1.65.08,2-.46,2-2-.06-7.09,0-14.19,0-21.29h29.45Z"/><path class="cls-4" d="M2.15,199.55c-1.45,0-1.92-.32-1.78-1.79a44.18,44.18,0,0,0,0-4.46H199.63c0,1.81,0,3.62,0,5.43,0,.68-.12.92-.8.79a6.27,6.27,0,0,0-1,0"/><path class="cls-3" d="M100.2,150.54a42.43,42.43,0,0,1-17,15.36,37.29,37.29,0,0,1-17.9,4c0-3.84,0-7.68,0-11.52,1.53-.16,3.07-.13,4.62-.38a29.19,29.19,0,0,0-4.62-58c0-3.84,0-7.68,0-11.52,14.39,0,25.49,6.29,33.81,17.84.37.52.75,1,1.13,1.55a45.15,45.15,0,0,1,5.51,15.93A40.75,40.75,0,0,1,101,149C100.7,149.5,100.46,150,100.2,150.54Z"/><path class="cls-5" d="M129.33,94.28c0,1.49,0,3,0,4.46,0,1-.41,1.37-1.39,1.36-3,0-5.95,0-8.92,0-1,0-1.37-.41-1.36-1.39,0-3,0-5.95,0-8.92,0-1,.4-1.37,1.39-1.36q4.46,0,8.92,0c1,0,1.38.4,1.36,1.39C129.3,91.3,129.33,92.79,129.33,94.28Z"/><path class="cls-5" d="M141,94.11c0-1.42,0-2.85,0-4.27,0-1,.29-1.42,1.33-1.41,3,0,5.95,0,8.92,0,1,0,1.43.29,1.42,1.33,0,3,0,5.95,0,8.92,0,1-.3,1.43-1.33,1.42-3,0-5.95,0-8.93,0-1.14,0-1.45-.5-1.41-1.53C141,97.09,141,95.6,141,94.11Z"/><path class="cls-5" d="M170.27,88.44c1.42,0,2.84,0,4.26,0,1,0,1.43.29,1.42,1.33,0,3,0,5.95,0,8.92,0,1-.3,1.43-1.33,1.42-3,0-6,0-8.93,0-.95,0-1.42-.3-1.41-1.33,0-3,0-6,0-8.93,0-1.14.5-1.45,1.54-1.41C167.29,88.48,168.78,88.44,170.27,88.44Z"/><path class="cls-5" d="M117.69,117.4c0-1.36,0-2.72,0-4.07,0-1.15.33-1.64,1.54-1.61,2.85.06,5.69.06,8.54,0,1.14,0,1.63.33,1.61,1.55-.07,2.84-.06,5.69,0,8.53,0,1.14-.33,1.64-1.54,1.61q-4.26-.09-8.54,0c-1.14,0-1.66-.33-1.6-1.55C117.74,120.38,117.69,118.89,117.69,117.4Z"/><path class="cls-5" d="M146.85,111.74c1.3,0,2.6.07,3.88,0s2,.29,1.94,1.81c-.11,2.72-.07,5.44,0,8.15,0,1.2-.29,1.77-1.62,1.73-2.84-.07-5.69-.06-8.54,0-1.22,0-1.55-.49-1.53-1.62.05-2.84.06-5.69,0-8.53,0-1.23.49-1.58,1.62-1.53C144,111.79,145.43,111.74,146.85,111.74Z"/><path class="cls-5" d="M169.94,123.39c-1.42,0-2.85,0-4.27,0-1,0-1.4-.33-1.39-1.35,0-3,0-6,0-8.93,0-1,.33-1.4,1.35-1.39,3,0,6,0,8.92,0,1,0,1.41.33,1.4,1.35,0,3,0,6,0,8.93,0,1.16-.53,1.42-1.55,1.39C172.92,123.36,171.43,123.39,169.94,123.39Z"/><path class="cls-5" d="M123.33,146.69c-1.42,0-2.84,0-4.26,0-1,0-1.4-.34-1.39-1.36q0-4.46,0-8.92c0-1,.34-1.4,1.36-1.39q4.45.06,8.92,0c1,0,1.4.35,1.39,1.36q-.06,4.47,0,8.92c0,1-.35,1.42-1.36,1.39C126.44,146.66,124.88,146.69,123.33,146.69Z"/><path class="cls-5" d="M146.64,146.69c-1.42,0-2.85,0-4.27,0-1,0-1.4-.33-1.39-1.35,0-3,0-5.95,0-8.92,0-1,.33-1.41,1.35-1.4,3,0,5.95,0,8.92,0,1,0,1.41.34,1.4,1.36,0,3-.05,5.94,0,8.92,0,1.16-.54,1.43-1.55,1.39C149.62,146.66,148.13,146.69,146.64,146.69Z"/><path class="cls-5" d="M175.94,140.88c0,1.49,0,3,0,4.46,0,1-.41,1.37-1.39,1.36-3,0-5.95,0-8.92,0-1,0-1.37-.41-1.36-1.39,0-3,0-5.95,0-8.92,0-1,.41-1.37,1.39-1.36,3,0,6,0,8.92,0,1,0,1.38.41,1.36,1.39C175.91,137.91,175.94,139.4,175.94,140.88Z"/><path class="cls-5" d="M117.69,163.72c.17-1.48-.78-3.78.36-4.94s3.56-.32,5.41-.42c1.42-.08,2.84,0,4.26,0,1.12-.05,1.66.28,1.64,1.52-.07,2.91-.06,5.82,0,8.73,0,1.12-.47,1.44-1.51,1.43-2.91,0-5.82,0-8.73,0-1.13,0-1.47-.47-1.44-1.52C117.73,167,117.69,165.52,117.69,163.72Z"/><path class="cls-5" d="M152.63,164.19c0,1.48,0,3,0,4.46,0,1-.41,1.37-1.39,1.35-3,0-5.95,0-8.93,0-1,0-1.36-.42-1.35-1.4,0-3,0-6,0-8.92,0-1,.41-1.37,1.39-1.35,3,0,5.95,0,8.92,0,1,0,1.38.4,1.36,1.38C152.6,161.21,152.64,162.7,152.63,164.19Z"/><path class="cls-5" d="M175.94,164.35c0,1.43,0,2.85,0,4.27,0,1-.36,1.4-1.37,1.39q-4.46-.06-8.92,0c-1,0-1.39-.35-1.38-1.36,0-3,0-5.95,0-8.92,0-1,.36-1.4,1.36-1.38,3,0,6,0,8.93,0,1,0,1.41.35,1.38,1.36C175.9,161.25,175.94,162.8,175.94,164.35Z"/><path class="cls-6" d="M53.67,18.53H88.5c0,7.23.07,14.46,0,21.7,0,1.26.35,1.67,1.63,1.63,3.35-.1,6.71-.06,10.07-.08l0,.11q0,11.6,0,23.18c-.45,0-.91.06-1.36.06H2c-.39,0-.78,0-1.17,0,0-15,0-30-.05-44.95,0-1.46.52-1.64,1.78-1.64,9.23.05,18.47,0,27.7,0,0,.77.06,1.55.07,2.32,0,6.46,0,12.91,0,19.37,0,1.25.32,1.68,1.62,1.64,3.35-.1,6.71-.07,10.06-.09s6.46-.05,9.68.1c1.64.08,2-.45,2-2C53.58,32.73,53.65,25.63,53.67,18.53Z"/><path class="cls-6" d="M65.26,88.5c0,3.84,0,7.68,0,11.52l0,.13a18.67,18.67,0,0,0-5.77.53,29.1,29.1,0,0,0-22.94,33.55c2.15,13.65,15.15,24.54,28.71,24.05l0,.13c0,3.84,0,7.68,0,11.52C47.47,170.62,30,157,25.68,139.1A40.85,40.85,0,0,1,58.89,88.93,23.86,23.86,0,0,1,65.26,88.5Z"/><path class="cls-7" d="M100.22,6.94c3.42,0,6.85,0,10.27-.09,1.11,0,1.41.31,1.4,1.41,0,3.42,0,6.85,0,10.27,0,7.1-.1,14.2,0,21.31,0,1.6-.4,2.09-2,2-3.23-.11-6.46,0-9.69,0l0-.11Q100.23,24.37,100.22,6.94Z"/><path class="cls-8" d="M146.75,18.53c0-3.42.09-6.85,0-10.27,0-1.11.31-1.43,1.41-1.4,3.42.08,6.85.06,10.27.08V41.77c-3.36,0-6.71,0-10.07.09-1.29,0-1.62-.4-1.61-1.65C146.82,33,146.77,25.76,146.75,18.53Z"/><path class="cls-7" d="M158.47,41.77V6.94c3.42,0,6.85,0,10.27-.09,1.11,0,1.42.31,1.4,1.41,0,3.42,0,6.85,0,10.27,0,7.1-.09,14.2,0,21.29,0,1.59-.36,2.13-2,2C164.92,41.72,161.69,41.79,158.47,41.77Z"/><path class="cls-8" d="M42,41.77c-3.35,0-6.71,0-10.06.09-1.3,0-1.63-.39-1.62-1.64.06-6.46,0-12.91,0-19.37,0-.77,0-1.55-.07-2.32,0-3.42.09-6.85,0-10.27,0-1.11.32-1.43,1.42-1.4,3.42.08,6.84.06,10.27.08Q42,24.36,42,41.77Z"/><path class="cls-7" d="M42,41.77q0-17.42,0-34.83c3.42,0,6.84,0,10.26-.09,1.11,0,1.42.31,1.4,1.41,0,3.42,0,6.85,0,10.27,0,7.1-.09,14.2,0,21.3,0,1.59-.37,2.12-2,2C48.42,41.72,45.19,41.79,42,41.77Z"/><path class="cls-8" d="M100.22,6.94q0,17.42,0,34.84c-3.36,0-6.72,0-10.07.08-1.28,0-1.63-.37-1.63-1.63,0-7.24,0-14.47,0-21.7,0-3.42.08-6.85,0-10.27,0-1.11.32-1.43,1.42-1.4C93.37,6.94,96.79,6.92,100.22,6.94Z"/><path class="cls-9" d="M65.25,100a29.19,29.19,0,0,1,4.62,58c-1.55.25-3.09.22-4.62.38l0-.13q0-10.28,0-20.57c2.13,2.07,4.31,4.09,6.38,6.21.85.88,1.38,1,2.29.05,1.94-2.08,4-4.08,6-6,.91-.86,1-1.39,0-2.3-2.7-2.59-5.28-5.31-8-7.95a2.9,2.9,0,0,1-1-2.36c.07-2.84,0-5.68,0-8.53,0-1.6.54-3.73-.27-4.68-1-1.11-3.15-.25-4.8-.38l-.77-.06,0-11.53Z"/><path class="cls-10" d="M65.28,137.71q0,10.29,0,20.57c-13.56.49-26.56-10.4-28.71-24.05A29.1,29.1,0,0,1,59.5,100.68a18.67,18.67,0,0,1,5.77-.53l0,11.53,0,.12c-1.48,0-3,0-4.44-.08-1.07-.07-1.44.26-1.43,1.39.05,5.8,0,11.6,0,17.4a2.34,2.34,0,0,0,.72,1.89c1.74,1.63,3.41,3.32,5.11,5Z"/><path class="cls-11" d="M65.28,137.71l0-.32,0-25.59,0-.12.77.06c1.65.13,3.85-.73,4.8.38.81.95.26,3.08.27,4.68,0,2.85,0,5.69,0,8.53a2.9,2.9,0,0,0,1,2.36c2.67,2.64,5.25,5.36,8,7.95.94.91.88,1.44,0,2.3-2.07,1.95-4.09,3.95-6,6-.91,1-1.44.83-2.29-.05C69.59,141.8,67.41,139.78,65.28,137.71Z"/><path class="cls-8" d="M65.28,111.8l0,25.59c-1.7-1.67-3.37-3.36-5.11-5a2.34,2.34,0,0,1-.72-1.89c0-5.8,0-11.6,0-17.4,0-1.13.36-1.46,1.43-1.39C62.32,111.81,63.8,111.78,65.28,111.8Z"/></svg>