<svg id="Capa_1" data-name="Capa 1" xmlns="http://www.w3.org/2000/svg" viewBox="0 0 200 200"><defs><style>.cls-1{fill:#eef3f6;}.cls-2{fill:#474545;}.cls-3{fill:#eef2f5;}.cls-4{fill:#fefefe;}.cls-5{fill:#48b592;}.cls-6{fill:#7fd0ec;}.cls-7{fill:#4cb2d6;}.cls-8{fill:#056766;}.cls-9{fill:#4ab2d5;}.cls-10{fill:#4b494a;}.cls-11{fill:#2e292a;}.cls-12{fill:#fcfcfc;}.cls-13{fill:#828181;}.cls-14{fill:#fefdfd;}.cls-15{fill:#7b7979;}</style></defs><path class="cls-1" d="M200.24,51V151.11l-.53.6c-.09-.38-.21-.74-.27-1.12a42.06,42.06,0,0,0-11-22.86c-10.8-11.68-28.56-16-43.59-10.89-17.34,5.93-29.72,23.15-28.1,42.46,1.29,15.47,9,26.75,22.57,34.13,4,2.19,8.39,3.25,12.8,4.22-.75.77-1.71.41-2.57.41q-74.19,0-148.38,0V50.58l2.52,0H197.3c.84,0,1.68,0,2.52,0ZM74.85,165.88c-2.46,0-4.92.09-7.36,0-1.71-.09-2.37.33-2.32,2.2.14,5,.12,9.95,0,14.93,0,1.69.32,2.36,2.2,2.31,5-.14,10-.11,14.92,0,1.7,0,2.37-.33,2.31-2.21-.14-5-.11-9.95,0-14.93,0-1.7-.33-2.43-2.21-2.3C79.89,166,77.37,165.88,74.85,165.88Zm-25.36,0c-2.78,0-5.55,0-8.33,0-1.16,0-1.59.33-1.58,1.54q.08,8.13,0,16.28c0,1.16.33,1.59,1.54,1.58,5.43,0,10.85,0,16.28,0,1.15,0,1.59-.33,1.58-1.54q-.07-8.15,0-16.28c0-1.16-.34-1.61-1.54-1.58C54.79,165.93,52.14,165.88,49.49,165.88Zm60.7-15.94c0-2.71,0-5.43,0-8.14,0-1.16-.33-1.59-1.54-1.57-5.42.05-10.85,0-16.27,0-1.16,0-1.59.32-1.58,1.53.05,5.43,0,10.86,0,16.28,0,1.16.33,1.6,1.54,1.59q8.13-.07,16.28,0c1.15,0,1.61-.33,1.58-1.54C110.15,155.37,110.19,152.66,110.19,149.94Zm-9.53-35.32c-2.65,0-5.3.1-7.94,0-1.62-.08-1.92.53-1.9,2,.08,5.1.09,10.2,0,15.3,0,1.55.31,2.14,2,2.11,5.16-.11,10.33-.09,15.49,0,1.39,0,1.93-.28,1.9-1.81-.09-5.23-.08-10.46,0-15.69,0-1.39-.29-2-1.8-1.88C105.83,114.71,103.24,114.62,100.66,114.62Zm-61,9.71c0,2.71,0,5.42,0,8.13,0,1,.26,1.5,1.4,1.5,5.49-.05,11,0,16.45,0,1.05,0,1.51-.34,1.51-1.45q-.06-8.23,0-16.46c0-1.09-.35-1.45-1.44-1.44-5.49.05-11,.06-16.45,0-1.28,0-1.49.52-1.47,1.61C39.65,118.91,39.61,121.62,39.61,124.33ZM14,149.78c0,2.78,0,5.55,0,8.33,0,1.06.27,1.49,1.4,1.48q8.23-.06,16.45,0c1.07,0,1.5-.36,1.5-1.46,0-5.49,0-11,0-16.46,0-1.09-.36-1.44-1.45-1.44-5.48.05-11,.06-16.45,0-1.29,0-1.47.54-1.45,1.62C14,144.49,14,147.14,14,149.78Zm25.62,0c0,2.71,0,5.42,0,8.13,0,1.2.25,1.72,1.58,1.7,5.36-.07,10.71,0,16.07,0,1.22,0,1.72-.33,1.71-1.63-.05-5.43,0-10.85,0-16.27,0-1.07-.32-1.47-1.43-1.46-5.49.05-11,.06-16.45,0-1.26,0-1.5.49-1.48,1.6C39.65,144.47,39.61,147.12,39.61,149.77Zm35.2,9.84c2.65,0,5.29-.05,7.94,0,1.28,0,1.86-.34,1.85-1.74-.06-5.36,0-10.72,0-16.07,0-1.15-.32-1.6-1.53-1.58-5.42.05-10.84,0-16.26,0-1.11,0-1.62.25-1.61,1.5,0,5.48,0,11,0,16.46,0,1.11.42,1.45,1.48,1.43C69.39,159.57,72.1,159.6,74.81,159.61Zm-51.09,6.27c-2.71,0-5.42,0-8.13,0-1.09,0-1.64.22-1.63,1.48.06,5.49,0,11,0,16.46,0,1.09.37,1.46,1.45,1.46,5.42,0,10.84,0,16.26,0,1.28,0,1.69-.5,1.68-1.73,0-5.35-.06-10.71,0-16.07,0-1.33-.51-1.63-1.71-1.6C29,165.93,26.37,165.88,23.72,165.88ZM126.31,89c-2.78,0-5.56,0-8.34,0-1,0-1.53.19-1.51,1.37.05,5.5,0,11,0,16.5,0,1.11.44,1.46,1.49,1.46q8.25,0,16.49,0c1,0,1.39-.27,1.38-1.32q-.06-8.34,0-16.69c0-1-.38-1.33-1.36-1.32C131.74,89,129,89,126.31,89ZM14,98.55c0,2.72,0,5.44,0,8.15,0,1.11.21,1.63,1.47,1.62,5.43-.06,10.86,0,16.29,0,1.16,0,1.6-.38,1.59-1.57q-.06-8.14,0-16.29c0-1.07-.3-1.48-1.43-1.47-5.49,0-11,0-16.48,0-1.08,0-1.47.31-1.44,1.42C14,93.12,14,95.84,14,98.55Zm35.34,9.75c2.71,0,5.43,0,8.14,0,1.08,0,1.48-.39,1.48-1.49q-.06-8.23,0-16.49c0-1-.33-1.35-1.34-1.35q-8.34.06-16.68,0c-1,0-1.34.34-1.34,1.34,0,5.5.06,11,0,16.5,0,1.25.48,1.52,1.6,1.5C43.9,108.26,46.61,108.3,49.33,108.3ZM74.91,89c-2.72,0-5.44,0-8.15,0-1.17,0-1.57.32-1.55,1.53q.08,8.14,0,16.29c0,1.24.45,1.53,1.59,1.52q8-.07,16.09,0c1.25,0,1.7-.39,1.69-1.68-.06-5.36,0-10.73,0-16.1,0-1.16-.31-1.6-1.53-1.56C80.34,89.05,77.62,89,74.91,89Zm-9.68,35.19c0,2.77,0,5.55,0,8.32,0,1.12.38,1.45,1.46,1.44q8.13,0,16.26,0c1.08,0,1.66-.24,1.65-1.5q-.08-8.22,0-16.46c0-1.15-.46-1.39-1.5-1.39-5.48,0-11,.05-16.45,0-1.12,0-1.44.39-1.42,1.46C65.27,118.77,65.23,121.48,65.23,124.19Zm96.19-25.68c0-2.65,0-5.3,0-8,0-1.13-.24-1.6-1.49-1.59q-8.14.09-16.29,0c-1.14,0-1.59.28-1.58,1.51.06,5.37,0,10.73,0,16.1,0,1.23.33,1.74,1.64,1.73,5.42,0,10.86,0,16.29,0,1.1,0,1.46-.37,1.43-1.46C161.38,104.08,161.42,101.29,161.42,98.51ZM177.54,89c-2.72,0-5.43,0-8.15,0-1.22,0-1.7.28-1.69,1.6.07,5.37.06,10.73,0,16.1,0,1.32.51,1.65,1.72,1.64q8.06-.07,16.1,0c1.18,0,1.55-.37,1.54-1.56,0-5.43-.06-10.86,0-16.29,0-1.25-.45-1.52-1.58-1.49C182.84,89,180.19,89,177.54,89ZM23.63,114.62c-2.78,0-5.55,0-8.32,0-1,0-1.35.32-1.34,1.33,0,5.55,0,11.1,0,16.65,0,1,.3,1.38,1.32,1.37q8.33,0,16.64,0c1,0,1.39-.39,1.38-1.38,0-5.55,0-11.1,0-16.65,0-1-.39-1.33-1.37-1.31C29.18,114.65,26.4,114.62,23.63,114.62Zm77-25.62c-2.78,0-5.55,0-8.33,0-1.1,0-1.45.34-1.45,1.44q.08,8.14,0,16.29c0,1.15.34,1.61,1.54,1.6q8.13,0,16.28,0c1.19,0,1.55-.45,1.54-1.61q-.08-8.13,0-16.28c0-1.1-.35-1.46-1.45-1.44C106,89,103.33,89,100.61,89Zm15.87-16.28c0,2.78,0,5.56,0,8.33,0,1.09.35,1.48,1.45,1.47q8.24-.06,16.46,0c1.1,0,1.46-.37,1.45-1.46q-.06-8.13,0-16.27c0-1.1-.35-1.45-1.44-1.44q-8.24.06-16.46,0c-1.08,0-1.49.32-1.46,1.43C116.52,67.43,116.48,70.08,116.48,72.72Zm60.68,9.78c2.71,0,5.43,0,8.14,0,1.31,0,1.79-.32,1.77-1.71q-.1-7.95,0-15.89c0-1.33-.48-1.6-1.68-1.59-5.36.06-10.72.07-16.07,0-1.33,0-1.62.47-1.61,1.69,0,5.23.07,10.46,0,15.69,0,1.51.52,1.86,1.91,1.81C172.12,82.44,174.64,82.5,177.16,82.5Zm-76.69,0c2.71,0,5.42,0,8.13,0,1.13,0,1.61-.28,1.6-1.51q-.08-8.13,0-16.27c0-1.17-.47-1.4-1.5-1.39-5.42,0-10.85.06-16.27,0-1.33,0-1.61.48-1.6,1.69.06,5.23.08,10.46,0,15.69,0,1.51.51,1.86,1.9,1.81C95.3,82.44,97.89,82.5,100.47,82.5Zm51.38-19.13c-2.77,0-5.55,0-8.32,0-1.11,0-1.45.37-1.44,1.45q.06,8.15,0,16.27c0,1.11.39,1.46,1.47,1.45q8.24-.06,16.46,0c1.12,0,1.42-.42,1.42-1.48,0-5.42-.05-10.85,0-16.27,0-1.12-.38-1.44-1.45-1.42C157.28,63.41,154.56,63.37,151.85,63.37ZM52.44,73.08c0-3.37,0-3.37-3.12-3.37-3.27,0-3.27,0-3.27,3.25s0,3.23,3.23,3.23S52.44,76.19,52.44,73.08Zm-25.63,0c0-3.42,0-3.42-3.46-3.42-2.94,0-2.94,0-2.94,3,0,3.47,0,3.47,3.39,3.47C26.81,76.19,26.81,76.19,26.81,73.13Zm48.24,3.06c3,0,3,0,3-3v-.39c0-3,0-3-3.07-3-3.3,0-3.3,0-3.3,3.19S71.69,76.19,75.05,76.19Zm25.42,102.53c3.21,0,3.21,0,3.21-3.22s0-3.12-3.12-3.12-3.21,0-3.21,3.23S97.35,178.72,100.47,178.72Z"/><path class="cls-2" d="M199.82,50.51c-.84,0-1.68,0-2.52,0H3.7l-2.52,0V18.36l19.3,0,.59.08a9.91,9.91,0,0,0,5.24,0l.47-.05a31.68,31.68,0,0,0,6.53-.13c0,3.68,0,7.37.1,11.05.06,1.62-.57,1.94-2,1.92-4.53-.07-9,0-13.57,0-3.83,0-3.84,0-3.83,3.74,0,3.2-.31,2.85,3,2.85H182.74c4.33,0,4.26,0,4.34-4.42,0-1.65-.34-2.43-2.13-2.2-.95.13-1.94,0-2.9,0-1.14.07-1.63-.31-1.61-1.53.08-3.82.07-7.63.1-11.44a4.68,4.68,0,0,0,2.1.21c5.23,0,10.46,0,15.69,0,1.16,0,1.56.25,1.55,1.48C199.82,30.1,199.83,40.31,199.82,50.51Z"/><path class="cls-3" d="M200.24,161.59v36.49q-17,0-33.9,0c-.74,0-1.57.29-2.2-.4a3.32,3.32,0,0,1,.71-.29c12.36-2.09,21.85-8.52,28.64-19,3.43-5.31,5.17-11.22,6.21-17.38Z"/><path class="cls-4" d="M200.24,161.59l-.54-.61a86.86,86.86,0,0,0,0-9.27l.53-.6Z"/><path class="cls-5" d="M199.71,151.71a86.86,86.86,0,0,1,0,9.27c-1,6.16-2.78,12.07-6.21,17.38-6.79,10.49-16.28,16.92-28.64,19a3.32,3.32,0,0,0-.71.29l-.77.08-.38,0a51,51,0,0,1-9.33,0l-.76-.06-.77-.08c-4.41-1-8.79-2-12.8-4.22-13.56-7.38-21.28-18.66-22.57-34.13-1.62-19.31,10.76-36.53,28.1-42.46,15-5.15,32.79-.79,43.59,10.89a42.06,42.06,0,0,1,11,22.86C199.5,151,199.62,151.33,199.71,151.71ZM179.5,149a9.25,9.25,0,0,0-.6-.8c-.72-.74-1.53-1.41-2.17-2.21-1-1.32-1.8-1.42-3.09-.09-5.72,5.89-11.6,11.63-17.35,17.49-1,1.05-1.63,1-2.61,0-1.88-2.05-3.9-4-5.86-5.93-3.51-3.51-3.49-3.49-6.93.1-.73.76-.84,1.21,0,2q6.63,6.53,13.16,13.17c.78.79,1.2.76,2,0q11.28-11.37,22.61-22.66C178.9,149.73,179.17,149.37,179.5,149Z"/><path class="cls-6" d="M74.85,165.88c2.52,0,5,.13,7.55,0,1.88-.13,2.25.6,2.21,2.3-.1,5-.13,10,0,14.93.06,1.88-.61,2.24-2.31,2.21-5-.1-10-.13-14.92,0-1.88.05-2.24-.62-2.2-2.31.1-5,.12-10,0-14.93,0-1.87.61-2.29,2.32-2.2C69.93,166,72.39,165.88,74.85,165.88Z"/><path class="cls-6" d="M49.49,165.88c2.65,0,5.3.05,7.95,0,1.2,0,1.55.42,1.54,1.58q-.07,8.13,0,16.28c0,1.21-.43,1.55-1.58,1.54-5.43,0-10.85,0-16.28,0-1.21,0-1.54-.42-1.54-1.58q.08-8.15,0-16.28c0-1.21.42-1.57,1.58-1.54C43.94,165.92,46.71,165.88,49.49,165.88Z"/><path class="cls-6" d="M110.19,149.94c0,2.72,0,5.43,0,8.14,0,1.21-.43,1.55-1.58,1.54q-8.15-.06-16.28,0c-1.21,0-1.55-.43-1.54-1.59,0-5.42.05-10.85,0-16.28,0-1.21.42-1.54,1.58-1.53,5.42,0,10.85.05,16.27,0,1.21,0,1.57.41,1.54,1.57C110.15,144.51,110.19,147.23,110.19,149.94Z"/><path class="cls-7" d="M100.66,114.62c2.58,0,5.17.09,7.75,0,1.51-.08,1.82.49,1.8,1.88-.08,5.23-.09,10.46,0,15.69,0,1.53-.51,1.82-1.9,1.81-5.16-.08-10.33-.1-15.49,0-1.69,0-2-.56-2-2.11.09-5.1.08-10.2,0-15.3,0-1.46.28-2.07,1.9-2C95.36,114.72,98,114.62,100.66,114.62Z"/><path class="cls-8" d="M39.61,124.33c0-2.71,0-5.42,0-8.13,0-1.09.19-1.62,1.47-1.61,5.48.07,11,.06,16.45,0,1.09,0,1.45.35,1.44,1.44q-.06,8.24,0,16.46c0,1.11-.46,1.45-1.51,1.45-5.48,0-11,0-16.45,0-1.14,0-1.42-.45-1.4-1.5C39.65,129.75,39.61,127,39.61,124.33Z"/><path class="cls-7" d="M14,149.78c0-2.64,0-5.29,0-7.93,0-1.08.16-1.64,1.45-1.62,5.48.06,11,.05,16.45,0,1.09,0,1.46.35,1.45,1.44,0,5.49,0,11,0,16.46,0,1.1-.43,1.46-1.5,1.46q-8.22-.06-16.45,0c-1.13,0-1.42-.42-1.4-1.48C14,155.33,14,152.56,14,149.78Z"/><path class="cls-7" d="M39.61,149.77c0-2.65,0-5.3,0-7.94,0-1.11.22-1.62,1.48-1.6,5.48.06,11,.05,16.45,0,1.11,0,1.44.39,1.43,1.46,0,5.42-.05,10.84,0,16.27,0,1.3-.49,1.64-1.71,1.63-5.36,0-10.71-.06-16.07,0-1.33,0-1.62-.5-1.58-1.7C39.66,155.19,39.61,152.48,39.61,149.77Z"/><path class="cls-6" d="M74.81,159.61c-2.71,0-5.42,0-8.13,0-1.06,0-1.48-.32-1.48-1.43,0-5.49,0-11,0-16.46,0-1.25.5-1.51,1.61-1.5,5.42,0,10.84.05,16.26,0,1.21,0,1.54.43,1.53,1.58,0,5.35-.06,10.71,0,16.07,0,1.4-.57,1.77-1.85,1.74C80.1,159.56,77.46,159.61,74.81,159.61Z"/><path class="cls-6" d="M23.72,165.88c2.65,0,5.29.05,7.94,0,1.2,0,1.72.27,1.71,1.6-.07,5.36,0,10.72,0,16.07,0,1.23-.4,1.74-1.68,1.73-5.42,0-10.84,0-16.26,0-1.08,0-1.46-.37-1.45-1.46,0-5.49,0-11,0-16.46,0-1.26.54-1.5,1.63-1.48C18.3,165.91,21,165.88,23.72,165.88Z"/><path class="cls-7" d="M126.31,89c2.72,0,5.43,0,8.15,0,1,0,1.37.29,1.36,1.32q-.06,8.36,0,16.69c0,1.05-.41,1.33-1.38,1.32q-8.25,0-16.49,0c-1,0-1.5-.35-1.49-1.46,0-5.5.05-11,0-16.5,0-1.18.5-1.38,1.51-1.37C120.75,89,123.53,89,126.31,89Z"/><path class="cls-5" d="M14,98.55c0-2.71,0-5.43,0-8.15,0-1.11.36-1.43,1.44-1.42,5.5,0,11,0,16.48,0,1.13,0,1.44.4,1.43,1.47q-.06,8.14,0,16.29c0,1.19-.43,1.58-1.59,1.57-5.43,0-10.86,0-16.29,0-1.26,0-1.5-.51-1.47-1.62C14,104,14,101.27,14,98.55Z"/><path class="cls-5" d="M49.33,108.3c-2.72,0-5.43,0-8.15,0-1.12,0-1.61-.25-1.6-1.5.07-5.5.05-11,0-16.5,0-1,.32-1.34,1.34-1.34q8.34.06,16.68,0c1,0,1.34.35,1.34,1.35q-.06,8.25,0,16.49c0,1.1-.4,1.5-1.48,1.49C54.76,108.27,52,108.3,49.33,108.3Z"/><path class="cls-7" d="M74.91,89c2.71,0,5.43,0,8.14,0,1.22,0,1.54.4,1.53,1.56,0,5.37-.06,10.74,0,16.1,0,1.29-.44,1.69-1.69,1.68q-8-.07-16.09,0c-1.14,0-1.61-.28-1.59-1.52q.08-8.14,0-16.29c0-1.21.38-1.56,1.55-1.53C69.47,89.05,72.19,89,74.91,89Z"/><path class="cls-5" d="M65.23,124.19c0-2.71,0-5.42,0-8.13,0-1.07.3-1.47,1.42-1.46,5.49.05,11,0,16.45,0,1,0,1.51.24,1.5,1.39q-.08,8.24,0,16.46c0,1.26-.57,1.5-1.65,1.5q-8.13,0-16.26,0c-1.08,0-1.48-.32-1.46-1.44C65.27,129.74,65.23,127,65.23,124.19Z"/><path class="cls-7" d="M161.42,98.51c0,2.78,0,5.57,0,8.35,0,1.09-.33,1.46-1.43,1.46-5.43,0-10.87,0-16.29,0-1.31,0-1.65-.5-1.64-1.73,0-5.37.06-10.73,0-16.1,0-1.23.44-1.52,1.58-1.51q8.15.08,16.29,0c1.25,0,1.52.46,1.49,1.59C161.38,93.21,161.42,95.86,161.42,98.51Z"/><path class="cls-7" d="M177.54,89c2.65,0,5.3,0,8,0,1.13,0,1.6.24,1.58,1.49-.06,5.43,0,10.86,0,16.29,0,1.19-.36,1.57-1.54,1.56q-8.06-.07-16.1,0c-1.21,0-1.74-.32-1.72-1.64,0-5.37.06-10.73,0-16.1,0-1.32.47-1.64,1.69-1.6C172.11,89.05,174.82,89,177.54,89Z"/><path class="cls-8" d="M23.63,114.62c2.77,0,5.55,0,8.32,0,1,0,1.37.28,1.37,1.31,0,5.55,0,11.1,0,16.65,0,1-.39,1.38-1.38,1.38q-8.31,0-16.64,0c-1,0-1.32-.38-1.32-1.37,0-5.55,0-11.1,0-16.65,0-1,.33-1.34,1.34-1.33C18.08,114.66,20.85,114.62,23.63,114.62Z"/><path class="cls-7" d="M100.61,89c2.72,0,5.43,0,8.14,0,1.1,0,1.46.34,1.45,1.44q-.08,8.14,0,16.28c0,1.16-.35,1.62-1.54,1.61q-8.14,0-16.28,0c-1.2,0-1.55-.45-1.54-1.6q.06-8.14,0-16.29c0-1.1.35-1.46,1.45-1.44C95.06,89,97.83,89,100.61,89Z"/><path class="cls-9" d="M116.48,72.72c0-2.64,0-5.29,0-7.94,0-1.11.38-1.44,1.46-1.43q8.22.06,16.46,0c1.09,0,1.45.34,1.44,1.44q-.06,8.13,0,16.27c0,1.09-.35,1.47-1.45,1.46q-8.24-.06-16.46,0c-1.1,0-1.47-.38-1.45-1.47C116.52,78.28,116.48,75.5,116.48,72.72Z"/><path class="cls-9" d="M177.16,82.5c-2.52,0-5-.06-7.55,0-1.39,0-1.94-.3-1.91-1.81.08-5.23.06-10.46,0-15.69,0-1.22.28-1.71,1.61-1.69,5.35.07,10.71.06,16.07,0,1.2,0,1.7.26,1.68,1.59q-.1,7.95,0,15.89c0,1.39-.46,1.75-1.77,1.71C182.59,82.45,179.87,82.5,177.16,82.5Z"/><path class="cls-9" d="M100.47,82.5c-2.58,0-5.17-.06-7.75,0-1.39,0-1.92-.3-1.9-1.81.09-5.23.07-10.46,0-15.69,0-1.21.27-1.71,1.6-1.69,5.42.07,10.85,0,16.27,0,1,0,1.51.22,1.5,1.39q-.08,8.13,0,16.27c0,1.23-.47,1.54-1.6,1.51C105.89,82.47,103.18,82.5,100.47,82.5Z"/><path class="cls-9" d="M151.85,63.37c2.71,0,5.43,0,8.14,0,1.07,0,1.46.3,1.45,1.42-.05,5.42,0,10.85,0,16.27,0,1.06-.3,1.49-1.42,1.48q-8.24-.06-16.46,0c-1.08,0-1.48-.34-1.47-1.45q.06-8.13,0-16.27c0-1.08.33-1.48,1.44-1.45C146.3,63.41,149.08,63.37,151.85,63.37Z"/><path class="cls-10" d="M52.44,73.08c0,3.11,0,3.11-3.16,3.11s-3.23,0-3.23-3.23,0-3.25,3.27-3.25C52.44,69.71,52.44,69.71,52.44,73.08Z"/><path class="cls-10" d="M26.81,73.13c0,3.06,0,3.06-3,3.06-3.39,0-3.39,0-3.39-3.47,0-3,0-3,2.94-3C26.81,69.71,26.81,69.71,26.81,73.13Z"/><path class="cls-10" d="M75.05,76.19c-3.36,0-3.36,0-3.36-3.29s0-3.19,3.3-3.19c3.07,0,3.07,0,3.07,3v.39C78.06,76.19,78.06,76.19,75.05,76.19Z"/><path class="cls-2" d="M100.47,178.72c-3.12,0-3.12,0-3.12-3.11s0-3.23,3.21-3.23,3.12,0,3.12,3.12S103.68,178.72,100.47,178.72Z"/><path class="cls-11" d="M26.78,18.36l-.47.05H21.07l-.59-.08c0-2.39-.09-4.78.07-7.16A9.38,9.38,0,0,1,30,2.51a9.51,9.51,0,0,1,9.55,8.83c.13,2.32,0,4.65.06,7,0,3.49.12,7-.07,10.47-.12,2.06.62,2.43,2.51,2.42q45.47-.08,90.93,0c13,0,26.11,0,39.16,0,1.55,0,2.18-.32,2.13-2-.13-3.62-.05-7.24-.05-10.86,0-1.81,0-3.62,0-5.42,0-2.57-1.16-4-3.22-4s-3.16,1.37-3.22,4c0,1.81,0,3.62-.05,5.42l-.54.06h-5.3l-.45,0c0-2.26-.08-4.52,0-6.77a9.49,9.49,0,0,1,9.48-9.08,9.38,9.38,0,0,1,9.55,8.75c.15,2.31,0,4.64,0,7,0,3.81,0,7.62-.1,11.44,0,1.22.47,1.6,1.61,1.53,1-.07,1.95.09,2.9,0,1.79-.23,2.16.55,2.13,2.2-.08,4.41,0,4.42-4.34,4.42H17c-3.27,0-2.95.35-3-2.85,0-3.74,0-3.74,3.83-3.74,4.52,0,9,0,13.57,0,1.45,0,2.08-.3,2-1.92-.13-3.68-.08-7.37-.1-11,0-1.93,0-3.86-.07-5.79C33.13,10.18,31.88,8.92,30,9s-3.09,1.34-3.15,3.61"/><path class="cls-12" d="M30,9c1.92,0,3.17,1.22,3.28,3.48"/><path class="cls-12" d="M33.31,18.23a31.68,31.68,0,0,1-6.53.13"/><path class="cls-13" d="M21.07,18.41h5.24A9.91,9.91,0,0,1,21.07,18.41Z"/><path class="cls-2" d="M161.44,18.36l.45,0a9.37,9.37,0,0,0,5.3,0l.54-.06a41.49,41.49,0,0,0,6.5,0c0,3.62-.08,7.24.05,10.86.05,1.69-.58,2-2.13,2-13.05-.05-26.11,0-39.16,0q-45.46,0-90.93,0c-1.89,0-2.63-.36-2.51-2.42.19-3.49.06-7,.07-10.47.64,0,1.28.11,1.92.11h118C160.15,18.43,160.8,18.38,161.44,18.36Z"/><path class="cls-1" d="M152.9,197.73l.76.06C153.38,198.1,153.13,198.07,152.9,197.73Z"/><path class="cls-3" d="M163,197.76l.38,0C163.26,197.92,163.13,197.94,163,197.76Z"/><path class="cls-14" d="M179.5,149c-.33.38-.6.74-.91,1Q167.28,161.37,156,172.7c-.76.77-1.18.8-2,0q-6.53-6.65-13.16-13.17c-.81-.8-.7-1.25,0-2,3.44-3.59,3.42-3.61,6.93-.1,2,2,4,3.88,5.86,5.93,1,1.06,1.58,1.07,2.61,0,5.75-5.86,11.63-11.6,17.35-17.49,1.29-1.33,2-1.23,3.09.09.64.8,1.45,1.47,2.17,2.21A9.25,9.25,0,0,1,179.5,149Z"/><path class="cls-15" d="M167.19,18.39a9.37,9.37,0,0,1-5.3,0Z"/></svg>