<svg id="Capa_1" data-name="Capa 1" xmlns="http://www.w3.org/2000/svg" viewBox="0 0 200 200"><defs><style>.cls-1{fill:#e6e6f1;}.cls-2{fill:#f1f1f1;}.cls-3{fill:#fe641a;}.cls-4{fill:#fefefe;}.cls-5{fill:#fe651b;}.cls-6{fill:#cdcde5;}.cls-7{fill:#fe9000;}.cls-8{fill:#fe9102;}.cls-9{fill:#474f54;}.cls-10{fill:#575f64;}.cls-11{fill:#e6e6f0;}.cls-12{fill:#f1f1f0;}.cls-13{fill:#485055;}</style></defs><path class="cls-1" d="M200,64.73V192.9H100.55l0-42.75c.26-.51.5-1,.78-1.54A40.76,40.76,0,0,0,106,123.42a45,45,0,0,0-5.51-15.94V64.8c.77,0,1.55-.06,2.32-.06ZM129.67,93.88c0-1.49,0-3,0-4.46,0-1-.35-1.41-1.36-1.39-3,0-5.95,0-8.92,0-1,0-1.4.34-1.39,1.35,0,3,0,6,0,8.93,0,1,.35,1.4,1.36,1.39,3,0,5.95,0,8.92,0,1,0,1.42-.35,1.39-1.36C129.63,96.85,129.67,95.36,129.67,93.88Zm11.65-.17c0,1.49,0,3,0,4.46,0,1,.27,1.55,1.41,1.53,3,0,5.95,0,8.93,0,1,0,1.34-.46,1.33-1.42,0-3,0-6,0-8.92,0-1-.46-1.34-1.41-1.33-3,0-5.95,0-8.93,0-1,0-1.35.45-1.33,1.41C141.35,90.86,141.32,92.29,141.32,93.71ZM170.6,88c-1.49,0-3,0-4.46,0-1,0-1.55.28-1.53,1.42,0,3,0,6,0,8.92,0,1,.46,1.34,1.42,1.34,3,0,5.94,0,8.92,0,1,0,1.34-.46,1.33-1.42,0-3,0-6,0-8.92,0-1-.46-1.36-1.41-1.33C173.44,88.07,172,88,170.6,88ZM118,117c0,1.49.06,3,0,4.46-.06,1.22.47,1.57,1.61,1.55,2.84-.06,5.69-.06,8.53,0,1.21,0,1.57-.47,1.55-1.61-.06-2.84-.06-5.69,0-8.53,0-1.22-.47-1.57-1.61-1.55-2.84.05-5.69.06-8.53,0-1.22,0-1.6.46-1.55,1.61C118.07,114.28,118,115.64,118,117Zm29.17-5.66c-1.43,0-2.85,0-4.27,0-1.13,0-1.65.31-1.62,1.54.06,2.84.06,5.69,0,8.53,0,1.13.31,1.65,1.54,1.62,2.84-.06,5.69-.07,8.53,0,1.33,0,1.65-.53,1.62-1.73-.06-2.72-.1-5.44,0-8.15.06-1.52-.55-1.91-1.94-1.81S148.48,111.34,147.19,111.34ZM170.27,123c1.49,0,3,0,4.46,0,1,0,1.57-.23,1.56-1.4,0-3,0-5.94,0-8.92,0-1-.42-1.36-1.39-1.35-3,0-5.95,0-8.93,0-1,0-1.36.42-1.35,1.39,0,3,0,6,0,8.93,0,1,.42,1.38,1.4,1.35C167.43,123,168.85,123,170.27,123Zm-46.6,23.3c1.55,0,3.1,0,4.65,0,1,0,1.37-.41,1.36-1.39,0-3,0-5.95,0-8.92,0-1-.41-1.37-1.39-1.36-3,0-5.95,0-8.92,0-1,0-1.37.41-1.36,1.39,0,3,0,5.95,0,8.92,0,1,.41,1.39,1.39,1.36C120.82,146.26,122.24,146.29,123.67,146.29Zm23.3,0c1.49,0,3,0,4.46,0,1,0,1.57-.23,1.55-1.39,0-3,0-5.95,0-8.93,0-1-.42-1.36-1.39-1.35-3,0-6,0-8.93,0-1,0-1.36.42-1.35,1.4,0,3,0,5.95,0,8.92,0,1,.42,1.38,1.4,1.35C144.13,146.26,145.55,146.29,147,146.29Zm29.3-5.81c0-1.49,0-3,0-4.46,0-1-.34-1.4-1.35-1.39-3,0-6,0-8.93,0-1,0-1.4.34-1.39,1.36,0,3,0,5.95,0,8.92,0,1,.34,1.4,1.36,1.39,3,0,5.95,0,8.92,0,1,0,1.42-.34,1.39-1.36C176.23,143.46,176.27,142,176.27,140.48ZM118,163.32c0,1.8,0,3.29,0,4.77,0,1,.3,1.54,1.43,1.52,2.91-.05,5.82,0,8.73,0,1,0,1.53-.31,1.51-1.44,0-2.9-.05-5.82,0-8.72,0-1.24-.52-1.57-1.63-1.52-1.42.06-2.85-.05-4.27,0-1.85.1-4.18-.82-5.41.42S118.19,161.84,118,163.32Zm35,.47c0-1.49,0-3,0-4.47,0-1-.35-1.4-1.36-1.39-3,0-6,0-8.92,0-1,0-1.4.34-1.39,1.36,0,3,0,6,0,8.92,0,1,.34,1.41,1.36,1.39,3,0,6,0,8.92,0,1,0,1.42-.34,1.39-1.35C152.93,166.76,153,165.27,153,163.79Zm23.3.16c0-1.55,0-3.1,0-4.65,0-1-.4-1.38-1.38-1.37q-4.47.06-8.92,0c-1,0-1.38.4-1.37,1.39,0,3,0,6,0,8.92,0,1,.4,1.37,1.38,1.36,3,0,5.95,0,8.93,0,1,0,1.39-.39,1.36-1.38C176.24,166.8,176.27,165.38,176.27,164Z"/><path class="cls-2" d="M100.53,64.8v42.68c-.37-.51-.76-1-1.13-1.54C91.08,94.39,80,88.13,65.59,88.1a23.89,23.89,0,0,0-6.37.43A40.84,40.84,0,0,0,26,138.7c4.32,17.92,21.78,31.52,39.57,30.83a37.35,37.35,0,0,0,17.91-4,42.47,42.47,0,0,0,17-15.36q0,21.38,0,42.75H.74V65.12l.41-.43c.38,0,.77,0,1.16,0h96.9c.45,0,.9,0,1.35-.06Z"/><path class="cls-3" d="M200,64.73H102.85c-.77,0-1.55,0-2.32.06l0-.13,0-23.18c3.22,0,6.45-.13,9.68,0,1.63.06,2-.43,2-2-.07-7.11,0-14.21,0-21.31h34.82c0,7.23.07,14.45,0,21.68,0,1.24.32,1.69,1.62,1.65,3.35-.1,6.7-.07,10.06-.09s6.45,0,9.67.1c1.65.08,2-.46,2-2-.06-7.1,0-14.19,0-21.29H200Z"/><path class="cls-4" d="M2.49,199.15c-1.46,0-1.93-.32-1.78-1.79s0-3,0-4.46H200c0,1.81,0,3.62,0,5.43,0,.68-.12.91-.8.79a5.22,5.22,0,0,0-1,0"/><path class="cls-5" d="M100.53,150.14a42.47,42.47,0,0,1-17,15.36,37.35,37.35,0,0,1-17.91,4c0-3.84,0-7.68,0-11.52,1.54-.16,3.08-.13,4.62-.38a29.19,29.19,0,0,0-4.62-58c0-3.84,0-7.68,0-11.52,14.39,0,25.49,6.29,33.81,17.84.37.52.76,1,1.13,1.54A45,45,0,0,1,106,123.42a40.76,40.76,0,0,1-4.73,25.18C101,149.1,100.79,149.63,100.53,150.14Z"/><path class="cls-6" d="M129.67,93.88c0,1.48,0,3,0,4.46,0,1-.41,1.37-1.39,1.36-3,0-5.95,0-8.92,0-1,0-1.37-.41-1.36-1.39,0-3,0-6,0-8.93,0-1,.41-1.36,1.39-1.35,3,0,5.95,0,8.92,0,1,0,1.38.4,1.36,1.39C129.64,90.9,129.67,92.39,129.67,93.88Z"/><path class="cls-6" d="M141.32,93.71c0-1.42,0-2.85,0-4.27,0-1,.3-1.43,1.33-1.41,3,0,6,0,8.93,0,1,0,1.42.29,1.41,1.33,0,3,0,6,0,8.92,0,1-.3,1.43-1.33,1.42-3,0-6,0-8.93,0-1.14,0-1.45-.5-1.41-1.53C141.36,96.68,141.32,95.2,141.32,93.71Z"/><path class="cls-6" d="M170.6,88c1.42,0,2.84,0,4.27,0,.95,0,1.42.29,1.41,1.33,0,3,0,6,0,8.92,0,1-.3,1.43-1.33,1.42-3,0-5.95,0-8.92,0-1,0-1.43-.3-1.42-1.34,0-3,0-6,0-8.92,0-1.14.49-1.45,1.53-1.42C167.62,88.07,169.11,88,170.6,88Z"/><path class="cls-6" d="M118,117c0-1.36,0-2.72,0-4.07,0-1.15.33-1.64,1.55-1.61,2.84.06,5.69.05,8.53,0,1.14,0,1.64.33,1.61,1.55-.06,2.84-.06,5.69,0,8.53,0,1.14-.34,1.64-1.55,1.61-2.84-.06-5.69-.06-8.53,0-1.14,0-1.67-.33-1.61-1.55C118.08,120,118,118.49,118,117Z"/><path class="cls-6" d="M147.19,111.34c1.29,0,2.59.07,3.87,0s2,.29,1.94,1.81c-.11,2.71-.07,5.43,0,8.15,0,1.2-.29,1.77-1.62,1.73-2.84-.07-5.69-.06-8.53,0-1.23,0-1.56-.49-1.54-1.62.06-2.84.06-5.69,0-8.53,0-1.23.49-1.58,1.62-1.54C144.34,111.39,145.76,111.34,147.19,111.34Z"/><path class="cls-6" d="M170.27,123c-1.42,0-2.84,0-4.26,0-1,0-1.41-.34-1.4-1.35,0-3,0-6,0-8.93,0-1,.34-1.4,1.35-1.39,3,0,5.95,0,8.93,0,1,0,1.4.33,1.39,1.35,0,3,0,5.95,0,8.92,0,1.17-.54,1.43-1.56,1.4C173.25,123,171.76,123,170.27,123Z"/><path class="cls-6" d="M123.67,146.29c-1.43,0-2.85,0-4.27,0-1,0-1.4-.34-1.39-1.36,0-3,0-5.95,0-8.92,0-1,.35-1.4,1.36-1.39,3,0,5.95,0,8.92,0,1,0,1.4.35,1.39,1.36,0,3,0,5.95,0,8.92,0,1-.35,1.42-1.36,1.39C126.77,146.26,125.22,146.29,123.67,146.29Z"/><path class="cls-6" d="M147,146.29c-1.42,0-2.84,0-4.26,0-1,0-1.41-.33-1.4-1.35,0-3,0-5.95,0-8.92,0-1,.33-1.41,1.35-1.4,3,0,6,0,8.93,0,1,0,1.4.34,1.39,1.35,0,3,0,6,0,8.93,0,1.16-.53,1.42-1.55,1.39C150,146.26,148.46,146.29,147,146.29Z"/><path class="cls-6" d="M176.27,140.48c0,1.49,0,3,0,4.46,0,1-.41,1.37-1.39,1.36-3,0-5.95,0-8.92,0-1,0-1.37-.41-1.36-1.39,0-3,0-5.95,0-8.92,0-1,.41-1.37,1.39-1.36,3,0,5.95,0,8.93,0,1,0,1.38.41,1.35,1.39C176.24,137.51,176.27,139,176.27,140.48Z"/><path class="cls-6" d="M118,163.32c.17-1.48-.78-3.78.36-4.94s3.56-.32,5.41-.42c1.42-.08,2.85,0,4.27,0,1.11-.05,1.66.28,1.63,1.52-.06,2.9-.05,5.82,0,8.72,0,1.13-.47,1.45-1.51,1.44-2.91,0-5.82-.05-8.73,0-1.13,0-1.47-.47-1.43-1.52C118.06,166.61,118,165.12,118,163.32Z"/><path class="cls-6" d="M153,163.79c0,1.48,0,3,0,4.46,0,1-.41,1.36-1.39,1.35-3,0-6,0-8.92,0-1,0-1.37-.41-1.36-1.39,0-3,0-6,0-8.92,0-1,.41-1.37,1.39-1.36,3,0,6,0,8.92,0,1,0,1.39.41,1.36,1.39C152.94,160.81,153,162.3,153,163.79Z"/><path class="cls-6" d="M176.27,164c0,1.43,0,2.85,0,4.27,0,1-.36,1.4-1.36,1.38-3,0-5.95,0-8.93,0-1,0-1.39-.35-1.38-1.36,0-3,0-6,0-8.92,0-1,.36-1.4,1.37-1.39q4.46.06,8.92,0c1,0,1.41.36,1.38,1.37C176.24,160.85,176.27,162.4,176.27,164Z"/><path class="cls-7" d="M54,18.13H88.83c0,7.23.07,14.46,0,21.7,0,1.26.34,1.66,1.62,1.63,3.35-.1,6.71-.07,10.07-.08l0,.11,0,23.18c-.45,0-.9.06-1.35.06H2.31c-.39,0-.78,0-1.16,0,0-15,0-30-.06-45,0-1.45.52-1.63,1.78-1.63,9.23,0,18.47,0,27.71,0,0,.77.06,1.55.06,2.32,0,6.46,0,12.91,0,19.37,0,1.25.33,1.68,1.62,1.64,3.35-.1,6.71-.07,10.06-.09s6.46,0,9.68.1c1.64.07,2-.45,2-2C53.91,32.33,54,25.23,54,18.13Z"/><path class="cls-8" d="M65.59,88.1c0,3.84,0,7.68,0,11.52l0,.13a19,19,0,0,0-5.78.52,29.12,29.12,0,0,0-22.94,33.56c2.15,13.65,15.15,24.54,28.72,24l0,.13c0,3.84,0,7.68,0,11.52C47.8,170.22,30.34,156.62,26,138.7a40.84,40.84,0,0,1,33.2-50.17A23.89,23.89,0,0,1,65.59,88.1Z"/><path class="cls-9" d="M100.55,6.54c3.42,0,6.85,0,10.27-.09,1.11,0,1.42.31,1.4,1.41,0,3.42,0,6.84,0,10.27,0,7.1-.1,14.2,0,21.31,0,1.6-.39,2.09-2,2-3.23-.11-6.46,0-9.68,0l0-.11Q100.56,24,100.55,6.54Z"/><path class="cls-10" d="M147.08,18.13c0-3.43.09-6.85,0-10.27,0-1.11.32-1.43,1.41-1.41,3.43.09,6.85.07,10.27.09V41.37c-3.36,0-6.71,0-10.06.09-1.3,0-1.63-.41-1.62-1.65C147.15,32.58,147.1,25.36,147.08,18.13Z"/><path class="cls-9" d="M158.8,41.37V6.54c3.43,0,6.85,0,10.27-.09,1.11,0,1.42.31,1.4,1.41-.05,3.42,0,6.84,0,10.27,0,7.1-.09,14.19,0,21.29,0,1.59-.36,2.13-2,2C165.25,41.32,162,41.39,158.8,41.37Z"/><path class="cls-10" d="M42.29,41.37c-3.35,0-6.71,0-10.06.09-1.29,0-1.63-.39-1.62-1.64.06-6.46,0-12.91,0-19.37,0-.77,0-1.55-.06-2.32,0-3.43.08-6.85,0-10.27,0-1.11.31-1.43,1.41-1.41,3.42.09,6.84.07,10.27.09Q42.3,24,42.29,41.37Z"/><path class="cls-9" d="M42.29,41.37q0-17.41,0-34.83c3.42,0,6.85,0,10.27-.09,1.11,0,1.41.31,1.4,1.41,0,3.42,0,6.84,0,10.27,0,7.1-.1,14.2,0,21.3,0,1.59-.37,2.11-2,2C48.75,41.32,45.52,41.39,42.29,41.37Z"/><path class="cls-10" d="M100.55,6.54q0,17.42,0,34.84c-3.36,0-6.72,0-10.07.08-1.28,0-1.63-.37-1.62-1.63,0-7.24,0-14.47,0-21.7,0-3.43.09-6.85,0-10.27,0-1.11.31-1.43,1.41-1.41C93.7,6.54,97.13,6.52,100.55,6.54Z"/><path class="cls-11" d="M65.58,99.62a29.19,29.19,0,0,1,4.62,58c-1.54.25-3.08.22-4.62.38l0-.13V137.31c2.14,2.06,4.31,4.09,6.38,6.21.85.88,1.39,1,2.3,0,1.93-2.08,3.95-4.08,6-6,.92-.86,1-1.39,0-2.3-2.7-2.59-5.28-5.32-8-8a3,3,0,0,1-1-2.36c.08-2.84,0-5.68,0-8.53,0-1.6.54-3.73-.27-4.68-1-1.11-3.15-.26-4.8-.38l-.77-.06c0-3.84,0-7.69,0-11.53Z"/><path class="cls-12" d="M65.61,137.31v20.57c-13.57.49-26.57-10.4-28.72-24a29.12,29.12,0,0,1,22.94-33.56,19,19,0,0,1,5.78-.52c0,3.84,0,7.69,0,11.53l.05.12c-1.48,0-3,0-4.45-.08-1.07-.07-1.44.26-1.43,1.39.06,5.8,0,11.6,0,17.4a2.28,2.28,0,0,0,.71,1.88c1.74,1.64,3.42,3.33,5.12,5C65.59,137.09,65.6,137.2,65.61,137.31Z"/><path class="cls-13" d="M65.61,137.31c0-.11,0-.22,0-.33l0-25.58-.05-.12.77.06c1.65.12,3.85-.73,4.8.38.81,1,.26,3.08.27,4.68,0,2.85.06,5.69,0,8.53a3,3,0,0,0,1,2.36c2.67,2.63,5.25,5.36,8,8,.94.91.89,1.44,0,2.3-2.07,2-4.09,4-6,6-.91,1-1.45.83-2.3,0C69.92,141.4,67.75,139.37,65.61,137.31Z"/><path class="cls-10" d="M65.62,111.4l0,25.58c-1.7-1.66-3.38-3.35-5.12-5a2.28,2.28,0,0,1-.71-1.88c0-5.8,0-11.6,0-17.4,0-1.13.36-1.46,1.43-1.39C62.65,111.41,64.14,111.38,65.62,111.4Z"/></svg>