<svg id="Capa_1" data-name="Capa 1" xmlns="http://www.w3.org/2000/svg" viewBox="0 0 200 200"><defs><style>.cls-1{fill:#ecf4fc;}.cls-2{fill:#e92b3d;}.cls-3{fill:#1c2c64;}.cls-4{fill:#fe9f60;}.cls-5{fill:#d8e9fa;}.cls-6{fill:#b70c2d;}.cls-7{fill:#c5d5ea;}.cls-8{fill:#91dfe7;}.cls-9{fill:#fec988;}.cls-10{fill:#05af8f;}.cls-11{fill:#fdfdfd;}.cls-12{fill:#fddc8d;}.cls-13{fill:#34b485;}.cls-14{fill:#109390;}.cls-15{fill:#65d885;}</style></defs><path class="cls-1" d="M31.07,169.62c-1.92-.76-3-2.48-4.3-3.9.59-.5.37-1.19.38-1.82,0-2.39,0-4.78,0-7.18a4.82,4.82,0,0,0,2.91.84c8.4,0,16.79,0,25.18,0,2.51,0,3.24-.69,3.26-3.22,0-4.72,0-9.45,0-14.17,0-2.15-.78-2.83-3-2.83H29.79a3.74,3.74,0,0,0-2.25.43,11.65,11.65,0,0,1,0-6.62,4.11,4.11,0,0,0,2.44.41H55c3,0,3.53-.54,3.54-3.66v-12c0-3.71,0-3.71-3.1-4.94,1.6-2.35,1.6-2.94,0-5,3.1-1.16,3.1-1.16,3.1-4.74,0-4.14,0-8.29,0-12.43,0-2.78-.7-3.44-3.44-3.44-8.27,0-16.54,0-24.81,0a5.05,5.05,0,0,0-3.11.83V79a5,5,0,0,0,3.11.84c8.26,0,16.52,0,24.79,0,2.75,0,3.44-.66,3.46-3.42,0-4.52,0-9.05,0-13.58,0-2.37-.53-3-2.9-3.58C57,57,56.86,55.55,55.32,54.5s-2.94-.57-4.57,1.43l-2.69,3.3c-5.66,0-11.32.05-17,.05a7.33,7.33,0,0,0-3.54.74c-.59-.51-.37-1.2-.37-1.81,0-2.77,0-5.53,0-8.3a.44.44,0,0,0,.09-.31h0c.51,0,1,.08,1.54.08q76.25,0,152.51,0a3.82,3.82,0,0,0,2.08-.27q0,7.77,0,15.52c0,1-.06,1.94-.06,2.91q0,21.2,0,42.39a57.55,57.55,0,0,0-11.63-6.65c0-5,.06-10.08,0-15.12,0-2.51-.75-3.16-3.29-3.17h-25c-2.75,0-3.4.64-3.42,3.43,0,4.59,0,9.18,0,13.77a3.92,3.92,0,0,0,.35,1.88,58,58,0,0,0-10.83,7q-12.27,0-24.55,0c-1.92,0-2.61.75-2.62,2.75,0,4.84,0,9.69,0,14.53,0,2.32.64,2.93,3,2.94,3.86,0,7.73,0,11.6,0l-1.16,5.74c-3.54,0-7.08,0-10.62,0-2.38,0-2.83.44-2.84,2.81,0,4.78,0,9.55,0,14.33,0,2.37.69,3.07,3.12,3.08,4.25,0,8.5,0,12.75,0a52.85,52.85,0,0,0,7.06,12c-.83,0-1.67,0-2.51,0ZM93.82,84.86c1.21-2.28,1.09-3-.73-4.65,3.09-1.28,3.09-1.28,3.09-5,0-4.33,0-8.67,0-13,0-2.13-.52-2.64-2.62-2.64H67.4c-2.29,0-2.63.37-2.64,2.77V76.73c0,2.49.6,3.09,3.08,3.09,6.84,0,13.68,0,20.53,0,.67,0,1.43-.28,2,.37-1.88,1.4-2.87,3.6-4.58,5.16-6.14,0-12.27-.06-18.41,0-1.92,0-2.61.75-2.61,2.77q0,7.38,0,14.76c0,2.33.35,2.68,2.73,2.68q12.89,0,25.78,0c2.48,0,2.89-.42,2.9-3,0-4.34-.11-8.68,0-13C96.31,87.4,96,85.74,93.82,84.86ZM156,59.57c-4.39,0-8.77,0-13.16,0-1.82,0-2.69.84-2.71,2.52-.05,5-.06,10,0,14.94,0,2.1.81,2.79,2.88,2.79,8.65,0,17.29,0,25.94,0,1.76,0,2.76-.82,2.79-2.5q.11-7.65,0-15.32c0-1.64-.92-2.51-2.76-2.47C164.61,59.64,160.29,59.57,156,59.57Zm-75.5,77.75c-4.39,0-8.79,0-13.18,0-1.82,0-2.56.69-2.54,2.53.06,5,0,10,0,15,0,2,.69,2.74,2.64,2.74q12.89,0,25.78,0c2.23,0,3-.79,3-3.08q0-7.19,0-14.38c0-2.27-.49-2.74-2.73-2.75ZM118.1,59.59c-4.4,0-8.79,0-13.18,0-1.75,0-2.51.74-2.51,2.41q0,7.58,0,15.14a2.37,2.37,0,0,0,2.6,2.69q13.08,0,26.16,0c1.92,0,2.64-.83,2.65-2.77,0-5,0-10,0-15,0-1.86-.77-2.52-2.57-2.5C126.88,59.63,122.49,59.59,118.1,59.59Zm-.1,45.93c4.39,0,8.79,0,13.18,0,2.25,0,2.63-.38,2.64-2.58q0-7.38,0-14.76c0-2.13-.73-2.87-2.94-2.87q-12.8,0-25.58,0c-2.06,0-2.87.78-2.88,2.78,0,5,0,10,0,15,0,1.77.79,2.53,2.62,2.5C109.34,105.47,113.67,105.52,118,105.52Zm-37.44,26h12.6c2.37,0,3-.63,3-2.95q0-7.19,0-14.37c0-2.23-.67-2.9-2.88-2.9q-12.89,0-25.77,0c-2.18,0-2.75.58-2.76,2.76q0,7.28,0,14.56c0,2.38.53,2.89,3,2.9Z"/><path class="cls-2" d="M183.39,49.42a3.82,3.82,0,0,1-2.08.27q-76.26,0-152.51,0c-.52,0-1,0-1.54-.08l0-12.24c3,1.83,5.13.66,5.21-2.9.06-2.9.09-5.8.13-8.7l2.32,0,5.55,0c.06,3.28.06,6.56.2,9.84a2.56,2.56,0,0,0,2.76,2.62,2.64,2.64,0,0,0,2.86-2.53,15,15,0,0,0,.14-2.11c.06-2.7.1-5.4.14-8.1h7.77c0,1.54.08,3.09.14,4.64a37.45,37.45,0,0,0,.17,5.8,2.83,2.83,0,0,0,5.57,0,11.34,11.34,0,0,0,.17-2.11c.06-2.77.1-5.55.15-8.32h7.76c0,1.54.08,3.09.14,4.64a37.45,37.45,0,0,0,.17,5.8,2.83,2.83,0,0,0,5.57,0,11.34,11.34,0,0,0,.17-2.11c.06-2.77.1-5.55.15-8.32h7.76c0,1.54.08,3.09.14,4.64a37.45,37.45,0,0,0,.17,5.8,2.83,2.83,0,0,0,5.57,0,11.34,11.34,0,0,0,.17-2.11c.06-2.77.1-5.55.15-8.32h7.76c0,1.54.09,3.09.14,4.64a37.45,37.45,0,0,0,.18,5.8,2.83,2.83,0,0,0,5.56,0,11.34,11.34,0,0,0,.17-2.11c.06-2.77.1-5.55.15-8.32h7.76c0,1.54.09,3.09.15,4.64a36.24,36.24,0,0,0,.17,5.8,2.83,2.83,0,0,0,5.56,0,11.34,11.34,0,0,0,.17-2.11c.07-2.77.1-5.55.15-8.32h7.77c0,1.54.08,3.09.14,4.64a36.24,36.24,0,0,0,.17,5.8,2.83,2.83,0,0,0,5.56,0,12.26,12.26,0,0,0,.18-2.11c.06-2.77.09-5.55.14-8.32h7.77c0,1.22.11,2.44.13,3.67,0,2.13,0,4.26.13,6.38a2.83,2.83,0,0,0,5.66,0c.09-.9.11-1.8.13-2.7.06-2.45.1-4.9.14-7.35H152c.05,1,.12,1.92.14,2.88.06,2.45,0,4.9.18,7.34A2.52,2.52,0,0,0,155,38.24,2.65,2.65,0,0,0,158,35.8a18.38,18.38,0,0,0,.14-2.11c.11-2.7-.21-5.4.18-8.1H166a24,24,0,0,1,.17,4.64c.07,1.87,0,3.75.18,5.61a2.56,2.56,0,0,0,2.79,2.41,2.65,2.65,0,0,0,2.8-2.41,16.53,16.53,0,0,0,.15-2.12c.11-2.71-.21-5.42.18-8.13,2.06,0,4.13,0,6.19,0,3.51.1,4.88,1.48,4.9,5,0,5.75,0,11.5,0,17.25C183.33,48.39,183.37,48.91,183.39,49.42Z"/><path class="cls-3" d="M129.58,111.35a58,58,0,0,1,10.83-7,50.12,50.12,0,0,1,13.45-3.22,45.4,45.4,0,0,1,17.84,2.43,57.55,57.55,0,0,1,11.63,6.65l5.37,5.34a46,46,0,0,1,8.85,17.89c4.71,19.34-6.66,40.84-25.31,47.82a43.08,43.08,0,0,1-29.53.39l-2.81-1.24a45.29,45.29,0,0,1-14.56-10.89,52.85,52.85,0,0,1-7.06-12,44.3,44.3,0,0,1-2.41-20.25c.39-1.91.77-3.83,1.16-5.74.75-2.05,1.42-4.13,2.28-6.14A43.41,43.41,0,0,1,129.58,111.35Zm27.54.46a42.53,42.53,0,0,0-4.81.38c-12.39,2.41-21,9.52-24.58,21.65-3.64,12.36-.34,23.25,9.25,31.92a28.64,28.64,0,0,0,20.88,7.5,24.24,24.24,0,0,0,4.8-.52c14.12-2.25,25.41-15.92,25-30.26C188.12,127.38,175.43,111.94,157.12,111.81Z"/><path class="cls-4" d="M125.34,169.55a45.29,45.29,0,0,0,14.56,10.89l2.81,1.24a85,85,0,0,1-27.8,10.84,94.16,94.16,0,0,1-64.59-9,91.85,91.85,0,0,1-18.39-12.85,9.34,9.34,0,0,1-.86-1l91.76,0C123.67,169.6,124.51,169.57,125.34,169.55Z"/><path class="cls-5" d="M27.17,156.72c0,2.4,0,4.79,0,7.18,0,.63.21,1.32-.38,1.82a93.54,93.54,0,0,1-10.84-13.38,3.65,3.65,0,0,1-.78-1.72q0-50.4,0-100.81l12,.1c0,2.77,0,5.53,0,8.3,0,.61-.22,1.3.37,1.81a6.28,6.28,0,0,0-.7,2c.12,5.66-.47,11.35.33,17v7.11a26.71,26.71,0,0,0-.39,3.25c0,4.2,0,8.4,0,12.6a5.72,5.72,0,0,0,.76,3.14c-.85,2.3-.17,4.68-.38,7a13.82,13.82,0,0,0-.35,2.09c0,4.79,0,9.58,0,14.37a5,5,0,0,0,.79,2.55,11.65,11.65,0,0,0,0,6.62,4.58,4.58,0,0,0-.73,2C27,145.38,26.37,151.07,27.17,156.72Z"/><path class="cls-4" d="M96.19,25.5H88.43c0-1.81,0-3.63-.1-5.44-.12-2.32-1.21-3.57-3-3.57s-2.88,1.25-3,3.58c-.09,1.8-.07,3.62-.1,5.43H74.47c0-1.81,0-3.63-.1-5.44-.12-2.32-1.21-3.57-3-3.57s-2.88,1.25-3,3.58c-.09,1.8-.07,3.62-.1,5.43H60.51c0-1.81,0-3.63-.1-5.44-.12-2.32-1.21-3.57-3-3.57s-2.88,1.25-3,3.58c-.09,1.8-.07,3.62-.1,5.43H46.54c-.21-2.59.13-5.2-.38-7.77a98.25,98.25,0,0,1,27.18-11,96.45,96.45,0,0,1,34.41-1.61A94,94,0,0,1,140,15.56c.45.24,1,.39,1.21.91-2.18.47-2.9,1.31-3,3.69-.08,1.78-.06,3.56-.09,5.34h-7.77c0-1.81,0-3.63-.1-5.44-.12-2.32-1.21-3.57-3-3.57s-2.88,1.25-3,3.58c-.09,1.8-.07,3.62-.09,5.43h-7.77c0-1.81,0-3.63-.1-5.44-.12-2.32-1.21-3.57-3-3.57s-2.88,1.25-3,3.58c-.09,1.8-.07,3.62-.1,5.43h-7.76c0-1.81,0-3.63-.1-5.44-.12-2.32-1.21-3.57-3-3.57s-2.88,1.25-3,3.58C96.2,21.87,96.22,23.69,96.19,25.5Z"/><path class="cls-4" d="M15.17,49.81q0,50.41,0,100.81c-3.16-4.13-5.31-8.82-7.4-13.54a84.81,84.81,0,0,1-7.2-27.61C-1.16,88,2.65,67.63,14.36,49.17a10.32,10.32,0,0,1,.73-.88c.08.4.17.8.25,1.2A3.24,3.24,0,0,1,15.17,49.81Z"/><path class="cls-6" d="M15.34,49.49c-.08-.4-.17-.8-.25-1.2,0-5.75.07-11.5.09-17.24,0-4.09,1.47-5.53,5.6-5.54h5.6a52.58,52.58,0,0,1,.16,6.76c.05,1.73-.21,3.5.69,5.11l0,12.24h0Z"/><path class="cls-4" d="M188.7,115.58l-5.37-5.34q0-21.19,0-42.39c0-1,0-1.94.06-2.91a73.14,73.14,0,0,1,5,16.87,92.18,92.18,0,0,1,1.59,21A104.56,104.56,0,0,1,188.7,115.58Z"/><path class="cls-7" d="M158.27,25.59c-.39,2.7-.07,5.4-.18,8.1A18.38,18.38,0,0,1,158,35.8,2.65,2.65,0,0,1,155,38.24a2.52,2.52,0,0,1-2.65-2.52c-.14-2.44-.12-4.89-.18-7.34,0-1-.09-1.92-.14-2.88,0-.77,0-1.53,0-2.3.16-1.52-.17-3.08.39-4.58a2.78,2.78,0,0,1,2.67-2.1,2.71,2.71,0,0,1,2.79,2.17C158.58,21,158,23.3,158.27,25.59Z"/><path class="cls-7" d="M138.08,25.5c0-1.78,0-3.56.09-5.34.11-2.38.83-3.22,3-3.69a3.67,3.67,0,0,1,2.7,1.37c.53,2.53.17,5.11.39,7.66,0,2.45-.08,4.9-.14,7.35,0,.9,0,1.8-.13,2.7a2.83,2.83,0,0,1-5.66,0c-.15-2.12-.08-4.25-.13-6.38C138.19,27.94,138.12,26.72,138.08,25.5Z"/><path class="cls-7" d="M27.23,37.37c-.9-1.61-.64-3.38-.69-5.11a52.58,52.58,0,0,0-.16-6.76c0-1.8-.05-3.61.06-5.4.09-1.53.62-2.93,2.24-3.5a2.6,2.6,0,0,1,2.94.91,4.65,4.65,0,0,1,.94,3.06c0,1.73,0,3.47,0,5.2,0,2.9-.07,5.8-.13,8.7C32.36,38,30.25,39.2,27.23,37.37Z"/><path class="cls-7" d="M172.23,25.59c-.39,2.71-.07,5.42-.18,8.13a16.53,16.53,0,0,1-.15,2.12,2.65,2.65,0,0,1-2.8,2.41,2.56,2.56,0,0,1-2.79-2.41c-.18-1.86-.11-3.74-.18-5.61a24,24,0,0,0-.17-4.64c.06-2.06,0-4.13.22-6.17.18-1.65,1.09-2.94,3-2.9a2.47,2.47,0,0,1,2.58,2.15c.24,1.45.3,2.94.4,4.41C172.22,23.92,172.21,24.76,172.23,25.59Z"/><path class="cls-7" d="M46.16,17.73c.51,2.57.17,5.18.38,7.77,0,2.7-.08,5.4-.14,8.1a15,15,0,0,1-.14,2.11,2.64,2.64,0,0,1-2.86,2.53,2.56,2.56,0,0,1-2.76-2.62c-.14-3.28-.14-6.56-.2-9.84.38-1.36.09-2.75.18-4.12a17.72,17.72,0,0,0,.08-1.92,2.8,2.8,0,0,1,1.45-2.9,2.68,2.68,0,0,1,3.19.4A8.45,8.45,0,0,0,46.16,17.73Z"/><path class="cls-4" d="M144.27,25.5c-.22-2.55.14-5.13-.39-7.66,2.86,1.57,5.43,3.58,8.14,5.36,0,.77,0,1.53,0,2.3Z"/><path class="cls-4" d="M40.62,21.66c-.09,1.37.2,2.76-.18,4.12l-5.55,0C36.78,24.34,38.45,22.64,40.62,21.66Z"/><path class="cls-8" d="M27.54,105.1a5.72,5.72,0,0,1-.76-3.14c0-4.2,0-8.4,0-12.6a26.71,26.71,0,0,1,.39-3.25,5.05,5.05,0,0,1,3.11-.83c8.27,0,16.54,0,24.81,0,2.74,0,3.42.66,3.44,3.44,0,4.14,0,8.29,0,12.43,0,3.58,0,3.58-3.1,4.74a3.66,3.66,0,0,0-3.42,0c-.57-.61-1.33-.37-2-.38H30A4.09,4.09,0,0,1,27.54,105.1Z"/><path class="cls-8" d="M27.17,156.72c-.8-5.65-.19-11.34-.36-17a4.58,4.58,0,0,1,.73-2,3.74,3.74,0,0,1,2.25-.43H55.54c2.2,0,3,.68,3,2.83,0,4.72,0,9.45,0,14.17,0,2.53-.75,3.22-3.26,3.22-8.39,0-16.78,0-25.18,0A4.82,4.82,0,0,1,27.17,156.72Z"/><path class="cls-9" d="M156,59.57c4.33,0,8.65.07,13,0,1.84,0,2.73.83,2.76,2.47q.12,7.67,0,15.32c0,1.68-1,2.5-2.79,2.5-8.65,0-17.29,0-25.94,0-2.07,0-2.85-.69-2.88-2.79-.06-5-.05-10,0-14.94,0-1.68.89-2.55,2.71-2.52C147.19,59.62,151.57,59.57,156,59.57Z"/><path class="cls-8" d="M90.37,80.2c-.57-.65-1.33-.36-2-.37-6.85,0-13.69,0-20.53,0-2.48,0-3.07-.6-3.08-3.09V62.37c0-2.4.35-2.77,2.64-2.77H93.55c2.1,0,2.61.51,2.62,2.64,0,4.33,0,8.67,0,13,0,3.69,0,3.69-3.09,5A3.56,3.56,0,0,0,90.37,80.2Z"/><path class="cls-8" d="M80.46,137.32h13c2.24,0,2.72.48,2.73,2.75q0,7.19,0,14.38c0,2.29-.76,3.08-3,3.08q-12.89,0-25.78,0c-2,0-2.63-.73-2.64-2.74,0-5,0-10,0-15,0-1.84.72-2.56,2.54-2.53C71.67,137.36,76.07,137.32,80.46,137.32Z"/><path class="cls-8" d="M118.1,59.59c4.39,0,8.78,0,13.17,0,1.8,0,2.6.64,2.57,2.5-.06,5,0,10,0,15,0,1.94-.73,2.76-2.65,2.77q-13.08.06-26.16,0a2.37,2.37,0,0,1-2.6-2.69q0-7.58,0-15.14c0-1.67.76-2.44,2.51-2.41C109.31,59.64,113.7,59.59,118.1,59.59Z"/><path class="cls-8" d="M118,105.52c-4.33,0-8.66,0-13,0-1.83,0-2.62-.73-2.62-2.5,0-5,0-10,0-15,0-2,.82-2.78,2.88-2.78q12.8,0,25.58,0c2.21,0,2.93.74,2.94,2.87q0,7.38,0,14.76c0,2.2-.39,2.57-2.64,2.58C126.79,105.53,122.39,105.52,118,105.52Z"/><path class="cls-8" d="M80.56,131.53H67.78c-2.48,0-3-.52-3-2.9q0-7.29,0-14.56c0-2.18.58-2.76,2.76-2.76q12.89,0,25.77,0c2.21,0,2.87.67,2.88,2.9q0,7.19,0,14.37c0,2.32-.65,2.94-3,2.95Z"/><path class="cls-9" d="M171.7,103.59a45.4,45.4,0,0,0-17.84-2.43,50.12,50.12,0,0,0-13.45,3.22,3.92,3.92,0,0,1-.35-1.88c0-4.59,0-9.18,0-13.77,0-2.79.67-3.43,3.42-3.43h25c2.54,0,3.27.66,3.29,3.17C171.76,93.51,171.72,98.55,171.7,103.59Z"/><path class="cls-8" d="M27.17,79c-.8-5.65-.21-11.34-.33-17a6.28,6.28,0,0,1,.7-2,7.33,7.33,0,0,1,3.54-.74c5.66,0,11.32,0,17-.05-2.12,2.68-4.25,5.34-6.34,8.05-.58.75-.95.87-1.56,0-1-1.3-2-2.56-3-3.79-1.45-1.72-3-2-4.33-.9s-1.48,2.9-.11,4.64q2.7,3.41,5.46,6.79c1.82,2.24,3.74,2.23,5.57,0,4-4.92,7.93-9.85,11.9-14.78,2.37.59,2.9,1.21,2.9,3.58,0,4.53,0,9.06,0,13.58,0,2.76-.71,3.42-3.46,3.42-8.27,0-16.53,0-24.79,0A5,5,0,0,1,27.17,79Z"/><path class="cls-8" d="M27.57,131.12a5,5,0,0,1-.79-2.55c0-4.79,0-9.58,0-14.37a13.82,13.82,0,0,1,.35-2.09,3.46,3.46,0,0,1,2.1-.82c6,0,12.09.06,18.13.08-1.9,2.45-3.82,4.88-5.69,7.35-.64.84-1.06.65-1.6-.07-.94-1.24-1.89-2.46-2.9-3.64-1.5-1.77-3.12-2.06-4.51-.88s-1.33,2.78,0,4.51c1.68,2.21,3.44,4.36,5.16,6.54,2.19,2.75,4,2.72,6.23-.06Q49.74,118,55.44,110.9c3.1,1.23,3.1,1.23,3.1,4.94v12c0,3.12-.53,3.66-3.54,3.66H30A4.11,4.11,0,0,1,27.57,131.12Z"/><path class="cls-8" d="M93.82,84.86c2.13.88,2.49,2.54,2.41,4.68-.16,4.33,0,8.67,0,13,0,2.55-.42,3-2.9,3q-12.89,0-25.78,0c-2.38,0-2.73-.35-2.73-2.68q0-7.38,0-14.76c0-2,.69-2.77,2.61-2.77,6.14,0,12.27,0,18.41,0-2,2.54-4,5.06-6,7.63-.76,1-1.25.76-1.88-.09-1-1.29-2-2.56-3-3.78a3,3,0,0,0-4.13-.62,2.87,2.87,0,0,0-.43,4.15c2,2.67,4.11,5.31,6.3,7.86,1.39,1.61,3,1.54,4.53,0a16.24,16.24,0,0,0,1.26-1.47Q88.15,92,93.82,84.86Z"/><path class="cls-8" d="M129.58,111.35a43.41,43.41,0,0,0-10.27,14.07c-.86,2-1.53,4.09-2.28,6.14-3.87,0-7.74,0-11.6,0-2.38,0-3-.62-3-2.94,0-4.84,0-9.69,0-14.53,0-2,.7-2.74,2.62-2.75Q117.3,111.31,129.58,111.35Z"/><path class="cls-8" d="M115.87,137.3a44.3,44.3,0,0,0,2.41,20.25c-4.25,0-8.5,0-12.75,0-2.43,0-3.12-.71-3.12-3.08,0-4.78,0-9.55,0-14.33,0-2.37.46-2.8,2.84-2.81C108.79,137.3,112.33,137.31,115.87,137.3Z"/><path class="cls-10" d="M93.82,84.86Q88.15,92,82.46,99.07a16.24,16.24,0,0,1-1.26,1.47c-1.51,1.51-3.14,1.58-4.53,0-2.19-2.55-4.28-5.19-6.3-7.86a2.87,2.87,0,0,1,.43-4.15,3,3,0,0,1,4.13.62C76,90.34,77,91.61,78,92.9c.63.85,1.12,1.09,1.88.09,1.94-2.57,4-5.09,6-7.63,1.71-1.56,2.7-3.76,4.58-5.16a3.56,3.56,0,0,1,2.72,0C94.91,81.83,95,82.58,93.82,84.86Z"/><path class="cls-10" d="M55.44,110.9Q49.76,118,44.07,125.12c-2.22,2.78-4,2.81-6.23.06-1.72-2.18-3.48-4.33-5.16-6.54-1.32-1.73-1.27-3.43,0-4.51s3-.89,4.51.88c1,1.18,2,2.4,2.9,3.64.54.72,1,.91,1.6.07,1.87-2.47,3.79-4.9,5.69-7.35L52,105.91a3.66,3.66,0,0,1,3.42,0C57,108,57,108.55,55.44,110.9Z"/><path class="cls-10" d="M55.63,59.24c-4,4.93-7.92,9.86-11.9,14.78-1.83,2.27-3.75,2.28-5.57,0s-3.66-4.52-5.46-6.79c-1.37-1.74-1.32-3.47.11-4.64s2.88-.82,4.33.9c1,1.23,2.06,2.49,3,3.79.61.83,1,.71,1.56,0,2.09-2.71,4.22-5.37,6.34-8.05l2.69-3.3c1.63-2,3.06-2.45,4.57-1.43S57,57,55.63,59.24Z"/><path class="cls-2" d="M15.34,49.49l11.91.11a.44.44,0,0,1-.09.31l-12-.1A3.24,3.24,0,0,0,15.34,49.49Z"/><path class="cls-7" d="M68.27,25.5c0-1.81,0-3.63.1-5.43.12-2.33,1.21-3.58,3-3.58s2.88,1.25,3,3.57c.09,1.81.07,3.63.1,5.44,0,2.77-.09,5.55-.15,8.32a11.34,11.34,0,0,1-.17,2.11,2.83,2.83,0,0,1-5.57,0,37.45,37.45,0,0,1-.17-5.8C68.35,28.59,68.32,27,68.27,25.5Z"/><path class="cls-7" d="M54.31,25.5c0-1.81,0-3.63.1-5.43.12-2.33,1.21-3.58,3-3.58s2.88,1.25,3,3.57c.09,1.81.07,3.63.1,5.44,0,2.77-.09,5.55-.15,8.32a11.34,11.34,0,0,1-.17,2.11,2.83,2.83,0,0,1-5.57,0,37.45,37.45,0,0,1-.17-5.8C54.39,28.59,54.36,27,54.31,25.5Z"/><path class="cls-7" d="M82.23,25.5c0-1.81,0-3.63.1-5.43.12-2.33,1.21-3.58,3-3.58s2.88,1.25,3,3.57c.09,1.81.07,3.63.1,5.44-.05,2.77-.09,5.55-.15,8.32a11.34,11.34,0,0,1-.17,2.11,2.83,2.83,0,0,1-5.57,0,37.45,37.45,0,0,1-.17-5.8C82.31,28.59,82.28,27,82.23,25.5Z"/><path class="cls-7" d="M96.19,25.5c0-1.81,0-3.63.1-5.43.12-2.33,1.21-3.58,3-3.58s2.88,1.25,3,3.57c.09,1.81.07,3.63.1,5.44,0,2.77-.09,5.55-.15,8.32a11.34,11.34,0,0,1-.17,2.11,2.83,2.83,0,0,1-5.56,0,37.45,37.45,0,0,1-.18-5.8C96.28,28.59,96.24,27,96.19,25.5Z"/><path class="cls-7" d="M110.15,25.5c0-1.81,0-3.63.1-5.43.12-2.33,1.21-3.58,3-3.58s2.88,1.25,3,3.57c.09,1.81.07,3.63.1,5.44,0,2.77-.08,5.55-.15,8.32a11.34,11.34,0,0,1-.17,2.11,2.83,2.83,0,0,1-5.56,0,36.24,36.24,0,0,1-.17-5.8C110.24,28.59,110.2,27,110.15,25.5Z"/><path class="cls-7" d="M124.12,25.5c0-1.81,0-3.63.09-5.43.12-2.33,1.21-3.58,3-3.58s2.88,1.25,3,3.57c.09,1.81.07,3.63.1,5.44-.05,2.77-.08,5.55-.14,8.32a12.26,12.26,0,0,1-.18,2.11,2.83,2.83,0,0,1-5.56,0,36.24,36.24,0,0,1-.17-5.8C124.2,28.59,124.16,27,124.12,25.5Z"/><path class="cls-11" d="M187.64,142.48c.43,14.34-10.86,28-25,30.26a24.24,24.24,0,0,1-4.8.52c-.17-.17-.32-.46-.52-.5a30.87,30.87,0,0,1-15.19-7.54c-.71-.62-1.61-1.11-1.75-2.2a12.24,12.24,0,0,0,3.42-3.07,2.7,2.7,0,0,0-.12-4,2.78,2.78,0,0,0-4-.06c-.89.72-1.65,1.61-2.47,2.42a1.21,1.21,0,0,1-1.07-.71c-2-3.78-3.6-7.66-3.51-12.05.95,0,1.92,0,2.87-.1a2.75,2.75,0,0,0,2.63-3,2.7,2.7,0,0,0-2.63-2.78c-1-.12-1.92-.07-2.87-.1a21,21,0,0,1,2.6-10.14c.49-1,.54-2.35,2-2.62a30,30,0,0,0,2.64,2.53,2.7,2.7,0,0,0,3.83-.18,2.64,2.64,0,0,0,.22-3.82,12.17,12.17,0,0,0-3.52-3.22c.06-1,.83-1.43,1.44-2,4.42-3.82,9.34-6.69,15.18-7.73,0,1.8,0,3.61,0,5.41a3.24,3.24,0,0,0-2.93,3.46c0,4.94.06,9.88.09,14.83-.44.37-.86.77-1.31,1.13a6.45,6.45,0,0,0-2.29,7.09,6.34,6.34,0,0,0,5.64,4.88c3.18.42,5.36-1.27,7-3.81,3.21,0,6.42,0,9.62,0,2.57,0,3.15-.47,4-3ZM160,165.83a11.22,11.22,0,0,0,0-1.16c-.21-2-1.33-3.2-2.94-3.2s-2.75,1.21-3,3.17a11.3,11.3,0,0,0,0,1.16c0,3,1,4.55,3,4.56S160.06,168.85,160,165.83Zm17.53-5.63c-.08-1.89-3.27-5-5.07-5a2.79,2.79,0,0,0-2.55,4.17,10,10,0,0,0,3.2,3.28,2.67,2.67,0,0,0,2.92,0A3,3,0,0,0,177.55,160.2Z"/><path class="cls-12" d="M157.07,117.89c0-1.8,0-3.61,0-5.41,0-.22.07-.45.1-.67,18.31.13,31,15.57,30.52,30.67H176.87c-.54-2.18-2-2.92-4.15-2.84-3.14.12-6.28,0-9.43.07a15.92,15.92,0,0,0-3.4-3.55c0-4.86,0-9.71.06-14.57C160,119.52,159.09,118.3,157.07,117.89Z"/><path class="cls-1" d="M157.12,111.81c0,.22-.07.45-.1.67-5.84,1-10.76,3.91-15.18,7.73-.61.53-1.38,1-1.44,2-3.37,0-4.48,1.67-3.17,4.69-1.44.27-1.49,1.66-2,2.62a21,21,0,0,0-2.6,10.14c-1.8.15-3.1.86-3.19,2.88-.08,1.79.88,2.69,3.19,3.07-.09,4.39,1.53,8.27,3.51,12.05a1.21,1.21,0,0,0,1.07.71c-1.29,3-.19,4.66,3.17,4.69.14,1.09,1,1.58,1.75,2.2a30.87,30.87,0,0,0,15.19,7.54c.2,0,.35.33.52.5a28.64,28.64,0,0,1-20.88-7.5c-9.59-8.67-12.89-19.56-9.25-31.92,3.58-12.13,12.19-19.24,24.58-21.65A42.53,42.53,0,0,1,157.12,111.81Z"/><path class="cls-1" d="M52,105.91l-4.63,5.46c-6,0-12.09,0-18.13-.08a3.46,3.46,0,0,0-2.1.82c.21-2.33-.47-4.71.38-7a4.09,4.09,0,0,0,2.43.42H50C50.69,105.54,51.45,105.3,52,105.91Z"/><path class="cls-13" d="M159.89,136.17a15.92,15.92,0,0,1,3.4,3.55,10.79,10.79,0,0,1,0,5.75c-1.66,2.54-3.84,4.23-7,3.81a6.34,6.34,0,0,1-5.64-4.88,6.45,6.45,0,0,1,2.29-7.09c.45-.36.87-.76,1.31-1.13A12.44,12.44,0,0,1,159.89,136.17Z"/><path class="cls-14" d="M159.89,136.17a12.44,12.44,0,0,0-5.66,0c0-5-.08-9.89-.09-14.83a3.24,3.24,0,0,1,2.93-3.46c2,.41,2.91,1.63,2.88,3.71C159.88,126.46,159.9,131.31,159.89,136.17Z"/><path class="cls-14" d="M163.29,145.47a10.79,10.79,0,0,0,0-5.75c3.15,0,6.29.05,9.43-.07,2.17-.08,3.61.66,4.15,2.84-.81,2.54-1.39,3-4,3C169.71,145.51,166.5,145.48,163.29,145.47Z"/><path class="cls-15" d="M160,165.83c0,3-1,4.54-3,4.53s-3-1.55-3-4.56a11.3,11.3,0,0,1,0-1.16c.22-2,1.37-3.18,3-3.17s2.73,1.21,2.94,3.2A11.22,11.22,0,0,1,160,165.83Z"/><path class="cls-15" d="M137.23,126.86c-1.31-3-.2-4.66,3.17-4.69a12.17,12.17,0,0,1,3.52,3.22,2.64,2.64,0,0,1-.22,3.82,2.7,2.7,0,0,1-3.83.18A30,30,0,0,1,137.23,126.86Z"/><path class="cls-15" d="M140.4,163c-3.36,0-4.46-1.66-3.17-4.69.82-.81,1.58-1.7,2.47-2.42a2.78,2.78,0,0,1,4,.06,2.7,2.7,0,0,1,.12,4A12.24,12.24,0,0,1,140.4,163Z"/><path class="cls-15" d="M177.55,160.2a3,3,0,0,1-1.5,2.46,2.67,2.67,0,0,1-2.92,0,10,10,0,0,1-3.2-3.28,2.79,2.79,0,0,1,2.55-4.17C174.28,155.19,177.47,158.31,177.55,160.2Z"/><path class="cls-15" d="M132.65,145.57c-2.31-.38-3.27-1.28-3.19-3.07.09-2,1.39-2.73,3.19-2.88.95,0,1.92,0,2.87.1a2.7,2.7,0,0,1,2.63,2.78,2.75,2.75,0,0,1-2.63,3C134.57,145.58,133.6,145.54,132.65,145.57Z"/></svg>