<svg id="Capa_1" data-name="Capa 1" xmlns="http://www.w3.org/2000/svg" viewBox="0 0 200 200"><defs><style>.cls-1{fill:#ecf4fc;}.cls-2{fill:#e92b3d;}.cls-3{fill:#1c2c64;}.cls-4{fill:#056766;}.cls-5{fill:#d8e9fa;}.cls-6{fill:#b70c2d;}.cls-7{fill:#c5d5ea;}.cls-8{fill:#91dfe7;}.cls-9{fill:#fec988;}.cls-10{fill:#05af8f;}.cls-11{fill:#fdfdfd;}.cls-12{fill:#fddc8d;}.cls-13{fill:#34b485;}.cls-14{fill:#109390;}.cls-15{fill:#65d885;}</style></defs><path class="cls-1" d="M31.68,169.62c-1.91-.76-3-2.48-4.3-3.9.6-.5.38-1.19.38-1.82,0-2.39,0-4.78,0-7.18a4.78,4.78,0,0,0,2.91.84c8.39,0,16.78,0,25.17,0,2.51,0,3.25-.69,3.27-3.22q.06-7.08,0-14.17c0-2.15-.78-2.83-3-2.83H30.4a3.7,3.7,0,0,0-2.24.43,11.57,11.57,0,0,1,0-6.62,4.11,4.11,0,0,0,2.44.41h25c3,0,3.53-.54,3.53-3.66v-12c0-3.71,0-3.71-3.1-4.94,1.6-2.35,1.6-2.94,0-5,3.1-1.16,3.1-1.16,3.1-4.74,0-4.14,0-8.29,0-12.43,0-2.78-.7-3.44-3.44-3.44-8.27,0-16.54,0-24.81,0a5,5,0,0,0-3.1.83V79a5,5,0,0,0,3.1.84c8.26,0,16.53,0,24.79,0,2.76,0,3.45-.66,3.46-3.42,0-4.52,0-9.05,0-13.58,0-2.37-.54-3-2.91-3.58,1.33-2.27,1.23-3.69-.31-4.74s-2.93-.57-4.57,1.43l-2.69,3.3c-5.66,0-11.32.05-17,.05a7.33,7.33,0,0,0-3.54.74c-.58-.51-.37-1.2-.37-1.81,0-2.77,0-5.53,0-8.3a.5.5,0,0,0,.1-.31h0c.51,0,1,.08,1.54.08q76.26,0,152.51,0a3.8,3.8,0,0,0,2.08-.27q0,7.77,0,15.52c0,1-.06,1.94-.06,2.91q0,21.2,0,42.39a57.28,57.28,0,0,0-11.63-6.65c0-5,.07-10.08,0-15.12,0-2.51-.74-3.16-3.29-3.17H144.11c-2.76,0-3.41.64-3.42,3.43,0,4.59,0,9.18,0,13.77a3.91,3.91,0,0,0,.34,1.88,58,58,0,0,0-10.83,7q-12.27,0-24.55,0c-1.92,0-2.61.75-2.62,2.75,0,4.84,0,9.69,0,14.53,0,2.32.64,2.93,3,2.94l11.6,0-1.15,5.74c-3.55,0-7.09,0-10.63,0-2.37,0-2.83.44-2.84,2.81,0,4.78,0,9.55,0,14.33,0,2.37.69,3.07,3.12,3.08,4.25,0,8.5,0,12.75,0a52.89,52.89,0,0,0,7.07,12c-.84,0-1.68,0-2.52,0ZM94.44,84.86c1.2-2.28,1.08-3-.74-4.65,3.1-1.28,3.1-1.28,3.1-5,0-4.33,0-8.67,0-13,0-2.13-.53-2.64-2.63-2.64H68c-2.29,0-2.63.37-2.63,2.77q0,7.17,0,14.36c0,2.49.59,3.09,3.07,3.09,6.84,0,13.69,0,20.53,0,.67,0,1.43-.28,2,.37-1.88,1.4-2.87,3.6-4.58,5.16-6.13,0-12.27-.06-18.41,0-1.91,0-2.6.75-2.61,2.77,0,4.92,0,9.84,0,14.76,0,2.33.35,2.68,2.73,2.68q12.89,0,25.78,0c2.49,0,2.89-.42,2.9-3,0-4.34-.1-8.68,0-13C96.92,87.4,96.56,85.74,94.44,84.86Zm62.13-25.29c-4.38,0-8.77,0-13.16,0-1.82,0-2.69.84-2.71,2.52,0,5-.06,10,0,14.94,0,2.1.81,2.79,2.87,2.79,8.65,0,17.3,0,25.94,0,1.76,0,2.77-.82,2.79-2.5q.1-7.65,0-15.32c0-1.64-.92-2.51-2.75-2.47C165.22,59.64,160.9,59.57,156.57,59.57ZM81.08,137.32c-4.4,0-8.79,0-13.19,0-1.82,0-2.56.69-2.54,2.53.07,5,0,10,0,15,0,2,.69,2.74,2.64,2.74q12.89,0,25.79,0c2.23,0,3-.79,3-3.08q0-7.19,0-14.38c0-2.27-.49-2.74-2.72-2.75Zm37.63-77.73c-4.39,0-8.79,0-13.18,0-1.75,0-2.51.74-2.51,2.41q0,7.58,0,15.14a2.37,2.37,0,0,0,2.6,2.69q13.08,0,26.17,0c1.91,0,2.63-.83,2.64-2.77,0-5,0-10,0-15,0-1.86-.77-2.52-2.56-2.5C127.49,59.63,123.1,59.59,118.71,59.59Zm-.1,45.93c4.4,0,8.79,0,13.18,0,2.25,0,2.63-.38,2.64-2.58q0-7.38,0-14.76c0-2.13-.73-2.87-2.94-2.87q-12.78,0-25.58,0c-2.06,0-2.87.78-2.88,2.78,0,5,0,10,0,15,0,1.77.79,2.53,2.62,2.5C110,105.47,114.29,105.52,118.61,105.52Zm-37.43,26H93.77c2.38,0,3-.63,3-2.95q0-7.19,0-14.37c0-2.23-.67-2.9-2.87-2.9q-12.89,0-25.77,0c-2.19,0-2.76.58-2.77,2.76,0,4.85,0,9.7,0,14.56,0,2.38.54,2.89,3,2.9Z"/><path class="cls-2" d="M184,49.42a3.8,3.8,0,0,1-2.08.27q-76.26,0-152.51,0c-.51,0-1,0-1.54-.08l0-12.24c3,1.83,5.13.66,5.21-2.9.07-2.9.09-5.8.14-8.7l2.31,0,5.56,0c0,3.28,0,6.56.2,9.84A2.55,2.55,0,0,0,44,38.24a2.65,2.65,0,0,0,2.87-2.53A16.6,16.6,0,0,0,47,33.6c.06-2.7.1-5.4.15-8.1h7.76c0,1.54.09,3.09.14,4.64a37.45,37.45,0,0,0,.17,5.8,2.83,2.83,0,0,0,5.57,0A11.34,11.34,0,0,0,61,33.82c.06-2.77.1-5.55.15-8.32h7.76c.05,1.54.09,3.09.15,4.64a36.24,36.24,0,0,0,.17,5.8,2.83,2.83,0,0,0,5.56,0,11.34,11.34,0,0,0,.17-2.11c.06-2.77.1-5.55.15-8.32h7.77c0,1.54.08,3.09.14,4.64a36.24,36.24,0,0,0,.17,5.8,2.83,2.83,0,0,0,5.56,0,12.26,12.26,0,0,0,.18-2.11c.06-2.77.09-5.55.14-8.32h7.77c0,1.54.08,3.09.14,4.64a36.24,36.24,0,0,0,.17,5.8,2.83,2.83,0,0,0,5.56,0,12.26,12.26,0,0,0,.18-2.11c.06-2.77.09-5.55.14-8.32h7.77c0,1.54.08,3.09.14,4.64a36.24,36.24,0,0,0,.17,5.8,2.83,2.83,0,0,0,5.56,0,12.26,12.26,0,0,0,.18-2.11c.06-2.77.1-5.55.14-8.32h7.77c0,1.54.08,3.09.14,4.64a36.24,36.24,0,0,0,.17,5.8,2.83,2.83,0,0,0,5.56,0,12.26,12.26,0,0,0,.18-2.11c.06-2.77.1-5.55.14-8.32h7.77c.05,1.22.11,2.44.13,3.67.05,2.13,0,4.26.13,6.38a2.84,2.84,0,0,0,5.67,0c.09-.9.1-1.8.12-2.7.06-2.45.1-4.9.15-7.35h7.76c0,1,.11,1.92.14,2.88.06,2.45,0,4.9.17,7.34a2.52,2.52,0,0,0,2.65,2.52,2.65,2.65,0,0,0,2.95-2.44,14.76,14.76,0,0,0,.14-2.11c.11-2.7-.21-5.4.18-8.1h7.7a23.22,23.22,0,0,1,.16,4.64c.08,1.87,0,3.75.19,5.61a2.55,2.55,0,0,0,2.78,2.41,2.65,2.65,0,0,0,2.8-2.41,13.57,13.57,0,0,0,.15-2.12c.11-2.71-.2-5.42.18-8.13,2.06,0,4.13,0,6.19,0,3.51.1,4.88,1.48,4.9,5,0,5.75,0,11.5,0,17.25C183.94,48.39,184,48.91,184,49.42Z"/><path class="cls-3" d="M130.19,111.35a58,58,0,0,1,10.83-7,50.12,50.12,0,0,1,13.45-3.22,45.4,45.4,0,0,1,17.84,2.43,57.28,57.28,0,0,1,11.63,6.65l5.38,5.34a45.93,45.93,0,0,1,8.84,17.89c4.71,19.34-6.66,40.84-25.31,47.82a43.07,43.07,0,0,1-29.53.39l-2.81-1.24A45.14,45.14,0,0,1,126,169.55a52.89,52.89,0,0,1-7.07-12,44.3,44.3,0,0,1-2.4-20.25c.38-1.91.76-3.83,1.15-5.74.75-2.05,1.43-4.13,2.28-6.14A43.41,43.41,0,0,1,130.19,111.35Zm27.54.46a42.72,42.72,0,0,0-4.81.38c-12.39,2.41-21,9.52-24.58,21.65-3.64,12.36-.34,23.25,9.25,31.92a28.64,28.64,0,0,0,20.88,7.5,24.16,24.16,0,0,0,4.8-.52c14.13-2.25,25.41-15.92,25-30.26C188.73,127.38,176.05,111.94,157.73,111.81Z"/><path class="cls-4" d="M126,169.55a45.14,45.14,0,0,0,14.55,10.89l2.81,1.24a84.82,84.82,0,0,1-27.8,10.84,94.16,94.16,0,0,1-64.59-9,91.85,91.85,0,0,1-18.39-12.85,10.62,10.62,0,0,1-.86-1l91.76,0C124.28,169.6,125.12,169.57,126,169.55Z"/><path class="cls-5" d="M27.79,156.72c0,2.4,0,4.79,0,7.18,0,.63.22,1.32-.38,1.82a92.8,92.8,0,0,1-10.83-13.38,3.57,3.57,0,0,1-.79-1.72q0-50.4,0-100.81l12,.1c0,2.77,0,5.53,0,8.3,0,.61-.21,1.3.37,1.81a6.28,6.28,0,0,0-.7,2c.12,5.66-.46,11.35.34,17v7.11a24.87,24.87,0,0,0-.4,3.25c.05,4.2,0,8.4,0,12.6a5.72,5.72,0,0,0,.76,3.14c-.85,2.3-.16,4.68-.37,7a11.7,11.7,0,0,0-.35,2.09c0,4.79,0,9.58,0,14.37a5,5,0,0,0,.79,2.55,11.57,11.57,0,0,0,0,6.62,4.47,4.47,0,0,0-.74,2C27.59,145.38,27,151.07,27.79,156.72Z"/><path class="cls-4" d="M96.81,25.5H89c0-1.81,0-3.63-.1-5.44-.12-2.32-1.21-3.57-3-3.57s-2.88,1.25-3,3.58c-.09,1.8-.07,3.62-.09,5.43H75.08c0-1.81,0-3.63-.1-5.44-.12-2.32-1.21-3.57-3-3.57s-2.88,1.25-3,3.58c-.09,1.8-.07,3.62-.1,5.43H61.12c0-1.81,0-3.63-.1-5.44-.12-2.32-1.21-3.57-3-3.57s-2.88,1.25-3,3.58c-.09,1.8-.07,3.62-.1,5.43H47.16c-.22-2.59.12-5.2-.39-7.77A98.31,98.31,0,0,1,74,6.77a96.38,96.38,0,0,1,34.4-1.61,94,94,0,0,1,32.22,10.4c.45.24,1,.39,1.21.91-2.18.47-2.9,1.31-3,3.69-.07,1.78-.06,3.56-.09,5.34h-7.77c0-1.81,0-3.63-.1-5.44-.12-2.32-1.21-3.57-3-3.57s-2.88,1.25-3,3.58c-.09,1.8-.07,3.62-.1,5.43H117c0-1.81,0-3.63-.1-5.44-.12-2.32-1.21-3.57-3-3.57s-2.87,1.25-3,3.58c-.1,1.8-.07,3.62-.1,5.43H103c0-1.81,0-3.63-.1-5.44-.12-2.32-1.21-3.57-3-3.57s-2.88,1.25-3,3.58C96.81,21.87,96.84,23.69,96.81,25.5Z"/><path class="cls-4" d="M15.78,49.81q0,50.41,0,100.81c-3.16-4.13-5.31-8.82-7.39-13.54a84.57,84.57,0,0,1-7.21-27.61C-.55,88,3.27,67.63,15,49.17a8.64,8.64,0,0,1,.72-.88c.09.4.17.8.26,1.2Z"/><path class="cls-6" d="M16,49.49c-.09-.4-.17-.8-.26-1.2,0-5.75.07-11.5.09-17.24,0-4.09,1.47-5.53,5.6-5.54H27a54.45,54.45,0,0,1,.15,6.76c.06,1.73-.21,3.5.69,5.11l0,12.24h0Z"/><path class="cls-4" d="M189.32,115.58l-5.38-5.34q0-21.19,0-42.39c0-1,0-1.94.06-2.91a72.65,72.65,0,0,1,5,16.87,92.18,92.18,0,0,1,1.59,21A106.57,106.57,0,0,1,189.32,115.58Z"/><path class="cls-7" d="M158.88,25.59c-.39,2.7-.07,5.4-.18,8.1a14.76,14.76,0,0,1-.14,2.11,2.65,2.65,0,0,1-2.95,2.44A2.52,2.52,0,0,1,153,35.72c-.14-2.44-.11-4.89-.17-7.34,0-1-.1-1.92-.14-2.88,0-.77,0-1.53,0-2.3.15-1.52-.18-3.08.38-4.58a2.78,2.78,0,0,1,2.67-2.1,2.71,2.71,0,0,1,2.79,2.17C159.19,21,158.61,23.3,158.88,25.59Z"/><path class="cls-7" d="M138.69,25.5c0-1.78,0-3.56.09-5.34.11-2.38.83-3.22,3-3.69a3.65,3.65,0,0,1,2.7,1.37c.53,2.53.17,5.11.4,7.66,0,2.45-.09,4.9-.15,7.35,0,.9,0,1.8-.12,2.7a2.84,2.84,0,0,1-5.67,0c-.15-2.12-.08-4.25-.13-6.38C138.8,27.94,138.74,26.72,138.69,25.5Z"/><path class="cls-7" d="M27.84,37.37c-.9-1.61-.63-3.38-.69-5.11A54.45,54.45,0,0,0,27,25.5c0-1.8-.06-3.61.05-5.4a3.54,3.54,0,0,1,2.24-3.5,2.6,2.6,0,0,1,2.94.91,4.65,4.65,0,0,1,.94,3.06c0,1.73,0,3.47,0,5.2,0,2.9-.07,5.8-.14,8.7C33,38,30.86,39.2,27.84,37.37Z"/><path class="cls-7" d="M172.84,25.59c-.38,2.71-.07,5.42-.18,8.13a13.57,13.57,0,0,1-.15,2.12,2.65,2.65,0,0,1-2.8,2.41,2.55,2.55,0,0,1-2.78-2.41c-.19-1.86-.11-3.74-.19-5.61a23.22,23.22,0,0,0-.16-4.64c0-2.06,0-4.13.21-6.17.19-1.65,1.09-2.94,3-2.9a2.48,2.48,0,0,1,2.58,2.15c.24,1.45.3,2.94.4,4.41C172.84,23.92,172.82,24.76,172.84,25.59Z"/><path class="cls-7" d="M46.77,17.73c.51,2.57.17,5.18.39,7.77,0,2.7-.09,5.4-.15,8.1a16.6,16.6,0,0,1-.13,2.11A2.65,2.65,0,0,1,44,38.24a2.55,2.55,0,0,1-2.75-2.62c-.15-3.28-.15-6.56-.2-9.84.37-1.36.08-2.75.18-4.12a17.69,17.69,0,0,0,.07-1.92,2.82,2.82,0,0,1,1.45-2.9,2.68,2.68,0,0,1,3.19.4A8.45,8.45,0,0,0,46.77,17.73Z"/><path class="cls-4" d="M144.89,25.5c-.23-2.55.13-5.13-.4-7.66,2.86,1.57,5.43,3.58,8.15,5.36,0,.77,0,1.53,0,2.3Z"/><path class="cls-4" d="M41.24,21.66c-.1,1.37.19,2.76-.18,4.12l-5.56,0C37.39,24.34,39.06,22.64,41.24,21.66Z"/><path class="cls-8" d="M28.15,105.1a5.72,5.72,0,0,1-.76-3.14c0-4.2.05-8.4,0-12.6a24.87,24.87,0,0,1,.4-3.25,5,5,0,0,1,3.1-.83c8.27,0,16.54,0,24.81,0,2.74,0,3.43.66,3.44,3.44,0,4.14,0,8.29,0,12.43,0,3.58,0,3.58-3.1,4.74a3.66,3.66,0,0,0-3.42,0c-.57-.61-1.32-.37-2-.38H30.58A4.1,4.1,0,0,1,28.15,105.1Z"/><path class="cls-8" d="M27.79,156.72c-.8-5.65-.2-11.34-.37-17a4.47,4.47,0,0,1,.74-2,3.7,3.7,0,0,1,2.24-.43H56.16c2.2,0,3,.68,3,2.83q.06,7.08,0,14.17c0,2.53-.76,3.22-3.27,3.22-8.39,0-16.78,0-25.17,0A4.78,4.78,0,0,1,27.79,156.72Z"/><path class="cls-9" d="M156.57,59.57c4.33,0,8.65.07,13,0,1.83,0,2.72.83,2.75,2.47q.12,7.67,0,15.32c0,1.68-1,2.5-2.79,2.5-8.64,0-17.29,0-25.94,0-2.06,0-2.84-.69-2.87-2.79-.07-5-.06-10,0-14.94,0-1.68.89-2.55,2.71-2.52C147.8,59.62,152.19,59.57,156.57,59.57Z"/><path class="cls-8" d="M91,80.2c-.57-.65-1.33-.36-2-.37-6.84,0-13.69,0-20.53,0-2.48,0-3.07-.6-3.07-3.09q0-7.19,0-14.36c0-2.4.34-2.77,2.63-2.77H94.16c2.1,0,2.61.51,2.63,2.64,0,4.33,0,8.67,0,13,0,3.69,0,3.69-3.1,5A3.56,3.56,0,0,0,91,80.2Z"/><path class="cls-8" d="M81.08,137.32h13c2.23,0,2.71.48,2.72,2.75q0,7.19,0,14.38c0,2.29-.75,3.08-3,3.08q-12.9,0-25.79,0c-2,0-2.63-.73-2.64-2.74,0-5,0-10,0-15,0-1.84.72-2.56,2.54-2.53C72.29,137.36,76.68,137.32,81.08,137.32Z"/><path class="cls-8" d="M118.71,59.59c4.39,0,8.78,0,13.18,0,1.79,0,2.59.64,2.56,2.5-.06,5,0,10,0,15,0,1.94-.73,2.76-2.64,2.77q-13.08.06-26.17,0a2.37,2.37,0,0,1-2.6-2.69q0-7.58,0-15.14c0-1.67.76-2.44,2.51-2.41C109.92,59.64,114.32,59.59,118.71,59.59Z"/><path class="cls-8" d="M118.61,105.52c-4.32,0-8.65,0-13,0-1.83,0-2.62-.73-2.62-2.5,0-5,0-10,0-15,0-2,.82-2.78,2.88-2.78q12.8,0,25.58,0c2.21,0,2.93.74,2.94,2.87q0,7.38,0,14.76c0,2.2-.39,2.57-2.64,2.58C127.4,105.53,123,105.52,118.61,105.52Z"/><path class="cls-8" d="M81.18,131.53H68.39c-2.47,0-3-.52-3-2.9,0-4.86,0-9.71,0-14.56,0-2.18.58-2.76,2.77-2.76q12.88,0,25.77,0c2.2,0,2.87.67,2.87,2.9q0,7.19,0,14.37c0,2.32-.64,2.94-3,2.95Z"/><path class="cls-9" d="M172.31,103.59a45.4,45.4,0,0,0-17.84-2.43A50.12,50.12,0,0,0,141,104.38a3.91,3.91,0,0,1-.34-1.88c0-4.59,0-9.18,0-13.77,0-2.79.66-3.43,3.42-3.43h24.95c2.55,0,3.28.66,3.29,3.17C172.38,93.51,172.33,98.55,172.31,103.59Z"/><path class="cls-8" d="M27.79,79c-.8-5.65-.22-11.34-.34-17a6.28,6.28,0,0,1,.7-2,7.33,7.33,0,0,1,3.54-.74c5.66,0,11.32,0,17-.05-2.11,2.68-4.25,5.34-6.34,8.05-.57.75-.95.87-1.56,0-1-1.3-2-2.56-3-3.79-1.45-1.72-3-2-4.33-.9s-1.48,2.9-.11,4.64c1.8,2.27,3.63,4.53,5.46,6.79s3.74,2.23,5.58,0q6-7.38,11.89-14.78c2.37.59,2.9,1.21,2.91,3.58,0,4.53,0,9.06,0,13.58,0,2.76-.7,3.42-3.46,3.42-8.26,0-16.53,0-24.79,0A5,5,0,0,1,27.79,79Z"/><path class="cls-8" d="M28.18,131.12a5,5,0,0,1-.79-2.55c0-4.79,0-9.58,0-14.37a11.7,11.7,0,0,1,.35-2.09,3.43,3.43,0,0,1,2.09-.82c6,0,12.09.06,18.13.08-1.9,2.45-3.82,4.88-5.69,7.35-.64.84-1.06.65-1.6-.07-.93-1.24-1.89-2.46-2.89-3.64-1.51-1.77-3.13-2.06-4.52-.88s-1.33,2.78,0,4.51c1.68,2.21,3.44,4.36,5.17,6.54,2.18,2.75,4,2.72,6.22-.06Q50.35,118,56.05,110.9c3.1,1.23,3.1,1.23,3.1,4.94v12c0,3.12-.53,3.66-3.53,3.66h-25A4.11,4.11,0,0,1,28.18,131.12Z"/><path class="cls-8" d="M94.44,84.86c2.12.88,2.48,2.54,2.4,4.68-.15,4.33,0,8.67,0,13,0,2.55-.41,3-2.9,3q-12.89,0-25.78,0c-2.38,0-2.73-.35-2.73-2.68,0-4.92,0-9.84,0-14.76,0-2,.7-2.77,2.61-2.77,6.14,0,12.28,0,18.41,0-2,2.54-4,5.06-6,7.63-.75,1-1.24.76-1.88-.09-1-1.29-2-2.56-3-3.78a3,3,0,0,0-4.14-.62A2.88,2.88,0,0,0,71,92.65c2,2.67,4.11,5.31,6.3,7.86,1.39,1.61,3,1.54,4.53,0a14.78,14.78,0,0,0,1.26-1.47Z"/><path class="cls-8" d="M130.19,111.35a43.41,43.41,0,0,0-10.27,14.07c-.85,2-1.53,4.09-2.28,6.14l-11.6,0c-2.38,0-3-.62-3-2.94,0-4.84,0-9.69,0-14.53,0-2,.7-2.74,2.62-2.75Q117.93,111.31,130.19,111.35Z"/><path class="cls-8" d="M116.49,137.3a44.3,44.3,0,0,0,2.4,20.25c-4.25,0-8.5,0-12.75,0-2.43,0-3.12-.71-3.12-3.08,0-4.78,0-9.55,0-14.33,0-2.37.47-2.8,2.84-2.81C109.4,137.3,112.94,137.31,116.49,137.3Z"/><path class="cls-10" d="M94.44,84.86,83.07,99.07a14.78,14.78,0,0,1-1.26,1.47c-1.51,1.51-3.14,1.58-4.53,0C75.09,98,73,95.32,71,92.65a2.88,2.88,0,0,1,.43-4.15,3,3,0,0,1,4.14.62c1.06,1.22,2,2.49,3,3.78.64.85,1.13,1.09,1.88.09,2-2.57,4-5.09,6-7.63C88.11,83.8,89.1,81.6,91,80.2a3.56,3.56,0,0,1,2.72,0C95.52,81.83,95.64,82.58,94.44,84.86Z"/><path class="cls-10" d="M56.05,110.9Q50.36,118,44.68,125.12c-2.22,2.78-4,2.81-6.22.06-1.73-2.18-3.49-4.33-5.17-6.54-1.32-1.73-1.27-3.43,0-4.51s3-.89,4.52.88c1,1.18,2,2.4,2.89,3.64.54.72,1,.91,1.6.07,1.87-2.47,3.79-4.9,5.69-7.35l4.63-5.46a3.66,3.66,0,0,1,3.42,0C57.65,108,57.65,108.55,56.05,110.9Z"/><path class="cls-10" d="M56.24,59.24Q50.3,66.64,44.35,74c-1.84,2.27-3.76,2.28-5.58,0s-3.66-4.52-5.46-6.79c-1.37-1.74-1.31-3.47.11-4.64s2.88-.82,4.33.9c1,1.23,2.07,2.49,3,3.79.61.83,1,.71,1.56,0,2.09-2.71,4.23-5.37,6.34-8.05l2.69-3.3c1.64-2,3.06-2.45,4.57-1.43S57.57,57,56.24,59.24Z"/><path class="cls-2" d="M16,49.49l11.91.11a.5.5,0,0,1-.1.31l-12-.1Z"/><path class="cls-7" d="M68.88,25.5c0-1.81,0-3.63.1-5.43.12-2.33,1.21-3.58,3-3.58s2.88,1.25,3,3.57c.09,1.81.07,3.63.1,5.44,0,2.77-.09,5.55-.15,8.32a11.34,11.34,0,0,1-.17,2.11,2.83,2.83,0,0,1-5.56,0,36.24,36.24,0,0,1-.17-5.8C69,28.59,68.93,27,68.88,25.5Z"/><path class="cls-7" d="M54.92,25.5c0-1.81,0-3.63.1-5.43.12-2.33,1.21-3.58,3-3.58s2.88,1.25,3,3.57c.09,1.81.07,3.63.1,5.44,0,2.77-.09,5.55-.15,8.32a11.34,11.34,0,0,1-.17,2.11,2.83,2.83,0,0,1-5.57,0,37.45,37.45,0,0,1-.17-5.8C55,28.59,55,27,54.92,25.5Z"/><path class="cls-7" d="M82.85,25.5c0-1.81,0-3.63.09-5.43.12-2.33,1.21-3.58,3-3.58s2.88,1.25,3,3.57c.09,1.81.07,3.63.1,5.44-.05,2.77-.08,5.55-.14,8.32a12.26,12.26,0,0,1-.18,2.11,2.83,2.83,0,0,1-5.56,0,36.24,36.24,0,0,1-.17-5.8C82.93,28.59,82.89,27,82.85,25.5Z"/><path class="cls-7" d="M96.81,25.5c0-1.81,0-3.63.1-5.43.11-2.33,1.2-3.58,3-3.58s2.88,1.25,3,3.57c.09,1.81.07,3.63.1,5.44,0,2.77-.08,5.55-.14,8.32a12.26,12.26,0,0,1-.18,2.11,2.83,2.83,0,0,1-5.56,0,36.24,36.24,0,0,1-.17-5.8C96.89,28.59,96.85,27,96.81,25.5Z"/><path class="cls-7" d="M110.77,25.5c0-1.81,0-3.63.1-5.43.12-2.33,1.2-3.58,3-3.58s2.88,1.25,3,3.57c.1,1.81.07,3.63.1,5.44,0,2.77-.08,5.55-.14,8.32a12.26,12.26,0,0,1-.18,2.11,2.83,2.83,0,0,1-5.56,0,36.24,36.24,0,0,1-.17-5.8C110.85,28.59,110.81,27,110.77,25.5Z"/><path class="cls-7" d="M124.73,25.5c0-1.81,0-3.63.1-5.43.12-2.33,1.21-3.58,3-3.58s2.87,1.25,3,3.57c.1,1.81.07,3.63.1,5.44,0,2.77-.08,5.55-.14,8.32a12.26,12.26,0,0,1-.18,2.11,2.83,2.83,0,0,1-5.56,0,36.24,36.24,0,0,1-.17-5.8C124.81,28.59,124.77,27,124.73,25.5Z"/><path class="cls-11" d="M188.25,142.48c.43,14.34-10.85,28-25,30.26a24.16,24.16,0,0,1-4.8.52c-.17-.17-.32-.46-.52-.5a30.8,30.8,0,0,1-15.18-7.54c-.72-.62-1.62-1.11-1.76-2.2a12.1,12.1,0,0,0,3.42-3.07,2.7,2.7,0,0,0-.12-4,2.76,2.76,0,0,0-4-.06,33.3,33.3,0,0,0-2.48,2.42,1.19,1.19,0,0,1-1.06-.71c-2-3.78-3.61-7.66-3.52-12.05,1,0,1.92,0,2.87-.1a2.75,2.75,0,0,0,2.63-3,2.69,2.69,0,0,0-2.63-2.78c-.94-.12-1.91-.07-2.87-.1a21.21,21.21,0,0,1,2.6-10.14c.49-1,.54-2.35,2-2.62a31.41,31.41,0,0,0,2.64,2.53,2.7,2.7,0,0,0,3.83-.18,2.63,2.63,0,0,0,.22-3.82,12,12,0,0,0-3.52-3.22c.06-1,.83-1.43,1.44-2,4.43-3.82,9.34-6.69,15.18-7.73,0,1.8,0,3.61.05,5.41a3.24,3.24,0,0,0-2.93,3.46c0,4.94.06,9.88.09,14.83-.43.37-.86.77-1.3,1.13a6.42,6.42,0,0,0-2.29,7.09,6.32,6.32,0,0,0,5.63,4.88c3.19.42,5.37-1.27,7-3.81,3.21,0,6.42,0,9.63,0,2.56,0,3.14-.47,4-3Zm-27.62,23.35a11.22,11.22,0,0,0,0-1.16c-.21-2-1.33-3.2-2.94-3.2s-2.74,1.21-3,3.17c0,.39,0,.78,0,1.16,0,3,1,4.55,3,4.56S160.67,168.85,160.63,165.83Zm17.53-5.63c-.08-1.89-3.27-5-5.07-5a2.79,2.79,0,0,0-2.54,4.17,9.9,9.9,0,0,0,3.19,3.28,2.67,2.67,0,0,0,2.92,0A3,3,0,0,0,178.16,160.2Z"/><path class="cls-12" d="M157.68,117.89c0-1.8,0-3.61-.05-5.41,0-.22.07-.45.1-.67,18.32.13,31,15.57,30.52,30.67H177.49c-.55-2.18-2-2.92-4.15-2.84-3.14.12-6.29,0-9.44.07a15.7,15.7,0,0,0-3.4-3.55c0-4.86,0-9.71.06-14.57C160.59,119.52,159.71,118.3,157.68,117.89Z"/><path class="cls-1" d="M157.73,111.81c0,.22-.06.45-.1.67-5.84,1-10.75,3.91-15.18,7.73-.61.53-1.38,1-1.44,2-3.37,0-4.48,1.67-3.17,4.69-1.44.27-1.49,1.66-2,2.62a21.21,21.21,0,0,0-2.6,10.14c-1.79.15-3.1.86-3.19,2.88-.08,1.79.88,2.69,3.19,3.07-.09,4.39,1.53,8.27,3.52,12.05a1.19,1.19,0,0,0,1.06.71c-1.29,3-.19,4.66,3.17,4.69.14,1.09,1,1.58,1.76,2.2A30.8,30.8,0,0,0,158,172.76c.2,0,.35.33.52.5a28.64,28.64,0,0,1-20.88-7.5c-9.59-8.67-12.89-19.56-9.25-31.92,3.58-12.13,12.19-19.24,24.58-21.65A42.72,42.72,0,0,1,157.73,111.81Z"/><path class="cls-1" d="M52.63,105.91,48,111.37c-6,0-12.09,0-18.13-.08a3.43,3.43,0,0,0-2.09.82c.21-2.33-.48-4.71.37-7a4.1,4.1,0,0,0,2.43.42H50.63C51.31,105.54,52.06,105.3,52.63,105.91Z"/><path class="cls-13" d="M160.5,136.17a15.7,15.7,0,0,1,3.4,3.55,10.69,10.69,0,0,1,0,5.75c-1.65,2.54-3.83,4.23-7,3.81a6.32,6.32,0,0,1-5.63-4.88,6.42,6.42,0,0,1,2.29-7.09c.44-.36.87-.76,1.3-1.13A12.44,12.44,0,0,1,160.5,136.17Z"/><path class="cls-14" d="M160.5,136.17a12.44,12.44,0,0,0-5.66,0c0-5-.08-9.89-.09-14.83a3.24,3.24,0,0,1,2.93-3.46c2,.41,2.91,1.63,2.88,3.71C160.49,126.46,160.51,131.31,160.5,136.17Z"/><path class="cls-14" d="M163.9,145.47a10.69,10.69,0,0,0,0-5.75c3.15,0,6.3.05,9.44-.07,2.16-.08,3.6.66,4.15,2.84-.82,2.54-1.4,3-4,3C170.32,145.51,167.11,145.48,163.9,145.47Z"/><path class="cls-15" d="M160.63,165.83c0,3-1,4.54-3,4.53s-3-1.55-3-4.56c0-.38,0-.77,0-1.16.23-2,1.38-3.18,3-3.17s2.73,1.21,2.94,3.2A11.22,11.22,0,0,1,160.63,165.83Z"/><path class="cls-15" d="M137.84,126.86c-1.31-3-.2-4.66,3.17-4.69a12,12,0,0,1,3.52,3.22,2.63,2.63,0,0,1-.22,3.82,2.7,2.7,0,0,1-3.83.18A31.41,31.41,0,0,1,137.84,126.86Z"/><path class="cls-15" d="M141,163c-3.36,0-4.46-1.66-3.17-4.69a33.3,33.3,0,0,1,2.48-2.42,2.76,2.76,0,0,1,4,.06,2.7,2.7,0,0,1,.12,4A12.1,12.1,0,0,1,141,163Z"/><path class="cls-15" d="M178.16,160.2a3,3,0,0,1-1.5,2.46,2.67,2.67,0,0,1-2.92,0,9.9,9.9,0,0,1-3.19-3.28,2.79,2.79,0,0,1,2.54-4.17C174.89,155.19,178.08,158.31,178.16,160.2Z"/><path class="cls-15" d="M133.26,145.57c-2.31-.38-3.27-1.28-3.19-3.07.09-2,1.4-2.73,3.19-2.88,1,0,1.93,0,2.87.1a2.69,2.69,0,0,1,2.63,2.78,2.75,2.75,0,0,1-2.63,3C135.18,145.58,134.22,145.54,133.26,145.57Z"/></svg>