<svg id="Capa_1" data-name="Capa 1" xmlns="http://www.w3.org/2000/svg" viewBox="0 0 200 200"><defs><style>.cls-1{fill:#056766;}.cls-2{fill:#48b592;}.cls-3{fill:#fdfdfd;}</style></defs><path class="cls-1" d="M.05,172.19V28c.13-.13.31-.24.38-.39,2.11-5.25,5.2-7.35,10.86-7.36s11.43,0,17.14,0c1.27,0,1.66-.32,1.62-1.61C30,15.83,30,13,30,10.11c.16-5.93,4-9.72,9.85-9.76s9.86,3.82,10,9.82c.08,2.72.15,5.46,0,8.18-.11,1.71.5,1.95,2,1.95,12.86-.07,25.72,0,38.58,0,19,0,38.05,0,57.08,0,1.59,0,2.27-.21,2.15-2a79,79,0,0,1,0-8.57C150,4,154.08.27,159.83.35s9.55,3.81,9.74,9.47c.09,3,.07,6.1,0,9.15,0,1,.29,1.34,1.31,1.31,2.53-.06,5.06,0,7.6,0,6.48,0,11.05,4.52,11.06,11q0,22.61,0,45.2c0,.45.28,1-.32,1.37C157.5,53.29,120.54,56.61,95.12,74,78,85.69,66.83,101.77,62,122s-1.4,39.58,8.69,57.73a3.4,3.4,0,0,1-.41.17c-20.07,0-40.14.06-60.2,0A9.89,9.89,0,0,1,1,174.22C.66,173.56.76,172.68.05,172.19Z"/><path class="cls-2" d="M133.32,199.86c-.58-.77-1.5-.6-2.27-.72a58.19,58.19,0,0,1-37.25-21A57.58,57.58,0,0,1,80.24,134,59.17,59.17,0,0,1,126,81.89c19.81-4.73,37.68,0,53.13,13.27a56.91,56.91,0,0,1,19.08,32.43c3.5,17,.24,32.87-9.88,47.1a58.9,58.9,0,0,1-30,22.13A60.45,60.45,0,0,1,146,199.49c-.35,0-.8-.16-1,.37Zm-3.5-75c0,5.33-.11,10.65,0,16,.12,5,3.61,8.86,8.64,9,7.46.25,14.94.27,22.39,0,5.46-.2,8.83-4.47,8.71-10.19-.12-5.53-3.75-9.33-9.22-9.54-2.85-.1-5.72-.18-8.56,0-1.89.12-2.18-.58-2.16-2.25.1-5.78,0-11.56,0-17.34a10.6,10.6,0,0,0-2-6.76c-2.46-3.22-7.13-4.48-11.47-3.12a9,9,0,0,0-6.37,8.62C129.73,114.45,129.82,119.65,129.82,124.84Z"/><path class="cls-3" d="M129.82,124.84c0-5.19-.09-10.39,0-15.58a9,9,0,0,1,6.37-8.62c4.34-1.36,9-.1,11.47,3.12a10.6,10.6,0,0,1,2,6.76c0,5.78.06,11.56,0,17.34,0,1.67.27,2.37,2.16,2.25,2.84-.18,5.71-.1,8.56,0,5.47.21,9.1,4,9.22,9.54.12,5.72-3.25,10-8.71,10.19-7.45.27-14.93.25-22.39,0-5-.17-8.52-4-8.64-9C129.71,135.49,129.82,130.17,129.82,124.84Z"/></svg>