<svg id="Capa_1" data-name="Capa 1" xmlns="http://www.w3.org/2000/svg" viewBox="0 0 200 200"><defs><style>.cls-1{fill:#eef3f6;}.cls-2{fill:#474545;}.cls-3{fill:#eef2f5;}.cls-4{fill:#fefefe;}.cls-5{fill:#f3608a;}.cls-6{fill:#7fd0ec;}.cls-7{fill:#4cb2d6;}.cls-8{fill:#f3628b;}.cls-9{fill:#4ab2d5;}.cls-10{fill:#4b494a;}.cls-11{fill:#2e292a;}.cls-12{fill:#828181;}.cls-13{fill:#fefdfd;}.cls-14{fill:#7b7979;}</style></defs><path class="cls-1" d="M199.53,51.53V151.67l-.53.6c-.09-.38-.21-.74-.27-1.12a42,42,0,0,0-11-22.85c-10.8-11.69-28.56-16.05-43.59-10.9-17.34,5.93-29.72,23.15-28.1,42.46,1.29,15.47,9,26.75,22.57,34.14,4,2.18,8.39,3.24,12.8,4.21-.75.77-1.71.41-2.57.41q-74.19,0-148.38,0V51.14l2.52,0h193.6c.84,0,1.68,0,2.52,0ZM74.14,166.44c-2.46,0-4.92.1-7.37,0-1.7-.09-2.36.33-2.31,2.2.14,5,.12,9.95,0,14.93,0,1.69.32,2.36,2.2,2.31,5-.14,9.95-.11,14.92,0,1.7,0,2.37-.33,2.31-2.21-.14-5-.11-9.95,0-14.93,0-1.7-.33-2.43-2.21-2.3C79.18,166.57,76.66,166.44,74.14,166.44Zm-25.36,0c-2.78,0-5.55,0-8.33,0-1.16,0-1.59.33-1.58,1.54q.08,8.14,0,16.28c0,1.16.33,1.59,1.54,1.58,5.42,0,10.85,0,16.28,0,1.15,0,1.59-.33,1.58-1.54q-.08-8.15,0-16.28c0-1.16-.34-1.61-1.54-1.58C54.08,166.49,51.43,166.44,48.78,166.44Zm60.7-15.94c0-2.71,0-5.42,0-8.14,0-1.16-.33-1.58-1.54-1.57-5.42.05-10.85,0-16.27,0-1.16,0-1.59.32-1.58,1.53,0,5.43,0,10.86,0,16.29,0,1.15.33,1.59,1.54,1.58q8.13-.08,16.27,0c1.16,0,1.62-.34,1.59-1.55C109.44,155.93,109.48,153.22,109.48,150.5ZM100,115.18c-2.65,0-5.3.11-7.94,0-1.62-.08-1.92.53-1.9,2,.08,5.1.09,10.2,0,15.31,0,1.54.31,2.13,2,2.1,5.16-.11,10.33-.08,15.49,0,1.39,0,1.93-.28,1.9-1.81-.09-5.23-.08-10.46,0-15.69,0-1.39-.29-2-1.8-1.88C105.12,115.27,102.53,115.18,100,115.18Zm-61,9.71c0,2.71,0,5.43,0,8.13,0,1,.26,1.51,1.4,1.5,5.49-.05,11,0,16.45,0,1.05,0,1.51-.34,1.5-1.45q0-8.22,0-16.45c0-1.09-.35-1.46-1.45-1.45-5.48,0-11,.06-16.45,0-1.27,0-1.48.51-1.46,1.6C38.94,119.47,38.9,122.18,38.9,124.89ZM13.28,150.35c0,2.77,0,5.55,0,8.32,0,1.06.27,1.49,1.4,1.48,5.49,0,11,0,16.45,0,1.07,0,1.5-.36,1.5-1.46,0-5.49,0-11,0-16.46,0-1.09-.36-1.44-1.45-1.43-5.48,0-11,0-16.45,0-1.29,0-1.47.54-1.45,1.62C13.31,145.05,13.28,147.7,13.28,150.35Zm25.62,0c0,2.71.05,5.42,0,8.13,0,1.2.25,1.72,1.58,1.7,5.36-.07,10.71,0,16.07,0,1.22,0,1.72-.33,1.71-1.63-.05-5.42,0-10.84,0-16.26,0-1.08-.32-1.47-1.43-1.46-5.49,0-11,0-16.45,0-1.26,0-1.5.49-1.48,1.6C38.94,145,38.9,147.68,38.9,150.33Zm35.2,9.84c2.65,0,5.29,0,7.94,0,1.28,0,1.86-.35,1.85-1.75-.06-5.36,0-10.71,0-16.07,0-1.15-.32-1.59-1.54-1.58-5.41.05-10.83,0-16.25,0-1.11,0-1.62.26-1.61,1.5.05,5.49,0,11,0,16.46,0,1.11.42,1.45,1.48,1.43C68.68,160.13,71.39,160.17,74.1,160.17ZM23,166.44c-2.71,0-5.42,0-8.13,0-1.09,0-1.64.22-1.63,1.48.06,5.49.05,11,0,16.46,0,1.09.37,1.47,1.45,1.46,5.42,0,10.84,0,16.26,0,1.28,0,1.68-.5,1.68-1.72,0-5.36-.06-10.72,0-16.07,0-1.33-.51-1.64-1.72-1.61C28.3,166.49,25.65,166.44,23,166.44ZM125.6,89.56c-2.78,0-5.56,0-8.34,0-1,0-1.53.18-1.51,1.37,0,5.49,0,11,0,16.49,0,1.11.44,1.47,1.49,1.46q8.25,0,16.49,0c1,0,1.38-.27,1.38-1.32q-.06-8.34,0-16.68c0-1-.38-1.34-1.36-1.32C131,89.59,128.32,89.56,125.6,89.56ZM13.28,99.11c0,2.72,0,5.44,0,8.15,0,1.11.21,1.64,1.47,1.62,5.43,0,10.86,0,16.29,0,1.16,0,1.6-.37,1.59-1.57q-.06-8.14,0-16.29c0-1.07-.3-1.48-1.43-1.47q-8.23.08-16.48,0c-1.08,0-1.47.31-1.44,1.43C13.32,93.68,13.28,96.4,13.28,99.11Zm35.34,9.75c2.71,0,5.43,0,8.14,0,1.08,0,1.48-.39,1.48-1.48q-.06-8.25,0-16.5c0-1-.33-1.35-1.34-1.34q-8.34,0-16.68,0c-1,0-1.34.34-1.34,1.35,0,5.49,0,11,0,16.49,0,1.25.48,1.52,1.6,1.5C43.19,108.82,45.9,108.86,48.62,108.86ZM74.2,89.56c-2.72,0-5.44,0-8.15,0-1.17,0-1.57.32-1.55,1.53q.07,8.15,0,16.3c0,1.23.45,1.52,1.59,1.51,5.36,0,10.73,0,16.09,0,1.25,0,1.7-.39,1.69-1.67-.06-5.37-.05-10.74,0-16.11,0-1.16-.31-1.6-1.53-1.56C79.63,89.61,76.91,89.56,74.2,89.56Zm-9.68,35.19c0,2.78,0,5.55,0,8.33,0,1.11.38,1.44,1.46,1.43q8.13,0,16.26,0c1.08,0,1.66-.24,1.65-1.5q-.08-8.22,0-16.45c0-1.16-.46-1.4-1.5-1.39-5.48,0-11,0-16.45,0-1.12,0-1.44.39-1.42,1.46C64.56,119.33,64.52,122,64.52,124.75Zm96.19-25.68c0-2.65,0-5.3,0-7.95,0-1.13-.24-1.6-1.49-1.59-5.43.07-10.86.06-16.29,0-1.14,0-1.59.28-1.58,1.51q.07,8.06,0,16.1c0,1.23.33,1.74,1.63,1.73,5.43,0,10.87,0,16.3,0,1.1,0,1.46-.37,1.43-1.46C160.67,104.64,160.71,101.86,160.71,99.07Zm16.12-9.51c-2.72,0-5.43.06-8.15,0-1.22,0-1.7.28-1.69,1.6.07,5.37.06,10.73,0,16.1,0,1.32.52,1.65,1.73,1.64q8.06-.07,16.1,0c1.18,0,1.55-.37,1.54-1.55-.05-5.44-.06-10.87,0-16.3,0-1.25-.45-1.52-1.58-1.49C182.13,89.61,179.48,89.56,176.83,89.56ZM22.92,115.18c-2.78,0-5.55,0-8.32,0-1,0-1.35.31-1.34,1.32,0,5.55,0,11.1,0,16.65,0,1,.3,1.38,1.32,1.37q8.33,0,16.64,0c1,0,1.38-.38,1.38-1.38,0-5.55,0-11.1,0-16.65,0-1-.39-1.33-1.37-1.31C28.46,115.21,25.69,115.18,22.92,115.18Zm77-25.62c-2.78,0-5.55,0-8.33,0-1.1,0-1.45.34-1.45,1.44q.07,8.14,0,16.29c0,1.15.35,1.61,1.55,1.61q8.13-.06,16.28,0c1.19,0,1.55-.46,1.54-1.61q-.08-8.14,0-16.29c0-1.1-.35-1.46-1.45-1.44C105.33,89.6,102.62,89.56,99.9,89.56Zm15.87-16.27c0,2.77,0,5.55,0,8.33,0,1.08.35,1.47,1.45,1.46q8.24-.06,16.46,0c1.1,0,1.45-.37,1.45-1.46,0-5.42-.05-10.85,0-16.27,0-1.1-.35-1.45-1.44-1.44q-8.23.06-16.46,0c-1.08,0-1.49.32-1.46,1.43C115.81,68,115.77,70.64,115.77,73.29Zm60.68,9.78c2.71,0,5.43-.06,8.13,0,1.32,0,1.8-.32,1.78-1.71q-.11-7.95,0-15.89c0-1.33-.48-1.6-1.68-1.58-5.36.05-10.72.06-16.07,0-1.33,0-1.62.47-1.61,1.69.05,5.23.07,10.46,0,15.69,0,1.51.52,1.87,1.91,1.81C171.41,83,173.93,83.07,176.45,83.07Zm-76.69,0c2.71,0,5.42,0,8.13,0,1.13,0,1.61-.28,1.6-1.51q-.08-8.13,0-16.27c0-1.17-.47-1.39-1.5-1.39-5.42,0-10.85.06-16.27,0-1.33,0-1.61.48-1.6,1.69.06,5.23.08,10.46,0,15.69,0,1.51.51,1.87,1.9,1.81C94.59,83,97.18,83.07,99.76,83.07Zm51.38-19.14c-2.77,0-5.55,0-8.32,0-1.11,0-1.45.37-1.44,1.45q.06,8.15,0,16.28c0,1.1.39,1.45,1.47,1.44,5.49,0,11,0,16.46,0,1.12,0,1.42-.42,1.42-1.48,0-5.42,0-10.85,0-16.27,0-1.12-.38-1.44-1.46-1.42C156.56,64,153.85,63.93,151.14,63.93ZM51.72,73.65c0-3.38,0-3.38-3.11-3.38-3.27,0-3.27,0-3.27,3.25s0,3.23,3.23,3.23S51.72,76.75,51.72,73.65Zm-25.62,0c0-3.41,0-3.41-3.46-3.41-2.94,0-2.94,0-2.94,3,0,3.47,0,3.47,3.39,3.47C26.1,76.75,26.1,76.75,26.1,73.69Zm48.24,3.06c3,0,3,0,3-3v-.39c0-3,0-3-3.07-3-3.3,0-3.3,0-3.3,3.19S71,76.75,74.34,76.75ZM99.76,179.28c3.21,0,3.21,0,3.21-3.22s0-3.11-3.12-3.11-3.21,0-3.21,3.22S96.64,179.28,99.76,179.28Z"/><path class="cls-2" d="M199.11,51.07c-.84,0-1.68,0-2.52,0H3l-2.52,0V18.92l19.3,0,.58.08a10,10,0,0,0,5.25,0l.47,0a31,31,0,0,0,6.53-.13c0,3.69,0,7.37.1,11.05.06,1.63-.57,1.95-2,1.92-4.53-.07-9,0-13.58,0-3.82,0-3.83,0-3.82,3.73,0,3.2-.31,2.85,3,2.85H182c4.33,0,4.26,0,4.34-4.42,0-1.65-.34-2.43-2.13-2.2-1,.13-1.94,0-2.9,0-1.14.07-1.63-.31-1.61-1.53.08-3.81.07-7.63.1-11.44a4.67,4.67,0,0,0,2.1.21c5.23,0,10.46,0,15.69,0,1.16,0,1.55.25,1.55,1.48C199.11,30.66,199.12,40.87,199.11,51.07Z"/><path class="cls-3" d="M199.53,162.15v36.49q-17,0-33.9,0c-.74,0-1.57.29-2.2-.4a3.92,3.92,0,0,1,.71-.29c12.36-2.09,21.85-8.52,28.64-19,3.43-5.31,5.17-11.22,6.21-17.38Z"/><path class="cls-4" d="M199.53,198.64c.29,1.32-.22,1.59-1.55,1.59"/><path class="cls-4" d="M2,200.23c-1.33,0-1.84-.27-1.55-1.59q74.19,0,148.38,0c.86,0,1.82.36,2.57-.41l.77.08c.23.34.48.37.76.06a51.92,51.92,0,0,0,9.33,0c.14.17.27.15.38,0l.77-.08c.63.69,1.46.4,2.2.4"/><path class="cls-4" d="M199.53,162.15l-.54-.61a89.57,89.57,0,0,0,0-9.27l.53-.6Z"/><path class="cls-5" d="M199,152.27a89.57,89.57,0,0,1,0,9.27c-1,6.16-2.78,12.07-6.21,17.38-6.79,10.49-16.28,16.92-28.64,19a3.92,3.92,0,0,0-.71.29l-.77.08-.38,0a51.92,51.92,0,0,1-9.33,0l-.76-.06-.77-.08c-4.41-1-8.79-2-12.8-4.21-13.56-7.39-21.28-18.67-22.57-34.14-1.62-19.31,10.76-36.53,28.1-42.46,15-5.15,32.79-.79,43.59,10.9a42,42,0,0,1,11,22.85C198.79,151.53,198.91,151.89,199,152.27Zm-20.21-2.72a7.74,7.74,0,0,0-.6-.79c-.72-.75-1.53-1.41-2.17-2.22-1.05-1.32-1.8-1.41-3.09-.08-5.72,5.89-11.6,11.62-17.35,17.48-1,1.05-1.63,1-2.61,0-1.88-2-3.9-4-5.86-5.93-3.52-3.51-3.49-3.49-6.93.1-.73.76-.84,1.21,0,2q6.63,6.53,13.16,13.17c.78.79,1.19.76,2,0q11.28-11.35,22.61-22.65C178.19,150.29,178.46,149.93,178.79,149.55Z"/><path class="cls-6" d="M74.14,166.44c2.52,0,5,.13,7.55,0,1.88-.13,2.25.6,2.21,2.3-.1,5-.13,10,0,14.93.06,1.88-.61,2.24-2.31,2.21-5-.1-9.95-.13-14.92,0-1.88.05-2.24-.62-2.2-2.31.1-5,.12-10,0-14.93,0-1.87.61-2.29,2.31-2.2C69.22,166.54,71.68,166.44,74.14,166.44Z"/><path class="cls-6" d="M48.78,166.44c2.65,0,5.3.05,7.95,0,1.2,0,1.55.42,1.54,1.58q-.08,8.15,0,16.28c0,1.21-.43,1.55-1.58,1.54-5.43,0-10.86,0-16.28,0-1.21,0-1.55-.42-1.54-1.58q.08-8.13,0-16.28c0-1.21.42-1.57,1.58-1.54C43.23,166.48,46,166.44,48.78,166.44Z"/><path class="cls-6" d="M109.48,150.5c0,2.72,0,5.43,0,8.14,0,1.21-.43,1.56-1.59,1.55q-8.13-.08-16.27,0c-1.21,0-1.55-.43-1.54-1.58,0-5.43,0-10.86,0-16.29,0-1.21.42-1.54,1.58-1.53,5.42,0,10.85.05,16.27,0,1.21,0,1.57.41,1.54,1.57C109.44,145.08,109.48,147.79,109.48,150.5Z"/><path class="cls-7" d="M100,115.18c2.58,0,5.17.09,7.75,0,1.51-.08,1.82.49,1.8,1.88-.08,5.23-.09,10.46,0,15.69,0,1.53-.51,1.83-1.9,1.81-5.16-.07-10.33-.1-15.49,0-1.69,0-2-.56-2-2.1.09-5.11.08-10.21,0-15.31,0-1.46.28-2.07,1.9-2C94.65,115.29,97.3,115.18,100,115.18Z"/><path class="cls-8" d="M38.9,124.89c0-2.71,0-5.42,0-8.13,0-1.09.19-1.62,1.46-1.6,5.49.06,11,0,16.45,0,1.1,0,1.46.36,1.45,1.45q-.06,8.22,0,16.45c0,1.11-.45,1.45-1.5,1.45-5.48,0-11,0-16.45,0-1.14,0-1.42-.45-1.4-1.5C38.94,130.32,38.9,127.6,38.9,124.89Z"/><path class="cls-7" d="M13.28,150.35c0-2.65,0-5.3,0-7.94,0-1.08.16-1.64,1.45-1.62,5.48.06,11,.05,16.45,0,1.09,0,1.46.34,1.45,1.43,0,5.49,0,11,0,16.46,0,1.1-.43,1.46-1.5,1.46-5.48,0-11,0-16.45,0-1.13,0-1.42-.42-1.4-1.48C13.31,155.9,13.28,153.12,13.28,150.35Z"/><path class="cls-7" d="M38.9,150.33c0-2.65,0-5.3,0-7.94,0-1.11.22-1.61,1.48-1.6,5.48.06,11,.05,16.45,0,1.11,0,1.43.38,1.43,1.46,0,5.42-.05,10.84,0,16.26,0,1.3-.49,1.64-1.71,1.63-5.36,0-10.71-.06-16.07,0-1.33,0-1.62-.5-1.58-1.7C39,155.75,38.9,153,38.9,150.33Z"/><path class="cls-6" d="M74.1,160.17c-2.71,0-5.42,0-8.13,0-1.06,0-1.48-.32-1.48-1.43,0-5.49.05-11,0-16.46,0-1.24.5-1.51,1.61-1.5,5.42,0,10.84.05,16.25,0,1.22,0,1.55.43,1.54,1.58,0,5.36-.06,10.71,0,16.07,0,1.4-.57,1.77-1.85,1.75C79.39,160.12,76.75,160.17,74.1,160.17Z"/><path class="cls-6" d="M23,166.44c2.64,0,5.29.05,7.93,0,1.21,0,1.73.28,1.72,1.61-.07,5.35,0,10.71,0,16.07,0,1.22-.4,1.73-1.68,1.72-5.42,0-10.84,0-16.26,0-1.08,0-1.46-.37-1.45-1.46,0-5.48.05-11,0-16.46,0-1.26.54-1.5,1.63-1.48C17.59,166.48,20.3,166.44,23,166.44Z"/><path class="cls-7" d="M125.6,89.56c2.72,0,5.43,0,8.15,0,1,0,1.37.28,1.36,1.32q-.06,8.34,0,16.68c0,1-.41,1.33-1.38,1.32q-8.25,0-16.49,0c-1,0-1.5-.35-1.49-1.46,0-5.5,0-11,0-16.49,0-1.19.5-1.39,1.51-1.37C120,89.59,122.82,89.56,125.6,89.56Z"/><path class="cls-8" d="M13.28,99.11c0-2.71,0-5.43,0-8.14,0-1.12.36-1.44,1.44-1.43q8.24.08,16.48,0c1.13,0,1.44.4,1.43,1.47q-.06,8.14,0,16.29c0,1.2-.43,1.58-1.59,1.57-5.43,0-10.86,0-16.29,0-1.26,0-1.5-.51-1.47-1.62C13.32,104.55,13.28,101.83,13.28,99.11Z"/><path class="cls-8" d="M48.62,108.86c-2.72,0-5.43,0-8.15,0-1.12,0-1.61-.25-1.6-1.5.06-5.5.05-11,0-16.49,0-1,.32-1.35,1.34-1.35q8.34.06,16.68,0c1,0,1.34.34,1.34,1.34q-.06,8.25,0,16.5c0,1.09-.4,1.5-1.48,1.48C54.05,108.83,51.33,108.86,48.62,108.86Z"/><path class="cls-7" d="M74.2,89.56c2.71,0,5.43,0,8.14,0,1.22,0,1.54.4,1.53,1.56-.05,5.37-.06,10.74,0,16.11,0,1.28-.44,1.68-1.69,1.67-5.36,0-10.73,0-16.09,0-1.14,0-1.61-.28-1.59-1.51q.07-8.16,0-16.3c0-1.21.38-1.56,1.55-1.53C68.76,89.61,71.48,89.56,74.2,89.56Z"/><path class="cls-8" d="M64.52,124.75c0-2.71,0-5.42,0-8.13,0-1.07.3-1.47,1.42-1.46,5.49,0,11,0,16.45,0,1,0,1.51.23,1.5,1.39q-.08,8.22,0,16.45c0,1.26-.57,1.51-1.65,1.5q-8.13,0-16.26,0c-1.08,0-1.48-.32-1.46-1.43C64.56,130.3,64.52,127.53,64.52,124.75Z"/><path class="cls-7" d="M160.71,99.07c0,2.79,0,5.57,0,8.35,0,1.09-.33,1.47-1.43,1.46-5.43,0-10.87,0-16.3,0-1.3,0-1.64-.5-1.63-1.73q.07-8,0-16.1c0-1.23.44-1.52,1.58-1.51,5.43,0,10.86.06,16.29,0,1.25,0,1.52.46,1.49,1.59C160.67,93.77,160.71,96.42,160.71,99.07Z"/><path class="cls-7" d="M176.83,89.56c2.65,0,5.3,0,7.95,0,1.13,0,1.6.24,1.58,1.49-.06,5.43-.05,10.86,0,16.3,0,1.18-.36,1.56-1.54,1.55q-8.06-.07-16.1,0c-1.21,0-1.74-.32-1.73-1.64.06-5.37.07-10.73,0-16.1,0-1.32.47-1.64,1.69-1.6C171.4,89.62,174.11,89.56,176.83,89.56Z"/><path class="cls-8" d="M22.92,115.18c2.77,0,5.54,0,8.32,0,1,0,1.37.29,1.37,1.31,0,5.55,0,11.1,0,16.65,0,1-.39,1.38-1.38,1.38q-8.31,0-16.64,0c-1,0-1.32-.38-1.32-1.37,0-5.55,0-11.1,0-16.65,0-1,.33-1.34,1.34-1.32C17.37,115.22,20.14,115.18,22.92,115.18Z"/><path class="cls-7" d="M99.9,89.56c2.72,0,5.43,0,8.14,0,1.1,0,1.46.34,1.45,1.44q-.08,8.14,0,16.29c0,1.15-.35,1.61-1.54,1.61q-8.15-.06-16.28,0c-1.2,0-1.55-.46-1.55-1.61q.07-8.14,0-16.29c0-1.1.35-1.46,1.45-1.44C94.35,89.6,97.12,89.56,99.9,89.56Z"/><path class="cls-9" d="M115.77,73.29c0-2.65,0-5.3,0-8,0-1.11.38-1.44,1.46-1.43q8.22.06,16.46,0c1.09,0,1.45.34,1.44,1.44-.05,5.42,0,10.85,0,16.27,0,1.09-.35,1.47-1.45,1.46q-8.24-.06-16.46,0c-1.1,0-1.47-.38-1.45-1.46C115.8,78.84,115.77,76.06,115.77,73.29Z"/><path class="cls-9" d="M176.45,83.07c-2.52,0-5-.07-7.55,0-1.39.06-1.94-.3-1.91-1.81.08-5.23.06-10.46,0-15.69,0-1.22.28-1.71,1.61-1.69,5.35.07,10.71.06,16.07,0,1.2,0,1.7.25,1.68,1.58q-.11,8,0,15.89c0,1.39-.46,1.75-1.78,1.71C181.88,83,179.16,83.07,176.45,83.07Z"/><path class="cls-9" d="M99.76,83.07c-2.58,0-5.17-.07-7.75,0-1.39.06-1.93-.3-1.9-1.81.09-5.23.07-10.46,0-15.69,0-1.21.27-1.71,1.6-1.69,5.42.07,10.85.05,16.27,0,1,0,1.51.22,1.5,1.39q-.08,8.13,0,16.27c0,1.23-.47,1.54-1.6,1.51C105.18,83,102.47,83.07,99.76,83.07Z"/><path class="cls-9" d="M151.14,63.93c2.71,0,5.42,0,8.13,0,1.08,0,1.47.3,1.46,1.42,0,5.42,0,10.85,0,16.27,0,1.06-.3,1.49-1.42,1.48-5.49,0-11,0-16.46,0-1.08,0-1.48-.34-1.47-1.44q.06-8.15,0-16.28c0-1.08.33-1.48,1.44-1.45C145.59,64,148.37,63.93,151.14,63.93Z"/><path class="cls-10" d="M51.72,73.65c0,3.1,0,3.1-3.15,3.1s-3.23,0-3.23-3.23,0-3.25,3.27-3.25C51.72,70.27,51.72,70.27,51.72,73.65Z"/><path class="cls-10" d="M26.1,73.69c0,3.06,0,3.06-3,3.06-3.39,0-3.39,0-3.39-3.47,0-3,0-3,2.94-3C26.1,70.28,26.1,70.28,26.1,73.69Z"/><path class="cls-10" d="M74.34,76.75c-3.36,0-3.36,0-3.36-3.29s0-3.19,3.3-3.19c3.07,0,3.07,0,3.07,3v.39C77.35,76.75,77.35,76.75,74.34,76.75Z"/><path class="cls-2" d="M99.76,179.28c-3.12,0-3.12,0-3.12-3.11s0-3.22,3.21-3.22,3.12,0,3.12,3.11S103,179.28,99.76,179.28Z"/><path class="cls-11" d="M19.77,18.89c0-2.38-.09-4.78.07-7.16A9.37,9.37,0,0,1,29.3,3.08a9.49,9.49,0,0,1,9.55,8.82c.13,2.32,0,4.65.06,7,0,3.49.12,7-.07,10.47-.12,2.06.62,2.43,2.51,2.43q45.47-.09,90.93,0c13.05,0,26.11,0,39.16,0,1.55,0,2.18-.33,2.13-2-.13-3.62,0-7.24-.06-10.86,0-1.81,0-3.62,0-5.42,0-2.57-1.16-4-3.22-4s-3.16,1.37-3.22,4c0,1.8,0,3.61,0,5.42l-.54.05h-5.3l-.45,0c0-2.26-.08-4.51,0-6.77a9.5,9.5,0,0,1,9.48-9.08,9.38,9.38,0,0,1,9.55,8.75c.15,2.31,0,4.64.05,7,0,3.81,0,7.63-.1,11.44,0,1.22.47,1.6,1.61,1.53,1-.07,1.95.09,2.9,0,1.79-.23,2.16.55,2.13,2.2-.08,4.42,0,4.42-4.34,4.42H16.24c-3.27,0-2.95.35-3-2.85,0-3.73,0-3.73,3.82-3.73,4.53,0,9,0,13.58,0,1.45,0,2.08-.29,2-1.92-.13-3.68-.08-7.36-.1-11,0-1.93,0-3.86-.08-5.79-.11-2.26-1.35-3.52-3.27-3.48s-3.09,1.34-3.15,3.61c0,1.93,0,3.86,0,5.79l-.47,0H20.35Z"/><path class="cls-12" d="M20.35,19H25.6A10,10,0,0,1,20.35,19Z"/><path class="cls-2" d="M160.73,18.92l.45,0a9.37,9.37,0,0,0,5.3,0l.54-.05a41.36,41.36,0,0,0,6.49,0c0,3.62-.07,7.24.06,10.86.05,1.69-.58,2-2.13,2-13.05-.06-26.11,0-39.16,0q-45.46,0-90.93,0c-1.89,0-2.63-.37-2.51-2.43.19-3.48.06-7,.07-10.47.64,0,1.28.11,1.92.11h118C159.44,19,160.09,19,160.73,18.92Z"/><path class="cls-1" d="M152.19,198.29l.76.06C152.67,198.66,152.42,198.63,152.19,198.29Z"/><path class="cls-3" d="M162.28,198.33l.38,0C162.55,198.48,162.42,198.5,162.28,198.33Z"/><path class="cls-13" d="M178.79,149.55c-.33.38-.6.74-.91,1.06q-11.31,11.31-22.61,22.65c-.77.77-1.18.8-2,0q-6.52-6.65-13.16-13.17c-.81-.8-.7-1.25,0-2,3.44-3.59,3.41-3.61,6.93-.1,2,2,4,3.89,5.86,5.93,1,1.06,1.58,1.07,2.61,0,5.75-5.86,11.63-11.59,17.35-17.48,1.29-1.33,2-1.24,3.09.08.64.81,1.45,1.47,2.17,2.22A7.74,7.74,0,0,1,178.79,149.55Z"/><path class="cls-14" d="M166.48,19a9.37,9.37,0,0,1-5.3,0Z"/></svg>