<svg id="Capa_1" data-name="Capa 1" xmlns="http://www.w3.org/2000/svg" viewBox="0 0 200 200"><defs><style>.cls-1{fill:#48b592;}.cls-2{fill:#056766;}.cls-3{fill:#6ca7fe;}.cls-4{fill:#7ed4f3;}.cls-5{fill:#ebe9e6;}.cls-6{fill:#d9d0cb;}.cls-7{fill:#d9cfcb;}.cls-8{fill:#e5dedc;}.cls-9{fill:#f8f8f8;}.cls-10{fill:#e6dedc;}.cls-11{fill:#464646;}.cls-12{fill:#2e2e2e;}</style></defs><path class="cls-1" d="M100,196.83c-22.49-.12-42.72-6.93-60.33-21C20.09,160.3,8.19,140,3.88,115.35c-.47-2.71-.43-5.49-1.23-8.15V91.61c.45-.2.35-.62.39-1,.32-3.4.83-6.77,1.46-10.13C12,40.81,45.33,9.06,85.39,3.3,87.6,3,89.9,3.11,92,2.24h8c0,3.23-.08,6.46,0,9.69,0,1.25-.22,1.74-1.62,1.77-18,.4-34.4,5.68-48.89,16.38C30.65,44,18.7,62.48,15.3,85.7c-4.94,33.68,6.37,61.33,33.06,82.42C60.49,177.71,74.57,183,90,184.83c3.34.39,6.7.39,10,.67C100,189.28,100,193.05,100,196.83Z"/><path class="cls-2" d="M100,196.83c0-3.78,0-7.55,0-11.33,2.93-.61,5.92-.3,8.88-.61a83.65,83.65,0,0,0,44-17.83c16.83-13.32,27.63-30.53,31.38-51.68,4.62-26.07-1.35-49.69-18.07-70.41a30.05,30.05,0,0,0-3.72-4c-.31,2.6.36,4.93.36,7.29a36.2,36.2,0,0,0,.46,5.1c.15,1-.21,1.26-1.06,1.33-3.09.24-6.18.49-9.27.78-1,.1-1.15-.36-1.22-1.2q-1.23-15-2.53-30.07c-.09-.93.24-1.25,1.11-1.32,4.79-.38,9.58-.79,14.37-1.17,5.17-.41,10.35-.8,15.52-1.22.81-.07,1.48-.18,1.56,1,.19,3,.48,5.93.74,8.89.08.9.07,1.52-1.19,1.59-3.35.18-6.68.53-10.05.82-.19.78.53,1.07.91,1.49a95.59,95.59,0,0,1,23.55,47.65A97.4,97.4,0,0,1,127.48,193,89.54,89.54,0,0,1,100,196.83Z"/><path class="cls-3" d="M100,39.2a57.85,57.85,0,0,1,36.05,12c13,9.74,21,22.74,23.51,38.75,2.89,18.46-1.89,35-14.09,49.2-9.47,11-21.56,17.58-35.83,20.07a41.3,41.3,0,0,1-9.62.74c0-3.78-.05-7.56-.07-11.34l.06-.27c1.89-.17,3.82.32,5.68-.38a17.08,17.08,0,0,0,2.27-.13c14.42-2.75,25.73-10.15,33.55-22.64a43.36,43.36,0,0,0,6.82-19.87,37.06,37.06,0,0,0,0-11.42c-.93-10.6-5.38-19.65-12.46-27.41A47.92,47.92,0,0,0,105.72,51L100,50.51Z"/><path class="cls-4" d="M100,148.59c0,3.78,0,7.56.07,11.34a59.25,59.25,0,0,1-23.42-4.74c-17-7.38-28.68-19.84-34.16-37.48-6.41-20.62-2.56-39.66,11-56.5,8.83-11,20.41-17.8,34.19-20.76A47.81,47.81,0,0,1,100,39.2q0,5.65,0,11.31l0,.14c-1.94-.35-3.83.14-5.73.32a4.84,4.84,0,0,0-.76,0C80.13,53,69.13,59.25,60.89,70.09a46.87,46.87,0,0,0-9.51,23.78,38.15,38.15,0,0,0,0,11.44,47.67,47.67,0,0,0,17.45,32A45,45,0,0,0,94.27,148C96.13,148.58,98.1,148.09,100,148.59Z"/><path class="cls-5" d="M105.72,51A47.92,47.92,0,0,1,135.9,66.47c7.08,7.76,11.53,16.81,12.46,27.41-2.91,0-5.82.06-8.73,0-1.26,0-1.64.43-1.61,1.65.07,2.65.09,5.31,0,8-.05,1.39.34,1.9,1.8,1.85,2.84-.11,5.69,0,8.53,0a43.36,43.36,0,0,1-6.82,19.87c-7.82,12.49-19.13,19.89-33.55,22.64a17.08,17.08,0,0,1-2.27.13c0-2.64-.11-5.28,0-7.91.1-1.83-.32-2.72-2.35-2.43a23.78,23.78,0,0,1-3.38,0q0-15.25,0-30.51a2.85,2.85,0,0,1,0-.29c1.43-1.14,2.83-2.32,4.3-3.4a3.33,3.33,0,0,0,1.43-3c-.07-8.93,0-17.86,0-26.8,0-5.59,0-5.59-5.72-5a.31.31,0,0,0,0-.19c0-2.39,0-4.78,0-7.17,1.26,0,2.53-.09,3.79,0,1.44.11,2-.32,1.95-1.88C105.62,56.55,105.72,53.77,105.72,51Z"/><path class="cls-6" d="M148.35,105.3c-2.84,0-5.69-.08-8.53,0-1.46,0-1.85-.46-1.8-1.85.09-2.66.07-5.32,0-8,0-1.22.35-1.68,1.61-1.65,2.91.08,5.82,0,8.73,0A37.06,37.06,0,0,1,148.35,105.3Z"/><path class="cls-6" d="M100,137.64a23.78,23.78,0,0,0,3.38,0c2-.29,2.45.6,2.35,2.43-.15,2.63,0,5.27,0,7.91-1.86.7-3.79.21-5.68.38,0-3.45,0-6.89,0-10.34Z"/><path class="cls-7" d="M105.72,51c0,2.78-.1,5.56,0,8.34.07,1.56-.51,2-1.95,1.88-1.26-.11-2.53,0-3.79,0h0V50.65l0-.14Z"/><path class="cls-8" d="M100,138c0,3.45,0,6.89,0,10.34l-.06.27c-1.87-.5-3.84,0-5.7-.59,0-2.78.08-5.55,0-8.32,0-1.36.45-1.79,1.75-1.7S98.66,138,100,138Z"/><path class="cls-9" d="M100,138c-1.33,0-2.65.09-4,0s-1.79.34-1.75,1.7c.08,2.77,0,5.54,0,8.32a45,45,0,0,1-25.44-10.73,47.67,47.67,0,0,1-17.45-32c2.85,0,5.69,0,8.54,0,1.15,0,1.74-.22,1.7-1.56-.08-2.78-.09-5.56,0-8.34,0-1.34-.55-1.57-1.7-1.55-2.85,0-5.69,0-8.54,0a46.87,46.87,0,0,1,9.51-23.78C69.13,59.25,80.13,53,93.53,51a4.84,4.84,0,0,1,.76,0c0,2.85.07,5.69,0,8.54,0,1.36.46,1.78,1.75,1.69s2.66,0,4,0h0c0,2.39,0,4.78,0,7.17a29.94,29.94,0,0,1-3.78.11c-1.56-.15-2,.34-2,2,.08,8.1,0,16.2.09,24.31a4.17,4.17,0,0,1-1.78,3.64c-4.21,3.44-8.33,7-12.54,10.45-.93.76-.93,1.21-.15,2.07,1.82,2,3.61,4.08,5.24,6.25,1,1.26,1.57,1.1,2.65.18,4-3.45,8.15-6.8,12.24-10.19q0,15.25,0,30.51Z"/><path class="cls-10" d="M51.38,93.87c2.85,0,5.69,0,8.54,0,1.15,0,1.74.21,1.7,1.55-.09,2.78-.08,5.56,0,8.34,0,1.34-.55,1.58-1.7,1.56-2.85-.06-5.69,0-8.54,0A38.15,38.15,0,0,1,51.38,93.87Z"/><path class="cls-8" d="M100,61.18c-1.33,0-2.66-.07-4,0s-1.79-.33-1.75-1.69c.09-2.85,0-5.69,0-8.54,1.9-.18,3.79-.67,5.73-.32C100,54.16,100,57.67,100,61.18Z"/><path class="cls-11" d="M100,107.13c-4.09,3.39-8.2,6.74-12.24,10.19-1.08.92-1.7,1.08-2.65-.18-1.63-2.17-3.42-4.23-5.24-6.25-.78-.86-.78-1.31.15-2.07,4.21-3.45,8.33-7,12.54-10.45a4.17,4.17,0,0,0,1.78-3.64c-.11-8.11,0-16.21-.09-24.31,0-1.61.45-2.1,2-2a29.94,29.94,0,0,0,3.78-.11.31.31,0,0,1,0,.19l0,38.29A2.85,2.85,0,0,0,100,107.13Z"/><path class="cls-12" d="M100,106.84l0-38.29c5.72-.54,5.72-.54,5.72,5,0,8.94,0,17.87,0,26.8a3.33,3.33,0,0,1-1.43,3C102.84,104.52,101.44,105.7,100,106.84Z"/></svg>