<svg id="Capa_1" data-name="Capa 1" xmlns="http://www.w3.org/2000/svg" xmlns:xlink="http://www.w3.org/1999/xlink" viewBox="0 0 200 200"><defs><style>.cls-1{fill:none;}.cls-2{clip-path:url(#clip-path);}.cls-3{fill:#056766;}.cls-4{fill:#fefefe;}.cls-5{fill:#48b592;}</style><clipPath id="clip-path"><rect class="cls-1" x="1.82" y="1.82" width="196.36" height="196.36"/></clipPath></defs><g class="cls-2"><path class="cls-3" d="M66.9,198.15a4.45,4.45,0,0,1-2-4.39c.14-1.77,0-3.57,0-5.35A9.66,9.66,0,0,1,72.41,179a4.41,4.41,0,0,0,1.77-.65,41.43,41.43,0,0,0,10.49-13c-.73-.55-1.46-.3-2.12-.3q-27.93,0-55.85,0a15.32,15.32,0,0,1-5.46-.71,11.43,11.43,0,0,1-7.46-10.78q0-50.58,0-101.18c0-6.57,5.11-11.3,12.1-11.36q10.9-.09,21.8,0c1.47,0,1.93-.32,1.92-1.87-.07-10.9,0-21.8,0-32.71,0-3.29.91-4.2,4.19-4.2h92.18c3.15,0,4.1.94,4.1,4.09,0,10.84.05,21.68,0,32.52,0,1.76.5,2.07,2.12,2,7.27-.09,14.54,0,21.8,0,7,0,11.92,4.85,11.92,11.88q0,50.12,0,100.23c0,7.31-4.85,12-12.37,12q-28.11,0-56.22,0h-2c-.39.72.13,1.09.35,1.48a43.54,43.54,0,0,0,6.74,9,12.87,12.87,0,0,0,5.78,3.78,9.25,9.25,0,0,1,6.52,8.94c0,1.84-.09,3.7,0,5.54a4.45,4.45,0,0,1-2,4.39Z"/><path class="cls-4" d="M55.69,68.25q0-29,0-57.95c0-1.55.29-2,1.93-2q42.26.09,84.52,0c1.51,0,1.85.4,1.85,1.87q-.06,58.05,0,116.09c0,1.52-.27,2-1.93,2q-42.25-.09-84.52,0c-1.54,0-1.85-.45-1.85-1.9Q55.74,97.32,55.69,68.25Z"/><path class="cls-4" d="M99.77,137.9q-33.09,0-66.18,0c-1.6,0-2-.41-2-2q.07-37.68,0-75.37c0-1.57.37-2,2-2,4.65.11,9.31.13,14,0,1.77-.05,2,.53,2,2.15q-.07,34.52,0,69.05c0,3.82.75,4.57,4.57,4.57h91.42c3.7,0,4.48-.78,4.48-4.46q0-34.53,0-69c0-1.92.55-2.3,2.33-2.25,4.72.12,9.44.08,14.15,0,1.16,0,1.51.28,1.51,1.48q0,38.16,0,76.32c0,1.62-.79,1.5-1.87,1.5Q133,137.89,99.77,137.9Z"/><path class="cls-4" d="M99.79,144h77.46c2.48,0,2.48,0,2.48,2.56,0,2.17,0,4.34,0,6.51-.06,3.59-2.09,5.64-5.69,5.8H26.76a7.76,7.76,0,0,1-4.09-.67,5.4,5.4,0,0,1-2.78-4.91c0-2.55.08-5.11,0-7.65-.07-1.38.4-1.68,1.71-1.67,7.52.06,15,0,22.57,0Z"/><path class="cls-4" d="M179.73,94.49c0,13.83,0,27.66,0,41.49,0,1.63-.46,2-2,2-3.66-.1-3.66,0-3.66-3.72V57.15c0-3.89-.75-4.62-4.72-4.62-5.8,0-11.6,0-17.4,0-1.4,0-2-.21-2-1.84.12-3.73,0-3.74,3.82-3.74,6.63,0,13.26,0,19.88,0,3.93,0,6,2.07,6,6Q179.75,73.73,179.73,94.49Z"/><path class="cls-4" d="M19.89,94.39q0-20.46,0-40.93c0-4.27,2-6.34,6.31-6.35,7.27,0,14.54,0,21.8,0,1.27,0,1.61.36,1.6,1.61,0,3.85,0,3.85-3.74,3.85H29.6c-3.15,0-4.07.94-4.07,4.12q0,39.59,0,79.19c0,1.65-.33,2.18-2.07,2.11-3.61-.14-3.61,0-3.61-3.58Z"/><path class="cls-4" d="M99.8,192c-9,0-18,0-27,0-1.41,0-2-.3-1.75-1.75a14.08,14.08,0,0,0,0-1.72A3.59,3.59,0,0,1,75,184.77q24.86,0,49.72,0c2.43,0,3.78,1.52,3.83,4,.07,3.22.07,3.22-3.09,3.22Z"/><path class="cls-4" d="M116.73,178.55H82.87a57.83,57.83,0,0,0,8.58-12.92c.32-.67.88-.61,1.46-.61h13.76c.67,0,1.22,0,1.57.75A57.74,57.74,0,0,0,116.73,178.55Z"/><path class="cls-5" d="M99.76,116.31c-5.35,0-10.71,0-16.06,0-4.89,0-7.67-2.81-7.69-7.72,0-4.59,0-9.18,0-13.77,0-1.41-2.56-3.64-4-3.43-.84.12-.44.8-.44,1.21,0,3.13,0,6.25,0,9.37,0,2.45-1.1,3.85-3,3.89s-3.14-1.47-3.14-4c0-4.91,0-9.82,0-14.73a3.89,3.89,0,0,1,2.59-4q14.83-6.72,29.6-13.62a4.69,4.69,0,0,1,4.34,0q14.68,6.83,29.43,13.53c1.48.68,2.74,1.51,2.7,3.32s-1.22,2.51-2.67,3.13c-2.16.93-4.23,2-6.41,2.92a2,2,0,0,0-1.47,2.25c.07,4.71,0,9.43,0,14.15s-2.93,7.46-7.56,7.47H99.76Z"/><path class="cls-5" d="M113.45,49.8c0,2,0,4,0,6,0,2.52-1.11,3.61-3.65,3.62q-17,0-34.05,0c-2.55,0-3.62-1.08-3.62-3.61q0-16,0-31.95c0-2.5,1.14-3.58,3.66-3.59q16.93,0,33.86,0c2.7,0,3.77,1.12,3.81,3.88,0,1.9,0,3.8,0,6l8.65-5c3.18-1.82,5.39-.58,5.4,3.05q0,11.58,0,23.15c0,3.81-2.17,5-5.5,3.1l-8.1-4.67S113.79,49.8,113.45,49.8Z"/><path class="cls-5" d="M99.8,154.52a3.06,3.06,0,1,1,3.07-3A3.1,3.1,0,0,1,99.8,154.52Z"/><path class="cls-4" d="M123.72,86.32l-11.11,5.12L101.2,96.71A2.36,2.36,0,0,1,99,97c-7.59-3.53-15.2-7-23.12-10.68L87.46,81,98.7,75.82a2.06,2.06,0,0,1,2-.16C108.22,79.2,115.83,82.68,123.72,86.32Z"/><path class="cls-4" d="M117.46,96c0,4.44,0,8.58,0,12.71,0,1.2-.51,1.52-1.62,1.52q-16,0-32.08,0c-.92,0-1.66-.11-1.65-1.29,0-4.24,0-8.49,0-13,5.27,2.42,10.36,4.68,15.38,7.08a5,5,0,0,0,4.7,0C107.18,100.63,112.21,98.38,117.46,96Z"/><path class="cls-4" d="M92.8,26.37c4.27,0,8.54,0,12.8,0,1.24,0,1.78.18,1.76,1.62q-.1,11.85,0,23.69c0,1.39-.45,1.68-1.74,1.67q-12.89-.07-25.78,0c-1.41,0-1.65-.47-1.64-1.74,0-7.83.07-15.66,0-23.5,0-1.49.44-1.77,1.82-1.74C84.27,26.43,88.54,26.37,92.8,26.37Z"/><path class="cls-4" d="M121.25,47c-2.46-1.42-4.69-2.73-7-4a1.51,1.51,0,0,1-.87-1.31c-.3-2.81-.06-5.19,3.2-6.3a27.94,27.94,0,0,0,4.62-2.6Z"/><path class="cls-5" d="M85.44,34.79H84.3c-2.21,0-3.6-1.24-3.58-3.08s1.43-3,3.65-3c.89,0,1.79,0,2.67,0,2.07.1,3.32,1.35,3.25,3.21S89,34.72,87,34.78C86.46,34.8,86,34.79,85.44,34.79Z"/></g></svg>