<svg id="Capa_1" data-name="Capa 1" xmlns="http://www.w3.org/2000/svg" xmlns:xlink="http://www.w3.org/1999/xlink" viewBox="0 0 200 200"><defs><style>.cls-1{fill:none;}.cls-2{clip-path:url(#clip-path);}.cls-3{fill:#48b592;}.cls-4{fill:#fefefe;}.cls-5{fill:#056766;}</style><clipPath id="clip-path"><rect class="cls-1" x="1.8" y="1.64" width="196.36" height="196.36"/></clipPath></defs><g class="cls-2"><path class="cls-3" d="M66.88,198a4.41,4.41,0,0,1-1.95-4.39c.14-1.77,0-3.57,0-5.35a9.65,9.65,0,0,1,7.42-9.46,4.41,4.41,0,0,0,1.77-.65,41.4,41.4,0,0,0,10.48-13c-.73-.55-1.45-.3-2.11-.3q-27.93,0-55.85,0a15.11,15.11,0,0,1-5.46-.72,11.4,11.4,0,0,1-7.46-10.77q0-50.58,0-101.18c0-6.57,5.12-11.3,12.11-11.36q10.89-.09,21.8,0c1.46,0,1.93-.32,1.92-1.87-.07-10.9,0-21.81,0-32.71,0-3.29.91-4.2,4.18-4.2h92.19c3.15,0,4.1.94,4.1,4.09,0,10.84,0,21.68-.05,32.52,0,1.76.51,2.07,2.13,2.05,7.27-.09,14.53-.06,21.8,0,7,0,11.91,4.86,11.92,11.89q0,50.11,0,100.23c0,7.31-4.85,12-12.37,12q-28.11,0-56.23,0h-2c-.39.72.13,1.09.35,1.48a42.84,42.84,0,0,0,6.74,9,12.87,12.87,0,0,0,5.78,3.78A9.26,9.26,0,0,1,134.6,188c0,1.84-.1,3.7,0,5.54a4.46,4.46,0,0,1-1.95,4.39Z"/><path class="cls-4" d="M55.67,68.07c0-19.32,0-38.63,0-57.95,0-1.55.3-2,1.93-2q42.27.09,84.53,0c1.51,0,1.85.4,1.84,1.87q-.06,58,0,116.09c0,1.52-.27,2-1.93,2q-42.27-.09-84.53,0c-1.53,0-1.85-.45-1.84-1.9Q55.72,97.14,55.67,68.07Z"/><path class="cls-4" d="M99.75,137.72q-33.09,0-66.18,0c-1.6,0-2-.41-2-2q.07-37.69,0-75.37c0-1.57.38-2,2-2,4.66.11,9.31.13,14,0,1.77-.05,2.06.53,2.06,2.15q-.09,34.52,0,69.05c0,3.82.75,4.57,4.56,4.57h91.43c3.7,0,4.48-.78,4.48-4.46,0-23,0-46-.05-69,0-1.92.56-2.3,2.34-2.26,4.71.13,9.44.08,14.15,0,1.16,0,1.51.28,1.51,1.48q-.06,38.16,0,76.32c0,1.62-.79,1.49-1.87,1.49Z"/><path class="cls-4" d="M99.77,143.85h77.46c2.48,0,2.48,0,2.48,2.56,0,2.17,0,4.34,0,6.51-.06,3.59-2.09,5.64-5.69,5.8H26.74a7.8,7.8,0,0,1-4.1-.67,5.42,5.42,0,0,1-2.77-4.91c0-2.55.08-5.11,0-7.65-.06-1.38.41-1.68,1.72-1.67,7.52.06,15,0,22.56,0Z"/><path class="cls-4" d="M179.71,94.3c0,13.84,0,27.67,0,41.5,0,1.63-.47,2-2,2-3.66-.11-3.67,0-3.67-3.72V57c0-3.89-.74-4.62-4.71-4.62-5.8,0-11.6,0-17.4,0-1.41,0-2-.21-2-1.84.11-3.74,0-3.74,3.82-3.74,6.62,0,13.25,0,19.88,0,3.93,0,6,2.07,6,6Q179.73,73.56,179.71,94.3Z"/><path class="cls-4" d="M19.86,94.21q0-20.46,0-40.93c0-4.27,2-6.34,6.31-6.35,7.26,0,14.53,0,21.8,0,1.27,0,1.61.36,1.6,1.61,0,3.85,0,3.85-3.74,3.85H29.58c-3.15,0-4.07.94-4.07,4.12q0,39.59,0,79.19c0,1.65-.34,2.18-2.07,2.11-3.61-.14-3.62,0-3.62-3.58Z"/><path class="cls-4" d="M99.78,191.84c-9,0-18,0-27,0-1.41,0-2-.3-1.75-1.75a14.08,14.08,0,0,0,0-1.72,3.59,3.59,0,0,1,3.85-3.82q24.86,0,49.71,0c2.44,0,3.78,1.51,3.84,4,.07,3.22.07,3.22-3.09,3.22Z"/><path class="cls-4" d="M116.71,178.37H82.85a58.17,58.17,0,0,0,8.58-12.92c.32-.67.88-.61,1.46-.61,4.58,0,9.17,0,13.76,0,.66,0,1.22,0,1.57.75A57.8,57.8,0,0,0,116.71,178.37Z"/><path class="cls-5" d="M99.74,116.13c-5.35,0-10.71,0-16.06,0-4.9,0-7.67-2.82-7.69-7.72,0-4.59,0-9.18,0-13.77,0-1.41-2.57-3.64-4-3.43-.84.12-.44.8-.45,1.21,0,3.12,0,6.25,0,9.37,0,2.45-1.1,3.85-3,3.89s-3.14-1.47-3.14-4c0-4.91,0-9.82,0-14.73A3.87,3.87,0,0,1,68,83q14.83-6.72,29.6-13.62a4.69,4.69,0,0,1,4.34,0q14.69,6.82,29.43,13.53c1.47.68,2.74,1.51,2.69,3.31s-1.21,2.52-2.66,3.14c-2.16.93-4.24,2-6.41,2.92a2,2,0,0,0-1.48,2.25c.08,4.71,0,9.43,0,14.15s-2.93,7.46-7.56,7.47H99.74Z"/><path class="cls-5" d="M113.43,49.62c0,2,0,4,0,6-.06,2.52-1.12,3.61-3.65,3.62q-17,0-34,0c-2.55,0-3.62-1.08-3.63-3.61q0-16,0-31.95c0-2.5,1.13-3.58,3.66-3.59q16.93,0,33.86,0c2.69,0,3.77,1.12,3.8,3.88,0,1.9,0,3.8,0,6l8.64-5c3.19-1.82,5.4-.59,5.41,3.05q0,11.58,0,23.15c0,3.81-2.16,5-5.49,3.1l-8.1-4.67S113.77,49.62,113.43,49.62Z"/><path class="cls-5" d="M99.77,154.34a3.06,3.06,0,1,1,3.08-3A3.08,3.08,0,0,1,99.77,154.34Z"/><path class="cls-4" d="M123.7,86.14l-11.11,5.12-11.42,5.27a2.35,2.35,0,0,1-2.16.29c-7.59-3.53-15.19-7-23.12-10.68l11.54-5.31,11.24-5.19a2.08,2.08,0,0,1,2-.16C108.2,79,115.8,82.5,123.7,86.14Z"/><path class="cls-4" d="M117.44,95.79c0,4.44,0,8.58,0,12.71,0,1.2-.51,1.52-1.62,1.52q-16.05,0-32.09,0c-.92,0-1.65-.11-1.65-1.29,0-4.25,0-8.49,0-13,5.27,2.42,10.35,4.68,15.37,7.08a5,5,0,0,0,4.71,0C107.16,100.45,112.19,98.2,117.44,95.79Z"/><path class="cls-4" d="M92.78,26.19c4.27,0,8.53,0,12.8,0,1.24,0,1.78.18,1.76,1.62q-.11,11.84,0,23.69c0,1.39-.45,1.67-1.74,1.67q-12.88-.07-25.79,0c-1.4,0-1.64-.47-1.63-1.74,0-7.83.07-15.67,0-23.5,0-1.49.44-1.77,1.82-1.74C84.25,26.25,88.52,26.19,92.78,26.19Z"/><path class="cls-4" d="M121.23,46.77c-2.46-1.42-4.69-2.73-7-4a1.51,1.51,0,0,1-.87-1.31c-.3-2.81-.06-5.19,3.2-6.3a28.77,28.77,0,0,0,4.62-2.6Z"/><path class="cls-5" d="M85.42,34.61H84.28c-2.21,0-3.6-1.24-3.58-3.08s1.43-3,3.65-3c.89,0,1.78,0,2.67,0,2.06.1,3.32,1.35,3.25,3.2S89,34.54,87,34.6C86.44,34.62,85.93,34.61,85.42,34.61Z"/></g></svg>