<svg id="Capa_1" data-name="Capa 1" xmlns="http://www.w3.org/2000/svg" viewBox="0 0 200 200"><defs><style>.cls-1{fill:#48b592;}.cls-2{fill:#fefefe;}.cls-3{fill:#fdfdfd;}</style></defs><path class="cls-1" d="M0,168.57c1.23-1.61,2.94-1.76,4.81-1.71,3.33.08,3.33,0,3.33-3.36q0-50.48,0-101c0-7.17,4.06-12.62,10.61-14.26,2.68-.67,5.44-.38,8.16-.43h1.93a14.57,14.57,0,0,1-1-6.35,12,12,0,0,1,6.67-9.45Q50,23.88,65.5,15.68,77.89,9.13,90.27,2.57a19.55,19.55,0,0,1,19-.19c2.54,1.3,5.07,2.63,7.57,4,1.86,1,2.45,2.61,1.62,4.17s-2.48,1.92-4.38.94c-2.43-1.24-4.82-2.54-7.23-3.81a14,14,0,0,0-13.81,0Q65.21,22.43,37.34,37.17c-2.27,1.2-3.65,3-3.66,5.53a6,6,0,0,0,3.58,5.57Q65.31,63.08,93.35,77.91a13.41,13.41,0,0,0,12.9.19c4.75-2.4,9.42-4.94,14.31-7.51-3-3.47-6-6.83-8.93-10.18L98,44.87A2.84,2.84,0,0,1,97.72,41a2.76,2.76,0,0,1,3.49-.87,5.11,5.11,0,0,1,1.86,1.69q10.82,12.3,21.6,24.63c.85,1,1.41,1.29,2.7.6,11.67-6.25,23.38-12.4,35.07-18.6,3.34-1.77,4.61-4.59,3.55-7.7a6.89,6.89,0,0,0-3.71-3.79L125.8,17.68c-.93-.49-1.93-.92-2.3-2a2.81,2.81,0,0,1,.69-3.23,3.05,3.05,0,0,1,3.79-.25l16,8.45c6.77,3.58,13.52,7.18,20.3,10.72,7.06,3.7,9.18,8.59,6.89,16.46,1.47,0,2.88.09,4.27,0,10.2-.8,16.63,6.37,16.54,16.29-.32,33.52-.11,67-.17,100.56,0,1.78.43,2.33,2.24,2.24,2.18-.1,4.68-.71,5.95,2v9.75a16.2,16.2,0,0,1-5.09,11.2,19,19,0,0,1-13.81,5.79q-70.56,0-141.12,0c-7.09,0-14.18.08-21.27,0C10.37,195.55,4.67,191.3,1,184c-.83-1.67-.56-3.55-1-5.29Z"/><path class="cls-2" d="M151,61.09q6.53-3.45,13-6.91a4.17,4.17,0,0,1,2.05-.49c3.77,0,7.55,0,11.32,0,5.2,0,8.55,3.38,8.55,8.55q0,51.47,0,102.91c0,1.33-.3,1.75-1.7,1.74q-84.36,0-168.73,0c-1.29,0-1.62-.35-1.61-1.63Q14,113.64,14,62a7.94,7.94,0,0,1,8-8.26c4-.11,8.07,0,12.11,0a2.9,2.9,0,0,1,1.31.26c4.52,2.36,9,4.74,13.7,7.21a2.67,2.67,0,0,1-1.82.31H25.87c-3.21,0-4.05.84-4.05,4V155c0,3.21.85,4.09,4,4.09,4.63,0,9.25,0,13.87,0,2.23,0,3.48-1.25,3.36-3.14-.1-1.65-1.22-2.65-3.21-2.68-3.38,0-6.77-.1-10.15,0-1.61.06-2.06-.36-2.05-2,.06-16.31,0-32.61,0-48.92,0-11,0-22.09,0-33.13,0-1.54.39-1.94,1.93-1.92q11.32.12,22.65,0c1.38,0,1.7.38,1.72,1.73.05,5-.57,10,.54,15,2.48,10.94,9.53,17.56,20,21.09a78.45,78.45,0,0,0,47.67,1.13,7,7,0,0,1-.92,5.16c-1.69,2.61-3.18,5.35-4.71,8.06-3.69,6.54.43,13.62,8,13.66a17.44,17.44,0,0,0,3.69-.19,8.78,8.78,0,0,0,6-12.86,80.13,80.13,0,0,0-4.29-7.41,10.93,10.93,0,0,1-1.83-7,2.19,2.19,0,0,1,1.55-2.24,26.68,26.68,0,0,0,15.93-19.59c1-4.74.53-9.58.49-14.38,0-1.85.57-2.2,2.27-2.18,7.36.09,14.71.08,22.07,0,1.43,0,2,.22,2,1.86q-.09,41.13,0,82.25c0,1.67-.6,1.85-2,1.84q-58.31,0-116.59,0a18.24,18.24,0,0,0-2.34.08,2.85,2.85,0,0,0-.39,5.55,8.34,8.34,0,0,0,2.12.21H174.05c3.3,0,4.13-.84,4.13-4.16V65.66c0-3.33-.82-4.16-4.13-4.16h-23Z"/><path class="cls-2" d="M100,189.36q-39.82,0-79.65,0c-3.57,0-6.84-.67-9.64-3-4.12-3.37-5.18-7.89-4.86-12.93,0-.6.26-.8.83-.76.39,0,.78,0,1.17,0q33,0,66,0a2.17,2.17,0,0,1,2.54,1.84,13.21,13.21,0,0,0,12.2,9.33q11.42.28,22.83,0a13.3,13.3,0,0,0,12.34-9.69,1.71,1.71,0,0,1,2-1.46q33.39,0,66.77,0c1.47,0,1.64.5,1.64,1.76,0,7.79-3.62,13-10.25,14.59a19.66,19.66,0,0,1-4.66.32Z"/><path class="cls-2" d="M122.27,76.3c0,7.85,0,15.36,0,22.88,0,.76-.4,1-1,1.16a71.31,71.31,0,0,1-47.9-1.93,21.44,21.44,0,0,1-13.6-19.58c0-3.93,0-7.86,0-12L80.39,77.69c3.43,1.82,6.85,3.68,10.31,5.44A19.46,19.46,0,0,0,109.56,83C113.68,80.84,117.79,78.66,122.27,76.3Z"/><path class="cls-2" d="M140.31,66.76c-.39,6,.7,11.81-.88,17.46a21,21,0,0,1-11.05,13.4c-.43-.5-.24-1-.24-1.5,0-7.13,0-14.27,0-21.4a2.09,2.09,0,0,1,1.31-2.22C133,70.7,136.49,68.78,140.31,66.76Z"/><path class="cls-2" d="M118.05,172.84c-1.3,3-3.35,5-6.45,5.11q-11.59.48-23.2,0c-3.11-.14-5.13-2.14-6.48-5.11Z"/><path class="cls-3" d="M125.2,116.13c1.35,2.34,2.64,4.43,3.77,6.61a3,3,0,0,1-2.65,4.51c-.72,0-1.43,0-2.15,0-2.61-.11-3.93-2.31-2.7-4.62C122.59,120.53,123.84,118.49,125.2,116.13Z"/><path class="cls-1" d="M68.77,139.59h27.7a11.53,11.53,0,0,1,2,.08,2.85,2.85,0,0,1,.38,5.55,7.87,7.87,0,0,1-2.12.2H39.9c-2.2-.07-3.59-1.26-3.53-3s1.36-2.8,3.52-2.81q12.68,0,25.36,0Z"/><path class="cls-1" d="M58.79,133.11H40.06c-2.29,0-3.64-1.05-3.69-2.83s1.36-3,3.73-3H77.75c2.3,0,3.62,1,3.66,2.85s-1.27,3-3.7,3Z"/></svg>