<svg id="Capa_1" data-name="Capa 1" xmlns="http://www.w3.org/2000/svg" viewBox="0 0 200 200"><defs><style>.cls-1{fill:#056766;}.cls-2{fill:#fefefe;}.cls-3{fill:#48b592;}.cls-4{fill:#fdfdfd;}</style></defs><path class="cls-1" d="M27.74,68.09c0-17.17.07-34.35,0-51.52a8.37,8.37,0,0,1,8.81-8.79c32.27.14,64.54.07,96.81.07,5.13,0,8.19,3,8.22,8.17,0,7,.06,13.92,0,20.88,0,1.43.3,1.85,1.79,1.84,9.93-.08,19.87.1,29.8-.1,5.18-.1,9.33,3.84,9,8.9-.28,4-.05,7.93-.06,11.9a7.69,7.69,0,0,1-7.71,7.76c-10.33,0-20.65,0-31,0-1.46,0-1.82.34-1.82,1.81.06,16.85,0,33.7.07,50.55,0,3.38-.91,6.1-4,7.83a9.19,9.19,0,0,1-4.67,1q-48.21,0-96.42,0c-5.75,0-8.81-3.17-8.81-9Z"/><path class="cls-1" d="M87.41,192.16H70.87c-2.69,0-3.45-.84-3-3.54,1.08-6.58,3.57-12.5,8.45-17.21,6.39-6.17,15.2-6.31,21.77-.37,5.44,4.91,7.86,11.34,9.1,18.33.31,1.77-.82,2.78-2.84,2.79C98.7,192.17,93.06,192.16,87.41,192.16Z"/><path class="cls-1" d="M137.48,192.16c-5.64,0-11.28,0-16.93,0-2.08,0-3.13-1.09-2.78-3,1.07-5.84,3-11.33,6.93-15.91,8.13-9.41,19.85-8.6,27.1,1.89a31.94,31.94,0,0,1,5.31,13.72c.35,2.41-.44,3.32-2.89,3.32Z"/><path class="cls-1" d="M37.31,192.16c-5.65,0-11.3,0-17,0-2,0-3-.93-2.74-2.85,1.09-6.91,3.5-13.3,8.82-18.08,7.45-6.69,17.11-5.87,23.57,1.79a32.52,32.52,0,0,1,6.9,15.34c.54,2.88-.34,3.8-3.24,3.81Z"/><path class="cls-1" d="M100.2,151.14a12.89,12.89,0,0,1-12.71,12.77,13.08,13.08,0,0,1-12.91-12.86,12.81,12.81,0,1,1,25.62.09Z"/><path class="cls-1" d="M124.75,151a12.79,12.79,0,0,1,12.91-12.69,12.93,12.93,0,0,1,12.71,12.78,13.08,13.08,0,0,1-12.91,12.86A12.88,12.88,0,0,1,124.75,151Z"/><path class="cls-1" d="M24.6,150.91a12.76,12.76,0,0,1,25.51.21,13,13,0,0,1-12.89,12.79A12.8,12.8,0,0,1,24.6,150.91Z"/><path class="cls-2" d="M84.63,36q25.22,0,50.45,0c.64,0,1.76-.68,1.84.89.06,1.19-.15,1.76-1.47,2.09-4.18,1-6.73,4-6.3,8.28.48,4.78-.91,8.36-4.71,11.23a41.85,41.85,0,0,0-4.29,4.24c-.84.86-1.63,1.74-1.06,3.07s1.64,1.44,2.9,1.43c4.48,0,9,0,13.44,0,1.2,0,1.49.3,1.49,1.5,0,17.18,0,34.36,0,51.54,0,2.34-.91,3.25-3.26,3.41-.65,0-1.3,0-1.95,0H37.4c-4.27,0-5-.73-5-4.93q0-40.41,0-80.81c0-1.66.43-2,2-2C51.12,36,67.87,36,84.63,36Z"/><path class="cls-2" d="M84.53,31.28c-16.76,0-33.51,0-50.26,0-1.47,0-2-.29-1.92-1.87.13-4.29,0-8.58,0-12.88,0-2.95,1.05-4,3.9-4h96.81c2.79,0,3.76.93,3.77,3.66,0,4.49-.06,9,0,13.47,0,1.45-.47,1.64-1.75,1.64C118.29,31.26,101.41,31.28,84.53,31.28Z"/><path class="cls-2" d="M127,62.33c1.92-1.88,3.64-3.64,5.44-5.32A3.66,3.66,0,0,0,133.74,54c-.1-2.27-.05-4.55,0-6.83a3.48,3.48,0,0,1,3.75-3.73q18.09,0,36.2,0c2.43,0,3.69,1.27,3.7,3.69,0,4,0,8.06,0,12.09A3,3,0,0,1,174,62.53H127.7A3.94,3.94,0,0,1,127,62.33Z"/><path class="cls-2" d="M101.92,187.47H74.1c-.62,0-1.45.2-1.11-.93,1.54-5.08,3.67-9.82,8.16-13a10.43,10.43,0,0,1,13.34.61A23.51,23.51,0,0,1,101.92,187.47Z"/><path class="cls-2" d="M122.91,187.47c1.15-4.74,3-8.89,6.31-12.24,5.11-5.17,11.46-5.17,16.57,0,3.13,3.15,4.86,7.07,6.12,11.25.4,1.33-.51,1-1.15,1H122.91Z"/><path class="cls-2" d="M22.73,187.41a26.19,26.19,0,0,1,5.67-11.54c5.37-6.1,13-5.94,18.16.35a27.85,27.85,0,0,1,5,9.71c.41,1.34.18,1.58-1.17,1.57-8.88-.05-17.76,0-26.65,0C23.42,187.47,23.11,187.44,22.73,187.41Z"/><path class="cls-2" d="M87.51,143a8.11,8.11,0,0,1-.15,16.21A8.11,8.11,0,1,1,87.51,143Z"/><path class="cls-2" d="M137.56,143a8.11,8.11,0,1,1-8.13,8A8.12,8.12,0,0,1,137.56,143Z"/><path class="cls-2" d="M45.38,151.17A8.06,8.06,0,1,1,37.64,143,8,8,0,0,1,45.38,151.17Z"/><path class="cls-3" d="M118.52,79.79c.34,18.2-15.17,34.24-34.36,33.93a34,34,0,1,1,34.36-33.93Z"/><path class="cls-3" d="M55.08,24.25c-.46,0-.91,0-1.36,0a2.27,2.27,0,0,1-2.42-2.45,2.2,2.2,0,0,1,2.42-2.23c.78,0,1.56,0,2.33,0,1.66-.09,2.72.8,2.72,2.33s-1.08,2.41-2.72,2.36C55.72,24.24,55.4,24.25,55.08,24.25Z"/><path class="cls-3" d="M42.63,19.56c.39,0,.77,0,1.16,0a2.25,2.25,0,0,1,2.62,2.21c.13,1.44-.9,2.4-2.57,2.47-.71,0-1.42,0-2.13,0-1.54,0-2.67-.6-2.68-2.34s1-2.37,2.63-2.35C42,19.57,42.31,19.56,42.63,19.56Z"/><path class="cls-3" d="M67.43,24.25h-1c-1.82-.05-2.9-.95-2.88-2.4s1.1-2.26,3-2.28h1.94c1.51,0,2.46.67,2.5,2.27s-.9,2.31-2.39,2.41C68.21,24.27,67.82,24.25,67.43,24.25Z"/><path class="cls-3" d="M155.64,50.76c3.63,0,7.26,0,10.89,0,1.49,0,2.55.49,2.64,2.14s-1.06,2.5-2.55,2.51c-7.32.07-14.65.06-22,0-1.53,0-2.71-.82-2.68-2.45s1.19-2.25,2.79-2.23C148.38,50.79,152,50.76,155.64,50.76Z"/><path class="cls-2" d="M113.86,79.8c.26,15.83-13.1,29.29-29.24,29.24A29.28,29.28,0,1,1,113.86,79.8Z"/><path class="cls-3" d="M98.66,93c0,1.19.16,2.4-1.17,3-1.78.88-3.43-.36-3.48-2.73a12.62,12.62,0,0,0-2.12-6.92c-3.82-5.76-10.72-5.66-14.46.15a14.09,14.09,0,0,0-2.13,7.13c-.08,1.59-.75,2.46-2.23,2.63a2.4,2.4,0,0,1-2.44-2.67c.22-7.4,4.74-14.8,12.26-16a12.1,12.1,0,0,1,10.72,3.62A16.57,16.57,0,0,1,98.66,93Z"/><path class="cls-3" d="M93.58,65.74a8.86,8.86,0,0,1-8.82,8.88,9.07,9.07,0,0,1-9-9,9.26,9.26,0,0,1,8.92-9A9,9,0,0,1,93.58,65.74Z"/><path class="cls-4" d="M88.91,65.77a4.19,4.19,0,0,1-4.17,4.17,4.27,4.27,0,0,1-4.29-4.3,4.56,4.56,0,0,1,4.25-4.27A4.33,4.33,0,0,1,88.91,65.77Z"/></svg>