<svg id="Capa_1" data-name="Capa 1" xmlns="http://www.w3.org/2000/svg" viewBox="0 0 200 200"><defs><style>.cls-1{fill:#056766;}.cls-2{fill:#fefefe;}.cls-3{fill:#fdfdfd;}</style></defs><path class="cls-1" d="M0,170.63c1.24-1.61,2.94-1.76,4.81-1.72,3.34.08,3.34,0,3.34-3.36q0-50.48,0-101c0-7.18,4.07-12.62,10.61-14.26,2.69-.68,5.44-.39,8.17-.44h1.92a14.42,14.42,0,0,1-1-6.35,12,12,0,0,1,6.67-9.45q15.48-8.16,31-16.37Q77.86,11.18,90.25,4.62a19.62,19.62,0,0,1,19-.19c2.54,1.3,5.06,2.64,7.56,4,1.87,1,2.46,2.61,1.62,4.17s-2.48,1.92-4.38,1c-2.42-1.25-4.82-2.55-7.23-3.82a14.07,14.07,0,0,0-13.81,0Q65.19,24.49,37.32,39.22a6.06,6.06,0,0,0-3.66,5.53,6,6,0,0,0,3.58,5.57Q65.31,65.13,93.33,80a13.4,13.4,0,0,0,12.91.19c4.74-2.4,9.41-4.94,14.3-7.51l-8.92-10.18Q104.79,54.69,98,46.93a2.86,2.86,0,0,1-.27-3.9,2.74,2.74,0,0,1,3.49-.86,5.05,5.05,0,0,1,1.85,1.68q10.83,12.3,21.61,24.63c.84,1,1.41,1.29,2.7.6,11.66-6.25,23.37-12.4,35.06-18.6,3.34-1.77,4.61-4.59,3.55-7.69a6.91,6.91,0,0,0-3.71-3.8L125.78,19.73c-.93-.48-1.93-.91-2.3-2a2.79,2.79,0,0,1,.69-3.22,3,3,0,0,1,3.79-.25l16,8.44c6.77,3.58,13.52,7.18,20.31,10.73,7,3.69,9.18,8.58,6.89,16.45,1.46,0,2.87.1,4.26,0,10.2-.79,16.64,6.38,16.54,16.29-.32,33.52-.11,67-.16,100.57,0,1.77.43,2.32,2.23,2.24,2.18-.1,4.69-.72,5.95,2v9.74A16.24,16.24,0,0,1,194.89,192a19,19,0,0,1-13.81,5.78q-70.56,0-141.11,0c-7.1,0-14.19.08-21.28,0-8.34-.12-14-4.36-17.68-11.66-.83-1.68-.56-3.56-1-5.3Z"/><path class="cls-2" d="M151,63.14c4.35-2.3,8.7-4.59,13-6.91a4.19,4.19,0,0,1,2-.49c3.77,0,7.55,0,11.33,0,5.19.05,8.54,3.38,8.54,8.56q0,51.45,0,102.9c0,1.33-.31,1.75-1.7,1.75q-84.37-.06-168.73,0c-1.3,0-1.62-.35-1.62-1.62Q14,115.68,14,64a7.94,7.94,0,0,1,8-8.26c4-.11,8.08,0,12.11,0a3,3,0,0,1,1.31.26c4.52,2.36,9,4.75,13.7,7.21a2.66,2.66,0,0,1-1.82.31H25.85c-3.2,0-4.05.85-4.05,4v89.46c0,3.21.85,4.08,4,4.09,4.62,0,9.24,0,13.86,0,2.23,0,3.48-1.26,3.36-3.15-.1-1.65-1.22-2.65-3.21-2.67-3.38-.05-6.77-.11-10.15,0-1.61.07-2.06-.36-2.05-2,.06-16.3,0-32.61,0-48.92,0-11,0-22.09,0-33.13,0-1.54.4-1.94,1.93-1.92q11.33.12,22.65,0c1.38,0,1.7.38,1.72,1.73.06,5-.57,10,.55,15,2.47,11,9.52,17.56,20,21.09a78.38,78.38,0,0,0,47.67,1.13,7,7,0,0,1-.92,5.16c-1.68,2.62-3.18,5.35-4.71,8.06-3.68,6.55.44,13.62,8,13.66a18.13,18.13,0,0,0,3.69-.18,8.79,8.79,0,0,0,6-12.87,80,80,0,0,0-4.29-7.4,11,11,0,0,1-1.83-7,2.17,2.17,0,0,1,1.55-2.23,26.7,26.7,0,0,0,15.93-19.6c1-4.74.53-9.58.5-14.38,0-1.85.56-2.19,2.27-2.17,7.35.09,14.71.07,22.06,0,1.44,0,2,.21,2,1.86q-.09,41.11,0,82.24c0,1.68-.59,1.85-2,1.85q-58.29,0-116.59,0a20.26,20.26,0,0,0-2.34.08,2.85,2.85,0,0,0-.39,5.55,7.91,7.91,0,0,0,2.12.21H174c3.3,0,4.13-.85,4.13-4.17q0-44.62,0-89.26c0-3.32-.82-4.16-4.12-4.16h-23Z"/><path class="cls-2" d="M100,191.42q-39.84,0-79.66,0c-3.56,0-6.84-.67-9.64-3-4.11-3.37-5.18-7.89-4.86-12.93,0-.6.27-.8.83-.76.39,0,.78,0,1.17,0q33,0,66,0a2.15,2.15,0,0,1,2.54,1.83,13.22,13.22,0,0,0,12.2,9.33q11.41.28,22.84,0a13.29,13.29,0,0,0,12.33-9.69,1.72,1.72,0,0,1,2-1.46q33.38,0,66.76,0c1.48,0,1.64.49,1.64,1.76,0,7.78-3.62,13-10.24,14.58a19.19,19.19,0,0,1-4.66.32Z"/><path class="cls-2" d="M122.25,78.35c0,7.85,0,15.37,0,22.88,0,.76-.4,1-1,1.16a71.31,71.31,0,0,1-47.9-1.93,21.44,21.44,0,0,1-13.6-19.57c0-3.94,0-7.87,0-12.06L80.37,79.74c3.44,1.82,6.85,3.68,10.32,5.45a19.49,19.49,0,0,0,18.85-.13Z"/><path class="cls-2" d="M140.29,68.81c-.39,6,.7,11.81-.88,17.46a21,21,0,0,1-11,13.41c-.43-.51-.24-1-.24-1.5,0-7.14,0-14.27,0-21.41a2.1,2.1,0,0,1,1.32-2.22C133,72.75,136.47,70.84,140.29,68.81Z"/><path class="cls-2" d="M118,174.89c-1.3,3-3.35,5-6.45,5.11q-11.6.48-23.2,0c-3.1-.13-5.13-2.14-6.48-5.11Z"/><path class="cls-3" d="M125.19,118.19c1.34,2.33,2.63,4.42,3.76,6.6a3,3,0,0,1-2.65,4.52c-.71,0-1.43,0-2.14,0-2.61-.11-3.93-2.3-2.71-4.62C122.57,122.58,123.83,120.54,125.19,118.19Z"/><path class="cls-1" d="M68.75,141.65q13.86,0,27.71,0a12.49,12.49,0,0,1,1.94.08,2.85,2.85,0,0,1,.38,5.55,7.49,7.49,0,0,1-2.12.21H39.88c-2.2-.07-3.59-1.26-3.53-3s1.37-2.8,3.52-2.8q12.69,0,25.37,0Z"/><path class="cls-1" d="M58.77,135.16H40c-2.29,0-3.63-1-3.69-2.83s1.37-3,3.73-3H77.73c2.3,0,3.62,1.05,3.67,2.85s-1.28,3-3.71,3Z"/></svg>