<svg xmlns="http://www.w3.org/2000/svg" viewBox="0 0 481.8898 187.0866"><ellipse cx="91.8691" cy="94.1537" rx="83.5839" ry="79.8583" style="fill:#e4e4e4"/><path d="M145.64,133.953a26.861,26.861,0,1,1-18.6876-25.6116A26.8845,26.8845,0,0,1,145.64,133.953Z" style="fill:#bcbcbc"/><path d="M164.3966,106.5034h-.01a122.2768,122.2768,0,0,0-22.62-7.16,129.5231,129.5231,0,0,0-27.22-2.86,127.0218,127.0218,0,0,0-47.03,8.86q-4.425,1.755-8.61,3.82c.26-1,.53-2,.84-2.99.05-.19.11-.38.17-.57.18-.59.37-1.18.57-1.76.1-.3.2-.59.3-.88s.2-.58.31-.87c.21-.61.44-1.21.67-1.8.09-.22.17-.43.25-.64.1-.24.19-.48.29-.72.1-.25.21-.5.32-.75a.3.3,0,0,1,.04-.08,127.9554,127.9554,0,0,0-18.7,2.57,122.2768,122.2768,0,0,0-22.62,7.16h-.01c-9.71-13.87-14.6-31.65-12.62-53.57a94.8879,94.8879,0,0,1,6.84-27.76,118.2445,118.2445,0,0,1,52.4-22.2c.87-.2,1.75-.38,2.63-.56a130.3441,130.3441,0,0,1,25.71-2.54c28.46,0,54.39,9.08,73.88,23.96a95.03,95.03,0,0,1,6.84,27.77C178.9966,74.8534,174.1066,92.6334,164.3966,106.5034Z" style="fill:#333"/><path d="M120.7278,60.4928a8.6672,8.6672,0,0,1-4.9367,7.6221q-2.721-.197-5.4976-.1952-2.2614,0-4.4871.1278a75.307,75.307,0,0,0-26.1433,6.2483,6.8888,6.8888,0,0,0-2.5937,1.96.0478.0478,0,0,1-.0119.0142q-2.0706,2.5934-3.9621,5.311c-.1949.28-.3858.5574-.5768.8379-.0477.0674-.0915.1349-.1352.1988-.2109.3159-.4217.6283-.6326.9443-.2386.3657-.4773.7349-.716,1.1041-.1392.22-.2824.44-.4216.6639-.06.0923-.1194.1881-.1751.28-.1511.2414-.3023.4829-.45.7243l-.1432.2343c-.1432.2378-.2864.4721-.4256.71-.1989.33-.3938.66-.5848.994-.175.2982-.3461.6-.5171.8982-.2387.4189-.4734.8378-.7,1.26-.1631.2947-.3222.5929-.4813.8911-.175.3266-.3461.6532-.5171.98q-.8652,1.6722-1.6628,3.3762c-.1353.2876-.2666.5787-.3978.8663q-1.0025,2.1833-1.8776,4.42c-.1114.27-.2148.54-.3182.8094-.1035.2592-.1989.5219-.2944.7846-.0876.2272-.1751.458-.2547.6887q-.3579.9745-.6881,1.9562c-.1075.3159-.2149.6319-.3143.9478-.1074.316-.2068.6319-.3063.9515q-.3043.9531-.5808,1.9135c-.06.2059-.1193.4118-.175.6177-.31,1.0792-.5927,2.1621-.8592,3.2555a89.8136,89.8136,0,0,0-2.538,21.2369c0,1.3562.0318,2.7017.0955,4.0436l.0119.2947a88.3535,88.3535,0,0,0,.9905,9.6777q.2268,1.4271.4933,2.8436a91.6284,91.6284,0,0,0,9.6188,26.7326c.0636.1171.1272.2343.1949.3514a93.947,93.947,0,0,0,5.0878,8.2328,110.2679,110.2679,0,0,1-44.51-32.9666c-.0159-.0177-.0278-.0355-.04-.05-.179-.2236-.354-.4473-.529-.671a99.39,99.39,0,0,1-5.8-8.2576v-.0035q-.8771-1.3953-1.7025-2.8153l-.004-.0035A90.8434,90.8434,0,0,1,7.7531,95.6392,89.913,89.913,0,0,1,12.292,67.4085a8.1162,8.1162,0,0,1,3.6637-4.4093q2.172-1.2728,4.4076-2.45,2.2019-1.1608,4.4633-2.233,3.0134-1.4273,6.1261-2.6946c.3461-.1384.6922-.2769,1.0383-.4118q1.957-.7775,3.958-1.484c.5609-.1988,1.1258-.394,1.6907-.5857.76,5.5311,4.9724,10.1143,10.653,11.971a14.4409,14.4409,0,0,0,8.0594-12.6243,13.1013,13.1013,0,0,0-.6007-3.9371,124.2257,124.2257,0,0,1,13.8871-1.6082h.004q3.7353-.2236,7.5383-.2236a124.4148,124.4148,0,0,1,30.1611,3.6744q2.6433.66,5.227,1.4307c1.0144.3017,2.0208.6141,3.0233.9443A8.7091,8.7091,0,0,1,120.7278,60.4928Z" style="fill:#bcbcbc"/><path d="M65.267,25.2662a24.187,24.187,0,0,1-8.0194,17.9809A24.94,24.94,0,0,1,44.6953,49.373a25.2677,25.2677,0,0,1-4.3791.38,25.5165,25.5165,0,0,1-6.3531-.7981,25.0648,25.0648,0,0,1-4.933-1.8421,25.3319,25.3319,0,0,1-3.8295-2.36,24.8012,24.8012,0,0,1-4.3262-4.1372,24.2676,24.2676,0,0,1-2.7-4.0379A23.9794,23.9794,0,0,1,15.361,25.2662c0-.7464.0352-1.4841.1011-2.2131A24.7742,24.7742,0,0,1,40.3162.784a25.1583,25.1583,0,0,1,4.3263.3667c.7518.1251,1.4905.289,2.22.4832A24.8015,24.8015,0,0,1,53.3,4.356q.1648.0971.33.2071A24.3391,24.3391,0,0,1,65.267,25.2662Z" style="fill:#bcbcbc"/><path d="M194.8054,104.8831v-4.85h14.5293v6.2041H207.91ZM212.0612,153.15l13.1055,1.3545v4.8486H194.8054v-4.8486L207.91,153.15Zm-10.3071-25.1269c0-9.3,0-18.6895-.271-27.9893h15.7026c-.27,9.1191-.27,18.5088-.27,27.9893V133.53c0,7.3857,0,16.5244.27,25.8232H201.4831c.271-9.1191.271-18.5088.271-27.9882Zm17.6914,8.6425H209.3347V131.6h10.227c7.9785,0,11.9214-5.543,11.9214-13.7949,0-8.3018-4.4194-12.5762-12.2822-12.5762h-9.8662v-5.1953h10.018c18.8311,0,26.31,7.0781,26.31,17.8369C245.6628,128.178,239.0363,136.6653,219.4455,136.6653Z" style="fill:#bcbcbc"/><path d="M249.9821,140.3929v-5.2862c0-4.9648-.09-6.7871-.271-10.3984l-5.5288-.8125V120.345l17.8159-6.0039,1.55.9688.8228,11.09v13.9932c0,5.5976.09,14.8974.271,18.96H249.7111C249.8918,155.29,249.9821,145.9905,249.9821,140.3929Zm-5.0776,14.7578,8.6284-1.8057h9.4927l8.6289,1.8057v4.2021h-26.75Zm12.793-26.6856h6.7749l-1.2149,2.4561c1.5864-11.0674,7.8755-16.58,13.2676-16.58a7.4762,7.4762,0,0,1,7.8437,6.6533c-.1958,4.6993-2.7978,7.3721-6.4091,7.3721-2.7281,0-4.8345-1.334-6.981-4.1865l-2.6328-3.4443,3.6421,1.3125a21.9367,21.9367,0,0,0-7.6675,12.5312l-6.623-.6514Z" style="fill:#bcbcbc"/><path d="M279.986,137.3538c0-13.88,10.0069-23.0127,22.93-23.0127,12.8735,0,22.9307,8.9375,22.9307,23.0127s-8.95,23.3682-22.9307,23.3682C288.8205,160.722,279.986,151.2347,279.986,137.3538Zm30.5694.1953c0-12.8144-2.5855-18.4931-7.6392-18.4931-5.104,0-7.6387,5.6787-7.6387,18.4931,0,12.8809,2.5347,18.459,7.6387,18.459C307.97,156.0081,310.5554,150.43,310.5554,137.5491Z" style="fill:#bcbcbc"/><path d="M327.9494,121.9036h-5.8252v-5.3808l10.7236-1.3536-4.8984,2.5918c.9028-10.3828,3.9761-15.4345,7.7134-18.9218a21.483,21.483,0,0,1,15.09-5.9629c5.0254,0,9.6944,1.6142,10.793,6.4785-.0508,3.43-2.4277,5.9922-6.46,5.9922-3.039,0-5.6113-1.88-8.1045-6.4365l-2.2089-3.08,8.8222-2.001.9688,2.6436a4.9443,4.9443,0,0,0-3.0645-1.2139c-3.1,0-5.584,2.5723-6.7773,4.5351-2.5977,4.2627-3.041,10.5723-2.3828,20.545v20.0537q0,9.48.2705,18.96h-14.93q.27-9.4789.2705-18.96Zm21.4829,33.2471v4.2021H322.801v-4.2021L331.7,153.345h9.2319Zm2.3692-39.44v6.1933H335.2092V115.71Z" style="fill:#bcbcbc"/><path d="M389.3425,133.4105a19.6387,19.6387,0,0,1-.502,4.86h-35.334v-4.77h16.9278c4.334,0,5.457-1.62,5.457-5.6465,0-5.9277-2.8359-8.8643-6.1133-8.8643-3.7588,0-7.1836,4.0938-7.1836,17.1348,0,11.0107,5.4532,15.9775,12.2012,15.9775a14.5052,14.5052,0,0,0,10.9473-4.8466l3.1191,2.9277c-3.707,7.0615-10.2012,10.5381-18.9394,10.5381-13.1407,0-22.4932-8.5918-22.4932-23.1621,0-15.0518,11.6045-23.2188,23.2558-23.2188C382.5905,114.3411,389.3425,122.4857,389.3425,133.4105Z" style="fill:#bcbcbc"/><path d="M433.3659,154.7855v4.2021H397.1843v-4.2021l11.5683-2.6231h13.8028Zm-11.4531-53.6973,1.2637.9023-.3614,12.8457v25.3614c0,6.125.0909,12.5351.2715,18.79h-15.126c.1807-6.2549.2705-12.665.2705-18.79V110.511l-8.7753.7979v-5.24Z" style="fill:#333"/><path d="M473.6052,130.5667c0,20.8281-10.1465,29.79-21.36,29.79-11.2637,0-21.2148-8.9619-21.2148-29.79,0-20.917,9.9511-29.8652,21.2148-29.8652C463.4587,100.7015,473.6052,109.65,473.6052,130.5667Zm-21.36,25.0762c4.2695,0,7.7227-4.9365,7.7227-25.0762,0-20.2793-3.4532-25.2158-7.7227-25.2158-4.32,0-7.5771,4.8457-7.5771,25.2158C444.6677,150.7972,447.9245,155.6429,452.2448,155.6429Z" style="fill:#333"/><path d="M201.2028,80.2982l6.8321-.9961h1.1845l6.2984.9961v3.5664h-14.315Zm18.8784-40.1563h6.8594l14.938,43.7227H230.528L219.1931,48.2073l2.4853-3.3535L208.9938,83.8646h-3.9355Zm-7.1464,27.1787h17.93l1.4937,3.8692H211.8244ZM224.1,80.4417l7.5049-.9961h4.4424l8.5219.9961v3.4229H224.1Z" style="fill:#333"/><path d="M252.1227,66.6849c0,7.6484,3.6827,11.8466,9.254,11.8466a9.5673,9.5673,0,0,0,7.4765-3.6943l2.312,2.043c-2.56,5.416-7.3364,7.9912-13.6264,7.9912-9.05,0-16.5337-5.8-16.5337-16.9668,0-10.8564,8.0234-17.1465,17.9384-17.1465,7.0118,0,11.9258,4.3711,12.4058,9.668-.7153,2.3789-2.0947,3.4638-4.4731,3.4638-2.6231,0-4.78-1.6162-5.1011-6.2949l-.606-4.7412,4.8277,2.7442a13.2514,13.2514,0,0,0-5.896-1.4209C256.2878,54.1771,252.1227,57.7054,252.1227,66.6849Z" style="fill:#333"/><path d="M282.757,65.3636c2.7412-.8037,7.4522-2.0479,10.5806-2.7891v2.7744a60.7124,60.7124,0,0,0-8.6587,2.6563c-3.0059,1.2695-4.9639,3.5058-4.9639,6.63,0,3.3271,1.75,4.8662,3.99,4.8662,1.27,0,2.3105-.5283,4.4341-2.0791l2.6694-2.002.69.9629L288.71,79.4105c-3.2177,3.41-5.2836,5.4609-10.101,5.4609-5.1353,0-8.7071-3.0283-8.7071-8.4922C269.902,71.6536,272.5173,68.33,282.757,65.3636Zm5.05,13.0625V61.8c0-5.8857-1.1406-7.623-5.38-7.623a23.2086,23.2086,0,0,0-6.2163.956l4.5728-2.5859-.48,4.6093c-.1665,4.417-2.3125,6.1983-4.872,6.1983a4.1569,4.1569,0,0,1-4.4737-3.3272c.3511-5.5253,5.6968-9.2695,15.26-9.2695,8.5171,0,11.8852,3.6,11.8852,12.4942V78.1448c0,1.3116.5464,1.9424,1.4986,1.9424.6977,0,1.2368-.3574,2.0151-1.4609L303.3752,79.8c-1.5938,3.625-3.9619,5.0156-7.9922,5.0156C290.8684,84.8157,288.3815,82.4466,287.8068,78.4261Z" style="fill:#333"/><path d="M316.9186,79.1107c3.1954,0,5.4239-2.3711,7.52-5.6182l.789,1.0742c-3.29,7.1025-7.3213,10.3047-13.22,10.3047-7.5264,0-13.2593-5.94-13.2593-16.7676,0-10.8125,7.1265-17.3457,14.6236-17.3457,5.75,0,8.5244,3.1563,11.5942,9.0547l-.6641,1.2949c-2.6059-3.1435-4.4956-4.7334-7.21-4.7334-4.0225,0-7.0928,3.7451-7.0928,11.5967C309.9992,75.27,312.8337,79.1107,316.9186,79.1107Zm17.9341,1.663v3.0909l-12.9873.76-.8554-5.9111V56.6692l.3906-.72V42.09l-4.6568-.664V38.6224l14.0411-2.9883,1.0737.6748-.2656,9.2861v38.27L327.0808,79.04Z" style="fill:#333"/><path d="M362.4177,64.7825a14.4444,14.4444,0,0,1-.3692,3.5752H336.0593V64.85H348.51c3.1875,0,4.0137-1.1914,4.0137-4.1533,0-4.3594-2.0859-6.5195-4.4961-6.5195-2.7656,0-5.2832,3.0117-5.2832,12.6035,0,8.0976,4.01,11.7509,8.9737,11.7509a10.6688,10.6688,0,0,0,8.0517-3.5644l2.293,2.1533c-2.7256,5.1934-7.502,7.751-13.9287,7.751-9.6651,0-16.5445-6.3193-16.5445-17.0361,0-11.07,8.5357-17.0772,17.105-17.0772C357.4518,50.7581,362.4177,56.7474,362.4177,64.7825Z" style="fill:#333"/><path d="M363.5612,83.8646c.1328-2.9883.1992-9.8282.1992-13.9454v-3.84c0-3.6523-.0185-5.04-.1992-7.6963l-4.0664-.5976V55.1732l13.1035-4.4151,1.14.7119.6055,7.3672v11.082c0,4.1172.0664,10.9571.1992,13.9454Zm14.001-3.0909v3.0909H360.0847V80.7737l6.1543-1.3281h5.0664ZM394.0729,62.181v7.7382c0,4.25.0664,10.9571.1993,13.9454H383.4831c.1328-2.9883.1992-9.6954.1992-13.9454V63.5267c0-4.6426-.9228-6.3477-3.8535-6.3477-2.8711,0-5.8916,2.3818-7.8848,4.8692h-2.4492V57.7669h4.1533l-1.9931,1.8662c4.0312-5.957,7.8515-8.875,12.8828-8.875C390.8239,50.7581,394.0729,54.5169,394.0729,62.181Zm-2.8945,17.2646,6.1133,1.3281v3.0909H380.15V80.7737l5.8672-1.3281Zm22.5293-16.9414v7.415c0,4.25.0664,10.9571.1992,13.9454h-10.789c.1328-2.9883.1992-9.6954.1992-13.9454V63.49c0-4.9971-1.0567-6.3106-3.7764-6.3106-2.8447,0-5.5381,1.8662-8.0586,4.8692h-2.36V57.6165h4.6875l-2.7188,2.0166c4.6992-6.8789,8.4151-8.875,12.9375-8.875C410.7311,50.7581,413.7077,54.6048,413.7077,62.5042ZM410.861,79.4456l6.2569,1.3281v3.0909H400.0241V80.7737l5.5313-1.3281Z" style="fill:#333"/><path d="M419.2233,83.8646c.1328-2.9883.1993-9.8282.1993-13.9454V66.75c0-3.6523-.0665-5.7109-.1993-8.3672l-4.1035-.5976V55.1732l13.9082-4.4151,1.14.7119-.1992,9.6358v8.8134c0,4.1172.0664,10.9571.1992,13.9454Zm14.1553-3.0909v3.0909H415.7575V80.7737l6.1553-1.3281H426.93ZM418.9528,40.556a5.64,5.64,0,1,1,5.628,5.2851A5.3413,5.3413,0,0,1,418.9528,40.556Z" style="fill:#333"/><path d="M443.8249,65.3636c2.74-.8037,7.4512-2.0479,10.58-2.7891v2.7744a60.6589,60.6589,0,0,0-8.6582,2.6563c-3.0059,1.2695-4.9649,3.5058-4.9649,6.63,0,3.3271,1.75,4.8662,3.99,4.8662,1.2695,0,2.31-.5283,4.4336-2.0791l2.67-2.002.69.9629-2.7881,3.0274c-3.2187,3.41-5.2842,5.4609-10.1015,5.4609-5.1348,0-8.7071-3.0283-8.7071-8.4922C430.9694,71.6536,433.5847,68.33,443.8249,65.3636Zm5.0488,13.0625V61.8c0-5.8857-1.1406-7.623-5.3789-7.623a23.2143,23.2143,0,0,0-6.2168.956l4.5723-2.5859-.4805,4.6093c-.166,4.417-2.3125,6.1983-4.8711,6.1983a4.1576,4.1576,0,0,1-4.4746-3.3272c.3516-5.5253,5.6973-9.2695,15.26-9.2695,8.5176,0,11.8857,3.6,11.8857,12.4942V78.1448c0,1.3116.5459,1.9424,1.499,1.9424.6973,0,1.2364-.3574,2.0147-1.4609L464.4421,79.8c-1.5938,3.625-3.961,5.0156-7.9922,5.0156C451.9362,84.8157,449.4489,82.4466,448.8737,78.4261Z" style="fill:#333"/><path d="M431.464,39.0945a10.1308,10.1308,0,1,1-7.0481-9.66A10.14,10.14,0,0,1,431.464,39.0945Z" style="fill:#bcbcbc"/></svg>