<svg xmlns="http://www.w3.org/2000/svg" viewBox="0 0 187.0866 187.0866"><ellipse cx="92.5728" cy="94.1537" rx="83.5839" ry="79.8583" style="fill:#cfe4c4"/><path d="M146.3434,133.953a26.861,26.861,0,1,1-18.6876-25.6116A26.8845,26.8845,0,0,1,146.3434,133.953Z" style="fill:#48b592"/><path d="M165.1,106.5h-.01a122.2734,122.2734,0,0,0-22.62-7.16,130.1915,130.1915,0,0,0-27.22-2.85,127.0182,127.0182,0,0,0-47.03,8.85q-4.425,1.755-8.61,3.83c.26-1.01.53-2.01.84-3,.05-.19.11-.38.17-.57.18-.59.37-1.18.57-1.76.1-.3.2-.59.3-.88s.2-.58.31-.87c.21-.6.44-1.2.67-1.8.09-.21.17-.42.25-.64.1-.24.19-.48.29-.72.1-.25.21-.5.32-.74.01-.03.03-.06.04-.09a127.9577,127.9577,0,0,0-18.7,2.58,122.2569,122.2569,0,0,0-22.62,7.15h-.01C12.33,93.97,7.44,76.19,9.42,54.27A95.0307,95.0307,0,0,1,16.26,26.5,118.3233,118.3233,0,0,1,68.68,4.3c.87-.19,1.74-.38,2.61-.55A130.3366,130.3366,0,0,1,97,1.21c28.46,0,54.39,9.07,73.88,23.96a94.891,94.891,0,0,1,6.84,27.76C179.7,74.85,174.81,92.63,165.1,106.5Z" style="fill:#056766"/><path d="M121.4315,60.4928a8.6672,8.6672,0,0,1-4.9367,7.6221q-2.721-.197-5.4976-.1952-2.2614,0-4.4871.1278a75.307,75.307,0,0,0-26.1433,6.2483,6.8888,6.8888,0,0,0-2.5937,1.96.0478.0478,0,0,1-.0119.0142q-2.0706,2.5934-3.9621,5.311c-.1949.28-.3858.5574-.5767.8379-.0478.0674-.0916.1349-.1353.1988-.2109.3159-.4217.6283-.6326.9443-.2386.3657-.4773.7349-.716,1.1041-.1392.22-.2824.44-.4216.6639-.06.0923-.1194.1881-.1751.28-.1511.2414-.3023.4829-.45.7243l-.1432.2343c-.1432.2378-.2864.4721-.4256.71-.1989.33-.3938.66-.5848.994-.175.2982-.3461.6-.5171.8982-.2387.4189-.4734.8378-.7,1.26-.1632.2947-.3223.5929-.4814.8911-.175.3266-.3461.6532-.5171.98q-.8652,1.6722-1.6628,3.3762c-.1353.2876-.2666.5787-.3978.8663q-1.0024,2.1833-1.8776,4.42c-.1114.27-.2148.54-.3182.8094-.1035.2592-.1989.5219-.2944.7846-.0876.2272-.1751.458-.2547.6887q-.3579.9745-.6881,1.9562c-.1074.3159-.2149.6319-.3143.9478-.1074.316-.2068.6319-.3063.9515q-.3043.9531-.5808,1.9135c-.06.2059-.1193.4118-.175.6177-.31,1.0792-.5927,2.1621-.8592,3.2555a89.8136,89.8136,0,0,0-2.538,21.2369c0,1.3562.0318,2.7017.0955,4.0436l.0119.2947a88.3535,88.3535,0,0,0,.99,9.6777q.2268,1.4271.4933,2.8436a91.6284,91.6284,0,0,0,9.6188,26.7326c.0636.1171.1272.2343.1949.3514a93.947,93.947,0,0,0,5.0878,8.2328,110.2679,110.2679,0,0,1-44.51-32.9666c-.0159-.0177-.0278-.0355-.04-.05-.179-.2236-.354-.4473-.529-.671a99.365,99.365,0,0,1-5.8-8.2576v-.0035q-.8772-1.3953-1.7026-2.8153l-.004-.0035A90.8434,90.8434,0,0,1,8.4568,95.6392a89.913,89.913,0,0,1,4.5389-28.2307,8.1162,8.1162,0,0,1,3.6637-4.4093q2.172-1.2728,4.4076-2.45,2.2019-1.1608,4.4633-2.233,3.0133-1.4273,6.1261-2.6946c.3461-.1384.6922-.2769,1.0383-.4118q1.9571-.7775,3.958-1.484c.5609-.1988,1.1258-.394,1.6907-.5857.76,5.5311,4.9724,10.1143,10.653,11.971a14.4409,14.4409,0,0,0,8.0594-12.6243,13.1013,13.1013,0,0,0-.6007-3.9371,124.2248,124.2248,0,0,1,13.8872-1.6082h.0039q3.7355-.2236,7.5383-.2236a124.4148,124.4148,0,0,1,30.1611,3.6744q2.6433.66,5.227,1.4307c1.0144.3017,2.0208.6141,3.0233.9443A8.7091,8.7091,0,0,1,121.4315,60.4928Z" style="fill:#48b592"/><path d="M65.9707,25.2662a24.187,24.187,0,0,1-8.0194,17.9809A24.94,24.94,0,0,1,45.399,49.373a25.2677,25.2677,0,0,1-4.3791.38,25.5165,25.5165,0,0,1-6.3531-.7981,25.0648,25.0648,0,0,1-4.933-1.8421,25.3319,25.3319,0,0,1-3.8295-2.36,24.8012,24.8012,0,0,1-4.3262-4.1372,24.2676,24.2676,0,0,1-2.7-4.0379,23.9794,23.9794,0,0,1-2.8138-11.3114c0-.7464.0352-1.4841.1011-2.2131A24.7742,24.7742,0,0,1,41.02.784a25.1583,25.1583,0,0,1,4.3263.3667c.7518.1251,1.49.289,2.22.4832A24.8015,24.8015,0,0,1,54.0032,4.356q.1649.0971.33.2071A24.3391,24.3391,0,0,1,65.9707,25.2662Z" style="fill:#48b592"/></svg>