<svg xmlns="http://www.w3.org/2000/svg" viewBox="0 0 187.0866 187.0866"><ellipse cx="92.5459" cy="94.7707" rx="83.5839" ry="79.8583" style="fill:#e4e4e4"/><path d="M146.3165,134.57a26.861,26.861,0,1,1-18.6876-25.6116A26.8845,26.8845,0,0,1,146.3165,134.57Z" style="fill:#bcbcbc"/><path d="M165.07,107.1134h-.01a122.1478,122.1478,0,0,0-22.61-7.15,129.689,129.689,0,0,0-27.23-2.86,127.0572,127.0572,0,0,0-47.03,8.85q-4.425,1.7548-8.61,3.83c.26-1.01.54-2,.84-3,.06-.19.11-.38.17-.57.18-.58.37-1.17.57-1.76l.3-.87c.1-.29.21-.59.31-.88.22-.6.44-1.2.68-1.8.08-.21.16-.42.25-.63.09-.24.18-.49.29-.72.1-.25.2-.5.31-.75.01-.03.03-.06.04-.09a127.7428,127.7428,0,0,0-18.7,2.58,122.2768,122.2768,0,0,0-22.62,7.16c-9.71-13.87-14.61-31.65-12.62-53.57a94.7156,94.7156,0,0,1,6.84-27.77,118.29,118.29,0,0,1,52.45-22.21c.85-.19,1.72-.37,2.58-.54a130.16,130.16,0,0,1,25.7-2.54c28.46,0,54.39,9.08,73.88,23.96a95.0307,95.0307,0,0,1,6.84,27.77C179.67,75.4734,174.78,93.2534,165.07,107.1134Z" style="fill:#333"/><path d="M121.4046,61.11a8.6672,8.6672,0,0,1-4.9367,7.6222q-2.721-.1971-5.4976-.1953-2.2614,0-4.4871.1278A75.307,75.307,0,0,0,80.34,74.9128a6.89,6.89,0,0,0-2.5937,1.96.0478.0478,0,0,1-.0119.0142q-2.0706,2.5935-3.9621,5.311c-.1949.2805-.3858.5574-.5768.8379-.0477.0674-.0915.1349-.1352.1988-.2109.3159-.4217.6284-.6326.9443-.2386.3657-.4773.7349-.716,1.1041-.1392.22-.2824.44-.4216.6639-.06.0923-.1194.1882-.1751.28-.1511.2414-.3023.4828-.45.7242l-.1432.2343c-.1432.2379-.2864.4722-.4256.71-.1989.33-.3938.66-.5848.9941-.175.2982-.3461.6-.5171.8981-.2387.419-.4734.8379-.7,1.26-.1631.2947-.3222.5929-.4813.8911-.175.3266-.3461.6533-.5171.98q-.8652,1.672-1.6628,3.3761c-.1353.2876-.2666.5787-.3978.8663q-1.0025,2.1833-1.8776,4.42c-.1114.27-.2148.54-.3182.8094-.1035.2592-.1989.5219-.2944.7846-.0876.2272-.1751.458-.2547.6887q-.3579.9746-.6881,1.9562c-.1075.3159-.2149.6319-.3143.9479-.1074.3159-.2068.6319-.3063.9514q-.3043.9532-.5808,1.9135c-.06.2059-.1193.4118-.175.6177-.31,1.0793-.5927,2.1621-.8592,3.2555a89.8136,89.8136,0,0,0-2.538,21.2369c0,1.3562.0318,2.7017.0955,4.0436l.0119.2947a88.351,88.351,0,0,0,.9905,9.6777q.2268,1.4271.4933,2.8436a91.6273,91.6273,0,0,0,9.6188,26.7326c.0636.1171.1272.2343.1949.3515a93.9454,93.9454,0,0,0,5.0878,8.2327,110.2679,110.2679,0,0,1-44.51-32.9666c-.0159-.0177-.0279-.0355-.04-.05-.179-.2236-.354-.4473-.5291-.6709a99.4308,99.4308,0,0,1-5.8-8.2577v-.0035q-.8771-1.3953-1.7025-2.8153l-.004-.0035A90.8434,90.8434,0,0,1,8.43,96.2562a89.913,89.913,0,0,1,4.5389-28.2307,8.1165,8.1165,0,0,1,3.6637-4.4093q2.172-1.2728,4.4076-2.45,2.2019-1.1609,4.4633-2.233,3.0134-1.4271,6.1261-2.6946c.3461-.1384.6922-.2769,1.0383-.4118q1.957-.7774,3.958-1.4839c.5609-.1988,1.1258-.3941,1.6907-.5858.76,5.5311,4.9724,10.1143,10.653,11.9711a14.441,14.441,0,0,0,8.0594-12.6243,13.1008,13.1008,0,0,0-.6007-3.9371,124.2023,124.2023,0,0,1,13.8871-1.6083h.004q3.7353-.2237,7.5383-.2236a124.4134,124.4134,0,0,1,30.161,3.6744q2.6434.66,5.2271,1.4307c1.0144.3018,2.0208.6142,3.0233.9443A8.7093,8.7093,0,0,1,121.4046,61.11Z" style="fill:#bcbcbc"/><path d="M65.9438,25.8832a24.187,24.187,0,0,1-8.0194,17.9809A24.94,24.94,0,0,1,45.3721,49.99a25.1919,25.1919,0,0,1-19.4947-4.62,24.7975,24.7975,0,0,1-4.3262-4.1372,24.2634,24.2634,0,0,1-2.7-4.0379,23.9791,23.9791,0,0,1-2.8138-11.3114c0-.7464.0352-1.484.1011-2.2131A24.7743,24.7743,0,0,1,40.993,1.401a25.1583,25.1583,0,0,1,4.3263.3667c.7518.1251,1.4905.289,2.22.4832A24.8028,24.8028,0,0,1,53.9762,4.973q.165.0972.33.2071A24.3391,24.3391,0,0,1,65.9438,25.8832Z" style="fill:#bcbcbc"/></svg>