<svg xmlns="http://www.w3.org/2000/svg" viewBox="0 0 481.8898 187.0866"><ellipse cx="91.8691" cy="94.1537" rx="83.5839" ry="79.8583" style="fill:#cfe4c4"/><path d="M145.64,133.953a26.861,26.861,0,1,1-18.6876-25.6116A26.8845,26.8845,0,0,1,145.64,133.953Z" style="fill:#48b592"/><path d="M164.3966,106.5h-.01a122.2768,122.2768,0,0,0-22.62-7.16,130.1915,130.1915,0,0,0-27.22-2.85,127.0182,127.0182,0,0,0-47.03,8.85q-4.425,1.755-8.61,3.83c.26-1.01.53-2.01.84-3,.05-.19.11-.38.17-.57.18-.59.37-1.18.57-1.76.1-.3.2-.59.3-.88s.2-.58.31-.87c.21-.6.44-1.2.67-1.8.09-.21.17-.42.25-.64.1-.24.19-.48.29-.72.1-.25.21-.5.32-.74.01-.03.03-.06.04-.09a127.9577,127.9577,0,0,0-18.7,2.58,122.2569,122.2569,0,0,0-22.62,7.15h-.01c-9.71-13.86-14.6-31.64-12.62-53.56a95.0307,95.0307,0,0,1,6.84-27.77,118.3233,118.3233,0,0,1,52.42-22.2c.87-.19,1.74-.38,2.61-.55a130.3366,130.3366,0,0,1,25.71-2.54c28.46,0,54.39,9.07,73.88,23.96a94.8879,94.8879,0,0,1,6.84,27.76C178.9966,74.85,174.1066,92.63,164.3966,106.5Z" style="fill:#056766"/><path d="M120.7278,60.4928a8.6672,8.6672,0,0,1-4.9367,7.6221q-2.721-.197-5.4976-.1952-2.2614,0-4.4871.1278a75.307,75.307,0,0,0-26.1433,6.2483,6.8888,6.8888,0,0,0-2.5937,1.96.0478.0478,0,0,1-.0119.0142q-2.0706,2.5934-3.9621,5.311c-.1949.28-.3858.5574-.5768.8379-.0477.0674-.0915.1349-.1352.1988-.2109.3159-.4217.6283-.6326.9443-.2386.3657-.4773.7349-.716,1.1041-.1392.22-.2824.44-.4216.6639-.06.0923-.1194.1881-.1751.28-.1511.2414-.3023.4829-.45.7243l-.1432.2343c-.1432.2378-.2864.4721-.4256.71-.1989.33-.3938.66-.5848.994-.175.2982-.3461.6-.5171.8982-.2387.4189-.4734.8378-.7,1.26-.1631.2947-.3222.5929-.4813.8911-.175.3266-.3461.6532-.5171.98q-.8652,1.6722-1.6628,3.3762c-.1353.2876-.2666.5787-.3978.8663q-1.0025,2.1833-1.8776,4.42c-.1114.27-.2148.54-.3182.8094-.1035.2592-.1989.5219-.2944.7846-.0876.2272-.1751.458-.2547.6887q-.3579.9745-.6881,1.9562c-.1075.3159-.2149.6319-.3143.9478-.1074.316-.2068.6319-.3063.9515q-.3043.9531-.5808,1.9135c-.06.2059-.1193.4118-.175.6177-.31,1.0792-.5927,2.1621-.8592,3.2555a89.8136,89.8136,0,0,0-2.538,21.2369c0,1.3562.0318,2.7017.0955,4.0436l.0119.2947a88.3535,88.3535,0,0,0,.9905,9.6777q.2268,1.4271.4933,2.8436a91.6284,91.6284,0,0,0,9.6188,26.7326c.0636.1171.1272.2343.1949.3514a93.947,93.947,0,0,0,5.0878,8.2328,110.2679,110.2679,0,0,1-44.51-32.9666c-.0159-.0177-.0278-.0355-.04-.05-.179-.2236-.354-.4473-.529-.671a99.39,99.39,0,0,1-5.8-8.2576v-.0035q-.8771-1.3953-1.7025-2.8153l-.004-.0035A90.8434,90.8434,0,0,1,7.7531,95.6392,89.913,89.913,0,0,1,12.292,67.4085a8.1162,8.1162,0,0,1,3.6637-4.4093q2.172-1.2728,4.4076-2.45,2.2019-1.1608,4.4633-2.233,3.0134-1.4273,6.1261-2.6946c.3461-.1384.6922-.2769,1.0383-.4118q1.957-.7775,3.958-1.484c.5609-.1988,1.1258-.394,1.6907-.5857.76,5.5311,4.9724,10.1143,10.653,11.971a14.4409,14.4409,0,0,0,8.0594-12.6243,13.1013,13.1013,0,0,0-.6007-3.9371,124.2257,124.2257,0,0,1,13.8871-1.6082h.004q3.7353-.2236,7.5383-.2236a124.4148,124.4148,0,0,1,30.1611,3.6744q2.6433.66,5.227,1.4307c1.0144.3017,2.0208.6141,3.0233.9443A8.7091,8.7091,0,0,1,120.7278,60.4928Z" style="fill:#48b592"/><path d="M65.267,25.2662a24.187,24.187,0,0,1-8.0194,17.9809A24.94,24.94,0,0,1,44.6953,49.373a25.2677,25.2677,0,0,1-4.3791.38,25.5165,25.5165,0,0,1-6.3531-.7981,25.0648,25.0648,0,0,1-4.933-1.8421,25.3319,25.3319,0,0,1-3.8295-2.36,24.8012,24.8012,0,0,1-4.3262-4.1372,24.2676,24.2676,0,0,1-2.7-4.0379A23.9794,23.9794,0,0,1,15.361,25.2662c0-.7464.0352-1.4841.1011-2.2131A24.7742,24.7742,0,0,1,40.3162.784a25.1583,25.1583,0,0,1,4.3263.3667c.7518.1251,1.4905.289,2.22.4832A24.8015,24.8015,0,0,1,53.3,4.356q.1648.0971.33.2071A24.3391,24.3391,0,0,1,65.267,25.2662Z" style="fill:#48b592"/><path d="M194.8054,104.8828v-4.8491h14.5293v6.2036H207.91Zm17.2558,48.2666,13.1055,1.3545v4.8491H194.8054v-4.8491l13.1049-1.3545Zm-10.3071-25.1269c0-9.2994,0-18.689-.271-27.9888h15.7026c-.27,9.1191-.27,18.5088-.27,27.9888V133.53c0,7.3852,0,16.5239.27,25.8232H201.4831c.271-9.1191.271-18.5088.271-27.9887Zm17.6914,8.6425H209.3347V131.6h10.227c7.9785,0,11.9214-5.543,11.9214-13.7944,0-8.3018-4.4194-12.5762-12.2822-12.5762h-9.8662v-5.1953h10.018c18.8311,0,26.31,7.0776,26.31,17.8369C245.6628,128.1782,239.0363,136.665,219.4455,136.665Z" style="fill:#48b592"/><path d="M249.9821,140.3931v-5.2862c0-4.9653-.09-6.7871-.271-10.3984l-5.5288-.813v-3.5508l17.8159-6.0034,1.55.9683.8228,11.09v13.9932c0,5.5976.09,14.8969.271,18.96H249.7111C249.8918,155.29,249.9821,145.9907,249.9821,140.3931Zm-5.0776,14.7578,8.6284-1.8057h9.4927l8.6289,1.8057v4.2021h-26.75Zm12.793-26.6861h6.7749l-1.2149,2.4561c1.5864-11.0674,7.8755-16.58,13.2676-16.58a7.4758,7.4758,0,0,1,7.8437,6.6528c-.1958,4.6993-2.7978,7.3726-6.4091,7.3726-2.7281,0-4.8345-1.334-6.981-4.1865l-2.6328-3.4444,3.6421,1.3121a21.9384,21.9384,0,0,0-7.6675,12.5312l-6.623-.6514Z" style="fill:#48b592"/><path d="M279.986,137.354c0-13.88,10.0069-23.0127,22.93-23.0127,12.8735,0,22.9307,8.937,22.9307,23.0127s-8.95,23.3682-22.9307,23.3682C288.8205,160.7222,279.986,151.2344,279.986,137.354Zm30.5694.1953c0-12.8149-2.5855-18.4936-7.6392-18.4936-5.104,0-7.6387,5.6787-7.6387,18.4936,0,12.88,2.5347,18.4585,7.6387,18.4585C307.97,156.0078,310.5554,150.43,310.5554,137.5493Z" style="fill:#48b592"/><path d="M327.9494,121.9038h-5.8252v-5.3809l10.7236-1.354-4.8984,2.5918c.9028-10.3828,3.9761-15.4345,7.7134-18.9213a21.4814,21.4814,0,0,1,15.09-5.9634c5.0254,0,9.6944,1.6147,10.792,6.479-.05,3.43-2.4267,5.9922-6.459,5.9922-3.039,0-5.6113-1.88-8.1045-6.437l-2.2089-3.08,8.8222-2.0015.9688,2.6436a4.9448,4.9448,0,0,0-3.0655-1.2139c-3.1,0-5.583,2.5727-6.7773,4.5351-2.5977,4.2627-3.04,10.5723-2.3828,20.545v20.0542q0,9.48.2715,18.96h-14.93q.27-9.48.2705-18.96Zm21.4819,33.2471v4.2021h-26.63v-4.2021l8.8994-1.8057h9.2319Zm2.3692-39.44v6.1934H335.2092V115.71Z" style="fill:#48b592"/><path d="M389.3425,133.41a19.636,19.636,0,0,1-.502,4.86H353.5056v-4.769h16.9277c4.334,0,5.458-1.6206,5.458-5.647,0-5.9277-2.8359-8.8638-6.1133-8.8638-3.7588,0-7.1836,4.0938-7.1836,17.1348,0,11.01,5.4532,15.977,12.2012,15.977a14.5035,14.5035,0,0,0,10.9473-4.8466l3.1181,2.9277c-3.706,7.062-10.2011,10.5386-18.9384,10.5386-13.1407,0-22.4932-8.5918-22.4932-23.1626,0-15.0513,11.6045-23.2183,23.2558-23.2183C382.5905,114.3413,389.3425,122.4854,389.3425,133.41Z" style="fill:#48b592"/><path d="M433.3659,154.7856v4.2022H397.1843v-4.2022l11.5683-2.623h13.8018Zm-11.4531-53.6977,1.2637.9028-.3614,12.8457v25.3614c0,6.125.0909,12.5351.2715,18.79h-15.126c.1807-6.2549.2705-12.665.2705-18.79V110.5107l-8.7763.7979v-5.24Z" style="fill:#056766"/><path d="M473.6052,130.5669c0,20.8276-10.1465,29.79-21.36,29.79-11.2637,0-21.2148-8.9624-21.2148-29.79,0-20.9175,9.9511-29.8652,21.2148-29.8652C463.4587,100.7017,473.6052,109.6494,473.6052,130.5669Zm-21.36,25.0757c4.2695,0,7.7227-4.9361,7.7227-25.0757,0-20.28-3.4532-25.2158-7.7227-25.2158-4.32,0-7.5771,4.8457-7.5771,25.2158C444.6677,150.7969,447.9245,155.6426,452.2448,155.6426Z" style="fill:#056766"/><path d="M201.2028,80.2979l6.8321-.9961h1.1845l6.2984.9961v3.5664h-14.315Zm18.8784-40.1558h6.8594l14.938,43.7222H230.528L219.1931,48.2075l2.4853-3.354L208.9938,83.8643h-3.9355Zm-7.1464,27.1787h17.93l1.4937,3.8691H211.8244ZM224.1,80.4414l7.5049-.9961h4.4424l8.5219.9961v3.4229H224.1Z" style="fill:#056766"/><path d="M252.1227,66.6846c0,7.6484,3.6827,11.8471,9.254,11.8471a9.5688,9.5688,0,0,0,7.4765-3.6943l2.312,2.0425c-2.56,5.416-7.3364,7.9912-13.6264,7.9912-9.05,0-16.5337-5.8-16.5337-16.9663,0-10.8569,8.0234-17.147,17.9384-17.147,7.0118,0,11.9258,4.3711,12.4058,9.6685-.7153,2.3789-2.0947,3.4633-4.4731,3.4633-2.6231,0-4.78-1.6157-5.1011-6.2944l-.606-4.7417,4.8277,2.7446a13.2527,13.2527,0,0,0-5.896-1.4209C256.2878,54.1772,252.1227,57.7051,252.1227,66.6846Z" style="fill:#056766"/><path d="M282.757,65.3638c2.7412-.8042,7.4522-2.0479,10.5806-2.7891v2.7739a60.777,60.777,0,0,0-8.6587,2.6563c-3.0059,1.27-4.9639,3.5063-4.9639,6.63,0,3.3276,1.75,4.8662,3.99,4.8662,1.27,0,2.3105-.5279,4.4341-2.0791l2.6694-2.002.69.9634L288.71,79.4106c-3.2177,3.41-5.2836,5.46-10.101,5.46-5.1353,0-8.7071-3.0283-8.7071-8.4922C269.902,71.6538,272.5173,68.33,282.757,65.3638Zm5.05,13.062V61.8c0-5.8852-1.1406-7.6226-5.38-7.6226a23.21,23.21,0,0,0-6.2163.9561l4.5728-2.5859-.48,4.6088c-.1665,4.4175-2.3125,6.1988-4.872,6.1988a4.1574,4.1574,0,0,1-4.4737-3.3272c.3511-5.5258,5.6968-9.27,15.26-9.27,8.5171,0,11.8852,3.6,11.8852,12.4946V78.145c0,1.3111.5464,1.9424,1.4986,1.9424.6977,0,1.2368-.3579,2.0151-1.4609L303.3752,79.8c-1.5938,3.6255-3.9619,5.0161-7.9922,5.0161C290.8684,84.8159,288.3815,82.4468,287.8068,78.4258Z" style="fill:#056766"/><path d="M316.9186,79.1108c3.1954,0,5.4239-2.3715,7.52-5.6186l.789,1.0742c-3.29,7.103-7.3213,10.3047-13.22,10.3047-7.5264,0-13.2593-5.94-13.2593-16.7671,0-10.8125,7.1265-17.3462,14.6236-17.3462,5.75,0,8.5244,3.1563,11.5942,9.0547l-.6641,1.2954c-2.6059-3.1435-4.4956-4.7334-7.21-4.7334-4.0225,0-7.0928,3.7451-7.0928,11.5967C309.9992,75.27,312.8337,79.1108,316.9186,79.1108Zm17.9341,1.6626v3.0909l-12.9873.76-.8554-5.9106V56.6689l.3906-.72V42.09l-4.6568-.664V38.6221l14.0411-2.9883,1.0737.6753-.2656,9.2856v38.27L327.0808,79.04Z" style="fill:#056766"/><path d="M362.4177,64.7827a14.4444,14.4444,0,0,1-.3692,3.5752H336.0593V64.85h12.45c3.1875,0,4.0146-1.1919,4.0146-4.1533,0-4.36-2.0859-6.52-4.4971-6.52-2.7646,0-5.2832,3.0113-5.2832,12.6031,0,8.0981,4.0108,11.7514,8.9747,11.7514a10.6653,10.6653,0,0,0,8.0507-3.5649l2.294,2.1533c-2.7256,5.1939-7.503,7.751-13.9287,7.751-9.6651,0-16.5445-6.3193-16.5445-17.0361,0-11.07,8.5347-17.0772,17.105-17.0772C357.4509,50.7578,362.4177,56.7476,362.4177,64.7827Z" style="fill:#056766"/><path d="M363.5612,83.8643c.1328-2.9883.1992-9.8282.1992-13.9454v-3.84c0-3.6523-.0185-5.04-.1992-7.6963l-4.0674-.5976V55.1733l13.1045-4.4155,1.14.7119.6055,7.3677V69.9189c0,4.1172.0664,10.9571.1992,13.9454Zm14.001-3.0909v3.0909H360.0847V80.7734l6.1543-1.3281h5.0654Zm16.5107-18.5927v7.7382c0,4.25.0664,10.9571.1993,13.9454H383.4831c.1328-2.9883.1992-9.6954.1992-13.9454V63.5264c0-4.6426-.9228-6.3472-3.8535-6.3472-2.8711,0-5.8916,2.3818-7.8857,4.8691h-2.4483V57.7666h4.1533l-1.9931,1.8662c4.0312-5.9565,7.8506-8.875,12.8828-8.875C390.8239,50.7578,394.0729,54.5171,394.0729,62.1807Zm-2.8945,17.2646,6.1133,1.3281v3.0909H380.15V80.7734l5.8672-1.3281Zm22.5293-16.9409v7.4145c0,4.25.0664,10.9571.1992,13.9454h-10.79c.1328-2.9883.1992-9.6954.1992-13.9454v-6.43c0-4.9966-1.0557-6.31-3.7754-6.31-2.8447,0-5.5381,1.8657-8.0586,4.8691h-2.36V57.6162h4.6875l-2.7188,2.0166c4.6983-6.8784,8.4151-8.875,12.9375-8.875C410.73,50.7578,413.7077,54.605,413.7077,62.5044ZM410.861,79.4453l6.2569,1.3281v3.0909H400.0241V80.7734l5.5313-1.3281Z" style="fill:#056766"/><path d="M419.2233,83.8643c.1328-2.9883.1993-9.8282.1993-13.9454V66.75c0-3.6523-.0665-5.7109-.1993-8.3672l-4.1045-.5976V55.1733l13.9092-4.4155,1.14.7119-.1992,9.6358v8.8134c0,4.1172.0664,10.9571.1992,13.9454Zm14.1553-3.0909v3.0909H415.7575V80.7734l6.1543-1.3281h5.0176ZM418.9528,40.5557a5.64,5.64,0,1,1,5.628,5.2856A5.34,5.34,0,0,1,418.9528,40.5557Z" style="fill:#056766"/><path d="M443.8239,65.3638c2.7412-.8042,7.4522-2.0479,10.5811-2.7891v2.7739a60.7818,60.7818,0,0,0-8.6592,2.6563c-3.0059,1.27-4.9639,3.5063-4.9639,6.63,0,3.3276,1.75,4.8662,3.99,4.8662,1.2695,0,2.31-.5279,4.4336-2.0791l2.67-2.002.69.9634-2.7891,3.0273c-3.2177,3.41-5.2832,5.46-10.1005,5.46-5.1358,0-8.7071-3.0283-8.7071-8.4922C430.9694,71.6538,433.5847,68.33,443.8239,65.3638Zm5.05,13.062V61.8c0-5.8852-1.1406-7.6226-5.38-7.6226a23.2038,23.2038,0,0,0-6.2158.9561l4.5723-2.5859-.4805,4.6088c-.166,4.4175-2.3125,6.1988-4.8721,6.1988a4.1577,4.1577,0,0,1-4.4736-3.3272c.3516-5.5258,5.6973-9.27,15.26-9.27,8.5176,0,11.8857,3.6,11.8857,12.4946V78.145c0,1.3111.5459,1.9424,1.4981,1.9424.6982,0,1.2373-.3579,2.0156-1.4609L464.4421,79.8c-1.5938,3.6255-3.9619,5.0161-7.9922,5.0161C451.9352,84.8159,449.4489,82.4468,448.8737,78.4258Z" style="fill:#056766"/><path d="M431.464,39.0945a10.1308,10.1308,0,1,1-7.0481-9.66A10.14,10.14,0,0,1,431.464,39.0945Z" style="fill:#48b592"/></svg>