<svg id="Capa_1" data-name="Capa 1" xmlns="http://www.w3.org/2000/svg" viewBox="0 0 200 200"><defs><style>.cls-1{fill:#fefefe;}.cls-2{fill:#55c6a5;}.cls-3{fill:#803a1d;}.cls-4{fill:#056766;}.cls-5{fill:#262e5c;}.cls-6{fill:#1c234b;}.cls-7{fill:#fd3d3d;}.cls-8{fill:#79bdfd;}.cls-9{fill:#36406c;}.cls-10{fill:#feb69e;}.cls-11{fill:#fdb59e;}.cls-12{fill:#b96746;}.cls-13{fill:#444e83;}.cls-14{fill:#fbf8f9;}.cls-15{fill:#fb8b47;}</style></defs><path class="cls-1" d="M199.55,175.84c0,7.51,0,15,0,22.53,0,1.33-.27,1.59-1.6,1.59q-93-.08-186,0c-3.56,0-7.12,0-10.68,0-.84,0-1.15-.16-1-1a4.07,4.07,0,0,0,0-.78V.67q98.75,0,197.49,0c1.46,0,1.79.33,1.78,1.79q-.06,78,0,155.94c-.27-.78-.55-1.55-.81-2.33-1.72-5.22-7.4-9.87-12.59-10.05-4.18-.15-8.38,0-12.57,0H149.17c-3.45-5.56-8.47-7.91-14.53-6.62-4.82,1-7.85,4.19-9.72,8.61a16,16,0,0,0-7-2c-4,0-8,0-12,0H82.19c-3.43-5.1-8-7.8-14.32-6.78,0-2-.05-4-.05-6l-.06-37c0-.7.11-1.41.11-2.12q0-23.08,0-46.19c0-.56-.45-1.47.37-1.66a2,2,0,0,1,1.89,1.13,4.52,4.52,0,0,1,.45,2.44q0,10.86,0,21.73a8,8,0,0,0,.31,2.87c1.52,4.16,5.94,5.69,10,3.27,4.87-2.9,9.66-5.94,14.49-8.92q0,3.2.11,6.4c.07,4.26,2.51,6.78,6.77,6.79q40.77,0,81.54,0c4.27,0,6.77-2.52,6.78-6.77q0-28.35,0-56.7c0-4.35-2.56-6.91-6.86-6.91q-40.68,0-81.36,0c-4.22,0-6.84,2.54-6.86,6.71,0,11.13,0,22.27-.05,33.4,0,1.62.57,1.33,1.49.79,2.13,3.66,4.22,7.35,6.68,10.82a5.77,5.77,0,0,1-2.34,1.51c-2-3.18-4-6.33-5.87-9.58-.72-1.26-1.25-1.35-2.44-.56-2.92,2-6,3.74-9.26,5.79,0-3.92,0-7.45,0-11-.1-6.93-3-12.23-9.44-15.13-4.5-2-9.35-1.5-14.11-1.21a40.15,40.15,0,0,0-6.3-.1L47,32.93,40.43,33c-2.33,0-4.66,0-7,0-9.34.16-16.25,6.45-16.37,15.39-.19,14.56,0,29.13-.08,43.69,0,1.05.35,1.31,1.34,1.3,3.3-.05,6.61-.12,9.9,0,1.68.08,2-.48,2-2-.06-13.72,0-27.44,0-41.17a10.36,10.36,0,0,1,.06-1.93,2.16,2.16,0,0,1,2.28-2c.95.1.44,1.29.44,2Q33,70.47,33,92.7c0,1.17,0,2.33.07,3.49l0,18.94c-.26,0-.51.07-.77.08a13,13,0,0,0-10.88,19.2c2.46,4.62,6.45,6.89,11.67,7L33,145.54l-7,.09c-3.17,0-6.34-.09-9.51,0C8.1,145.8,1.91,151,.88,159.13.42,162.7.77,166.36.75,170c0,1.36,0,2.72-.06,4.07-.07,1.14.41,1.45,1.47,1.42,2-.06,4,0,6,0,5.5,0,5.5,0,5.28-5.49,0-2.78,0-5.55,0-8.33a3.64,3.64,0,0,1,.5-2.23,1.56,1.56,0,0,1,1.48-.75c.74.13.4.85.4,1.29,0,4.46.1,8.93,0,13.38,0,1.68.37,2.2,2.12,2.18,7.69-.09,15.39,0,23.08,0a16.51,16.51,0,0,0-2.72,6.29c-.63,4-.28,7.94-.26,11.92,0,1.42,0,2.85-.07,4.26-.08,1.15.4,1.45,1.46,1.41,2-.06,4,0,6,0,1.73-.06,4.06.78,5-.36s.28-3.47.25-5.27c0-2.71.06-5.43,0-8.15a3.5,3.5,0,0,1,.65-2.37,1.5,1.5,0,0,1,1.31-.7c.74.14.43.84.43,1.28,0,4.6.06,9.19,0,13.79,0,1.36.24,1.93,1.79,1.92q15.23-.1,30.47,0c1.35,0,1.78-.39,1.76-1.75-.07-4.59,0-9.19,0-13.78,0-.51-.35-1.26.48-1.47.63-.15,1.06.34,1.48.75a2.53,2.53,0,0,1,.6,1.59c0,4.45,0,8.9,0,13.35,0,.95.38,1.22,1.26,1.21,2.07,0,4.13,0,6.19,0,1.72-.06,4,.79,5-.37s.28-3.46.25-5.26,0-3.47.1-5.2c.17-4.49-.11-8.86-2.75-12.74l8.2,0a18.22,18.22,0,0,0-2.46,6c-.68,4-.26,7.95-.32,11.92,0,1.29,0,2.58-.06,3.85s.29,2,1.8,1.89c1.85-.12,3.72,0,5.59,0,5.58,0,5.58,0,5.39-5.71,0-2.71,0-5.43,0-8.15a5.17,5.17,0,0,1,.17-1.72c.28-.74.84-1.48,1.69-1.35s.51,1.06.51,1.63c0,4.39.08,8.79,0,13.19,0,1.57.4,2.14,2.06,2.13q14.94-.09,29.89,0c1.62,0,1.92-.59,1.89-2-.07-4.53,0-9.06,0-13.59,0-.48-.22-1.11.41-1.36s1.11.14,1.56.53a2.53,2.53,0,0,1,.73,2.12c0,2.85,0,5.7,0,8.54,0,1.42,0,2.84,0,4.26,0,1.08.41,1.53,1.48,1.51,1.94,0,3.88.06,5.81,0,1.78-.08,4.11.84,5.2-.42s.25-3.46.28-5.26c0-2,0-4,.06-6,.21-4.25-.32-8.3-2.76-11.93,5.18,0,10.35-.07,15.52,0,1.26,0,1.68-.34,1.66-1.63-.07-4.6,0-9.19,0-13.78,0-.56-.43-1.45.53-1.6a1.83,1.83,0,0,1,1.72,1,3.59,3.59,0,0,1,.37,2.06c0,2.72.06,5.43.1,8.15,0,1.35,0,2.7-.08,4s.42,1.61,1.64,1.6C192.11,175.71,195.83,175.8,199.55,175.84ZM50.51,1.78C43.69,1.42,37.08,7.28,37,15.1a13.5,13.5,0,1,0,27,0A13.28,13.28,0,0,0,50.51,1.78Zm130,126.71a13.19,13.19,0,1,0-13.21,13.18A13.28,13.28,0,0,0,180.52,128.49Zm-67.18.13a13.09,13.09,0,0,0-13.06-13.3c-7.57.11-13.12,5.5-13.29,13.33-.15,7,6.05,13,13,13A13.18,13.18,0,0,0,113.34,128.62Zm-89.55-32c-1.8,0-3.61.06-5.41,0-1.36-.06-1.49.62-1.27,1.68a6.46,6.46,0,0,0,6.67,5A6.54,6.54,0,0,0,30.15,98c.15-.89,0-1.5-1.14-1.47C27.27,96.63,25.53,96.59,23.79,96.59Z"/><path class="cls-2" d="M186.83,170.1c0-2.72-.07-5.43-.1-8.15a3.59,3.59,0,0,0-.37-2.06,1.83,1.83,0,0,0-1.72-1c-1,.15-.53,1-.53,1.6,0,4.59-.07,9.18,0,13.78,0,1.29-.4,1.64-1.66,1.63-5.17,0-10.34,0-15.52,0a16.1,16.1,0,0,0-8.64-5.85c-2.66-.77-5.39-.26-8.08-.44,0-3.12,0-6.24,0-9.36,0-.5.56-1.62-.85-1.32-.37-.34-.18-.67,0-1a13.28,13.28,0,0,0-.16-11.91h12a9.51,9.51,0,0,0,12.44,0c4.19,0,8.39-.14,12.57,0,5.19.18,10.87,4.83,12.59,10.05.26.78.54,1.55.81,2.33V170Z"/><path class="cls-3" d="M186.83,170.1l12.72-.09v5.83c-3.72,0-7.44-.13-11.16-.1-1.22,0-1.77-.27-1.64-1.6S186.81,171.45,186.83,170.1Z"/><path class="cls-4" d="M101.29,64.78a5.77,5.77,0,0,0,2.34-1.51c2.77-1.38,3.16-3.89,3.14-6.6a10.68,10.68,0,0,0,1-.6l18.88-14.91c2.35-1.85,2.87-3.56,1.59-5.19s-3.11-1.52-5.43.28l-.31.23c-4.16,3.29-8.36,6.53-12.48,9.87-2.29,1.86-4.82,3.45-6.8,5.68-2.13-.63-4.25-1-6.25.42-.92.54-1.49.83-1.49-.79.07-11.13,0-22.27.05-33.4,0-4.17,2.64-6.71,6.86-6.71q40.68,0,81.36,0c4.3,0,6.85,2.56,6.86,6.91q0,28.35,0,56.7c0,4.25-2.51,6.76-6.78,6.77q-40.77,0-81.54,0c-4.26,0-6.7-2.53-6.77-6.79q-.06-3.21-.11-6.4C97.31,67.36,99.57,66.48,101.29,64.78Z"/><path class="cls-5" d="M33.06,96.19C33,95,33,93.87,33,92.7q0-22.23,0-44.46c0-.68.51-1.87-.44-2a2.16,2.16,0,0,0-2.28,2,10.36,10.36,0,0,0-.06,1.93c0,13.73,0,27.45,0,41.17,0,1.57-.3,2.13-2,2-3.29-.14-6.6-.07-9.9,0-1,0-1.34-.25-1.34-1.3,0-14.56-.11-29.13.08-43.69.12-8.94,7-15.23,16.37-15.39,2.33,0,4.66,0,7,0q3,7.92,6,15.83a84.77,84.77,0,0,0,4,10.25q0,18.48,0,36.94l-1.63.17Z"/><path class="cls-6" d="M50.42,96q0-18.47,0-36.94A94.8,94.8,0,0,0,54.7,47.36a101.64,101.64,0,0,0,5.44-14.24h0c4.76-.29,9.61-.82,14.11,1.21,6.42,2.9,9.34,8.2,9.44,15.13.05,3.53,0,7.06,0,11,3.31-2,6.34-3.84,9.26-5.79,1.19-.79,1.72-.7,2.44.56,1.87,3.25,3.9,6.4,5.87,9.58-1.72,1.7-4,2.58-5.9,4-4.83,3-9.62,6-14.49,8.92-4.05,2.42-8.47.89-10-3.27a8,8,0,0,1-.31-2.87q0-10.86,0-21.73a4.52,4.52,0,0,0-.45-2.44,2,2,0,0,0-1.89-1.13c-.82.19-.37,1.1-.37,1.66q0,23.1,0,46.19c0,.71-.07,1.42-.11,2.12L52,96.21Zm9.17-40.2c1,0,2.06,0,3.09,0S64,55.44,64,54.46s-.33-1.39-1.34-1.37c-2.06,0-4.12,0-6.18,0-.91,0-1.44.19-1.44,1.27s.34,1.53,1.44,1.46S58.56,55.82,59.59,55.82Z"/><path class="cls-7" d="M99.8,175.79c2.64,3.88,2.92,8.25,2.75,12.74-.07,1.73-.07,3.47-.1,5.2-3.54,0-7.08-.06-10.61,0-1.43,0-1.89-.39-1.89-1.85,0-2.35.36-4.73-.21-7.08a2.53,2.53,0,0,0-.6-1.59c-.42-.41-.85-.9-1.48-.75-.83.21-.47,1-.48,1.47,0,4.59-.06,9.19,0,13.78,0,1.36-.41,1.76-1.76,1.75q-15.24-.08-30.47,0c-1.55,0-1.82-.56-1.79-1.92.07-4.6,0-9.19,0-13.79,0-.44.31-1.14-.43-1.28a1.5,1.5,0,0,0-1.31.7,3.5,3.5,0,0,0-.65,2.37c0,2.72,0,5.44,0,8.15H38.07c0-4-.37-8,.26-11.92a16.51,16.51,0,0,1,2.72-6.29,17.07,17.07,0,0,1,8.68-5.62l2.67-.34,11.22.11c4,3.08,8.91,3.08,12.44,0l4.62-.2h2.41c2.43.28,4.89-.13,7.3.37A16.75,16.75,0,0,1,99.8,175.79Z"/><path class="cls-8" d="M150.21,169.59c2.69.18,5.42-.33,8.08.44a16.1,16.1,0,0,1,8.64,5.85c2.44,3.63,3,7.68,2.76,11.93-.1,2-.05,4-.06,6l-12.72-.06c0-2.84,0-5.69,0-8.54a2.53,2.53,0,0,0-.73-2.12c-.45-.39-.93-.78-1.56-.53s-.41.88-.41,1.36c0,4.53-.06,9.06,0,13.59,0,1.44-.27,2-1.89,2q-15-.12-29.89,0c-1.66,0-2.09-.56-2.06-2.13.09-4.4.05-8.8,0-13.19,0-.57.4-1.49-.51-1.63s-1.41.61-1.69,1.35a5.17,5.17,0,0,0-.17,1.72c0,2.72,0,5.44,0,8.15H105.22c.06-4-.36-8,.32-11.92a18.22,18.22,0,0,1,2.46-6,15.69,15.69,0,0,1,8.87-5.82l2.74-.4,11.69.06a9.49,9.49,0,0,0,12.4,0l4.21,0Z"/><path class="cls-8" d="M49.73,169.89a17.07,17.07,0,0,0-8.68,5.62c-7.69,0-15.39-.1-23.08,0-1.75,0-2.17-.5-2.12-2.18.12-4.45.05-8.92,0-13.38,0-.44.34-1.16-.4-1.29a1.56,1.56,0,0,0-1.48.75,3.64,3.64,0,0,0-.5,2.23c0,2.78,0,5.55,0,8.33L.75,170c0-3.62-.33-7.28.13-10.85,1-8.13,7.22-13.33,15.61-13.52,3.17-.07,6.34,0,9.51,0,4,3.24,8.6,3.25,13,.05l9.79-.12,3.21.33a13.6,13.6,0,0,1,5.77,1.94,1.7,1.7,0,0,1,0,.39c-1.58,7.09.52,12,6.69,15.68a6,6,0,0,1,.85.75c0,1.62-.08,3.24-.13,4.86l-1.55.15-11.23-.11c0-2.31,0-4.63,0-6.94a14.66,14.66,0,0,0-.46-2.83,1.51,1.51,0,0,0-1.69-1.26c-1,.06-.57,1-.57,1.54C49.66,163.34,49.71,166.61,49.73,169.89Z"/><path class="cls-5" d="M131.3,169.66l-11.69-.06c0-2.65,0-5.3,0-7.95a2.77,2.77,0,0,0-.76-2.31,1.66,1.66,0,0,0-1.57-.56c-.7.21-.37.87-.38,1.33,0,3.29,0,6.59,0,9.89a15.69,15.69,0,0,0-8.87,5.82l-8.2,0a16.75,16.75,0,0,0-9.41-5.95c-2.41-.5-4.87-.09-7.3-.37,0-3.19,0-6.38,0-9.57,0-.9-.19-1.36-1.17-1A15.79,15.79,0,0,0,82.19,146H93.47A9.67,9.67,0,0,0,106,146c4,0,8,0,12,0a16,16,0,0,1,7,2,14.08,14.08,0,0,0,1.6,11.45c1.47,2.3,3.68,3.7,5.89,5.12,0,1.68,0,3.36-.07,5Z"/><path class="cls-9" d="M57.77,147.83A13.6,13.6,0,0,0,52,145.89l0-49.68,15.79,0,.06,37c0,2,0,4,.05,6C63,140.28,59.74,143.32,57.77,147.83Z"/><path class="cls-10" d="M50.51,1.78A13.28,13.28,0,0,1,64,15.06a13.5,13.5,0,1,1-27,0C37.08,7.28,43.69,1.42,50.51,1.78Z"/><path class="cls-3" d="M180.52,128.49a13.19,13.19,0,1,1-26.37-.09,13.19,13.19,0,0,1,26.37.09Z"/><path class="cls-10" d="M113.34,128.62a13.18,13.18,0,0,1-13.33,13c-7,0-13.17-6-13-13,.17-7.83,5.72-13.22,13.29-13.33A13.09,13.09,0,0,1,113.34,128.62Z"/><path class="cls-11" d="M132.41,164.53c-2.21-1.42-4.42-2.82-5.89-5.12a14.08,14.08,0,0,1-1.6-11.45c1.87-4.42,4.9-7.59,9.72-8.61,6.06-1.29,11.08,1.06,14.53,6.62a13.25,13.25,0,0,1,.17,11.91c-.17.36-.36.69,0,1l-1.5,1.47a13.25,13.25,0,0,1-12.74,4.72Z"/><path class="cls-12" d="M57.77,147.83c2-4.51,5.19-7.55,10.1-8.61,6.32-1,10.89,1.68,14.32,6.78A15.79,15.79,0,0,1,82,158.86l-1.28,1.53a13.39,13.39,0,0,1-12.77,4.7c-.88-.07-1.65-.73-2.59-.44a6,6,0,0,0-.85-.75c-6.17-3.67-8.27-8.59-6.69-15.68A1.7,1.7,0,0,0,57.77,147.83Z"/><path class="cls-11" d="M33.05,141.42c-5.22-.12-9.21-2.39-11.67-7a13,13,0,0,1,10.88-19.2c.26,0,.51,0,.77-.07,6,.25,10.17,3.11,12.3,8.68A13.09,13.09,0,0,1,33.05,141.42Z"/><path class="cls-13" d="M33.05,141.42a13.09,13.09,0,0,0,12.28-17.6c-2.13-5.57-6.33-8.43-12.3-8.68l0-19H48.79v49.37l-9.79.12-6-.14Z"/><path class="cls-7" d="M54.7,47.36a94.8,94.8,0,0,1-4.27,11.72,84.77,84.77,0,0,1-4-10.25,6.76,6.76,0,0,0-.39-3.43,5.22,5.22,0,0,1,.83-4.94,3.67,3.67,0,0,0,0-5c-.61-.77-1.1-1.69,0-2.5l6.89.08c.21.23.41.47.62.71a2.91,2.91,0,0,1-.75,2,3.26,3.26,0,0,0,0,4.51,5.86,5.86,0,0,1,.89,5.67C54.52,46.31,53.9,46.89,54.7,47.36Z"/><path class="cls-12" d="M89.74,184.83c.57,2.35.22,4.73.21,7.08,0,1.46.46,1.88,1.89,1.85,3.53-.09,7.07,0,10.61,0,0,1.8.74,4.06-.25,5.26s-3.29.31-5,.37c-2.06.07-4.12,0-6.19,0-.88,0-1.27-.26-1.26-1.21C89.77,193.73,89.75,189.28,89.74,184.83Z"/><path class="cls-12" d="M38.07,193.72H50.74c0,1.8.75,4.08-.25,5.27s-3.29.3-5,.36c-2,.07-4,0-6,0-1.06,0-1.54-.26-1.46-1.41C38.1,196.57,38.05,195.14,38.07,193.72Z"/><path class="cls-10" d="M105.22,193.76h12.72c.19,5.71.19,5.71-5.39,5.71-1.87,0-3.74-.09-5.59,0-1.51.1-1.92-.49-1.8-1.89S105.21,195.05,105.22,193.76Z"/><path class="cls-10" d="M156.91,193.71l12.72.06c0,1.8.75,4.07-.28,5.26s-3.42.34-5.2.42c-1.93.09-3.87,0-5.81,0-1.07,0-1.52-.43-1.48-1.51C156.91,196.55,156.9,195.13,156.91,193.71Z"/><path class="cls-10" d="M23.79,96.59c1.74,0,3.48,0,5.22,0,1.15,0,1.29.58,1.14,1.47a6.54,6.54,0,0,1-6.37,5.19,6.46,6.46,0,0,1-6.67-5c-.22-1.06-.09-1.74,1.27-1.68C20.18,96.65,22,96.59,23.79,96.59Z"/><path class="cls-10" d="M.75,170l12.7,0c.22,5.49.22,5.49-5.28,5.49-2,0-4,0-6,0-1.06,0-1.54-.28-1.47-1.42C.77,172.7.74,171.34.75,170Z"/><path class="cls-11" d="M106.77,56.67c0,2.71-.37,5.22-3.14,6.6-2.46-3.47-4.55-7.16-6.68-10.82,2-1.39,4.12-1.05,6.25-.42A9.34,9.34,0,0,1,106.77,56.67Z"/><path class="cls-14" d="M47,32.93c-1.14.81-.65,1.73,0,2.5a3.67,3.67,0,0,1,0,5,5.22,5.22,0,0,0-.83,4.94,6.76,6.76,0,0,1,.39,3.43q-3-7.92-6-15.83Z"/><path class="cls-11" d="M33,145.54l6,.14c-4.4,3.2-9,3.19-13-.05Z"/><path class="cls-3" d="M173.58,146a9.51,9.51,0,0,1-12.44,0Z"/><path class="cls-11" d="M106,146a9.67,9.67,0,0,1-12.51,0Z"/><path class="cls-11" d="M54.48,33.72c-.21-.24-.41-.48-.62-.71a40.15,40.15,0,0,1,6.3.1h0c-.68,0-1.38,0-2,.13C56.89,33.42,55.57,32.77,54.48,33.72Z"/><path class="cls-1" d="M147.85,160.38l1.5-1.47c1.41-.3.84.82.85,1.32.05,3.12,0,6.24,0,9.36h-2.3Z"/><path class="cls-15" d="M106.77,56.67A9.34,9.34,0,0,0,103.2,52c2-2.23,4.51-3.82,6.8-5.68,4.12-3.34,8.32-6.58,12.48-9.87l.31-.23c2.32-1.8,4.17-1.9,5.43-.28s.76,3.34-1.59,5.19L107.75,56.07A10.68,10.68,0,0,1,106.77,56.67Z"/><path class="cls-1" d="M48.79,145.56V96.19L50.42,96l1.55.19,0,49.68Z"/><path class="cls-14" d="M54.48,33.72c1.09-.95,2.41-.3,3.61-.47.67-.1,1.37-.09,2-.13A101.64,101.64,0,0,1,54.7,47.36c-.8-.47-.18-1,0-1.51a5.86,5.86,0,0,0-.89-5.67,3.26,3.26,0,0,1,0-4.51A2.91,2.91,0,0,0,54.48,33.72Z"/><path class="cls-5" d="M59.59,55.82c-1,0-2.06,0-3.09,0s-1.45-.39-1.44-1.46.53-1.29,1.44-1.27c2.06,0,4.12,0,6.18,0,1,0,1.34.39,1.34,1.37s-.32,1.43-1.34,1.37S60.62,55.82,59.59,55.82Z"/><path class="cls-5" d="M67.9,165.09a13.39,13.39,0,0,0,12.77-4.7c0,3,0,6.05,0,9.08l-4.62.2-8.17-.12Z"/><path class="cls-14" d="M49.73,169.89c0-3.28-.07-6.55,0-9.83,0-.55-.42-1.48.57-1.54A1.51,1.51,0,0,1,52,159.78a14.66,14.66,0,0,1,.46,2.83c-.06,2.31,0,4.63,0,6.94Z"/><path class="cls-1" d="M80.68,169.47c0-3,0-6.05,0-9.08L82,158.86c1-.32,1.18.14,1.17,1,0,3.19,0,6.38,0,9.57Z"/><path class="cls-12" d="M67.89,169.55l8.17.12c-3.53,3.07-8.41,3.07-12.44,0l1.56-.15Z"/><path class="cls-2" d="M147.85,160.38l.06,9.21-4.21,0-8.62-.09,0-4.44A13.25,13.25,0,0,0,147.85,160.38Z"/><path class="cls-14" d="M116.87,170c0-3.3,0-6.6,0-9.89,0-.46-.32-1.12.38-1.33a1.66,1.66,0,0,1,1.57.56,2.77,2.77,0,0,1,.76,2.31c0,2.65,0,5.3,0,7.95Z"/><path class="cls-11" d="M135.08,169.54l8.62.09a9.49,9.49,0,0,1-12.4,0l1-.09Z"/><path class="cls-14" d="M67.89,169.55l-2.71,0c0-1.62.09-3.24.13-4.86.94-.29,1.71.37,2.59.44C67.89,166.58,67.89,168.06,67.89,169.55Z"/><path class="cls-14" d="M135.08,169.54l-2.74,0c0-1.68,0-3.36.07-5l2.7.57Z"/></svg>