<svg xmlns="http://www.w3.org/2000/svg" viewBox="0 0 200 200"><path d="M50.5458,131.6346q2.2144-5.5667,4.4313-11.1326a25.3919,25.3919,0,0,1,3.8357-6.0064c3.2023-2.7323,6.7348-4.8772,11.0076-5.2541a145.3688,145.3688,0,0,1,14.7392-.1137c2.3512,4.12,4.3549,8.435,6.9517,12.4178,2.4635,5.2926,5.4852,10.2875,8.2529,15.4174a33.9172,33.9172,0,0,0,3.598,6.1451c2.3458-4.2791,4.6334-8.3382,6.8082-12.457,1.6015-3.033,3.4935-5.9142,4.7949-9.105,2.5894-3.9865,4.5949-8.3,6.95-12.4174,3.7473-.023,7.4959.0047,11.2416-.0849a20.7763,20.7763,0,0,1,8.6743,1.655,136.3676,136.3676,0,0,1-6.2267,13.97,16.0208,16.0208,0,0,1-1.9346-.0892c-5.5136-.9051-11.0344-1.7752-16.5251-2.8044-1.2911-.242-1.45.1544-1.4364,1.2035.035,2.652.0255,5.3045.0339,7.9568l-.0834,27.254a1.2338,1.2338,0,0,0-.7773.5073c-2.4045,2.8639-4.7182,5.8147-7.27,8.5423a160.9558,160.9558,0,0,1-24.5023,21.3481c-2.1441,1.5208-4.5723,2.67-6.376,4.66-1.3762.3308-1.607-.364-1.6-1.5708.0411-7.2671.0191-14.5345.022-21.8018a3.504,3.504,0,0,0-.6095-2.3641c-4.4951-5.8491-5.7827-12.4585-4.5115-19.6458a1.0066,1.0066,0,0,0-.2932-.86c-.9235,1.6662-1.8638,3.3232-2.7675,5q-8.1665,15.1508-16.3231,30.3067c-.2135.3961-.4915.7576-.74,1.1332-.385-1.1916.3076-2.2817.3025-3.4544-.0442-10.1347-.0341-20.27-.04-30.4044l-.0177-12.4223C50.3724,135.327,49.8384,133.437,50.5458,131.6346Z" fill="#eb8c8c"/><path d="M84.56,109.1279a145.3414,145.3414,0,0,0-14.7393.1136c-4.2728.3769-7.8053,2.5218-11.0076,5.2541-.5934-5.0281-1.3644-10.039-1.2379-15.1294.1286-5.1742.7962-10.3284,2.9195-15.01C65.1923,73.9992,65.82,63.23,64.826,52.1448,63.071,32.5786,74.5686,15.8354,93.29,10.5029a8.7269,8.7269,0,0,1,.9548-.1639c.43.57,1.1312.5755,1.719.8a34.531,34.531,0,0,1,16.6609,12.7315,35.3275,35.3275,0,0,1,6.1591,22.896c-.5015-.1259-1.0141-.2184-1.5026-.3826A76.9306,76.9306,0,0,1,92.31,32.3154c-1.212-1.0124-1.7128-1.0959-2.4522.4616A41.4383,41.4383,0,0,1,76.2042,49.0011a2.4332,2.4332,0,0,0-1.0671,2.2973c.0373,4.81-.0167,9.62.0275,14.43a27.7556,27.7556,0,0,0,4.0792,14.2377c2.82,4.7059,6.8957,8.0381,11.5557,10.7543q.0057,2.7364.0113,5.4729c-.02,2.7635-.0087,5.5275-.0676,8.29a4.3566,4.3566,0,0,1-4.0669,4.5509C85.9741,109.1009,85.2654,109.0986,84.56,109.1279Z" fill="#8f4d2e"/><path d="M118.7842,46.7668a35.3275,35.3275,0,0,0-6.1591-22.896A34.531,34.531,0,0,0,95.9642,11.1393c-.5878-.2248-1.2886-.23-1.719-.8A35.5069,35.5069,0,0,1,120.4491,13.26c13.8717,7.275,21.06,18.9616,21.381,34.6978.1178,5.78-.6952,11.54-.4752,17.3332a43.31,43.31,0,0,0,3.369,15.47,49.9949,49.9949,0,0,1,4.1087,23.4994c-.2452,3.4217-.7763,6.823-1.1774,10.2335-1.8263-1.4416-3.5729-3.0055-5.8241-3.795a20.7726,20.7726,0,0,0-8.6742-1.6552c-3.7457.09-7.4943.0619-11.2416.0849-.2558-.0224-.5113-.0587-.7675-.0651-3.9606-.0981-5.4182-1.5892-5.433-5.5433-.0092-2.4429-.0357-4.8858-.0544-7.3286q-.0085-2.5409-.017-5.0817c.1793-.8528.9943-.9524,1.5791-1.3062,7.5263-4.5538,12.3293-11.052,13.69-19.798.9922-6.3786.1974-12.8389.411-19.2585.0235-.7067-.2464-1.15-.9313-1.2275-3.9338-.4452-7.6791-1.7514-11.5454-2.5011A1.35,1.35,0,0,1,118.7842,46.7668Z" fill="#82462b"/><path d="M115.6589,158.19q.0417-13.6269.0832-27.2542l31.1888,6.257-.0046,43.5549-15.56-3c-4.5564-.9284-9.1052-1.8974-13.6738-2.7611-1.4293-.27-2.0514-.7841-2.0184-2.3844C115.7731,167.8,115.6781,162.9942,115.6589,158.19Z" fill="#a26548"/><path d="M190.5335,130.9629q.0342,21.2682.0859,42.5365c.0026.8006-.249,1.1956-1.0254,1.2974-.7046.0924-1.4054.2142-2.1079.3228-.0019-2.9169.0386-5.8343-.0176-8.75a4.0706,4.0706,0,0,0-4.8751-4.1956q-4.8916.7362-9.7586,1.633c-2.9853.5493-4.06,1.9032-4.0731,4.938q-.0226,5.055-.03,10.11l-9.3223,1.9064-.0007-43.5582c3.4638-.67,6.932-1.318,10.39-2.0153Q180.17,133.097,190.5335,130.9629Z" fill="#8f4d2e"/><path d="M50.5458,131.6346c-.7074,1.8024-.1734,3.6924-.39,5.5293l-18.7038.0118c-3.2229-.165-6.46.2-9.6621-.6768a43.91,43.91,0,0,1-9.3379-4.2932,5.4449,5.4449,0,0,1-2.8038-4.8478c-.06-2.985-.0812-5.974,0-8.958.0812-2.99,2.7689-4.9857,5.1775-3.5126,6.006,3.6733,12.538,3.7557,19.1894,3.5371,1.098-.0361,2.1983-.0051,3.6384-.0051-1.0485-2.1542-2.0771-4.0681-2.9252-6.059a5.8744,5.8744,0,0,1,2.05-7.2546,6.0869,6.0869,0,0,1,7.4033.211c1.29,1.0181,1.7578,2.5511,2.3638,3.9671,1.07,2.5,2.02,5.0518,3.0441,7.5722a8.0845,8.0845,0,0,1,.6175,3.2123c-.0427,3.2454-.029,6.4918-.0026,9.7376C50.2093,130.4213,49.9492,131.1177,50.5458,131.6346Z" fill="#fdc8a3"/><path d="M115.6589,158.19c.0192,4.8044.1142,9.61.0152,14.4124-.033,1.6.5891,2.1141,2.0184,2.3844,4.5686.8637,9.1174,1.8327,13.6738,2.7611-.0163,4.6689-.0639,9.338-.0264,14.0064.0091,1.136-.2484,1.58-1.4949,1.5763q-26.5557-.0851-53.1117-.0828c1.8038-1.99,4.232-3.1393,6.3761-4.66a160.9558,160.9558,0,0,0,24.5023-21.3481c2.5517-2.7276,4.8654-5.6784,7.27-8.5423A1.2338,1.2338,0,0,1,115.6589,158.19Z" fill="#df7f7e"/><path d="M50.173,149.5863c.0061,10.1348-.004,20.27.04,30.4044.0051,1.1727-.6875,2.2628-.3025,3.4544-1.2675,4.9084-6.4477,7.7557-12,6.598a10.8631,10.8631,0,0,1-8.71-12.1684c.4522-3.9793.7409-7.978,1.0613-11.9713.4344-5.413.8292-10.8292,1.2408-16.2441Z" fill="#f49898"/><path d="M190.5335,130.9629q-10.367,2.115-20.7348,4.2253c-3.4583.6973-6.9265,1.3451-10.39,2.0151l-12.4775-.0107-31.1888-6.257c-.0082-2.6521.0013-5.3046-.0337-7.9566-.0138-1.0491.1453-1.4455,1.4364-1.2035,5.4907,1.0292,11.0115,1.8993,16.5251,2.8044a16,16,0,0,0,1.9346.0891,12.4748,12.4748,0,0,0,3.5306.7656c2.5168.5213,5.1655.5442,7.5238,1.6572a11.8,11.8,0,0,1,6.5265,7.97c.4062-1.8693,1.6136-3.2865,2.05-5.0228,4.4134-4.3251,10.3181-4.232,15.8154-5.2484,6.0328-1.1154,12.117-1.9511,18.1573-3.0291,1.291-.2305,1.4278.1885,1.4054,1.2322C190.5563,125.65,190.5563,128.3065,190.5335,130.9629Z" fill="#d3bc81"/><path d="M146.9309,137.1926l12.4775.0107q0,21.7794.0007,43.5587-2.3587.052-4.7174.1033l-7.7654-.1178Z" fill="#94573a"/><path d="M168.7314,178.8553q.0145-5.055.03-10.11c.0135-3.0348,1.0878-4.3887,4.0731-4.938q4.8651-.8952,9.7586-1.633a4.0706,4.0706,0,0,1,4.8751,4.1956c.0562,2.9155.0157,5.8329.0175,8.75-.002.71.0239,1.42-.0117,2.1279a3.0549,3.0549,0,0,1-2.6844,3.2493c-2.9094.4989-5.82.9911-8.7275,1.502-.5012.0881-.9887.2544-1.4824.3846a11.1542,11.1542,0,0,0-1.3384.0458C170.2775,182.8768,168.9819,181.8581,168.7314,178.8553Z" fill="#fdc8a2"/><path d="M50.173,149.5863l-18.67.073q-.0256-6.242-.0515-12.4838,9.3517-.0056,18.7037-.0116Q50.164,143.3753,50.173,149.5863Z" fill="#dfdedc"/><path d="M155.2353,130.04c-.4363,1.7363-1.6437,3.1535-2.05,5.0228a11.8,11.8,0,0,0-6.5265-7.97c-2.3583-1.113-5.007-1.1359-7.5238-1.6572a12.4748,12.4748,0,0,1-3.5306-.7656,136.3562,136.3562,0,0,0,6.2267-13.97c2.2511.79,3.9977,2.3536,5.824,3.7952C151.638,118.9658,153.1,124.6669,155.2353,130.04Z" fill="#df7f7e"/><path d="M168.7314,178.8553c.25,3.0028,1.5461,4.0215,4.51,3.5739a11.1542,11.1542,0,0,1,1.3384-.0458c-1.0629,4.4362-4.2072,7.4511-8.1232,7.7887a9.5605,9.5605,0,0,1-10.0246-5.8313c-.5537-1.171-1.1591-2.3177-1.7406-3.4755q2.3588-.0514,4.7175-.1033Q164.07,179.8083,168.7314,178.8553Z" fill="#df7f7e"/><path d="M115.66,96.1916c.0187,2.4429.0452,4.8858.0544,7.3287.0148,3.9541,1.4724,5.4452,5.433,5.5433.2562.0064.5117.0427.7675.0651-2.3551,4.1177-4.3606,8.4309-6.95,12.4174l-23.4537-.0005c-2.5968-3.9828-4.6005-8.2976-6.9517-12.4178.7058-.0292,1.4145-.0269,2.1167-.0934a4.3566,4.3566,0,0,0,4.0669-4.5509c.0589-2.7626.048-5.5266.0676-8.29a2.508,2.508,0,0,1,.7226.2426c4.96,3.67,10.57,3.6207,16.3319,2.9763C110.8087,99.0832,113.1561,97.4889,115.66,96.1916Z" fill="#fdc8a2"/><path d="M91.5113,121.5456l23.4537.0005c-1.3011,3.1908-3.1931,6.072-4.7946,9.105-2.1748,4.1188-4.4624,8.1779-6.8082,12.457a33.9172,33.9172,0,0,1-3.598-6.1451C96.9965,131.8331,93.9748,126.8382,91.5113,121.5456Z" fill="#dfdedc"/><path d="M112.72,58.72a4.7385,4.7385,0,0,1,3.03-5.57,5.5524,5.5524,0,0,1,3.05-.08q.015-3.015.05-6.05a2.3347,2.3347,0,0,1-.07-.25c-.5-.13-1.01-.22-1.5-.39A76.7987,76.7987,0,0,1,92.31,32.32c-1.21-1.02-1.71-1.1-2.45.46A41.4526,41.4526,0,0,1,76.2,49a2.4485,2.4485,0,0,0-1.06,2.3c.03,4.81-.02,9.62.02,14.43a27.8088,27.8088,0,0,0,4.08,14.24c2.82,4.7,6.9,8.03,11.56,10.75,4.54,1.84,9.2,3.11,14.17,2.73a14.0977,14.0977,0,0,0,4.5-.78c.75-2.05,2.45-3.44,3.63-5.19a33.7968,33.7968,0,0,0,5.73-19.2c.02-2.07-.02-4.15-.03-6.23C115.67,62.54,113.41,61.3,112.72,58.72ZM89.06,62.25a4.6809,4.6809,0,1,1,4.81-4.61A4.7307,4.7307,0,0,1,89.06,62.25Z" fill="#fdc8a2"/><path d="M90.8,90.7205c4.5429,1.8434,9.2019,3.1089,14.1674,2.7261a14.0735,14.0735,0,0,0,4.5058-.773,6.1023,6.1023,0,0,0,2.217-.39c1.3422-.3161,2.486-1.2934,3.9537-1.1734q.0084,2.5408.017,5.0817c-2.5043,1.2972-4.8517,2.8915-7.7951,3.2207-5.7617.6444-11.3715.6934-16.3319-2.9763a2.508,2.508,0,0,0-.7226-.2426Q90.8051,93.4571,90.8,90.7205Z" fill="#fdb684"/><path d="M115.6434,91.11c-1.4677-.12-2.6115.8573-3.9537,1.1734a6.1023,6.1023,0,0,1-2.217.39c.7468-2.05,2.4461-3.4414,3.63-5.1932a33.8711,33.8711,0,0,0,5.73-19.1992c.0166-2.0755-.0234-4.1514-.0374-6.2265a4.8633,4.8633,0,0,0,3.1466-4.4943c.02-2.2127-1.2781-3.563-3.1437-4.4859l.0486-6.0558c3.8663.75,7.6116,2.0559,11.5454,2.5011.6849.0776.9548.5208.9313,1.2275-.2136,6.42.5812,12.88-.411,19.2585-1.3605,8.746-6.1635,15.2442-13.69,19.798C116.6377,90.1576,115.8227,90.2572,115.6434,91.11Z" fill="#fcbf92"/><path d="M118.798,53.0745c1.8656.9229,3.1634,2.2732,3.1437,4.4859a4.8633,4.8633,0,0,1-3.1466,4.4943c-3.128.4883-5.3895-.7525-6.0747-3.3334a4.7405,4.7405,0,0,1,3.0338-5.57A5.4238,5.4238,0,0,1,118.798,53.0745Z" fill="#82462b"/><path d="M89.0631,62.2515A4.68,4.68,0,1,1,93.87,57.6366,4.7234,4.7234,0,0,1,89.0631,62.2515Z" fill="#82462b"/></svg>