<svg xmlns="http://www.w3.org/2000/svg" viewBox="0 0 200 200"><path d="M182.6007,199.9646H169.0138a6.7644,6.7644,0,0,1-3.1058-5.0221c-.8072-4.4141-1.809-8.793-2.5857-13.2119-.2473-1.4071-.55-2.3136-2.2149-2.1241a.9245.9245,0,0,1-1.1374-.9975c.0594-.6509.6466-.7092,1.1841-.713q2.802-.02,5.6033-.0359l5.3641-.0245,3.1056.0024,1.5449.0019,3.1073-.0053,5.3512.0293q2.7142.0152,5.4284.03c.6078.0032,1.2536.0323,1.2466.8442-.0067.7738-.6569.9857-1.2408.88-1.6838-.3044-1.892.819-2.1272,2.0078-.901,4.5532-1.9118,9.0872-2.6893,13.6611A5.8074,5.8074,0,0,1,182.6007,199.9646Z" fill="#fe669d"/><path d="M198.905,149.5c-1.1558,3.049-1.6757,6.2821-2.845,9.3418a65.89,65.89,0,0,1-10.0592,17.7123,2.6454,2.6454,0,0,0-.77,1.31l-5.3519-.0292a106.0674,106.0674,0,0,0,2.1085-12.7258c.1548-1.8209-.2749-3.7673.6106-5.5209,1.1915-1.8335,2.532-3.5571,3.8293-5.3141.9048-1.2255,2.3192-2.0623,2.784-3.6158,1.4468-1.2587,2.8728-2.5425,4.347-3.7683,1.2185-1.0132,2.3627-2.2265,4.1748-2.0532l1.1715.3929Z" fill="#bbbbbc"/><path d="M193.09,83.5036a20.0257,20.0257,0,0,1,4.4426.104c2.0412.4958.2329,2.7423,1.3727,3.7809v1.1646c-.0493.038-.1464.0915-.14.1115a1.7271,1.7271,0,0,0,.14.2767V102.14c-.4173.32-.3878.781-.3842,1.23a46.54,46.54,0,0,1-.75,7.6177c-.6222,3.951-.5918,3.9558-4.6776,3.9674q.0008-13.398.0017-26.796h4.5625l-.0041-.3793H193.09Q193.09,85.6417,193.09,83.5036Z" fill="#e6edfe"/><path d="M193.0933,114.9552c4.0857-.0117,4.0553-.0165,4.6775-3.9675a46.54,46.54,0,0,0,.75-7.6177c-.0036-.4491-.0331-.9106.3842-1.23v43.09l-1.1715-.3929a26.86,26.86,0,0,0,.3422-6.5063c-.0388-1.6462.7066-3.7292-.3356-4.8177-.9739-1.0171-3.0486-.173-4.63-.345l.0029-5.0059c1.878-2.1344,1.9537-4.9133,2.6254-7.4707.139-.5288-.4494-.68-.9282-.6868-.5729-.0082-1.1459-.0081-1.7188-.0116a1.1421,1.1421,0,0,1-.0019-.3807c1.0915-.2684,2.5086.68,3.2695-.7976,1.3027-2.5294.7092-3.4763-2.1215-3.4769-.3824,0-.7648-.0016-1.1472-.0025A1.1149,1.1149,0,0,1,193.0933,114.9552Z" fill="#fdfdfd"/><path d="M109.6277,199.2293c-1.0331.8845-2.4817-.21-3.5019.7353H94.0917c-1.7515-.6939-3.6317-.4883-5.4454-.7423a75.64,75.64,0,0,1-14.3192-3.369c7.64-.0609,15.2655-.4368,22.8806.2251,1.1179,2.4152,3.0229,3.2985,5.6383,3.1459C105.0988,199.0928,107.3665,199.2178,109.6277,199.2293Z" fill="#e6edfe"/><path d="M198.905,88.9413a1.7271,1.7271,0,0,1-.14-.2767c-.0065-.02.0906-.0735.14-.1115Z" fill="#fdfdfd"/><path d="M27.6275,161.1314c.2942-1.61-.0642-2.3009-1.8964-1.6632-1.6324.5682-3.3755.8112-5.0573,1.2464a8.3464,8.3464,0,0,1-10.4362-7.2639c-.3818-4.1651-.6354-8.3491-.7415-12.53-.0656-2.5836-.3305-5.1438-.4776-7.7162.2128-.7723-.2561-1.6742.4472-2.3534a77.5351,77.5351,0,0,0,10.5416-3.3383l.0408.0256.5922-.1179c.7884,1.8487.5215,3.924,1.2429,5.7871.2093,3.825,1.2176,7.5215,1.8335,11.3586a18.5742,18.5742,0,0,1,4.7026-6.5c2.2092-2.0312,4.9006-3.2889,7.4317-4.807l3.0658-.8807a5.32,5.32,0,0,0,.4885,1.0216,16.3918,16.3918,0,0,0,27.0656-1.6714l4.6784,1.5314a35.44,35.44,0,0,1,10.2218,8.33c2.2847,2.8738,4.0766,6.06,6.1221,9.0834a2.6159,2.6159,0,0,0,.765,1.5469,9.1326,9.1326,0,0,0,1.6008,3.0936,2.5843,2.5843,0,0,0,.7366,1.5616,9.4089,9.4089,0,0,0,1.5407,3.1082,2.7013,2.7013,0,0,0,.7548,1.5646l.4231,1.5582-10.8711,8.1705-.79-1.1772-.6522-1.2414q-.7664-1.5433-1.533-3.0867-.2816-.5618-.5624-1.1237L77.2964,161.32l-.3243.1216v3.1877l-.01,1.1872-.0881.7313a3.0746,3.0746,0,0,0-1.0742.343c-3.6819,3.1092-7.33,6.2588-11.0044,9.3764-4.6044,3.9063-9.253,7.7609-13.83,11.6991-2.615,2.25-5.4609,4.2436-7.7557,6.8567-4.7114.0358-9.4246.0069-14.1331.1432-1.6164.0468-1.383-.8893-1.3829-1.8488q.002-13.2669-.0026-26.5338c0-.7733-.0468-1.5465-.0717-2.32Z" fill="#6184f1"/><path d="M126.2486,13.9914c.8048-2.0942,2.6472-2.6728,4.5734-3.0744,6.4023-1.3347,11.7969.6372,16.4254,5.07l4.63,5.8043c.2731.5772.5219,1.1673.8227,1.73a51.2431,51.2431,0,0,1,6.5252,22.828c.2,7.2226,2.8677,13.37,6.7091,19.2109.0245.2445.1178.4307.3922.4638l-.0067-.048c-.0481.8508.5508,1.4234.9247,2.0813,3.2822,5.7752,5.32,11.8128,4.9291,18.6223-.5623,9.79-7.27,16.6272-17.1213,17.0588-4.5562.2-6.8661-2.65-5.6426-7.0545a148.6322,148.6322,0,0,0,3.4869-14.4786c.7961-4.6175,1.8574-9.2522.7541-13.9836a4.1236,4.1236,0,0,0-.8149-2.3392c-2.8175-3.8432-4.4288-8.26-6.0494-12.6739.2381-.953,1.1537-1.5,1.04-2.7734a105.1527,105.1527,0,0,1-.3018-16.6656,9.9521,9.9521,0,0,0-5.4069-9.9543,26.758,26.758,0,0,0-10.29-3.1961c-2.9711-.3584-3.0088-.3048-2.02,2.4692,1.3837,3.8824,1.19,7.4926-1.6954,10.6789-2.5189,2.782-2.5973,6.09-1.9727,9.4923a17.0763,17.0763,0,0,0,7.1531,11.1079c-.0686,1.1554-.2013,2.3114-.1925,3.4662.0177,2.3334-.6589,3.8771-3.4206,3.65-1.02-.0837-1.1951.6726-1.0241,1.5986.6788,3.6745,1.31,7.3579,1.9589,11.0379.18,3.4023.3224,6.8072.5493,10.2063a140.9,140.9,0,0,1-.3751,17.167c-.1235,2.2416-1.1913,4.0679-3.678,4.5815a2.4946,2.4946,0,0,0-1.4632-.8571c-8.5122-3.0255-11.888-9.8509-12.07-17.7545-.1274-5.5193,1.8646-10.7425,3.6146-15.9092,3.2889-9.7106,5.3574-19.5689,4.8962-29.9033a70.2354,70.2354,0,0,1,.3671-13.9025c.6766-4.3683,1.0939-8.8824,4.7456-12.1074.3335-.2945.7443-.6444.5649-1.1434C127.4973,13.7522,126.7727,14.1176,126.2486,13.9914Z" fill="#4d4c4c"/><path d="M86.841,5.1064l-.0033,1.5244V9.7631l.004,1.524-.0056,3.1336-.004,1.1428a.3908.3908,0,0,0-.0079.37q.0147,2.9636.0294,5.9269c-.0327,2.6482-.0509,5.2968-.1028,7.9449-.0414,2.1113-.8258,2.91-2.9406,2.9776a27.3933,27.3933,0,0,1-4.0693-.0192c-1.8023-.2131-2.2016.5378-2.1162,2.1838a15.1684,15.1684,0,0,1-.2387,4.9292c-2.5737-2.06-4.9787-3.9035-7.2818-5.8664A4.7281,4.7281,0,0,0,66.763,32.846q-19.1034.1113-38.2073.1334c-3.0084.0068-3.8958-.92-3.9186-3.9446-.0181-2.39-.0584-4.78-.0889-7.17l.0288-5.94c.021-3.7484.0338-7.4969.0659-11.2453.0222-2.5961.91-3.4822,3.48-3.482q27.5414.0024,55.0827-.0091A3.698,3.698,0,0,1,86.7079,2.76Q86.7745,3.9334,86.841,5.1064ZM55.6687,11.389q9.4086,0,18.8172-.0014c.5168,0,1.0343-.0087,1.55-.0356a.7375.7375,0,0,0,.7711-.71.7915.7915,0,0,0-.83-.8689c-.3866-.0243-.7753-.0223-1.163-.0223Q55.8028,9.75,36.7917,9.7547a7.3506,7.3506,0,0,0-1.5357.119.6977.6977,0,0,0-.5057.7393.6449.6449,0,0,0,.5592.6787,10.917,10.917,0,0,0,1.542.0937Q46.26,11.394,55.6687,11.389ZM49.0663,21.7565c-4.201,0-8.402-.0094-12.6029.01-.6579.003-1.6427-.2545-1.6664.7823-.0242,1.0585.9671.8219,1.624.8231q12.6028.0222,25.2058.0011c.6609-.0011,1.6488.246,1.668-.7817.0191-1.0226-.9551-.8256-1.6256-.8277C57.4683,21.75,53.2673,21.7565,49.0663,21.7565Z" fill="#17daa2"/><path d="M5.8515,43.645l5.1557-.1068,3.5194.0022,6.1031.0018c3.0379.02,6.075.0545,9.1122.0585,6.8521.0091,13.7042-.0092,20.5562.0109,2.2107.0066,3.3573.9168,3.37,2.858q.075,11.344.0043,22.6889A2.5108,2.5108,0,0,1,50.83,71.87c-1.6161.0032-3.2353.0649-4.8471-.0179-1.1759-.06-1.6149.3247-1.5554,1.53.0866,1.7565.0222,3.52.0222,5.7265-2.8763-2.3068-5.3436-4.2675-7.7876-6.2568a3.5941,3.5941,0,0,0-2.4255-.9977c-4.5236.0607-9.0481.0546-13.5722.0726l-6.1558.0082L5.85,71.8165a3.55,3.55,0,0,1-1.5039-3.3238c.0447-6.9683.0686-13.9376-.016-20.9052A4.6408,4.6408,0,0,1,5.8515,43.645Zm18.9321,7.6784c-5.0386,0-10.0772-.0061-15.1157.0073-.6763.0018-1.6311-.1928-1.699.7934-.08,1.1614.95,1.0108,1.69,1.0117q15.0188.0186,30.0376.0039c.7734,0,1.7665.0369,1.7127-1.0392-.0494-.9891-1.0307-.7677-1.7038-.7695C34.7315,51.3174,29.7575,51.3236,24.7836,51.3234Zm-6.9021,12.006c2.8389,0,5.6778.0053,8.5167-.0042.6278-.0021,1.4664.1255,1.5229-.7571.059-.9236-.7794-.8576-1.4119-.8585q-8.6134-.0124-17.227.0028c-.5494.0012-1.3034-.1209-1.3223.7245-.0209.9372.7628.8852,1.4049.8874C12.2037,63.3342,15.0426,63.3286,17.8815,63.3294Z" fill="#fed550"/><path d="M151.877,21.7917l-4.63-5.8044q18.3333-.0123,36.6665-.0192c5.4746.0041,9.11,3.63,9.1287,9.1258q.06,17.9449.0575,35.89-.0041,1.9468-.008,3.8936a1.15,1.15,0,0,0-.0022.3807q0,2.1385.0008,4.277a1.1849,1.1849,0,0,0,.0024.38q-.0016,6.6034-.003,13.2068a1.07,1.07,0,0,0-.0005.3819q0,2.1381,0,4.2762a1.1158,1.1158,0,0,0,.0052.3793q-.0009,13.398-.0017,26.796a1.118,1.118,0,0,0-.0025.38q-.0006,2.1385-.0008,4.277a1.1453,1.1453,0,0,0,.0018.3808q.0042,1.9477.0085,3.8955l0,.7576.0134,3.5159q-.0014,2.5031-.0029,5.0059l-6.2655.0025c.0211-.6451.0607-1.29.0607-1.9354q.0044-52.734.0018-105.468c0-3.2427-.7025-3.9311-4.0114-3.9358Q167.3866,21.8086,151.877,21.7917Z" fill="#b2bfc6"/><path d="M109.6277,199.2293c-2.2612-.0115-4.5289-.1365-6.7817-.005-2.6154.1526-4.52-.7307-5.6383-3.1459l-.0829-1.5422q.02-1.893.0412-3.7869a7.9387,7.9387,0,0,0,3.0971-4.9487c.1886-.9372-.0782-1.9434.433-2.83q20.8616.0151,41.7231.0254c1.7431,0,3.4863-.0653,5.2294-.1,2.2589.0174,4.5234.1388,6.7747.016,1.52-.083,1.8212.4719,1.7915,1.8718-.0891,4.1948-.1013,8.3945.005,12.5885.0378,1.493-.4379,1.808-1.8531,1.8029-14.0105-.05-28.0212-.03-42.0319-.0232C111.4324,199.1517,110.53,199.2022,109.6277,199.2293Zm22.678-4.34c2.973,0,5.9474.0568,8.9183-.02,1.9057-.05,4.4463.8714,5.5511-.4054,1.1511-1.33.2345-3.84.3629-5.8281.0692-1.072-.3108-1.5245-1.4353-1.4534-1.2874.0815-2.584.0186-3.8766.0186-7.4324,0-14.8653.0466-22.2968-.0349-1.7189-.0188-2.3486.5307-2.1759,2.2232a16.6268,16.6268,0,0,1,.0007,3.292c-.1634,1.6639.4058,2.29,2.1559,2.2445C123.7727,194.8147,128.04,194.8894,132.3057,194.89Zm-23.0537-3.7106a2.9317,2.9317,0,1,0-2.8938,2.9737A2.89,2.89,0,0,0,109.252,191.1789Z" fill="#17daa2"/><path d="M43.21,194.8228c2.2948-2.6131,5.1407-4.6066,7.7557-6.8567,4.5768-3.9382,9.2254-7.7928,13.83-11.6991C68.4706,173.1494,72.1183,170,75.8,166.8906a3.0739,3.0739,0,0,1,1.0747-.343q.0908,1.1866.18,2.3733l.01,1.5272q-.0009,1.3723-.002,2.7446-.0029.7635-.0053,1.5272l.0129,2.7451.0066,1.878.0039,9.3868-.0374,2.6858.0045,3.1246a2.5047,2.5047,0,0,1-.8515.3548Q59.7032,194.8787,43.21,194.8228Z" fill="#85a5f8"/><path d="M20.0074,127.5125a77.4874,77.4874,0,0,1-10.5417,3.3389c-.3941-3.6108-.1991-7.2643-.7889-10.8609a1.4182,1.4182,0,0,0-.0107-.3755,28.7769,28.7769,0,0,0-.0538-4.443c-.2909-1.8208.1764-3.8043-.855-5.4582A18.86,18.86,0,0,1,5.2212,97.6556c.4859-5.36,4.3564-7.7876,9.2821-5.95a11.5743,11.5743,0,0,1,3.4038,6.83c.8008-1.3764,1.5449-2.0367,2.7389-1.8625,1.33.5827,1.4337,1.6676,1.1447,2.8791-.3675,1.5405-.7733,3.072-1.1626,4.6073-.3719.88-.7643,1.7524-1.1107,2.6425-.484,1.2436-1.43,2.4257-1.3075,3.7665.5169,5.663,1.181,11.3126,1.7912,16.9671Z" fill="#fdc0b0"/><path d="M126.2486,13.9914c.5241.1262,1.2487-.2392,1.5168.5065.1794.499-.2314.8489-.5649,1.1434-3.6517,3.225-4.069,7.7391-4.7456,12.1074a70.2354,70.2354,0,0,0-.3671,13.9025c.4612,10.3344-1.6073,20.1927-4.8962,29.9033-1.75,5.1667-3.742,10.39-3.6146,15.9092.1825,7.9036,3.5583,14.729,12.07,17.7545a2.494,2.494,0,0,1,1.4631.8571,3.9326,3.9326,0,0,1-3.32.0545,29.0741,29.0741,0,0,1-8.7877-4.3654l-.5256-.3739a21.8315,21.8315,0,0,1-4.5643-19.7c1.061-4.6386,2.7723-9.0759,3.9366-13.6764a67.2511,67.2511,0,0,0,3.9025-19.9534c.37-8.6045-.7975-17.2843,1.31-25.8015a21.3308,21.3308,0,0,1,3.0475-6.2365C123.3434,15.0491,124.5529,14.0249,126.2486,13.9914Z" fill="#414040"/><path d="M14.5032,91.7057c-4.9256-1.8377-8.7961.59-9.282,5.95a18.86,18.86,0,0,0,2.5361,12.0582c1.0314,1.6539.5641,3.6374.855,5.4582a28.7769,28.7769,0,0,1,.0538,4.443c-5.21-.0153-5.1768-.0221-6.2339-5.2677A149.4615,149.4615,0,0,1,.4616,99.085C.0692,95.0132.2471,90.9637.1636,86.9056c-.0693-3.3674.024-3.4028,3.2635-3.4033q5.5283-.0009,11.0567-.0048-.0014,2.145-.0032,4.29H1.4006l.0033.3658h13.075Z" fill="#e6edfe"/><path d="M122.1089,16.0225a21.3336,21.3336,0,0,0-3.0476,6.2365c-.4405-.5158-1.0453-.427-1.618-.4266q-15.2947.0108-30.59.0285-.0147-2.9634-.0295-5.9272.3342-.0114.6687-.0225,15.9555.0255,31.911.0534C120.3055,15.9663,121.2072,16.0024,122.1089,16.0225Z" fill="#b2bfc6"/><path d="M20.6289,43.5422,14.5265,43.54q-.0231-2.7312-.046-5.4623c.0161-3.9388.2732-7.8947-.0073-11.8123-.437-6.1025,3.8514-10.8893,10.1037-10.3412q-.0143,2.97-.0288,5.94c-3.1453-.0253-3.8715.6938-3.8786,3.8388Q20.65,34.6227,20.6289,43.5422Z" fill="#b2bfc6"/><path d="M5.85,71.8165q4.3293.0592,8.6584.1181-.0126,5.5963-.0249,11.1929c-4.07-.0016-8.1417-.0513-12.2108.0219C.9157,83.1738.4157,82.7418.521,81.3833a69.1359,69.1359,0,0,1,1.2012-9.531Z" fill="#e6edfe"/><path d="M14.4836,83.1275q.0125-5.5965.0249-11.1929,3.0782-.0037,6.1567-.0082-.0091,12.3727-.02,24.7458c-1.1933-.1739-1.9374.4864-2.7382,1.8628a11.5743,11.5743,0,0,0-3.4038-6.83q-.0123-1.7755-.0242-3.552a.8858.8858,0,0,0,.0015-.3658q.0018-2.145.0032-4.29A.884.884,0,0,0,14.4836,83.1275Z" fill="#b2bfc6"/><path d="M5.85,71.8165l-4.1279.0358A3.4255,3.4255,0,0,1,.1428,68.5842C.1959,61.636.1666,54.6871.1669,47.7385c0-3.4874.6729-4.1625,4.1453-4.1485.5137.0021,1.0274.0359,1.54.055A4.6389,4.6389,0,0,0,4.33,47.5875c.0846,6.9676.0607,13.9369.016,20.9052A3.55,3.55,0,0,0,5.85,71.8165Z" fill="#fd6666"/><path d="M86.8361,14.4207l.0056-3.1336c5.8868.005,11.7763.1141,17.659-.0384a5.0682,5.0682,0,0,1,4.9166,2.6237C101.8484,14.8168,94.33,14.2408,86.8361,14.4207Z" fill="#e6edfe"/><path d="M193.09,83.1217q.0014-6.6035.003-13.2068c3.237.1106,2.9192-.7129,3.6122,2.9741.52,2.7653.948,5.5478,1.4059,8.3245.2224,1.3488-.1751,2.0915-1.7343,1.9288A31.7293,31.7293,0,0,0,193.09,83.1217Z" fill="#e6edfe"/><path d="M77.0478,194.54q-.0022-1.5624-.0046-3.1245c3.0966.6919,6.2348.3073,9.3562.3613,3.6733.5437,7.3313.9276,10.7664-1.0267l-.041,3.7859Z" fill="#e6edfe"/><path d="M86.8377,9.7631V6.6308c3.2269.0045,6.4646.175,9.6776-.0343,3.0751-.2,5.4621,1.0548,7.7465,3.1666Z" fill="#e6edfe"/><path d="M8.6768,119.9905c.59,3.5966.3948,7.25.7889,10.8609-.7033.6791-.2344,1.581-.4472,2.3533-.993-.058-1.211-.9-1.4885-1.5847A103.6116,103.6116,0,0,1,4.1,121.6028c-.3381-1.164-.1426-1.7912,1.2881-1.6331A29.87,29.87,0,0,0,8.6768,119.9905Z" fill="#e6edfe"/><path d="M86.841,5.1064q-.0666-1.173-.1331-2.346a18.75,18.75,0,0,1,8.1065,2.346Z" fill="#e6edfe"/><path d="M14.4805,38.078q.0229,2.731.046,5.4623l-3.5193-.0021C11.7109,41.4294,12.4239,39.3264,14.4805,38.078Z" fill="#e6edfe"/><path d="M193.0907,69.5353q0-2.1386-.0008-4.277a2.7106,2.7106,0,0,1,2.6339,3.3234C195.5345,70.3319,193.9846,69.2249,193.0907,69.5353Z" fill="#e6edfe"/><path d="M27.6275,161.1314l-.0075,3.1322c-.53-.0345-.7281-.4664-.95-.8362-.4329-.7212-1.7979-1.0926-1.3565-2.0164C25.6333,160.7417,26.8314,161.2514,27.6275,161.1314Z" fill="#e6edfe"/><path d="M193.0921,64.8776q.0039-1.9467.008-3.8936c1.3246.6806,1.2862,2.0619,1.44,3.2086C194.6614,65.0972,193.6585,64.7856,193.0921,64.8776Z" fill="#e6edfe"/><path d="M87.4928,15.9112q-.3343.0111-.6687.0225a.3907.3907,0,0,1,.008-.37Z" fill="#e6edfe"/><path d="M182.5984,159.5879c-.8855,1.7536-.4558,3.7-.6106,5.5209a106.0674,106.0674,0,0,1-2.1085,12.7258l-3.1072.0053q.0033-14.3288.0058-28.6574c0-.3871,0-.7748-.0186-1.1613-.02-.424-.1823-.7571-.6607-.7971-.5645-.0472-.8343.2561-.8565.7952-.0187.4512-.02.9033-.02,1.355q.0012,14.2319.0048,28.4637l-3.1056-.0024a80.3434,80.3434,0,0,1-2.1194-12.39c-.1631-1.9337.3155-3.9868-.5991-5.8526.7536-.8148.2434-1.8127.3932-2.7149l.04-1.1593c.6839-1.1042.1885-2.3311.3631-3.4883.5287-.4238.3113-1.0238.3683-1.559a64.8916,64.8916,0,0,1,2.6613-10.0874c.5731-1.5,1.06-3.6035,2.7727-3.5969,1.7049.0065,2.1819,2.1134,2.7656,3.6095a75.4905,75.4905,0,0,1,2.6668,10.08c.2637,1.8154.362,3.64.4556,5.4722A6.8048,6.8048,0,0,0,182.5984,159.5879Z" fill="#d4d5d5"/><path d="M169.403,159.593c.9146,1.8658.436,3.9189.5991,5.8526a80.3434,80.3434,0,0,0,2.1194,12.39l-5.3641.0245a29.8079,29.8079,0,0,0-3.5179-4.7074,12.6262,12.6262,0,0,0-1.9646-3.1018q-.38-.5811-.76-1.1624a6.9538,6.9538,0,0,0-1.5336-2.7054,2.8437,2.8437,0,0,0-.7708-1.58,12.3662,12.3662,0,0,0-1.55-3.5158c-.0725-.4011-.0462-.8416-.4448-1.1122a11.9461,11.9461,0,0,0-1.1342-3.109,2.7069,2.7069,0,0,0-.4518-1.5376l-.7708-2.7308a3.5686,3.5686,0,0,0-.3748-1.9637,13.0872,13.0872,0,0,1-.3462-4.4024c.1841-1.3.8109-2.0071,2.2546-1.3648a11.9652,11.9652,0,0,1,3.0484,2.0091c1.4465,1.2742,2.9068,2.5328,4.3614,3.798.0344.7783.5923,1.1661,1.1558,1.55l3.1054,3.8781.7153.813Z" fill="#bbbbbc"/><path d="M175.2271,177.838q-.0027-14.2318-.0048-28.4637c0-.4517.0011-.9038.02-1.355.0222-.5391.292-.8424.8565-.7952.4784.04.6406.3731.6607.7971.0183.3865.0187.7742.0186,1.1613q-.0018,14.3288-.0058,28.6574Z" fill="#bbbbbc"/><path d="M162.8023,150.6736c-1.4545-1.2653-2.9148-2.5239-4.3613-3.7981a11.9652,11.9652,0,0,0-3.0484-2.0091c-1.4437-.6423-2.07.0647-2.2546,1.3648a13.0879,13.0879,0,0,0,.3462,4.4025l-65.9911.04c-2.0454-3.0238-3.8373-6.21-6.122-9.0835A35.4443,35.4443,0,0,0,71.15,133.26c1.0326-.0215,2.0647-.06,3.097-.0618q18.9864-.0355,37.9729-.0618,16.46.03,32.919.0539c6.8412-.0005,13.6824-.0549,20.5221-.0849q7.4969.0177,14.9965.0349l6.1876.03,6.2656-.0025c1.581.172,3.6557-.6721,4.63.345,1.0422,1.0885.2968,3.1715.3356,4.8177a26.86,26.86,0,0,1-.3422,6.5063c-1.8121-.1733-2.9563,1.04-4.1748,2.0532-1.4742,1.2258-2.9,2.51-4.3471,3.7683l-7.7773.0186a75.4905,75.4905,0,0,0-2.6668-10.08c-.5837-1.4961-1.0607-3.603-2.7656-3.6095-1.7123-.0066-2.2,2.0972-2.7727,3.5969a64.8916,64.8916,0,0,0-2.6613,10.0874Z" fill="#78909c"/><path d="M147.6486,182.8952c-1.7431.0351-3.4863.1006-5.2294.1q-20.8615-.0021-41.7225-.0257-.5825-2.7783-1.1663-5.5561a2.6832,2.6832,0,0,0,1.1-3.183c-.3626-1.5329-1.6267-1.9722-3.0291-2.1233q-1.1722-2.5957-2.3445-5.1912c16.8726-.0049,33.7453.02,50.6176-.0611,1.7218-.0083,1.9017.7661,1.8534,2.05l0,1.5567V173.18q0,.7773,0,1.5545,0,1.3583,0,2.7165,0,.7789,0,1.5577,0,1.3575.0005,2.7153Zm-23.876-11.7377h-9.4874c-5.5219,0-5.4564,0-5.4692,5.5044-.004,1.7028.6654,2.0744,2.183,2.0411,3.4834-.0766,6.97-.024,10.4549-.024,5.1631,0,10.3269-.0413,15.4891.0278,1.3577.0181,1.8422-.4039,1.7419-1.7568a27.368,27.368,0,0,1,0-4.0626c.1022-1.36-.3868-1.7814-1.747-1.7579C132.5508,171.2051,128.1613,171.1576,123.7726,171.1575Z" fill="#fed550"/><path d="M147.7286,173.18v-2.7178c3.8523,0,7.7049.0111,11.5572-.0114.6751-.004,1.4316.2479,1.9893-.4a12.6338,12.6338,0,0,1,1.9644,3.1019Z" fill="#e6edfe"/><path d="M147.7286,177.4507q0-1.3583,0-2.7165c4.5112-.0008,9.0224-.0092,13.5334.009.4706.0019,1.1626-.2644,1.3334.4022.13.5086-.5667.6068-.8378.9287a4.308,4.308,0,0,1-3.7829,1.4077C154.5617,177.3848,151.1442,177.451,147.7286,177.4507Z" fill="#e6edfe"/><path d="M147.7288,181.7237q0-1.3578-.0005-2.7153l10.4161,0c-1.7239,1.4645-2.9435,2.9386-5.2141,2.7431C151.2084,181.6033,149.4635,181.7232,147.7288,181.7237Z" fill="#e6edfe"/><path d="M193.0949,88.1591a1.1158,1.1158,0,0,1-.0052-.3793h4.5636l.0041.3793Z" fill="#fdfdfd"/><path d="M193.09,119.6118q0-2.1386.0008-4.277c.3824.0009.7648.0025,1.1472.0025,2.8307.0006,3.4242.9475,2.1215,3.4769C195.5985,120.2916,194.1814,119.3434,193.09,119.6118Z" fill="#e6edfe"/><path d="M193.1134,128.1616q-.0066-1.7578-.0136-3.5158c.1967-.0968.5348-.163.5638-.2964.089-.409-.2846-.4094-.5634-.4613q-.0042-1.9477-.0085-3.8955c.573.0034,1.146.0033,1.7189.0115.4788.0069,1.0672.158.9282.6868C195.0671,123.2483,194.9914,126.0272,193.1134,128.1616Z" fill="#e6edfe"/><path d="M112.22,133.1365q-18.9866.03-37.9729.0618c-1.0323.0019-2.0644.04-3.097.0618q-2.34-.7657-4.6788-1.5308c-.5-.5115-1.1476-.4348-1.7847-.4971-2.8419-.2777-4.7611-1.0235-4.386-4.5784.08-.7583.02-1.5313.024-2.2976a21.8864,21.8864,0,0,0,9.7842-11.3137c1.7638-.6278,2.9222-2.03,4.1444-3.3207,1.1816-1.2479,2.08-2.6893,1.3632-4.4975a3.5906,3.5906,0,0,0-4.1371-2.3535,33.6944,33.6944,0,0,0-1.5854-6.3433c-.2861-.6607.0751-1.1143.311-1.6191a17.5652,17.5652,0,0,0,1.687-7.2848,5.746,5.746,0,0,0-5.4594-6.1053c-6.05-.1514-12.1057-.0968-18.1591-.1278-7.05-.56-13.3429,4.1988-13.43,10.784-.05,3.7408-1.2161,7.148-1.736,10.727-3.4664.0422-5.05,2.4844-3.4617,5.4025a9.54,9.54,0,0,0,4.6522,4.3386,22.9452,22.9452,0,0,0,10.18,11.889,32.5309,32.5309,0,0,0-.0392,3.6755c.1731,1.7984-.7148,2.6255-2.3132,2.9685a6.7632,6.7632,0,0,0-3.208,1.2029l-3.0659.8807-13.9677-.0514c-.7214-1.8631-.4545-3.9384-1.2425-5.7871q-.006-11.6308-.0126-23.2618c.3893-1.5353.7951-3.0668,1.1626-4.6073.289-1.2115.1855-2.2964-1.1447-2.8791q.0093-12.3735.0192-24.7461c4.5234-.0178,9.0479-.0117,13.5715-.0724a3.5941,3.5941,0,0,1,2.4255.9977c2.444,1.9893,4.9113,3.95,7.7876,6.2568,0-2.2061.0644-3.97-.0222-5.7265-.0595-1.2055.38-1.5906,1.5554-1.53,1.6118.0828,3.231.0211,4.8471.0179a2.5108,2.5108,0,0,0,2.8425-2.7112q.0592-11.3442-.0043-22.6889c-.0129-1.9412-1.16-2.8514-3.37-2.858-6.852-.02-13.7041-.0018-20.5562-.0109-3.0372-.004-6.0743-.0381-9.1122-.0585q.0192-8.92.04-17.8393c.0071-3.145.7333-3.8641,3.8786-3.8388.0306,2.39.0709,4.7805.089,7.1707.0228,3.0245.91,3.9514,3.9186,3.9446q19.1037-.0432,38.2073-.1334a4.7281,4.7281,0,0,1,3.3412,1.1647c2.3031,1.9629,4.7081,3.8063,7.2818,5.8664a15.1684,15.1684,0,0,0,.2387-4.9292c-.0854-1.646.3139-2.3969,2.1162-2.1838a27.3933,27.3933,0,0,0,4.0693.0192c2.1148-.0674,2.8992-.8663,2.9406-2.9776.0519-2.6481.07-5.2967.1028-7.9449q15.2949-.0152,30.59-.0284c.5727,0,1.1775-.0892,1.618.4266-2.107,8.5172-.94,17.197-1.3095,25.8015A67.2546,67.2546,0,0,1,113.85,68.0137a25.4758,25.4758,0,0,0-8.2149,7.4822q-4.001,5.7982-7.98,11.6118a1.2045,1.2045,0,0,1-.4236-1.0354,63.9592,63.9592,0,0,0-.4135-7.9224,6.0032,6.0032,0,0,1,1.0711-4.1916c1.8823-2.7314,3.0253-5.8462,4.3888-8.8422.5173-1.1367.8863-2.4146-.4031-3.3128-1.3278-.9248-2.4346-.3847-3.3224.8752a4.4126,4.4126,0,0,1-.5606-2.0594A10.96,10.96,0,0,0,96.44,55.6733a5.89,5.89,0,0,0-10.4484-.1306,19.5055,19.5055,0,0,0-2.1827,12.1611c.4446,3.938,3.0038,7.6185,1.387,11.825a13.4654,13.4654,0,0,0-.4267,3.05c-.6581,5.0444-1.238,10.0936-1.6659,15.1672a115.3684,115.3684,0,0,0-.5767,15.6547,28.4125,28.4125,0,0,0,1.14,7.43,6.58,6.58,0,0,0,7.5034,4.2934c3.8051-.7264,6.7108-2.9372,9.4825-5.3561,1.3233-1.1548,2.88-2.1954,3.5356-3.9815.2271-.1073.5452-.1521.6682-.331q4.8291-7.02,9.6211-14.0646l.5254.3739c.0873.637.13,1.2837.2682,1.9092C117.5191,113.8344,117.5123,123.7581,112.22,133.1365Z" fill="#fdfdfd"/><path d="M95.2573,166.916l2.3443,5.1912q.9643,2.653,1.9288,5.3066.5835,2.778,1.1663,5.5561c-.5118.8873-.245,1.8935-.4336,2.8307a7.9387,7.9387,0,0,1-3.0971,4.9487c-3.4353,1.9553-7.0933,1.5714-10.7673,1.0279-2.9855-1.3852-6.2311-1.9737-9.318-3.0474q-.0019-4.6934-.0043-9.3864c2.165.2716,4.3246.6377,6.4983.7672.8672.0517,2.0719.8661,2.5186.1136.525-.8843-.5546-1.8461-.96-2.7662l-1.2-2.7354-.7523-1.5374-.7379-1.9077,10.8711-8.1706q.4163.7688.8324,1.5377l.7614,1.5415Z" fill="#fdc0b0"/><path d="M38.9168,132.3785a6.7632,6.7632,0,0,1,3.208-1.2029c1.5984-.343,2.4863-1.17,2.3132-2.9685a32.5563,32.5563,0,0,1,.0391-3.6756c2.4815.9292,4.9457,1.9386,7.6881,1.659a17.1437,17.1437,0,0,0,8.1591-1.8343c-.0043.7663.056,1.5393-.024,2.2976-.3751,3.5549,1.5441,4.3007,4.386,4.5784.6371.0623,1.2847-.0144,1.7847.4971A16.3922,16.3922,0,0,1,39.4053,133.4,5.32,5.32,0,0,1,38.9168,132.3785Z" fill="#fdd5ca"/><path d="M155.0819,156.8656a11.9583,11.9583,0,0,1,1.1339,3.1091l-64.0795.01a9.41,9.41,0,0,1-1.5407-3.1083C112.091,156.8438,133.5865,157.1864,155.0819,156.8656Z" fill="#e6edfe"/><path d="M94.1466,164.6446q-.4161-.7689-.8324-1.5377-.2115-.7789-.423-1.5582,30.6968-.0077,61.3934-.0293c.7992-.0009,1.6973.3188,2.376-.4325a12.35,12.35,0,0,1,1.5493,3.516c-3.8618-.088-7.7151.1752-11.59-.274-2.9966-.3473-6.0663-.025-9.1019-.0818C123.0567,163.9761,108.6062,164.8,94.1466,164.6446Z" fill="#e6edfe"/><path d="M153.859,152.5973q.3853,1.3653.771,2.7307l-64.771-.0136a9.1322,9.1322,0,0,1-1.6008-3.0937C110.1216,152.9693,131.9922,152.4561,153.859,152.5973Z" fill="#e6edfe"/><path d="M92.8912,161.5487a2.7,2.7,0,0,1-.7549-1.5645l64.0795-.0095c.3986.2706.3723.7111.4448,1.1122-.6787.7513-1.5768.4316-2.376.4325" fill="#fdfdfd"/><path d="M21.8832,133.2078l13.9677.0514c-2.531,1.5181-5.2224,2.7758-7.4316,4.807a18.5742,18.5742,0,0,0-4.7026,6.5C23.1008,140.7293,22.0925,137.0328,21.8832,133.2078Z" fill="#78909c"/><path d="M20.6281,104.1589q.0065,11.631.0126,23.2618c-.1978.0393-.3952.0786-.59.1167l-.0495-.0024c-.61-5.6545-1.2743-11.3041-1.7912-16.9671-.1224-1.3408.8235-2.5229,1.3075-3.7665C19.8638,105.9113,20.2562,105.0391,20.6281,104.1589Z" fill="#b2bfc6"/><path d="M82.4431,171.2775q.369.9538.7382,1.9076l-6.1185.0076q.0009-1.3723.0016-2.7446c1.5257-.1637,3.1063.3937,4.5884-.3477Z" fill="#e6edfe"/><path d="M77.0551,168.9209q-.09-1.1867-.18-2.3733.0434-.3657.0878-.7314l2.5052-.044q.7664,1.5433,1.5324,3.0869Z" fill="#e6edfe"/><path d="M77.0644,170.4481q-.0044-.7637-.0093-1.5272L81,168.8591q.3266.62.6525,1.2412" fill="#fdfdfd"/><path d="M76.9721,164.6291v-3.1877l.3243-.1216q.8043,1.6644,1.6089,3.3287Z" fill="#e6edfe"/><path d="M76.9627,165.8162q.0045-.5934.0094-1.1871l1.9332.0194q.2808.5619.5623,1.1237" fill="#fdfdfd"/><polygon points="20.001 127.535 20.051 127.537 20.007 127.513 20.001 127.535" fill="#fdfdfd"/><path d="M112.22,133.1365c5.2926-9.3784,5.2994-19.3021,3.0512-29.4628-.1384-.6255-.1809-1.2722-.2682-1.9092A29.0745,29.0745,0,0,0,123.79,106.13a3.9326,3.9326,0,0,0,3.32-.0545c2.4868-.5136,3.5546-2.34,3.6781-4.5815a140.9,140.9,0,0,0,.3751-17.167c-.2269-3.3991-.369-6.804-.5492-10.2058a26.7071,26.7071,0,0,0,9.4111.2114c5.1032-.79,9.48-3.1918,13.6251-6.1124,1.1029,4.733.0416,9.3677-.7545,13.9852a148.6322,148.6322,0,0,1-3.4869,14.4786c-1.2235,4.4042,1.0864,7.2542,5.6426,7.0545,9.8511-.4316,16.559-7.2683,17.1213-17.0588.3912-6.8095-1.6469-12.8471-4.9291-18.6223-.3739-.6579-.9728-1.23-.9246-2.0812a3.3467,3.3467,0,0,1,.9175.148,17.3814,17.3814,0,0,1,9.201,10.198c4.2453,11.56,5.8356,23.6256,7.1093,35.7668.0895.8527-.3827,1.1295-.9253,1.494-1.9807,1.3305-3.9507,2.6768-5.9247,4.0172-3.8169,2.5-7.6253,5.0135-11.4579,7.49a1.5737,1.5737,0,0,0-.6858,1.96c.4359,2.0042.7469,4.0355,1.1086,6.0558-6.8412.03-13.6824.0846-20.5236.0851Q128.6792,133.1916,112.22,133.1365Zm26.0553-32.3832a2.08,2.08,0,1,0,2.08-2.0677A1.9433,1.9433,0,0,0,138.275,100.7533Zm4.359-21.1667a2.013,2.013,0,0,0-2.2665,1.9324,1.9721,1.9721,0,0,0,2.0817,2.245,2.0932,2.0932,0,0,0,.1848-4.1774Zm-19.4153,31.8407a1.949,1.949,0,0,0-1.9367,2.1337,1.9167,1.9167,0,0,0,2.0648,2.05,1.9665,1.9665,0,0,0,2.1-2.2231A2.0337,2.0337,0,0,0,123.2187,111.4273Zm12.6093,12.77a1.8874,1.8874,0,0,0-1.7849,2.15,2.0782,2.0782,0,1,0,4.1531-.1649C138.1376,124.9328,137.3284,124.2186,135.828,124.1978Zm19.3-6.5564a2.066,2.066,0,0,0-4.1269.1937,1.94,1.94,0,0,0,2.1346,2.03C154.4076,119.8238,155.0917,119.0024,155.1276,117.6414Zm17.1664-8.4349a1.9836,1.9836,0,0,0,2.0024-2.0988,2.0765,2.0765,0,1,0-4.1527.0459C170.16,108.4918,170.9168,109.1308,172.294,109.2065Z" fill="#fd6666"/><path d="M176.6974,117.6c1.974-1.34,3.944-2.6867,5.9247-4.0172.5426-.3645,1.0148-.6413.9253-1.494-1.2737-12.1412-2.864-24.2066-7.1093-35.7668a17.3814,17.3814,0,0,0-9.201-10.198,3.3467,3.3467,0,0,0-.9175-.148l.0066.0479c.095-.3456-.1749-.3824-.3922-.4638-3.8414-5.8413-6.5088-11.9883-6.7091-19.2109A51.2431,51.2431,0,0,0,152.7,23.5212c-.3008-.5623-.55-1.1524-.8227-1.73q15.51.0192,31.0191.0392c3.3089.0047,4.0113.6931,4.0114,3.9358q.0018,52.734-.0018,105.468c0,.6452-.04,1.29-.0607,1.9354l-6.1875-.0295C179.2894,127.9727,177.774,122.8423,176.6974,117.6Z" fill="#fdfdfd"/><path d="M133.2928,54.3674A17.0763,17.0763,0,0,1,126.14,43.26c-.6246-3.4025-.5462-6.71,1.9727-9.4923,2.8849-3.1863,3.0791-6.7965,1.6954-10.6789-.9886-2.774-.9509-2.8276,2.02-2.4692a26.758,26.758,0,0,1,10.29,3.1961,9.9521,9.9521,0,0,1,5.4069,9.9543,105.1527,105.1527,0,0,0,.3018,16.6656c.1134,1.2737-.8022,1.82-1.04,2.7735-.5316.2261-1.0787.4215-1.5922.6829a12.832,12.832,0,0,1-9.1446,1.2872C135.1117,54.95,134.3208,54.2517,133.2928,54.3674Z" fill="#fdd5ca"/><path d="M133.2928,54.3674c1.028-.1157,1.8189.583,2.7566.8113a12.832,12.832,0,0,0,9.1446-1.2872c.5135-.2614,1.0606-.4568,1.5922-.6829,1.62,4.4134,3.2318,8.8306,6.0493,12.6738a4.1236,4.1236,0,0,1,.8149,2.3392c-4.1451,2.919-8.5215,5.3211-13.6247,6.1108a26.7071,26.7071,0,0,1-9.4111-.2114c-.6489-3.68-1.28-7.3639-1.959-11.0384-.171-.926.0042-1.6823,1.0241-1.5986,2.7617.2267,3.4383-1.317,3.4206-3.65C133.0915,56.6788,133.2242,55.5228,133.2928,54.3674Z" fill="#fdc0b0"/><path d="M165.934,65.56c.2173.0814.4872.1182.3922.4638C166.0518,65.9908,165.9585,65.8046,165.934,65.56Z" fill="#fd6666"/><path d="M55.6687,11.389q-9.4086,0-18.8172-.0036a10.917,10.917,0,0,1-1.542-.0937.6449.6449,0,0,1-.5592-.6787.6977.6977,0,0,1,.5057-.7393,7.3506,7.3506,0,0,1,1.5357-.119q19.0112-.0084,38.0224-.0035c.3877,0,.7764-.002,1.163.0223a.7915.7915,0,0,1,.83.8689.7375.7375,0,0,1-.7711.71c-.516.0269-1.0335.0354-1.55.0356Q65.0773,11.3909,55.6687,11.389Z" fill="#fdfdfd"/><path d="M49.0663,21.7565c4.201,0,8.402-.0067,12.6029.0069.6705.0021,1.6447-.1949,1.6256.8277-.0192,1.0277-1.0071.7806-1.668.7817q-12.6029.02-25.2058-.0011c-.6569-.0012-1.6482.2354-1.624-.8231.0237-1.0368,1.0085-.7793,1.6664-.7823C40.6643,21.7471,44.8653,21.7565,49.0663,21.7565Z" fill="#fdfdfd"/><path d="M24.7836,51.3235c4.9739,0,9.9479-.0061,14.9219.0075.6731.0018,1.6544-.22,1.7038.7695.0538,1.0761-.9393,1.0387-1.7127,1.0392q-15.0189.01-30.0376-.0039c-.74-.0009-1.77.15-1.69-1.0117.0679-.9862,1.0227-.7916,1.699-.7934C14.7064,51.3173,19.745,51.3234,24.7836,51.3235Z" fill="#fdfdfd"/><path d="M17.8815,63.329c-2.8389,0-5.6778.0052-8.5167-.0047-.6421-.0022-1.4258.05-1.4049-.8874.0189-.8454.7729-.7233,1.3223-.7245q8.6135-.0185,17.227-.0028c.6325.0009,1.4709-.0651,1.4119.8585-.0565.8826-.8951.755-1.5229.7571C23.5593,63.3347,20.72,63.3294,17.8815,63.329Z" fill="#fdfdfd"/><path d="M193.1,123.8881c.2788.0519.6524.0523.5634.4613-.029.1334-.3671.2-.5638.2964Q193.1,124.2669,193.1,123.8881Z" fill="#fdfdfd"/><path d="M132.3057,194.8894c-4.2655,0-8.533-.0747-12.7957.0361-1.75.0456-2.3193-.5806-2.1559-2.2445a16.6268,16.6268,0,0,0-.0007-3.292c-.1727-1.6925.457-2.242,2.1759-2.2232,7.4315.0815,14.8644.0349,22.2968.0349,1.2926,0,2.5892.0629,3.8766-.0186,1.1245-.0711,1.5045.3814,1.4353,1.4534-.1284,1.9882.7882,4.4977-.3629,5.8281-1.1048,1.2768-3.6454.3558-5.5511.4054C138.2531,194.9463,135.2787,194.89,132.3057,194.8894Z" fill="#fdfdfd"/><path d="M109.252,191.1789a2.9317,2.9317,0,1,1-2.97-2.8891A2.9109,2.9109,0,0,1,109.252,191.1789Z" fill="#fdfdfd"/><path d="M85.1333,177.458l-8.0634.007q-.006-1.3725-.0128-2.7451l6.8762.0027Z" fill="#e6edfe"/><path d="M77.0807,188.73c3.0869,1.0737,6.3325,1.6622,9.318,3.0474-3.1207-.0542-6.2589.33-9.3555-.3615Q77.0621,190.0727,77.0807,188.73Z" fill="#fdfdfd"/><path d="M77.0571,174.72q.0028-.7636.0055-1.5272l6.1187-.0076q.3756.7689.752,1.5375" fill="#fdfdfd"/><path d="M97.6548,87.1077q3.989-5.8065,7.98-11.6118a25.4758,25.4758,0,0,1,8.2149-7.4822c-1.1645,4.6007-2.8758,9.038-3.9368,13.6766a21.8315,21.8315,0,0,0,4.5643,19.7q-4.8035,7.0371-9.6208,14.0647c-.123.1789-.4411.2237-.6683.3307.0311-.7445-.54-1.13-.9622-1.5983-5.2021-5.7767-5.2235-5.7759-5.2434-13.6046C97.9708,96.0881,97.216,91.6124,97.6548,87.1077Zm6.5254,9.426a1.99,1.99,0,0,0-1.9838,2.1058,1.8922,1.8922,0,0,0,2.031,2.0869,1.949,1.949,0,0,0,2.0925-2.07C106.3252,97.4063,105.5216,96.6747,104.18,96.5337Z" fill="#fd6666"/><path d="M14.4806,87.7875a.8858.8858,0,0,1-.0015.3658H1.4039l-.0033-.3658Z" fill="#fdfdfd"/><path d="M167.0635,156.1014l-3.1053-3.8781,6.2414.0072c-.1746,1.1572.3208,2.3841-.3636,3.4882C168.9123,155.8523,167.9008,155.3459,167.0635,156.1014Z" fill="#e6edfe"/><path d="M169.403,159.593q-.8121-1.3392-1.6236-2.6788,1.0089-.0183,2.0168-.0361C169.6464,157.78,170.1566,158.7782,169.403,159.593Z" fill="#e6edfe"/><path d="M169.836,155.7187q-.0194.58-.04,1.1594-1.0082.0178-2.0168.0361-.3584-.406-.7158-.8127" fill="#fdfdfd"/><path d="M137.5178,164.2471c3.0356.0568,6.1053-.2655,9.1019.0818,3.8751.4492,7.7284.186,11.59.274a2.836,2.836,0,0,1,.7708,1.58l-64.0727.003-.7614-1.5415" fill="#fdfdfd"/><path d="M94.908,166.1861l64.0727-.003a6.9435,6.9435,0,0,1,1.5338,2.7056l-12.7862.0165c.0483-1.2839-.1316-2.0583-1.8534-2.05-16.8723.0814-33.745.0562-50.6176.0611Q95.0827,166.5509,94.908,166.1861Z" fill="#e6edfe"/><path d="M147.7286,170.4619l0-1.5567,12.7862-.0165q.38.581.76,1.1622c-.5575.6475-1.314.3956-1.9891.4" fill="#fdfdfd"/><path d="M176.6974,117.6c1.0766,5.2423,2.592,10.3727,3.96,15.5405q-7.4993-.0175-14.9967-.035c-.36-2.02-.6712-4.0518-1.1071-6.056a1.5737,1.5737,0,0,1,.6858-1.96C169.0721,122.6135,172.8805,120.1,176.6974,117.6Z" fill="#fdc0b0"/><path d="M123.7726,171.1576c4.3887,0,8.7782.0475,13.1656-.0281,1.36-.0235,1.8492.3983,1.747,1.7579a27.368,27.368,0,0,0,0,4.0626c.1,1.3529-.3842,1.7749-1.7419,1.7568-5.1622-.0691-10.326-.0278-15.4891-.0278-3.4852,0-6.9715-.0526-10.4549.024-1.5176.0333-2.187-.3383-2.183-2.0411.0128-5.5042-.0527-5.5044,5.4692-5.5044Z" fill="#fdfdfd"/><path d="M99.53,177.4138q-.9643-2.6534-1.9288-5.3066c1.4026.1514,2.6667.5907,3.0293,2.1236A2.6832,2.6832,0,0,1,99.53,177.4138Z" fill="#fdfdfd"/><path d="M60.3243,124.3562a17.1437,17.1437,0,0,1-8.1591,1.8343c-.1143-.9872-1.0252-.8688-1.6239-1.0955a16.8864,16.8864,0,0,1-6.2051-3.8462C37.8,114.5763,35.97,106.7121,38.6487,97.7781a6.253,6.253,0,0,0,.5685-2.9736c-.72-4.4757,1.1233-7.9763,4.38-10.9106,1.3674-1.2323,3.338-1.2626,4.6764-2.5034,6.0534.031,12.1088-.0236,18.1591.1278a5.746,5.746,0,0,1,5.4594,6.1053,17.5652,17.5652,0,0,1-1.687,7.2848c-.2359.5048-.5971.9584-.311,1.6191a33.6865,33.6865,0,0,1,1.5853,6.3433,31.3715,31.3715,0,0,1-1.37,10.1717A21.8864,21.8864,0,0,1,60.3243,124.3562Z" fill="#4d4c4c"/><path d="M97.6548,87.1077c-.4388,4.5047.316,8.98.3275,13.4753.02,7.8287.0413,7.8279,5.2434,13.6046.422.4686.9933.8538.9622,1.5983-.6557,1.7864-2.2122,2.827-3.5355,3.9818-2.7717,2.4189-5.6774,4.63-9.4825,5.3561a6.58,6.58,0,0,1-7.5034-4.2934,28.4125,28.4125,0,0,1-1.14-7.43,115.3684,115.3684,0,0,1,.5767-15.6547c.4279-5.0736,1.0078-10.1228,1.6659-15.1672a13.4654,13.4654,0,0,1,.4267-3.05c1.6168-4.2065-.9424-7.887-1.387-11.825a19.5055,19.5055,0,0,1,2.1827-12.1611,5.89,5.89,0,0,1,10.4484.1306,10.96,10.96,0,0,1,1.5515,4.9458,4.4126,4.4126,0,0,0,.5606,2.0594c.8878-1.26,1.9946-1.8,3.3224-.8752,1.2894.8982.92,2.1761.4031,3.3128-1.3635,2.996-2.5065,6.1108-4.3888,8.8422A6.0032,6.0032,0,0,0,96.8177,78.15a63.9592,63.9592,0,0,1,.4135,7.9224A1.2045,1.2045,0,0,0,97.6548,87.1077Z" fill="#fdc0b0"/><path d="M48.2731,81.3905c-1.3384,1.2408-3.309,1.2711-4.6764,2.5034-3.2562,2.9343-5.0993,6.4349-4.3795,10.9106a6.253,6.253,0,0,1-.5685,2.9736c-2.6789,8.934-.8492,16.7982,5.6875,23.4707a16.8864,16.8864,0,0,0,6.2051,3.8462c.5987.2267,1.51.1083,1.6239,1.0955-2.7424.28-5.2066-.73-7.6881-1.659a22.9452,22.9452,0,0,1-10.18-11.8891,36.2125,36.2125,0,0,1-1.19-9.7409c.52-3.579,1.6865-6.9862,1.736-10.727C34.93,85.5893,41.2232,80.8305,48.2731,81.3905Z" fill="#414040"/><path d="M70.1085,113.0425a31.3715,31.3715,0,0,0,1.37-10.1717,3.5907,3.5907,0,0,1,4.1372,2.3535c.7166,1.8082-.1816,3.25-1.3632,4.4975C73.0307,111.0125,71.8723,112.4147,70.1085,113.0425Z" fill="#fdd5ca"/><path d="M33.107,102.9015a36.2125,36.2125,0,0,0,1.19,9.7409,9.539,9.539,0,0,1-4.6521-4.3384C28.0574,105.3859,29.6406,102.9437,33.107,102.9015Z" fill="#fdd5ca"/><path d="M138.275,100.7533a1.9577,1.9577,0,0,1,2.08-2.0677,1.9287,1.9287,0,0,1,2.0792,2.0458,2.08,2.08,0,1,1-4.1592.0219Z" fill="#fdfdfd"/><path d="M142.634,79.5866a2.0932,2.0932,0,0,1-.1848,4.1774,1.9721,1.9721,0,0,1-2.0817-2.245A2.013,2.013,0,0,1,142.634,79.5866Z" fill="#fdfdfd"/><path d="M123.2187,111.4273a2.0337,2.0337,0,0,1,2.2279,1.96,1.9665,1.9665,0,0,1-2.1,2.2231,1.9167,1.9167,0,0,1-2.0648-2.05A1.949,1.949,0,0,1,123.2187,111.4273Z" fill="#fdfdfd"/><path d="M135.828,124.1978c1.5.0208,2.31.735,2.3682,1.985a2.0782,2.0782,0,1,1-4.1531.1649A1.8874,1.8874,0,0,1,135.828,124.1978Z" fill="#fdfdfd"/><path d="M155.1276,117.6414c-.0359,1.361-.72,2.1824-1.9923,2.2236a1.94,1.94,0,0,1-2.1346-2.03,2.066,2.066,0,0,1,4.1269-.1937Z" fill="#fdfdfd"/><path d="M172.294,109.2065c-1.3772-.0757-2.1337-.7147-2.15-2.0529a2.0765,2.0765,0,1,1,4.1527-.0459A1.9836,1.9836,0,0,1,172.294,109.2065Z" fill="#fdfdfd"/><path d="M104.18,96.5337c1.3414.141,2.145.8726,2.14,2.1228a1.949,1.949,0,0,1-2.0925,2.07,1.8922,1.8922,0,0,1-2.031-2.0869A1.99,1.99,0,0,1,104.18,96.5337Z" fill="#fdfdfd"/></svg>