<svg xmlns="http://www.w3.org/2000/svg" viewBox="0 0 200 200"><path d="M49.741,131.6346q2.2146-5.5667,4.4313-11.1326a25.3954,25.3954,0,0,1,3.8358-6.0064c3.2022-2.7323,6.7347-4.8772,11.0075-5.2541a145.3707,145.3707,0,0,1,14.7393-.1137c2.3511,4.12,4.3548,8.435,6.9517,12.4178,2.4634,5.2926,5.4851,10.2875,8.2528,15.4174a33.9172,33.9172,0,0,0,3.598,6.1451c2.3458-4.2791,4.6335-8.3382,6.8082-12.457,1.6015-3.033,3.4935-5.9142,4.7949-9.105,2.5894-3.9865,4.595-8.3,6.95-12.4174,3.7473-.023,7.4959.0047,11.2416-.0849a20.7763,20.7763,0,0,1,8.6743,1.655,136.3458,136.3458,0,0,1-6.2267,13.97,16.0217,16.0217,0,0,1-1.9346-.0892c-5.5136-.9051-11.0343-1.7752-16.5251-2.8044-1.291-.242-1.45.1544-1.4364,1.2035.035,2.652.0256,5.3045.0339,7.9568l-.0834,27.254a1.2341,1.2341,0,0,0-.7773.5073c-2.4044,2.8639-4.7181,5.8147-7.27,8.5423a160.951,160.951,0,0,1-24.5023,21.3481c-2.144,1.5208-4.5723,2.67-6.376,4.66-1.3761.3308-1.6069-.364-1.6-1.5708.0412-7.2671.0191-14.5345.022-21.8018a3.5035,3.5035,0,0,0-.6095-2.3641c-4.4951-5.8491-5.7827-12.4585-4.5114-19.6458a1.0067,1.0067,0,0,0-.2933-.86c-.9234,1.6662-1.8637,3.3232-2.7675,5q-8.1663,15.1508-16.3231,30.3067c-.2135.3961-.4914.7576-.74,1.1332-.3849-1.1916.3076-2.2817.3025-3.4544-.0441-10.1347-.0341-20.27-.04-30.4044q-.0088-6.2112-.0178-12.4223C49.5676,135.327,49.0336,133.437,49.741,131.6346Z" fill="#48b592"/><path d="M83.7549,109.1279a145.3416,145.3416,0,0,0-14.7393.1136c-4.2728.3769-7.8053,2.5218-11.0075,5.2541-.5935-5.0281-1.3645-10.039-1.2379-15.1294.1286-5.1742.7961-10.3284,2.9194-15.01,4.6979-10.3574,5.3259-21.1268,4.3316-32.2118-1.755-19.5662,9.7426-36.3094,28.4644-41.6419a8.7269,8.7269,0,0,1,.9548-.1639c.43.57,1.1313.5755,1.7191.8A34.5307,34.5307,0,0,1,111.82,23.8708a35.3269,35.3269,0,0,1,6.1591,22.896c-.5014-.1259-1.0141-.2184-1.5026-.3826A76.9291,76.9291,0,0,1,91.5051,32.3154c-1.2121-1.0124-1.7128-1.0959-2.4522.4616A41.4394,41.4394,0,0,1,75.3994,49.0011a2.4334,2.4334,0,0,0-1.0671,2.2973c.0373,4.81-.0167,9.62.0276,14.43A27.7545,27.7545,0,0,0,78.439,79.9662c2.82,4.7059,6.8957,8.0381,11.5557,10.7543l.0114,5.4729c-.02,2.7635-.0088,5.5275-.0677,8.29a4.3565,4.3565,0,0,1-4.0669,4.5509C85.1693,109.1009,84.4606,109.0986,83.7549,109.1279Z" fill="#8f4d2e"/><path d="M117.9794,46.7668a35.3269,35.3269,0,0,0-6.1591-22.896A34.5307,34.5307,0,0,0,95.16,11.1393c-.5878-.2248-1.2887-.23-1.7191-.8A35.5068,35.5068,0,0,1,119.6443,13.26c13.8717,7.275,21.06,18.9616,21.3811,34.6978.1178,5.78-.6953,11.54-.4752,17.3332a43.3055,43.3055,0,0,0,3.369,15.47,49.9948,49.9948,0,0,1,4.1086,23.4994c-.2451,3.4217-.7762,6.823-1.1773,10.2335-1.8264-1.4416-3.573-3.0055-5.8241-3.795a20.7733,20.7733,0,0,0-8.6743-1.6552c-3.7457.09-7.4943.0619-11.2415.0849-.2558-.0224-.5113-.0587-.7676-.0651-3.9605-.0981-5.4181-1.5892-5.433-5.5433-.0092-2.4429-.0357-4.8858-.0544-7.3286q-.0084-2.5409-.017-5.0817c.1793-.8528.9943-.9524,1.5792-1.3062,7.5262-4.5538,12.3292-11.052,13.69-19.798.9922-6.3786.1975-12.8389.411-19.2585.0235-.7067-.2464-1.15-.9313-1.2275-3.9338-.4452-7.6791-1.7514-11.5454-2.5011A1.3663,1.3663,0,0,1,117.9794,46.7668Z" fill="#82462b"/><path d="M114.8541,158.19q.0417-13.6269.0832-27.2542l31.1888,6.257-.0046,43.5549-15.56-3c-4.5564-.9284-9.1051-1.8974-13.6738-2.7611-1.4293-.27-2.0514-.7841-2.0184-2.3844C114.9683,167.8,114.8734,162.9942,114.8541,158.19Z" fill="#a26548"/><path d="M189.7287,130.9629q.0343,21.2682.0859,42.5365c.0026.8006-.249,1.1956-1.0254,1.2974-.7046.0924-1.4054.2142-2.1079.3228-.0019-2.9169.0387-5.8343-.0175-8.75a4.0707,4.0707,0,0,0-4.8752-4.1956q-4.8915.7362-9.7586,1.633c-2.9852.5493-4.06,1.9032-4.0731,4.938q-.0225,5.055-.03,10.11l-9.3223,1.9064-.0006-43.5582c3.4637-.67,6.932-1.318,10.39-2.0153Q179.3657,133.097,189.7287,130.9629Z" fill="#8f4d2e"/><path d="M49.741,131.6346c-.7074,1.8024-.1734,3.6924-.39,5.5293l-18.7038.0118c-3.2229-.165-6.46.2-9.6621-.6768a43.9121,43.9121,0,0,1-9.3379-4.2932,5.4453,5.4453,0,0,1-2.8038-4.8478c-.06-2.985-.0812-5.974,0-8.958.0812-2.99,2.7689-4.9857,5.1776-3.5126,6.0059,3.6733,12.5379,3.7557,19.1893,3.5371,1.0981-.0361,2.1983-.0051,3.6384-.0051-1.0484-2.1542-2.077-4.0681-2.9252-6.059a5.8745,5.8745,0,0,1,2.05-7.2546,6.0869,6.0869,0,0,1,7.4033.211c1.29,1.0181,1.7577,2.5511,2.3637,3.9671,1.07,2.5,2.02,5.0518,3.0442,7.5722a8.0845,8.0845,0,0,1,.6174,3.2123c-.0427,3.2454-.029,6.4918-.0026,9.7376C49.4045,130.4213,49.1444,131.1177,49.741,131.6346Z" fill="#fdc8a3"/><path d="M114.8541,158.19c.0193,4.8044.1142,9.61.0152,14.4124-.033,1.6.5891,2.1141,2.0184,2.3844,4.5687.8637,9.1174,1.8327,13.6738,2.7611-.0163,4.6689-.0638,9.338-.0264,14.0064.0091,1.136-.2484,1.58-1.4949,1.5763q-26.5557-.0851-53.1116-.0828c1.8037-1.99,4.232-3.1393,6.376-4.66a160.951,160.951,0,0,0,24.5023-21.3481c2.5518-2.7276,4.8655-5.6784,7.27-8.5423A1.2341,1.2341,0,0,1,114.8541,158.19Z" fill="#056766"/><path d="M49.3683,149.5863c.006,10.1348-.004,20.27.04,30.4044.0051,1.1727-.6874,2.2628-.3025,3.4544-1.2674,4.9084-6.4476,7.7557-12,6.598a10.8629,10.8629,0,0,1-8.7095-12.1684c.4521-3.9793.7408-7.978,1.0613-11.9713.4343-5.413.8291-10.8292,1.2407-16.2441Z" fill="#48b592"/><path d="M189.7287,130.9629q-10.367,2.115-20.7348,4.2253c-3.4582.6973-6.9265,1.3451-10.39,2.0151l-12.4775-.0107-31.1888-6.257c-.0081-2.6521.0013-5.3046-.0337-7.9566-.0138-1.0491.1454-1.4455,1.4364-1.2035,5.4908,1.0292,11.0115,1.8993,16.5251,2.8044a16.0013,16.0013,0,0,0,1.9346.0891,12.4747,12.4747,0,0,0,3.5307.7656c2.5167.5213,5.1654.5442,7.5238,1.6572a11.8,11.8,0,0,1,6.5264,7.97c.4062-1.8693,1.6137-3.2865,2.05-5.0228,4.4134-4.3251,10.318-4.232,15.8153-5.2484,6.0328-1.1154,12.117-1.9511,18.1573-3.0291,1.291-.2305,1.4278.1885,1.4054,1.2322C189.7515,125.65,189.7515,128.3065,189.7287,130.9629Z" fill="#d3bc81"/><path d="M146.1261,137.1926l12.4775.0107q0,21.7794.0007,43.5587-2.3587.052-4.7174.1033l-7.7654-.1178Z" fill="#94573a"/><path d="M167.9266,178.8553q.0145-5.055.03-10.11c.0136-3.0348,1.0879-4.3887,4.0731-4.938q4.8651-.8952,9.7586-1.633a4.0707,4.0707,0,0,1,4.8752,4.1956c.0562,2.9155.0156,5.8329.0175,8.75-.002.71.0239,1.42-.0118,2.1279a3.0548,3.0548,0,0,1-2.6843,3.2493c-2.9095.4989-5.82.9911-8.7276,1.502-.5012.0881-.9886.2544-1.4824.3846a11.1518,11.1518,0,0,0-1.3383.0458C169.4727,182.8768,168.1771,181.8581,167.9266,178.8553Z" fill="#fdc8a2"/><path d="M49.3683,149.5863l-18.67.073q-.0255-6.242-.0515-12.4838,9.3519-.0056,18.7037-.0116Q49.3592,143.3753,49.3683,149.5863Z" fill="#dfdedc"/><path d="M154.4306,130.04c-.4363,1.7363-1.6438,3.1535-2.05,5.0228a11.8,11.8,0,0,0-6.5264-7.97c-2.3584-1.113-5.0071-1.1359-7.5238-1.6572a12.4747,12.4747,0,0,1-3.5307-.7656,136.3345,136.3345,0,0,0,6.2267-13.97c2.2511.79,3.9977,2.3536,5.8241,3.7952C150.8333,118.9658,152.2951,124.6669,154.4306,130.04Z" fill="#056766"/><path d="M167.9266,178.8553c.25,3.0028,1.5461,4.0215,4.51,3.5739a11.1518,11.1518,0,0,1,1.3383-.0458c-1.0629,4.4362-4.2072,7.4511-8.1232,7.7887a9.56,9.56,0,0,1-10.0245-5.8313c-.5538-1.171-1.1591-2.3177-1.7407-3.4755q2.3589-.0514,4.7175-.1033Q163.2656,179.8083,167.9266,178.8553Z" fill="#056766"/><path d="M114.8556,96.1916c.0187,2.4429.0452,4.8858.0544,7.3287.0149,3.9541,1.4725,5.4452,5.433,5.5433.2563.0064.5118.0427.7676.0651-2.3551,4.1177-4.3607,8.4309-6.95,12.4174l-23.4536-.0005c-2.5969-3.9828-4.6006-8.2976-6.9517-12.4178.7057-.0292,1.4144-.0269,2.1166-.0934a4.3565,4.3565,0,0,0,4.0669-4.5509c.0589-2.7626.0481-5.5266.0676-8.29a2.5069,2.5069,0,0,1,.7226.2426c4.96,3.67,10.57,3.6207,16.3319,2.9763C110.0039,99.0832,112.3514,97.4889,114.8556,96.1916Z" fill="#fdc8a2"/><path d="M90.7066,121.5456l23.4536.0005c-1.3011,3.1908-3.1931,6.072-4.7946,9.105-2.1747,4.1188-4.4624,8.1779-6.8082,12.457a33.9172,33.9172,0,0,1-3.598-6.1451C96.1917,131.8331,93.17,126.8382,90.7066,121.5456Z" fill="#dfdedc"/><path d="M111.9152,58.72a4.7385,4.7385,0,0,1,3.03-5.57,5.5525,5.5525,0,0,1,3.05-.08q.015-3.015.05-6.05a2.3109,2.3109,0,0,1-.07-.25c-.5-.13-1.01-.22-1.5-.39a76.7981,76.7981,0,0,1-24.97-14.06c-1.21-1.02-1.71-1.1-2.45.46A41.4518,41.4518,0,0,1,75.3952,49a2.4487,2.4487,0,0,0-1.06,2.3c.03,4.81-.02,9.62.02,14.43a27.81,27.81,0,0,0,4.08,14.24c2.82,4.7,6.9,8.03,11.56,10.75,4.54,1.84,9.2,3.11,14.17,2.73a14.0972,14.0972,0,0,0,4.5-.78c.75-2.05,2.45-3.44,3.63-5.19a33.7961,33.7961,0,0,0,5.73-19.2c.02-2.07-.02-4.15-.03-6.23C114.8652,62.54,112.6052,61.3,111.9152,58.72Zm-23.66,3.53a4.6809,4.6809,0,1,1,4.81-4.61A4.7307,4.7307,0,0,1,88.2552,62.25Z" fill="#fdc8a2"/><path d="M89.9947,90.7205c4.5429,1.8434,9.2019,3.1089,14.1675,2.7261a14.0739,14.0739,0,0,0,4.5058-.773,6.1031,6.1031,0,0,0,2.217-.39c1.3421-.3161,2.486-1.2934,3.9536-1.1734q.0085,2.5408.017,5.0817c-2.5042,1.2972-4.8517,2.8915-7.7951,3.2207-5.7617.6444-11.3715.6934-16.3319-2.9763a2.5069,2.5069,0,0,0-.7226-.2426Q90,93.4571,89.9947,90.7205Z" fill="#fdb684"/><path d="M114.8386,91.11c-1.4676-.12-2.6115.8573-3.9536,1.1734a6.1031,6.1031,0,0,1-2.217.39c.7467-2.05,2.446-3.4414,3.63-5.1932a33.8719,33.8719,0,0,0,5.73-19.1992c.0165-2.0755-.0234-4.1514-.0374-6.2265a4.8634,4.8634,0,0,0,3.1465-4.4943c.02-2.2127-1.278-3.563-3.1437-4.4859l.0486-6.0558c3.8663.75,7.6116,2.0559,11.5454,2.5011.6849.0776.9548.5208.9313,1.2275-.2135,6.42.5812,12.88-.411,19.2585-1.36,8.746-6.1635,15.2442-13.69,19.798C115.8329,90.1576,115.0179,90.2572,114.8386,91.11Z" fill="#fcbf92"/><path d="M117.9932,53.0745c1.8657.9229,3.1634,2.2732,3.1437,4.4859a4.8634,4.8634,0,0,1-3.1465,4.4943c-3.128.4883-5.3895-.7525-6.0748-3.3334a4.7405,4.7405,0,0,1,3.0338-5.57A5.4238,5.4238,0,0,1,117.9932,53.0745Z" fill="#82462b"/><path d="M88.2583,62.2515a4.68,4.68,0,1,1,4.8072-4.6149A4.7234,4.7234,0,0,1,88.2583,62.2515Z" fill="#82462b"/></svg>