<svg xmlns="http://www.w3.org/2000/svg" viewBox="0 0 200 200"><path d="M185.3448,199.957H13.8679c-.15-.498-.617-.3861-.9619-.4872A16.8894,16.8894,0,0,1,.7116,187.2565c-.1-.3468.01-.8128-.4839-.9659V168.3291A5.719,5.719,0,0,1,6.68,164.8373c2.0666.3113,2.3529-.5593,2.35-2.415q-.0825-57.45-.0412-114.8994a21.3914,21.3914,0,0,1,.3872-5.0416c1.6729-6.949,7.3374-11.3171,14.8007-11.3333q19.9569-.0435,39.9139.0219c1.3412.0051,1.784-.32,1.7355-1.7065-.1044-2.9875-.0743-5.9819-.0227-8.9722.1582-9.1779,5.4034-16.492,13.8284-19.437C80.6969.6819,81.89.73,82.8484.0377H116.754c.13.1171.2462.3166.3908.3395A19.7577,19.7577,0,0,1,133.5632,15.49c1.0827,4.4909.5975,9.0676.5772,13.6048-.008,1.7883.5314,2.0924,2.1725,2.0837,13.0509-.0686,26.1024-.0219,39.1537-.0508a15.24,15.24,0,0,1,8.2041,1.9619c5.2841,3.2127,7.3643,8.03,7.3567,14.1q-.0714,57.0869-.024,114.1738c0,3.3969,0,3.3969,3.3928,3.4492,3.3752.052,5.3393,1.9622,5.3626,5.3112.0308,4.4236.0538,8.8483-.0083,13.2712a16.8885,16.8885,0,0,1-11.1721,15.6329C187.5145,199.4124,186.3206,199.2992,185.3448,199.957ZM103.1069,96.1256a36.9962,36.9962,0,0,1-14.6891-2.0079c-.3762,2.3308-.378,2.3332,1.2331,3.52q3.7553,2.7656,7.5143,5.5263c2.922,2.1554,2.9205,2.1588,5.7442-.0674a1.6791,1.6791,0,0,0,.2381-.2959c2.4077-1.7259,4.7728-3.5163,7.24-5.1519a2.6274,2.6274,0,0,0,1.1836-3.4855A49.7605,49.7605,0,0,1,103.1069,96.1256Zm70.154-58.98c-4.4133-.0328-8.8266-.0856-13.24-.094q-12.0767-.0228-24.1535.0036c-.7235.0011-1.643-.2635-1.6411,1.0252.0016,1.1464.8079.96,1.4893.9935a9.3093,9.3093,0,0,1,6.1521,2.5738,4.1147,4.1147,0,0,0,3.1457,1.12c10.3214.0233,20.6426.0908,30.9639.1451,2.6469.89,3.4257,2.9487,3.4256,5.4954q0,49.7237-.0042,99.4474c0,2.4816-.5974,3.2528-3.0209,4.0906-.7781-.0216-1.5561-.0619-2.3342-.0619q-74.3307-.0045-148.6615-.0029c-3.955,0-4.7734-.8251-4.7735-4.8181q-.001-48.9981,0-97.9962c0-4.8,1.5-6.3133,6.275-6.3156,9.2873-.0047,18.5747-.02,27.8618.0192a4.568,4.568,0,0,0,3.5006-1.2234,9.2153,9.2153,0,0,1,5.9946-2.4755c.6624-.0386,1.4951.2057,1.5243-.9561.0322-1.2833-.8636-1.0629-1.6057-1.0632q-20.3606-.0082-40.7211-.0068a8.1246,8.1246,0,0,0-5.0675,1.7108c-2.6609,2.0281-3.479,4.7873-3.4754,8.0565q.0631,57.5874.0328,115.1748c.0007,3.2582-.3883,2.8129,2.7674,2.8136q64.4914.0159,128.9828.0086c2.7972,0,3.5934.6291,4.0139,3.1231-.3685,2.0112-1.6261,2.7678-3.6021,2.7589-7.8573-.0352-15.7148-.0143-23.5723-.0142-3.7117,0-3.7115,0-3.7557,3.8045-.0037.3252.0087.6521-.02.9753-.3932,4.4467-3.0843,6.927-7.551,6.9315-8.312.0084-16.6241.02-24.9361-.007a6.7529,6.7529,0,0,1-6.8465-5.7255,16.6414,16.6414,0,0,1-.1482-4.2761c.0739-1.4123-.471-1.7785-1.7955-1.7283-2.3993.0909-4.8045.0256-7.2072.0256q-31.3649,0-62.73.0047c-2.7806.0012-2.4246-.3192-2.4438,2.5371-.0192,2.8626-.0049,5.7255-.004,8.5882.0024,7.8906,4.4025,12.285,12.3051,12.2851q79.8735.0007,159.747-.0027c.843,0,1.6861-.0449,2.5291-.0688.6457.0239,1.2915.0709,1.937.068,5.828-.0258,10.244-3.5442,11.0987-9.3414.6423-4.3565.1412-8.8.2011-13.2044.0139-1.0217-.7643-.8606-1.3813-.8594-2.5229.0048-5.0458.0319-7.5687.0508-7.6461-.0192-15.2923-.06-22.9384-.0429-1.9709.0043-3.2267-.75-3.5893-2.7593.388-2.3582,1.2291-3.1048,3.5979-3.1206,4.7836-.0319,9.5674-.0444,14.3511-.0649,1.9451.0206,3.89.0683,5.8353.0556,3.1919-.0208,2.84.4033,2.8411-2.7489q.0115-57.23.0043-114.46c0-.78.0055-1.56-.0193-2.34a8.3484,8.3484,0,0,0-3.725-6.7152C178.8407,36.7243,176.0461,37.0058,173.2609,37.1459Zm-21.8355,108.77c2.5288.0283,5.06.0039,7.5855.1083,1.1616.0481,1.3908-.4079,1.38-1.4636-.05-5.0074.0521-10.0171-.0493-15.023a18.272,18.272,0,0,0-13.805-17.4793c-5.144-1.31-10.3591-2.3393-15.5427-3.4928a1.8669,1.8669,0,0,0-1.8205.1944c-1.5554,1.2621-3.1768,2.4425-4.7717,3.6556-2.8817,2.0853-5.7514,4.1877-8.6507,6.2482-1.3154.9348-2.4744,2.1951-4.0519,2.6244-1.0343.2815-1.1015.7429-1.0461,1.6254.3945,6.2864.7443,12.5756,1.1037,18.8642.2411,4.22.2377,4.2269,4.4731,4.2185Q133.8277,145.9616,151.4254,145.9162ZM112.4648,5.9658C103.83,5.9435,95.1956,5.8992,86.561,5.905c-8.4236.0056-14.4764,5.6091-14.8417,14.0542-.2529,5.8443-.05,11.7079-.09,17.5626-.0072,1.0237.3146,1.3487,1.3608,1.2783a47.8847,47.8847,0,0,0,8.8347-1.3509,3.643,3.643,0,0,1,4.4793,1.6623c.0344,2.6879-.5438,3.4728-3.1232,4.0629a51.61,51.61,0,0,1-9.6034,1.4293c-1.41.0518-2.0131.4394-1.9737,2.0439.1213,4.94.03,9.8841.05,14.8266a30.0633,30.0633,0,0,0,1.4675,9.3939c3.419,10.3243,13.37,18.5032,23.1913,19.0492a2.347,2.347,0,0,0,.5337.2137c14.9744,2.0491,29.8757-9.8153,31.2347-24.9132.6014-6.6809.1275-13.3841.2767-20.0753a1.2823,1.2823,0,0,0-1.011-1.41,40.8124,40.8124,0,0,1-7.8726-4.1727,37.4307,37.4307,0,0,1-8.4579-8.7486c-.6657-1.0258-1.1317-.6188-1.8-.0875A63.6637,63.6637,0,0,1,98.48,37.6318c-2.4033,1.2252-3.2989,1.0709-5.0168-.9481-.4386-2.0185.3632-3.3186,2.2005-4.2077a58.3006,58.3006,0,0,0,11.7622-7.8215c2.7828-2.31,5.365-1.8548,7.315,1.2059a23.5767,23.5767,0,0,0,4.3169,5.4449,27.3631,27.3631,0,0,0,7.7162,5.7787c1.3058.7319,1.6207.3649,1.6043-1.0446-.0594-5.1237.0286-10.2491-.0356-15.3727C128.2289,11.59,121.5687,5.4562,112.4648,5.9658Zm51.73,113.9959a38.5866,38.5866,0,0,1,1.72,6.3687c.5974,4.8682.1508,9.7509.3116,14.6233.0533,1.6132-.68,3.6915.2814,4.7129.9775,1.0382,3.086.12,4.6706.3529,1.9428.2861,2.3166-.5023,2.3131-2.3429q-.0894-46.27-.0426-92.54c0-.39-.0333-.7842.0057-1.1707.09-.8892-.1975-1.2943-1.1771-1.2607-2.5273.0867-5.0576.0875-7.5867.1225-6.0318-.0352-12.064-.0461-18.0951-.1279-1.0915-.0148-1.22.4755-1.3138,1.3844-.5421,5.2764-3.9647,8.9031-9.1746,9.4892-1.5548.175-1.9376.5667-1.9587,2.1481-.1494,11.1975-4.4667,20.5073-13.4351,27.2435-2.55,1.9153-3.5258,3.7981-3.0709,6.7238.02.1272-.0013.26.0072.39a4.2593,4.2593,0,0,0,3.7129,4.3279c7.585,1.6885,15.133,3.5816,22.77,4.9869C153.2306,107.0671,160.0726,111.5581,164.1949,119.9617ZM26.542,97.2832q0,23.024,0,46.048c0,.52.03,1.0426-.0049,1.56-.0574.8452.3093,1.1456,1.1427,1.1182a35.512,35.512,0,0,1,4.2816.0152c1.4216.1257,1.8847-.2681,1.8509-1.7834-.1075-4.8105-.0914-9.6257-.0264-14.4377a24.1161,24.1161,0,0,1,18.74-23.5676c8.4434-2.0046,16.9466-3.7551,25.4152-5.6543,3.7675-.8448,6.0584-5.8111,4.29-9.2375a2.5284,2.5284,0,0,0-.8654-.7472C71.07,83.5345,65.943,73.7141,65.8185,61.2545c-.011-1.1009-.1787-1.5047-1.4323-1.62-5.58-.5127-9.125-4.0323-9.6618-9.6286-.14-1.4545-.8957-1.2856-1.799-1.2854-8.1793.0014-16.3591.0487-24.5374-.04-1.6025-.0174-1.8814.509-1.8767,1.97C26.5608,66.1943,26.542,81.7388,26.542,97.2832Zm37.1143,48.7155c7.5256,0,15.0512-.009,22.5768.0111.982.0026,1.6534.04,1.72-1.3509.3124-6.555.6841-13.11,1.2037-19.6509.1686-2.1228.1805-3.8336-2.3119-4.4724-.4654-.1192-.8411-.5893-1.2587-.8968-4.7-3.46-9.4171-6.8968-14.0837-10.4014a3.1168,3.1168,0,0,0-2.8356-.6357c-4.73,1.09-9.4823,2.0871-14.22,3.1449A18.2033,18.2033,0,0,0,39.9044,127.331c-.75,5.5474-.102,11.165-.3086,16.7459-.0544,1.4715.27,1.9849,1.8736,1.9641C48.864,145.9452,56.2605,145.9988,63.6563,145.9987Zm41.6762-14.1164.0281-.0017c-.2141-3.44-.6338-6.8832-.5782-10.3188a7.82,7.82,0,0,0-2.9484-6.75c-1.96-1.6192-1.8946-1.82-3.6267.0657-1.0209,1.1114-2.7,1.806-2.8155,3.5612-.5719,8.6952-1.0756,17.3949-1.6331,26.0911-.0664,1.0356.1216,1.5267,1.3269,1.4976,3.2446-.0784,6.4933-.0732,9.7382-.0023,1.183.0259,1.3951-.4136,1.3155-1.4878C105.8267,140.3221,105.5945,136.1011,105.3325,131.8823ZM99.9938,170.678H89.8717c-3.6231,0-3.5307.0025-3.6275,3.5732-.05,1.837.604,2.3282,2.3669,2.3067,7.0066-.0853,14.0148-.0138,21.0223-.0427,4.5261-.0186,4.007.6822,4.1021-4.2173.0254-1.3059-.4257-1.6628-1.6734-1.6432C108.04,170.7181,104.0167,170.6783,99.9938,170.678Zm22.2174-64.0811c-3.36-.5471-6.0187-1.4761-7.9327-3.8092-.4508-.55-.7711-.193-1.1176.06-2.6115,1.9091-5.2129,3.8321-7.83,5.7337-.5379.3909-.8767.6842-.2189,1.3169,1.6337,1.5714,3.229,3.184,4.8017,4.8169.4919.5106.8392.3608,1.3106.01C114.747,112.1038,118.2827,109.5,122.2112,106.5969Zm-44.45-.0079c3.9469,2.9144,7.489,5.52,11.0164,8.1455.4816.3584.8279.472,1.3119-.0292,1.577-1.6332,3.1858-3.2363,4.81-4.8232.5009-.49.4664-.8-.0927-1.2061-2.6743-1.9408-5.33-3.9073-7.9913-5.8664-.37-.2723-.6868-.55-1.1181-.0216C83.784,105.1314,81.1059,106.03,77.761,106.589ZM65.7931,49.3632c0-1.1026-.0572-2.2091.0169-3.3066.0676-1.002-.368-1.1977-1.2573-1.13a4.4383,4.4383,0,0,0-4.033,4.44,4.4933,4.4933,0,0,0,4.2417,4.474c.7759.0354,1.0518-.2308,1.0361-.9751C65.7729,51.6984,65.7909,50.5306,65.7931,49.3632Zm68.4061.0779c0,1.1035.0461,2.2095-.0133,3.31-.056,1.0375.448,1.1692,1.31,1.053a4.4251,4.4251,0,0,0,3.94-3.9326,4.3422,4.3422,0,0,0-2.9475-4.7095c-1.8675-.6541-2.2812-.3748-2.29,1.5527C134.195,47.6234,134.1984,48.5322,134.1992,49.4411Z" fill="#040405"/><path d="M158.42,167.9333c.3626,2.01,1.6184,2.7636,3.5893,2.7593,7.6461-.0167,15.2923.0237,22.9384.0428.0025,4.5324-.0032,9.065.0119,13.5974a11.6944,11.6944,0,0,1-1.04,4.4785c-.7881,1.9442-2.4124,3.3269-3.2592,5.2106-.843.0239-1.6861.0687-2.5291.0688q-79.8735.0049-159.747.0027c-7.9026,0-12.3027-4.3945-12.3051-12.2851-.0009-2.8627-.0152-5.7256.004-8.5882.0192-2.8563-.3368-2.5359,2.4438-2.5371q31.365-.0131,62.73-.0047c2.4027,0,4.8079.0653,7.2072-.0256,1.3245-.05,1.8694.316,1.7955,1.7283a16.6414,16.6414,0,0,0,.1482,4.2761,6.7529,6.7529,0,0,0,6.8465,5.7255c8.312.027,16.6241.0154,24.9361.007,4.4667-.0045,7.1578-2.4848,7.551-6.9315.0286-.3232.0162-.65.02-.9753.0442-3.8045.044-3.8045,3.7557-3.8045,7.8575,0,15.715-.021,23.5723.0142,1.976.0089,3.2336-.7477,3.6021-2.7589Z" fill="#48b592"/><path d="M158.42,167.9333l-7.7281,0c-.4205-2.494-1.2167-3.123-4.0139-3.1231q-64.4915-.003-128.9828-.0086c-3.1557-.0007-2.7667.4446-2.7674-2.8136q-.014-57.5874-.0328-115.1748c-.0036-3.2692.8145-6.0284,3.4754-8.0565a8.1246,8.1246,0,0,1,5.0675-1.7108q20.3606.0153,40.7211.0068c.7421,0,1.6379-.22,1.6057,1.0632-.0292,1.1618-.8619.9175-1.5243.9561a9.2153,9.2153,0,0,0-5.9946,2.4755,4.568,4.568,0,0,1-3.5006,1.2234c-9.2871-.0394-18.5745-.0239-27.8618-.0192-4.775.0023-6.2749,1.5156-6.275,6.3156q-.0013,48.9981,0,97.9962c0,3.993.8185,4.818,4.7735,4.8181q74.3307,0,148.6615.0029c.7781,0,1.5561.04,2.3342.0618l-.0085,12.8012c-4.7837.02-9.5675.033-14.3511.0649C159.6494,164.8285,158.8083,165.5751,158.42,167.9333Z" fill="#48b592"/><path d="M26.542,97.2832c0-15.5444.0188-31.0889-.0307-46.6332-.0047-1.4606.2742-1.987,1.8767-1.97,8.1783.0889,16.3581.0416,24.5374.04.9033,0,1.6594-.1691,1.799,1.2854.5368,5.5963,4.0822,9.1159,9.6618,9.6286,1.2536.1152,1.4213.519,1.4323,1.62.1245,12.46,5.2518,22.28,15.5469,29.3429a2.5284,2.5284,0,0,1,.8654.7472c1.7687,3.4264-.5222,8.3927-4.29,9.2375-8.4686,1.8992-16.9718,3.65-25.4152,5.6543a24.1161,24.1161,0,0,0-18.74,23.5676c-.065,4.812-.0811,9.6272.0264,14.4377.0338,1.5153-.4293,1.9091-1.8509,1.7834A35.512,35.512,0,0,0,27.68,146.01c-.8334.0274-1.2-.273-1.1427-1.1182.0352-.5179.0049-1.04.0049-1.56Q26.542,120.3073,26.542,97.2832Z" fill="#ebf3fd"/><path d="M164.1949,119.9617c-4.1223-8.4036-10.9643-12.8946-20.0621-14.5687-7.6372-1.4053-15.1852-3.2984-22.77-4.9869a4.2593,4.2593,0,0,1-3.7129-4.3279c-.0085-.13.0126-.2625-.0072-.39-.4549-2.9257.5209-4.8085,3.0709-6.7238,8.9684-6.7362,13.2857-16.046,13.4351-27.2435.0211-1.5814.4039-1.9731,1.9587-2.1481,5.21-.5861,8.6325-4.2128,9.1746-9.4892.0933-.9089.2223-1.3992,1.3138-1.3844,6.0311.0818,12.0633.0927,18.0951.1279q0,34.3871-.016,68.7739C164.6741,118.3975,165.02,119.314,164.1949,119.9617Z" fill="#ebf3fd"/><path d="M96.3126,89.9173c-9.821-.546-19.7723-8.7249-23.1913-19.0492a30.0633,30.0633,0,0,1-1.4675-9.3939c-.02-4.9425.0712-9.887-.05-14.8266-.0394-1.6045.5632-1.9921,1.9737-2.0439a51.61,51.61,0,0,0,9.6034-1.4293c2.5794-.59,3.1576-1.375,3.1231-4.0632,2.5807-.2339,4.8263-1.46,7.1593-2.4275,1.7179,2.019,2.6135,2.1733,5.0168.9481a63.6637,63.6637,0,0,0,10.7365-6.9086c.668-.5313,1.134-.9383,1.8.0875a37.4283,37.4283,0,0,0,8.4579,8.7485c.0035,8.3882.1671,16.7805-.041,25.1634A25.8239,25.8239,0,0,1,112.47,81.8179C108.1361,86.5833,102.571,88.9642,96.3126,89.9173Zm3.7279-7.53a16.3046,16.3046,0,0,0,7.032-1.7924c1.6669-.889,2.2657-2.3432,1.6183-3.8389a2.777,2.777,0,0,0-4.0323-1.4322,10.324,10.324,0,0,1-9.3287-.0029,2.7828,2.7828,0,0,0-4.0322,1.4376c-.6476,1.4933-.0641,2.9641,1.616,3.8412A16.1554,16.1554,0,0,0,100.0405,82.3871ZM87.8535,54.1463h.0087c0-1.04.0684-2.0856-.0153-3.1189A2.9837,2.9837,0,0,0,84.79,48.1308a2.8922,2.8922,0,0,0-2.7458,2.9705c-.0583,2.0134-.0635,4.0317.0056,6.0445a2.8566,2.8566,0,0,0,2.812,2.8991,2.9673,2.9673,0,0,0,2.9734-2.7806C87.9344,56.234,87.8535,55.1862,87.8535,54.1463Zm30.1.0833c0-1.1051.0535-2.2134-.0124-3.3145a2.7027,2.7027,0,0,0-2.7353-2.7489,2.6327,2.6327,0,0,0-2.9846,2.4685,42.0526,42.0526,0,0,0-.02,6.8137,2.7328,2.7328,0,0,0,2.919,2.58,2.8266,2.8266,0,0,0,2.8272-2.8743C118.0059,56.1827,117.9578,55.2047,117.9532,54.23Z" fill="#f0caba"/><path d="M63.6563,145.9987c-7.3958,0-14.7923-.0535-22.1869.0423-1.6041.0208-1.928-.4926-1.8736-1.9641.2066-5.5809-.4415-11.1985.3086-16.7459a18.2033,18.2033,0,0,1,14.5418-15.5844c4.7381-1.0578,9.49-2.0549,14.22-3.1449a3.1168,3.1168,0,0,1,2.8356.6357c4.6666,3.5046,9.3841,6.941,14.0837,10.4014.4176.3075.7933.7776,1.2587.8968,2.4924.6388,2.4805,2.35,2.3119,4.4724-.52,6.5413-.8913,13.0959-1.2037,19.6509-.0663,1.391-.7377,1.3535-1.72,1.3509C78.7075,145.99,71.1819,145.9987,63.6563,145.9987Z" fill="#fcfcfc"/><path d="M93.4632,36.6837c-2.333.9675-4.5786,2.1936-7.1593,2.4275a3.643,3.643,0,0,0-4.4792-1.662A47.8847,47.8847,0,0,1,72.99,38.8c-1.0462.07-1.368-.2546-1.3608-1.2783.0406-5.8547-.1628-11.7183.09-17.5626C72.0846,11.5141,78.1374,5.9106,86.561,5.905c8.6346-.0058,17.2692.0385,25.9039.0608C113.9166,7.79,115.89,9.149,117.0714,11.22c3.6177,6.3433,2.3668,13.2,2.1222,19.9509-.0017.0464-.0886.09-.1358.1344a23.5767,23.5767,0,0,1-4.3169-5.4449c-1.95-3.0607-4.5322-3.5156-7.315-1.2059A58.3006,58.3006,0,0,1,95.6637,32.476C93.8264,33.3651,93.0246,34.6652,93.4632,36.6837Z" fill="#cd9671"/><path d="M151.4254,145.9162q-17.5977.0408-35.1954.08c-4.2354.0084-4.232.0012-4.4731-4.2185-.3594-6.2886-.7092-12.5778-1.1037-18.8642-.0554-.8825.0118-1.3439,1.0461-1.6254,1.5775-.4293,2.7365-1.69,4.0519-2.6244,2.8993-2.0605,5.769-4.1629,8.6507-6.2482.5537.1581,1.1039.33,1.6616.4722,4.7319,1.2086,9.7409,1.5144,14.1031,3.9373,7.1685,3.9817,11.1264,10.0465,11.2661,18.3819C151.4926,138.7758,151.4315,142.3465,151.4254,145.9162Z" fill="#fdfdfd"/><path d="M164.1949,119.9617c.8255-.6477.4792-1.5642.48-2.36q.0288-34.3869.016-68.7739c2.5291-.035,5.0594-.0358,7.5867-.1225.98-.0336,1.2667.3715,1.1771,1.2607-.039.3865-.0057.78-.0057,1.1707q0,46.27.0426,92.54c.0035,1.8406-.37,2.629-2.3131,2.3429-1.5846-.2334-3.6931.6853-4.6706-.3529-.9615-1.0214-.2281-3.1-.2814-4.7129-.1608-4.8724.2858-9.7551-.3116-14.6233A38.5866,38.5866,0,0,0,164.1949,119.9617Z" fill="#dae9fc"/><path d="M176.3693,164.7478l.0085-12.8012c2.4235-.8377,3.02-1.6089,3.0209-4.09q.0092-49.7237.0042-99.4474c0-2.5467-.7787-4.6054-3.4256-5.4954-.2728-2.2215-1.95-3.779-2.7164-5.7674,2.7852-.14,5.58-.4216,8.0448,1.3942a8.3484,8.3484,0,0,1,3.725,6.7152c.0248.7793.0193,1.56.0193,2.34q.0012,57.23-.0043,114.46c-.0006,3.1522.3508,2.7281-2.8411,2.7489C180.26,164.8161,178.3144,164.7684,176.3693,164.7478Z" fill="#056766"/><path d="M151.4254,145.9162c.0061-3.57.0672-7.14.0073-10.709-.14-8.3354-4.0976-14.4-11.2661-18.3819-4.3622-2.4229-9.3712-2.7287-14.1031-3.9373-.5577-.1425-1.1079-.3141-1.6616-.4722,1.5949-1.2131,3.2163-2.3935,4.7717-3.6556a1.8669,1.8669,0,0,1,1.8205-.1944c5.1836,1.1535,10.3987,2.183,15.5427,3.4928a18.272,18.272,0,0,1,13.805,17.4793c.1014,5.0059-.0007,10.0156.0493,15.023.0106,1.0557-.2186,1.5117-1.38,1.4636C156.4852,145.92,153.9542,145.9445,151.4254,145.9162Z" fill="#eae5ef"/><path d="M96.3126,89.9173c6.2584-.9531,11.8235-3.334,16.1578-8.0994a25.8239,25.8239,0,0,0,6.9627-17.0953c.2081-8.3829.0445-16.7752.041-25.1634a40.8073,40.8073,0,0,0,7.8726,4.1728,1.2823,1.2823,0,0,1,1.011,1.41c-.1492,6.6912.3247,13.3944-.2767,20.0753-1.359,15.0979-16.26,26.9623-31.2347,24.9132A2.347,2.347,0,0,1,96.3126,89.9173Z" fill="#e8aa98"/><path d="M105.3325,131.8823c.262,4.2188.4942,8.44.8068,12.6549.08,1.0742-.1325,1.5137-1.3155,1.4878-3.2449-.0709-6.4936-.0761-9.7382.0023-1.2053.0291-1.3933-.462-1.3269-1.4976.5575-8.6962,1.0612-17.3959,1.6331-26.0911.1154-1.7552,1.7946-2.45,2.8155-3.5612,1.7321-1.8857,1.6668-1.6849,3.6267-.0657a7.82,7.82,0,0,1,2.9484,6.75c-.0556,3.4356.3641,6.8789.5782,10.3188Z" fill="#d98591"/><path d="M119.0578,31.3053c.0472-.0447.1341-.088.1358-.1344.2446-6.7512,1.4955-13.6076-2.1222-19.9509-1.1811-2.071-3.1548-3.43-4.6065-5.2542,9.1038-.51,15.764,5.6246,15.8778,14.7009.0642,5.1236-.0238,10.249.0356,15.3727.0164,1.41-.2985,1.7765-1.6043,1.0446A27.3631,27.3631,0,0,1,119.0578,31.3053Z" fill="#c48254"/><path d="M173.2609,37.1459c.7662,1.9884,2.4436,3.5459,2.7164,5.7674-10.3213-.0543-20.6425-.1218-30.9639-.1451a4.1147,4.1147,0,0,1-3.1457-1.12,9.3093,9.3093,0,0,0-6.1521-2.5738c-.6814-.0337-1.4877.1529-1.4893-.9935-.0019-1.2887.9176-1.0241,1.6411-1.0252q12.0768-.0183,24.1535-.0036C164.4343,37.06,168.8476,37.1131,173.2609,37.1459Z" fill="#48b592"/><path d="M180.6612,194.0219c.8468-1.8837,2.4711-3.2664,3.2592-5.2106a11.6944,11.6944,0,0,0,1.04-4.4785c-.0151-4.5324-.0094-9.065-.0119-13.5974,2.5229-.0188,5.0458-.0459,7.5687-.0507.617-.0012,1.3952-.1623,1.3813.8594-.06,4.4043.4412,8.8479-.2011,13.2044-.8547,5.7972-5.2707,9.3156-11.0987,9.3414C181.9527,194.0928,181.3069,194.0458,180.6612,194.0219Z" fill="#056766"/><path d="M99.9938,170.6782c4.0229,0,8.0464.04,12.0683-.0235,1.2477-.02,1.6988.3373,1.6734,1.6432-.0951,4.8995.424,4.1987-4.1021,4.2173-7.0075.0289-14.0157-.0426-21.0223.0427-1.7629.0215-2.4166-.47-2.3669-2.3067.0968-3.5707.0044-3.5732,3.6275-3.5732Q94.9327,170.678,99.9938,170.6782Z" fill="#405871"/><path d="M122.2112,106.5969c-3.9285,2.9029-7.4642,5.5069-10.9868,8.1286-.4714.3508-.8187.5006-1.3106-.01-1.5727-1.6329-3.168-3.2455-4.8017-4.8169-.6578-.6327-.319-.926.2189-1.3169,2.617-1.9016,5.2184-3.8246,7.83-5.7337.3465-.2533.6668-.61,1.1176-.06C116.1925,105.1208,118.8517,106.05,122.2112,106.5969Z" fill="#48b592"/><path d="M77.761,106.589c3.3449-.5588,6.023-1.4576,7.9357-3.801.4313-.5285.7482-.2507,1.1181.0216,2.6612,1.9591,5.317,3.9256,7.9913,5.8664.5591.4057.5936.7165.0927,1.2061-1.6237,1.5869-3.2325,3.19-4.8095,4.8232-.484.5012-.83.3876-1.3119.0292C85.25,112.1091,81.7079,109.5034,77.761,106.589Z" fill="#48b592"/><path d="M103.1475,102.8005a1.6791,1.6791,0,0,1-.2381.2959c-2.8237,2.2262-2.8222,2.2228-5.7442.0674q-3.7532-2.7685-7.5143-5.5263c-1.6111-1.1866-1.6093-1.189-1.2331-3.52a36.9962,36.9962,0,0,0,14.6891,2.0079Q103.1273,99.4631,103.1475,102.8005Z" fill="#f0caba"/><path d="M103.1475,102.8005q-.02-3.3375-.0406-6.6749a49.7605,49.7605,0,0,0,8.4642-1.9625,2.6274,2.6274,0,0,1-1.1836,3.4855C107.92,99.2842,105.5552,101.0746,103.1475,102.8005Z" fill="#e8aa98"/><path d="M65.792,49.3632c-.0011,1.1674-.0191,2.3352.0055,3.5021.0157.7443-.26,1.0105-1.0361.9751a4.4933,4.4933,0,0,1-4.2417-4.474,4.4383,4.4383,0,0,1,4.033-4.44c.8893-.0673,1.3249.1284,1.2573,1.13C65.7359,47.1541,65.7931,48.2606,65.792,49.3632Z" fill="#e8aa98"/><path d="M134.1988,49.4411c0-.9089-.0038-1.8177,0-2.7265.0087-1.9275.4224-2.2068,2.29-1.5527a4.3422,4.3422,0,0,1,2.9475,4.7095,4.4251,4.4251,0,0,1-3.94,3.9326c-.8625.1162-1.3665-.0155-1.31-1.053C134.2453,51.6506,134.1992,50.5446,134.1988,49.4411Z" fill="#f0caba"/><path d="M100.0405,82.3871A16.1554,16.1554,0,0,1,92.9136,80.6c-1.68-.8771-2.2636-2.3479-1.616-3.8412A2.7828,2.7828,0,0,1,95.33,75.3207a10.324,10.324,0,0,0,9.3287.0029,2.777,2.777,0,0,1,4.0323,1.4322c.6474,1.4957.0486,2.95-1.6183,3.8389A16.3046,16.3046,0,0,1,100.0405,82.3871Z" fill="#040405"/><path d="M87.8535,54.1463c0,1.04.0809,2.0877-.0185,3.118a2.9673,2.9673,0,0,1-2.9734,2.7806,2.8566,2.8566,0,0,1-2.812-2.8991c-.0691-2.0128-.0639-4.0311-.0056-6.0445A2.8922,2.8922,0,0,1,84.79,48.1308a2.9837,2.9837,0,0,1,3.0571,2.8966c.0837,1.0333.0153,2.0788.0153,3.1189Z" fill="#040405"/><path d="M117.9555,54.23c.0023.9751.05,1.9531-.0084,2.9246a2.8266,2.8266,0,0,1-2.8272,2.8743,2.7328,2.7328,0,0,1-2.919-2.58,42.0526,42.0526,0,0,1,.02-6.8137,2.6327,2.6327,0,0,1,2.9846-2.4685,2.7027,2.7027,0,0,1,2.7353,2.7489C118.0067,52.0162,117.9532,53.1245,117.9555,54.23Z" fill="#040405"/></svg>