<svg xmlns="http://www.w3.org/2000/svg" viewBox="0 0 200 200"><path d="M199.5481,175.8392c0,7.5091-.0426,15.0187.04,22.527.0146,1.3326-.2635,1.5917-1.5931,1.5908q-93.0144-.0634-186.0288-.0368c-3.56,0-7.1207-.0344-10.68.0255-.8362.0141-1.145-.1606-.979-.998a4.0576,4.0576,0,0,0,.0076-.7753V.669Q99.0576.669,197.8.6326c1.456-.001,1.7855.3278,1.7842,1.7842q-.0654,77.9721-.0365,155.9442c-.271-.7778-.5531-1.5519-.8112-2.3339-1.7214-5.215-7.3926-9.8636-12.5856-10.0472-4.1843-.148-8.3785-.0139-12.5684-.0049l-12.4413.01q-5.9831-.0054-11.9668-.0106c-3.4522-5.56-8.4763-7.9165-14.5384-6.6251-4.8122,1.0252-7.8506,4.19-9.7146,8.6117a15.9989,15.9989,0,0,0-6.9744-1.998c-3.99-.0293-7.9809.0058-11.9714.0136l-12.5107.01-11.277.0113c-3.429-5.0974-7.9958-7.7934-14.3183-6.7819-.0169-2.0022-.045-4.0043-.0487-6.0065q-.034-18.5077-.059-37.0154c.0373-.7072.1069-1.4143.1072-2.1215q.0084-23.094.024-46.1879c.001-.5644-.4557-1.4789.3637-1.6634a1.9345,1.9345,0,0,1,1.8885,1.1267,4.4318,4.4318,0,0,1,.4571,2.4393q-.0175,10.8678,0,21.7355a8.1048,8.1048,0,0,0,.3023,2.8694c1.52,4.16,5.94,5.6879,9.9931,3.2721,4.8721-2.9037,9.6619-5.9454,14.4874-8.9274q.0567,3.2.1131,6.4c.0706,4.262,2.5151,6.7859,6.7681,6.7892q40.7738.032,81.5477,0c4.2649-.0033,6.7675-2.52,6.7721-6.77q.0306-28.35.0016-56.7c-.0041-4.3473-2.56-6.9065-6.8622-6.9082q-40.6769-.0158-81.3536,0c-4.22.0016-6.8471,2.54-6.8608,6.7147-.0366,11.1327.0174,22.2659-.0471,33.3984-.0094,1.6174.5605,1.3319,1.482.787,2.1372,3.6631,4.2227,7.358,6.68,10.8236a5.7067,5.7067,0,0,1-2.3383,1.5107c-1.9662-3.1857-4-6.3322-5.8641-9.5766-.7255-1.263-1.2537-1.355-2.44-.566-2.9269,1.9466-5.9561,3.7394-9.2637,5.7922,0-3.9177.0426-7.4484-.009-10.9777C83.6105,42.5206,80.69,37.2219,74.267,34.32c-4.493-2.03-9.3422-1.4994-14.1062-1.2129a41.0843,41.0843,0,0,0-6.3007-.1018l-6.8941-.08-6.5331.0763c-2.33-.0071-4.66-.0555-6.9894-.0142-9.3423.1658-16.2532,6.4475-16.37,15.3946-.19,14.5615-.0466,29.1272-.08,43.6911-.0024,1.0455.3493,1.3113,1.3384,1.2961,3.3-.0507,6.606-.1221,9.9.0241,1.6814.0746,1.9884-.4842,1.9811-2.0521-.0639-13.7222-.0376-27.4448-.0349-41.1673a10.6586,10.6586,0,0,1,.063-1.9366,2.17,2.17,0,0,1,2.2814-1.9686c.9423.1054.44,1.293.4416,1.9666q.05,22.2342.0285,44.4685c0,1.1617.0465,2.3234.0714,3.4851q-.0162,9.4728-.0325,18.9457c-.2574.0265-.5142.0632-.7722.078A13.0358,13.0358,0,0,0,21.3805,134.41c2.4554,4.6167,6.4506,6.8878,11.6713,7.0093l-.0669,4.1242-6.988.0862c-3.1691-.0117-6.34-.0932-9.507-.0216-8.3862.19-14.5762,5.3968-15.6138,13.525C.421,162.697.7686,166.364.7518,169.9844c-.016,1.3567.02,2.7167-.0642,4.0692-.0709,1.135.4167,1.447,1.4762,1.4152,2.0018-.06,4.0067-.0169,6.01-.0169,5.4944,0,5.4944,0,5.2768-5.4882.0157-2.779.0361-5.5581.044-8.3372a3.5342,3.5342,0,0,1,.4957-2.2241,1.56,1.56,0,0,1,1.4814-.752c.7367.1308.3974.847.4,1.2925.0273,4.46.0941,8.9224-.023,13.3795-.0442,1.68.3707,2.1948,2.1247,2.1752,7.69-.0859,15.3813-.0085,23.0722.01a16.6241,16.6241,0,0,0-2.7168,6.2885c-.6315,3.9638-.2778,7.9477-.2619,11.9248-.016,1.4216.0306,2.8475-.0676,4.2634-.08,1.15.4008,1.4428,1.46,1.41,2.0024-.0611,4.01.0338,6.0118-.0331,1.7262-.0576,4.0547.7832,5.0184-.3629,1.0015-1.191.2836-3.4646.2465-5.266.0222-2.7159.0612-5.4319.0571-8.1479a3.468,3.468,0,0,1,.65-2.3712,1.4892,1.4892,0,0,1,1.309-.7079c.74.1411.4246.84.427,1.2894.0246,4.5937.0607,9.1882-.0126,13.7809-.0218,1.3688.2462,1.9317,1.7892,1.9213q15.2351-.1023,30.4712-.0077c1.3517.0067,1.7867-.3845,1.7654-1.7471-.0719-4.5927-.0391-9.1872-.01-13.7809.0031-.5085-.35-1.2651.4754-1.4682.63-.1552,1.0649.3352,1.4865.7437a2.5889,2.5889,0,0,1,.6,1.598c.003,4.4473.025,8.8947-.0059,13.3418-.0066.9494.3784,1.2278,1.2652,1.2115,2.0631-.0378,4.1291.0419,6.1906-.0276,1.7207-.0581,4.0409.787,5.0032-.3689.997-1.1976.2807-3.462.25-5.2608.0318-1.7343.0336-3.47.1013-5.2026.1751-4.4844-.1085-8.8626-2.7489-12.736q4.0992.0129,8.1986.0255a18.16,18.16,0,0,0-2.4583,6.0231c-.6816,3.9586-.256,7.9466-.3166,11.9218-.0133,1.2845.0516,2.576-.0609,3.8518-.1231,1.3979.2915,1.9872,1.7967,1.8868,1.8547-.1236,3.724-.0293,5.5869-.0293,5.5835,0,5.5835,0,5.3957-5.7092.0133-2.717.0187-5.434.0465-8.1508a5.1826,5.1826,0,0,1,.172-1.719c.2755-.7394.841-1.4821,1.6911-1.3538.9074.137.5073,1.0578.5117,1.6259.0343,4.3993.0755,8.8-.0112,13.1978-.031,1.5687.4,2.1415,2.0578,2.13q14.9433-.1017,29.8874.0036c1.6253.0121,1.9207-.5865,1.8967-2.027-.0752-4.5276-.0338-9.0573-.0178-13.5862.0017-.4806-.2191-1.1122.4185-1.3633.6231-.2455,1.1056.14,1.5575.5329a2.5377,2.5377,0,0,1,.7234,2.12c.001,2.8464.0234,5.6927.0378,8.5391-.015,1.42-.0006,2.8416-.0546,4.26-.0409,1.0735.4136,1.5258,1.4851,1.5076,1.9367-.0329,3.8775.0612,5.8106-.0281,1.78-.0823,4.1057.837,5.1921-.4173,1.0379-1.1982.25-3.4682.2837-5.2666.0137-1.9856-.045-3.9749.0561-5.956.2167-4.25-.3152-8.3043-2.7543-11.93,5.1744-.0193,10.3492-.0744,15.5231-.0319,1.2542.01,1.6779-.3419,1.6583-1.6334-.07-4.5923-.0433-9.1865-.0057-13.78.0045-.5534-.4317-1.45.5284-1.6006a1.8377,1.8377,0,0,1,1.7217,1.0545,3.5645,3.5645,0,0,1,.3743,2.0629q.0417,4.0719.0955,8.1436c-.0179,1.3483.0488,2.7046-.0776,4.0427-.1254,1.3269.418,1.61,1.6371,1.6C192.1068,175.71,195.8276,175.7974,199.5481,175.8392ZM50.5056,1.7842c-6.8175-.3621-13.427,5.5-13.4989,13.3152A13.501,13.501,0,1,0,64.0083,15.06,13.2721,13.2721,0,0,0,50.5056,1.7842Zm130.019,126.7047A13.1862,13.1862,0,1,0,167.31,141.6653,13.2847,13.2847,0,0,0,180.5246,128.4889Zm-67.1872.1339a13.0916,13.0916,0,0,0-13.0622-13.3061c-7.5638.1111-13.1181,5.5019-13.285,13.3347-.1482,6.9547,6.0474,12.9684,13.0209,13.0077A13.1671,13.1671,0,0,0,113.3374,128.6228ZM23.7933,96.589c-1.804,0-3.6106.0595-5.4111-.0194-1.3613-.06-1.4942.6254-1.27,1.6832a6.4567,6.4567,0,0,0,6.6683,4.9793,6.5426,6.5426,0,0,0,6.3659-5.19c.1548-.89.0157-1.5053-1.1347-1.4672C27.2739,96.6322,25.5329,96.59,23.7933,96.589Z" fill="#fefefe"/><path d="M186.8274,170.0969q-.0486-4.0718-.0955-8.1436a3.5645,3.5645,0,0,0-.3743-2.0629,1.8377,1.8377,0,0,0-1.7217-1.0545c-.96.15-.5239,1.0472-.5284,1.6006-.0376,4.5931-.0641,9.1873.0057,13.78.02,1.2915-.4041,1.6436-1.6583,1.6334-5.1739-.0425-10.3487.0126-15.523.0317a16.0805,16.0805,0,0,0-8.64-5.8481c-2.666-.77-5.3905-.26-8.0824-.4394.006-3.12.0394-6.2412-.01-9.3608-.0078-.5.5631-1.6209-.8463-1.3206-.3739-.3435-.1788-.6768-.0084-1.0371a13.247,13.247,0,0,0-.1695-11.9012l11.9661.0108a9.5174,9.5174,0,0,0,12.4413-.01c4.19-.009,8.3841-.1431,12.5684.0049,5.193.1836,10.8642,4.8322,12.5856,10.0472.2581.782.54,1.5561.8112,2.3339v11.6521Z" fill="#55c6a5"/><path d="M186.8274,170.0969l12.7207-.0838v5.8261c-3.7205-.0418-7.4413-.1289-11.1612-.0994-1.2191.01-1.7625-.2733-1.6371-1.6C186.8762,172.8015,186.81,171.4452,186.8274,170.0969Z" fill="#803a1d"/><path d="M101.2885,64.7812a5.7037,5.7037,0,0,0,2.3383-1.5115c2.7743-1.38,3.1618-3.8943,3.14-6.6033a9.2941,9.2941,0,0,0,.9821-.5992q9.4463-7.4449,18.88-14.9049c2.3487-1.8564,2.8677-3.5612,1.5956-5.1915-1.2611-1.616-3.1123-1.5223-5.4377.2755-.1023.0791-.2052.1576-.3068.2377-4.1636,3.2833-8.3592,6.5269-12.4779,9.8657-2.2927,1.8587-4.8178,3.4457-6.8,5.6773-2.1365-.6229-4.2539-.9622-6.2558.42-.9212.5448-1.4911.83-1.4817-.7871.0645-11.1325.01-22.2657.0471-33.3984.0137-4.1752,2.6411-6.7131,6.8608-6.7147q40.6769-.0152,81.3536,0c4.3024.0017,6.8581,2.5609,6.8622,6.9082q.0268,28.35-.0016,56.7c-.0046,4.25-2.5072,6.767-6.7721,6.77q-40.7739.0312-81.5477,0c-4.253-.0033-6.6975-2.5272-6.7681-6.7892q-.0531-3.2-.1132-6.4C97.312,67.3562,99.5726,66.4751,101.2885,64.7812Z" fill="#056766"/><path d="M33.0642,96.1892c-.0249-1.1617-.071-2.3234-.0714-3.4851q-.0074-22.2342-.0285-44.4685c-.0015-.6736.5007-1.8612-.4416-1.9666a2.17,2.17,0,0,0-2.2814,1.9686,10.6586,10.6586,0,0,0-.063,1.9366c-.0027,13.7225-.029,27.4451.0349,41.1673.0073,1.5679-.3,2.1267-1.9811,2.0521-3.2944-.1462-6.6-.0748-9.9-.0241-.9891.0152-1.3408-.2506-1.3384-1.2961.0339-14.5639-.1091-29.13.08-43.6911.1165-8.9471,7.0274-15.2288,16.37-15.3946,2.329-.0413,4.66.0071,6.99.0141q3.0183,7.9126,6.036,15.8258A85.5361,85.5361,0,0,0,50.4331,59.085q-.0069,18.4677-.0139,36.9356l-1.6252.1715Z" fill="#262e5c"/><path d="M50.4192,96.0206q.0071-18.4679.0139-36.9357a97.3231,97.3231,0,0,0,4.2678-11.72,102.12,102.12,0,0,0,5.4415-14.2436l.0177-.013c4.7647-.2873,9.6139-.818,14.1069,1.2121,6.4228,2.902,9.3435,8.2007,9.4448,15.1331.0516,3.5293.009,7.06.009,10.9777,3.3076-2.0528,6.3368-3.8456,9.2637-5.7922,1.1861-.789,1.7143-.697,2.44.566,1.8637,3.2444,3.8979,6.3909,5.8641,9.5766-1.7158,1.694-3.9764,2.5751-5.9025,3.9552-4.8254,2.9821-9.6152,6.0238-14.4873,8.9275-4.0535,2.4158-8.4726.8876-9.9931-3.2721a8.1048,8.1048,0,0,1-.3023-2.8694q-.0192-10.8677,0-21.7355a4.4318,4.4318,0,0,0-.4571-2.4393,1.9345,1.9345,0,0,0-1.8885-1.1267c-.8194.1845-.3627,1.099-.3637,1.6634q-.0387,23.0938-.024,46.1879c0,.7072-.07,1.4143-.1072,2.1215l-15.7877.02ZM59.5913,55.82c1.0294,0,2.061-.0421,3.0875.0119,1.0181.0535,1.3455-.3929,1.3456-1.3688,0-.9778-.3322-1.394-1.3475-1.37-2.0576.048-4.1175.0363-6.1756.003-.9157-.0148-1.4365.197-1.446,1.2721s.3474,1.5337,1.4488,1.4666C57.53,55.7717,58.562,55.8208,59.5913,55.82Z" fill="#1c234b"/><path d="M99.8,175.7921c2.64,3.8735,2.9238,8.2517,2.7487,12.7361-.0677,1.7329-.07,3.4683-.1013,5.2023-3.5369-.0011-7.0753-.0622-10.61.0268-1.4263.0359-1.8865-.3876-1.8829-1.8449.0057-2.3566.354-4.7354-.21-7.0776a2.5889,2.5889,0,0,0-.6-1.598c-.4216-.4085-.8564-.8989-1.4865-.7437-.8255.2031-.4723.96-.4754,1.4682-.0287,4.5937-.0615,9.1882.01,13.7809.0213,1.3626-.4137,1.7538-1.7654,1.7471q-15.2353-.0756-30.4712.0077c-1.543.01-1.811-.5525-1.7892-1.9213.0733-4.5927.0372-9.1872.0126-13.7809-.0024-.45.3126-1.1483-.427-1.2894a1.4892,1.4892,0,0,0-1.309.7079,3.468,3.468,0,0,0-.65,2.3712c.0041,2.716-.0349,5.432-.0571,8.1476q-6.3343-.0061-12.6688-.0115c-.0159-3.9771-.37-7.961.2619-11.9248a16.6261,16.6261,0,0,1,2.7169-6.2888,17.0416,17.0416,0,0,1,8.68-5.6156l2.6785-.3423,11.22.107c4.0267,3.082,8.9,3.0858,12.4306.01l4.62-.1933,2.42-.0055c2.4238.2791,4.8869-.13,7.2936.3737A16.75,16.75,0,0,1,99.8,175.7921Z" fill="#fd3d3d"/><path d="M150.2093,169.5934c2.6919.1793,5.4164-.33,8.0824.44a16.0805,16.0805,0,0,1,8.64,5.8481c2.439,3.6262,2.9709,7.6808,2.7542,11.93-.1011,1.9811-.0424,3.97-.056,5.9556q-6.3584-.0282-12.717-.0556c-.0144-2.8464-.0368-5.6927-.0378-8.5391a2.5377,2.5377,0,0,0-.7234-2.12c-.4519-.3925-.9344-.7784-1.5575-.5329-.6376.2511-.4168.8827-.4185,1.3633-.016,4.5289-.0574,9.0586.0178,13.5862.024,1.44-.2714,2.0391-1.8967,2.027q-14.9431-.1116-29.8874-.0036c-1.6581.0113-2.0888-.5615-2.0578-2.13.0867-4.3978.0455-8.7985.0112-13.1978-.0044-.5681.3957-1.4889-.5117-1.6259-.85-.1283-1.4156.6144-1.6911,1.3538a5.1826,5.1826,0,0,0-.172,1.719c-.0278,2.7168-.0332,5.4338-.0462,8.15q-6.3591,0-12.7187,0c.0606-3.9752-.365-7.9632.3166-11.9218a18.176,18.176,0,0,1,2.4576-6.0233,15.7,15.7,0,0,1,8.8676-5.8188l2.747-.3962,11.6872.0622a9.5074,9.5074,0,0,0,12.4021-.03l4.21-.0407Z" fill="#79bdfd"/><path d="M49.7263,169.8914a17.0416,17.0416,0,0,0-8.68,5.6156c-7.691-.0179-15.3826-.0953-23.0723-.0094-1.754.02-2.1689-.4953-2.1247-2.1752.1171-4.4571.05-8.9194.023-13.3795-.0028-.4455.3365-1.1617-.4-1.2925a1.56,1.56,0,0,0-1.4814.752,3.5342,3.5342,0,0,0-.4957,2.2241c-.0079,2.7791-.0283,5.5582-.0436,8.3373q-6.3493.0105-12.6995.0206c.0168-3.62-.3308-7.2874.1243-10.8518,1.0376-8.1282,7.2276-13.3353,15.6138-13.525,3.1672-.0716,6.3379.01,9.5064.021C30,148.8655,34.6029,148.8844,39,145.6815l9.79-.1165,3.2123.3287a13.5191,13.5191,0,0,1,5.7671,1.9387,1.699,1.699,0,0,1,.003.3855c-1.578,7.0927.5209,12.0091,6.6839,15.6856a6.1677,6.1677,0,0,1,.8566.748q-.0663,2.43-.131,4.8608l-1.5573.1439-11.2205-.107c-.005-2.3141-.058-4.63.0082-6.9416a14.52,14.52,0,0,0-.4671-2.8256,1.5033,1.5033,0,0,0-1.688-1.2658c-.9893.0629-.5671.9977-.5709,1.5424C49.6641,163.336,49.706,166.6138,49.7263,169.8914Z" fill="#79bdfd"/><path d="M131.3,169.6647l-11.6878-.0621c-.0055-2.651-.0186-5.3021-.0122-7.9531a2.76,2.76,0,0,0-.7592-2.3048,1.6523,1.6523,0,0,0-1.5684-.5679c-.7007.2168-.3739.8763-.3786,1.329-.0337,3.2974-.0243,6.5952-.0286,9.8929a15.7,15.7,0,0,0-8.8676,5.8188q-4.0983-.0123-8.1979-.0253a16.7487,16.7487,0,0,0-9.4112-5.9515c-2.4067-.5038-4.87-.0946-7.2937-.3733.0022-3.19-.0186-6.3806.0219-9.57.0114-.8969-.1839-1.3612-1.17-1.0377a15.7748,15.7748,0,0,0,.2409-12.8618l11.2777-.0115a9.6653,9.6653,0,0,0,12.5108-.01c3.99-.0078,7.9812-.0429,11.9714-.0136a15.9989,15.9989,0,0,1,6.9747,1.9982,14.1166,14.1166,0,0,0,1.5968,11.4532c1.4694,2.2966,3.6808,3.696,5.89,5.1186q-.0345,2.5177-.0689,5.0344Z" fill="#262e5c"/><path d="M57.77,147.8324a13.5147,13.5147,0,0,0-5.767-1.9384q-.0141-24.84-.0283-49.6808l15.7877-.02q.0285,18.5077.059,37.0154c.0037,2.0022.0318,4.0043.0491,6.0072C62.9635,140.2825,59.7362,143.3181,57.77,147.8324Z" fill="#36406c"/><path d="M50.5056,1.7842A13.2721,13.2721,0,0,1,64.0083,15.06a13.501,13.501,0,1,1-27.0016.0393C37.0786,7.2842,43.6881,1.4221,50.5056,1.7842Z" fill="#feb69e"/><path d="M180.5246,128.4889a13.1862,13.1862,0,1,1-26.3722-.0917,13.1862,13.1862,0,0,1,26.3722.0917Z" fill="#803a1d"/><path d="M113.3374,128.6228a13.1671,13.1671,0,0,1-13.3263,13.0363c-6.9735-.0393-13.1691-6.053-13.0209-13.0077.1669-7.8328,5.7212-13.2236,13.285-13.3347A13.0916,13.0916,0,0,1,113.3374,128.6228Z" fill="#feb69e"/><path d="M132.4092,164.5322c-2.2095-1.422-4.4209-2.8214-5.89-5.118a14.1166,14.1166,0,0,1-1.5968-11.4532c1.8637-4.4221,4.9021-7.5867,9.7143-8.6119,6.0621-1.2914,11.0862,1.0651,14.5384,6.6251a13.2444,13.2444,0,0,1,.17,11.901c-.17.36-.3655.6936.0093,1.0362l-1.5014,1.4693a13.268,13.268,0,0,1-12.7456,4.7175Q133.7587,164.8141,132.4092,164.5322Z" fill="#fdb59e"/><path d="M57.77,147.8324c1.9663-4.5143,5.1936-7.55,10.1005-8.6162,6.3221-1.0122,10.8889,1.6838,14.3179,6.7812a15.7771,15.7771,0,0,1-.2421,12.8621q-.64.7651-1.2793,1.53a13.39,13.39,0,0,1-12.7691,4.7023c-.8747-.0687-1.6477-.7338-2.5836-.44a6.2025,6.2025,0,0,0-.8574-.7483c-6.163-3.6765-8.2619-8.5929-6.6839-15.6856A1.699,1.699,0,0,0,57.77,147.8324Z" fill="#b96746"/><path d="M33.0518,141.4188c-5.2207-.1215-9.2159-2.3926-11.6713-7.0093A13.0358,13.0358,0,0,1,32.26,115.2129c.258-.0148.5148-.0515.7725-.0773,5.9674.2533,10.1694,3.114,12.3028,8.6876A13.0912,13.0912,0,0,1,33.0518,141.4188Z" fill="#fdb59e"/><path d="M33.0518,141.4188a13.0912,13.0912,0,0,0,12.283-17.5956c-2.1334-5.5736-6.3354-8.4343-12.3028-8.6876q.0159-9.4738.0322-18.9464l15.73.0029q-.0018,24.6864-.0035,49.3728-4.8951.0584-9.7892.1163-3.0074-.0693-6.0164-.1382Z" fill="#444e83"/><path d="M54.7009,47.3645a97.3279,97.3279,0,0,1-4.2678,11.72,85.5107,85.5107,0,0,1-3.9637-10.2573,6.6933,6.6933,0,0,0-.3932-3.4311A5.2223,5.2223,0,0,1,46.91,40.46a3.667,3.667,0,0,0,.0213-5.0327c-.6058-.77-1.0962-1.6866.0352-2.502l6.8938.0795.6175.711a2.8882,2.8882,0,0,1-.7458,1.9512A3.2617,3.2617,0,0,0,53.77,40.183a5.8689,5.8689,0,0,1,.8934,5.6634C54.5219,46.31,53.898,46.8865,54.7009,47.3645Z" fill="#fd3d3d"/><path d="M89.7443,184.8348c.564,2.3422.2157,4.721.21,7.0776-.0036,1.4573.4566,1.8808,1.8829,1.8449,3.5347-.089,7.0731-.0279,10.61-.0268.0309,1.7991.7472,4.0635-.25,5.2611-.9623,1.1559-3.2825.3108-5.0032.3689-2.0615.07-4.1275-.01-6.1906.0276-.8868.0163-1.2718-.2621-1.2652-1.2115C89.7693,193.73,89.7473,189.2821,89.7443,184.8348Z" fill="#b96746"/><path d="M38.0674,193.7206q6.3344.0056,12.6688.0115c.0371,1.8017.755,4.0753-.2465,5.2663-.9637,1.1461-3.2922.3053-5.0184.3629-2.0021.0669-4.0094-.028-6.0118.0331-1.0589.0324-1.5395-.2607-1.46-1.41C38.098,196.5681,38.0514,195.1422,38.0674,193.7206Z" fill="#b96746"/><path d="M105.2233,193.7626q6.3594,0,12.7187,0c.1875,5.71.1875,5.71-5.396,5.71-1.8629,0-3.7322-.0943-5.5869.0293-1.5052.1-1.92-.4889-1.7967-1.8868C105.2749,196.3386,105.21,195.0471,105.2233,193.7626Z" fill="#feb69e"/><path d="M156.9131,193.7117q6.3585.0276,12.717.0556c-.0333,1.7988.7541,4.0688-.2838,5.267-1.0864,1.2543-3.4125.335-5.1921.4173-1.9331.0893-3.8739-.0048-5.8106.0281-1.0715.0182-1.526-.4341-1.4851-1.5076C156.9125,196.5533,156.8981,195.1319,156.9131,193.7117Z" fill="#feb69e"/><path d="M23.7933,96.5893c1.74,0,3.4806.0429,5.2182-.0146,1.15-.0381,1.2895.5776,1.1347,1.4672a6.5426,6.5426,0,0,1-6.3659,5.19,6.4567,6.4567,0,0,1-6.6683-4.9793c-.224-1.0578-.0911-1.7429,1.27-1.6832C20.1827,96.6485,21.9893,96.589,23.7933,96.5893Z" fill="#feb69e"/><path d="M.7518,169.9844q6.35-.01,12.7-.0206c.2172,5.4881.2172,5.4882-5.2772,5.4881-2.0036,0-4.0085-.0432-6.01.0169-1.0595.0318-1.5471-.28-1.4762-1.4152C.7721,172.7011.7358,171.3411.7518,169.9844Z" fill="#feb69e"/><path d="M106.7668,56.6664c.0218,2.709-.3657,5.2234-3.14,6.6033-2.4572-3.4649-4.5427-7.16-6.68-10.8229,2.0016-1.382,4.119-1.0427,6.2557-.4205A9.353,9.353,0,0,1,106.7668,56.6664Z" fill="#fdb59e"/><path d="M46.966,32.9256c-1.1314.8154-.641,1.7318-.0352,2.502A3.667,3.667,0,0,1,46.91,40.46a5.2223,5.2223,0,0,0-.8333,4.9362,6.6933,6.6933,0,0,1,.3932,3.4311q-3.018-7.9129-6.0361-15.8258Z" fill="#fbf8f9"/><path d="M32.9849,145.543q3.0085.069,6.0164.1382c-4.3984,3.2032-9.0014,3.1843-13.005-.0526Q29.4912,145.5865,32.9849,145.543Z" fill="#fdb59e"/><path d="M173.5829,145.975a9.5174,9.5174,0,0,1-12.4413.01Z" fill="#803a1d"/><path d="M105.976,145.9764a9.6653,9.6653,0,0,1-12.5108.01Q99.7208,145.9814,105.976,145.9764Z" fill="#fdb59e"/><path d="M54.4773,33.7161l-.6175-.711a41.1,41.1,0,0,1,6.301.1019l-.0181.0154c-.6858.04-1.3788.0293-2.0565.1262C56.885,33.42,55.575,32.7661,54.4773,33.7161Z" fill="#fdb59e"/><path d="M147.8529,160.3807l1.5014-1.4693c1.4085-.2994.8376.8217.8454,1.3215.049,3.12.0156,6.24.01,9.3608q-1.1489,0-2.2975,0Q147.8824,164.9877,147.8529,160.3807Z" fill="#fefefe"/><path d="M106.7668,56.6664a9.353,9.353,0,0,0-3.5642-4.64c1.9822-2.2309,4.5073-3.8179,6.8-5.6766,4.1187-3.3388,8.3143-6.5824,12.4779-9.8657.1016-.08.2045-.1586.3068-.2377,2.3254-1.7978,4.1766-1.8915,5.4377-.2755,1.2721,1.63.7531,3.3351-1.5956,5.1915q-9.4359,7.458-18.88,14.9049A9.2941,9.2941,0,0,1,106.7668,56.6664Z" fill="#fb8b47"/><path d="M48.7905,145.565q.0017-24.6865.0035-49.3729l1.6252-.1715,1.5554.1926q.0142,24.8406.0283,49.6808Q50.3966,145.7292,48.7905,145.565Z" fill="#fefefe"/><path d="M54.4773,33.7161c1.0977-.95,2.4077-.2957,3.6089-.4675.6777-.0969,1.3707-.0866,2.0565-.1262a102.2156,102.2156,0,0,1-5.4418,14.242c-.8029-.4779-.179-1.0545-.0372-1.518A5.8689,5.8689,0,0,0,53.77,40.183a3.2617,3.2617,0,0,1-.0388-4.5157A2.8882,2.8882,0,0,0,54.4773,33.7161Z" fill="#fbf8f9"/><path d="M59.5913,55.82c-1.0293,0-2.0617-.0486-3.0872.0139-1.1014.0671-1.4584-.3916-1.4488-1.4666s.53-1.2869,1.446-1.2721c2.0581.0333,4.118.045,6.1756-.003,1.0153-.0237,1.3477.3925,1.3475,1.37,0,.9759-.3275,1.4223-1.3456,1.3688C61.6523,55.7776,60.6207,55.82,59.5913,55.82Z" fill="#262e5c"/><path d="M67.898,165.0926a13.3918,13.3918,0,0,0,12.769-4.7042q.0041,4.5412.0082,9.0841l-4.62.1932-8.1694-.1187Z" fill="#262e5c"/><path d="M49.7263,169.8914c-.02-3.2776-.0622-6.5554-.04-9.8328.0038-.5447-.4184-1.48.5709-1.5424a1.5033,1.5033,0,0,1,1.688,1.2658,14.52,14.52,0,0,1,.4671,2.8256c-.0662,2.3121-.0132,4.6275-.0082,6.9416Z" fill="#fbf8f9"/><path d="M80.6752,169.4725q-.0041-4.5425-.0082-9.0841.6393-.7635,1.2792-1.5289c.9865-.3237,1.1818.1406,1.17,1.0375-.0405,3.19-.02,6.38-.0219,9.57Q81.885,169.4695,80.6752,169.4725Z" fill="#fefefe"/><path d="M67.8862,169.547l8.1694.1187c-3.53,3.0762-8.4039,3.0724-12.4306-.01l1.5574-.1437Z" fill="#b96746"/><path d="M147.8529,160.3807q.0294,4.6068.0589,9.2133l-4.2109.04-8.6258-.09.0319-4.4452A13.2714,13.2714,0,0,0,147.8529,160.3807Z" fill="#55c6a5"/><path d="M116.8651,169.9987c.0043-3.2977-.0051-6.5955.0286-9.8929.0047-.4527-.3221-1.1122.3786-1.329a1.6523,1.6523,0,0,1,1.5684.5679A2.76,2.76,0,0,1,119.6,161.65c-.0064,2.651.0067,5.3021.0122,7.9531Z" fill="#fbf8f9"/><path d="M135.0751,169.5445l8.6258.09a9.5066,9.5066,0,0,1-12.4016.03q.5211-.0488,1.0408-.097Q133.7074,169.5566,135.0751,169.5445Z" fill="#fdb59e"/><path d="M67.8862,169.547l-2.7038-.0346q.0651-2.4308.131-4.8609c.9367-.2937,1.71.3714,2.5844.44Q67.8922,167.32,67.8862,169.547Z" fill="#fbf8f9"/><path d="M135.0751,169.5445q-1.3675.0119-2.735.0232.0348-2.5176.0691-5.0349,1.3492.2815,2.6981.5654Q135.0909,167.3225,135.0751,169.5445Z" fill="#fbf8f9"/></svg>