<svg xmlns="http://www.w3.org/2000/svg" viewBox="0 0 200 200"><path d="M30.23,122.6667V120.749q0-39.5491-.0335-79.0983c-.0028-1.577.1974-2.154,2.0236-2.1488q40.0348.1137,80.07.007c1.6964-.0041,2.0089.4938,1.9386,2.0375-.13,2.843-.037,5.6962-.037,8.7458-2.2481-1.1144-4.4362-1.8559-6.8822-1.0775a7.7693,7.7693,0,0,0,2.7649,15.2008,7.6939,7.6939,0,0,0,7.1887-7.36c.1136-5.31.0761-10.6241.0086-15.9352-.016-1.2538.2907-1.6652,1.5814-1.5966,2.1317.1133,4.2764.0912,6.4107.0058,1.0983-.0439,1.4118.2824,1.3928,1.3859-.067,3.8857.0229,7.7743-.053,11.66a2.75,2.75,0,0,0,1.58,2.7928q24.972,13.8089,49.8864-.0646a2.6361,2.6361,0,0,0,1.4487-2.6783c-.0623-3.8211.0191-7.6446-.0476-11.4655-.0207-1.1817.1674-1.73,1.5374-1.6392a39.7934,39.7934,0,0,0,6.019-.0063c1.6493-.1414,1.8267.5466,1.8243,1.9448q-.0576,34.3019-.0272,68.6038,0,12.1466.0087,24.2931c.0019.9519.1071,1.6422-1.33,1.6369-16.4544-.06-32.909-.0391-49.3636-.0439a6.0746,6.0746,0,0,1-.75-.1187c1.618-4.0639,3.1173-8.1043,4.828-12.0531,1.888-4.3579,1.5508-8.1979-2.2037-11.3734-.7877-.6662-.26-1.1714-.06-1.682,1.5542-3.9669,3.1549-7.9156,4.74-11.87.12-.3.2212-.6074.3554-.9a1.5139,1.5139,0,0,0-.75-2.2687c-1.0429-.4468-1.7272.15-2.1144,1.1052q-1.928,4.7568-3.8352,9.5221a13.7177,13.7177,0,0,0-.7713,1.9829c-.4131,1.8042-1.3092,2.4343-3.3111,2.416-3.4764-.0317-5.9421,1.9271-7.3371,5.1173-1.8105,4.14-3.6217,8.2814-5.3319,12.4633a2.0209,2.0209,0,0,1-2.2732,1.4791c-3.6835-.09-7.3707-.0326-11.3262-.0326a40.7252,40.7252,0,0,0,4.8022-10.4447,32.8746,32.8746,0,0,0,1.3634-9.3761c-.1373-6.5277.6275-13.095-.6488-19.5759-2.9373-14.9144-15.1823-26.7474-29.5358-28.6114C68.1041,59.665,53.6542,67.28,46.6142,81.4493a38.2921,38.2921,0,0,0-3.9656,16.8421c-.0439,3.8773.3835,7.7753-.366,11.63C41.0969,116.02,35.9635,121.4921,30.23,122.6667ZM157.7151,84.6479a1.6241,1.6241,0,0,0,1.5475-2.03c-.3382-2.1447.392-3.0967,2.6188-2.6441a1.8162,1.8162,0,0,0,.5795-.0125,1.4739,1.4739,0,0,0,1.4507-1.5165,1.4453,1.4453,0,0,0-1.4124-1.545,9.3676,9.3676,0,0,0-1.9349-.0168c-.9805.1014-1.4492-.1987-1.292-1.2546a12.18,12.18,0,0,0,.0132-1.355c.038-1.1012-.3152-2.0113-1.5371-2.0215-1.21-.01-1.7242.88-1.5533,1.9791.3336,2.1458-.3942,3.0967-2.6207,2.6443a1.7765,1.7765,0,0,0-.5795.0125,1.4941,1.4941,0,0,0-1.4531,1.52,1.4435,1.4435,0,0,0,1.4182,1.5389,8.8124,8.8124,0,0,0,1.9345.0191c.9854-.1034,1.4257.2048,1.2939,1.2578a9.6284,9.6284,0,0,0,.0084,1.9351A1.5836,1.5836,0,0,0,157.7151,84.6479ZM142.18,78.4827c0-1.8756-.0189-3.7514.0069-5.6265.016-1.1563-.2418-2.1774-1.6005-2.1565-1.2094.0187-1.531.9368-1.5247,2.0426q.0327,5.7234.0017,11.4471c-.0052,1.1291.3925,1.9872,1.6014,1.9619,1.2219-.0255,1.5383-.94,1.5224-2.0422C142.16,82.234,142.18,80.3582,142.18,78.4827Zm31.097-.1664c0,1.94.0211,3.8807-.0082,5.82-.0169,1.1174.3421,2.0016,1.552,2.0145,1.22.013,1.5773-.8743,1.5723-1.9893q-.0253-5.7236,0-11.4472c.0046-1.1035-.3242-2.0121-1.5476-2.0171-1.211-.005-1.5888.8737-1.5748,1.992C173.2937,74.565,173.2767,76.4407,173.2767,78.3163Zm-7.58,23.4317c-2.0048,0-4.01.0077-6.0145-.003-1.1356-.006-1.9609.4474-1.9081,1.6551.0479,1.0967.8742,1.4647,1.9093,1.4618q5.82-.0165,11.641.001c1.0409.0036,1.8589-.37,1.9055-1.4643.0514-1.2045-.7644-1.6639-1.9067-1.6547C169.4474,101.759,167.5718,101.748,165.6963,101.748Zm-.1953,15.5483c1.94,0,3.88-.0133,5.82.0054,1.0408.01,1.86-.3676,1.908-1.4618.0532-1.2042-.7614-1.6606-1.9042-1.6573q-5.82.0165-11.641.001c-1.1351-.0025-1.9615.445-1.9107,1.6529.0462,1.0971.8715,1.4717,1.907,1.464C161.6206,117.286,163.5608,117.2963,165.501,117.2963Z" fill="#056766"/><path d="M81.4441,176.3806c-6.2174,0-12.435-.0343-18.6517.03-1.1921.0123-1.5159-.2718-1.497-1.4854.0765-4.9209.0223-9.8436.0387-14.7656.0038-1.1753-.0673-2.39-1.5678-2.3815-1.4894.0089-1.562,1.2174-1.5575,2.3955.0192,4.922-.04,9.8449.0416,14.7656.02,1.24-.3462,1.5-1.5132,1.47-3.1713-.0829-6.3483-.096-9.5185.0052-1.2464.04-1.48-.3535-1.468-1.5147.0611-5.7633.0422-11.5277.0128-17.2915a2.7272,2.7272,0,0,1,.8445-2.2221,7.5268,7.5268,0,0,0,2.284-5.7786,42.0123,42.0123,0,0,0-.0411-4.6582,6.23,6.23,0,0,1,1.9737-5.2075A20.2032,20.2032,0,0,1,66.27,132.8239c.9943-.0084,1.4825.2388,1.2725,1.2726-.6694,3.2944.821,5.2865,3.6822,6.7544a48.9786,48.9786,0,0,1,5.8243,3.84,2.17,2.17,0,0,0,2.8213-.0241c2.2876-1.5784,4.5536-3.2067,6.9552-4.5953a4.4087,4.4087,0,0,0,2.5391-4.6811c-.2151-2.5313-.0494-2.5454,2.4571-2.5454,9.52,0,19.0412-.0592,28.56.0474,2.0212.0226,3.0641-.6253,3.7006-2.5166.6769-2.0113,1.6975-3.9043,2.4791-5.8841.3326-.8426.6741-.8841,1.3952-.46,2.6164,1.538,5.2445,3.0581,7.9069,4.5143.7581.4146.7742.8273.4857,1.5263-1.2064,2.923-2.3473,5.8732-3.5654,8.7913a9.8249,9.8249,0,0,1-2.7935,3.6772c-1.3677,1.1645-2.5157,1.9573-4.4991.6031a7.0707,7.0707,0,0,0-8.7673,1.1143,3.395,3.395,0,0,1-2.7194,1.0443c-2.9781-.0554-5.9579-.0193-8.9371-.019-3.2977,0-3.3142.0172-3.3142,3.4106,0,8.6783-.034,17.3569.0349,26.0347.0109,1.3683-.3321,1.7043-1.6923,1.6868C93.8793,176.3359,87.6614,176.3806,81.4441,176.3806Zm-3.003-23.3123a3.1,3.1,0,1,0,3.0866,3.0621A3.12,3.12,0,0,0,78.4411,153.0683Zm.0466,18.637a3.0994,3.0994,0,1,0-3.1557-2.9929A3.1326,3.1326,0,0,0,78.4877,171.7053Z" fill="#056766"/><path d="M90.1411,129.7348a24.76,24.76,0,0,0,9.3981-10.3617,22.69,22.69,0,0,0,2.2019-9.5589c.0285-6.0229-.0329-12.0466.0371-18.0688.022-1.8888-.7587-2.5025-2.5645-2.4608-3.6248.0838-7.2531.0106-10.88.0281A15.9486,15.9486,0,0,1,74.26,81.8175c-1.651-2.4522-2.4422-2.4715-4.04-.0742a15.8817,15.8817,0,0,1-13.0676,7.5449c-1.1072.052-2.0241.3786-2.0154,1.5921.0514,7.1853-.4923,14.3973.2251,21.5494.7411,7.3891,4.742,12.9638,11.2643,17.23-7.0552.1406-12.8559,2.5084-17.5666,7.4272-1.5256-5.4786-3.54-7.1266-9.0237-7.3215a1.6334,1.6334,0,0,1-1.6067-1.0337c-1.4068-2.6469-1.43-2.6346-3.592-4.3463a20.5665,20.5665,0,0,0,9.607-10.8046,22.0528,22.0528,0,0,0,1.3471-8.1764c-.0353-5.882-.2707-11.7659,1.54-17.5142A33.0289,33.0289,0,0,1,80.0118,64.4538c16.3562.5906,30.2792,14.21,30.9712,30.6159a114.0005,114.0005,0,0,1-.28,19.0117,31.6134,31.6134,0,0,1-5.9872,14.7416c-.3312.458-.6086.934-1.3453.9282C99.13,129.7175,94.888,129.7348,90.1411,129.7348Z" fill="#48b592"/><path d="M100,188.82q-43.2417,0-86.4834.0406c-1.6169.0032-2.1081-.365-1.9832-1.991a56.6888,56.6888,0,0,0,.0171-6.2154c-.0316-.9466.2721-1.3,1.1976-1.17a7.06,7.06,0,0,0,.9707.007q86.4835,0,172.967-.0419c1.7611-.0016,2.3288.4168,2.1768,2.1869a44.1527,44.1527,0,0,0-.0124,5.8259c.0522,1.1133-.3059,1.4042-1.3955,1.383-3.4968-.0681-6.9959-.0253-10.4941-.0253Z" fill="#48b592"/><path d="M58.2167,102.84c0-3.3826.0541-6.1678-.0271-8.949-.0317-1.088.1992-1.5824,1.3755-1.7568a18.1392,18.1392,0,0,0,11.8132-6.77c.6964-.8644.9845-.8225,1.6737.0132A18.811,18.811,0,0,0,88.5335,92.424c2.9774-.0334,5.9556.0052,8.9333-.0136.7042-.0045,1.2275-.0194,1.1936.9733-.2252,6.5911.5509,13.2205-.4173,19.7747-1.3918,9.422-10.1156,16.5892-19.8507,16.5727a20.3232,20.3232,0,0,1-19.8131-16.447C57.9464,109.6107,58.382,105.92,58.2167,102.84Zm20.2377,17.0392a10.456,10.456,0,0,0,6.9532-2.7317c.7569-.6961,1.1394-1.4888.403-2.3649-.723-.86-1.5286-.66-2.3885-.039-3.7678,2.7213-6.2033,2.7172-10-.01-.8609-.6183-1.669-.8095-2.3851.0617-.7287.8865-.3309,1.6626.4285,2.3581A10.5511,10.5511,0,0,0,78.4544,119.8794Zm-6.2567-16.5453a3.0984,3.0984,0,1,0-3.0827,3.0664A3.1273,3.1273,0,0,0,72.1977,103.3341Zm15.5128-3.13a3.1,3.1,0,1,0,3.1456,3.0015A3.119,3.119,0,0,0,87.7105,100.2041Z" fill="#056766"/><path d="M129.74,28.7346c6.5341,2.17,12.8354,4.0768,18.9867,6.384a11.5965,11.5965,0,0,0,8.7144.0078c5.6815-2.121,11.51-3.8463,17.2448-5.8287,1.2935-.4471,1.7522-.4873,1.734,1.1259-.0781,6.929-.0644,13.86-.0025,20.789a2.15,2.15,0,0,1-1.3413,2.2323q-22.0419,11.3447-44.0346-.0611c-.6507-.3388-1.3385-.5653-1.3307-1.6294C129.766,44.18,129.74,36.6045,129.74,28.7346Z" fill="#48b592"/><path d="M184.8892,22.6432q-8.127,2.7075-16.2537,5.4157-7.0687,2.3587-14.1342,4.7273a3.5755,3.5755,0,0,1-2.4223.1546q-15.216-5.1174-30.4523-10.1741c-.1032-.0345-.1767-.1577-.2943-.2678.2719-.649.9647-.57,1.4457-.7322,9.6527-3.2531,19.3208-6.46,28.98-9.6947a3.6113,3.6113,0,0,1,2.4266-.0789q15.3162,5.1459,30.6471,10.2488Z" fill="#48b592"/><path d="M45.7786,143.7481c0,1.94.0257,3.8807-.006,5.82-.0518,3.1684-1.9109,4.9849-5.1125,5.0448-4.18.0782-4.18.0782-4.2115-4.136-.0383-5.1-3.26-8.2885-8.41-8.3-4.98-.0112-9.96-.054-14.9383.0321-1.3193.0228-1.72-.4-1.5361-1.6169a4.1291,4.1291,0,0,0,.0035-.9687c-.4528-5.16,2.0648-7.2452,6.6824-6.7664a2.516,2.516,0,0,0,2.9784-1.8367c1.1712-3.4774,3.61-4.85,7.1836-4.4019a5.0229,5.0229,0,0,0,1.1626.0008,5.463,5.463,0,0,1,6.3159,3.9267c.6368,1.79,1.7348,2.398,3.6515,2.3442,4.77-.1338,6.2356,1.4244,6.237,6.2016Q45.7795,141.42,45.7786,143.7481Z" fill="#056766"/><path d="M20.7024,145.2851c2.5848.0011,5.17-.036,7.7542.0108a4.6533,4.6533,0,0,1,4.88,4.8693c.148,4.4475.148,4.4475-4.2794,4.4475-4.071,0-8.1421.0162-12.2131-.0052-3.4241-.0179-5.2319-1.8448-5.2727-5.2663-.0483-4.0571-.0483-4.0571,4.09-4.0571Q18.1822,145.2841,20.7024,145.2851Z" fill="#48b592"/><path d="M41.9079,176.2028c-2.5141.6839-3.9134-.1513-5.0214-2.3778a101.2552,101.2552,0,0,0-6.6563-11.17c0,4.0357-.0349,8.0719.0222,12.1067.0162,1.1478-.1216,1.6814-1.5132,1.6821-1.4173.0007-1.6814-.4368-1.6521-1.7482.0894-3.9987.0324-8.0006-.2738-12.1272q-2.2145,3.8815-4.43,7.7625a25.4717,25.4717,0,0,0-2.0951,3.7036c-.8749,2.4-2.521,2.7547-4.8417,2.1684,3.4049-5.9666,6.7934-11.8941,10.1653-17.8311a1.398,1.398,0,0,1,1.2569-.6711c2.9862-.3865,5.0449.2689,6.5435,3.3891C35.89,166.25,39,171.1064,41.9079,176.2028Z" fill="#056766"/><path d="M70.6557,134.499c0-.89.0414-1.3474-.0083-1.7951-.1158-1.0446.295-1.1774,1.2173-.8859a21.5174,21.5174,0,0,0,13.163.0108c1.0068-.314,1.2962-.06,1.1794.91a1.2623,1.2623,0,0,0,.0011.3876c.5174,2.6207-.4628,4.3611-2.89,5.5371-1.7251.836-3.278,2.8469-4.9024,2.8411-1.6285-.0058-3.2808-1.8191-4.8665-2.921C71.9787,137.4915,69.6389,136.8329,70.6557,134.499Z" fill="#48b592"/><path d="M140.2457,119.6829c-.147,1.796-1.3777,3.7454-2.11,5.8583-.2123.6129-.6457.395-1.0706.15-2.675-1.5391-5.3634-3.055-8.0341-4.6015-.287-.1663-.6635-.2547-.6488-.8025.0845-3.1445,3.4961-6.6117,6.5282-6.5753C137.9041,113.7484,140.2621,116.161,140.2457,119.6829Z" fill="#48b592"/><path d="M121.1187,145.3274c3.0736-.1126,4.2606,1.6394,5.7869,2.9124,1.4553,1.2136,1.6687,2.0886.0552,3.3794a40.554,40.554,0,0,0-4.1356,4.1c-.641.686-1.0774.7039-1.6991-.0025-.8967-1.0191-1.9487-1.9058-2.8055-2.9544a4.2337,4.2337,0,0,1-.4888-4.9052A4.3956,4.3956,0,0,1,121.1187,145.3274Z" fill="#48b592"/><path d="M135.39,158.5431a4.5532,4.5532,0,0,1-2.2773,4.1811,4.7521,4.7521,0,0,1-4.7906-.03.7163.7163,0,0,1-.1607-.1045c-1.205-1.1605-2.9864-2.1289-3.4586-3.5363-.5311-1.5829,1.8312-2.2028,2.65-3.47a2.1918,2.1918,0,0,1,.5437-.5461c1.0926-.8055,1.6591-2.5935,3.1042-2.52C132.4552,152.59,135.3867,157.1631,135.39,158.5431Z" fill="#056766"/><path d="M109.5532,61.3109a4.6551,4.6551,0,1,1,4.6274-4.73A4.7026,4.7026,0,0,1,109.5532,61.3109Z" fill="#48b592"/><path d="M135.0166,165.4961l2.3479-2.3293c1.3356,1.3367,2.68,2.7073,4.0555,4.047a2.4012,2.4012,0,0,1,.7715,1.8878c-.0344,2.0662-.0895,4.1373.0167,6.1986.067,1.3-.7143,1.1369-1.468,1.0684-.7028-.0639-1.8525.4948-1.6718-1.0331.0076-.0637-.0047-.13.0018-.1936C139.4712,171.196,139.15,167.5317,135.0166,165.4961Z" fill="#056766"/><path d="M114.192,23.0758c3.11,1.2033,3.11,1.2033,3.11,4.2267,0,2.718-.0526,5.4375.0216,8.1535.0379,1.3847-.8948.9816-1.56.9652-.6449-.016-1.6093.4773-1.591-.9318C114.2264,31.37,114.192,27.25,114.192,23.0758Z" fill="#48b592"/><path d="M157.7151,84.6479a1.5836,1.5836,0,0,1-1.5183-1.4886,9.6284,9.6284,0,0,1-.0084-1.9351c.1318-1.053-.3085-1.3612-1.2939-1.2578a8.8124,8.8124,0,0,1-1.9345-.0191,1.4435,1.4435,0,0,1-1.4182-1.5389,1.4941,1.4941,0,0,1,1.4531-1.52,1.7765,1.7765,0,0,1,.5795-.0125c2.2265.4524,2.9543-.4985,2.6207-2.6443-.1709-1.0991.3437-1.9892,1.5533-1.9791,1.2219.01,1.5751.92,1.5371,2.0215a12.18,12.18,0,0,1-.0132,1.355c-.1572,1.0559.3115,1.356,1.292,1.2546a9.3676,9.3676,0,0,1,1.9349.0168,1.4453,1.4453,0,0,1,1.4124,1.545,1.4739,1.4739,0,0,1-1.4507,1.5165,1.8162,1.8162,0,0,1-.5795.0125c-2.2268-.4526-2.957.4994-2.6188,2.6441A1.6241,1.6241,0,0,1,157.7151,84.6479Z" fill="#fdfdfd"/><path d="M142.18,78.4827c0,1.8755-.02,3.7513.0073,5.6264.0159,1.1018-.3,2.0167-1.5224,2.0422-1.2089.0253-1.6066-.8328-1.6014-1.9619q.0263-5.7234-.0017-11.4471c-.0063-1.1058.3153-2.0239,1.5247-2.0426,1.3587-.0209,1.6165,1,1.6005,2.1565C142.1608,74.7313,142.18,76.6071,142.18,78.4827Z" fill="#fdfdfd"/><path d="M173.2767,78.3163c0-1.8756.017-3.7513-.0065-5.6266-.014-1.1183.3638-1.997,1.5748-1.992,1.2234.005,1.5522.9136,1.5476,2.0171q-.0241,5.7236,0,11.4472c.005,1.115-.3526,2.0023-1.5723,1.9893-1.21-.0129-1.5689-.8971-1.552-2.0145C173.2978,82.197,173.2767,80.2565,173.2767,78.3163Z" fill="#fdfdfd"/><path d="M165.6963,101.748c1.8755,0,3.7511.011,5.6265-.0041,1.1423-.0092,1.9581.45,1.9067,1.6547-.0466,1.0946-.8646,1.4679-1.9055,1.4643q-5.82-.02-11.641-.001c-1.0351.0029-1.8614-.3651-1.9093-1.4618-.0528-1.2077.7725-1.6611,1.9081-1.6551C161.6866,101.7557,163.6915,101.748,165.6963,101.748Z" fill="#fdfdfd"/><path d="M165.501,117.2963c-1.94,0-3.88-.01-5.82.0042-1.0355.0077-1.8608-.3669-1.907-1.464-.0508-1.2079.7756-1.6554,1.9107-1.6529q5.82.0126,11.641-.001c1.1428-.0033,1.9574.4531,1.9042,1.6573-.0484,1.0942-.8672,1.4718-1.908,1.4618C169.3815,117.283,167.4412,117.2963,165.501,117.2963Z" fill="#fdfdfd"/><path d="M78.4411,153.0683a3.1,3.1,0,1,1-3.109,3.0377A3.1251,3.1251,0,0,1,78.4411,153.0683Z" fill="#fdfdfd"/><path d="M78.4877,171.7053a3.0995,3.0995,0,1,1,3.04-3.1108A3.1265,3.1265,0,0,1,78.4877,171.7053Z" fill="#fdfdfd"/><path d="M78.4544,119.8794a10.5511,10.5511,0,0,1-6.9893-2.7258c-.7594-.6955-1.1572-1.4716-.4285-2.3581.7161-.8712,1.5242-.68,2.3851-.0617,3.7971,2.7272,6.2326,2.7313,10,.01.86-.6211,1.6655-.8213,2.3885.039.7364.8761.3539,1.6688-.403,2.3649A10.456,10.456,0,0,1,78.4544,119.8794Z" fill="#fdfdfd"/><path d="M72.1977,103.3341a3.0984,3.0984,0,1,1-3.0169-3.13A3.1319,3.1319,0,0,1,72.1977,103.3341Z" fill="#fdfdfd"/><path d="M87.7105,100.2041a3.1,3.1,0,1,1-3.0485,3.0966A3.1262,3.1262,0,0,1,87.7105,100.2041Z" fill="#fdfdfd"/></svg>