<svg xmlns="http://www.w3.org/2000/svg" viewBox="0 0 200 200"><path d="M107.7869,199.3245H93.0086q-.1695-.22-.3392-.44c-2.4109-4.1316-5.553-7.736-8.3926-11.5554-6.0009-8.0716-12.1045-16.0668-18.179-24.0836-.7415-.9787-.8065-1.6354.2994-2.5338,3.7024-3.0077,7.2411-6.217,10.9441-9.224,1.3086-1.0626.7956-1.4-.3-1.9574-4.6692-2.3751-9.296-4.8347-13.99-7.16-1.2853-.6366-1.6511-1.2168-1.111-2.647,4.4244-11.7143,8.77-23.4584,13.1376-35.1943.1677-.4507.6292-.9159-.0211-1.3581a31.8744,31.8744,0,0,1,10.7682-4.6487q.7981,5.1523,1.5963,10.303l.1469.3062-.0528-.0345c.7874,7.7988,2.05,15.5326,3.1749,23.2852-.175,1.0514.4326,1.9775.4793,2.9934l.2908.5822-.0149-.0475c.4679,3.6233.9013,7.2516,1.4219,10.8674.1935,1.3434-.0107,2.8021.9364,3.9752-.2657,6.43,1.29,12.6712,2.0336,18.993.8488,7.2131,1.9858,14.3925,3.016,21.5838.2984,2.0828.66,4.1565.993,6.2343a12.2777,12.2777,0,0,0,.9338-3.6167c.8111-5.9908,1.5545-11.9914,2.4278-17.973,1.1241-7.6994,2.3882-15.3788,3.1232-23.13a20.4285,20.4285,0,0,0,.8717-4.95c.4452-4.0391,1.4824-8.0116,1.3816-12.1119.0833-1.3377,1.1145-2.4913.7606-3.914,1.2227-7.5666,2.3559-15.1456,3.1568-22.7707l-.0511.0353.14-.2955,1.6048-10.3138a32.1769,32.1769,0,0,1,11.4378,5.0841,5.8258,5.8258,0,0,0,.4454,2.0621c4.1934,11.1741,8.311,22.377,12.5786,33.5225.7254,1.8943.28,2.6217-1.4354,3.4619-4.5816,2.2447-9.0459,4.728-13.5772,7.0769-.969.5023-1.1093.9554-.2282,1.6528.505.4.9772.8408,1.4643,1.263l6.2674,5.4327-.3748.148c-4.4661-.0093-8.9327.02-13.3977-.0525-1.2676-.0206-1.5056.5116-1.4852,1.62.0548,2.9775.03,5.9567.0161,8.9351q-.0462,9.9022-.1121,19.8034a.2968.2968,0,0,0-.1669.2821,74.3486,74.3486,0,0,0-7.5,10.07Z" fill="#226a8d"/><path d="M.4494,4.4788C1.6678,2.0411,3.6575,1.3271,6.3273,1.3346c24.6774.0692,49.3551.0408,74.0328.0432.5819,0,1.1638.0291,1.7461.0446A26.3974,26.3974,0,0,0,70.4306,9.9706C69.7837,9.9529,69.1368,9.92,68.49,9.92c-19.1047-.0028-38.21.0211-57.314-.0418-1.732-.0057-2.2316.3821-2.2286,2.1884q.0878,54.4983.0438,108.9967a5.826,5.826,0,0,1-.0047.7764c-.1364,1.0039.2532,1.3425,1.2893,1.3326,6.3456-.0609,12.6917-.06,19.0377-.0793l13.4295.0005,12.9477.0881-3.4492,8.5215c-15.3919-.01-30.7839-.06-46.1755.0063-2.609.0112-4.51-.75-5.6165-3.1671Z" fill="#f0bb7c"/><path d="M151.3142,158.2609c9.198-.0307,18.396-.05,27.5938-.1034,1.5663-.0091,1.1419,1.0992,1.1431,1.905q.0279,18.1746.0155,36.3494c0,.9709.0368,1.9417.0565,2.9126H151.3442Z" fill="#3cd8ce"/><path d="M130.7732,158.2273l.3744-.148c4.2937.0213,8.5879.0314,12.8817.0754.6759.007,1.4223-.2486,2.0117.3365-.03.7718-.0846,1.5434-.086,2.3153q-.0338,19.259-.0555,38.518H130.7323Q130.7527,178.7759,130.7732,158.2273Z" fill="#f0f0f0"/><path d="M130.7732,158.2273q-.0205,20.5485-.0409,41.0972h-9.3337V159.3436l-.3889.001v39.98h-5.0558l-.2091-.3786a73.5352,73.5352,0,0,0,.02-10.1483.1764.1764,0,0,0,.0285-.2635q.0574-9.9022.1126-19.8044c.0139-2.9784.0387-5.9576-.0161-8.9351-.02-1.1082.2176-1.64,1.4852-1.62C121.8405,158.2476,126.3071,158.218,130.7732,158.2273Z" fill="#e25a7b"/><path d="M145.9,199.3245q.026-19.2591.0555-38.518c.0014-.7719.0561-1.5435.086-2.3151q.3384-.0173.677-.035c1.0152-.15,2.1035.3568,3.0579-.34l-.0025.0049,1.5406.14q.0153,20.532.03,41.0637Z" fill="#00a89d"/><path d="M121.01,199.3245v-39.98l.3889-.001v39.9809Z" fill="#804f67"/><path d="M57.2294,199.3245q-.055-.16-.0941-.3252c.646-.0212,1.2919-.06,1.9378-.0608q16.7984-.0314,33.5967-.0545l.3388.4405Z" fill="#5aa2ca"/><path d="M115.7448,198.9459l.2091.3786h-8.167q.17-.22.3407-.4387Q111.9367,198.9163,115.7448,198.9459Z" fill="#5aa2ca"/><path d="M85.97,91.6c-.05,2.31-.1,4.61-.15,6.92a31.9232,31.9232,0,0,0-10.76,4.65,46.1818,46.1818,0,0,0-8.73,6.35,56.6567,56.6567,0,0,0-10.64,13.66l-12.95-.09c.48-.66,1.14-1.26.69-2.23-.46-1-1.32-1.12-2.27-1.12H30.89c-.94,0-1.81.12-2.27,1.12-.44.96.2,1.57.69,2.23-6.34.02-12.69.02-19.03.08-1.04.01-1.43-.33-1.29-1.33a6.765,6.765,0,0,0,0-.78q0-54.495-.04-108.99c-.01-1.81.49-2.2,2.23-2.19,19.1.06,38.21.04,57.31.04.65,0,1.29.03,1.94.05a25.365,25.365,0,0,0-4.4,10.56c-.56,3.23-.02,6.39.14,9.58a8.6055,8.6055,0,0,0-.5,1.01A40.976,40.976,0,0,0,63.89,46.6c.9,4.23,1.95,8.42,4.25,12.17.35.58.52,1.37,1.4,1.46a4.5015,4.5015,0,0,1-.22,2.94c.09,1.03.18,2.05.25,3.08.69,9.6,5.04,17.17,12.71,22.89C83.47,90.02,84.74,90.78,85.97,91.6Z" fill="#056766"/><path d="M191.03,121.87c.14,1.04-.32,1.32-1.32,1.3-2.91-.05-5.83.02-8.74-.03-1.66-.04-3.79.72-4.85-.35-.96-.99-.31-3.09-.24-4.69.06-1.4-.42-1.71-1.75-1.7-7.71.06-15.42.02-23.13.04-3.12.01-2.67-.4-2.69,2.64-.03,4.01-.01,4.01-3.98,4.1-.25-.37-.52-.73-.74-1.12a48.5072,48.5072,0,0,0-17.96-18.45,32.0729,32.0729,0,0,0-11.43-5.09q-.075-3.45-.15-6.92c.64-.43,1.27-.87,1.93-1.28a30.74,30.74,0,0,0,13.11-16.68,39.6274,39.6274,0,0,0,1.56-10.49,4.6733,4.6733,0,0,1-.17-2.77c1.62-1.12,2.11-2.97,2.93-4.6,1.49-2.95,1.93-6.24,2.79-9.39-.27-2.56.42-5.17-.43-7.69a12.1051,12.1051,0,0,1,.14-1.35,29.3713,29.3713,0,0,0-.09-12.86,34.7885,34.7885,0,0,0-7.41-14.53c20.15-.01,40.29,0,60.44-.08,1.74-.01,2.22.39,2.22,2.19q-.09,54.42-.04,108.83A7.8483,7.8483,0,0,0,191.03,121.87Z" fill="#056766"/><path d="M55.6906,123.1815a56.467,56.467,0,0,1,10.6442-13.657,45.8675,45.8675,0,0,1,8.7219-6.3528c.65.4418.1886.907.0209,1.3577-4.3673,11.7359-8.7132,23.48-13.1376,35.1943-.54,1.43-.1743,2.01,1.111,2.647,4.6938,2.3248,9.3206,4.7844,13.99,7.16,1.0961.5576,1.6091.8948.3,1.9574-3.703,3.007-7.2417,6.2163-10.9441,9.224-1.1059.8984-1.0409,1.5551-.2994,2.5338,6.0745,8.0168,12.1781,16.012,18.179,24.0836,2.84,3.8194,5.9817,7.4238,8.3926,11.5554q-16.7977.0253-33.5963.0541c-.6459.0012-1.2918.04-1.9378.0608a8.1674,8.1674,0,0,1-6.87-8.0017q-.072-23.7206.0394-47.4415c.02-4.0278,1.0553-7.94,1.937-11.8534Q53.966,127.4424,55.6906,123.1815Z" fill="#308abc"/><path d="M125.6331,103.6074a48.5272,48.5272,0,0,1,17.9546,18.4545c.2228.3859.4909.7457.7384,1.1176q1.7226,4.26,3.4441,8.5213c2.5113,8.667,2.02,17.5616,2.0033,26.42l.0025-.0047c-1.0113.1849-2.1005-.33-3.058.34q-.3385.0177-.677.035c-.5894-.5853-1.3358-.33-2.0117-.3367-4.2938-.044-8.588-.0541-12.8817-.0754q-3.1332-2.7163-6.267-5.4327c-.4871-.4222-.9593-.8633-1.4643-1.263-.8811-.6974-.7408-1.15.2282-1.6528,4.5313-2.3489,8.9956-4.8322,13.5772-7.0769,1.715-.84,2.1608-1.5676,1.4354-3.4619-4.2676-11.1455-8.3852-22.3484-12.5786-33.5225A5.8258,5.8258,0,0,1,125.6331,103.6074Z" fill="#308abc"/><path d="M114.0528,91.5985q.0713,3.4632.1424,6.9256-.8022,5.1557-1.6043,10.3123a.534.534,0,0,1-.14.2962l.0509-.0351c-3.6064,3.8674-6.8336,8.0544-10.1744,12.1437-.7447.9116-2.01,1.5371-1.9841,2.98l-.668.01c.0341-1.4472-1.2331-2.0726-1.9787-2.9844-3.3448-4.09-6.7792-8.107-10.1812-12.15l.0525.0348a.61.61,0,0,1-.1465-.3064q-.7982-5.1512-1.5963-10.303.0742-3.4633.1489-6.9252c2.464.8836,4.8308,2.1143,7.44,2.4877,1.5256.2184,3.0458,1.1277,4.65.3083l4.28-.0092c.5644.4992,1.1875.2708,1.8244.1893A42.0494,42.0494,0,0,0,114.0528,91.5985Z" fill="#fdc4b6"/><path d="M106.331,152.8442c-.7351,7.7516-1.9992,15.431-3.1233,23.13-.8733,5.9816-1.6167,11.9822-2.4278,17.973a12.2777,12.2777,0,0,1-.9338,3.6167c-.3328-2.0778-.6946-4.1515-.993-6.2343-1.03-7.1913-2.1672-14.3707-3.016-21.5838-.744-6.3218-2.2993-12.5627-2.0336-18.9929q.6161-4.4913,1.2322-8.9826h9.9462Z" fill="#125068"/><path d="M99.6749,124.2319q.3341-.0053.6686-.01,4.5013,3.8234,9.0013,7.6462c.3539,1.4227-.6773,2.5763-.7607,3.9145-1.4934,1.6693-2.1527,3.8681-3.5539,5.5954l-10.0432,0c-1.4127-1.6722-1.9615-3.9041-3.5418-5.4677l.0151.0475q-.1452-.2911-.291-.5822c-.0467-1.0159-.6543-1.942-.4793-2.9934Z" fill="#125068"/><path d="M99.6749,124.2319,90.69,132.3825c-1.1246-7.7526-2.3875-15.4864-3.1749-23.2852,3.4019,4.0432,6.8363,8.06,10.1811,12.15C98.4418,122.1593,99.709,122.7847,99.6749,124.2319Z" fill="#fefefe"/><path d="M109.3448,131.868q-4.5-3.823-9.0013-7.6462c-.0264-1.4435,1.2388-2.069,1.9835-2.9806,3.3408-4.0893,6.568-8.2763,10.1744-12.1437C111.7007,116.7224,110.5675,124.3014,109.3448,131.868Z" fill="#fefefe"/><path d="M115.7448,198.9459q-3.8083-.03-7.6172-.06a74.3227,74.3227,0,0,1,7.4992-10.07l.1385-.0178A73.5352,73.5352,0,0,1,115.7448,198.9459Z" fill="#308abc"/><path d="M105.03,141.378c1.4013-1.7274,2.0606-3.9262,3.554-5.5955.1009,4.1-.9363,8.0723-1.3815,12.1114a20.4285,20.4285,0,0,1-.8717,4.95q-.6744-5.5368-1.349-11.0735Z" fill="#f0f0f0"/><path d="M91.4452,135.9106c1.58,1.5636,2.1291,3.7955,3.5417,5.4676l.0488.3925q-.6161,4.4913-1.2322,8.9826c-.9471-1.1732-.7429-2.6319-.9364-3.9753C92.3465,143.1622,91.9131,139.5339,91.4452,135.9106Z" fill="#f0f0f0"/><path d="M91.1693,135.3759q.1457.291.291.5822Q91.3147,135.667,91.1693,135.3759Z" fill="#f0f0f0"/><path d="M87.421,108.8256a.61.61,0,0,0,.1465.3064Q87.4946,108.9786,87.421,108.8256Z" fill="#fefefe"/><path d="M112.4505,109.1326a.534.534,0,0,0,.14-.2962Z" fill="#fefefe"/><path d="M115.7653,188.7976l-.1385.0178a.2984.2984,0,0,1,.1675-.2823A.1778.1778,0,0,1,115.7653,188.7976Z" fill="#5aa2ca"/><path d="M147.77,131.7008q-1.7217-4.2607-3.4441-8.5213c3.9753-.0884,3.9563-.0886,3.9821-4.1.0194-3.0359-.4326-2.6343,2.6962-2.6425,7.7083-.02,15.4169.0246,23.1248-.0364,1.33-.01,1.8094.3029,1.7482,1.7-.07,1.5973-.72,3.7009.2475,4.6859,1.0574,1.0767,3.1854.3149,4.8434.3487,2.9137.0594,5.83-.0191,8.7441.0355.9957.0187,1.4623-.2608,1.32-1.3028a7.2393,7.2393,0,0,1-.0062-.9707q0-54.4132.0432-108.8263c.0029-1.7976-.4826-2.2-2.2242-2.1937-20.1444.0776-40.2891.07-60.4336.0849a34.7288,34.7288,0,0,0-13.6193-8.5371q18.3616-.0251,36.7232-.0481,21.2781-.0126,42.5562-.0007c3.9446.0009,5.49,1.5588,5.49,5.5307q.0024,59.5607,0,119.1214c0,4.26-1.4054,5.64-5.7392,5.6427Q170.7969,131.6873,147.77,131.7008Z" fill="#f0bb7c"/><path d="M114.7927,1.4254A34.7288,34.7288,0,0,1,128.412,9.9625,34.73,34.73,0,0,1,135.815,24.49a29.3031,29.3031,0,0,1,.0981,12.86,10.8212,10.8212,0,0,0-.1423,1.3465c-.5137,1.3667-.9283,2.7817-1.5649,4.0885-.9216,1.8918-1.3623,4.1314-3.4606,5.258-.0475-2.1308-.1091-4.2614-.14-6.3925-.1625-11.1144-7.252-18.12-18.3615-18.126-8.5466-.0045-17.0934-.0375-25.64.0124A16.9016,16.9016,0,0,0,69.9045,36.8381c-.3248,1.3742-.4262,2.8013-.6307,4.204-.714-.0508-.6536-.5985-.7882-1.1031-.8679-3.2535-.9077-6.7019-2.3116-9.8274-.1654-3.19-.7089-6.3512-.1476-9.5806a25.4446,25.4446,0,0,1,4.4044-10.56A26.3957,26.3957,0,0,1,82.1062,1.4224C93.0016-.0093,103.8973-.5636,114.7927,1.4254Z" fill="#804f67"/><path d="M29.3134,123.0929c-.49-.665-1.1379-1.2727-.69-2.2369.4611-.9933,1.3274-1.1162,2.2711-1.1152q5.1337.0053,10.2676,0c.9446-.0011,1.8059.1237,2.27,1.1165.4526.9685-.21,1.5687-.6889,2.2365Q36.0281,123.0931,29.3134,123.0929Z" fill="#f0f0f0"/><path d="M146.718,158.4564c.9575-.67,2.0467-.1551,3.058-.34C148.8215,158.8132,147.7332,158.3064,146.718,158.4564Z" fill="#3cd8ce"/><path d="M130.48,60.38q.135-6.165.27-12.34c-.05-2.13-.11-4.26-.14-6.39-.17-11.11-7.26-18.12-18.37-18.13-8.54,0-17.09-.03-25.64.02a16.912,16.912,0,0,0-16.7,13.3c-.32,1.37-.42,2.8-.63,4.2q.09,8.535.18,17.06c.01.71.06,1.42.09,2.13a4.5015,4.5015,0,0,1-.22,2.94c.09,1.03.18,2.05.25,3.08.69,9.6,5.04,17.17,12.71,22.89,1.19.88,2.46,1.64,3.69,2.46,2.47.88,4.827,2.1313,7.44,2.49,1.53.21,3.6432,1.2037,6.2656,1.1847,2.8031,0,3.3776-.6258,4.4944-.7047,3.4792-.2459,6.67-1.72,9.88-2.97.64-.43,1.27-.87,1.93-1.28a30.74,30.74,0,0,0,13.11-16.68,39.6274,39.6274,0,0,0,1.56-10.49A4.6733,4.6733,0,0,1,130.48,60.38Zm-24.85,21.5a9.5884,9.5884,0,0,1-11.1.1c-.76-.54-1.51-1.15-.84-2.23a1.5164,1.5164,0,0,1,2.33-.48,7.0468,7.0468,0,0,0,8.01-.02,1.5228,1.5228,0,0,1,2.33.52C106.95,80.74,106.34,81.36,105.63,81.88Zm10.41-19.39a10.5437,10.5437,0,0,1-10.5-9.28c-.52-3.29-2.48-5.13-5.49-5.16-3-.03-5.08,1.87-5.56,5.06-.93,6.16-5.77,9.87-12.17,9.33-5.08-.44-9.25-5.39-9.13-10.84a10.8738,10.8738,0,0,1,8.23-10.08,10.5637,10.5637,0,0,1,11.89,5.62c.63,1.28.9,1.82,2.3.61a7.3369,7.3369,0,0,1,8.86.08c1.33,1.08,1.59.65,2.2-.61a10.4924,10.4924,0,0,1,12.2-5.61,10.7938,10.7938,0,0,1,7.96,10.87A10.5109,10.5109,0,0,1,116.04,62.49Z" fill="#fcd7c8"/><path d="M69.2738,41.0421q.087,8.53.1771,17.06c.008.7091.06,1.4178.091,2.1261-.8845-.0842-1.0514-.8823-1.4064-1.46-2.3-3.7459-3.3433-7.9355-4.2457-12.172a40.8913,40.8913,0,0,1,1.7814-15.4706,8.7545,8.7545,0,0,1,.5027-1.0127c1.404,3.1251,1.4438,6.5735,2.3117,9.827C68.62,40.4436,68.56,40.9913,69.2738,41.0421Z" fill="#5a2d42"/><path d="M136.2,46.3936c-.8623,3.1512-1.301,6.4352-2.79,9.3907-.8181,1.6235-1.309,3.4772-2.9283,4.5987q.132-6.1694.2635-12.34c2.0984-1.1265,2.5391-3.3661,3.4607-5.2579.6366-1.3068,1.0512-2.7218,1.5649-4.0885C136.6186,41.2231,135.9343,43.8348,136.2,46.3936Z" fill="#5a2d42"/><path d="M95.0357,141.7707l-.0488-.3925,10.0433,0-.0483.3929Z" fill="#226a8d"/><path d="M116.0432,62.4858a10.5484,10.5484,0,0,1-10.5082-9.28c-.5178-3.2868-2.4723-5.1256-5.48-5.1559-3.0009-.03-5.0858,1.8661-5.566,5.0626-.9246,6.1543-5.7737,9.87-12.1691,9.3242-5.0754-.4329-9.25-5.3868-9.1308-10.8353a10.8925,10.8925,0,0,1,8.234-10.0855,10.5607,10.5607,0,0,1,11.8866,5.6218c.6338,1.278.9,1.8243,2.3037.6091,2.275-1.9695,6.4079-1.9151,8.8566.0792,1.3306,1.0838,1.59.6493,2.2021-.6013A10.4882,10.4882,0,0,1,118.8735,41.61a10.7843,10.7843,0,0,1,7.9517,10.8691A10.4957,10.4957,0,0,1,116.0432,62.4858ZM92.6845,52.0763a8.8344,8.8344,0,1,0-8.9835,8.7784A8.8616,8.8616,0,0,0,92.6845,52.0763Zm14.6471-.2159a8.8336,8.8336,0,1,0,8.9-8.8576A8.8777,8.8777,0,0,0,107.3316,51.86Z" fill="#9968b0"/><path d="M104.03,79.2505a1.5246,1.5246,0,0,1,2.3331.5188c.5918.9733-.0257,1.5864-.73,2.11a11.12,11.12,0,0,1-5.6341,1.825,11.2431,11.2431,0,0,1-5.4734-1.7232c-.7575-.5389-1.5023-1.15-.8344-2.2291a1.5159,1.5159,0,0,1,2.3342-.4822" fill="#e25a7b"/><path d="M92.6845,52.0763a8.8343,8.8343,0,1,1-8.8794-9.0736A8.864,8.864,0,0,1,92.6845,52.0763Zm-6.2985-.1654a2.8728,2.8728,0,0,0-2.4876-2.9834,3.01,3.01,0,0,0-.0064,5.955A2.844,2.844,0,0,0,86.386,51.9109Z" fill="#f0f0f0"/><path d="M107.3316,51.86a8.8336,8.8336,0,1,1,8.7673,8.9944A8.8573,8.8573,0,0,1,107.3316,51.86Zm11.77-.0251a2.7859,2.7859,0,0,0-2.5323-2.91,2.8779,2.8779,0,0,0-2.5259,2.9561,2.5682,2.5682,0,1,0,5.0582-.0465Z" fill="#f0f0f0"/><path d="M86.386,51.9109a2.844,2.844,0,0,1-2.494,2.9716,3.01,3.01,0,0,1,.0064-5.955A2.8728,2.8728,0,0,1,86.386,51.9109Z" fill="#5a2d42"/><path d="M119.1015,51.8353a2.5682,2.5682,0,1,1-5.0582.0465,2.8779,2.8779,0,0,1,2.5259-2.9561A2.7859,2.7859,0,0,1,119.1015,51.8353Z" fill="#5a2d42"/></svg>