<svg xmlns="http://www.w3.org/2000/svg" viewBox="0 0 571 401"><defs><style>.cls-1{fill:#72b999;}.cls-2{fill:#033;}.cls-3{opacity:0.1;}.cls-4{fill:#fff;}.cls-5,.cls-7{fill:#fafafa;}.cls-5{stroke:#f5f5f5;stroke-miterlimit:10;}.cls-6{fill:#3f5e61;}.cls-8{fill:#233436;}.cls-9{fill:#c4b497;}.cls-10{fill:#938972;}.cls-11{fill:#5e5047;}.cls-12{fill:#1bcbaf;}.cls-13{opacity:0.3;}</style></defs><g id="Character"><polygon class="cls-1" points="562.12 376.78 107.42 376.78 107.42 12.08 562.12 13.82 562.12 376.78"/><rect class="cls-2" x="125.15" y="28.98" width="419.25" height="330.06"/><g class="cls-3"><path class="cls-4" d="M300.62,347.87c-53.31.95-103.86-28.1-117.16-40.36s-21.38-31.88-14.67-48.38c5.08-12.51,17.29-20.67,29.47-26.8s25.3-11.22,35.08-20.62c5.56-5.35,10-13.05,7.92-20.48-3-10.63-16.42-13.69-26.34-18.9-17.32-9.08-27-29.4-25.72-48.57s12.17-36.83,27-49.21,33.28-19.93,52.13-24.84a228.79,228.79,0,0,1,147,11.4c23.89,10.33,46.58,25.4,60.61,47.07,14.58,22.54,18.55,50.35,16.56,76.84-2.69,35.93-16.11,71.36-40.32,98.18-37.08,41.08-95.41,67.21-151.52,64.67"/></g><path class="cls-5" d="M320.46,63.45a6.73,6.73,0,0,1-3.14,1.32,6.54,6.54,0,0,1-3.41.09c0-.15,1.51-.2,3.3-.6S320.39,63.31,320.46,63.45Z"/><path class="cls-5" d="M277.25,61.07a3.56,3.56,0,0,1-.79.34c-.52.19-1.28.44-2.26.7a37.4,37.4,0,0,1-8.08,1.22.25.25,0,0,1-.26-.24.43.43,0,0,1,0-.11l1.72-4.13c1.7-4,3.25-7.68,4.41-10.3.55-1.23,1-2.27,1.39-3.1a5.65,5.65,0,0,1,.57-1.11,6.3,6.3,0,0,1-.39,1.19l-1.23,3.16c-1.07,2.66-2.57,6.32-4.27,10.36l-1.74,4.13-.24-.35a42.87,42.87,0,0,0,8-1C276.09,61.36,277.23,61,277.25,61.07Z"/><path class="cls-5" d="M284.51,43.82c0,.16-3.07.16-6.83.42s-6.8.65-6.83.5a7.17,7.17,0,0,1,2-.47c1.22-.2,2.93-.42,4.82-.55s3.62-.14,4.86-.09A7.81,7.81,0,0,1,284.51,43.82Z"/><path class="cls-5" d="M276.94,53.79a10.72,10.72,0,0,1-3.85,1.15,11,11,0,0,1-4,.18,26.3,26.3,0,0,1,3.93-.69A28.85,28.85,0,0,1,276.94,53.79Z"/><path class="cls-5" d="M289.45,62.67a11.42,11.42,0,0,1-2.47.75,34.56,34.56,0,0,1-6.43.83.25.25,0,0,1-.15-.46,15.42,15.42,0,0,0,2.05-1.73,15,15,0,0,0,2.63-3.63,6.06,6.06,0,0,0,.68-1.8,1.53,1.53,0,0,0-.35-1.43,1.45,1.45,0,0,0-1.21-.31,3.23,3.23,0,0,0-1,.35,4.57,4.57,0,0,1-.8.45s.2-.26.7-.62a2.85,2.85,0,0,1,1-.47,1.75,1.75,0,0,1,1.5.32,1.92,1.92,0,0,1,.54,1.77,6.21,6.21,0,0,1-.68,2,14.39,14.39,0,0,1-2.69,3.78,14.72,14.72,0,0,1-2.14,1.79l-.15-.46a45,45,0,0,0,6.38-.65C288.49,62.83,289.43,62.61,289.45,62.67Z"/><path class="cls-5" d="M299.37,54.39a10,10,0,0,1-4,1,9.74,9.74,0,0,1-4.07-.23c0-.15,1.82-.09,4-.29S299.33,54.25,299.37,54.39Z"/><path class="cls-5" d="M312.19,57.31s.11.08.3.3a.07.07,0,0,1,0,.09h0c-.63.16-2.12.45-4.14.81l-3.4.59-.95.16a1.55,1.55,0,0,1-.58,0,.62.62,0,0,1-.51-.58,2.69,2.69,0,0,1,.08-.57l.1-.5.2-1c.65-3.28,1.26-6.25,1.73-8.39a23.69,23.69,0,0,1,.87-3.45,24.23,24.23,0,0,1-.51,3.52c-.38,2.16-.93,5.14-1.58,8.42-.07.35-.14.69-.2,1l-.11.5a3.81,3.81,0,0,0-.07.44c0,.09,0,.08.1.11a1.13,1.13,0,0,0,.4,0l.95-.14,3.41-.51c2-.29,3.54-.49,4.19-.53l0,.1C312.23,57.44,312.17,57.32,312.19,57.31Z"/><path class="cls-5" d="M310.35,52.47a13.65,13.65,0,0,1-7.28.41,24.11,24.11,0,0,1,3.64-.23A22.8,22.8,0,0,1,310.35,52.47Z"/><path class="cls-5" d="M313.48,44.35a28.81,28.81,0,0,1-5.22,1.29,26.82,26.82,0,0,1-5.32.77,28.81,28.81,0,0,1,5.22-1.29A26.73,26.73,0,0,1,313.48,44.35Z"/><path class="cls-5" d="M317.35,64.62A8.7,8.7,0,0,1,317,62.3a46.7,46.7,0,0,1,0-5.63c.05-.79.11-1.56.18-2.26l.49.1A8.71,8.71,0,0,1,315.54,58a3.73,3.73,0,0,1-1.29,1,15.44,15.44,0,0,1,1.06-1.19,9.53,9.53,0,0,0,1.88-3.47.25.25,0,0,1,.31-.17.26.26,0,0,1,.18.27c-.06.7-.11,1.46-.16,2.24-.12,2.18-.13,4.16-.12,5.59A13,13,0,0,1,317.35,64.62Z"/><path class="cls-5" d="M330,53a20.89,20.89,0,0,1-8.46.91A105.79,105.79,0,0,1,330,53Z"/><path class="cls-5" d="M326.59,58.25a18.27,18.27,0,0,1-1.1-4.19,18.37,18.37,0,0,1-.6-4.29A18.15,18.15,0,0,1,326,54,18.07,18.07,0,0,1,326.59,58.25Z"/><path class="cls-5" d="M342.74,58.3a10.49,10.49,0,0,1-2.46.62,30.69,30.69,0,0,1-6.34.41.25.25,0,0,1-.24-.26v0c.07-.83.14-1.71.22-2.62.28-3.16.56-6,.78-8.08a21.71,21.71,0,0,1,.48-3.33,22.57,22.57,0,0,1-.11,3.37c-.13,2.07-.35,4.93-.63,8.09-.08.9-.16,1.78-.24,2.62l-.24-.28a36.68,36.68,0,0,0,6.28-.23A23.38,23.38,0,0,1,342.74,58.3Z"/><path class="cls-5" d="M343.31,44.84a37.69,37.69,0,0,1-8.75.45,19.11,19.11,0,0,1,4.36-.49A18.32,18.32,0,0,1,343.31,44.84Z"/><path class="cls-5" d="M340.06,52.21a9.35,9.35,0,0,1-3,.71,8.91,8.91,0,0,1-3.09.2,18.54,18.54,0,0,1,6.09-.91Z"/><path class="cls-5" d="M356.51,52.43c-.13-.08-.07-.41.13-.76l.11-.16,0,0a.23.23,0,0,1,.33,0,.21.21,0,0,1,.08.11c.1.29.11.54,0,.59s-.3-.12-.45-.38l.44,0a.7.7,0,0,1-.09.17C356.89,52.28,356.63,52.5,356.51,52.43Z"/><path class="cls-5" d="M354.21,64.37a33.23,33.23,0,0,0,1.93-3.86,34,34,0,0,0,.95-4.21,7.46,7.46,0,0,1-.46,4.39A7.54,7.54,0,0,1,354.21,64.37Z"/><path class="cls-5" d="M343,62s-.07.17-.27.41a.11.11,0,0,1-.15,0,.11.11,0,0,1,0-.13v0a33.72,33.72,0,0,1,3.29-4.05,21.84,21.84,0,0,1,4.24-3.8,56.28,56.28,0,0,1-3.86,4.16c-1.58,1.69-2.89,3.2-3.5,3.82l-.16-.14C342.84,62.11,343,62,343,62Z"/><path class="cls-5" d="M348.71,62.45a30.75,30.75,0,0,1-2.13-5.21,31.67,31.67,0,0,1-1.64-5.38,30.66,30.66,0,0,1,2.13,5.21A30.07,30.07,0,0,1,348.71,62.45Z"/><path class="cls-5" d="M197,94.74a3.23,3.23,0,0,1-.4-.85,14.73,14.73,0,0,1-.69-2.44,18,18,0,0,1,4.36-15.68A15.63,15.63,0,0,1,202.1,74a2.55,2.55,0,0,1,.78-.51c.06.07-1,.87-2.36,2.49a19,19,0,0,0-4.28,15.37C196.57,93.47,197.06,94.71,197,94.74Z"/><path class="cls-5" d="M205.24,91.82a7.07,7.07,0,0,1-.46-1.92,36.93,36.93,0,0,1-.45-4.73,37.71,37.71,0,0,1,.13-4.75,6.2,6.2,0,0,1,.33-1.94c.15,0-.07,3,.06,6.67S205.4,91.8,205.24,91.82Z"/><path class="cls-5" d="M217,91.53s-.14.22-.57.41a2.53,2.53,0,0,1-2-.07,3.41,3.41,0,0,1-1.17-.79,3.72,3.72,0,0,1-.82-1.44,8.81,8.81,0,0,1-.16-3.82.25.25,0,0,1,.27-.21.25.25,0,0,1,.21.28,9.64,9.64,0,0,1-2.08,4.91,3.6,3.6,0,0,1-2.69,1.5,1.68,1.68,0,0,1-1.34-.82,2.48,2.48,0,0,1-.3-1.43,4.5,4.5,0,0,1,2.67-3.79,4.4,4.4,0,0,1,3.16-.07,2.25,2.25,0,0,1,1,.59s-.36-.2-1.06-.39a4.32,4.32,0,0,0-2.95.21,4.15,4.15,0,0,0-2.34,3.47,2.13,2.13,0,0,0,.24,1.15,1.19,1.19,0,0,0,1,.57,3.12,3.12,0,0,0,2.25-1.32,9.37,9.37,0,0,0,2-4.64l.48.06a8.59,8.59,0,0,0,.07,3.63,3.15,3.15,0,0,0,1.72,2.08,2.49,2.49,0,0,0,1.78.19C216.81,91.66,217,91.5,217,91.53Z"/><path class="cls-5" d="M219.9,93.54a10.08,10.08,0,0,1-.47-2.37c-.2-1.47-.41-3.51-.51-5.78s-.06-4.32,0-5.81a9.69,9.69,0,0,1,.27-2.39,12.5,12.5,0,0,1,.1,2.4c0,1.48,0,3.52.13,5.78s.25,4.29.36,5.77A11.82,11.82,0,0,1,219.9,93.54Z"/><path class="cls-5" d="M225.91,88.59c0,.15-.76.31-1.71.37s-1.73,0-1.73-.15.75-.31,1.7-.37S225.9,88.45,225.91,88.59Z"/><path class="cls-5" d="M236,82.62c0,.14-.9.49-2.09.78a4.83,4.83,0,0,1-2.21.28c0-.14.9-.49,2.09-.78A4.83,4.83,0,0,1,236,82.62Z"/><path class="cls-5" d="M228.51,92a6.15,6.15,0,0,0,3,.57,5,5,0,0,0,2.94-1.25,3.61,3.61,0,0,0,1-1.54,2.81,2.81,0,0,0,0-1.92,1.49,1.49,0,0,0-.92-.82,2.25,2.25,0,0,0-1.26,0,5.81,5.81,0,0,0-2,1.4h0a.22.22,0,0,1-.31,0,.23.23,0,0,1,0-.19c.28-1.53.52-2.8.71-3.69a6.64,6.64,0,0,1,.36-1.38,5.42,5.42,0,0,1-.1,1.42c-.12.9-.3,2.18-.53,3.72l-.38-.2a6.05,6.05,0,0,1,2.19-1.54,2.58,2.58,0,0,1,1.56,0,2,2,0,0,1,1.24,1.1,3.63,3.63,0,0,1-1.17,4A5.3,5.3,0,0,1,231.5,93a4.72,4.72,0,0,1-2.29-.45A1.71,1.71,0,0,1,228.51,92Z"/><path class="cls-5" d="M236.7,94.87a29.61,29.61,0,0,0,1.89-2.45,11.7,11.7,0,0,0-.87-13.82,28.05,28.05,0,0,0-2.18-2.2s.29.11.74.42A9.35,9.35,0,0,1,238,78.36a11.48,11.48,0,0,1,.9,14.26,10.45,10.45,0,0,1-1.52,1.75C237,94.73,236.72,94.9,236.7,94.87Z"/><path class="cls-5" d="M249.57,81.48a5.26,5.26,0,0,1-1.67.63,15.85,15.85,0,0,1-4.5.54.23.23,0,0,1-.24-.25.3.3,0,0,1,0-.1c.32-.71.65-1.49.94-2.32a25.7,25.7,0,0,0,1-3.24,1.42,1.42,0,0,0-.21-1.22,1.48,1.48,0,0,0-1-.44,3.13,3.13,0,0,0-1.67.56c-.37.23-.59.36-.61.33s.15-.21.49-.49a3,3,0,0,1,1.8-.77,1.85,1.85,0,0,1,1.33.52,1.78,1.78,0,0,1,.36,1.59,22.59,22.59,0,0,1-.94,3.34,23.4,23.4,0,0,1-1,2.35l-.22-.36A27.74,27.74,0,0,0,249.57,81.48Z"/><path class="cls-5" d="M247,99.13c0,.15-12.52.27-28,.27s-28-.12-28-.27,12.52-.26,28-.26S247,99,247,99.13Z"/><path class="cls-5" d="M213,102.77a9.35,9.35,0,0,1-6.67,1.19c0-.15,1.53-.15,3.36-.48S212.93,102.63,213,102.77Z"/><path class="cls-5" d="M203.15,113.17a4.39,4.39,0,0,0,.58.73,3.1,3.1,0,0,0,2.32.73,6.5,6.5,0,0,0,3.31-1.67,21.07,21.07,0,0,0,1.7-1.49,4.08,4.08,0,0,0,1.15-2,2.44,2.44,0,0,0-2.14-2.83,2.52,2.52,0,0,0-2.54,1.81.2.2,0,0,1-.23.15.19.19,0,0,1-.15-.19c0-1.28,0-2.31,0-3a4.29,4.29,0,0,1,.07-1.11,4.23,4.23,0,0,1,.15,1.11c.06.71.13,1.74.2,3l-.38,0a2.85,2.85,0,0,1,5.56,1.21,4.43,4.43,0,0,1-1.3,2.22,18.33,18.33,0,0,1-1.76,1.52,6.57,6.57,0,0,1-3.59,1.65,3.22,3.22,0,0,1-2.49-.94C203.15,113.55,203.13,113.17,203.15,113.17Z"/><path class="cls-5" d="M219,115.49a45.38,45.38,0,0,1,.43-6.81,43.44,43.44,0,0,1,1-6.76,45.48,45.48,0,0,1-.43,6.81A45.2,45.2,0,0,1,219,115.49Z"/><path class="cls-5" d="M235.06,109.38a3.22,3.22,0,0,1-.63.71,5.7,5.7,0,0,1-2.23,1.4,2.85,2.85,0,0,1-1.9-.09,3.52,3.52,0,0,1-1.62-1.47c-.85-1.37-.76-3.18-.58-4.88l.49.13a7.52,7.52,0,0,0-.52,1.95,8.55,8.55,0,0,1-.37,1.47,3.27,3.27,0,0,1-.85,1.27,2.39,2.39,0,0,1-1.35.68,1.64,1.64,0,0,1-1.4-.53,2.52,2.52,0,0,1-.37-2.53,8.75,8.75,0,0,1,1-1.93,3.43,3.43,0,0,1,1.37-1.2,2.17,2.17,0,0,1,1.38-.09c.77.24.9.75.88.73a1.89,1.89,0,0,0-.93-.53,1.91,1.91,0,0,0-1.21.16,3.2,3.2,0,0,0-1.19,1.14,9.11,9.11,0,0,0-.91,1.85,2.13,2.13,0,0,0,.31,2.08,1.17,1.17,0,0,0,1,.35,1.88,1.88,0,0,0,1.06-.55,4,4,0,0,0,1.05-2.47,8.38,8.38,0,0,1,.57-2.07.26.26,0,0,1,.34-.13.28.28,0,0,1,.15.27c-.19,1.7-.26,3.38.46,4.6a3.17,3.17,0,0,0,1.39,1.33,2.5,2.5,0,0,0,1.65.13,6.16,6.16,0,0,0,2.2-1.21A5,5,0,0,1,235.06,109.38Z"/><path class="cls-5" d="M236.86,114c-.15,0,.55-2.87,1-6.42s.41-6.48.57-6.48a22.12,22.12,0,0,1-.06,6.54A22.11,22.11,0,0,1,236.86,114Z"/><path class="cls-5" d="M151.13,218.32l-.12.09a1.78,1.78,0,0,1-.37.22A3.45,3.45,0,0,1,149,219a5.1,5.1,0,0,1-2.5-.75,5.72,5.72,0,0,1-2.27-2.61,10.46,10.46,0,0,1-.82-4.11c0-1.5.17-3.1.3-4.75a13.86,13.86,0,0,0-.34-5.11,5.93,5.93,0,0,0-3.38-4l-.4-.12h0a.26.26,0,0,1-.17-.32.26.26,0,0,1,.21-.19,3.67,3.67,0,0,0,2.25-1.27,5.84,5.84,0,0,0,1.22-2.29,13.15,13.15,0,0,0,0-5,24.65,24.65,0,0,1-.3-4.7,9.67,9.67,0,0,1,1-4,6,6,0,0,1,4.76-3.27,4,4,0,0,1,1.6.2,2.2,2.2,0,0,1,.51.25,5.12,5.12,0,0,0-2.1-.25,5.87,5.87,0,0,0-4.45,3.24,9.41,9.41,0,0,0-.91,3.85,24.2,24.2,0,0,0,.35,4.61,13.53,13.53,0,0,1,0,5.23,6.13,6.13,0,0,1-1.33,2.5,4.19,4.19,0,0,1-2.56,1.45l0-.51.45.13a6.44,6.44,0,0,1,3.7,4.3,14.15,14.15,0,0,1,.33,5.3c-.15,1.67-.36,3.24-.34,4.71a10.06,10.06,0,0,0,.72,4,5.44,5.44,0,0,0,2.08,2.51,5,5,0,0,0,2.36.8A4.59,4.59,0,0,0,151.13,218.32Z"/><path class="cls-5" d="M151,204.63a56.21,56.21,0,0,0,4.85-6.77,56.31,56.31,0,0,0,3.33-7.63,8.92,8.92,0,0,1-.51,2.41,27.86,27.86,0,0,1-2.36,5.48,27,27,0,0,1-3.5,4.83A8.39,8.39,0,0,1,151,204.63Z"/><path class="cls-5" d="M161.43,202.73a9.38,9.38,0,0,1-1.66-1.62,55.61,55.61,0,0,1-3.51-4.33,51.86,51.86,0,0,1-3.07-4.66,9.39,9.39,0,0,1-1.05-2.06,11.09,11.09,0,0,1,1.36,1.87c.79,1.17,1.9,2.79,3.18,4.54s2.49,3.29,3.38,4.4A11,11,0,0,1,161.43,202.73Z"/><path class="cls-5" d="M175.67,206.87s.07.1.11.32a2.11,2.11,0,0,1-.08,1,2.87,2.87,0,0,1-.89,1.31,2.71,2.71,0,0,1-2,.67,3.37,3.37,0,0,1-2.24-1.22,4,4,0,0,1-.71-1.26,4.59,4.59,0,0,1-.18-1.52c0-1,.18-2.07-.51-2.8A1.09,1.09,0,0,0,168,203a1.75,1.75,0,0,0-.85,1.14,19.27,19.27,0,0,0-.93,6.7.24.24,0,0,1-.22.25.24.24,0,0,1-.24-.19c-.55-2.83-1-5.22-1.3-6.91l-.33-2a2.38,2.38,0,0,1-.07-.71,2.59,2.59,0,0,1,.21.68c.13.54.28,1.18.47,1.94.38,1.68.89,4.06,1.48,6.87l-.47.06a18.73,18.73,0,0,1,.91-6.89,2.23,2.23,0,0,1,1.16-1.46,1.6,1.6,0,0,1,1.75.56,2.61,2.61,0,0,1,.64,1.6,13.06,13.06,0,0,1,0,1.55,3.29,3.29,0,0,0,2.69,3.62,2.47,2.47,0,0,0,1.77-.52,2.77,2.77,0,0,0,.89-1.15A3.19,3.19,0,0,0,175.67,206.87Z"/><path class="cls-5" d="M179.5,196.89a10.36,10.36,0,0,1-4.15,1,10.19,10.19,0,0,1-4.26-.25c0-.15,1.91-.05,4.22-.27S179.46,196.74,179.5,196.89Z"/><path class="cls-5" d="M177.76,202.74a18.15,18.15,0,0,1-2-5.31,17.88,17.88,0,0,1-.73-5.62c.16,0,.48,2.48,1.24,5.49S177.9,202.68,177.76,202.74Z"/><path class="cls-5" d="M186.16,208.62s.05.15.21.39a1.78,1.78,0,0,0,1,.74,2.68,2.68,0,0,0,1.92-.08,3.38,3.38,0,0,0,1.64-1.93,11.43,11.43,0,0,0,.62-3.18,28.9,28.9,0,0,0,.08-3.76,28.45,28.45,0,0,0-1.65-8.43c-.23-.63-.48-1.24-.73-1.81a.26.26,0,0,1,.13-.34.25.25,0,0,1,.33.11,12.92,12.92,0,0,1,1.71,3.86,4.68,4.68,0,0,1-.79,3.85,3,3,0,0,1-3.34,1,4.45,4.45,0,0,1-2.39-1.93,7.81,7.81,0,0,1-.86-4.26c0-.51.05-.91.08-1.17a1.25,1.25,0,0,1,.07-.41,11.57,11.57,0,0,1,0,1.58,8.09,8.09,0,0,0,1,4.07,4.14,4.14,0,0,0,2.22,1.72,2.57,2.57,0,0,0,2.85-.93,4.19,4.19,0,0,0,.67-3.46,12.53,12.53,0,0,0-1.66-3.7l.46-.24c.25.58.51,1.21.74,1.85a28.16,28.16,0,0,1,1.64,8.58,27.78,27.78,0,0,1-.13,3.82,11.35,11.35,0,0,1-.71,3.28,3.61,3.61,0,0,1-1.87,2.06,2.85,2.85,0,0,1-2.1,0,1.78,1.78,0,0,1-1-.88A.88.88,0,0,1,186.16,208.62Z"/><path class="cls-5" d="M204.91,206.39s.19.3-.06.84a1.71,1.71,0,0,1-.72.72,1.73,1.73,0,0,1-1.38.14,3.53,3.53,0,0,1-2.15-2.76c-.16-.66-.26-1.36-.43-2.05a4,4,0,0,0-1-1.9l.4-.06a15.47,15.47,0,0,0-1.74,8.53.25.25,0,0,1-.49.07c-.5-2.76-.92-5.12-1.19-6.79a16.53,16.53,0,0,1-.36-2.67,18.25,18.25,0,0,1,.65,2.61c.36,1.66.84,4,1.38,6.76l-.48.07a15.51,15.51,0,0,1,.39-5.23,15.08,15.08,0,0,1,1.4-3.59.24.24,0,0,1,.33-.1.15.15,0,0,1,.06.05,4.42,4.42,0,0,1,1.08,2.13c.17.74.25,1.43.39,2.07a3.26,3.26,0,0,0,1.83,2.56,1.59,1.59,0,0,0,1.85-.65A1.57,1.57,0,0,0,204.91,206.39Z"/><path class="cls-5" d="M205.29,222.27a4.75,4.75,0,0,0,2.07.09,6.21,6.21,0,0,0,4.07-3.69,10,10,0,0,0,.64-3.88c0-1.43-.21-3-.34-4.6a14.42,14.42,0,0,1,.33-5.19,8.49,8.49,0,0,1,1.16-2.55,5.68,5.68,0,0,1,2.23-1.88h0a.26.26,0,0,1,.29.42,3.39,3.39,0,0,1-1.1.72,4.16,4.16,0,0,1-3-.12,5.07,5.07,0,0,1-2.31-1.82,9.64,9.64,0,0,1-1.36-5.24c0-3.43.11-6.49.16-9.07a7.56,7.56,0,0,0-.47-3.35,2.62,2.62,0,0,0-1.88-1.52,2,2,0,0,0-1.54.23c-.3.21-.4.39-.43.37a1.26,1.26,0,0,1,.37-.46,2.11,2.11,0,0,1,1.64-.34,2.84,2.84,0,0,1,2.1,1.59,7.66,7.66,0,0,1,.58,3.48c0,2.58-.08,5.66-.05,9a9.24,9.24,0,0,0,1.3,5,4.65,4.65,0,0,0,2.08,1.62,3.63,3.63,0,0,0,2.65.11,2.77,2.77,0,0,0,.92-.6l.29.42a6.09,6.09,0,0,0-3.11,4.09,14.09,14.09,0,0,0-.35,5c.12,1.62.31,3.18.29,4.65a10.24,10.24,0,0,1-.73,4,6.32,6.32,0,0,1-4.36,3.74,4,4,0,0,1-1.6-.06A2.08,2.08,0,0,1,205.29,222.27Z"/><path class="cls-5" d="M406.7,278.62c-.12-.1,1.87-2.73,4-6.17s3.64-6.38,3.78-6.32a8.09,8.09,0,0,1-.81,2,49.83,49.83,0,0,1-2.53,4.58,48.43,48.43,0,0,1-3,4.28A8.27,8.27,0,0,1,406.7,278.62Z"/><path class="cls-5" d="M416.44,277.74a55.09,55.09,0,0,1-5.93-4.85,56.41,56.41,0,0,1-5.59-5.24,56.26,56.26,0,0,1,5.93,4.85A59.32,59.32,0,0,1,416.44,277.74Z"/><path class="cls-5" d="M430.11,271.08a7.55,7.55,0,0,1-3.52,1.34,7.45,7.45,0,0,1-3.76,0c0-.16,1.67-.11,3.67-.47S430.05,270.94,430.11,271.08Z"/><path class="cls-5" d="M426.39,276.05a13.39,13.39,0,0,1-1.2-9.13c.16,0,0,2.09.3,4.6S426.54,276,426.39,276.05Z"/><path class="cls-5" d="M433.62,262.62s.31.24.92.56a4.37,4.37,0,0,0,2.75.52,3.07,3.07,0,0,0,1.71-.82,3.4,3.4,0,0,0,1-1.91,2.32,2.32,0,0,0-.75-2.11,2.56,2.56,0,0,0-2.37-.45,1.82,1.82,0,0,0-1,.73l-.18-.39a2.08,2.08,0,0,0,1.93-3,2.77,2.77,0,0,0-3.1-1.34,3.71,3.71,0,0,0-2,1.42c-.36.48-.47.81-.51.79a1.88,1.88,0,0,1,.35-.9,3.77,3.77,0,0,1,2.09-1.65,3.12,3.12,0,0,1,3.6,1.47,2.55,2.55,0,0,1-2.41,3.72.24.24,0,0,1-.23-.28.36.36,0,0,1,0-.11,2.36,2.36,0,0,1,1.27-1,3,3,0,0,1,2.86.56,2.76,2.76,0,0,1,.89,2.56,3.74,3.74,0,0,1-1.15,2.17,3.47,3.47,0,0,1-2,.87,4.47,4.47,0,0,1-2.91-.71A2.37,2.37,0,0,1,433.62,262.62Z"/><path class="cls-5" d="M458.16,260.81a.85.85,0,0,1-.08.29,2.85,2.85,0,0,1-.44.74,3.71,3.71,0,0,1-2.8,1.39,3.82,3.82,0,0,1-3.63-2.75,7.76,7.76,0,0,0-.79-2.48,1.56,1.56,0,0,0-1-.66,1.08,1.08,0,0,0-1,.55,13.08,13.08,0,0,0-1.69,5.62.24.24,0,0,1-.25.22.25.25,0,0,1-.21-.17,27.59,27.59,0,0,1-1.1-6c0-.74-.05-1.33,0-1.73a1.78,1.78,0,0,1,.07-.62c.06,0,.09.86.26,2.32a31.17,31.17,0,0,0,1.26,5.89l-.46.06a13.08,13.08,0,0,1,1.74-5.9,1.6,1.6,0,0,1,1.48-.75,2,2,0,0,1,1.35.86,7.91,7.91,0,0,1,.84,2.66,3.44,3.44,0,0,0,3.17,2.51,3.64,3.64,0,0,0,2.65-1.15C458,261.18,458.11,260.79,458.16,260.81Z"/><path class="cls-5" d="M465,256.86a7,7,0,0,1-3.41,1.29,7.13,7.13,0,0,1-3.65-.1c0-.15,1.63-.08,3.56-.42S464.94,256.72,465,256.86Z"/><path class="cls-5" d="M473.57,257s-.13.22-.43.53a8,8,0,0,1-1.44,1.2,3.66,3.66,0,0,1-2.77.53,2.51,2.51,0,0,1-1.46-1,3.74,3.74,0,0,1-.57-1.74,51.4,51.4,0,0,1-.08-6.1,10.34,10.34,0,0,1,.26-2.51,14.09,14.09,0,0,1,.11,2.51c0,1.55.05,3.71.23,6a3.36,3.36,0,0,0,.47,1.52,2,2,0,0,0,1.16.79,3.39,3.39,0,0,0,2.47-.38,10.59,10.59,0,0,0,1.48-1C473.34,257.11,473.54,257,473.57,257Z"/><path class="cls-5" d="M474.37,264.31a7.86,7.86,0,0,1-.47-2.06,46.18,46.18,0,0,1-.48-5.07,45,45,0,0,1,.07-5.08,8.61,8.61,0,0,1,.29-2.1c.16,0,0,3.22.16,7.16S474.52,264.28,474.37,264.31Z"/><path class="cls-5" d="M506.58,271.08c0,.14-16.18.26-36.15.26s-36.16-.12-36.16-.26,16.19-.26,36.16-.26S506.58,270.93,506.58,271.08Z"/><path class="cls-5" d="M443.1,284.81s0,.54-.7,1A2,2,0,0,1,441,286a2.51,2.51,0,0,1-1.49-1.22,4.86,4.86,0,0,1-.62-2.22,15,15,0,0,0-.2-2.51,1.87,1.87,0,0,0-.62-1,.88.88,0,0,0-1.06.09,4.94,4.94,0,0,0-.92,1.07c-.29.41-.57.84-.84,1.27a21.35,21.35,0,0,0-2.3,5.29.23.23,0,0,1-.29.17.23.23,0,0,1-.18-.19,51.36,51.36,0,0,0-1.58-6.46c-.48-1.56-.82-2.46-.76-2.48a2.28,2.28,0,0,1,.32.61c.19.4.43,1,.72,1.78a40.65,40.65,0,0,1,1.77,6.47l-.47,0a20.76,20.76,0,0,1,2.32-5.44c.28-.45.57-.88.87-1.3a5,5,0,0,1,1-1.18,1.38,1.38,0,0,1,1.64-.09,2.27,2.27,0,0,1,.8,1.31,14.37,14.37,0,0,1,.17,2.61,4.58,4.58,0,0,0,.5,2.07,2.29,2.29,0,0,0,1.26,1.12,1.85,1.85,0,0,0,1.27-.08A1.75,1.75,0,0,0,443.1,284.81Z"/><path class="cls-5" d="M448.62,279.29a15.84,15.84,0,0,1-3.38,1.15.25.25,0,0,1-.3-.15h0a2.79,2.79,0,0,1,.18-1.84,6.06,6.06,0,0,0,.59-1.87c0-.57-.21-1-.62-1.1a.93.93,0,0,0-.9.19c-.15.17-.13.34-.17.34s-.14-.15,0-.45a1.1,1.1,0,0,1,1.14-.45,1.08,1.08,0,0,1,.77.5,1.66,1.66,0,0,1,.26,1,5.62,5.62,0,0,1-.58,2,2.45,2.45,0,0,0-.2,1.51l-.3-.16A15.08,15.08,0,0,1,448.62,279.29Z"/><path class="cls-5" d="M455.6,283.56c.06.13-.85.68-2.12.9a3.47,3.47,0,0,1-2.3-.12,10,10,0,0,1,2.21-.4A10.75,10.75,0,0,1,455.6,283.56Z"/><path class="cls-5" d="M468.59,285.84a2.17,2.17,0,0,1-.64.29,13.47,13.47,0,0,1-1.86.49,16.91,16.91,0,0,1-6.5,0,.25.25,0,0,1-.2-.3.25.25,0,0,1,.11-.17c.53-.36,1.09-.73,1.62-1.15a6.33,6.33,0,0,0,2.45-3.25,3.06,3.06,0,0,0-.63-3.07,2.66,2.66,0,0,0-2-.81c-.54,0-.8.23-.83.18a1.27,1.27,0,0,1,.8-.38,2.81,2.81,0,0,1,2.31.74,3.44,3.44,0,0,1,.84,3.46,6.75,6.75,0,0,1-2.6,3.54c-.55.43-1.12.81-1.66,1.17l-.09-.46a18.71,18.71,0,0,0,6.35.17C467.63,286.06,468.56,285.76,468.59,285.84Z"/><path class="cls-5" d="M483.81,283.72s0,.11-.16.29a3.58,3.58,0,0,1-.68.66,3.67,3.67,0,0,1-3.39.53,3.93,3.93,0,0,1-1.91-1.53,4.32,4.32,0,0,1-.62-2.73,4.4,4.4,0,0,0-.45-2.74,1.59,1.59,0,0,0-1.09-.75,1.15,1.15,0,0,0-1.1.63,6.32,6.32,0,0,0-.63,2,18,18,0,0,0-.29,2,17.57,17.57,0,0,0,.09,3.73.23.23,0,0,1-.19.26.22.22,0,0,1-.25-.18c-.44-2.34-.79-4.28-1-5.65a12.7,12.7,0,0,1-.29-2.16,13.44,13.44,0,0,1,.55,2.11c.3,1.35.72,3.28,1.2,5.61l-.45.08A17.79,17.79,0,0,1,473,282a16.92,16.92,0,0,1,.29-2.09,6.73,6.73,0,0,1,.69-2.15,1.7,1.7,0,0,1,1.6-.87,2.14,2.14,0,0,1,1.45,1,3.12,3.12,0,0,1,.52,1.55,14.76,14.76,0,0,1,0,1.5,4,4,0,0,0,.51,2.48,3.43,3.43,0,0,0,4.83,1.07A11.3,11.3,0,0,0,483.81,283.72Z"/><path class="cls-5" d="M487.16,284.59a19.65,19.65,0,0,1-.92-4.51,21,21,0,0,1-.4-4.59,20.3,20.3,0,0,1,.92,4.51A21,21,0,0,1,487.16,284.59Z"/><path class="cls-5" d="M491.76,278.36a12,12,0,0,1-4.12,1.88,11.71,11.71,0,0,1-4.47.72c0-.15,2-.5,4.32-1.22S491.69,278.22,491.76,278.36Z"/><path class="cls-5" d="M503.73,283.32a18.64,18.64,0,0,1-2.71.77c-1.7.42-4.09,1-6.83,1.6a.25.25,0,0,1-.23-.43,17.16,17.16,0,0,0,1.57-1.8,15.88,15.88,0,0,0,2.28-4.07,2.2,2.2,0,0,0,0-1.82,1.83,1.83,0,0,0-1.36-.8,3.92,3.92,0,0,0-2.38.69,4.77,4.77,0,0,1-.83.47,2.85,2.85,0,0,1,.72-.64,3.81,3.81,0,0,1,2.53-.88,2.21,2.21,0,0,1,1.69.93,2.63,2.63,0,0,1,.13,2.2,15.72,15.72,0,0,1-2.32,4.24,16.2,16.2,0,0,1-1.63,1.84l-.24-.43c2.74-.59,5.14-1.09,6.87-1.43A17.39,17.39,0,0,1,503.73,283.32Z"/><path class="cls-5" d="M397.22,162a5.28,5.28,0,0,1-1.1.31L393,163l-10.71,2.29a.26.26,0,0,1-.3-.2.27.27,0,0,1,.05-.21l3.9-4.66,2.77-3.3,1.32-1.56.64-.76c.23-.24.39-.5.31-.56s-.36-.13-.65-.09l-.92.08-1.76.15-3.15.26-4.56.34a9.3,9.3,0,0,1-1.68.05,12,12,0,0,1,1.66-.25l4.55-.51,3.14-.32,1.76-.18.91-.09a2.93,2.93,0,0,1,.52,0,.77.77,0,0,1,.59.32.69.69,0,0,1,0,.7,3.2,3.2,0,0,1-.32.43l-.64.76-1.31,1.57-2.76,3.3-3.91,4.65-.24-.4L393,162.67l3.13-.56A5.28,5.28,0,0,1,397.22,162Z"/><path class="cls-5" d="M404,169.8c-.07,0-.05-1-.24-2.7a23.28,23.28,0,0,0-1.78-6.67l.42,0a22.64,22.64,0,0,0-2.77,5.3,22.39,22.39,0,0,0-1.1,4.33.25.25,0,0,1-.29.21.27.27,0,0,1-.21-.23,59.32,59.32,0,0,1,0-8.09c.07-1,.16-1.79.23-2.33a2.94,2.94,0,0,1,.16-.83c.06,0,0,1.19-.08,3.18a77.79,77.79,0,0,0,.17,8l-.5,0a22.71,22.71,0,0,1,1.11-4.44,21.92,21.92,0,0,1,2.87-5.4.23.23,0,0,1,.33-.06.41.41,0,0,1,.09.1,21.66,21.66,0,0,1,1.62,6.83,17.82,17.82,0,0,1,0,2A2.6,2.6,0,0,1,404,169.8Z"/><path class="cls-5" d="M415.62,159.14a10.81,10.81,0,0,1-3.21.85,11,11,0,0,1-3.31.33,11.06,11.06,0,0,1,3.22-.85A10.56,10.56,0,0,1,415.62,159.14Z"/><path class="cls-5" d="M425.1,179.87s.31.85,1,2.29a8,8,0,0,0,1.7,2.34,3.7,3.7,0,0,0,3.47.89,5.49,5.49,0,0,0,3.34-2.93,19.88,19.88,0,0,0,1.55-5.13,37.68,37.68,0,0,0-1.39-19.63l.49,0a8.58,8.58,0,0,1-2.21,4.66,4.4,4.4,0,0,1-2.17,1.21,4.27,4.27,0,0,1-2.36-.23,3.45,3.45,0,0,1-1.75-1.41,2.74,2.74,0,0,1-.26-2.1A4.54,4.54,0,0,1,429,157.1a7,7,0,0,1,5.07-.38,5.55,5.55,0,0,1,1.27.54,2.25,2.25,0,0,1,.4.27,12.15,12.15,0,0,0-1.71-.65,7.09,7.09,0,0,0-4.89.51,4.24,4.24,0,0,0-2.21,2.5,2.36,2.36,0,0,0,.25,1.79,3,3,0,0,0,1.55,1.21,3.77,3.77,0,0,0,2.11.19,4,4,0,0,0,1.93-1.1,8.11,8.11,0,0,0,2-4.41.25.25,0,0,1,.29-.2.24.24,0,0,1,.2.16,37.68,37.68,0,0,1,1.38,19.89,20.19,20.19,0,0,1-1.63,5.24,6,6,0,0,1-3.63,3.09,4,4,0,0,1-3.77-1,8,8,0,0,1-1.68-2.46,14.39,14.39,0,0,1-.69-1.74A2.31,2.31,0,0,1,425.1,179.87Z"/><path class="cls-5" d="M449.22,175.15a33.25,33.25,0,0,1,.63-5.81A32,32,0,0,1,451,163.6a32.89,32.89,0,0,1-.64,5.82A33.41,33.41,0,0,1,449.22,175.15Z"/><path class="cls-5" d="M191.88,151.65a4.07,4.07,0,0,1-.23-1.07c-.12-.69-.27-1.69-.44-2.93s-.36-2.76-.57-4.36c-.13-.8-.11-1.79-.62-2.29a.67.67,0,0,0-.92.07,4.91,4.91,0,0,0-.8,1.05,10.51,10.51,0,0,0-1.51,5.18.23.23,0,0,1-.24.23.25.25,0,0,1-.24-.21c-.3-2.41-.54-4.46-.7-5.91a13.86,13.86,0,0,1-.16-2.3,14.53,14.53,0,0,1,.45,2.26c.23,1.44.54,3.48.88,5.89l-.47,0a10.66,10.66,0,0,1,1.55-5.44,4.78,4.78,0,0,1,.92-1.18,1.39,1.39,0,0,1,.76-.33,1.11,1.11,0,0,1,.82.27A2.34,2.34,0,0,1,191,142c.07.46.1.86.15,1.28.17,1.61.33,3.09.47,4.37s.22,2.26.27,3A5,5,0,0,1,191.88,151.65Z"/><path class="cls-5" d="M222.05,137.8a2.09,2.09,0,0,1-.45.08l-1.33.17-5,.51-16.81,1.59.23-.27c.12,1.72.18,3.52.18,5.36a73,73,0,0,1-2.56,19,.19.19,0,0,1-.23.14.21.21,0,0,1-.1-.06,14.18,14.18,0,0,1-3.46-6.34,13.42,13.42,0,0,1-.32-1.95,2.89,2.89,0,0,1,0-.7,26.29,26.29,0,0,0,.54,2.59A14.49,14.49,0,0,0,196.3,164l-.33.09a77.16,77.16,0,0,0,2.42-18.87c0-1.83-.06-3.61-.17-5.33a.25.25,0,0,1,.23-.27l16.83-1.41,5-.36,1.34-.08A1.48,1.48,0,0,1,222.05,137.8Z"/><path class="cls-5" d="M212.38,150.75s-.37.59-1.35,1.16a6.7,6.7,0,0,1-4.37.77.26.26,0,0,1-.21-.29l.17-1.34c.26-2.05.52-3.9.74-5.24a9.39,9.39,0,0,1,.46-2.15,9.14,9.14,0,0,1-.1,2.19c-.12,1.35-.33,3.21-.59,5.27-.06.45-.11.9-.17,1.34l-.21-.29a6.8,6.8,0,0,0,4.12-.56C211.84,151.15,212.33,150.69,212.38,150.75Z"/><path class="cls-5" d="M213,163.54a12.1,12.1,0,0,1-.51-2.55c-.23-1.58-.48-3.78-.64-6.22s-.19-4.65-.17-6.25a11.78,11.78,0,0,1,.18-2.59,15.16,15.16,0,0,1,.19,2.59c.07,1.59.17,3.79.32,6.22s.35,4.62.49,6.21A13.2,13.2,0,0,1,213,163.54Z"/><path class="cls-5" d="M232.82,145.08a17.64,17.64,0,0,0-1.92-4.47l.37,0a11.63,11.63,0,0,0-2,3.54c-.09.25-.16.51-.23.75a.27.27,0,0,1-.32.19.28.28,0,0,1-.19-.24c-.15-2.32-.27-4.4-.32-5.89a12.83,12.83,0,0,1,0-2.42,11.24,11.24,0,0,1,.35,2.39c.15,1.49.32,3.56.49,5.89l-.51-.05c.07-.26.15-.53.24-.79a11.32,11.32,0,0,1,2.12-3.67h0a.24.24,0,0,1,.33,0l0,.06a11,11,0,0,1,1.38,3.35A3.65,3.65,0,0,1,232.82,145.08Z"/><path class="cls-5" d="M274.29,133.6a3.64,3.64,0,0,1-.73.12l-2.09.24-7.69.77-25.42,2.35-1.21.11.24-.25c-.24,4.85-.63,9.44-1.09,13.6-.23,2.08-.48,4.05-.73,5.89-.14.92-.23,1.79-.41,2.66a3.15,3.15,0,0,1-1.33,2.18,1.86,1.86,0,0,1-1.24.19,2.29,2.29,0,0,1-1-.52,4,4,0,0,1-1.13-1.73,5.32,5.32,0,0,1-.25-1.75c0-.53,0-1,0-1.46a6.06,6.06,0,0,0-.29-2c-.15-.43-.29-.63-.26-.65a2.32,2.32,0,0,1,.36.61,5.64,5.64,0,0,1,.38,2c0,.44,0,.93.06,1.46a5.32,5.32,0,0,0,.28,1.67,3.87,3.87,0,0,0,1.07,1.57,1.62,1.62,0,0,0,1.88.26,2.79,2.79,0,0,0,1.12-1.94c.16-.82.25-1.73.37-2.64.24-1.84.47-3.81.69-5.88.43-4.15.8-8.74,1-13.58a.25.25,0,0,1,.23-.24l1.22-.11,25.42-2.2,7.71-.61,2.1-.13A5.16,5.16,0,0,1,274.29,133.6Z"/><path class="cls-5" d="M243.88,158.15a44.13,44.13,0,0,1-.93-6.65,42.44,42.44,0,0,1-.41-6.71,43.87,43.87,0,0,1,.93,6.65A42.44,42.44,0,0,1,243.88,158.15Z"/><path class="cls-5" d="M247.72,155.06c0-.05.38.11,1.07.19a5.51,5.51,0,0,0,2.83-.49,4.5,4.5,0,0,0,2.64-3.09,3,3,0,0,0-.54-2.29,2.1,2.1,0,0,0-2.18-.9,2,2,0,0,0-1.62,1.86h-.51a3.45,3.45,0,0,1,1.15-2.09,5,5,0,0,0,1.15-1.59,1.59,1.59,0,0,0-.31-1.54,1.68,1.68,0,0,0-1.24-.65,1.88,1.88,0,0,0-1.64,1.16,3.74,3.74,0,0,0-.17.78s-.15-.29,0-.84a1.92,1.92,0,0,1,3.34-.71,2,2,0,0,1,.43,1.93,5.07,5.07,0,0,1-1.21,1.78,3,3,0,0,0-1,1.79.25.25,0,0,1-.26.24.25.25,0,0,1-.25-.24,2.48,2.48,0,0,1,2-2.4,2.61,2.61,0,0,1,2.7,1.11,3.49,3.49,0,0,1,.6,2.68,4.28,4.28,0,0,1-1.19,2.16,5.48,5.48,0,0,1-1.77,1.18,5.4,5.4,0,0,1-3,.35A2.44,2.44,0,0,1,247.72,155.06Z"/><path class="cls-5" d="M264.35,149.42a10.37,10.37,0,0,1-.62-1.81c-.34-1.15-.8-2.79-1.33-4.73l.41.1a12.63,12.63,0,0,0-2.35,3.85,12.87,12.87,0,0,0-.68,2.51.24.24,0,0,1-.29.21.24.24,0,0,1-.21-.25,21.09,21.09,0,0,0-.95-6.11c-.45-1.49-.85-2.34-.79-2.37s.16.18.36.57a13.85,13.85,0,0,1,.74,1.69,18.76,18.76,0,0,1,1.14,6.22l-.5,0a12.64,12.64,0,0,1,3.18-6.6.24.24,0,0,1,.33,0,.21.21,0,0,1,.07.12c.49,2,.89,3.61,1.15,4.78A9.52,9.52,0,0,1,264.35,149.42Z"/><path class="cls-5" d="M317.38,117.76a1.54,1.54,0,0,1-1.35.32,2.9,2.9,0,0,1-1.49-.74,3.43,3.43,0,0,1-1.11-1.9,8.07,8.07,0,0,1,0-2.65,24.72,24.72,0,0,0,.32-2.94,4.18,4.18,0,0,0-.89-2.9,9.87,9.87,0,0,1-1.22-1.31,1.36,1.36,0,0,1-.17-1,1.41,1.41,0,0,1,.66-.84,10.83,10.83,0,0,1,1.71-.68,3,3,0,0,0,1.25-1,6.26,6.26,0,0,0,1.05-2.94c.18-2,0-4,.81-5.55A3.68,3.68,0,0,1,320,91.53a2.14,2.14,0,0,1,1,.26c.2.14.29.22.28.24a2.78,2.78,0,0,0-1.29-.3,3.5,3.5,0,0,0-2.78,2,7.06,7.06,0,0,0-.54,2.45c-.07.92,0,1.92-.14,3a6.5,6.5,0,0,1-1.12,3.2,3.59,3.59,0,0,1-1.45,1.15,11.31,11.31,0,0,0-1.63.64.82.82,0,0,0-.32,1.19,10.66,10.66,0,0,0,1.15,1.23,4.66,4.66,0,0,1,1,3.25,25,25,0,0,1-.37,3,7.65,7.65,0,0,0,0,2.52,3.14,3.14,0,0,0,2.28,2.52A2.47,2.47,0,0,0,317.38,117.76Z"/><path class="cls-5" d="M321.55,110.46c-.13-.1,1.61-2.24,3.13-5.23s2.27-5.64,2.43-5.6a16.15,16.15,0,0,1-2,5.84A16.2,16.2,0,0,1,321.55,110.46Z"/><path class="cls-5" d="M329.66,108.83a36.8,36.8,0,0,1-5-3.52,36.43,36.43,0,0,1-4.73-3.94,36.11,36.11,0,0,1,5,3.52A36.53,36.53,0,0,1,329.66,108.83Z"/><path class="cls-5" d="M337.47,114.74a22.66,22.66,0,0,1-1.12-2.21,35.31,35.31,0,0,0-3.27-5.3l.43,0a16.63,16.63,0,0,0-1,3.24,16.82,16.82,0,0,0-.34,4.1.23.23,0,0,1-.23.25.24.24,0,0,1-.25-.21c-.31-2.32-.55-4.32-.7-5.73a12.81,12.81,0,0,1-.17-2.25,11,11,0,0,1,.46,2.21c.24,1.4.55,3.38.89,5.7l-.48,0a16,16,0,0,1,1.4-7.57.24.24,0,0,1,.32-.12.16.16,0,0,1,.1.08,29.42,29.42,0,0,1,3.16,5.46A10.69,10.69,0,0,1,337.47,114.74Z"/><path class="cls-5" d="M339,121.07a2.9,2.9,0,0,0,1.45.47,3.5,3.5,0,0,0,3.23-2.23,6.56,6.56,0,0,0,.4-2.86,28.23,28.23,0,0,0-.5-3.38,10.26,10.26,0,0,1-.08-3.88A4.58,4.58,0,0,1,346,105.9a3.38,3.38,0,0,1,.86-.21.24.24,0,0,1,.28.22.23.23,0,0,1-.09.23h0a1.9,1.9,0,0,1-2.17,0,2.9,2.9,0,0,1-1.29-1.65,8.21,8.21,0,0,1,.26-3.73,10.8,10.8,0,0,0-.53-6,11.52,11.52,0,0,0-2.13-3.47c-.65-.72-1.08-1-1.05-1.09a1.42,1.42,0,0,1,.33.21,8,8,0,0,1,.86.74,10.91,10.91,0,0,1,3,9.66,8.18,8.18,0,0,0-.23,3.51,2.36,2.36,0,0,0,1.06,1.33,1.37,1.37,0,0,0,1.59,0l.18.47a2.64,2.64,0,0,0-.7.17,4.15,4.15,0,0,0-2.26,2.93A9.88,9.88,0,0,0,344,113a29.28,29.28,0,0,1,.45,3.44,6.87,6.87,0,0,1-.49,3,3.8,3.8,0,0,1-1.71,1.87,3.45,3.45,0,0,1-1.87.42,2.26,2.26,0,0,1-1.14-.38C339.05,121.19,339,121.08,339,121.07Z"/><path class="cls-5" d="M360.06,109.52s-.25.09-.72.15a14.81,14.81,0,0,1-2,.09,9.21,9.21,0,0,1-2.94-.53,5.93,5.93,0,0,1-2.92-2.25,4.11,4.11,0,0,1-.46-3.65,5,5,0,0,1,1.79-2.42,3.68,3.68,0,0,1,1.89-.74,1.5,1.5,0,0,1,.74,0,5.3,5.3,0,0,0-2.4,1,4.77,4.77,0,0,0-1.57,2.28,3.74,3.74,0,0,0,.44,3.22,5.81,5.81,0,0,0,2.67,2.08,9.46,9.46,0,0,0,2.78.61C359,109.51,360.06,109.43,360.06,109.52Z"/><path class="cls-5" d="M373.94,110.26a6.08,6.08,0,0,1-.84-.54l-2.27-1.64-8-5.92a.23.23,0,0,1-.05-.32.23.23,0,0,1,.19-.09,6.35,6.35,0,0,0,4.93-2.48A6.11,6.11,0,0,0,369,93.34a4.11,4.11,0,0,0-1.5-2,3,3,0,0,0-2.3-.4,2.38,2.38,0,0,0-1.61,1.49,6.3,6.3,0,0,0-.36,2.28,80,80,0,0,0,.63,8.3c.3,2.35.64,4.24.89,5.55.11.61.2,1.1.28,1.5a2.15,2.15,0,0,1,.07.54,2.64,2.64,0,0,1-.17-.51c-.1-.34-.23-.84-.38-1.49-.31-1.29-.7-3.18-1.06-5.54a72.78,72.78,0,0,1-.74-8.35,6.73,6.73,0,0,1,.38-2.47,2.88,2.88,0,0,1,1.94-1.79,3.42,3.42,0,0,1,2.71.46,4.49,4.49,0,0,1,1.7,2.23,6,6,0,0,1,.23,3.45,7.51,7.51,0,0,1-1.47,3,6.79,6.79,0,0,1-5.33,2.62l.14-.41,7.91,6.07,2.2,1.73A5,5,0,0,1,373.94,110.26Z"/><path class="cls-5" d="M281,218.84a6.11,6.11,0,0,1-1.73,1,20.63,20.63,0,0,1-4.61,1.53,20.23,20.23,0,0,1-4.83.42,6.19,6.19,0,0,1-2-.26,49.83,49.83,0,0,0,6.72-.67A52.67,52.67,0,0,0,281,218.84Z"/><path class="cls-5" d="M269,229.84a50.74,50.74,0,0,1,4.55-5.84,52.12,52.12,0,0,1,5-5.51,52.14,52.14,0,0,1-4.55,5.84A54.77,54.77,0,0,1,269,229.84Z"/><path class="cls-5" d="M281.43,228.08a45.4,45.4,0,0,1-6.74,1,42.72,42.72,0,0,1-6.79.49,45.12,45.12,0,0,1,6.73-1A42.76,42.76,0,0,1,281.43,228.08Z"/><path class="cls-5" d="M392.24,209.73a44.69,44.69,0,0,1,3.62-5.82,46,46,0,0,1,4.06-5.52,45,45,0,0,1-3.62,5.81A46.64,46.64,0,0,1,392.24,209.73Z"/><path class="cls-5" d="M399.92,209.73A31.81,31.81,0,0,1,395,204.9c-2.56-2.76-5.1-4.53-5-4.68a6.75,6.75,0,0,1,1.71,1.07,26.32,26.32,0,0,1,3.65,3.25c1.29,1.41,2.39,2.71,3.23,3.63A8.53,8.53,0,0,1,399.92,209.73Z"/><path class="cls-5" d="M282,108.15a1.88,1.88,0,0,0,1.4.4,2.6,2.6,0,0,0,1.53-.77,3.37,3.37,0,0,0,.82-2.1,15.66,15.66,0,0,0-.18-2.89c-.12-1.05-.24-2.17-.38-3.34-.25-2.37-.53-5-.83-7.67-.19-1.87-.38-3.67-.56-5.35a.26.26,0,0,1,.22-.28.27.27,0,0,1,.25.12,3.77,3.77,0,0,1,.31,3.11,4.29,4.29,0,0,1-1.69,2.3,3.32,3.32,0,0,1-2.5.49,4.11,4.11,0,0,1-3.19-3.78,2.62,2.62,0,0,1,.1-.81.86.86,0,0,1,.1-.27c.05,0-.08.38,0,1.07a4,4,0,0,0,1.31,2.52,3.72,3.72,0,0,0,1.78.9,2.94,2.94,0,0,0,2.19-.47,3.93,3.93,0,0,0,1.48-2.09,3.3,3.3,0,0,0-.29-2.7l.46-.16c.18,1.68.38,3.48.58,5.34.28,2.72.55,5.31.79,7.68.12,1.17.23,2.29.33,3.35a15,15,0,0,1,.12,3,3.59,3.59,0,0,1-1,2.28,2.74,2.74,0,0,1-1.71.76,1.69,1.69,0,0,1-1.14-.3A.84.84,0,0,1,282,108.15Z"/><path class="cls-5" d="M293.49,196.19c-.15,0-.26-24.23-.26-54.12s.11-54.14.26-54.14.26,24.24.26,54.14S293.63,196.19,293.49,196.19Z"/><path class="cls-5" d="M293.36,196.93a11.82,11.82,0,0,1-1.35,1c-.88.63-2.19,1.51-3.83,2.56-3.27,2.12-7.89,4.87-13.06,7.79l-13.24,7.46-4,2.29a10.06,10.06,0,0,1-1.49.79,11.37,11.37,0,0,1,1.39-1c.91-.6,2.25-1.43,3.91-2.43,3.33-2,8-4.68,13.17-7.6s9.81-5.61,13.13-7.64l3.91-2.42A9.85,9.85,0,0,1,293.36,196.93Z"/><path class="cls-5" d="M394.07,196.93c0,.14-22.55.26-50.35.26s-50.36-.12-50.36-.26,22.54-.27,50.36-.27S394.07,196.78,394.07,196.93Z"/><path class="cls-5" d="M276.66,155.84a6.11,6.11,0,0,1-.26-2.5,6.31,6.31,0,0,1,.26-2.5,6.11,6.11,0,0,1,.26,2.5A6.31,6.31,0,0,1,276.66,155.84Z"/><path class="cls-5" d="M276.6,165.84a6.32,6.32,0,0,1-.24-2.5,6.42,6.42,0,0,1,.27-2.5,6,6,0,0,1,.25,2.5A6.31,6.31,0,0,1,276.6,165.84Z"/><path class="cls-5" d="M276.51,175.84a6.32,6.32,0,0,1-.24-2.5,6.21,6.21,0,0,1,.29-2.5,6.21,6.21,0,0,1,.23,2.5A6.31,6.31,0,0,1,276.51,175.84Z"/><path class="cls-5" d="M276.41,185.84a6.21,6.21,0,0,1-.23-2.5,6.31,6.31,0,0,1,.28-2.5,6.32,6.32,0,0,1,.24,2.5A6.21,6.21,0,0,1,276.41,185.84Z"/><path class="cls-5" d="M276.33,195.84a6.32,6.32,0,0,1-.24-2.5,6.1,6.1,0,0,1,.28-2.5,6.32,6.32,0,0,1,.24,2.5A6.1,6.1,0,0,1,276.33,195.84Z"/><path class="cls-5" d="M276.29,205.84a6.43,6.43,0,0,1-.25-2.5,6,6,0,0,1,.27-2.5,6.43,6.43,0,0,1,.25,2.5A6,6,0,0,1,276.29,205.84Z"/><path class="cls-5" d="M281.28,207.33a12.1,12.1,0,0,1-5,0,12.1,12.1,0,0,1,5,0Z"/><path class="cls-5" d="M291.26,207.33a12.1,12.1,0,0,1-5,0,12.1,12.1,0,0,1,5,0Z"/><path class="cls-5" d="M301.26,207.33a12.15,12.15,0,0,1-5,0,12.15,12.15,0,0,1,5,0Z"/><path class="cls-5" d="M311.26,207.33a12.15,12.15,0,0,1-5,0,12.15,12.15,0,0,1,5,0Z"/><path class="cls-5" d="M321.26,207.33a12.15,12.15,0,0,1-5,0,12.15,12.15,0,0,1,5,0Z"/><path class="cls-5" d="M331.26,207.33a12.15,12.15,0,0,1-5,0,12.15,12.15,0,0,1,5,0Z"/><path class="cls-5" d="M338.11,207.33c0,.15-.41.26-.92.26s-.92-.11-.92-.26.41-.26.92-.26S338.11,207.19,338.11,207.33Z"/><path class="cls-5" d="M338.11,207.33c-.14,0-.26-12.81-.26-28.61s.12-28.61.26-28.61.26,12.81.26,28.61S338.25,207.33,338.11,207.33Z"/><path class="cls-5" d="M281.3,150.11a12.15,12.15,0,0,1-5,0,12.15,12.15,0,0,1,5,0Z"/><path class="cls-5" d="M291.3,150.11a12.15,12.15,0,0,1-5,0,12.15,12.15,0,0,1,5,0Z"/><path class="cls-5" d="M301.3,150.11a12.15,12.15,0,0,1-5,0,12.15,12.15,0,0,1,5,0Z"/><path class="cls-5" d="M311.3,150.11a12.15,12.15,0,0,1-5,0,12.15,12.15,0,0,1,5,0Z"/><path class="cls-5" d="M321.3,150.11a12.15,12.15,0,0,1-5,0,12.15,12.15,0,0,1,5,0Z"/><path class="cls-5" d="M331.3,150.11a12.15,12.15,0,0,1-5,0,12.15,12.15,0,0,1,5,0Z"/><path class="cls-5" d="M338.11,150.11c0,.14-.41.26-.91.26s-.9-.12-.9-.26.4-.26.9-.26S338.11,150,338.11,150.11Z"/><path class="cls-5" d="M341.8,146.73c.1.11-.65,1-1.67,1.88s-1.92,1.61-2,1.5.65-1,1.67-1.88S341.7,146.63,341.8,146.73Z"/><path class="cls-5" d="M349.18,140c.09.11-.65,1-1.67,1.88s-1.93,1.61-2,1.5.65-1,1.67-1.88A6.3,6.3,0,0,1,349.18,140Z"/><path class="cls-5" d="M355.3,134.38c.1.11-.37.69-1,1.31s-1.3,1-1.39.92.36-.69,1-1.31S355.2,134.28,355.3,134.38Z"/><path class="cls-5" d="M355.55,191.92a6.31,6.31,0,0,1,.26,2.5,6.17,6.17,0,0,1-.26,2.51,6.31,6.31,0,0,1-.26-2.5A6.14,6.14,0,0,1,355.55,191.92Z"/><path class="cls-5" d="M355.52,181.92a6.42,6.42,0,0,1,.27,2.5,6.11,6.11,0,0,1-.26,2.5,6.31,6.31,0,0,1-.27-2.49A6.21,6.21,0,0,1,355.52,181.92Z"/><path class="cls-5" d="M355.46,171.93a6,6,0,0,1,.28,2.49,6.32,6.32,0,0,1-.25,2.51,6.21,6.21,0,0,1-.27-2.5A6.32,6.32,0,0,1,355.46,171.93Z"/><path class="cls-5" d="M355.4,161.93a11.92,11.92,0,0,1,0,5,6.42,6.42,0,0,1-.27-2.5A6.32,6.32,0,0,1,355.4,161.93Z"/><path class="cls-5" d="M355.35,151.93a6.42,6.42,0,0,1,.27,2.5,6,6,0,0,1-.25,2.5,6.42,6.42,0,0,1-.27-2.5A6,6,0,0,1,355.35,151.93Z"/><path class="cls-5" d="M355.31,141.93a12.15,12.15,0,0,1,0,5,6,6,0,0,1-.27-2.5A6.21,6.21,0,0,1,355.31,141.93Z"/><path class="cls-5" d="M355.3,134.38c.14,0,.26.57.26,1.28s-.12,1.27-.26,1.27-.26-.57-.26-1.27S355.16,134.38,355.3,134.38Z"/><path class="cls-5" d="M342.4,204.77c.08.12-.82.8-2,1.5a6.14,6.14,0,0,1-2.28,1.06,12.22,12.22,0,0,1,4.29-2.56Z"/><path class="cls-5" d="M351,199.65a6.45,6.45,0,0,1-2,1.5,6.34,6.34,0,0,1-2.28,1.06c-.08-.13.82-.8,2-1.51A6.21,6.21,0,0,1,351,199.65Z"/><path class="cls-5" d="M355.55,196.93c.07.12.07.25,0,.3s-.19,0-.27-.15-.07-.25,0-.3S355.48,196.8,355.55,196.93Z"/><path class="cls-5" d="M280.75,146.49c.1.1-.59,1-1.54,2s-1.81,1.73-1.92,1.63.59-1,1.54-2S280.64,146.39,280.75,146.49Z"/><path class="cls-5" d="M287.53,139.14c.11.1-.56,1-1.5,2s-1.78,1.76-1.88,1.66.56-1,1.5-2S287.43,139.05,287.53,139.14Z"/><path class="cls-5" d="M292.39,134c.1.1-.13.51-.53.92s-.8.66-.9.56.13-.51.53-.92S292.29,133.92,292.39,134Z"/><path class="cls-5" d="M297.39,134a12.15,12.15,0,0,1-5,0,12.15,12.15,0,0,1,5,0Z"/><path class="cls-5" d="M307.39,134a12.15,12.15,0,0,1-5,0,12.15,12.15,0,0,1,5,0Z"/><path class="cls-5" d="M317.39,134a12.15,12.15,0,0,1-5,0,12.15,12.15,0,0,1,5,0Z"/><path class="cls-5" d="M327.39,134a12.15,12.15,0,0,1-5,0,12.15,12.15,0,0,1,5,0Z"/><path class="cls-5" d="M337.39,134a12.15,12.15,0,0,1-5,0,12.15,12.15,0,0,1,5,0Z"/><path class="cls-5" d="M347.39,134a12.15,12.15,0,0,1-5,0,12.15,12.15,0,0,1,5,0Z"/><path class="cls-5" d="M356.4,134a7.86,7.86,0,0,1-4,0c0-.15.9-.26,2-.26S356.4,133.87,356.4,134Z"/><path class="cls-5" d="M315.43,161.84c-.14,0-.26-4.68-.26-10.44s.12-10.43.26-10.43a102.55,102.55,0,0,1,.26,10.43A102.84,102.84,0,0,1,315.43,161.84Z"/><path class="cls-5" d="M307.26,171.32c0,.15-6.22.26-13.9.26s-13.9-.11-13.9-.26,6.23-.26,13.9-.26S307.26,171.18,307.26,171.32Z"/><path class="cls-5" d="M315.43,201.67c-.14,0-.26-5.4-.26-12.07s.12-12.07.26-12.07.26,5.41.26,12.07S315.58,201.67,315.43,201.67Z"/><path class="cls-5" d="M343.77,170.67a98.78,98.78,0,0,1-10.24.26,98.94,98.94,0,0,1-10.24-.26,102.42,102.42,0,0,1,10.24-.26A102.25,102.25,0,0,1,343.77,170.67Z"/><path class="cls-5" d="M314,162a5.52,5.52,0,0,1,2.06-.2,8.3,8.3,0,0,1,5.09,2.32,8.15,8.15,0,0,1,2.14,3.3,7.14,7.14,0,0,1,0,4.52,7.89,7.89,0,0,1-1.12,2.2,8.2,8.2,0,0,1-1.77,1.86,7.43,7.43,0,0,1-10-.33,8.52,8.52,0,0,1-1.64-2,7.78,7.78,0,0,1-1-2.27A7.18,7.18,0,0,1,308,167a8.25,8.25,0,0,1,2.32-3.17,8.41,8.41,0,0,1,5.22-2,5.5,5.5,0,0,1,2.05.31,15.38,15.38,0,0,0-2-.11,8.38,8.38,0,0,0-5,2.11,8,8,0,0,0-2.16,3.05,6.74,6.74,0,0,0-.18,4.23,7.43,7.43,0,0,0,.93,2.13,7.87,7.87,0,0,0,1.57,1.85,7,7,0,0,0,9.32.31,8.19,8.19,0,0,0,1.68-1.75,7.41,7.41,0,0,0,1.07-2.07,6.78,6.78,0,0,0,.08-4.22,7.88,7.88,0,0,0-2-3.18A8.37,8.37,0,0,0,316,162,17.94,17.94,0,0,0,314,162Z"/><path class="cls-5" d="M394.85,323.52c0,.14-33.14.26-74,.26s-74-.12-74-.26,33.13-.26,74-.26S394.85,323.37,394.85,323.52Z"/><path class="cls-5" d="M372.73,323.15a2.26,2.26,0,0,1-.14-.42l-.34-1.24c-.31-1.1-.77-2.71-1.43-4.76a91.14,91.14,0,0,0-7.2-16.72,66.36,66.36,0,0,0-17.39-20.42,54.39,54.39,0,0,0-13.84-7.78,47.18,47.18,0,0,0-16.71-3.08,52.65,52.65,0,0,0-30.87,10.1,51.75,51.75,0,0,0-10.31,10,57.35,57.35,0,0,0-6.63,10.66,60.83,60.83,0,0,0-5.31,17.35c-.3,2.14-.48,3.8-.53,4.93q-.06.83-.09,1.29c0,.29-.05.44-.05.44a3,3,0,0,1,0-.44l0-1.29c0-1.14.17-2.81.44-4.95a59.47,59.47,0,0,1,5.18-17.49,57.52,57.52,0,0,1,6.62-10.77,51.48,51.48,0,0,1,10.37-10.12,52.89,52.89,0,0,1,31.15-10.24,47.27,47.27,0,0,1,16.89,3.13,54.51,54.51,0,0,1,13.95,7.87,66.16,66.16,0,0,1,17.42,20.62A88.42,88.42,0,0,1,371,316.67c.62,2.06,1.06,3.68,1.33,4.79l.29,1.26A2.32,2.32,0,0,1,372.73,323.15Z"/><path class="cls-5" d="M263.42,321.54c.11.09-.14.6-.56,1.15s-.86.91-1,.82.13-.6.56-1.14S263.31,321.45,263.42,321.54Z"/><path class="cls-5" d="M270.51,314.34c.09.11-.66,1-1.68,1.91a6.6,6.6,0,0,1-2,1.53c-.1-.1.65-1,1.68-1.91S270.42,314.23,270.51,314.34Z"/><path class="cls-5" d="M278.83,308.62c.07.13-.87.76-2.05,1.49a7.31,7.31,0,0,1-2.26,1.16c-.08-.12.79-.87,2-1.61A5.65,5.65,0,0,1,278.83,308.62Z"/><path class="cls-5" d="M288.23,305a6.29,6.29,0,0,1-2.34,1,6.78,6.78,0,0,1-2.47.56,5.85,5.85,0,0,1,2.32-1.06A6.27,6.27,0,0,1,288.23,305Z"/><path class="cls-5" d="M298.07,302.61a12.4,12.4,0,0,1-4.95,1.05,12.4,12.4,0,0,1,4.95-1.05Z"/><path class="cls-5" d="M308.09,301.29a12.32,12.32,0,0,1-5,.52,6.32,6.32,0,0,1,2.49-.52A6,6,0,0,1,308.09,301.29Z"/><path class="cls-5" d="M318.21,301.21a6.25,6.25,0,0,1-2.54.19,6.76,6.76,0,0,1-2.52-.31,6.18,6.18,0,0,1,2.53-.21A6.55,6.55,0,0,1,318.21,301.21Z"/><path class="cls-5" d="M328.29,302a6.4,6.4,0,0,1-2.54,0,6.21,6.21,0,0,1-2.49-.51,6.34,6.34,0,0,1,2.54,0A6.48,6.48,0,0,1,328.29,302Z"/><path class="cls-5" d="M338.25,303.71a6.34,6.34,0,0,1-2.53-.23,6.41,6.41,0,0,1-2.43-.74,12.42,12.42,0,0,1,5,1Z"/><path class="cls-5" d="M348,306.37a6.35,6.35,0,0,1-2.49-.5,7.5,7.5,0,0,1-2.35-1,5.59,5.59,0,0,1,2.5.46A6.49,6.49,0,0,1,348,306.37Z"/><path class="cls-5" d="M357.27,310.41a6.48,6.48,0,0,1-2.39-.87,6.59,6.59,0,0,1-2.17-1.33,6.26,6.26,0,0,1,2.39.86C356.37,309.68,357.34,310.28,357.27,310.41Z"/><path class="cls-5" d="M365.76,315.88a6.28,6.28,0,0,1-2.22-1.24c-1.13-.8-2-1.55-1.91-1.67s1.07.43,2.21,1.24S365.85,315.77,365.76,315.88Z"/><path class="cls-5" d="M371.41,320.9c-.1.1-.58-.2-1.08-.68s-.81-1-.71-1.06.58.2,1.08.69S371.51,320.8,371.41,320.9Z"/><path class="cls-5" d="M265,327.52c-.1.1-1-.64-1.82-1.75a4.65,4.65,0,0,1-1.18-2.24,10,10,0,0,1,1.59,1.93C264.39,326.54,265.08,327.42,265,327.52Z"/><path class="cls-5" d="M272.71,333.81a6.32,6.32,0,0,1-2.18-1.25c-1.13-.81-2-1.55-1.88-1.66s1.07.44,2.19,1.24S272.79,333.69,272.71,333.81Z"/><path class="cls-5" d="M281.55,338.48a5.93,5.93,0,0,1-2.37-.84,6.31,6.31,0,0,1-2.15-1.3,6.1,6.1,0,0,1,2.37.83A6.45,6.45,0,0,1,281.55,338.48Z"/><path class="cls-5" d="M291.1,341.41a6.3,6.3,0,0,1-2.5-.33,5.29,5.29,0,0,1-2.35-.89,7,7,0,0,1,2.48.39A6.29,6.29,0,0,1,291.1,341.41Z"/><path class="cls-5" d="M300.92,343.27a6.06,6.06,0,0,1-2.51-.16,6,6,0,0,1-2.42-.68,6.4,6.4,0,0,1,2.51.17A6.32,6.32,0,0,1,300.92,343.27Z"/><path class="cls-5" d="M310.86,344.36a6.31,6.31,0,0,1-2.51,0,6.21,6.21,0,0,1-2.47-.48,12.11,12.11,0,0,1,5,.44Z"/><path class="cls-5" d="M320.85,344.56a6.31,6.31,0,0,1-2.49.27,6.46,6.46,0,0,1-2.51-.25,6.08,6.08,0,0,1,2.5-.27A6,6,0,0,1,320.85,344.56Z"/><path class="cls-5" d="M330.82,343.74a6.24,6.24,0,0,1-2.46.53,6,6,0,0,1-2.51,0,6.35,6.35,0,0,1,2.45-.53A6.53,6.53,0,0,1,330.82,343.74Z"/><path class="cls-5" d="M340.62,341.79a6.19,6.19,0,0,1-2.38.81,5.84,5.84,0,0,1-2.49.31,12.22,12.22,0,0,1,4.87-1.12Z"/><path class="cls-5" d="M350.08,338.58a12.12,12.12,0,0,1-4.68,1.77,6.14,6.14,0,0,1,2.25-1.13A6.41,6.41,0,0,1,350.08,338.58Z"/><path class="cls-5" d="M359,334.08a6.35,6.35,0,0,1-2.06,1.43,6.22,6.22,0,0,1-2.31,1c-.07-.13.85-.77,2.06-1.43A6,6,0,0,1,359,334.08Z"/><path class="cls-5" d="M367.14,328.31c.1.11-.72.88-1.82,1.72s-2.06,1.43-2.15,1.31.74-.89,1.83-1.72A6.17,6.17,0,0,1,367.14,328.31Z"/><path class="cls-5" d="M372.73,323.15c.1.1-.23.59-.74,1.1s-1,.84-1.11.73.23-.59.74-1.1S372.62,323.05,372.73,323.15Z"/><path class="cls-5" d="M314.49,353.44c-.14,0-.26-23.27-.26-52s.12-52,.26-52,.27,23.26.27,52S314.64,353.44,314.49,353.44Z"/><path class="cls-5" d="M361.41,273.16c.1.1-10.31,11.15-23.25,24.68s-23.52,24.42-23.63,24.32,10.31-11.15,23.25-24.68S361.31,273.06,361.41,273.16Z"/><path class="cls-5" d="M358.57,272.84a11.36,11.36,0,0,1,2.11-.86c1.34-.5,3.24-1.16,5.46-1.91l.39-.14-.07.41c-.18,1.12-.37,2.33-.58,3.59-.18,1.08-.36,2.13-.52,3.12l-.05.26-.26-.06a13.67,13.67,0,0,1-5.5-2.75,10.26,10.26,0,0,1-1.28-1.25c-.28-.32-.4-.5-.38-.52s.65.62,1.86,1.52a14.58,14.58,0,0,0,5.42,2.51l-.31.21c.16-1,.33-2,.51-3.13.21-1.25.41-2.46.6-3.58l.33.28c-2.23.72-4.16,1.32-5.53,1.73A12.61,12.61,0,0,1,358.57,272.84Z"/><path class="cls-5" d="M373.33,282.62A54.81,54.81,0,0,1,377,276a56.35,56.35,0,0,1,4.09-6.39,55.82,55.82,0,0,1-3.64,6.66A55.54,55.54,0,0,1,373.33,282.62Z"/><path class="cls-5" d="M381.8,286.16a64.88,64.88,0,0,1-4.54-6.78,62.61,62.61,0,0,1-4.09-7.07,65.75,65.75,0,0,1,4.54,6.79A63,63,0,0,1,381.8,286.16Z"/><path class="cls-5" d="M388.79,283.36a19.44,19.44,0,0,0-3.59-5.61l.4-.08a10.2,10.2,0,0,0-.68,2.53,10.05,10.05,0,0,0,.3,4.08l-.45.08c-.09-1.55-.15-2.87-.18-3.79a5.89,5.89,0,0,1,0-1.46,6.18,6.18,0,0,1,.24,1.44c.1.92.23,2.23.36,3.78l.18,2.05-.63-2a9.92,9.92,0,0,1-.37-4.28,9.55,9.55,0,0,1,.74-2.66l.15-.34.25.27a13.51,13.51,0,0,1,2.7,4.11A5.17,5.17,0,0,1,388.79,283.36Z"/><path class="cls-5" d="M331.81,321.67s.27-.1.71-.34a3.72,3.72,0,0,0,1.42-1.49,4.9,4.9,0,0,0,.56-3,11.66,11.66,0,0,0-1.17-3.64l-.42-.88.45-.25a2.84,2.84,0,0,1-.74,3.56,2.43,2.43,0,0,1-1.6.51,2.76,2.76,0,0,1-1.34-.5,2.66,2.66,0,0,1-1.11-1.65,1.08,1.08,0,0,1,0-.72s0,.25.15.67a2.61,2.61,0,0,0,1.11,1.41,2.49,2.49,0,0,0,1.17.37,1.91,1.91,0,0,0,1.28-.46,2.38,2.38,0,0,0,.6-2.92l.46-.25c.13.29.28.58.42.89a11.23,11.23,0,0,1,1.18,3.82,5.14,5.14,0,0,1-.72,3.2,3.66,3.66,0,0,1-1.65,1.48C332.11,321.71,331.81,321.7,331.81,321.67Z"/><path class="cls-5" d="M352.2,283.58a8.36,8.36,0,0,1-1.53.21c-1,.1-2.42.22-4.19.34-3.53.24-8.43.45-13.84.46s-10.3-.17-13.84-.39c-1.77-.11-3.2-.21-4.19-.31a8.63,8.63,0,0,1-1.52-.2,7.61,7.61,0,0,1,1.54,0l4.19.15c3.53.12,8.42.24,13.82.23s10.29-.17,13.82-.31l4.19-.17A8.45,8.45,0,0,1,352.2,283.58Z"/><path class="cls-5" d="M324.64,274.19a6.79,6.79,0,0,1-5.26,0,345.85,345.85,0,0,0,5.26,0Z"/><path class="cls-5" d="M319.39,279.94s.2.16.51.48a5.77,5.77,0,0,0,1.46,1.12,2.63,2.63,0,0,0,2.5,0,2.33,2.33,0,0,0,1.19-2.63,2.2,2.2,0,0,0-2-1.73,2.32,2.32,0,0,0-2,1.05l-.15.25-.17-.21a2,2,0,0,1-.15-2.26c.3-.48.62-.58.63-.56s-.23.2-.43.66A1.78,1.78,0,0,0,321,278l-.32,0a2.7,2.7,0,0,1,2.41-1.35,2.66,2.66,0,0,1,2.5,2.09,2.69,2.69,0,0,1-.2,1.92,3,3,0,0,1-1.27,1.26,2.9,2.9,0,0,1-1.58.33,3.22,3.22,0,0,1-1.32-.43,4.91,4.91,0,0,1-1.43-1.31C319.47,280.19,319.36,280,319.39,279.94Z"/><path class="cls-5" d="M328.16,281.2a11.81,11.81,0,0,1,1.52-3.13,11.67,11.67,0,0,1,2-2.87,11.88,11.88,0,0,1-1.53,3.13A11.56,11.56,0,0,1,328.16,281.2Z"/><path class="cls-5" d="M332.64,282.69a9.21,9.21,0,0,1-3.09-2.59,9.34,9.34,0,0,1-2.16-3.41c.13-.08,1.1,1.42,2.55,3.07S332.73,282.57,332.64,282.69Z"/><path class="cls-5" d="M286.88,264.32a3.17,3.17,0,0,0,1.15.84,3.33,3.33,0,0,0,3.52-.9c1.16-1.18,1.67-3.2,1.87-5.38a31.51,31.51,0,0,0-.36-7.21c-.11-.75-.22-1.48-.32-2.18l.51-.06a13.21,13.21,0,0,1,0,3.44,4.56,4.56,0,0,1-1.55,2.83,2.89,2.89,0,0,1-2.84.59,3.71,3.71,0,0,1-1.92-1.62,6.67,6.67,0,0,1-.79-3.44,5.27,5.27,0,0,1,.09-1.27,9.07,9.07,0,0,1,.1,1.26,7,7,0,0,0,.89,3.27A3.47,3.47,0,0,0,289,255.9a2.46,2.46,0,0,0,2.41-.55,4.18,4.18,0,0,0,1.36-2.56,13.15,13.15,0,0,0,0-3.31l.51-.07c.1.7.22,1.44.33,2.19a30.6,30.6,0,0,1,.32,7.32c-.23,2.23-.79,4.34-2.09,5.6a3.62,3.62,0,0,1-2.1,1.06,3.31,3.31,0,0,1-1.76-.24,2.07,2.07,0,0,1-.88-.68C286.91,264.45,286.87,264.33,286.88,264.32Z"/><path class="cls-5" d="M304,263.14s-.22.33-.86.32a2.18,2.18,0,0,1-1.92-1.58,4.62,4.62,0,0,1-.17-1.76,17.53,17.53,0,0,0,.14-1.92,1.71,1.71,0,0,0-.26-.87,1.15,1.15,0,0,0-.72-.51c-.58-.11-1,.59-1.18,1.32a15.83,15.83,0,0,0-.36,5.3l-.45.05c-.15-1.81-.26-3.33-.32-4.4a7.55,7.55,0,0,1,0-1.68,7.88,7.88,0,0,1,.29,1.66c.14,1.06.31,2.57.5,4.37l-.45.05a14.87,14.87,0,0,1,.31-5.48,3.14,3.14,0,0,1,.52-1.17,1.32,1.32,0,0,1,1.25-.52,1.85,1.85,0,0,1,1.37,1.86,13.86,13.86,0,0,1-.19,2,4.72,4.72,0,0,0,.09,1.62,2,2,0,0,0,1.58,1.49A2.1,2.1,0,0,0,304,263.14Z"/><path class="cls-5" d="M410.27,108.27a1.63,1.63,0,0,1-.28.39,12.67,12.67,0,0,1-.94,1,14.78,14.78,0,0,1-4.15,2.74,7.7,7.7,0,0,1-3.41.69,3.86,3.86,0,0,1-3.35-2.12,7.38,7.38,0,0,1-.4-4.4,15.42,15.42,0,0,1,1.48-4.48A15.76,15.76,0,0,1,402,98.24a3.06,3.06,0,0,1,1-.74,1.17,1.17,0,0,1,1.27.29,1.73,1.73,0,0,1,.49,1.12,4.34,4.34,0,0,1-.09,1.1,12.82,12.82,0,0,1-3.3,6.58,12.69,12.69,0,0,1-4,2.9A10.63,10.63,0,0,1,396,110a1.64,1.64,0,0,1-.46.1s.61-.23,1.65-.74a13.31,13.31,0,0,0,3.85-3,12.67,12.67,0,0,0,3.1-6.41,2,2,0,0,0-.28-1.79.67.67,0,0,0-.74-.17,2.67,2.67,0,0,0-.77.63,15,15,0,0,0-4.1,8,6.92,6.92,0,0,0,.32,4.11,3.38,3.38,0,0,0,2.95,1.89,7.27,7.27,0,0,0,3.24-.59,15.87,15.87,0,0,0,4.16-2.55C409.8,108.73,410.24,108.24,410.27,108.27Z"/><path class="cls-5" d="M413.23,109.74a3.69,3.69,0,0,1-1,1.54,2.72,2.72,0,0,1-1.85.9,2.05,2.05,0,0,1-1.24-.34,1.91,1.91,0,0,1-.73-1.19,13.57,13.57,0,0,1,.23-4.4,4.68,4.68,0,0,1,.55-1.73,8.92,8.92,0,0,1-.19,1.78,18.67,18.67,0,0,0-.08,4.24,1.44,1.44,0,0,0,.51.88,1.57,1.57,0,0,0,.94.28A2.49,2.49,0,0,0,412,111C412.77,110.29,413.16,109.68,413.23,109.74Z"/><path class="cls-5" d="M409.82,99c-.05,0-.32-.37.05-.9a.92.92,0,0,1,1.05-.33,1.05,1.05,0,0,1,.69,1.16,1,1,0,0,1-1.12.77.85.85,0,0,1-.75-.81.81.81,0,0,1,.25-.66c.13-.12.23-.12.24-.09s-.23.28-.12.7a.45.45,0,0,0,.43.38.55.55,0,0,0,.56-.39.59.59,0,0,0-.35-.61.53.53,0,0,0-.6.12C409.83,98.59,409.89,98.93,409.82,99Z"/><path class="cls-5" d="M427.66,113.67a1.55,1.55,0,0,1-.23-.33c-.12-.22-.31-.56-.51-1a13.43,13.43,0,0,1-1.06-4c-.13-.87.1-2-.6-2.62a.87.87,0,0,0-1.2,0,5.41,5.41,0,0,0-1,1.29,15.26,15.26,0,0,0-2.43,7.18.26.26,0,0,1-.52,0,17.57,17.57,0,0,0-.34-2.91,16.92,16.92,0,0,0-.5-1.89,8,8,0,0,0-.73-1.72.93.93,0,0,0-1.3-.38,4,4,0,0,0-1.19,1.21,11.44,11.44,0,0,0-2.13,5.9.2.2,0,0,1-.21.19.21.21,0,0,1-.2-.21h0c.17-2.56.32-4.68.42-6.25l.15-1.71a2.49,2.49,0,0,1,.09-.6,2.47,2.47,0,0,1,0,.61c0,.46,0,1,0,1.71-.06,1.58-.14,3.7-.24,6.26l-.41,0a11.63,11.63,0,0,1,2.14-6.16,4.4,4.4,0,0,1,1.35-1.37,1.45,1.45,0,0,1,1.09-.15,1.62,1.62,0,0,1,.87.68,7.91,7.91,0,0,1,.8,1.85,17.47,17.47,0,0,1,.87,4.94h-.52a15.66,15.66,0,0,1,2.56-7.39,6.08,6.08,0,0,1,1.15-1.38,1.43,1.43,0,0,1,.88-.34,1.19,1.19,0,0,1,.87.34,2.16,2.16,0,0,1,.61,1.5c0,.5,0,1,.05,1.39a14.35,14.35,0,0,0,.9,4C427.44,113.17,427.69,113.65,427.66,113.67Z"/><path class="cls-5" d="M406.57,124.83a.71.71,0,0,1-.09.3,3.24,3.24,0,0,1-.47.78,1.27,1.27,0,0,1-1.35.51c-.65-.21-.93-.93-1.09-1.59a41.53,41.53,0,0,1-.89-4.75,3.62,3.62,0,0,0-.1-.63.66.66,0,0,0-.26-.41c-.06,0-.16,0-.28.19s-.22.41-.33.62a11.55,11.55,0,0,0-.89,2.83,33.14,33.14,0,0,0-.39,4.52.25.25,0,0,1-.26.24.24.24,0,0,1-.23-.2,71.48,71.48,0,0,1-1.19-7.51c-.09-.93-.15-1.68-.17-2.19a2.84,2.84,0,0,1,0-.79,26.68,26.68,0,0,1,.47,2.94c.27,1.86.69,4.46,1.36,7.45l-.49,0a30.29,30.29,0,0,1,.38-4.59,11.58,11.58,0,0,1,.94-3c.12-.23.23-.44.37-.67a1,1,0,0,1,.34-.33.59.59,0,0,1,.56,0,1.07,1.07,0,0,1,.53.72,4.11,4.11,0,0,1,.11.71,46.38,46.38,0,0,0,.77,4.73c.13.64.37,1.24.82,1.4a1.05,1.05,0,0,0,1.11-.38C406.36,125.22,406.52,124.81,406.57,124.83Z"/><path class="cls-5" d="M419.69,122.45a18.29,18.29,0,0,1-4.33.84,18.61,18.61,0,0,1-4.4.31,19.24,19.24,0,0,1,4.33-.83A19,19,0,0,1,419.69,122.45Z"/><path class="cls-5" d="M415.89,125.66a3.19,3.19,0,0,1,.84-1.21,9,9,0,0,1,2.94-2.12l0,.48-.58-.21a11.07,11.07,0,0,1-4.69-3.12,37,37,0,0,0,4.88,2.64l.56.21h0a.26.26,0,0,1,.15.33.29.29,0,0,1-.14.15A16,16,0,0,0,415.89,125.66Z"/><path class="cls-5" d="M434.13,119.52a.84.84,0,0,1,.25-.31,1.68,1.68,0,0,1,1.09-.38,2,2,0,0,1,1.66.75,2.5,2.5,0,0,1,.28,2.4,3.21,3.21,0,0,1-2.21,1.92,5.26,5.26,0,0,1-3.35-.23,10.43,10.43,0,0,1-3.1-2c-.93-.81-1.91-1.76-3.14-1.85a2.69,2.69,0,0,0-2.64,1.94,2.47,2.47,0,0,0,1.27,2.77,2.61,2.61,0,0,0,1.47.36,3.32,3.32,0,0,0,1.38-.52,16.41,16.41,0,0,0,2.14-1.81,21.85,21.85,0,0,0,2.63-3.14,12.69,12.69,0,0,1,.86-1.24s0,.13-.14.36-.3.57-.55,1a19.31,19.31,0,0,1-2.54,3.29,15.53,15.53,0,0,1-2.17,1.91,3.48,3.48,0,0,1-1.56.61A3,3,0,0,1,424,125a3.24,3.24,0,0,1-1.32-1.35,2.68,2.68,0,0,1-.2-2,3.19,3.19,0,0,1,3.16-2.33,3.94,3.94,0,0,1,1.95.75,17,17,0,0,1,1.5,1.23,10,10,0,0,0,2.93,1.93,4.92,4.92,0,0,0,3.07.26,2.84,2.84,0,0,0,2-1.63,2.22,2.22,0,0,0-.17-2.09,1.85,1.85,0,0,0-1.43-.73A1.88,1.88,0,0,0,434.13,119.52Z"/><path class="cls-5" d="M478.77,112.46c0,.15-8.25.26-18.42.26s-18.43-.11-18.43-.26,8.25-.26,18.43-.26S478.77,112.32,478.77,112.46Z"/><path class="cls-5" d="M448.57,107.46a17.34,17.34,0,0,1-1.39-2.82l-.65-1.45c-.24-.49-.43-1.2-.84-1.33-.19-.06-.39.06-.57.3a4.5,4.5,0,0,0-.46.85,19.41,19.41,0,0,0-.78,2,18,18,0,0,0-.55,2.06.26.26,0,0,1-.3.2.26.26,0,0,1-.2-.2c-.49-2.38-1.06-4.43-1.51-5.89a18.12,18.12,0,0,1-.67-2.35,9.8,9.8,0,0,1,1,2.24,45.56,45.56,0,0,1,1.69,5.89h-.5a18.34,18.34,0,0,1,1.37-4.16,5.5,5.5,0,0,1,.52-.94,1.05,1.05,0,0,1,1.11-.45,1.39,1.39,0,0,1,.76.79c.11.29.23.56.34.83.21.52.4,1,.59,1.47A19.68,19.68,0,0,1,448.57,107.46Z"/><path class="cls-5" d="M459.55,101.22a20.11,20.11,0,0,0-2.16.44,6.6,6.6,0,0,1-2.46.35,3.4,3.4,0,0,1-1.45-.5,2,2,0,0,1-.91-1.44c-.06-1.26.75-2.08,1-2.87a1.42,1.42,0,0,0-.41-1.87,1.46,1.46,0,0,0-1.36.32c-.31.21-.47.35-.5.32s.09-.2.38-.48a2.39,2.39,0,0,1,.6-.43,1.28,1.28,0,0,1,1-.07,1.81,1.81,0,0,1,.71,2.38c-.32.9-1,1.72-1,2.65s1.08,1.41,1.9,1.51a6.81,6.81,0,0,0,2.31-.22A3.84,3.84,0,0,1,459.55,101.22Z"/><path class="cls-5" d="M465.9,105.31a17.37,17.37,0,0,1-8.73.84c0-.15,2-.14,4.37-.38S465.87,105.17,465.9,105.31Z"/><path class="cls-5" d="M468.34,109.17a24.27,24.27,0,0,1,2.7-4.3,25.24,25.24,0,0,1,3.13-4,24.83,24.83,0,0,1-2.7,4.29A25,25,0,0,1,468.34,109.17Z"/><path class="cls-5" d="M476.91,108.41a16.64,16.64,0,0,1-5.27-3.48,16.91,16.91,0,0,1-4-4.89c.13-.1,1.78,2.19,4.35,4.5S477,108.27,476.91,108.41Z"/><path class="cls-5" d="M453.33,126.36a3.79,3.79,0,0,1,.87.2,8.66,8.66,0,0,0,2.37.32,3.64,3.64,0,0,0,2.94-1.44,2.43,2.43,0,0,0,.32-1.85,1.58,1.58,0,0,0-1.37-1.25A1.48,1.48,0,0,0,457,123l-.32-.36a6.1,6.1,0,0,0,1.62-.88,2,2,0,0,0,.76-1.35,1.25,1.25,0,0,0-.59-1.16,2.05,2.05,0,0,0-1.19-.33,4.06,4.06,0,0,0-1.78.6c-.4.23-.62.36-.64.33s.16-.2.54-.48a4,4,0,0,1,1.86-.79,2.46,2.46,0,0,1,1.43.33,1.7,1.7,0,0,1,.82,1.53,2.44,2.44,0,0,1-.89,1.69,6.49,6.49,0,0,1-1.74,1,.26.26,0,0,1-.34-.13.28.28,0,0,1,0-.22,2,2,0,0,1,2-.92,2.12,2.12,0,0,1,1.19.55,2.25,2.25,0,0,1,.62,1.1,2.91,2.91,0,0,1-.42,2.23,4,4,0,0,1-3.34,1.55,7.2,7.2,0,0,1-2.43-.5C453.6,126.55,453.32,126.4,453.33,126.36Z"/><path class="cls-5" d="M319.44,226.65s.09-.07.29-.15a3,3,0,0,1,.93-.22,4.49,4.49,0,0,1,3.24,1.23,4.54,4.54,0,0,1,1.28,2.1,5.27,5.27,0,0,1-.05,2.81,6.46,6.46,0,0,1-1.57,2.68,5.66,5.66,0,0,1-2.9,1.66,3.35,3.35,0,0,1-4.34-3.65,7.72,7.72,0,0,1,.72-2.7c.34-.79.67-1.51,1-2.17a5.08,5.08,0,0,1,2.42-2.47,2.68,2.68,0,0,1,.93-.23c.22,0,.34,0,.34,0a4.35,4.35,0,0,0-3.37,2.84c-.31.64-.62,1.38-.94,2.16a7.42,7.42,0,0,0-.64,2.56,2.88,2.88,0,0,0,3.76,3.12,5.79,5.79,0,0,0,4.11-4,4.81,4.81,0,0,0,.09-2.57,4.15,4.15,0,0,0-1.12-1.94,4.37,4.37,0,0,0-3-1.29A12.17,12.17,0,0,0,319.44,226.65Z"/><path class="cls-5" d="M337.59,236.59a10.09,10.09,0,0,1-2.08-1c-1.26-.67-3-1.63-4.9-2.73l-.25-.14.18-.24c.08-.12.18-.24.28-.37a38.2,38.2,0,0,1,4-4.41,9.27,9.27,0,0,1,1.9-1.57A15.38,15.38,0,0,1,335,228c-1,1.1-2.41,2.65-3.81,4.47l-.28.36-.08-.38c1.91,1.1,3.61,2.12,4.82,2.87A10.69,10.69,0,0,1,337.59,236.59Z"/><path class="cls-5" d="M346.26,231.73a16,16,0,0,1-9.58.43c0-.15,2.16.13,4.8,0S346.23,231.58,346.26,231.73Z"/><path class="cls-5" d="M345.44,236.94a8.53,8.53,0,0,1,1.56-2.07,21.36,21.36,0,0,1,4.92-4v.44l-.66-.38a25.29,25.29,0,0,0-6.27-2.5c-1.68-.43-2.76-.56-2.75-.64a9.34,9.34,0,0,1,2.83.28,22,22,0,0,1,6.44,2.4l.68.4.37.22-.38.22a26.38,26.38,0,0,0-4.93,3.82C346.12,236.23,345.5,237,345.44,236.94Z"/><path class="cls-5" d="M355.63,245.77a3.13,3.13,0,0,0,.93,1.58,3.39,3.39,0,0,0,1.93.84,4,4,0,0,0,2.65-.83,6.3,6.3,0,0,0,2.05-2.75,18,18,0,0,0,1-3.92,31.47,31.47,0,0,0-1.43-15.51l.47-.17a7.89,7.89,0,0,1,.45,3.76,4.47,4.47,0,0,1-1.79,3,3.23,3.23,0,0,1-3.06.45,4.2,4.2,0,0,1-2-1.76,7.52,7.52,0,0,1-.89-3.61q0-.66,0-1a1.6,1.6,0,0,1,0-.35,7.63,7.63,0,0,1,.14,1.33,7.77,7.77,0,0,0,1,3.45,3.87,3.87,0,0,0,1.87,1.58,2.83,2.83,0,0,0,2.67-.45,4,4,0,0,0,1.57-2.7,7.49,7.49,0,0,0-.45-3.52l.47-.17a30.73,30.73,0,0,1,1.56,6.3,31.61,31.61,0,0,1-.12,9.45,18.07,18.07,0,0,1-1.06,4,6.63,6.63,0,0,1-2.24,2.88,4.26,4.26,0,0,1-2.89.82,3.48,3.48,0,0,1-2-1,2.68,2.68,0,0,1-.74-1.23A1.31,1.31,0,0,1,355.63,245.77Z"/><path class="cls-5" d="M375.94,244.22a.26.26,0,0,1,.05.18.62.62,0,0,1-.27.49,1.08,1.08,0,0,1-.87.19,1.47,1.47,0,0,1-.86-.82c-.61-1.59-1.2-3.81-2-6.4l.45.07a14.22,14.22,0,0,0-2.31,7.94l-.48,0c-.32-2.39-.57-4.43-.74-5.88a12.23,12.23,0,0,1-.17-2.3,13.87,13.87,0,0,1,.47,2.26c.24,1.43.56,3.47.92,5.86l-.48,0a14.19,14.19,0,0,1,.71-4.83,14.41,14.41,0,0,1,1.66-3.41l.3-.45.15.52c.74,2.58,1.29,4.89,1.78,6.41a1.27,1.27,0,0,0,.65.71.88.88,0,0,0,.71-.09C376,244.52,375.89,244.21,375.94,244.22Z"/><path class="cls-5" d="M386.8,238.13a47.19,47.19,0,0,1-1.13-6.91,46.77,46.77,0,0,1-.6-7,48.71,48.71,0,0,1,1.12,6.92A47.5,47.5,0,0,1,386.8,238.13Z"/><path class="cls-5" d="M392.51,231.81a20.12,20.12,0,0,1-5.28,1,19.85,19.85,0,0,1-5.37,0,46.14,46.14,0,0,1,5.32-.55A44.25,44.25,0,0,1,392.51,231.81Z"/><path class="cls-5" d="M396.75,236.44a33.91,33.91,0,0,1-1.22-5.79,34.64,34.64,0,0,1-.71-5.88,32.53,32.53,0,0,1,1.22,5.79A34.54,34.54,0,0,1,396.75,236.44Z"/><path class="cls-5" d="M396.89,238.35c0-.09,1.13-.59,2.85-1.65a8.82,8.82,0,0,0,2.57-2.34,4.86,4.86,0,0,0,.87-4,5.34,5.34,0,0,0-2.57-3.17,7.3,7.3,0,0,0-3.33-.86,24.25,24.25,0,0,0-3.26.27s.28-.16.84-.31a9.54,9.54,0,0,1,2.42-.33,7.4,7.4,0,0,1,3.56.81,5.69,5.69,0,0,1,2.84,3.46,5.2,5.2,0,0,1-1,4.35,8.91,8.91,0,0,1-2.76,2.39,19,19,0,0,1-2.2,1A3.18,3.18,0,0,1,396.89,238.35Z"/><path class="cls-5" d="M432.81,219.35c-.12-.08,2.76-4.16,6.43-9.1s6.74-8.89,6.86-8.8-2.77,4.16-6.44,9.11S432.92,219.44,432.81,219.35Z"/><path class="cls-5" d="M447.09,221.11c-.11.09-3.41-4.07-7.37-9.28s-7.06-9.5-7-9.59,3.41,4.07,7.37,9.28S447.21,221,447.09,221.11Z"/><path class="cls-5" d="M454.93,216.19s-.09,0-.24-.08a1.28,1.28,0,0,1-.55-.48,4.49,4.49,0,0,1-.43-2.61,10.61,10.61,0,0,0-.07-1.76,2.1,2.1,0,0,0-.91-1.55c-1.11-.63-2.94.41-3.22,1.89-.34,1.64.43,3.23,1,4.56l-.41.23a9.85,9.85,0,0,1-1.43-5.07,8.55,8.55,0,0,1,.13-1.5,1.54,1.54,0,0,1,.15-.52c.07,0-.07.75,0,2a10.22,10.22,0,0,0,1.54,4.83l-.42.22a15.78,15.78,0,0,1-.91-2.22,5.33,5.33,0,0,1-.18-2.65,3.17,3.17,0,0,1,1.55-2.07,2.44,2.44,0,0,1,2.42-.12,2.51,2.51,0,0,1,1.1,1.9,11.23,11.23,0,0,1,0,1.83,4.68,4.68,0,0,0,.23,2.49C454.6,216,455,216.14,454.93,216.19Z"/><path class="cls-5" d="M508.77,211.91s.24-.32.87-.43a2.39,2.39,0,0,1,2.33,1l0,0v.08a1.76,1.76,0,0,1-.85,1.46,2.68,2.68,0,0,1-1.81.37,1.9,1.9,0,0,1-1.29-.78,1.67,1.67,0,0,1-.2-1.4,2.4,2.4,0,0,1,1.68-1.48,1.77,1.77,0,0,1,1.48.2c.3.21.36.41.35.42s-.16-.12-.45-.25a1.74,1.74,0,0,0-1.27,0,2.09,2.09,0,0,0-1.33,1.27,1.2,1.2,0,0,0,.17,1,1.34,1.34,0,0,0,.94.54,2.2,2.2,0,0,0,1.46-.27,1.31,1.31,0,0,0,.66-1l0,.12a2.17,2.17,0,0,0-1.92-1A8.72,8.72,0,0,0,508.77,211.91Z"/><path class="cls-5" d="M458,208.76s.13-.12.44-.12a1.61,1.61,0,0,1,1.1.56A1.86,1.86,0,0,1,460,211a1.53,1.53,0,0,1-.81.87,1.92,1.92,0,0,1-1.23.08,1.75,1.75,0,0,1-1.43-1.53v0h0a2,2,0,0,1,.76-1.34,2.09,2.09,0,0,1,1.1-.44c.68-.06,1,.24,1,.27a4,4,0,0,0-.93,0,1.83,1.83,0,0,0-1.43,1.53v0a1.31,1.31,0,0,0,1.07,1.07,1.2,1.2,0,0,0,1.47-.62,1.52,1.52,0,0,0-.28-1.4A1.85,1.85,0,0,0,458,208.76Z"/><path class="cls-5" d="M472.16,198.36a10.8,10.8,0,0,1,0,1.6c-.07,1.11-.17,2.57-.28,4.34s-.29,4-.47,6.43c-.05.6-.1,1.23-.15,1.86a2,2,0,0,1-.37,1,1,1,0,0,1-1.2.21,2.68,2.68,0,0,1-.82-.74l-.62-.81c-.41-.55-.81-1.12-1.21-1.7a41.1,41.1,0,0,1-3.88-7.28l.45-.11c.27,3.48.5,6.46.67,8.68l.15,2.48a4.63,4.63,0,0,1,0,.89,3.92,3.92,0,0,1-.16-.88c-.07-.65-.17-1.47-.28-2.46-.22-2.22-.52-5.19-.86-8.67l-.15-1.55.61,1.44a42.21,42.21,0,0,0,3.87,7.16c.39.58.79,1.14,1.2,1.69a5.42,5.42,0,0,0,1.25,1.4.47.47,0,0,0,.59-.08,1.52,1.52,0,0,0,.26-.76c.05-.63.11-1.24.16-1.84l.59-6.42.43-4.33A8.88,8.88,0,0,1,472.16,198.36Z"/><path class="cls-5" d="M488.62,207.41a44.54,44.54,0,0,1-6.63,1.74,45.24,45.24,0,0,1-6.74,1.23,44.54,44.54,0,0,1,6.63-1.74A45.24,45.24,0,0,1,488.62,207.41Z"/><path class="cls-5" d="M484.64,212.77a10.22,10.22,0,0,1,1.55-1.52c1-.91,2.44-2.15,4.08-3.55l.07.43-1.68-.68c-2.41-1-4.57-1.88-6.13-2.56a14.3,14.3,0,0,1-2.48-1.21,15.56,15.56,0,0,1,2.62.87c1.59.59,3.78,1.44,6.18,2.42l1.68.69.4.16-.33.27c-1.66,1.38-3.13,2.57-4.19,3.41A10.12,10.12,0,0,1,484.64,212.77Z"/><path class="cls-5" d="M507.93,216.23a7,7,0,0,1-.91-.67c-.58-.46-1.43-1.11-2.55-1.89a47.11,47.11,0,0,0-9.84-5.27l-.78-.31.83-.14a17.55,17.55,0,0,0,5.32-1.49,5.49,5.49,0,0,0,3.19-4.6,3.3,3.3,0,0,0-3.23-3.25,2.73,2.73,0,0,0-2,1.22,6.11,6.11,0,0,0-.82,2.25,21.52,21.52,0,0,0-.1,4.59c.05,1.44.1,2.8.14,4,.07,2.42.13,4.4.17,5.86,0,.64,0,1.17,0,1.59a2,2,0,0,1,0,.56,2.47,2.47,0,0,1-.08-.55c0-.42-.06-.95-.11-1.59-.08-1.46-.2-3.44-.33-5.85-.07-1.25-.13-2.6-.21-4a21.69,21.69,0,0,1,.06-4.68,6.15,6.15,0,0,1,.88-2.44,3.24,3.24,0,0,1,2.34-1.46,3.31,3.31,0,0,1,2.63,1.07,4,4,0,0,1,1.16,2.69,5,5,0,0,1-1.08,3.06,7.12,7.12,0,0,1-2.39,2,17.65,17.65,0,0,1-5.48,1.5l0-.45a44,44,0,0,1,9.83,5.48c1.1.82,1.93,1.51,2.49,2A5.3,5.3,0,0,1,507.93,216.23Z"/><g class="cls-3"><path class="cls-4" d="M496.92,271.61c-8.74.6-15.56,9.36-15.55,18.13a20.78,20.78,0,0,0,12.54,18.83,20,20,0,0,0,21.93-5c5.3-6,7.44-16.48,3.17-23.24s-14.53-11.34-22.09-8.71"/></g><path class="cls-6" d="M562.12,13.82a21.47,21.47,0,0,1-2.41,2.43c-1.54,1.44-3.7,3.41-6.14,5.52s-4.69,4-6.36,5.25c-.85.64-1.53,1.16-2,1.48s-.77.51-.8.48A26.25,26.25,0,0,1,547,26.74c1.61-1.36,3.82-3.26,6.25-5.37l6.23-5.4A22.31,22.31,0,0,1,562.12,13.82Z"/><path class="cls-6" d="M562.12,376.78c-.1.1-4.19-3.81-9.14-8.73s-8.87-9-8.76-9.09,4.19,3.8,9.13,8.72S562.22,376.67,562.12,376.78Z"/><path class="cls-6" d="M125.7,29c-.1.1-4-3.53-8.83-8.11s-8.57-8.39-8.47-8.49,4.06,3.53,8.83,8.11S125.8,28.87,125.7,29Z"/><path class="cls-4" d="M522.38,28.83c0,.14-88,.26-196.59.26S129.17,29,129.17,28.83s88-.26,196.62-.26S522.38,28.68,522.38,28.83Z"/><path class="cls-4" d="M545.82,346.3c-.15,0-.26-65.92-.26-147.22s.11-147.24.26-147.24.26,65.91.26,147.24S546,346.3,545.82,346.3Z"/><path class="cls-7" d="M258.19,174.86l-14.75,8a9,9,0,0,0-2.64,1.87,3.06,3.06,0,0,0-.73,3,3.09,3.09,0,0,0,3,1.74,9.17,9.17,0,0,0,3.51-1l18.19-8.13a12.62,12.62,0,0,0,4.23-2.61,4.34,4.34,0,0,0,1.08-4.58,3.49,3.49,0,0,0-4.15-1.93,56.24,56.24,0,0,0-7.72,3.69"/><path class="cls-8" d="M258.19,174.86a4.14,4.14,0,0,1,.64-.41c.42-.25,1.06-.61,1.88-1s1.85-1,3.06-1.55a15.52,15.52,0,0,1,2-.81,3.85,3.85,0,0,1,2.46.07,3.64,3.64,0,0,1,2,1.84,3.85,3.85,0,0,1,.11,2.93,5.74,5.74,0,0,1-1.81,2.56,13.59,13.59,0,0,1-2.83,1.69L252.53,186l-6.83,3a6,6,0,0,1-3.61.52,3.48,3.48,0,0,1-1.62-.85,2.54,2.54,0,0,1-.78-1.64,3.78,3.78,0,0,1,1.4-3,14.08,14.08,0,0,1,2.63-1.64l4.84-2.58,7-3.69,1.93-1a4.6,4.6,0,0,1,.68-.31,3.46,3.46,0,0,1-.63.41c-.48.26-1.1.62-1.88,1.06l-7,3.85-4.81,2.63a13.13,13.13,0,0,0-2.52,1.61,3.28,3.28,0,0,0-1.23,2.64,2.43,2.43,0,0,0,2,2.05,5.56,5.56,0,0,0,3.31-.51l6.81-3,13.16-5.87a12.57,12.57,0,0,0,2.73-1.6,5.26,5.26,0,0,0,1.7-2.35,3.43,3.43,0,0,0-.06-2.62,3.29,3.29,0,0,0-1.76-1.67c-1.54-.62-3,.17-4.2.67s-2.24,1-3.08,1.46l-1.93,1A3.42,3.42,0,0,1,258.19,174.86Z"/><path class="cls-9" d="M74.45,115.27l-1,78.08c-.16,13.27,2.31,32.81,23.31,32.12h0c18.18-2,23-19.19,23.15-31.58.06-5.88.13-10.78.18-11.39,0,0,19.9-1.62,21.58-21.27.81-9.5.89-29.2.75-47a36.73,36.73,0,0,0-34.08-36.34l-1.9-.14C85.92,77.42,74.18,94.71,74.45,115.27Z"/><path class="cls-10" d="M120.12,182.5s-12.46-.17-25.06-9.44c0,0,5.19,14.83,25,14.49Z"/><path class="cls-8" d="M108.85,122.26c-.39.4-2.66-1.43-6-1.52s-5.75,1.53-6.09,1.11c-.17-.19.23-.92,1.31-1.67a8.22,8.22,0,0,1,4.89-1.39,7.9,7.9,0,0,1,4.73,1.72C108.72,121.33,109,122.08,108.85,122.26Z"/><path class="cls-8" d="M108.75,129.07a2.67,2.67,0,0,1-2.76,2.5,2.54,2.54,0,0,1-2.56-2.6,2.66,2.66,0,0,1,2.75-2.5A2.56,2.56,0,0,1,108.75,129.07Z"/><path class="cls-8" d="M117.1,145.17c0-.18,1.9-.36,5-.53.78,0,1.52-.12,1.69-.64a4,4,0,0,0-.35-2.33c-.59-1.92-1.2-3.93-1.85-6-2.56-8.6-4.35-15.65-4-15.75s2.71,6.79,5.27,15.39c.61,2.12,1.2,4.14,1.75,6.07a4.46,4.46,0,0,1,.18,3.06,2,2,0,0,1-1.35,1,5.25,5.25,0,0,1-1.33.08C119,145.46,117.1,145.34,117.1,145.17Z"/><path class="cls-8" d="M107.45,109.88c-.32.73-3,.18-6.11.34s-5.76.86-6.12.16c-.16-.34.33-1,1.4-1.66a10,10,0,0,1,4.62-1.3,9.85,9.85,0,0,1,4.7.92C107.05,108.9,107.59,109.53,107.45,109.88Z"/><path class="cls-8" d="M138.72,116c-.34.6-2.91-.06-6-.16s-5.7.3-6-.32c-.15-.3.36-.83,1.45-1.3a10.82,10.82,0,0,1,4.61-.77,11.32,11.32,0,0,1,4.58,1.13C138.38,115.12,138.87,115.7,138.72,116Z"/><path class="cls-9" d="M75,130c-.32-.17-13.22-5-13.77,8.5s13.09,11.25,13.13,10.87S75,130,75,130Z"/><path class="cls-11" d="M70.44,144s-.24.15-.64.32a2.33,2.33,0,0,1-1.76,0c-1.4-.58-2.51-2.89-2.47-5.32a7.75,7.75,0,0,1,.79-3.34,2.74,2.74,0,0,1,1.84-1.73,1.2,1.2,0,0,1,1.36.71c.17.38.07.64.14.67s.3-.21.21-.77a1.5,1.5,0,0,0-.49-.87,1.8,1.8,0,0,0-1.29-.4,3.31,3.31,0,0,0-2.54,2,8,8,0,0,0-1,3.73c0,2.72,1.27,5.32,3.19,6a2.5,2.5,0,0,0,2.16-.27C70.41,144.36,70.49,144.07,70.44,144Z"/><path class="cls-8" d="M113.92,154.5c.14-.34-2.5-1.13-4.35-3.61a15,15,0,0,1-1.87-3.52c-.39-1-.69-1.59-.84-1.55s-.1.71.12,1.77a9.87,9.87,0,0,0,1.73,3.95,8.1,8.1,0,0,0,3.44,2.63C113.18,154.59,113.88,154.62,113.92,154.5Z"/><path class="cls-8" d="M168.55,96.56a3.2,3.2,0,0,0-1.49-1.86c-1.54-.91-3.31-.79-5-.81a28.45,28.45,0,0,1-14.78-4.5,66,66,0,0,0-6.88-8.33c-6-6.15-10.86-10.33-15.93-12.37-6.56-2.64-17.53-3.71-24.37-1.91s-13,7.34-13.93,14.34c-3.83-3.24-9.59-3.21-14.26-1.33l-.12-.05c-5.2,1.85-8.16,7.35-9.69,12.65s-2.19,11-5,15.73c-.59,1-1.29,2.19-.77,3.23a2.18,2.18,0,0,0,2.29,1,6.44,6.44,0,0,0,2.43-1.1l-1.74,4.17a12.28,12.28,0,0,0,5.65-.38,123.17,123.17,0,0,0,3.7,14c2.18,0,4.17.15,5.51,1.35,1.82,1.64,2.64,4.72,5.67,3.55,1.54-.59,2.94-3.82,3.46-5.39a76.73,76.73,0,0,0,3.32-32.48,24.76,24.76,0,0,1,7.61-5.49l-.23.21c5.49-1.91,11.71-3.79,16.92-1.21,4,2,6.42,6.2,9.44,9.55a30.9,30.9,0,0,0,22,10.16c.29,5.53-.18,13.35.11,18.89l4.66-8.87v0c.38-.65.7-1.31,1-2l.11-.2v0a32.85,32.85,0,0,1,1.56-3.15l0,0c3,2.65,7.42-1.4,5.05-4.62a7.83,7.83,0,0,0-1.67-1.68,5.49,5.49,0,0,0,5.21,1.35,4.3,4.3,0,0,0,3-4.25,3.66,3.66,0,0,0-2.18-2.92,12.33,12.33,0,0,0,7-1.55C167.67,99.6,169,98.3,168.55,96.56Z"/><path class="cls-6" d="M92.33,83.38a17,17,0,0,0-2,1.81,14,14,0,0,0-3,6.52,24.9,24.9,0,0,0-.5,5c0,1.81.14,3.75.27,5.79a50.6,50.6,0,0,1,.15,6.45,22.3,22.3,0,0,1-.44,3.4,7.06,7.06,0,0,1-1.39,3.3,3,3,0,0,1-2.77.94,4.41,4.41,0,0,1-2.5-1.42,10.16,10.16,0,0,1-1.9-5l.42,0a16.55,16.55,0,0,1-2.4,4.11,5.84,5.84,0,0,1-3.82,2.09,3.78,3.78,0,0,1-2-.36,3.19,3.19,0,0,1-1.37-1.35,3.35,3.35,0,0,1-.42-1.75,2.45,2.45,0,0,1,.63-1.53l.21.19a12.75,12.75,0,0,1-4.23,3.17,11,11,0,0,1-1.3.51,1.59,1.59,0,0,1-.47.11,2.58,2.58,0,0,1,.44-.19c.29-.12.73-.29,1.27-.57a13.24,13.24,0,0,0,4.08-3.21l.2.18a2.54,2.54,0,0,0-.13,2.93,3,3,0,0,0,1.25,1.2,3.53,3.53,0,0,0,1.84.3,5.51,5.51,0,0,0,3.55-2,16.75,16.75,0,0,0,2.3-4l.28-.64.13.69a9.86,9.86,0,0,0,1.81,4.77,4,4,0,0,0,2.23,1.26,2.48,2.48,0,0,0,2.36-.79,6.66,6.66,0,0,0,1.28-3.08,22.65,22.65,0,0,0,.44-3.34,51.81,51.81,0,0,0-.12-6.39c-.13-2-.26-4-.23-5.82A24.66,24.66,0,0,1,87,91.64a13.94,13.94,0,0,1,3.21-6.57A8.11,8.11,0,0,1,92.33,83.38Z"/><path class="cls-6" d="M153.16,102.51l-.16.14c-.13.09-.3.21-.49.36a7.41,7.41,0,0,1-.84.53,11.58,11.58,0,0,1-1.19.63,17.4,17.4,0,0,1-8.42,1.51,22.25,22.25,0,0,1-11.86-4.38A38.48,38.48,0,0,1,120,89.55c-1.43-2.38-2.59-4.82-3.88-7.07a26.4,26.4,0,0,0-4.39-6,13.48,13.48,0,0,0-5.67-3.44,9.36,9.36,0,0,0-3-.34,10.41,10.41,0,0,0-2.73.52A11.39,11.39,0,0,0,94,78.58a13.68,13.68,0,0,0-1,3s0-.07,0-.21.06-.36.09-.6a10.24,10.24,0,0,1,.75-2.22,11.19,11.19,0,0,1,2.2-3,11.49,11.49,0,0,1,4.17-2.58,11,11,0,0,1,2.83-.58,10.06,10.06,0,0,1,3.1.33A13.72,13.72,0,0,1,112,76.19a25.93,25.93,0,0,1,4.49,6.06c1.3,2.27,2.47,4.71,3.89,7.07a38.51,38.51,0,0,0,10,11.64,22.19,22.19,0,0,0,11.64,4.4A17.82,17.82,0,0,0,150.4,104,25.41,25.41,0,0,0,153.16,102.51Z"/><path class="cls-6" d="M155,93.87a3.3,3.3,0,0,1-.71.49,15.14,15.14,0,0,1-2.09,1.06,19.92,19.92,0,0,1-3.3,1.09,23.52,23.52,0,0,1-4.23.56,23,23,0,0,1-4.26-.29,20.76,20.76,0,0,1-3.37-.87,16.46,16.46,0,0,1-2.15-.92c-.49-.26-.75-.42-.73-.45s1.12.48,3,1.06a22.39,22.39,0,0,0,3.33.76,25.07,25.07,0,0,0,4.17.25,24.65,24.65,0,0,0,4.15-.51,23.27,23.27,0,0,0,3.28-1C153.85,94.43,154.9,93.8,155,93.87Z"/><path class="cls-8" d="M138.87,123.5c-.39.4-2.66-1.43-6-1.52s-5.76,1.53-6.1,1.11c-.17-.19.23-.92,1.31-1.67A8.24,8.24,0,0,1,133,120a7.9,7.9,0,0,1,4.73,1.72C138.74,122.57,139.06,123.32,138.87,123.5Z"/><path class="cls-8" d="M138.33,130a2.66,2.66,0,0,1-2.76,2.49,2.54,2.54,0,0,1-2.56-2.59,2.66,2.66,0,0,1,2.75-2.5A2.56,2.56,0,0,1,138.33,130Z"/><path class="cls-9" d="M229.07,254.33l-1.12-.2,22.92-40.06-3.63-11.55s-4.2-16.45-.7-20.65c0,0,7.66-9,10.14-8.88s4.47.62,5,2.48c0,0,4.22-.49,5.34.87a22.22,22.22,0,0,1,2,3s4.6-.37,5.84,3.6c0,0,4.34,2.24,4.71,5.46s-.86,18.25-2.23,22.1-6.46,11.92-8,23.84-6.8,27.48-11.47,44.9l-12.61-2.81Z"/><path class="cls-12" d="M23.23,236.24S9.19,316,9.86,323.47s4.42,19.32,12.89,21.36a37.36,37.36,0,0,0,16.27,0l-10.17-98Z"/><path class="cls-12" d="M64.35,195.1s-16.81,12-20.52,15.46c-15.54,14.7-18.79,20.71-20.6,25.68S34,356.7,34,356.7l2.55,20.18,1.84,17.45,116.13-.59a69.16,69.16,0,0,1-.85-11.29l.85-108.36-17.72-72.55-10.91-3.1-2.2-8.65s-13.55-10-35.9-10.29c-6.88-.09-16.6,2.61-22,6.83h0Z"/><path class="cls-12" d="M123.62,201.84s13.15-.71,14.9.25a189.91,189.91,0,0,1,27.21,17.74c12.26,9.81,47.2,32.27,47.2,32.27s4.85-4.67,9.35.64l10.09-8.08s25.95,9.84,30,29.46c0,0,1.43,7.8-6.74,12.11,0,0-21.7,19.41-39.26,17.53-18.54-2-60.05-21.4-62.13-22.21l-28.61-12.67s-17.57-33.52-9.81-50.28Z"/><path class="cls-8" d="M222,270.16a9,9,0,0,1-.87-2.52,25.46,25.46,0,0,1,.19-12.78,9.34,9.34,0,0,1,.94-2.5,25.61,25.61,0,0,1-.59,2.59,32.33,32.33,0,0,0-.74,6.3,31.14,31.14,0,0,0,.56,6.31A23.5,23.5,0,0,1,222,270.16Z"/><path class="cls-8" d="M125.91,198.44a2.76,2.76,0,0,1-.62-.13l-1.75-.46c-1.52-.39-3.74-.92-6.5-1.44a181,181,0,0,0-21.77-2.68,148.74,148.74,0,0,0-21.93.06c-2.79.24-5,.59-6.59.87L65,195a2.45,2.45,0,0,1-.63.09,2.89,2.89,0,0,1,.6-.19l1.76-.45a57.21,57.21,0,0,1,6.6-1,133.22,133.22,0,0,1,22-.22,160,160,0,0,1,21.82,2.84c2.76.57,5,1.16,6.47,1.61l1.73.55A2.65,2.65,0,0,1,125.91,198.44Z"/><path class="cls-8" d="M80,192.44a19.59,19.59,0,0,1-.88-4.41,19.82,19.82,0,0,1-.36-4.48A18.8,18.8,0,0,1,79.6,188,19.8,19.8,0,0,1,80,192.44Z"/><path class="cls-8" d="M84.36,192.06a10.51,10.51,0,0,1-1-4.41,10.37,10.37,0,0,1,.42-4.52c.15,0-.08,2,.1,4.48S84.51,192,84.36,192.06Z"/><path class="cls-8" d="M189.26,296a3.5,3.5,0,0,1-.61-.16l-1.7-.54c-1.48-.5-3.59-1.27-6.18-2.28-5.18-2-12.25-5-20-8.39S146,278,141,275.68l-6-2.8-1.6-.78a2.63,2.63,0,0,1-.55-.31,3.77,3.77,0,0,1,.59.21l1.65.7,6,2.64L161,284.1c7.76,3.4,14.81,6.43,19.95,8.53,2.57,1.05,4.66,1.87,6.1,2.43l1.68.63A2.57,2.57,0,0,1,189.26,296Z"/><g class="cls-13"><path d="M64.74,195c18.46,3.27,37.18,0,56.71,2.34-18.86-3.9-38.51-5.75-56.71-2.34"/></g><g class="cls-13"><path class="cls-4" d="M153.72,378.22a.88.88,0,0,1-.3,0l-.88.06-3.41.16L136.6,379,95.27,380.3c-16.15.56-30.76,1.24-41.32,1.87l-12.51.77-3.41.21-.88,0h-.31l.3-.05.89-.09,3.39-.31c2.95-.26,7.22-.58,12.5-.94,10.57-.72,25.18-1.46,41.33-2s30.76-.91,41.34-1.19l12.54-.31,3.4-.07h1.19Z"/></g><path class="cls-4" d="M153.72,354.08a8.88,8.88,0,0,1-1.2.12l-3.47.21-12.77.69-42.14,2L52,359l-12.78.52-3.48.11h-.9a1.5,1.5,0,0,1-.31,0l.31,0,.9-.07,3.47-.21L52,358.66l42.15-2,42.15-1.89,12.78-.52,3.48-.12.9,0A1.22,1.22,0,0,1,153.72,354.08Z"/><g class="cls-13"><path class="cls-4" d="M153.72,331.74c0,.14-27.29,1.8-61,3.71s-61,3.34-61,3.19,27.29-1.8,61-3.71S153.72,331.59,153.72,331.74Z"/></g><path class="cls-4" d="M153,302.8c0,.14-27.68,3.16-61.84,6.75s-61.88,6.38-61.9,6.23,27.67-3.16,61.85-6.75S153,302.66,153,302.8Z"/><g class="cls-13"><path class="cls-4" d="M145.39,278.08c0,.15-26.46,3.66-59.14,7.85s-59.19,7.48-59.2,7.33,26.45-3.65,59.14-7.85S145.37,277.94,145.39,278.08Z"/></g><path class="cls-4" d="M114.88,258c0,.14-19.72,3.73-44.1,8s-44.17,7.64-44.2,7.5,19.72-3.73,44.11-8S114.86,257.88,114.88,258Z"/><g class="cls-13"><path class="cls-4" d="M107.29,240.44c0,.14-18.63,3.33-41.66,7.12s-41.73,6.75-41.76,6.61,18.63-3.33,41.67-7.12S107.27,240.3,107.29,240.44Z"/></g><path class="cls-4" d="M105.94,217.74a5,5,0,0,1-.83.22l-2.42.5-8.89,1.82c-7.51,1.55-17.86,3.78-29.24,6.47s-21.64,5.36-29,7.34l-8.76,2.37-2.39.63a5.37,5.37,0,0,1-.84.19,4.23,4.23,0,0,1,.81-.29l2.36-.72c2.05-.63,5-1.49,8.72-2.53,7.39-2.08,17.63-4.79,29-7.5s21.76-4.86,29.28-6.32c3.77-.73,6.82-1.29,8.93-1.66l2.44-.41A6.76,6.76,0,0,1,105.94,217.74Z"/><g class="cls-13"><path class="cls-4" d="M116.16,202a4.27,4.27,0,0,1-.74.08l-2.15.11c-1.86.08-4.56.23-7.89.43-6.65.41-15.83,1.17-25.93,2.44s-19.18,2.84-25.73,4.1c-3.27.63-5.92,1.16-7.74,1.55l-2.11.42a3.62,3.62,0,0,1-.74.11,5,5,0,0,1,.72-.21l2.09-.52c1.81-.45,4.44-1,7.71-1.71,6.54-1.36,15.63-3,25.74-4.25s19.31-2,26-2.29c3.34-.16,6-.25,7.9-.27l2.15,0A3.63,3.63,0,0,1,116.16,202Z"/></g><path class="cls-4" d="M137.17,202.49a3.64,3.64,0,0,1-.31.61c-.25.44-.57,1-1,1.7s-.95,1.63-1.49,2.71-1.24,2.27-1.84,3.66c-.32.7-.66,1.42-1,2.17s-.64,1.56-1,2.39c-.71,1.64-1.31,3.45-2,5.34a95.27,95.27,0,0,0-3.13,12.66,93.75,93.75,0,0,0-1.18,13c0,2,0,3.91.12,5.7,0,.89.07,1.75.15,2.57s.16,1.62.24,2.38c.12,1.51.37,2.86.54,4.06s.36,2.22.53,3.05.27,1.43.37,1.93a3.69,3.69,0,0,1,.09.68,4.22,4.22,0,0,1-.2-.66c-.11-.49-.27-1.12-.46-1.91s-.43-1.84-.62-3-.47-2.55-.62-4.07c-.08-.76-.18-1.55-.27-2.38s-.12-1.7-.18-2.59c-.16-1.79-.14-3.71-.17-5.73a83.26,83.26,0,0,1,4.34-25.8c.68-1.9,1.3-3.72,2-5.36.35-.82.66-1.63,1-2.39l1-2.16c.64-1.38,1.34-2.57,1.92-3.64s1.11-2,1.58-2.67l1.06-1.66A3.14,3.14,0,0,1,137.17,202.49Z"/><g class="cls-13"><path class="cls-4" d="M155.13,212.78a2.49,2.49,0,0,1-.23.61c-.2.43-.45,1-.76,1.69s-.75,1.63-1.19,2.68-1,2.24-1.5,3.58c-1.08,2.66-2.26,5.88-3.44,9.49s-2.29,7.65-3.26,11.93-1.66,8.4-2.18,12.17-.81,7.18-1,10.05c-.12,1.43-.14,2.73-.19,3.88s-.07,2.12-.08,2.93,0,1.37,0,1.85a3.39,3.39,0,0,1-.05.65,2.74,2.74,0,0,1-.06-.65c0-.48,0-1.09-.05-1.85s0-1.8,0-2.94,0-2.45.11-3.89c.11-2.88.39-6.31.86-10.1s1.18-7.92,2.14-12.22,2.13-8.33,3.31-11.95,2.43-6.84,3.56-9.49c.54-1.34,1.11-2.51,1.58-3.56s.9-1.93,1.27-2.65.63-1.22.84-1.65A2.86,2.86,0,0,1,155.13,212.78Z"/></g><path class="cls-4" d="M157.67,282.83c-.14,0,2.07-13.68,4.93-30.5s5.29-30.44,5.44-30.41-2.07,13.67-4.93,30.5S157.82,282.85,157.67,282.83Z"/><g class="cls-13"><path class="cls-4" d="M173.45,289.38a3.68,3.68,0,0,1,.12-.57c.12-.41.27-.94.45-1.58.4-1.38,1-3.37,1.64-5.84,1.35-4.94,3.06-11.8,4.52-19.47s2.4-14.69,3-19.77c.28-2.55.48-4.61.61-6,.07-.66.13-1.2.17-1.64a2.51,2.51,0,0,1,.1-.57,2.34,2.34,0,0,1,0,.58c0,.44-.05,1-.07,1.65-.07,1.43-.22,3.5-.46,6.05-.46,5.11-1.35,12.14-2.81,19.84s-3.23,14.55-4.67,19.47c-.72,2.46-1.34,4.44-1.81,5.8-.22.63-.39,1.15-.54,1.56A2.05,2.05,0,0,1,173.45,289.38Z"/></g><path class="cls-4" d="M194.1,297.86a2.44,2.44,0,0,1,0-.56c0-.42,0-.95,0-1.59,0-1.39,0-3.39.08-5.86.14-5,.51-11.79,1.29-19.31s1.82-14.29,2.71-19.16c.44-2.44.83-4.4,1.12-5.75l.35-1.56a2.55,2.55,0,0,1,.16-.54,2,2,0,0,1-.06.56c-.06.42-.15.94-.25,1.57l-1,5.78c-.79,4.88-1.77,11.65-2.55,19.15s-1.21,14.33-1.44,19.27c-.1,2.42-.18,4.4-.25,5.85,0,.65,0,1.17-.07,1.59A2.05,2.05,0,0,1,194.1,297.86Z"/><g class="cls-13"><path class="cls-4" d="M213.23,303a1.76,1.76,0,0,1-.27-.46l-.68-1.36a23.34,23.34,0,0,1-1-2.2c-.36-.87-.8-1.84-1.17-3s-.84-2.34-1.21-3.68-.74-2.78-1.11-4.3a71.91,71.91,0,0,1-1.42-10.09,70.86,70.86,0,0,1,.16-10.18c.17-1.56.31-3,.57-4.41s.48-2.65.74-3.8.54-2.19.79-3.09.49-1.68.71-2.31l.5-1.43a3,3,0,0,1,.21-.49,1.9,1.9,0,0,1-.11.52c-.11.39-.24.87-.41,1.46s-.41,1.41-.62,2.32-.51,1.94-.71,3.1-.49,2.41-.67,3.79-.36,2.84-.53,4.38a74.85,74.85,0,0,0-.11,10.11,76,76,0,0,0,1.37,10c.35,1.51.66,3,1.06,4.28s.76,2.56,1.13,3.68.77,2.11,1.1,3,.63,1.62.9,2.23l.59,1.4A2.72,2.72,0,0,1,213.23,303Z"/></g><path class="cls-4" d="M231,301.43a3,3,0,0,1-.37-.42c-.25-.33-.57-.75-1-1.25l-.69-.92-.75-1.13c-.55-.81-1.17-1.74-1.78-2.81l-1-1.67c-.31-.6-.63-1.22-1-1.86-.69-1.27-1.29-2.7-2-4.18a79.41,79.41,0,0,1-3.48-10,75.25,75.25,0,0,1-1.93-10.42c-.11-1.63-.3-3.17-.29-4.62,0-.72,0-1.42,0-2.1s.06-1.31.08-1.93c0-1.24.16-2.34.27-3.32.06-.48.11-.93.16-1.35s.14-.78.2-1.13c.13-.63.23-1.14.31-1.55a3.49,3.49,0,0,1,.14-.54,2,2,0,0,1,0,.56c-.06.41-.13.93-.22,1.56,0,.35-.1.72-.16,1.13s-.07.87-.11,1.35c-.08,1-.19,2.08-.19,3.3,0,.62,0,1.26-.05,1.92s.05,1.37.07,2.09c0,1.44.21,3,.34,4.58a77.9,77.9,0,0,0,2,10.34A84.89,84.89,0,0,0,223,287c.67,1.48,1.25,2.91,1.93,4.18.32.64.63,1.26.94,1.86s.64,1.14.94,1.67c.58,1.08,1.18,2,1.7,2.84l.72,1.15.65.94.89,1.31A2.25,2.25,0,0,1,231,301.43Z"/><g class="cls-13"><path class="cls-4" d="M243,292.94a13.57,13.57,0,0,1-.6-1.64c-.39-1.13-.91-2.64-1.53-4.47-1.32-3.77-3.27-8.94-5.73-14.51s-5-10.49-6.88-14L226,254.17a11.82,11.82,0,0,1-.8-1.55,10.14,10.14,0,0,1,1,1.44c.6.95,1.43,2.34,2.42,4.07,2,3.48,4.56,8.39,7,14s4.36,10.79,5.59,14.6c.62,1.9,1.09,3.45,1.38,4.54A9.67,9.67,0,0,1,243,292.94Z"/></g><g class="cls-13"><path class="cls-4" d="M123.67,197.06c-.07,0-.34-.82-1.23-2.09a13.17,13.17,0,0,0-5.11-4c-5-2.45-12.92-3-21.41-3.29a125.12,125.12,0,0,0-21.78,1.46c-2.76.42-5,.86-6.52,1.16l-1.77.36a2.45,2.45,0,0,1-.63.09,4.55,4.55,0,0,1,.6-.19l1.75-.45c1.53-.37,3.75-.86,6.51-1.33A116.47,116.47,0,0,1,108,188a30.82,30.82,0,0,1,9.51,2.61,13,13,0,0,1,5.12,4.23,10,10,0,0,1,.85,1.6A4,4,0,0,1,123.67,197.06Z"/></g><path class="cls-4" d="M24.76,265.47a12.76,12.76,0,0,1-3.43-1.08,12.52,12.52,0,0,1-3.23-1.56,12.33,12.33,0,0,1,3.42,1.08A12.92,12.92,0,0,1,24.76,265.47Z"/><g class="cls-13"><path class="cls-4" d="M26.43,287.87a46.35,46.35,0,0,1-5.79-.58,25,25,0,0,1-5.72-1.09,45.11,45.11,0,0,1,5.79.57A25.29,25.29,0,0,1,26.43,287.87Z"/></g><path class="cls-4" d="M29.24,310.19a14.39,14.39,0,0,1-2.63.14c-1.63,0-3.87.13-6.37.06a33.41,33.41,0,0,1-6.35-.76,10.78,10.78,0,0,1-2.53-.75c0-.18,4,.89,8.9,1,2.47.06,4.72,0,6.35.1A11.68,11.68,0,0,1,29.24,310.19Z"/><g class="cls-13"><path class="cls-4" d="M28.83,329.42a9.65,9.65,0,0,1-2.27,1.21,33,33,0,0,1-12.07,2.74,9.43,9.43,0,0,1-2.57-.12,18.5,18.5,0,0,1,2.55-.25,46.58,46.58,0,0,0,6.07-.94,44.57,44.57,0,0,0,5.88-1.77A19,19,0,0,1,28.83,329.42Z"/></g><g class="cls-13"><path d="M32.34,345c-10.38-24.32-9.15-51.81-7.75-78.22Z"/></g><path class="cls-8" d="M23.23,253.63a1.16,1.16,0,0,1,.05.31c0,.23.07.53.11.9.09.84.22,2,.37,3.49.31,3.06.74,7.42,1.27,12.81,1.06,10.82,2.5,25.76,4.22,42.26s3.44,31.42,4.81,42.2c.68,5.39,1.26,9.75,1.67,12.76.2,1.48.35,2.64.46,3.47.05.38.08.67.11.91a1.44,1.44,0,0,1,0,.31,1,1,0,0,1-.07-.31l-.16-.89c-.13-.83-.32-2-.56-3.46-.47-3-1.11-7.36-1.83-12.74-1.47-10.78-3.25-25.69-5-42.2s-3.1-31.45-4.07-42.28c-.46-5.39-.84-9.76-1.1-12.83-.11-1.48-.21-2.65-.27-3.49q0-.56-.06-.9A1.3,1.3,0,0,1,23.23,253.63Z"/><path class="cls-8" d="M103.1,240.58a3.18,3.18,0,0,1-.76,0l-2.18,0c-1.89,0-4.63,0-8,.1-6.76.15-16.09.65-26.33,1.86s-19.44,2.93-26,4.37c-3.31.72-6,1.33-7.81,1.78l-2.12.5a3.74,3.74,0,0,1-.75.14,4.27,4.27,0,0,1,.72-.24l2.1-.59c1.82-.51,4.48-1.18,7.78-1.95a246.37,246.37,0,0,1,52.45-6.24c3.38,0,6.12,0,8,.07l2.18.08A5,5,0,0,1,103.1,240.58Z"/><path class="cls-8" d="M57.8,266.41c-.15,0,.12-11.05.6-24.67s1-24.65,1.13-24.65-.13,11-.61,24.67S57.94,266.42,57.8,266.41Z"/><path class="cls-8" d="M118.09,265.05a4,4,0,0,1-.44-.7c-.3-.5-.69-1.18-1.19-2l-4.35-7.48a64.78,64.78,0,0,1-5.46-11.63,38.88,38.88,0,0,1-1.63-7.44,45.45,45.45,0,0,1,0-8.17,43.37,43.37,0,0,1,3.89-15.23,25.48,25.48,0,0,1,3.84-5.73,22.07,22.07,0,0,1,4.62-3.85,17.58,17.58,0,0,1,8.18-2.74,11.42,11.42,0,0,1,3.17.18,29.19,29.19,0,0,0-3.15,0,17.92,17.92,0,0,0-8,2.85,22,22,0,0,0-4.49,3.83,25.53,25.53,0,0,0-3.73,5.65,43.65,43.65,0,0,0-3.8,15.07,45.29,45.29,0,0,0,0,8.07,37.43,37.43,0,0,0,1.58,7.34,66.74,66.74,0,0,0,5.32,11.6l4.21,7.56c.46.87.82,1.57,1.1,2.08A6.32,6.32,0,0,1,118.09,265.05Z"/><g class="cls-13"><path d="M111.93,253.56c-1.45,10.16,5.91,16.89,14.36,22.72A121.51,121.51,0,0,0,154.41,291l.13-9.32s-12.37-5.1-23.68-10.87c-6.15-3.14-13.19-6.51-15.22-10.14Z"/></g><path class="cls-4" d="M45,394.64a2,2,0,0,1-.08-.43c0-.31-.11-.74-.19-1.29-.16-1.15-.38-2.82-.67-4.95-.57-4.29-1.35-10.52-2.26-18.22-1.83-15.4-4.09-36.7-6-60.29S32.66,264.48,32,249c-.34-7.75-.58-14-.71-18.35-.06-2.15-.1-3.82-.14-5,0-.55,0-1,0-1.3a3,3,0,0,1,0-.44,3,3,0,0,1,0,.44c0,.31.05.74.08,1.29.05,1.17.13,2.85.24,5,.2,4.36.5,10.62.87,18.34.78,15.48,2,36.87,4,60.45s4.12,44.88,5.85,60.29c.89,7.68,1.6,13.91,2.1,18.24.25,2.13.44,3.8.57,5,.06.55.11,1,.14,1.29A2.43,2.43,0,0,1,45,394.64Z"/><g class="cls-13"><path class="cls-4" d="M64.9,394.64c-.15,0-4.13-41.79-8.91-93.37s-8.53-93.41-8.38-93.43,4.13,41.79,8.9,93.38S65,394.63,64.9,394.64Z"/></g><path class="cls-4" d="M85.23,394.33c-.15,0-3-44.36-6.48-99.09s-6.11-99.13-6-99.14,3,44.35,6.48,99.1S85.37,394.32,85.23,394.33Z"/><g class="cls-13"><path class="cls-4" d="M105.74,394.64a5,5,0,0,1,0-.51c0-.36,0-.86-.09-1.51-.06-1.35-.16-3.3-.28-5.81-.25-5.06-.62-12.35-1.07-21.35-.94-18-2.46-42.92-3.79-70.44-.65-13.76-1.14-26.88-1.46-38.82-.12-6-.27-11.63-.3-16.94q0-4-.07-7.69c0-2.46,0-4.82,0-7.08,0-4.52.09-8.6.15-12.19,0-1.79.07-3.46.09-5s.11-2.94.15-4.2c.1-2.51.18-4.46.23-5.81,0-.65,0-1.15.07-1.51s0-.51,0-.51a3.91,3.91,0,0,1,0,.51c0,.36,0,.87,0,1.51,0,1.35-.07,3.31-.12,5.81,0,1.27-.07,2.67-.11,4.2s0,3.21,0,5c0,3.58-.1,7.67-.07,12.18,0,2.26,0,4.62,0,7.08s.06,5,.1,7.68c.05,5.31.21,11,.35,16.94.35,11.93.85,25,1.5,38.81,1.42,27.5,2.71,52.39,3.64,70.44.43,9,.74,16.32.9,21.37.08,2.5.15,4.45.19,5.81,0,.64,0,1.15,0,1.51S105.74,394.64,105.74,394.64Z"/></g><path class="cls-4" d="M122.56,394.33s0-.11,0-.33,0-.56-.08-1c-.07-.88-.16-2.13-.27-3.73-.23-3.24-.51-7.93-.82-13.74-.62-11.6-1.28-27.64-1.6-45.37s-.22-33.8,0-45.42c.11-5.81.22-10.51.33-13.75.06-1.6.11-2.85.14-3.74,0-.41,0-.73.05-1a1.55,1.55,0,0,1,0-.34,1.3,1.3,0,0,1,0,.34c0,.24,0,.56,0,1,0,.89,0,2.14,0,3.74,0,3.28-.1,8-.17,13.76-.12,11.62-.15,27.67.16,45.4s.92,33.76,1.45,45.37c.27,5.77.49,10.46.65,13.74.07,1.6.13,2.85.17,3.74,0,.4,0,.72,0,1A1,1,0,0,1,122.56,394.33Z"/><g class="cls-13"><path class="cls-4" d="M141.23,394.33a1.71,1.71,0,0,1,0-.3v-.87c0-.81,0-1.93,0-3.36,0-3,.06-7.18.1-12.37.06-10.45,0-24.88-.47-40.81s-1.25-30.34-1.92-40.76c-.34-5.19-.63-9.4-.82-12.35-.1-1.43-.17-2.55-.22-3.35,0-.36,0-.65-.05-.88a1.43,1.43,0,0,1,0-.3,1.77,1.77,0,0,1,0,.3q0,.33.09.87c.08.8.19,1.92.32,3.35.27,2.91.61,7.12,1,12.33.76,10.42,1.6,24.84,2.07,40.78s.47,30.37.32,40.82c-.08,5.22-.17,9.45-.27,12.37-.05,1.43-.09,2.56-.12,3.36,0,.36,0,.65,0,.88A1.36,1.36,0,0,1,141.23,394.33Z"/></g><path class="cls-4" d="M225.2,303a1.33,1.33,0,0,1-.29-.08l-.86-.28-3.29-1.11c-2.85-1-7-2.44-12-4.3-10.12-3.72-24-9.13-39.14-15.58s-28.68-12.68-38.43-17.29c-4.87-2.3-8.81-4.19-11.51-5.51l-3.12-1.54-.8-.41-.27-.16a1.21,1.21,0,0,1,.29.11l.83.36,3.15,1.45L131.32,264c9.78,4.52,23.34,10.69,38.47,17.14s29,11.91,39.07,15.71l12,4.46,3.25,1.21.84.32A1.14,1.14,0,0,1,225.2,303Z"/><g class="cls-13"><path class="cls-4" d="M258.43,265.78a2.51,2.51,0,0,1-.3.31c-.23.2-.53.49-.92.85-.81.74-2,1.82-3.64,3.16a110.78,110.78,0,0,1-14.46,10.26c-.82.46-1.64.95-2.52,1.38s-1.77.91-2.72,1.31a28.07,28.07,0,0,1-6.07,2l-1.67.24H224.4c-1.14-.08-2.29-.24-3.45-.42a68.4,68.4,0,0,1-7.09-1.54,135.73,135.73,0,0,1-14.68-5.08c-5-2-10.15-4.12-15.44-6.27l-54.1-22.2L113.27,243l-4.44-1.87-1.15-.49-.39-.19.41.14,1.16.45,4.48,1.77,16.44,6.63,54.15,22.06c5.29,2.15,10.43,4.3,15.44,6.28A138.73,138.73,0,0,0,214,282.86a70.13,70.13,0,0,0,7,1.55,17.89,17.89,0,0,0,6.7.21,27.28,27.28,0,0,0,6-1.94c.94-.39,1.83-.83,2.7-1.28s1.7-.91,2.52-1.36a116.46,116.46,0,0,0,14.51-10.1c1.62-1.32,2.86-2.36,3.7-3.08l.95-.81A1.82,1.82,0,0,1,258.43,265.78Z"/></g><path class="cls-4" d="M211.62,268.15a1.09,1.09,0,0,1-.29-.06l-.86-.22-3.26-.92c-1.42-.39-3.15-.9-5.15-1.54s-4.27-1.33-6.76-2.2l-3.91-1.34-4.21-1.55c-2.92-1-6-2.29-9.22-3.57-6.45-2.65-13.46-5.73-20.7-9.25s-14-7.19-20-10.66c-3-1.77-5.86-3.42-8.48-5.09l-3.8-2.37-3.46-2.27c-2.22-1.42-4.17-2.79-5.89-4s-3.19-2.23-4.38-3.11l-2.72-2c-.29-.22-.52-.4-.71-.53s-.23-.19-.22-.2a2.17,2.17,0,0,1,.26.15l.73.5,2.78,1.93c1.2.86,2.68,1.88,4.42,3s3.7,2.51,5.93,3.92l3.47,2.23,3.82,2.35c2.62,1.64,5.49,3.28,8.49,5,6,3.43,12.8,7.06,20,10.6s14.22,6.61,20.65,9.28c3.23,1.28,6.29,2.55,9.19,3.61l4.2,1.57,3.89,1.37c2.48.9,4.75,1.61,6.73,2.27s3.7,1.21,5.11,1.63l3.24,1,.84.27Z"/><g class="cls-13"><path class="cls-4" d="M211.77,259.69c-.08.12-20.73-12.63-46.12-28.47s-45.92-28.8-45.84-28.92,20.72,12.62,46.12,28.48S211.85,259.57,211.77,259.69Z"/></g><path class="cls-4" d="M219.24,264.69a11.3,11.3,0,0,0-7.92,2.34s.24-.46.85-1a7.85,7.85,0,0,1,5.84-1.72C218.8,264.44,219.26,264.63,219.24,264.69Z"/><path class="cls-4" d="M241.35,249.13s-.27.25-.81.64-1.28,1-2.2,1.71l-7.16,5.81c-2.79,2.28-5.35,4.31-7.26,5.71-.95.7-1.75,1.23-2.31,1.58a3.61,3.61,0,0,1-.93.47,4.64,4.64,0,0,1,.81-.64c.53-.39,1.29-1,2.21-1.71l7.16-5.81c2.79-2.28,5.35-4.31,7.26-5.71.95-.7,1.75-1.23,2.31-1.58A3.87,3.87,0,0,1,241.35,249.13Z"/><path class="cls-4" d="M220.46,255.12a8.61,8.61,0,0,1-1.28-.47,7,7,0,0,0-6.11.85c-.68.46-1,.86-1.1.8s.21-.52.88-1.09a6.12,6.12,0,0,1,3.1-1.36,6.24,6.24,0,0,1,3.36.46C220.11,254.68,220.49,255.08,220.46,255.12Z"/><path class="cls-4" d="M22.59,243.66a.86.86,0,0,1,0,.26c0,.2,0,.45-.06.76-.06.71-.16,1.69-.27,2.93-.26,2.53-.59,6.21-1,10.76-.75,9.09-1.52,21.67-1.66,35.59s.38,26.52.95,35.62c.28,4.55.54,8.23.75,10.78.09,1.24.16,2.22.21,2.93l0,.76a.86.86,0,0,1,0,.26,1.21,1.21,0,0,1,0-.26q0-.3-.09-.75c-.08-.71-.18-1.69-.31-2.93-.27-2.53-.59-6.21-.92-10.77-.66-9.1-1.24-21.71-1.1-35.65s1-26.53,1.81-35.62c.43-4.54.82-8.21,1.14-10.75.15-1.23.28-2.2.37-2.91,0-.31.08-.56.11-.76A.7.7,0,0,1,22.59,243.66Z"/><path class="cls-8" d="M211.6,270.83a11.88,11.88,0,0,1-.53-2.8,36.35,36.35,0,0,1,1.14-13.66,11.71,11.71,0,0,1,1-2.68,25.28,25.28,0,0,1-.62,2.77,48.39,48.39,0,0,0-1.07,6.73,49.11,49.11,0,0,0-.06,6.81A23,23,0,0,1,211.6,270.83Z"/><path class="cls-8" d="M255.7,286.68a2.16,2.16,0,0,1-.18-.45l-.43-1.32c-.18-.58-.41-1.28-.72-2.07s-.62-1.72-1.07-2.7c-.22-.49-.44-1-.68-1.55l-.81-1.63c-.53-1.15-1.23-2.31-1.92-3.55a70.66,70.66,0,0,0-5.27-7.58,76.66,76.66,0,0,0-6.26-6.8c-2.07-1.95-4-3.62-5.72-4.93-.83-.68-1.63-1.23-2.32-1.74s-1.29-.93-1.8-1.26l-1.14-.8a2.85,2.85,0,0,1-.38-.3s.16.06.44.22l1.2.71c.52.3,1.14.7,1.84,1.19s1.53,1,2.38,1.69a67.91,67.91,0,0,1,5.83,4.87A73.27,73.27,0,0,1,245,265.5a66.39,66.39,0,0,1,5.27,7.67c.69,1.26,1.38,2.43,1.9,3.59.27.58.55,1.13.79,1.67l.65,1.57c.43,1,.72,1.93,1,2.74a20.2,20.2,0,0,1,.64,2.11c.14.54.25,1,.34,1.35A1.55,1.55,0,0,1,255.7,286.68Z"/><g class="cls-13"><path d="M224.6,267.54a24.48,24.48,0,0,0-1.12-4.42,33.07,33.07,0,0,1-1.2-10.38,22.14,22.14,0,0,0,.69,18.82A4.28,4.28,0,0,0,224.6,267.54Z"/></g><g class="cls-13"><path d="M31,249.33a139.21,139.21,0,0,0,22.17-2.93,33.93,33.93,0,0,0-1.24,9.92,22.72,22.72,0,0,0,4.93-9.07,13.71,13.71,0,0,0,5.59,9.18,29.87,29.87,0,0,0,.5-10.11q16.54-2,32.87-5.44A222.65,222.65,0,0,0,30.57,249"/></g><path class="cls-4" d="M72.69,193.11a16,16,0,0,1-.59-5.1,16.48,16.48,0,0,1,.53-5.11c.16,0,0,2.3,0,5.11S72.84,193.09,72.69,193.11Z"/><g class="cls-13"><path class="cls-4" d="M92.85,193.09a41.79,41.79,0,0,1-.34-6.58,40.87,40.87,0,0,1,.17-6.58,42.45,42.45,0,0,1,.35,6.58A40.13,40.13,0,0,1,92.85,193.09Z"/></g><path class="cls-4" d="M110.65,195.85c-.16,0,.21-2.48.2-5.52s-.37-5.49-.22-5.52a21.24,21.24,0,0,1,0,11Z"/><path class="cls-11" d="M261.43,175.36a22.77,22.77,0,0,0-2.68,3.09,24.52,24.52,0,0,0-1.63,3.76,6.38,6.38,0,0,1,1.19-4A6.32,6.32,0,0,1,261.43,175.36Z"/><path class="cls-11" d="M268.72,179.45a26.28,26.28,0,0,0-2.61,2.78,24.8,24.8,0,0,0-1.73,3.4,7.24,7.24,0,0,1,4.34-6.18Z"/><path class="cls-11" d="M274.56,182.93c.1.12-1,1.12-2.09,2.64s-1.6,2.92-1.75,2.87a6,6,0,0,1,1.33-3.17A6.13,6.13,0,0,1,274.56,182.93Z"/><path class="cls-11" d="M253,184.25a5.52,5.52,0,0,0-5,.34s.12-.32.54-.63a3.77,3.77,0,0,1,3.85-.26C252.88,184,253.08,184.2,253,184.25Z"/><path class="cls-11" d="M262.18,190a10,10,0,0,0-1.89-2.27,10.23,10.23,0,0,0-2.68-1.22c0-.07.35-.15.93-.07a4.53,4.53,0,0,1,2.07.88,4.46,4.46,0,0,1,1.39,1.76C262.23,189.59,262.24,190,262.18,190Z"/><path class="cls-11" d="M271.26,191.9a11.78,11.78,0,0,0-2.82-1.46,11.58,11.58,0,0,0-3.17-.16c0-.06.3-.27.9-.41a5.07,5.07,0,0,1,2.4.07,5,5,0,0,1,2.11,1.15C271.13,191.52,271.31,191.86,271.26,191.9Z"/></g></svg>