<svg id="a8b21a5c-6c38-4640-b116-ba627788d7f9" data-name="Capa 1" xmlns="http://www.w3.org/2000/svg" viewBox="0 0 200 200"><defs><style>.b17c99c5-35f6-4864-92fa-ccaf3110100f{fill:#0083fe;}.ebbe4bf0-2275-4720-b060-0846ef3fd590{fill:#0066dc;}.ef4b17d0-3958-4ced-9aaa-f79ac189a3a2{fill:#fd2922;}.b71956ae-72f6-44e5-bb39-974018c7d8c6{fill:#00ac3c;}.a33b5368-375d-470c-b9cc-b32558ae78c5{fill:#feb900;}.a6d9502d-6f11-4680-a68a-c2fd97885ca6{fill:#00831e;}</style></defs><path class="b17c99c5-35f6-4864-92fa-ccaf3110100f" d="M.6625,132.6365V68.1955c.5152-.0157,1.03-.0446,1.5456-.0452q24.0471-.0255,48.0945-.046l.0752.1262q-.011,12.3858-.02,24.7715.0132,19.8356.05,39.6712l-.0657.072c-.8386-.0352-1.6772-.1007-2.5158-.1011Q24.2449,132.6334.6625,132.6365Z"/><path class="ebbe4bf0-2275-4720-b060-0846ef3fd590" d="M.6625,132.6365q23.5824.0015,47.1648.0076c.8386,0,1.6772.0659,2.516.1q.0069,24.774.0134,49.5492c-11.5686.0087-23.14.1715-34.7046-.035-6.3465-.1134-12.2046-5.1553-14.2206-11.459-.1856-.5805-.1017-1.3062-.769-1.6726Z"/><path class="ef4b17d0-3958-4ced-9aaa-f79ac189a3a2" d="M50.3024,68.1042q-24.0473.0222-48.0943.0461c-.5152.0006-1.03.0295-1.5456.0452v-.3882c.7746-.1331,1.1045-.8288,1.5832-1.3068Q25.6448,43.1382,49.02,19.7523c.4046-.4044.8636-.7543,1.2972-1.13Q50.31,43.3634,50.3024,68.1042Z"/><path class="b71956ae-72f6-44e5-bb39-974018c7d8c6" d="M50.3567,182.2938q-.0066-24.7749-.0134-49.5492l.0654-.0715c19.5209.0038,39.042-.0193,58.5628.0556,1.83.007,2.3565-.3755,2.3407-2.2892-.0815-9.8851.009-19.7717.0395-29.6577a2.0877,2.0877,0,0,1,1.1633.6334q9.6043,7.6215,19.224,15.2239c7.17,5.6657,14.3262,11.3491,21.5363,16.9633,1.5407,1.2,2.8958,2.7032,4.7327,3.457.4165-.418.28-.8243.28-1.1886q-.0095-37.5419-.0343-75.0837l.2-.3857c9.9863-7.9061,19.9927-15.7869,29.9437-23.7371,2.3065-1.8428,4.6845-2.7858,7.4918-1.4323,2.8025,1.3513,3.57,3.7938,3.5673,6.7468q-.0456,57.3495-.0047,114.699c.0017,2.8381-.919,5.0953-3.5277,6.3826-2.6793,1.3222-5.1429.7433-7.3553-1.1625-.098-.0844-.2014-.1625-.3022-.2436q-13.9787-11.2524-27.9591-22.5027c-.4964-.3993-1.0177-.7675-1.5488-1.1662-.6245.6765-.3315,1.4178-.3334,2.0771-.0246,8.5393.0368,17.0791-.033,25.6179-.069,8.4574-5.3145,14.8705-13.3453,16.4375a17.25,17.25,0,0,1-3.28.2454q-45.1263.019-90.2527.007C51.1285,182.37,50.7426,182.32,50.3567,182.2938Z"/><path class="a33b5368-375d-470c-b9cc-b32558ae78c5" d="M158.4537,60.4014q-.1.1929-.2.3857c-.4716.3266-.9747.6165-1.4107.9856q-13.1793,11.1552-26.3476,22.3236-9.5523,8.0739-19.1453,16.1c-.0293-9.9473-.1012-19.8948-.0474-29.8416.0094-1.7285-.3786-2.2579-2.1977-2.25-17.0575.0752-34.1155.0413-51.1733.0482-2.518.0011-5.0359.05-7.5538.0776l-.0752-.1262q.0074-24.7408.015-49.4816c.638-.0542,1.2759-.1555,1.9139-.1557q44.7-.0115,89.4007.0006c8.2883.0051,14.5848,4.99,16.4233,12.8749a20.48,20.48,0,0,1,.3384,4.6278Q158.4369,48.1858,158.4537,60.4014Z"/><path class="a6d9502d-6f11-4680-a68a-c2fd97885ca6" d="M111.3517,100.7818q-.0007-.2931-.0017-.5859,9.5741-8.0478,19.1453-16.1,13.187-11.1462,26.3476-22.3236c.436-.3691.9391-.659,1.4107-.9856q.02,37.5418.0341,75.0837c0,.3643.1368.7706-.28,1.1886-1.8369-.7538-3.192-2.2573-4.7327-3.457-7.21-5.6142-14.3664-11.2976-21.5363-16.9633q-9.62-7.6018-19.224-15.2239A2.0877,2.0877,0,0,0,111.3517,100.7818Z"/></svg>