<svg id="adffdc3c-d530-4a16-836b-f0246f158e7f" data-name="Capa 1" xmlns="http://www.w3.org/2000/svg" xmlns:xlink="http://www.w3.org/1999/xlink" viewBox="0 0 200 200"><defs><style>.a8f43694-d73c-4d18-85eb-457d8fa1c708{fill:none;}.fa3dbcc1-14dd-4371-a70d-5fad27552e95{fill:#6e64c2;}.b0f4f7a4-0f1a-4d84-9156-11ac6ce9b9eb{fill:#302c89;}.f1a02c29-d4d2-46ad-a76c-3fc823b0f82a{fill:#fbfafc;}.a5a622e8-fd01-495f-8331-df5f26321423{clip-path:url(#ba6752d8-4bc4-4c6c-a41a-7c430ab34fc9);}</style><clipPath id="ba6752d8-4bc4-4c6c-a41a-7c430ab34fc9"><rect class="a8f43694-d73c-4d18-85eb-457d8fa1c708" x="-152.5929" y="99.4776" width="513.4459" height="427.8689"/></clipPath></defs><path class="fa3dbcc1-14dd-4371-a70d-5fad27552e95" d="M199.51,92.92c-.72-2.36-.67-4.83-1.03-7.24-6.09-41.23-36.29-74.26-77.19-83.01C87.21-4.62,56.9,3.89,31.31,27.6,13.22,44.36,3.19,65.44.56,89.93c-4.9,45.65,23.39,89.67,66.86,104.33a100.4685,100.4685,0,0,0,23.93,5.01c.38.03.79-.01,1.04.38h14.8c2.54-.77,5.19-.69,7.79-1.11a98.4874,98.4874,0,0,0,59.96-33.08c13.07-14.83,20.78-32.17,23.69-51.68a10.2868,10.2868,0,0,0,0-1.36c.56-1.65.14-3.47.88-5.09ZM128.63,66.03c1.35,3.82,1.54,7.56-.55,11.23-3.75,6.58-13.71,7.71-18.46,2.07a3.2466,3.2466,0,0,1-.87-2.27c.02-3.82.03-7.64-.01-11.46a3.2419,3.2419,0,0,1,1.02-2.4,12.321,12.321,0,0,1,8.36-3.59A12.6713,12.6713,0,0,1,128.63,66.03Zm-24.61,85.59c.08,1.26-.29,1.72-1.7,1.46-7.32-1.35-14.67-2.59-22.01-3.88q-21.345-3.75-42.69-7.5a2.8121,2.8121,0,0,0-.58.01c-.91-.33-.73-1.12-.73-1.81q0-40.695-.04-81.4c0-1.52.69-1.85,1.9-2.06q19.365-3.36,38.71-6.75,12.645-2.22,25.29-4.41c.71-.13,1.55-.66,1.96.48-.04.91-.11,1.81-.11,2.72V150.07C104.02,150.59,103.99,151.11,104.02,151.62Zm28.8-28.84c-.06,7.85-4,13.33-11.07,15.3a14.16,14.16,0,0,1-11.59-1.74,2.7988,2.7988,0,0,1-1.42-2.72c.04-7.2.02-14.4.02-21.6,0-7.07.04-14.14-.04-21.21-.02-1.67.42-2.27,2.18-2.25,6.61.1,13.23.08,19.85.01,1.6-.02,2.13.48,2.12,2.1C132.81,101.38,132.89,112.08,132.82,122.78Zm5.11-48.58c3.89-7.94,15.08-9.41,20.72-.78,1.94,4.63,1.94,9.11-1.42,13.11a10.84,10.84,0,0,1-11.53,3.75,11.0275,11.0275,0,0,1-8.56-9.06A12.3949,12.3949,0,0,1,137.93,74.2Zm14.29,57.79a14.2818,14.2818,0,0,1-13.52-3.5,3.3237,3.3237,0,0,1-1.14-2.74c.04-4.61.02-9.22.02-13.83s.04-9.22-.03-13.83c-.02-1.47.36-2.07,1.96-2.05,7.2.07,14.41.05,21.61.01,1.33-.01,1.83.42,1.84,1.79.06,6.49.27,12.97.28,19.46C163.26,124.6,158.93,130.35,152.22,131.99Z"/><path class="b0f4f7a4-0f1a-4d84-9156-11ac6ce9b9eb" d="M104.02,150.07V48.48c0-.91.07-1.81.11-2.72-.41-1.14-1.25-.61-1.96-.48q-12.645,2.19-25.29,4.41-19.35,3.375-38.71,6.75c-1.21.21-1.9.54-1.9,2.06q.075,40.695.04,81.4c0,.69-.18,1.48.73,1.81a2.8121,2.8121,0,0,1,.58-.01q21.345,3.735,42.69,7.5c7.34,1.29,14.69,2.53,22.01,3.88,1.41.26,1.78-.2,1.7-1.46C103.99,151.11,104.02,150.59,104.02,150.07ZM79.05,87.08c-1.85.02-4.32-.85-5.38.38-.92,1.05-.31,3.45-.32,5.26-.01,7.33-.05,14.66.04,21.99.01,1.5-.44,1.84-1.86,1.82-4.21-.06-4.21,0-4.21-4.29V101.73c0-4.29-.06-8.57.03-12.85.03-1.39-.25-1.95-1.79-1.86-2.32.14-4.67-.01-7,.06-1.01.03-1.3-.29-1.34-1.31-.18-4.82-.21-4.82,4.67-4.82,6.62,0,13.23.04,19.85-.03,1.35-.01,1.76.35,1.75,1.72C83.45,87.06,83.51,87.02,79.05,87.08Z"/><path class="b0f4f7a4-0f1a-4d84-9156-11ac6ce9b9eb" d="M157.23,86.53a10.84,10.84,0,0,1-11.53,3.75,11.0275,11.0275,0,0,1-8.56-9.06,12.3949,12.3949,0,0,1,.79-7.02c3.89-7.94,15.08-9.41,20.72-.78C160.59,78.05,160.59,82.53,157.23,86.53Z"/><path class="b0f4f7a4-0f1a-4d84-9156-11ac6ce9b9eb" d="M128.08,77.26c-3.75,6.58-13.71,7.71-18.46,2.07a3.2466,3.2466,0,0,1-.87-2.27c.02-3.82.03-7.64-.01-11.46a3.2419,3.2419,0,0,1,1.02-2.4,12.321,12.321,0,0,1,8.36-3.59,12.6713,12.6713,0,0,1,10.51,6.42C129.98,69.85,130.17,73.59,128.08,77.26Z"/><path class="b0f4f7a4-0f1a-4d84-9156-11ac6ce9b9eb" d="M132.87,90.67c-.06,10.71.02,21.41-.05,32.11-.06,7.85-4,13.33-11.07,15.3a14.16,14.16,0,0,1-11.59-1.74,2.7988,2.7988,0,0,1-1.42-2.72c.04-7.2.02-14.4.02-21.6,0-7.07.04-14.14-.04-21.21-.02-1.67.42-2.27,2.18-2.25,6.61.1,13.23.08,19.85.01C132.35,88.55,132.88,89.05,132.87,90.67Z"/><path class="b0f4f7a4-0f1a-4d84-9156-11ac6ce9b9eb" d="M163.24,117.3c.02,7.3-4.31,13.05-11.02,14.69a14.2818,14.2818,0,0,1-13.52-3.5,3.3237,3.3237,0,0,1-1.14-2.74c.04-4.61.02-9.22.02-13.83s.04-9.22-.03-13.83c-.02-1.47.36-2.07,1.96-2.05,7.2.07,14.41.05,21.61.01,1.33-.01,1.83.42,1.84,1.79C163.02,104.33,163.23,110.81,163.24,117.3Z"/><path class="f1a02c29-d4d2-46ad-a76c-3fc823b0f82a" d="M67.3179,101.7265c0-4.282-.0553-8.5651.0315-12.8453.0283-1.3929-.2526-1.9549-1.7851-1.8606-2.3268.1431-4.67-.0079-7.0039.0578-1.0141.0286-1.3-.2915-1.3384-1.31-.1793-4.8167-.2131-4.8155,4.6656-4.8155,6.6176,0,13.2355.0362,19.8524-.03,1.3465-.0134,1.7553.3421,1.7457,1.72-.0308,4.4144.0274,4.3719-4.4364,4.4355-1.8528.0263-4.3192-.8448-5.3832.383-.9126,1.053-.3076,3.4524-.3114,5.2565-.0152,7.3312-.0527,14.663.032,21.9933.0174,1.5027-.4375,1.8336-1.8564,1.8155-4.2116-.0539-4.2124.0071-4.2124-4.29Z"/></svg>