<svg id="eaebb2a4-65ab-4ee8-861d-8a0e5bfb184e" data-name="Capa 1" xmlns="http://www.w3.org/2000/svg" viewBox="0 0 200 200"><defs><style>.be60712d-0d00-4b8f-b6ed-5d91a33a4759{fill:#01aeef;}.ecf2c618-6420-4349-8879-bb69d784abca{fill:#fdfefe;}</style></defs><path class="be60712d-0d00-4b8f-b6ed-5d91a33a4759" d="M199.9673,139.6388v10.9036c-.7452.6872-.5928,1.6632-.7143,2.5065-3.0169,20.9281-19.451,39.0781-39.9553,44.2572-2.9157.7364-5.96.817-8.786,1.9131H140.3869c-.1391-.1177-.2667-.32-.4191-.341-6.9086-.94-13.2192-3.6117-19.3473-6.7615a6.0189,6.0189,0,0,0-3.9092-.6177,98.1151,98.1151,0,0,1-46.2837-3.6261C25.83,173.4449-.5973,129.3524,7.8892,83.5335a4.8126,4.8126,0,0,0-.5231-3.3307c-8.6587-16.4272-9.1694-33.1169-1.06-49.8456C19.1654,3.8309,52.3124-7.7873,78.92,5.02A23.0865,23.0865,0,0,0,92.35,7.3939a88.9673,88.9673,0,0,1,45.1346,6.5011c27.25,11.4839,45.7374,31.2464,54.7951,59.4817a88.7824,88.7824,0,0,1,2.287,45.3479,5.6254,5.6254,0,0,0,.3934,3.7406,51.81,51.81,0,0,1,4.3554,14.4576C199.4557,137.8171,199.2129,138.87,199.9673,139.6388ZM102.5291,43.52a99.9817,99.9817,0,0,0-10.3625.7357c-8.583,1.2189-16.6572,3.6708-23.59,9.2142C55.6156,63.8325,54.96,85.7272,70.9047,95.9234a62.8372,62.8372,0,0,0,17.863,7.4427c7.8806,2.1128,15.8381,3.9378,23.75,5.9359a30.6492,30.6492,0,0,1,7.1631,2.953c9.3033,5.08,9.4944,17.2716-.4612,23.1091-6.897,4.0441-14.3605,4.5362-22.0263,3.6439-6.9906-.8137-12.5044-4.0919-15.9792-10.3666-1.6618-3.0008-3.0736-6.1428-4.795-9.1068-2.1909-3.7721-5.47-5.8491-9.9737-5.4779-7.4492.614-11.3264,6.3952-9.2085,14.0692,3.1083,11.2628,10.6138,18.9189,21.2215,23.0007,16.5483,6.3677,33.4571,6.1917,49.9984-.09,10.9533-4.16,18.7758-11.7943,21.0683-23.7943,1.7321-9.0671.4239-17.6092-6.0411-24.7426-4.4875-4.9515-10.3608-7.72-16.51-9.9025-10.1583-3.605-20.7718-5.5306-31.1721-8.2453A31.88,31.88,0,0,1,85.8606,80.05c-3.5641-2.4109-5.5624-5.6207-4.6308-10.081.73-3.4962,3.1285-5.7569,6.0742-7.45,6.4621-3.7137,13.4588-3.7681,20.5968-2.9135,5.8364.6987,10.0927,3.7932,13.2937,8.5225,1.5977,2.3605,2.9942,4.8577,4.6039,7.2095,3.8829,5.673,11.3757,6.5082,16.0936,1.8115,3.2979-3.283,3.7556-7.2341,2.5107-11.5278-2.042-7.0426-6.9011-11.7731-12.9477-15.4015C122.779,45.0142,113.1485,43.6008,102.5291,43.52Z"/><path class="ecf2c618-6420-4349-8879-bb69d784abca" d="M102.5291,43.52c10.6194.0813,20.25,1.4947,28.9259,6.7007,6.0466,3.6284,10.9057,8.3589,12.9477,15.4015,1.2449,4.2937.7872,8.2448-2.5107,11.5278-4.7179,4.6967-12.2107,3.8615-16.0936-1.8115-1.61-2.3518-3.0062-4.849-4.6039-7.2095-3.201-4.7293-7.4573-7.8238-13.2937-8.5225-7.138-.8546-14.1347-.8-20.5968,2.9135-2.9457,1.6929-5.3439,3.9536-6.0742,7.45-.9316,4.46,1.0667,7.67,4.6308,10.081a31.88,31.88,0,0,0,9.9411,4.3012c10.4,2.7147,21.0138,4.64,31.1721,8.2453,6.15,2.1824,12.0228,4.951,16.51,9.9025,6.465,7.1334,7.7732,15.6755,6.0411,24.7426-2.2925,12-10.115,19.6344-21.0683,23.7943-16.5413,6.2821-33.45,6.4581-49.9984.09-10.6077-4.0818-18.1132-11.7379-21.2215-23.0007-2.1179-7.674,1.7593-13.4552,9.2085-14.0692,4.5034-.3712,7.7828,1.7058,9.9737,5.4779,1.7214,2.964,3.1332,6.106,4.795,9.1068,3.4748,6.2747,8.9886,9.5529,15.9792,10.3666,7.6658.8923,15.1293.4,22.0263-3.6439,9.9556-5.8375,9.7645-18.0288.4612-23.1091a30.6492,30.6492,0,0,0-7.1631-2.953c-7.912-1.9981-15.8695-3.8231-23.75-5.9359a62.8372,62.8372,0,0,1-17.863-7.4427C54.96,85.7272,55.6156,63.8325,68.5764,53.4694c6.933-5.5434,15.0072-7.9953,23.59-9.2142A99.9817,99.9817,0,0,1,102.5291,43.52Z"/></svg>