<svg id="eb6ab8a8-ea38-4c6f-af9a-1233c9b10c42" data-name="Capa 1" xmlns="http://www.w3.org/2000/svg" xmlns:xlink="http://www.w3.org/1999/xlink" viewBox="0 0 200 200"><defs><style>.b00b0bcf-2327-4ace-9151-9cca2730a085{fill:none;}.ea8a3c48-c6b0-488c-9199-7d48f1b55652{fill:#2badef;}.e1741d4c-3f32-4607-8afa-879cb133542a{fill:#29afee;}.e0b8e3c6-8cc0-4ec9-8dda-422367789568{fill:#27b2ed;}.a2d8af4b-73e2-4c00-bb1e-ea275a6c1846{fill:#28b1ed;}.eb2eef58-51f9-4f46-82be-61c627cffab1{fill:#52c0f0;}.e4375f11-261b-489c-8703-bdb574a5794e{fill:#3cb5f0;}.f30ec743-b9f4-4d10-82ac-b527b00cc72e{fill:#89d5f5;}.a1f13758-9311-422a-800c-ac15f5703880{fill:#a4dff7;}.abdb1017-4d4c-479f-9bf0-e23171085224{fill:#a5dcf8;}.e52ccefd-ccf6-4ff2-9235-10ef0765e2b5{fill:#8bd2f6;}.bc551ce4-cdfa-4b47-ad9e-22f396122e52{fill:#97d8f7;}.b0f6ee01-e009-43b9-b40e-6bb97ffc1fe6{fill:#4294fa;}.af43f5e9-918b-464f-b441-8b948c824c94{fill:#4690fc;}.b64d6393-a672-47d6-8008-780fc228eaad{fill:#2fa9f1;}.bee6e359-98d9-4248-8b12-8acc59274357{fill:#488dfd;}.aa6934a9-419c-44d3-9edf-1505b92c9214{fill:#2dabf0;}.a473e69b-14b5-4f29-9eae-d7c41cfd0117{fill:#4492fb;}.e715eeca-8009-4fa9-9711-488337e60896{fill:#32a6f2;}.fc88a941-9f20-4433-9ae4-0c44fbae1db4{fill:#3b9bf7;}.b30cac50-3d11-4857-994b-396f346e653a{fill:#4096f9;}.b7c39987-5e25-4b53-9128-ca512a698931{fill:#3e99f8;}.bd648923-f4d8-4685-a392-f471f09a08f5{fill:#399ef6;}.ae273faa-b131-4de5-9e4d-a5002c36bd5c{fill:#34a4f3;}.bbc2fa49-3e54-44da-ac7d-11f0ec555d76{fill:#35a2f4;}.b3a5a565-bd1a-4dec-9578-7899345e99ff{fill:#389ff5;}.a33fa612-b927-498d-b158-c4ebe0a169fb{fill:#37a0f5;}.bb2cb24e-11f7-4ac5-b911-ded42a144edc{fill:#36a1f4;}.a4e82400-8e4d-460c-b9a1-38e56e2bf455{fill:#3b9cf7;}.ece956cc-72c4-4b85-86cd-00ab7caa18b2{fill:#33a5f3;}.b87b41cd-cefb-4d52-87f0-388d5136b37a{fill:#3a9df6;}.eb5de756-2b0a-46b5-a037-977eea408200{fill:#31a7f2;}.b9a5fc97-dd08-4b07-86fa-a7650c6028bd{fill:#29b0ee;}.f8950100-b416-410a-94c3-ab8d4a2f0b6b{fill:#4a8cfe;}.a9a8befd-7afa-44ba-99bb-793a06b71d0d{fill:#25b4ec;}.ad08d926-87f0-4de5-a023-e11c128f9be2{fill:#24b7eb;}.bffb0c1a-feca-48da-a6ff-1e7aa557da6f{fill:#fefefe;}.e790a1cf-c879-47f9-8ca3-d2a169f78709{fill:#31a6f2;}.ae4dc1c2-09ed-4661-986a-5e058328f1c7{clip-path:url(#e3c0ef04-89b3-44bb-b4c6-d2bbc1d07b20);}</style><clipPath id="e3c0ef04-89b3-44bb-b4c6-d2bbc1d07b20"><rect class="b00b0bcf-2327-4ace-9151-9cca2730a085" x="-372.5929" y="99.4776" width="513.4459" height="427.8689"/></clipPath></defs><path class="ea8a3c48-c6b0-488c-9199-7d48f1b55652" d="M196.065,73.0908l1.1365,4.2833c-4.7219,6.4945-9.6638,12.8235-14.501,19.231q-17.1489,22.716-34.3389,45.4013-15.7137,20.7568-31.43,41.5116c-4.1017,5.4212-8.2362,10.8169-12.2264,16.3213h-.7776a2.9723,2.9723,0,0,0-2.3328,0h-6.61c-.2148-.24-.5039-.1911-.778-.2-.2741.0088-.5626-.0388-.7773.2H91.8747a2.9468,2.9468,0,0,0-.0167-.3438c-.59-1.4572.5685-2.2962,1.25-3.2154,4.6279-6.2439,9.3527-12.4155,14.0452-18.6111q10.1472-13.3977,20.2855-26.8021c6.055-8.0059,12.1712-15.9655,18.1334-24.0414a2.8771,2.8771,0,0,1,1.1192-1.0484c1.1951-.2066,1.8193.7749,2.6553,1.3017.5388.34,1.0156.7774,1.5588,1.1169,1.7248,1.0782,2.1224.9467,2.92-.9573a3.2431,3.2431,0,0,1,.3828-.6638c3.9917-4.9266,7.6885-10.0774,11.532-15.1164,9.1391-11.9821,18.1456-24.0649,27.3407-36.004C193.8417,74.4664,194.34,72.9441,196.065,73.0908Z"/><path class="e1741d4c-3f32-4607-8afa-879cb133542a" d="M104.7053,199.8393c-.1633-.9588.4968-1.6059.9784-2.2461q15.5715-20.7013,31.1961-41.3625,10.1968-13.4939,20.4233-26.9655,16.3884-21.6576,32.7715-43.319c1.8281-2.4143,3.7143-4.7846,5.561-7.1849a3.5176,3.5176,0,0,1,1.5659-1.3872c.2765,2.8958,1.6708,5.5833,1.5919,8.5453-8.4925,11.03-16.83,22.1769-25.2395,33.27q-22.4712,29.6436-44.9038,59.3165c-4.3769,5.7809-8.6479,11.6438-13.1637,17.3193-.8072,1.0145-1.43,2.1536-2.2278,3.172l-1.8613.0922c-.6321.3551-1.3672-.0173-2.0068.2843-.38.1934-.9539-.1053-1.186.4657h-1.1664a.5037.5037,0,0,0-.7776,0Z"/><path class="e0b8e3c6-8cc0-4ec9-8dda-422367789568" d="M135.8117,193.2305a52.7916,52.7916,0,0,1-11.215,3.5217c-1.0477.3728-1.1476-.2019-.9111-.9741a5.5948,5.5948,0,0,1,1.0281-1.6381q24.4311-32.4394,49.0022-64.7731c7.8492-10.385,15.6456-20.811,23.6154-31.1045.5635-.7278.9116-2.0223,2.3386-1.4729a2.3041,2.3041,0,0,1,.0921.853c.101.7553-.22,1.5472.2006,2.2739v.7776a2.9723,2.9723,0,0,0,0,2.3328v2.7216c-.24.2148-.191.5039-.2.778.0088.2741-.0388.5626.2.7773v1.5552c-.8274.6237-.1466,1.7142-.7455,2.4086-.47-.3224-.4125-.8719-.5343-1.5091-4.4095,5.6212-8.56,11.23-12.7715,16.7922q-22.5506,29.7825-45.0731,59.5862C139.0944,188.4527,137.0681,190.569,135.8117,193.2305Z"/><path class="a2d8af4b-73e2-4c00-bb1e-ea275a6c1846" d="M199.5646,96.8062c-1.8716.845-2.6541,2.7281-3.7855,4.2063-6.9243,9.0467-13.7049,18.2032-20.5658,27.2987Q165.0384,141.8,154.8048,155.2441q-11.0142,14.55-22.0155,29.11c-2.6827,3.54-5.4394,7.0252-8.0594,10.6106-.2336.32-1.8481,1.1028-.1335,1.7878a33.7794,33.7794,0,0,1-7.4125,1.5542c-.8776-.7431-.9282-.8042-.2072-1.8385,1.2955-1.8583,2.6838-3.6507,4.06-5.45,10.1816-13.3173,20.23-26.7352,30.3616-40.09q22.4139-29.5464,44.746-59.1544c.4678-.6212.9714-1.2134,1.481-1.7983.4135-.4746.826-1.0793,1.6085-.5732.6774.9414-.13,2.2289.7291,3.1279v2.7216C199.5178,95.6893,200.0051,96.3664,199.5646,96.8062Z"/><path class="a2d8af4b-73e2-4c00-bb1e-ea275a6c1846" d="M199.9626,103.0268a1.76,1.76,0,0,1,0-2.3328Z"/><path class="eb2eef58-51f9-4f46-82be-61c627cffab1" d="M199.5646,96.8062c.0759-.533-.1992-1.1559.398-1.5555v2.3328c-.1326.1812-.2609.17-.3855-.0086Z"/><path class="a2d8af4b-73e2-4c00-bb1e-ea275a6c1846" d="M199.5771,97.5749q.1926.0088.3855.0086v2.3329C199.2572,99.2308,199.698,98.3566,199.5771,97.5749Z"/><path class="e4375f11-261b-489c-8703-bdb574a5794e" d="M101.5949,199.8393a1.7584,1.7584,0,0,1,2.3328,0Z"/><path class="f30ec743-b9f4-4d10-82ac-b527b00cc72e" d="M199.6285,106.5412c-.0467-.3309-.0145-.6285.3341-.7928v.7776C199.8588,106.6991,199.7471,106.6963,199.6285,106.5412Z"/><path class="a1f13758-9311-422a-800c-ac15f5703880" d="M199.6285,106.5412q.1671-.0065.3341-.0152v.7777C199.5785,107.169,199.5886,106.8616,199.6285,106.5412Z"/><path class="abdb1017-4d4c-479f-9bf0-e23171085224" d="M93.43,199.8393c.1346-.3836.4446-.37.7633-.3374q.2041.1039.1426.2193c-.0418.0786-.0843.1181-.1282.1181Z"/><path class="e52ccefd-ccf6-4ff2-9235-10ef0765e2b5" d="M94.2076,199.8393q-.0014-.1692-.0144-.3377a.6515.6515,0,0,1,.792.3377Z"/><path class="bc551ce4-cdfa-4b47-ad9e-22f396122e52" d="M106.2605,199.8393c.2592-.4237.5184-.4676.7776,0Z"/><path class="b0f6ee01-e009-43b9-b40e-6bb97ffc1fe6" d="M99.6329.8374a55.9611,55.9611,0,0,1,11.7655.6756c-2.1279.54-3.136,2.3145-4.331,3.8983C91.362,26.2262,75.5529,46.9628,59.8842,67.8055c-.2722.3621-.539.7283-.8136,1.0884-.5025.6587-.7867,1.2167.3483,1.5458.526.1525,1.05.4869.2244,1.0273-3.014.4973-6.0486.1746-9.0717.2075-1.6325.0178-2.91.4362-3.6664,1.9606C38.0986,85.199,29.3768,96.83,20.5615,108.3905c-4.5446,5.9595-8.92,12.0479-13.6068,17.8985-.5449.68-1.023,1.5682-2.1681,1.2316a7.4042,7.4042,0,0,1-.7988-3.0613c-.5306-1.3364.3641-2.2127,1.0557-3.1169,8.9286-11.6733,17.74-23.4352,26.6171-35.1478q19.5915-25.8507,39.1376-51.736C78.992,23.61,87.2277,12.7936,95.3963,1.9263A2.0793,2.0793,0,0,1,97.3284.9519,5.8611,5.8611,0,0,0,99.6329.8374Z"/><path class="af43f5e9-918b-464f-b441-8b948c824c94" d="M1.2906,107.6909A66.2013,66.2013,0,0,1,1.3251,92.14q15.9915-21.259,32.0875-42.4392Q48.3574,29.961,63.32,10.2347c.8137-1.0708,1.3472-2.37,2.492-3.1824A72.7992,72.7992,0,0,1,80.9772,2.7684c.2992,1.1518-.5991,1.79-1.1571,2.5233Q57.5292,34.5779,35.3712,63.9648c-10.05,13.26-20.1238,26.5034-30.0842,39.8317-.737.9862-1.521,1.9339-2.2924,2.8911C2.5689,107.2157,2.1839,107.9139,1.2906,107.6909Z"/><path class="b64d6393-a672-47d6-8008-780fc228eaad" d="M79.7819,197.6478a71.6026,71.6026,0,0,1-10.8447-2.9613c-.7313-1.22.2825-1.9525.859-2.71,4.3134-5.6653,8.56-11.3814,12.87-17.0487,6.5043-8.5525,12.9593-17.1425,19.4738-25.6867,4.3562-5.7136,8.5688-11.5364,13.0417-17.16.6429-.8082.9021-1.8772,1.778-2.514,1.14-.4789,2.42.0253,3.5481-.5171a3.3078,3.3078,0,0,0,2.3217-3.3554,17.8687,17.8687,0,0,1,.2342-4.1746c2.4043-2.515,4.1439-5.5635,6.4886-8.13.12-.0514.2732-.1347.366-.0833,3.1159,1.7269,6.1657,3.5445,8.4649,6.3608-.0645,1.422-1.1274,2.2968-1.8907,3.3055q-26.7178,35.3047-53.44,70.606A22.8115,22.8115,0,0,1,79.7819,197.6478Z"/><path class="bee6e359-98d9-4248-8b12-8acc59274357" d="M65.8119,7.0523c-1.7069,3.58-4.4308,6.4523-6.7647,9.5851C51.6265,26.5984,44.1,36.48,36.6014,46.3834Q21.7982,65.9342,6.9779,85.4723,4.88,88.2418,2.816,91.0376c-.3917.5327-.75,1.0632-1.4909,1.1023a90.965,90.965,0,0,1,5.193-24.8676,35.5124,35.5124,0,0,1,2.55-6.2336,9.347,9.347,0,0,0,3.22-2.9874q11.19-14.886,22.4663-29.7069a17.7628,17.7628,0,0,0,3.0794-5.3072A92.1566,92.1566,0,0,1,65.8119,7.0523Z"/><path class="aa6934a9-419c-44d3-9edf-1505b92c9214" d="M79.7819,197.6478c1.2551-2.7913,3.3941-4.973,5.1909-7.3771q12.95-17.3268,26.0516-34.5394,13.0614-17.2434,26.16-34.4587a17.831,17.831,0,0,0,.9977-1.647.7487.7487,0,0,1,.7366-.0318,67.4276,67.4276,0,0,1,7.582,5.5708.772.772,0,0,1,.2272.7028c-5.3826,7.7857-11.303,15.1689-17.0049,22.7156q-9.1369,12.0932-18.2724,24.1875-8.9049,11.7816-17.8124,23.5613a7.169,7.169,0,0,0-1.78,3.1637A96.4639,96.4639,0,0,1,79.7819,197.6478Z"/><path class="a473e69b-14b5-4f29-9eae-d7c41cfd0117" d="M99.6329.8374C96.6854.6006,95.414,2.7158,93.9207,4.7156Q83.4053,18.7985,72.7556,32.781,58.5295,51.5672,44.28,70.3357,31.8651,86.7365,19.4822,103.1618c-4.7027,6.2109-9.4512,12.3872-14.1642,18.59-.6132.807-1.4028,1.552-1.33,2.7069a37.58,37.58,0,0,1-1.9292-9.7677,21.6779,21.6779,0,0,1,2.9543-4.0675Q20.1179,90.4025,35.4418,70.3464,57.0635,41.9112,78.6108,13.42c2.6515-3.5117,5.3566-6.983,7.926-10.556A3.2706,3.2706,0,0,1,87.9747,1.613L89.4555,1.52c.6333-.3528,1.3694.0188,2.01-.2851A47.3182,47.3182,0,0,1,99.6329.8374Z"/><path class="e715eeca-8009-4fa9-9711-488337e60896" d="M116.7588,129.8675c-.1078,2.012-1.774,3.0857-2.8181,4.4922q-9.85,13.2682-19.857,26.4194-11.9061,15.7122-23.8654,31.3842c-.57.7513-1.34,1.4373-1.2811,2.5232A74.6022,74.6022,0,0,1,57.2107,189.91c-.4927-.9322.0671-1.6239.571-2.2882q12.7875-16.8563,25.5336-33.7435c5.8161-7.6887,11.6868-15.3362,17.4227-23.0853.4221-.57.7269-1.2426,1.5279-1.3961,4.24-.1912,8.4783-.0558,12.7154-.0748A2.1016,2.1016,0,0,1,116.7588,129.8675Z"/><path class="fc88a941-9f20-4433-9ae4-0c44fbae1db4" d="M132.4162,6.1612a55.3051,55.3051,0,0,1,11.5351,4.73,39.8394,39.8394,0,0,1-4.0478,5.6595c-12.7864,17.0321-25.7143,33.9573-38.5176,50.9767-.854,1.1353-1.607,2.3449-2.5358,3.4264-1.3121.5332-2.6867.263-4.0318.28-3.1054.0394-6.2117.0295-9.3174.0011-.6961-.0064-1.5418.1121-1.8947-.6619-.3343-.7333.1963-1.36.6059-1.9415,1.193-1.6935,2.535-3.2738,3.7759-4.9306,10.0457-13.4128,20.2076-26.738,30.3182-40.1018,4.02-5.3137,7.9373-10.7074,12.1059-15.9077C130.9357,7.0377,131.2447,6.0048,132.4162,6.1612Z"/><path class="b30cac50-3d11-4857-994b-396f346e653a" d="M59.9928,71.0417c-2.671-.6852-2.6741-.6875-.9092-3.03q10.0595-13.35,20.1251-26.6954,14.57-19.2652,29.154-38.52a3.19,3.19,0,0,1,3.0354-1.2834A40.2191,40.2191,0,0,1,121.056,3.046c.5605.9837-.2214,1.6084-.692,2.2264Q108.4722,20.89,96.665,36.5709c-6.5327,8.6244-13.1035,17.22-19.5622,25.9007-1.5856,2.1311-3.2949,4.1677-4.8385,6.33-.47.659-1.206,1.2466.2487,1.8259.8454.3366.0861.7428-.373.9621-3.4747.3412-6.9519.1264-10.4259.1281A1.859,1.859,0,0,1,59.9928,71.0417Z"/><path class="b7c39987-5e25-4b53-9128-ca512a698931" d="M72.8235,71.04c-.5825-.5548-1.4039-.0531-2.1126-.5041.77-2.012,2.2921-3.5386,3.5441-5.2056,6.6838-8.8988,13.4633-17.7256,20.1925-26.59q12.6594-16.6768,25.2871-33.3779a5.1008,5.1008,0,0,0,1.3213-2.3163,51.027,51.027,0,0,1,11.36,3.1152c-3.04,3.1647-5.4524,6.8283-8.1,10.3-9.221,12.09-18.3626,24.24-27.5389,36.3633q-6.1245,8.0916-12.2677,16.169c-.3153.415-.768.8836-.5931,1.3627.259.7093,1.0141.3822,1.5472.385,4.47.0236,8.94.0108,13.41.0089,2.6048-1.1376,5.29-.6079,7.9541-.35a.5975.5975,0,0,1,.5554.8264,3.7483,3.7483,0,0,1-2.5955.5441q-14.635.0209-29.27-.0057C74.5753,71.7623,73.546,71.9284,72.8235,71.04Z"/><path class="bd648923-f4d8-4685-a392-f471f09a08f5" d="M107.4267,71.0639c-2.83-.6838-5.7051-.1259-8.553-.3137.8158-2.5256,2.779-4.2984,4.2882-6.3451,5.8-7.8662,11.7293-15.6375,17.6208-23.4362Q131.7131,26.5,142.6709,12.052a9.1741,9.1741,0,0,1,1.28-1.1613,52.8044,52.8044,0,0,1,9.7059,5.4421,20.6952,20.6952,0,0,0-2.7213,3.0205q-17.5081,23.1834-35.0384,46.35c-1.2463,1.6569-2.58,3.245-3.8035,4.9191a2.7031,2.7031,0,0,1-1.4576,1.2242C109.51,71.8167,108.3486,71.9279,107.4267,71.0639Z"/><path class="ae273faa-b131-4de5-9e4d-a5002c36bd5c" d="M101.5953,129.8688c-.832,2.5224-2.781,4.3123-4.3035,6.3551-7.8926,10.59-15.8847,21.1068-23.8631,31.6331Q65.8393,177.87,58.1849,187.8338a4.3175,4.3175,0,0,0-.9741,2.0758,55.5354,55.5354,0,0,1-9.29-5.1951c-.2548-1.1413.6386-1.765,1.1944-2.4964,12.5522-16.5174,24.9916-33.12,37.5975-49.597.8414-1.1,1.2613-2.5818,2.683-3.2122,3.5389-.2106,7.0764-.07,10.6126-.0806A1.882,1.882,0,0,1,101.5953,129.8688Z"/><path class="bbc2fa49-3e54-44da-ac7d-11f0ec555d76" d="M160.7291,21.2668a37.6157,37.6157,0,0,1,7.734,6.7209c-4.0412,5.6268-8.3017,11.09-12.4773,16.6154Q145.7957,58.0877,135.59,71.56q-4.9368,6.4968-9.8605,13.0032c-.6306.8308-1.1382,1.9581-2.5186,1.79-.2076-.1554-.4474-.3288-.4757-.5811-.3721-3.3252-2.0025-6.15-3.5573-9.0056-.1157-1.3293.8778-2.1135,1.5592-3.0148q16.98-22.4583,33.9686-44.9094A72.9458,72.9458,0,0,1,160.7291,21.2668Z"/><path class="b3a5a565-bd1a-4dec-9578-7899345e99ff" d="M40.131,179.3318a49.4271,49.4271,0,0,1-8.175-6.9828c-1.0235-1.4741-.5587-2.6839.4575-4.0135,9.4207-12.3264,18.722-24.7435,28.1059-37.0981a4.3175,4.3175,0,0,1,3.9311-1.91c3.2942.0979,6.5934.0218,9.89.0333a4.5081,4.5081,0,0,1,2.2792.2926c.7781.9573-.0785,1.5721-.5377,2.1839-4.9708,6.6247-9.9846,13.2171-14.9642,19.8354-6.8073,9.0472-13.7816,17.9688-20.4322,27.1341A1.5427,1.5427,0,0,1,40.131,179.3318Z"/><path class="a473e69b-14b5-4f29-9eae-d7c41cfd0117" d="M87.9747,1.613Q73.83,20.48,59.6785,39.3427c-5.19,6.8976-10.4422,13.749-15.6724,20.6165Q29.427,79.1021,14.8453,98.2429c-3.782,4.9742-7.5183,9.9832-11.2667,14.9828a4.7106,4.7106,0,0,1-1.52,1.4657c-.6869-1.0721-.3215-2.2719-.4146-3.416-.3546-.6321.018-1.3674-.285-2.0068l-.0685-1.5777c2.6381-2.3243,4.4393-5.3333,6.5409-8.0876q14.4773-18.974,28.8521-38.0261Q46.3635,48.7849,56,35.96,67.944,20.1587,79.9106,4.3749c.3871-.5117.7125-1.07,1.0666-1.6065A41.4435,41.4435,0,0,1,87.9747,1.613Z"/><path class="a33fa612-b927-498d-b158-c4ebe0a169fb" d="M160.7291,21.2668c-.9245,2.3914-2.855,4.082-4.3295,6.0783-6.187,8.3759-12.4916,16.665-18.7745,24.97q-8.7266,11.5346-17.5046,23.03a2.3243,2.3243,0,0,0-.678,1.3476,1.43,1.43,0,0,1-1.1952-.5062,17.289,17.289,0,0,0-6.5514-3.92,1.0112,1.0112,0,0,1-.7685-.781q12.9282-17.0844,25.8593-34.1665c5.0535-6.665,10.1486-13.2985,15.1859-19.9757.466-.6176.851-1.121,1.6846-1.01A38.9974,38.9974,0,0,1,160.7291,21.2668Z"/><path class="bb2cb24e-11f7-4ac5-b911-ded42a144edc" d="M40.131,179.3318c.7485-2.57,2.7433-4.3363,4.2629-6.3752q13.0491-17.5088,26.3-34.8668c2.0551-2.7065,4.3422-5.2388,6.0182-8.2216a26.9489,26.9489,0,0,1,12.0528,0c-.53,2.4479-2.4892,3.99-3.8541,5.88-3.3509,4.6407-6.925,9.12-10.3845,13.6824q-12.592,16.608-25.1586,33.2352c-.5041.6665-.9657,1.3652-1.447,2.0489A44.5926,44.5926,0,0,1,40.131,179.3318Z"/><path class="aa6934a9-419c-44d3-9edf-1505b92c9214" d="M188.4255,53.9791a66.0708,66.0708,0,0,1,5.2549,11.71,5.5581,5.5581,0,0,0-2.1385,1.9071c-9.3234,12.469-18.8013,24.8214-28.1489,37.2723q-3.49,4.6489-7.0707,9.23c-.5589.7121-1.29,1.9446-2.29.3155-.2838-5.384-.2307-10.765-.0389-16.143.4721-1.4851,1.824-2.3,2.7041-3.4846,9.7272-13.0894,19.68-26.009,29.4679-39.0531C186.7321,54.9784,187.0605,53.767,188.4255,53.9791Z"/><path class="b30cac50-3d11-4857-994b-396f346e653a" d="M12.4285,146.6317A51.158,51.158,0,0,1,7.851,136.5779c-.4085-.9521.1947-1.62.69-2.2806q15.25-20.34,30.6757-40.5474c1.7623-2.3172,3.4549-4.6883,5.2786-6.9566.5946-.74,1.3213-1.9547,2.3148-.2939.318,5.28.2368,10.5579.0557,15.8328-.6224,1.6958-2.1281,2.7246-3.1635,4.1165-9.58,12.8788-19.3648,25.6032-29.0126,38.4311C14.1219,145.6343,13.7943,146.8469,12.4285,146.6317Z"/><path class="b7c39987-5e25-4b53-9128-ca512a698931" d="M12.4285,146.6317c2.4549-2.1375,4.0329-4.9779,5.9774-7.5193q13.3206-17.41,26.54-34.8974a3.2139,3.2139,0,0,1,1.4742-1.1884c.7172.8217.5523,1.8326.5338,2.78a61.3874,61.3874,0,0,0,.8294,12.5468,2.0368,2.0368,0,0,1-.5677,1.3926c-9.024,11.6429-17.8009,23.4736-26.7449,35.1772-.5171.6766-.8419,1.896-2.1778,1.4061A57.8012,57.8012,0,0,1,12.4285,146.6317Z"/><path class="b64d6393-a672-47d6-8008-780fc228eaad" d="M188.4255,53.9791c-2.4485,2.1451-4.04,4.9774-5.9774,7.5257Q169.1725,78.9633,156,96.5a3.8892,3.8892,0,0,1-1.5657,1.0832,2.39,2.39,0,0,1-.55-1.8077c.0132-4.59-.1593-9.1822.0887-13.7666.6065-1.8458,2.1349-3.0523,3.2607-4.527,7.8594-10.2953,15.5856-20.6915,23.4884-30.9535.552-.7167.8555-1.8159,2.0726-1.8091A47.5836,47.5836,0,0,1,188.4255,53.9791Z"/><path class="a4e82400-8e4d-460c-b9a1-38e56e2bf455" d="M18.2934,156.33c2.0049-1.02,2.8487-3.0881,4.1067-4.7358,7.86-10.2938,15.6075-20.6727,23.4136-31.0074a14.7263,14.7263,0,0,1,1.6655-1.6167.9393.9393,0,0,1,.7333.5631,16.5419,16.5419,0,0,0,5.13,6.4384,1.84,1.84,0,0,1,.7249,1.114,3.1123,3.1123,0,0,1-.9026,2.2773C44.43,140.83,35.82,152.3906,27.0321,163.8172c-.4924.64-.8785,1.4884-1.9237,1.39A56.7762,56.7762,0,0,1,18.2934,156.33Z"/><path class="b0f6ee01-e009-43b9-b40e-6bb97ffc1fe6" d="M46.4211,85.9192c-.7443.0018-1.1327.5061-1.5323,1.0373q-12.7683,16.97-25.5535,33.9283c-3.4129,4.52-6.8889,8.9925-10.3021,13.5124a4.2709,4.2709,0,0,0-1.1821,2.18,43.4612,43.4612,0,0,1-3.0645-9.057c2.5052-1.4381,3.7365-4.0131,5.3846-6.1821,9.7613-12.8458,19.4409-25.7536,29.1551-38.6352,1.9733-2.6167,3.9816-5.207,5.962-7.8183a2.74,2.74,0,0,1,1.1331-1.0186,2.197,2.197,0,0,1,.5491,1.5986q.1,4.4277,0,8.8558A2.1957,2.1957,0,0,1,46.4211,85.9192Z"/><path class="ea8a3c48-c6b0-488c-9199-7d48f1b55652" d="M154.4348,115.08c2.145-1.17,3.1343-3.3814,4.5148-5.1959q16.5634-21.77,32.9824-43.65c.4631-.614.9284-1.1227,1.7484-.5447.549,2.5464,2.1366,4.7583,2.3846,7.4018-1.13.377-1.7083,1.3989-2.3522,2.2373-4.5528,5.9281-9.0243,11.9186-13.5324,17.8812Q167.766,109.63,155.33,126.0335a4.5138,4.5138,0,0,1-.9017.7094,1.9876,1.9876,0,0,1-.5276-1.409q-.131-4.4238.0011-8.8485A1.9661,1.9661,0,0,1,154.4348,115.08Z"/><path class="ece956cc-72c4-4b85-86cd-00ab7caa18b2" d="M172.4744,31.831a30.8225,30.8225,0,0,1,4.8454,5.49c-4.8834,6.5354-9.7617,13.0748-14.7223,19.5518-3.269,4.2682-6.4576,8.5966-9.7114,12.876a9.5414,9.5414,0,0,0-.8217,1.54c-1.5713,1.8508-3.7135,2.9874-5.6285,4.3924-4.4744,3.2827-8.8222,6.749-13.5636,9.6581a4.0931,4.0931,0,0,1-1.3674.7049c-1.218-.8083-.2907-1.5973.13-2.2338,1.5009-2.2684,3.1981-4.4,4.8479-6.5618,7.2679-9.5249,14.4529-19.1125,21.7032-28.65C161.91,43.7,165.5556,38.7425,169.325,33.88,170.0985,32.8826,170.7187,31.418,172.4744,31.831Z"/><path class="ae273faa-b131-4de5-9e4d-a5002c36bd5c" d="M172.4744,31.831c-1.9081.4493-2.6793,2.1581-3.6974,3.5037Q153.51,55.5117,138.3323,75.7558c-2.0908,2.7774-4.2242,5.5227-6.3067,8.3063-.3927.5249-1.075,1.02-.6094,1.8546.1915,1.187-.8392,1.5634-1.5263,1.9411-2.03,1.1159-2.6181,2.7465-2.5275,4.9747a22.7549,22.7549,0,0,1-.2206,6.5515c-.7752.9167-1.61,1.7821-2.4265,2.66-.4477.4818-1.1243,1.32-1.7465.0617-.4351-4.8563-.181-9.7183-.1437-14.5779a1.7128,1.7128,0,0,1,.4927-1.2189c2.7667-2.1182,4.3847-5.195,6.4458-7.882,8.8481-11.5354,17.5726-23.1657,26.34-34.7628,3.53-4.6695,7.037-9.357,10.6055-13.9971.4806-.6249.7913-1.5211,1.7538-1.68A21.6789,21.6789,0,0,1,172.4744,31.831Z"/><path class="b87b41cd-cefb-4d52-87f0-388d5136b37a" d="M25.1084,165.2077c2.8919-2.7917,5.0142-6.2019,7.4391-9.3618,6.8211-8.8882,13.526-17.8655,20.2921-26.796a4.3,4.3,0,0,0,.9833-2.068,2.4459,2.4459,0,0,1,2.0407.3364,17.1548,17.1548,0,0,0,7.7282,1.5367q26.8809-.0282,53.7619.0049c1.1241.0013,2.3579-.302,3.2914.6944-1.2547.6106-2.5953.1542-3.8863.313l-15.1635.0013-12.83,0q-6.0264,0-12.0529,0c-4.265-.0043-8.5316.0521-12.7944-.0506a3,3,0,0,0-2.7359,1.3684Q50.15,145.81,39.0835,160.4065c-1.9,2.5105-3.7524,5.0593-5.7232,7.5129-1.07,1.3325-1.985,2.6176-1.4043,4.4294A51.3561,51.3561,0,0,1,25.1084,165.2077Z"/><path class="eb5de756-2b0a-46b5-a037-977eea408200" d="M151.7689,71.2088c.7525-2.6357,2.8119-4.42,4.3576-6.5153q8.6518-11.7266,17.5556-23.2657c1.104-1.4272,1.8564-3.2506,3.6377-4.1072a40.061,40.061,0,0,1,5.4755,7.3988q-6.3828,8.3477-12.7631,16.6972c-4.6759,6.1434-9.3227,12.3089-14.0114,18.4425a10.5332,10.5332,0,0,1-1.5872,1.3943,3.2983,3.2983,0,0,1-.5159-2.3869c-.0388-1.351-.001-2.703-.0386-4.055A3.7863,3.7863,0,0,0,151.7689,71.2088Z"/><path class="b9a5fc97-dd08-4b07-86fa-a7650c6028bd" d="M199.2335,89.4012c-1.8293.69-2.5489,2.473-3.6025,3.855-6.563,8.6085-13.0051,17.3091-19.5268,25.9494q-15.78,20.9066-31.6086,41.7768-10.8486,14.335-21.7,28.6681c-1.79,2.3623-3.61,4.7028-5.4284,7.0436-.4008.5158-.9683.9772-.1832,1.6123-1.2525.5479-2.6308.381-3.9253.6908.1514-2.1977,1.9-3.4777,3.0586-5.0338,7.1182-9.5616,14.3452-19.0422,21.55-28.5394q13.67-18.02,27.3553-36.0272,12.9525-17.1071,25.8529-34.2536c2.0963-2.777,4.2092-5.5415,6.3107-8.3146a1.7838,1.7838,0,0,1,1.4076-.9092A8.868,8.868,0,0,1,199.2335,89.4012Z"/><path class="f8950100-b416-410a-94c3-ab8d4a2f0b6b" d="M37.8329,23.0372A4.354,4.354,0,0,1,36.811,26.443Q24.1719,43.1479,11.55,59.8657a2.4934,2.4934,0,0,1-2.4821,1.173,77.5575,77.5575,0,0,1,8.3706-15.6533A94.217,94.217,0,0,1,37.8329,23.0372Z"/><path class="a473e69b-14b5-4f29-9eae-d7c41cfd0117" d="M1.3591,109.2686c.5413.6052.2392,1.33.2851,2.0063A3.1089,3.1089,0,0,1,1.3591,109.2686Z"/><path class="a473e69b-14b5-4f29-9eae-d7c41cfd0117" d="M91.4651,1.235c-.6059.5428-1.3319.24-2.0091.2852A3.1339,3.1339,0,0,1,91.4651,1.235Z"/><path class="a9a8befd-7afa-44ba-99bb-793a06b71d0d" d="M135.8117,193.2305c-.6957-.711.0089-1.2162.3383-1.657q7.114-9.5193,14.2863-18.995c3.4494-4.5778,6.886-9.1654,10.3505-13.7319q13.08-17.241,26.1783-34.4687c3.4647-4.5661,6.8991-9.1552,10.363-13.7219.4246-.56.9472-1.0453,1.54-1.6911.5267.8165.2057,1.6025.349,2.3024-.9243,7.1426-1.92,14.2692-4.6413,21.0148-.934.2054-1.28,1.0485-1.7736,1.6976q-16.222,21.3271-32.3257,42.7435c-1.3773,1.8421-3.1845,3.4-3.9635,5.6648a79.2681,79.2681,0,0,1-14.7212,8.4478C139.842,191.7292,137.8075,192.4377,135.8117,193.2305Z"/><path class="ad08d926-87f0-4de5-a023-e11c128f9be2" d="M156.5129,182.388c-.8679-.7591-.0482-1.2973.3153-1.7792q16.2333-21.5187,32.51-43.0047c1.2435-1.643,2.495-3.2808,3.7859-4.8863.34-.4226.6605-1.3368,1.4515-.4358a97.9565,97.9565,0,0,1-22.2481,36.7934A127.17,127.17,0,0,1,156.5129,182.388Z"/><path class="ea8a3c48-c6b0-488c-9199-7d48f1b55652" d="M109.3905,199.3736c.6056-.54,1.33-.24,2.0063-.2844A3.1642,3.1642,0,0,1,109.3905,199.3736Z"/><path class="bffb0c1a-feca-48da-a6ff-1e7aa557da6f" d="M151.7689,71.2088c1.5713-.3216,2.1358.3674,2.38,1.9163.4285,2.7128-.0355,5.43.2844,8.1283q0,8.165.0009,16.33,0,8.748,0,17.4962l-.0069,11.6634c-1.0582,3.3362-1.5278,3.468-4.5243,1.3175-1.0449-.75-2.1163-1.4629-3.1756-2.1929a103.3431,103.3431,0,0,0-8.5459-6.2418q-4.12-3.33-8.5519-6.2325c-2.5805-.738-3.3039-1.6152-3.3363-4.1633-.0317-2.5-.0162-5.0015-.0031-7.5022a3.3279,3.3279,0,0,1,.5211-2.1994c.0227-2.6954.1507-5.3957.0279-8.0845a3.2909,3.2909,0,0,1,1.7327-3.2955,10.6242,10.6242,0,0,0,2.8437-2.2316Z"/><path class="bffb0c1a-feca-48da-a6ff-1e7aa557da6f" d="M120.6451,129.5543c-18.5545-.0157-37.1091-.0769-55.6633-.0109-3.97.0142-7.7132-.5091-11.1589-2.5612a18.4327,18.4327,0,0,1-6.3437-8.0125c-1.356-4.2717-.8958-8.6794-.98-13.0466-.0185-.9656-.0524-1.931-.0792-2.8965q0-8.5538.0005-17.1074l0-12.0528A3.0747,3.0747,0,0,1,49.9,71.1c3.3633.0486,6.7284-.0318,10.0926-.058l12.8307-.0012q17.3016.0115,34.6032.0234l3.5007.4214a19.3222,19.3222,0,0,1,8.5151,5.207,19.5564,19.5564,0,0,1,3.8754,9.6168q.0224,8.1649.0448,16.33a2.9514,2.9514,0,0,1,.6211,2.3566q.0423,6.9662.0052,13.9324a3.3049,3.3049,0,0,1-.6276,2.3726c-.0268,1.5276-.0787,3.0553-.0738,4.5827C123.2936,127.7617,122.5732,129.0843,120.6451,129.5543Z"/><path class="e790a1cf-c879-47f9-8ca3-d2a169f78709" d="M123.3614,121.3006q.0006-9.3307.0013-18.6616c1.5234-.6226,1.655-2.7885,3.4493-3.1107a79.2465,79.2465,0,0,1,.0031,8.3431,5.1969,5.1969,0,0,0,2.8152,5.522C127.8805,116.2985,126.1726,119.2369,123.3614,121.3006Z"/></svg>