<svg id="eBp4QZjhulw1" xmlns="http://www.w3.org/2000/svg" xmlns:xlink="http://www.w3.org/1999/xlink" viewBox="0 0 187.0866 187.0866" shape-rendering="geometricPrecision" text-rendering="geometricPrecision"><style><![CDATA[#eBp4QZjhulw2 {animation: eBp4QZjhulw2_c_o 1000ms linear infinite alternate forwards}@keyframes eBp4QZjhulw2_c_o { 0% {opacity: 1} 100% {opacity: 0}}]]></style><g id="eBp4QZjhulw2" transform="matrix(1 0 0 1 0 0.000001)"><ellipse id="eBp4QZjhulw3" rx="83.5839" ry="79.8583" transform="matrix(1 0 0 1 92.5459 94.7707)" fill="rgb(228,228,228)" stroke="none" stroke-width="1"/><path id="eBp4QZjhulw4" d="M146.3165,134.57C146.305978,146.192343,138.821906,156.48959,127.770423,160.087326C116.718941,163.685063,104.607202,159.767103,97.756653,150.378336C90.906104,140.989569,90.870869,128.259942,97.669338,118.833395C104.467807,109.406848,116.55767,105.421898,127.6289,108.9584C138.764831,112.523411,146.319615,122.877342,146.3165,134.57Z" fill="rgb(188,188,188)" stroke="none" stroke-width="1"/><path id="eBp4QZjhulw5" d="M165.07,107.1134L165.06,107.1134C157.773067,104.002397,150.200725,101.607782,142.45,99.9634C133.499675,98.051926,124.372155,97.093251,115.22,97.1034C99.124282,97.047851,83.164585,100.051111,68.19,105.9534Q63.765,107.7082,59.58,109.7834C59.84,108.7734,60.12,107.7834,60.42,106.7834C60.48,106.5934,60.53,106.4034,60.59,106.2134C60.77,105.6334,60.96,105.0434,61.16,104.4534L61.46,103.5834C61.56,103.2934,61.67,102.9934,61.77,102.7034C61.99,102.1034,62.21,101.5034,62.45,100.9034C62.53,100.6934,62.61,100.4834,62.7,100.2734C62.79,100.0334,62.88,99.7834,62.99,99.5534C63.09,99.3034,63.19,99.0534,63.3,98.8034C63.31,98.7734,63.33,98.7434,63.34,98.7134C57.051567,99.111029,50.801173,99.973383,44.64,101.2934C36.885729,102.941177,29.310076,105.339129,22.02,108.4534C12.31,94.5834,7.41,76.8034,9.4,54.8834C10.261246,45.333879,12.567532,35.970492,16.24,27.1134C31.653338,15.548484,49.658619,7.924131,68.69,4.9034C69.54,4.7134,70.41,4.5334,71.27,4.3634C79.731283,2.666864,88.340314,1.81601,96.97,1.8234C125.43,1.8234,151.36,10.9034,170.85,25.7834C174.517841,34.642011,176.823951,44.004683,177.69,53.5534C179.67,75.4734,174.78,93.2534,165.07,107.1134Z" fill="rgb(51,51,51)" stroke="none" stroke-width="1"/><path id="eBp4QZjhulw6" d="M121.4046,61.11C121.328326,64.378468,119.419347,67.325906,116.4679,68.7322Q113.7469,68.5351,110.9703,68.5369Q108.7089,68.5369,106.4832,68.6647C97.464617,69.162739,88.609185,71.279145,80.34,74.9128C79.331469,75.349892,78.442149,76.021931,77.7463,76.8728C77.743297,76.878264,77.739255,76.883088,77.7344,76.887Q75.6638,79.4805,73.7723,82.198C73.5774,82.4785,73.3865,82.7554,73.1955,83.0359C73.1478,83.1033,73.104,83.1708,73.0603,83.2347C72.8494,83.5506,72.6386,83.8631,72.4277,84.179C72.1891,84.5447,71.9504,84.9139,71.7117,85.2831C71.5725,85.5031,71.4293,85.7231,71.2901,85.947C71.2301,86.0393,71.1707,86.1352,71.115,86.227C70.9639,86.4684,70.8127,86.7098,70.665,86.9512L70.5218,87.1855C70.3786,87.4234,70.2354,87.6577,70.0962,87.8955C69.8973,88.2255,69.7024,88.5555,69.5114,88.8896C69.3364,89.1878,69.1653,89.4896,68.9943,89.7877C68.7556,90.2067,68.5209,90.6256,68.2943,91.0477C68.1312,91.3424,67.9721,91.6406,67.813,91.9388C67.638,92.2654,67.4669,92.5921,67.2959,92.9188Q66.4307,94.5908,65.6331,96.2949C65.4978,96.5825,65.3665,96.8736,65.2353,97.1612Q64.2328,99.3445,63.3577,101.5812C63.2463,101.8512,63.1429,102.1212,63.0395,102.3906C62.936,102.6498,62.8406,102.9125,62.7451,103.1752C62.6575,103.4024,62.57,103.6332,62.4904,103.8639Q62.1325,104.8385,61.8023,105.8201C61.6948,106.136,61.5874,106.452,61.488,106.768C61.3806,107.0839,61.2812,107.3999,61.1817,107.7194Q60.8774,108.6726,60.6009,109.6329C60.5409,109.8388,60.4816,110.0447,60.4259,110.2506C60.1159,111.3299,59.8332,112.4127,59.5667,113.5061C57.877826,120.458705,57.025786,127.588211,57.0287,134.743C57.0287,136.0992,57.0605,137.4447,57.1242,138.7866L57.1361,139.0813C57.288281,142.322943,57.618949,145.553739,58.1266,148.759Q58.3534,150.1861,58.6199,151.6026C60.416789,160.959369,63.662057,169.978629,68.2387,178.3352C68.3023,178.4523,68.3659,178.5695,68.4336,178.6867C69.986962,181.516524,71.685148,184.264402,73.5214,186.9194C56.121513,179.896534,40.801534,168.549699,29.0114,153.9528C28.9955,153.9351,28.9835,153.9173,28.9714,153.9028C28.7924,153.6792,28.6174,153.4555,28.4423,153.2319C26.370446,150.579276,24.43462,147.823161,22.6423,144.9742L22.6423,144.9707Q21.7652,143.5754,20.9398,142.1554L20.9358,142.1519C12.764645,128.235691,8.448051,112.393992,8.43,96.2562C8.427427,86.6641,9.959765,77.133381,12.9689,68.0255C13.613143,66.15902,14.915687,64.591396,16.6326,63.6162Q18.8046,62.3434,21.0402,61.1662Q23.2421,60.0053,25.5035,58.9332Q28.5169,57.5061,31.6296,56.2386C31.9757,56.1002,32.3218,55.9617,32.6679,55.8268Q34.6249,55.0494,36.6259,54.3429C37.1868,54.1441,37.7517,53.9488,38.3166,53.7571C39.0766,59.2882,43.289,63.8714,48.9696,65.7282C53.798885,63.350973,56.905242,58.485153,57.029,53.1039C57.030583,51.768589,56.82801,50.440884,56.4283,49.1668C61.023467,48.370402,65.659843,47.833452,70.3154,47.5585L70.3194,47.5585Q74.0547,47.3348,77.8577,47.3349C88.023729,47.322846,98.152913,48.556846,108.0187,51.0093Q110.6621,51.6693,113.2458,52.44C114.2602,52.7418,115.2666,53.0542,116.2691,53.3843C119.324143,54.757722,121.320832,57.761484,121.4046,61.11Z" fill="rgb(188,188,188)" stroke="none" stroke-width="1"/><path id="eBp4QZjhulw7" d="M65.9438,25.8832C65.94138,32.742843,63.02636,39.278829,57.9244,43.8641C54.409162,47.05993,50.054259,49.185254,45.3721,49.99C38.514606,51.211304,31.457493,49.538857,25.8774,45.37C24.273563,44.170686,22.820915,42.7815,21.5512,41.2328C20.518398,39.980537,19.613867,38.627793,18.8512,37.1949C16.997192,33.713256,16.030706,29.828009,16.0374,25.8835C16.0374,25.1371,16.0726,24.3995,16.1385,23.6704C17.431455,10.94373,28.201267,1.294079,40.993,1.401C42.442973,1.398334,43.890462,1.521024,45.3193,1.7677C46.0711,1.8928,46.8098,2.0567,47.5393,2.2509C49.802656,2.849911,51.969798,3.766373,53.9762,4.973Q54.1412,5.0702,54.3062,5.1801C61.517609,9.59175,65.923301,17.429404,65.9438,25.8832Z" fill="rgb(188,188,188)" stroke="none" stroke-width="1"/></g></svg>