<svg id="Capa_1" data-name="Capa 1" xmlns="http://www.w3.org/2000/svg" viewBox="0 0 187.09 187.09"><defs><style>.cls-1{fill:#e4e4e4;}.cls-2{fill:#6b6b6b;}.cls-3{fill:#bcbcbc;}.cls-4{fill:#333;}</style></defs><ellipse class="cls-1" cx="92.55" cy="94.77" rx="83.58" ry="79.86"/><path class="cls-2" d="M124.41,25.92c1.12.37,2.24.76,3.35,1.17a10.76,10.76,0,0,0-3.35-1.17Z"/><path class="cls-3" d="M146.32,134.57A26.89,26.89,0,1,1,127.63,109,26.89,26.89,0,0,1,146.32,134.57Z"/><path class="cls-2" d="M124.41,25.92c1.12.37,2.24.76,3.35,1.17a10.76,10.76,0,0,0-3.35-1.17Z"/><path class="cls-2" d="M124.41,25.92c1.12.37,2.24.76,3.35,1.17a10.76,10.76,0,0,0-3.35-1.17Z"/><path class="cls-2" d="M124.41,25.92c1.12.37,2.24.76,3.35,1.17a10.76,10.76,0,0,0-3.35-1.17Z"/><path class="cls-2" d="M124.41,25.92c1.12.37,2.24.76,3.35,1.17a10.76,10.76,0,0,0-3.35-1.17Z"/><path class="cls-4" d="M165.07,107.12h0A122.52,122.52,0,0,0,142.45,100a129.69,129.69,0,0,0-27.23-2.86,127.06,127.06,0,0,0-47,8.86q-4.43,1.76-8.61,3.82c.26-1,.54-2,.84-3,.06-.19.11-.38.17-.57.18-.59.37-1.18.57-1.76l.3-.88.31-.87c.22-.6.44-1.21.68-1.8.08-.22.16-.43.25-.64s.18-.48.29-.72.2-.5.31-.75c.57-1.37,1.19-2.73,1.84-4.07l.39-.79c.52-1,1.07-2.09,1.63-3.11l.51-.91.47-.82.69-1.16.51-.82c.18-.31.38-.62.57-.92l.42-.65.14-.22.44-.67.17-.25.42-.62c.23-.34.46-.68.7-1l.62-.87c0-.06.09-.12.13-.19l.57-.77c1.23-1.66,2.53-3.3,3.89-4.89h0A6.76,6.76,0,0,1,80,74.24a77.91,77.91,0,0,1,25.66-5.75c1.45-.08,2.92-.12,4.4-.12q2.73,0,5.4.18a8,8,0,0,0,4.84-7,8,8,0,0,0-5-7.11,10.65,10.65,0,0,0-3-.87q-2.53-.7-5.13-1.32a130,130,0,0,0-29.59-3.38q-3.73,0-7.4.2h0A128.82,128.82,0,0,0,56.5,50.54a11.54,11.54,0,0,1,.59,3.62c0,5-3.18,9.27-7.91,11.63-5.57-1.71-9.71-5.93-10.45-11l-1.66.54c-1.31.44-2.61.89-3.89,1.37l-1,.38c0-.42,0-.83,0-1.25a47.71,47.71,0,0,1,1.12-10.32,24.06,24.06,0,0,0,4.38,1.39,26.32,26.32,0,0,0,9.53.32,23.86,23.86,0,0,0,11.14-4.64,17.28,17.28,0,0,0,7.12-13.63c0-6.61-4.12-12.41-10.33-15.69l-.29-.15A23.88,23.88,0,0,0,49.1,11,123.32,123.32,0,0,1,71.27,4.36,130.16,130.16,0,0,1,97,1.82c28.46,0,54.39,9.08,73.88,24a95,95,0,0,1,6.84,27.77C179.67,75.47,174.78,93.25,165.07,107.12Z"/><path class="cls-4" d="M121.56,95.27c-.53-1-1.07-2.08-1.64-3.11-.16-.3-.33-.6-.5-.9l-.48-.82c-.22-.39-.45-.78-.68-1.16l-.51-.83-.57-.92-.42-.65-.14-.22c-.15-.22-.3-.44-.44-.66l-.18-.26c-.13-.21-.27-.41-.41-.61l-.7-1-.62-.87-.14-.18c-.18-.26-.37-.51-.56-.77q-1.86-2.51-3.89-4.89s0,0,0,0a6.75,6.75,0,0,0-2.55-1.8,78.17,78.17,0,0,0-25.65-5.76c-1.46-.07-2.92-.11-4.4-.11q-2.73,0-5.4.18a8,8,0,0,1-4.84-7,8,8,0,0,1,5-7.12,11,11,0,0,1,3-.87q2.53-.71,5.13-1.31a129.54,129.54,0,0,1,29.6-3.39c2.49,0,5,.07,7.4.21h0a129.11,129.11,0,0,1,13.63,1.48A11.27,11.27,0,0,0,130,55.5c0,4.94,3.17,9.27,7.91,11.62,5.57-1.71,9.71-5.93,10.45-11,.56.17,1.11.35,1.66.54,1.31.43,2.6.89,3.88,1.36l1,.38c0-.41,0-.83,0-1.24a47.8,47.8,0,0,0-1.12-10.33,24.89,24.89,0,0,1-4.38,1.4,26.78,26.78,0,0,1-5.64.6,27.5,27.5,0,0,1-3.89-.28,23.77,23.77,0,0,1-11.14-4.65,17.28,17.28,0,0,1-7.13-13.62c0-6.61,4.13-12.41,10.34-15.69l.29-.16A24.3,24.3,0,0,1,138,12.35,123,123,0,0,0,115.82,5.7,130.26,130.26,0,0,0,90.11,3.16c-28.46,0-54.38,9.07-73.87,24A94.57,94.57,0,0,0,9.4,54.88c-2,21.92,2.91,39.7,12.62,53.57h0a122.28,122.28,0,0,1,22.62-7.16,130.29,130.29,0,0,1,27.23-2.85"/><path class="cls-3" d="M121.4,61.11a8.65,8.65,0,0,1-4.93,7.62c-1.82-.13-3.65-.19-5.5-.19-1.51,0-3,0-4.49.12a75.43,75.43,0,0,0-26.14,6.25,6.88,6.88,0,0,0-2.59,2l0,0q-2.07,2.6-4,5.31L73.2,83l-.14.19-.63,1-.72,1.1-.42.67-.18.28c-.15.24-.3.48-.44.72l-.15.24-.42.71c-.2.33-.4.66-.59,1s-.34.6-.52.9l-.7,1.26-.48.89-.51,1c-.58,1.11-1.13,2.24-1.67,3.38l-.39.86q-1,2.19-1.88,4.42c-.11.27-.22.54-.32.81s-.2.52-.29.79-.18.45-.26.68c-.24.65-.47,1.31-.69,2-.1.32-.21.63-.31,1s-.21.63-.31,1c-.2.64-.4,1.27-.58,1.91-.06.21-.12.41-.17.62-.31,1.08-.6,2.16-.86,3.26A89.35,89.35,0,0,0,57,134.74c0,1.36,0,2.7.09,4l0,.29a86,86,0,0,0,1,9.68c.15,1,.31,1.9.49,2.84a91.79,91.79,0,0,0,9.62,26.74l.19.35a95.94,95.94,0,0,0,5.09,8.23A110.32,110.32,0,0,1,29,154l0,0-.53-.67q-3.11-4-5.8-8.26h0c-.58-.93-1.15-1.87-1.7-2.81h0A90.28,90.28,0,0,1,13,68a8.13,8.13,0,0,1,3.66-4.41q2.18-1.27,4.41-2.45c1.47-.78,3-1.52,4.46-2.24q3-1.43,6.13-2.69l1-.41c1.3-.52,2.62-1,4-1.49l1.69-.58c.76,5.53,5,10.11,10.65,12A14.45,14.45,0,0,0,57,53.1a13.18,13.18,0,0,0-.6-3.93,123.69,123.69,0,0,1,13.89-1.61h0q3.74-.23,7.54-.22A124.26,124.26,0,0,1,108,51q2.64.66,5.23,1.43c1,.3,2,.61,3,.94A8.72,8.72,0,0,1,121.4,61.11Z"/><path class="cls-3" d="M65.94,25.88a24.15,24.15,0,0,1-8,18A24.91,24.91,0,0,1,45.37,50a25.3,25.3,0,0,1-4.38.38,25.58,25.58,0,0,1-6.35-.8,24.49,24.49,0,0,1-4.93-1.84,25.22,25.22,0,0,1-3.83-2.36,24.61,24.61,0,0,1-4.33-4.14A24.07,24.07,0,0,1,16,25.88c0-.74,0-1.48.1-2.21A25,25,0,0,1,45.32,1.77c.75.12,1.49.29,2.22.48A25,25,0,0,1,54,5l.33.21A24.34,24.34,0,0,1,65.94,25.88Z"/></svg>