<svg id="b98e545b-8ac7-4e28-aa35-18b5677456e4" data-name="Capa 1" xmlns="http://www.w3.org/2000/svg" viewBox="0 0 200 200"><defs><style>.a0fb8926-707e-4cde-9beb-c5b15d44ec3d{fill:#dbf4f7;}.e44afb2c-8baf-4907-a2ff-57098c4bf225{fill:#0aa76d;}.afed42ff-bac8-4210-8ccf-6ceeb170c11d{fill:#fed05b;}.aca451ca-4078-4e6a-9a62-162051c3f2a7{fill:#918290;}.b79546f1-e177-4c8b-ae6e-747d61303a9b{fill:#22b27f;}.a93a2e92-e1a0-4008-b6f7-b3a42d91bd7e{fill:#fc7d43;}.a96b5dca-425b-4773-b024-b52e25688bbf{fill:#e9f8f9;}.b9fce088-1d25-4e4b-bc18-72642fe51133{fill:#928291;}.e63ae68e-c06f-4f05-b9f0-22d5b21d5af0{fill:#dc7e66;}.b74accfe-5dd0-49a5-8d0a-f8d2df9c400c{fill:#fec345;}.aea4d272-3c5a-42db-9e52-b958df52fe70{fill:#fd7d44;}.e6b57a22-a265-4455-9ce9-55d1cbb30533{fill:#7a6d78;}.eda62482-108b-430c-9019-334ae6dd6210{fill:#c4583a;}.bf0c5e01-8cfb-4ffa-94a4-186903bb629e{fill:#d66a4d;}.bad9ac4a-7a91-4461-8bdf-58b22d012a95{fill:#fdf7de;}</style></defs><path class="a0fb8926-707e-4cde-9beb-c5b15d44ec3d" d="M76.7236,2.5983c1.7112-1.4215,3.8751-1.8706,5.851-2.7237h6.2341A31.1,31.1,0,0,1,93.164,1.3224c6.7267,3.362,10.6614,8.6405,10.8345,16.364.0484,2.1572.0156,2.158,1.8984,1.3043a13.1541,13.1541,0,0,1,17.5369,7.1c.4747,1.2093.9316,1.6324,2.268,1.1811,5.15-1.7393,11.5257,1.54,13.5192,7.2063.7959,2.2623.2262,3.1854-2.1036,3.1881q-6.424.0075-12.8481-.0043c-.9826-5.8719-6.6771-9.6866-13.0491-8.4629-1.7416.3344-2.3906-.0995-3.1026-1.5468-3.1713-6.4459-9.57-9.1555-16.3159-7.0284-2.3361.7366-2.9483.3309-2.9753-2.2027a15.8292,15.8292,0,0,0-2.0648-7.1727C84.5734,7.0234,80.93,4.4831,76.7236,2.5983Z"/><path class="e44afb2c-8baf-4907-a2ff-57098c4bf225" d="M188.8916,186.444a26.9656,26.9656,0,0,0,3.2624.0435,7.2551,7.2551,0,0,1,8.09,4.6958V194.69c-1.5379,3.49-4.1569,5.0118-8.003,4.7124-2.6412-.2056-5.3089-.07-7.9647-.0874.0033-.5625.4478-.73.84-.9594a5.9778,5.9778,0,0,0,3.034-5.4888c.01-3.2176-2-5.0116-4.6593-6.29Z"/><path class="afed42ff-bac8-4210-8ccf-6ceeb170c11d" d="M155.7427,153.7793c-6.9808-.8954-13.0783-3.5984-17.8708-8.872a39.67,39.67,0,0,1-9.6133-20.7023c-3.4891-21.2318-.196-41.5371,9.3292-60.7751,3.2213-6.5061,7.4628-12.3228,14.2051-15.7669a4.9273,4.9273,0,0,1,.5358-.2013c.0135.6613.584.7846,1.01,1.0514a25.19,25.19,0,0,1,4.4593,3.3966c5.5418,5.4972,9.1765,12.2448,11.8311,19.4118,5.6643,15.2922,8.3513,31.0636,6.4988,47.4449A52.1566,52.1566,0,0,1,170.19,138.66a26.3455,26.3455,0,0,1-8.4834,9.6587q-.0263-15.4755-.0689-30.9509c-.0047-1.0717.32-1.4514,1.4347-1.4972,1.9921-.0818,4.0571-.1091,5.633-1.6635,1.2012-1.1848,2.4236-2.3507,3.5749-3.5826a2.8961,2.8961,0,0,0,.08-4.321c-1.1946-1.1377-2.7624-1.0775-4.17.219-.9062.8346-1.7836,1.7055-2.6184,2.6112-.96,1.0413-2.2035.81-3.2805.5872-1.16-.24-.61-1.4148-.6136-2.16-.04-7.657-.0234-15.3143-.0275-22.9716a9.2437,9.2437,0,0,0-.0735-1.7449,2.9531,2.9531,0,0,0-3.197-2.5116,2.8291,2.8291,0,0,0-2.569,2.9416c-.005,1.1032.0157,2.2069-.0146,3.3092-.0132.48.2,1.1062-.4936,1.3153a1.3482,1.3482,0,0,1-1.3751-.5269c-1.0075-1.0114-1.9889-2.052-3.0419-3.0139a3.02,3.02,0,0,0-4.0537-.06,2.9824,2.9824,0,0,0,.016,4.1891c1.1967,1.2784,2.4531,2.5023,3.712,3.7205a4.4543,4.4543,0,0,0,3.4471,1.5526c1.7407-.1583,1.8269.76,1.8194,2.1008-.0421,7.5921-.02,15.1845-.02,22.7769,0,5.2965,0,5.2515-5.2741,5.237a3.0459,3.0459,0,0,1-2.9539-1.75c-1.0131-1.8088-2.0907-3.5842-3.2057-5.3324-1.1761-1.844-2.709-2.2958-4.2342-1.3446-1.5444.9631-1.8652,2.337-.8026,4.2074,1.3121,2.31,2.7131,4.57,4.123,6.822a7.1124,7.1124,0,0,0,5.2922,3.2129,32.3736,32.3736,0,0,0,5.6251.22c1.116-.0187,1.453.4084,1.4455,1.4844C155.77,138.856,155.7635,146.3177,155.7427,153.7793Z"/><path class="aca451ca-4078-4e6a-9a62-162051c3f2a7" d="M14.7708,186.4641q-.0094-22.2234-.0186-44.4465c.4761-.3323.9316-.7,1.4307-.9925,9.9487-5.8388,19.8826-11.7034,29.8668-17.4808,3.1272-1.81,6.0783-3.9449,9.465-5.2953a10.3191,10.3191,0,0,1,1.6143.6357q17.4755,10.4556,34.9386,20.932a2.7135,2.7135,0,0,1,1.4492,2.6654c-.0534,14.6594-.0362,29.3189-.0378,43.9784l-38.18.006c.0067-12.1231-.0079-24.2463.0426-36.3692.0076-1.8239-.6507-2.5695-2.5061-2.5521-6.288.0592-12.5769.0165-18.8654.0255-2.2731.0032-2.766.4729-2.7668,2.7035q-.0072,18.0874.0114,36.1749Zm61.2357-19.4275,5.9123-.0375c2.331.0124,4.6626,0,6.9929.0463,1.4452.0288,2.1918-.5974,2.1919-2.0613q0-7.6739.0055-15.3478c.0021-.9379-.3066-1.9043-1.2282-1.941-2.68-.1067-5.3874-.5118-8.0491.2263l-5.7032.0394c-2.6486-.82-5.3494-.3655-8.0212-.24-.8375.0394-1.127.93-1.1249,1.7982q.0187,7.7636.0028,15.5272c-.0022,1.3777.6765,2.0013,2.034,1.9926C71.3483,167.0244,73.6774,167.0361,76.0065,167.0366Z"/><path class="b79546f1-e177-4c8b-ae6e-747d61303a9b" d="M55.299,186.4665q19.09-.003,38.18-.0057,6.0487.0036,12.0976.0067,29.1178.0259,58.2357.0486c4.3487.002,8.6975-.04,13.0462-.0617l6.6316.1223c2.6592,1.2785,4.6691,3.0725,4.6593,6.29a5.9778,5.9778,0,0,1-3.034,5.4888c-.3918.23-.8363.3969-.84.9594-1.1669.0169-2.3338.0484-3.5007.0485q-86.0807.0036-172.1613-.0057a12.828,12.828,0,0,1-2.8968-.2026,6.39,6.39,0,0,1,1.2668-12.6184c2.5936-.0841,5.1909-.0526,7.7867-.0725q8.2222-.0078,16.4439-.0152Z"/><path class="a93a2e92-e1a0-4008-b6f7-b3a42d91bd7e" d="M55.5136,118.2488c-3.3856,1.3506-6.3367,3.4859-9.4639,5.2955-9.9842,5.7774-19.9181,11.642-29.8668,17.4808-.4991.293-.9546.66-1.4307.9925-1.5793.8737-3.1525,1.7584-4.7386,2.6194-3.1866,1.73-6.7489.8482-8.4475-2.0777-1.7042-2.9354-.7074-6.4026,2.4431-8.33,3.5271-2.1582,7.0792-4.2753,10.62-6.4113.4059-.1929.8291-.3557,1.2157-.5811,5.8076-3.3854,11.6208-6.7611,17.4116-10.1749q12.0226-7.0875,24.0172-14.223a7.57,7.57,0,0,1,7.03.8221,22.3963,22.3963,0,0,0,4.9122,2.7106,15.2059,15.2059,0,0,0,3.7382,2.3013c6.2218,3.6818,12.43,7.3867,18.67,11.0382,4.8458,2.8357,9.7307,5.6047,14.5983,8.4034,3.4231,2.0635,6.8643,4.0977,10.263,6.2007a6.0063,6.0063,0,0,1-1.6931,11.1215,6.1132,6.1132,0,0,1-4.6347-.88c-1.5105-.8559-3.0388-1.68-4.56-2.518a3.3447,3.3447,0,0,0-.4405-.372q-21.8709-12.864-43.7451-25.7221a1.918,1.918,0,0,0-2.1888-.1518C57.9889,116.6145,56.5316,117.1007,55.5136,118.2488Z"/><path class="a96b5dca-425b-4773-b024-b52e25688bbf" d="M76.7236,2.5983c4.2067,1.8848,7.85,4.4251,10.038,8.6505a15.8292,15.8292,0,0,1,2.0648,7.1727c.027,2.5336.6392,2.9393,2.9753,2.2027,6.7456-2.1271,13.1446.5825,16.3159,7.0284.712,1.4473,1.361,1.8812,3.1026,1.5468,6.372-1.2237,12.0665,2.591,13.0491,8.4629q-42.8216.0031-85.6432.0048c-2.4426,0-3.0427-.9624-2.1236-3.2983A11.0554,11.0554,0,0,1,47.99,26.99c.9778.0667.9347-.5986,1.1147-1.2259A14.9214,14.9214,0,0,1,64.5282,14.6815c.13.0055.26.0069.3892.007,1.0612.0006,2.2647,1.1176,3.06.3126.6813-.69.6627-2.0447,1.0243-3.0808A15.87,15.87,0,0,1,76.7236,2.5983Z"/><path class="b9fce088-1d25-4e4b-bc18-72642fe51133" d="M57.274,102.8393q-12.0074,7.1135-24.0173,14.2224c-5.7908,3.4138-11.604,6.79-17.4116,10.1749-.3866.2254-.81.3882-1.2157.5811-.0441-.8389-.1264-1.6788-.1273-2.5187q-.0249-24.534-.0332-49.0679c4.208-2.2341,8.4023-4.4953,12.63-6.6929,2.8514-1.4822,5.75-2.8744,8.6269-4.3069a6.9226,6.9226,0,0,0,.9042.6987c6.3561,3.4454,12.6957,6.9226,19.1,10.2765a2.614,2.614,0,0,1,1.5341,2.7593C57.232,86.9235,57.2635,94.8815,57.274,102.8393ZM41.75,97.65A12.7747,12.7747,0,0,0,54.4768,85.28c.09-6.8185-5.62-12.8867-12.5094-12.8-7.1228.09-12.4245,5.1354-12.6929,12.5832C29.0334,91.7554,34.99,97.62,41.75,97.65Z"/><path class="e63ae68e-c06f-4f05-b9f0-22d5b21d5af0" d="M176.8586,186.4544c-4.3487.0217-8.6975.0637-13.0462.0617q-29.1179-.0141-58.2356-.0485.0283-9.7892.0562-19.5785,23.8491.0111,47.6981.0259c.7759.0006,1.5517.0562,2.328.0861l6.123.0039q7.5159-.0513,15.0319-.1024Q176.8364,176.6788,176.8586,186.4544Z"/><path class="b74accfe-5dd0-49a5-8d0a-f8d2df9c400c" d="M161.7067,148.3186A26.3455,26.3455,0,0,0,170.19,138.66a52.1566,52.1566,0,0,0,5.9379-19.8935c1.8525-16.3813-.8345-32.1527-6.4988-47.4449-2.6546-7.167-6.2893-13.9146-11.8311-19.4118a25.19,25.19,0,0,0-4.4593-3.3966c-.4261-.2668-.9966-.39-1.01-1.0514,6.47-2.7908,11.91-.6444,16.7335,3.7115,6.2231,5.62,9.9005,12.9088,12.8476,20.5883a106.3792,106.3792,0,0,1,6.7166,31.75c.6214,10.0009-.1236,19.7986-3.582,29.2593-2.6767,7.3222-6.9707,13.4463-13.84,17.4669a23.4952,23.4952,0,0,1-9.5,3.1654Q161.7057,150.8609,161.7067,148.3186Z"/><path class="aea4d272-3c5a-42db-9e52-b958df52fe70" d="M35.7256,65.2313c-2.8772,1.4325-5.7755,2.8247-8.6269,4.3069-4.2275,2.1976-8.4218,4.4588-12.63,6.6929-1.437.5682-2.83,1.3062-4.4678,1.0367A6.0226,6.0226,0,0,1,8.1838,65.815c4.8681-2.57,9.7694-5.0771,14.6529-7.618,5.2282-2.72,10.4718-5.4118,15.6682-8.1916a6.618,6.618,0,0,1,6.6542-.0413c10.0385,5.2609,20.1037,10.4708,30.1432,15.73,2.7212,1.4255,4.0829,3.9289,3.6691,6.4716a6.1688,6.1688,0,0,1-5.1876,5.0965c-1.6408.29-3.0309-.4469-4.4735-.9942q-13.2337-6.94-26.4679-13.8792a1.8569,1.8569,0,0,0-1.859-.0411C39.242,63.33,37.3154,63.974,35.7256,65.2313Z"/><path class="e6b57a22-a265-4455-9ce9-55d1cbb30533" d="M105.633,166.8891q-.028,9.7893-.0562,19.5785-6.0489-.0034-12.0977-.0068c.0015-14.66-.0157-29.3193.0377-43.9787a2.7135,2.7135,0,0,0-1.4492-2.6654Q74.59,129.3644,57.129,118.8847a10.3191,10.3191,0,0,0-1.6143-.6357c1.0169-1.1483,2.4742-1.6345,3.7089-2.4562a1.918,1.918,0,0,1,2.1888.1518q21.8715,12.8628,43.7451,25.7221a3.3447,3.3447,0,0,1,.4405.372Q105.6157,154.4635,105.633,166.8891Z"/><path class="eda62482-108b-430c-9019-334ae6dd6210" d="M161.7067,148.3186q-.0009,2.5422-.0018,5.0843c-.0566,4.5344-.2042,9.07.077,13.6022l-6.1228-.004c.2785-4.4053.1162-8.8135.0838-13.2213.0206-7.4621.0268-14.9238.0787-22.3852.0075-1.076-.3295-1.5031-1.4455-1.4844a32.3736,32.3736,0,0,1-5.6251-.22,7.1124,7.1124,0,0,1-5.2922-3.2129c-1.41-2.2521-2.8109-4.5125-4.123-6.822-1.0626-1.87-.7418-3.2443.8026-4.2074,1.5252-.9512,3.0581-.4994,4.2342,1.3446,1.115,1.7482,2.1926,3.5236,3.2057,5.3324a3.0459,3.0459,0,0,0,2.9539,1.75c5.2742.0145,5.2741.0595,5.2741-5.237,0-7.5924-.0218-15.1848.02-22.7769.0075-1.3412-.0787-2.2591-1.8194-2.1008a4.4543,4.4543,0,0,1-3.4471-1.5526c-1.2589-1.2182-2.5153-2.4421-3.712-3.7205a2.9824,2.9824,0,0,1-.016-4.1891,3.02,3.02,0,0,1,4.0537.06c1.053.9619,2.0344,2.0025,3.0419,3.0139a1.3482,1.3482,0,0,0,1.3751.5269c.6936-.2091.48-.8349.4936-1.3153.03-1.1023.01-2.206.0146-3.3092a2.8291,2.8291,0,0,1,2.569-2.9416,2.9531,2.9531,0,0,1,3.197,2.5116,9.2437,9.2437,0,0,1,.0735,1.7449c.0041,7.6573-.0128,15.3146.0275,22.9716.0039.7451-.5461,1.92.6136,2.16,1.077.2226,2.3207.4541,3.2805-.5872.8348-.9057,1.7122-1.7766,2.6184-2.6112,1.4077-1.2965,2.9755-1.3567,4.17-.219a2.8961,2.8961,0,0,1-.08,4.321c-1.1513,1.2319-2.3737,2.3978-3.5749,3.5826-1.5759,1.5544-3.6409,1.5817-5.633,1.6635-1.1144.0458-1.4394.4255-1.4347,1.4972Q161.7054,132.8431,161.7067,148.3186Z"/><path class="e6b57a22-a265-4455-9ce9-55d1cbb30533" d="M35.7256,65.2313c1.59-1.2573,3.5164-1.9018,5.2578-2.8836a1.8569,1.8569,0,0,1,1.859.0411Q56.0763,69.3285,69.31,76.268q.0174,7.7664.0349,15.5325-.0032,2.9243-.0064,5.8486-.0614,4.3619-.1226,8.7236a22.4535,22.4535,0,0,1-4.9123-2.7119,7.57,7.57,0,0,0-7.03-.8221c-.01-7.9572-.0419-15.9152-.01-23.8729A2.614,2.614,0,0,0,55.73,76.2065c-6.4041-3.3539-12.7437-6.8311-19.1-10.2765A6.9226,6.9226,0,0,1,35.7256,65.2313Z"/><path class="bf0c5e01-8cfb-4ffa-94a4-186903bb629e" d="M69.339,97.649q.003-2.9243.0062-5.8485,17.9192-.0014,35.8383-.0025c.3895,0,.78-.0153,1.1684.01a2.9631,2.9631,0,0,1,3.0034,2.7337,3.0125,3.0125,0,0,1-2.8684,3.0937c-3.2169.3467-3.2177.3467-3.2166,3.5171q.0012,3.7006.0061,7.4014l-5.8666.0122c.0036-3.1153-.0563-6.2326.0408-9.345.0413-1.3249-.4337-1.6451-1.665-1.5987-2.2684.0854-4.5462.1053-6.8125-.0053-1.4145-.069-1.9379.2965-1.8764,1.8091.1238,3.0455.042,6.0994.0451,9.15l-5.8735-.0391c.0046-3.0415-.0769-6.0867.05-9.1232.0637-1.5253-.4843-1.8382-1.8845-1.798C76.0713,97.7121,72.7042,97.6482,69.339,97.649Z"/><path class="e6b57a22-a265-4455-9ce9-55d1cbb30533" d="M97.41,108.566l5.8666-.0122c2.8172.2021,3.025.415,3.0164,3.2612q-.0245,8.1493-.07,16.2989c-4.8676-2.7983-9.7525-5.5673-14.5983-8.403-6.24-3.6515-12.448-7.3564-18.6708-11.0384l8.315-.1357,5.8739.0393Z"/><path class="bf0c5e01-8cfb-4ffa-94a4-186903bb629e" d="M176.8586,186.4544q-.0222-9.7758-.0446-19.5518a83.0325,83.0325,0,0,1,10.467-.1311c1.4851.0123,1.6288,1.1459,1.6234,2.36-.0257,5.7706-.0121,11.5414-.0127,17.3121l-5.4015.1327Z"/><path class="bad9ac4a-7a91-4461-8bdf-58b22d012a95" d="M55.2989,186.4665l-24.0844-.0174q-.008-18.0874-.0113-36.1749c.0008-2.2306.4937-2.7,2.7668-2.7035,6.2885-.009,12.5774.0337,18.8654-.0255,1.8554-.0174,2.5137.7282,2.5061,2.5521C55.291,162.22,55.3056,174.3434,55.2989,186.4665Z"/><path class="bad9ac4a-7a91-4461-8bdf-58b22d012a95" d="M81.832,147.9215c2.6615-.738,5.3691-.3329,8.0489-.2262.9216.0367,1.23,1.0031,1.2282,1.941q-.0171,7.674-.0055,15.3478c0,1.4639-.7467,2.09-2.1919,2.0613-2.33-.0465-4.6619-.0339-6.9932-.0463Q81.875,157.46,81.832,147.9215Z"/><path class="bad9ac4a-7a91-4461-8bdf-58b22d012a95" d="M76.0065,167.0366c-2.3291,0-4.6582-.0122-6.9872.0027-1.3575.0087-2.0362-.6149-2.034-1.9926q.012-7.7637-.0028-15.5272c-.0021-.8685.2874-1.7588,1.1249-1.7982,2.6718-.1258,5.3726-.5805,8.021.24Q76.0672,157.4988,76.0065,167.0366Z"/><path class="e6b57a22-a265-4455-9ce9-55d1cbb30533" d="M76.0065,167.0366q.0609-9.5379.1219-19.0756l5.7035-.04q.0433,9.5388.0866,19.0776Z"/><path class="aea4d272-3c5a-42db-9e52-b958df52fe70" d="M41.75,97.65c-6.76-.03-12.7165-5.8947-12.4754-12.5863.2684-7.4478,5.57-12.4932,12.6929-12.5832,6.8889-.0871,12.599,5.9811,12.5094,12.8A12.7747,12.7747,0,0,1,41.75,97.65Zm6.8572-12.5469a6.7493,6.7493,0,1,0-6.7445,6.6929A6.9344,6.9344,0,0,0,48.6071,85.1032Z"/></svg>