<svg id="a46f45c0-5db9-4195-98a1-1dfe6968c751" data-name="Capa 1" xmlns="http://www.w3.org/2000/svg" viewBox="0 0 200 200"><defs><style>.a398a6a6-e4f3-4560-b544-3a6aab4286df{fill:#dbf4f7;}.f1cf7f48-047a-426b-95e4-5d5f6456223a{fill:#0aa76d;}.e3384e1d-7418-4015-8674-6ac68462397b{fill:#fed05b;}.ba404609-6ee7-41dd-9ea1-0981fbb8acca{fill:#918290;}.fbaa3c29-2573-4f58-b7e3-54a26ed427dc{fill:#22b27f;}.b71e898c-e4dc-400a-ab79-511374a94659{fill:#056766;}.bcc3e6c0-e6bf-4d81-903e-6459a73e5d18{fill:#e9f8f9;}.bd2109ac-55b4-42b9-8d54-caec676a244a{fill:#928291;}.b80f76ee-016a-4553-9b82-e974788b4790{fill:#dc7e66;}.f49ece47-aed3-4065-8149-d9974f10a01b{fill:#fec345;}.ba89d7dd-c098-4f44-8fac-b64422fd4604{fill:#7a6d78;}.ab4b2ede-518c-44df-a05a-b9c22972aa26{fill:#c4583a;}.b9a023df-6fce-4bc1-bd4d-d4f412d5b789{fill:#48b592;}.fc728537-9155-4e4e-8c48-caa2342d7326{fill:#d66a4d;}.aa04851e-9f5c-492c-bfd2-4bdfc9f70845{fill:#fdf7de;}</style></defs><path class="a398a6a6-e4f3-4560-b544-3a6aab4286df" d="M76.4592,3.5619C78.1705,2.14,80.3344,1.6912,82.31.8381h6.2341A31.1017,31.1017,0,0,1,92.9,2.286c6.7266,3.362,10.6613,8.6405,10.8344,16.364.0484,2.1572.0157,2.1579,1.8984,1.3043a13.154,13.154,0,0,1,17.5369,7.1c.4747,1.2093.9317,1.6324,2.2681,1.181,5.15-1.7392,11.5256,1.54,13.5192,7.2064.7959,2.2623.2261,3.1853-2.1037,3.1881q-6.4239.0075-12.848-.0043c-.9827-5.8719-6.6771-9.6866-13.0492-8.463-1.7415.3345-2.3905-.0995-3.1026-1.5467-3.1713-6.446-9.57-9.1555-16.3159-7.0284-2.336.7366-2.9482.3309-2.9753-2.2028a15.83,15.83,0,0,0-2.0647-7.1726C84.3091,7.987,80.6659,5.4466,76.4592,3.5619Z"/><path class="f1cf7f48-047a-426b-95e4-5d5f6456223a" d="M188.6272,187.4075a26.9457,26.9457,0,0,0,3.2624.0435,7.255,7.255,0,0,1,8.09,4.6959v3.5067c-1.5378,3.49-4.1569,5.0118-8.003,4.7124-2.6411-.2056-5.3089-.07-7.9647-.0874.0033-.5625.4478-.73.84-.9594a5.9781,5.9781,0,0,0,3.0341-5.4888c.01-3.2176-2-5.0117-4.6593-6.29Z"/><path class="e3384e1d-7418-4015-8674-6ac68462397b" d="M155.4783,154.7429c-6.9807-.8954-13.0782-3.5985-17.8708-8.872a39.6714,39.6714,0,0,1-9.6133-20.7023c-3.489-21.2318-.1959-41.5371,9.3293-60.7751,3.2213-6.5061,7.4627-12.3228,14.2051-15.7669a4.92,4.92,0,0,1,.5358-.2014c.0134.6614.5839.7847,1.01,1.0515a25.1968,25.1968,0,0,1,4.4593,3.3966c5.5417,5.4972,9.1764,12.2448,11.8311,19.4118,5.6642,15.2922,8.3513,31.0636,6.4987,47.4449a52.1547,52.1547,0,0,1-5.9378,19.8935,26.3457,26.3457,0,0,1-8.4835,9.6587q-.0261-15.4755-.0689-30.951c-.0047-1.0716.32-1.4513,1.4348-1.4971,1.992-.0819,4.057-.1091,5.633-1.6636,1.2011-1.1847,2.4235-2.3506,3.5748-3.5825a2.8961,2.8961,0,0,0,.08-4.3211c-1.1946-1.1377-2.7623-1.0774-4.17.2191-.9062.8346-1.7836,1.7055-2.6185,2.6112-.96,1.0412-2.2034.81-3.28.5871-1.16-.24-.61-1.4147-.6137-2.16-.04-7.657-.0233-15.3144-.0274-22.9716a9.2433,9.2433,0,0,0-.0735-1.7449,2.9531,2.9531,0,0,0-3.197-2.5116,2.829,2.829,0,0,0-2.569,2.9416c-.0051,1.1031.0157,2.2068-.0146,3.3092-.0132.48.2,1.1061-.4936,1.3153a1.3484,1.3484,0,0,1-1.3752-.527c-1.0075-1.0113-1.9889-2.0519-3.0418-3.0139a3.02,3.02,0,0,0-4.0538-.06,2.9824,2.9824,0,0,0,.016,4.1891c1.1967,1.2784,2.4531,2.5023,3.712,3.7205a4.4546,4.4546,0,0,0,3.4471,1.5526c1.7407-.1584,1.8269.76,1.82,2.1007-.0421,7.5922-.02,15.1846-.02,22.777,0,5.2965,0,5.2515-5.2742,5.237a3.0463,3.0463,0,0,1-2.9539-1.75c-1.0131-1.8088-2.0906-3.5842-3.2057-5.3325-1.176-1.844-2.709-2.2957-4.2341-1.3446-1.5445.9632-1.8653,2.3371-.8027,4.2074,1.3121,2.31,2.7132,4.57,4.1231,6.8221a7.1122,7.1122,0,0,0,5.2921,3.2129,32.3648,32.3648,0,0,0,5.6252.22c1.116-.0187,1.4529.4085,1.4454,1.4844C155.5054,139.82,155.4992,147.2813,155.4783,154.7429Z"/><path class="ba404609-6ee7-41dd-9ea1-0981fbb8acca" d="M14.5065,187.4277q-.0095-22.2234-.0187-44.4465c.4761-.3323.9316-.7,1.4308-.9925,9.9487-5.8388,19.8825-11.7034,29.8668-17.4808,3.1272-1.81,6.0783-3.9449,9.4649-5.2953a10.3152,10.3152,0,0,1,1.6143.6357Q74.34,130.3039,91.8032,140.78a2.7133,2.7133,0,0,1,1.4492,2.6654c-.0533,14.6593-.0361,29.3189-.0377,43.9784l-38.18.006c.0066-12.1231-.0079-24.2463.0425-36.3692.0076-1.8239-.6506-2.57-2.5061-2.5521-6.2879.0592-12.5768.0164-18.8653.0255-2.2731.0032-2.766.4729-2.7669,2.7035q-.007,18.0874.0114,36.1749ZM75.7422,168l5.9122-.0375c2.3311.0123,4.6626,0,6.993.0462,1.4451.0288,2.1918-.5973,2.1918-2.0612q0-7.6739.0055-15.3478c.0021-.9379-.3066-1.9043-1.2281-1.941-2.68-.1067-5.3875-.5118-8.0491.2263l-5.7033.0393c-2.6485-.82-5.3494-.3654-8.0212-.24-.8375.0394-1.127.93-1.1249,1.7982q.0189,7.7636.0028,15.5273c-.0021,1.3777.6765,2.0012,2.034,1.9925C71.0839,167.9879,73.4131,168,75.7422,168Z"/><path class="fbaa3c29-2573-4f58-b7e3-54a26ed427dc" d="M55.0346,187.43q19.09-.003,38.18-.0058,6.0489.0036,12.0977.0067,29.1179.0261,58.2356.0486c4.3488.0021,8.6975-.04,13.0463-.0616l6.6315.1223c2.6592,1.2784,4.6692,3.0725,4.6594,6.29a5.9781,5.9781,0,0,1-3.0341,5.4888c-.3918.23-.8363.3969-.84.9594-1.1669.0168-2.3338.0484-3.5007.0484Q94.43,200.3308,8.35,200.3214a12.829,12.829,0,0,1-2.8969-.2027A6.39,6.39,0,0,1,6.72,187.5c2.5935-.0841,5.1908-.0525,7.7866-.0724q8.2223-.0078,16.444-.0152Z"/><path class="b71e898c-e4dc-400a-ab79-511374a94659" d="M55.2493,119.2124c-3.3856,1.3506-6.3367,3.4859-9.4639,5.2955-9.9843,5.7774-19.9181,11.642-29.8668,17.4808-.4992.2929-.9547.66-1.4308.9925-1.5793.8737-3.1525,1.7584-4.7385,2.6194-3.1867,1.73-6.7489.8482-8.4476-2.0777-1.7042-2.9355-.7074-6.4027,2.4431-8.33,3.5271-2.1581,7.0793-4.2752,10.62-6.4112.4059-.1929.8291-.3558,1.2158-.5812,5.8075-3.3853,11.6208-6.761,17.4116-10.1748q12.0225-7.0875,24.0172-14.223a7.57,7.57,0,0,1,7.03.8221,22.3986,22.3986,0,0,0,4.9122,2.7106,15.2043,15.2043,0,0,0,3.7383,2.3012c6.2218,3.6819,12.43,7.3868,18.67,11.0382,4.8459,2.8358,9.7308,5.6048,14.5983,8.4035,3.4231,2.0635,6.8644,4.0977,10.263,6.2007A6.0062,6.0062,0,0,1,114.5279,146.4a6.1131,6.1131,0,0,1-4.6347-.88c-1.51-.8559-3.0388-1.68-4.5595-2.518a3.3606,3.3606,0,0,0-.4406-.3721q-21.8707-12.8638-43.7451-25.722a1.9178,1.9178,0,0,0-2.1887-.1518C57.7246,117.5781,56.2672,118.0643,55.2493,119.2124Z"/><path class="bcc3e6c0-e6bf-4d81-903e-6459a73e5d18" d="M76.4592,3.5619c4.2067,1.8847,7.85,4.4251,10.0381,8.6505A15.83,15.83,0,0,1,88.562,19.385c.0271,2.5337.6393,2.9394,2.9753,2.2028,6.7457-2.1271,13.1446.5824,16.3159,7.0284.7121,1.4472,1.3611,1.8812,3.1026,1.5467,6.3721-1.2236,12.0665,2.5911,13.0492,8.463q-42.8215.0031-85.6433.0048c-2.4426,0-3.0427-.9625-2.1235-3.2983a11.0553,11.0553,0,0,1,11.4873-7.3789c.9777.0667.9347-.5986,1.1146-1.2259A14.9217,14.9217,0,0,1,64.2639,15.645c.13.0056.2594.007.3892.0071,1.0612.0006,2.2646,1.1176,3.06.3126.6812-.69.6626-2.0447,1.0242-3.0808A15.87,15.87,0,0,1,76.4592,3.5619Z"/><path class="bd2109ac-55b4-42b9-8d54-caec676a244a" d="M57.01,103.8029q-12.0073,7.1135-24.0172,14.2224c-5.7908,3.4138-11.6041,6.79-17.4116,10.1748-.3867.2254-.81.3883-1.2158.5812-.0441-.8389-.1264-1.6788-.1272-2.5187q-.0249-24.534-.0332-49.0679c4.2079-2.2341,8.4022-4.4954,12.63-6.6929,2.8515-1.4822,5.75-2.8745,8.627-4.307a6.9139,6.9139,0,0,0,.9042.6987c6.356,3.4454,12.6956,6.9227,19.1,10.2766a2.614,2.614,0,0,1,1.534,2.7593C56.9676,87.8871,56.9991,95.8451,57.01,103.8029Zm-15.524-5.1892a12.7748,12.7748,0,0,0,12.7269-12.37c.09-6.8185-5.62-12.8867-12.5095-12.8C34.58,73.5342,29.2785,78.58,29.01,86.0273,28.769,92.719,34.7258,98.5839,41.4856,98.6137Z"/><path class="b80f76ee-016a-4553-9b82-e974788b4790" d="M176.5943,187.418c-4.3488.0217-8.6975.0637-13.0463.0616q-29.1177-.0139-58.2355-.0485.0282-9.789.0562-19.5785,23.8489.0111,47.698.026c.7759.0006,1.5518.0561,2.328.0861l6.123.0039q7.5159-.0515,15.0319-.1025Q176.572,177.6424,176.5943,187.418Z"/><path class="f49ece47-aed3-4065-8149-d9974f10a01b" d="M161.4423,149.2822a26.3457,26.3457,0,0,0,8.4835-9.6587,52.1547,52.1547,0,0,0,5.9378-19.8935c1.8526-16.3813-.8345-32.1527-6.4987-47.4449-2.6547-7.167-6.2894-13.9146-11.8311-19.4118a25.1968,25.1968,0,0,0-4.4593-3.3966c-.4262-.2668-.9967-.39-1.01-1.0515,6.47-2.7908,11.91-.6443,16.7334,3.7116,6.2232,5.62,9.9,12.9087,12.8476,20.5883a106.3786,106.3786,0,0,1,6.7166,31.75c.6214,10.0009-.1235,19.7986-3.582,29.2592-2.6767,7.3222-6.9707,13.4464-13.84,17.467a23.4931,23.4931,0,0,1-9.5,3.1653Q161.4414,151.8245,161.4423,149.2822Z"/><path class="b71e898c-e4dc-400a-ab79-511374a94659" d="M35.4613,66.1948c-2.8773,1.4325-5.7755,2.8248-8.627,4.307-4.2275,2.1975-8.4218,4.4588-12.63,6.6929-1.4371.5682-2.8306,1.3062-4.4679,1.0367A6.0226,6.0226,0,0,1,7.9194,66.7786c4.8681-2.57,9.7694-5.0771,14.6529-7.618,5.2282-2.72,10.4719-5.4118,15.6682-8.1917a6.618,6.618,0,0,1,6.6542-.0412c10.0386,5.2608,20.1038,10.4708,30.1432,15.73,2.7212,1.4255,4.0829,3.9289,3.6691,6.4716a6.1688,6.1688,0,0,1-5.1876,5.0965c-1.6407.29-3.0309-.4469-4.4734-.9942q-13.2339-6.94-26.468-13.8793a1.8569,1.8569,0,0,0-1.8589-.041C38.9776,64.293,37.0511,64.9376,35.4613,66.1948Z"/><path class="ba89d7dd-c098-4f44-8fac-b64422fd4604" d="M105.3687,167.8526q-.0281,9.7893-.0562,19.5786-6.0491-.0034-12.0978-.0069c.0016-14.66-.0156-29.3193.0377-43.9786a2.7133,2.7133,0,0,0-1.4492-2.6654q-17.4774-10.4523-34.9386-20.932a10.3152,10.3152,0,0,0-1.6143-.6357c1.0169-1.1483,2.4743-1.6345,3.709-2.4562a1.9178,1.9178,0,0,1,2.1887.1518Q83.02,129.771,104.8931,142.63a3.3606,3.3606,0,0,1,.4406.3721Q105.3514,155.4271,105.3687,167.8526Z"/><path class="ab4b2ede-518c-44df-a05a-b9c22972aa26" d="M161.4423,149.2822q-.0009,2.5422-.0017,5.0842c-.0567,4.5345-.2043,9.07.0769,13.6023l-6.1228-.004c.2785-4.4053.1163-8.8135.0838-13.2213.0207-7.4621.0269-14.9239.0787-22.3853.0075-1.0759-.3294-1.5031-1.4454-1.4844a32.3648,32.3648,0,0,1-5.6252-.22,7.1122,7.1122,0,0,1-5.2921-3.2129c-1.41-2.2521-2.811-4.5125-4.1231-6.8221-1.0626-1.87-.7418-3.2442.8027-4.2074,1.5251-.9511,3.0581-.4994,4.2341,1.3446,1.1151,1.7483,2.1926,3.5237,3.2057,5.3325a3.0463,3.0463,0,0,0,2.9539,1.75c5.2743.0145,5.2742.0595,5.2742-5.237,0-7.5924-.0218-15.1848.02-22.777.0074-1.3411-.0788-2.2591-1.82-2.1007a4.4546,4.4546,0,0,1-3.4471-1.5526c-1.2589-1.2182-2.5153-2.4421-3.712-3.7205a2.9824,2.9824,0,0,1-.016-4.1891,3.02,3.02,0,0,1,4.0538.06c1.0529.962,2.0343,2.0026,3.0418,3.0139a1.3484,1.3484,0,0,0,1.3752.527c.6936-.2092.48-.8349.4936-1.3153.03-1.1024.0095-2.2061.0146-3.3092a2.829,2.829,0,0,1,2.569-2.9416,2.9531,2.9531,0,0,1,3.197,2.5116,9.2433,9.2433,0,0,1,.0735,1.7449c.0041,7.6572-.0128,15.3146.0274,22.9716.0039.7451-.546,1.92.6137,2.16,1.077.2226,2.3207.4541,3.28-.5871.8349-.9057,1.7123-1.7766,2.6185-2.6112,1.4077-1.2965,2.9754-1.3568,4.17-.2191a2.8961,2.8961,0,0,1-.08,4.3211c-1.1513,1.2319-2.3737,2.3978-3.5748,3.5825-1.576,1.5545-3.641,1.5817-5.633,1.6636-1.1144.0458-1.44.4255-1.4348,1.4971Q161.4411,133.8066,161.4423,149.2822Z"/><path class="ba89d7dd-c098-4f44-8fac-b64422fd4604" d="M35.4613,66.1948c1.59-1.2572,3.5163-1.9018,5.2578-2.8835a1.8569,1.8569,0,0,1,1.8589.041q13.234,6.94,26.468,13.8793.0173,7.7663.0348,15.5324-.0031,2.9243-.0063,5.8487-.0615,4.3618-.1227,8.7236a22.4558,22.4558,0,0,1-4.9123-2.7119,7.57,7.57,0,0,0-7.03-.8221c-.0105-7.9572-.042-15.9152-.01-23.8729a2.614,2.614,0,0,0-1.534-2.7593c-6.4042-3.3539-12.7438-6.8312-19.1-10.2766A6.9139,6.9139,0,0,1,35.4613,66.1948Z"/><path class="b9a023df-6fce-4bc1-bd4d-d4f412d5b789" d="M69.0746,98.6126q.0032-2.9244.0062-5.8486Q87,92.7626,104.9191,92.7616c.39,0,.78-.0153,1.1684.01a2.9631,2.9631,0,0,1,3.0035,2.7337,3.0126,3.0126,0,0,1-2.8685,3.0937c-3.2169.3467-3.2177.3467-3.2166,3.5171q.0012,3.7007.0061,7.4013l-5.8666.0122c.0036-3.1153-.0563-6.2326.0408-9.345.0413-1.3248-.4336-1.645-1.6649-1.5987-2.2684.0855-4.5463.1053-6.8125-.0052-1.4145-.069-1.938.2965-1.8765,1.8091.1239,3.0455.0421,6.0993.0451,9.15L81.0039,109.5c.0046-3.0416-.0769-6.0867.05-9.1232.0638-1.5254-.4842-1.8382-1.8844-1.798C75.8069,98.6757,72.44,98.6118,69.0746,98.6126Z"/><path class="ba89d7dd-c098-4f44-8fac-b64422fd4604" d="M97.1454,109.53l5.8666-.0122c2.8173.2022,3.025.4151,3.0165,3.2613q-.0246,8.1492-.07,16.2989c-4.8676-2.7983-9.7525-5.5673-14.5984-8.4031-6.24-3.6514-12.4479-7.3563-18.6707-11.0383l8.3149-.1357q2.9367.02,5.8739.0393Q92.012,109.5348,97.1454,109.53Z"/><path class="fc728537-9155-4e4e-8c48-caa2342d7326" d="M176.5943,187.418q-.0224-9.7758-.0447-19.5519a83.0325,83.0325,0,0,1,10.467-.131c1.4851.0123,1.6288,1.1459,1.6234,2.36-.0256,5.7707-.0121,11.5415-.0126,17.3122l-5.4015.1327Z"/><path class="aa04851e-9f5c-492c-bfd2-4bdfc9f70845" d="M55.0346,187.43,30.95,187.4127q-.0081-18.0875-.0114-36.1749c.0009-2.2306.4938-2.7,2.7669-2.7035,6.2885-.0091,12.5774.0337,18.8653-.0255,1.8555-.0174,2.5137.7282,2.5061,2.5521C55.0267,163.1838,55.0412,175.307,55.0346,187.43Z"/><path class="aa04851e-9f5c-492c-bfd2-4bdfc9f70845" d="M81.5677,148.8851c2.6614-.738,5.369-.3329,8.0489-.2262.9215.0367,1.23,1.0031,1.2281,1.941q-.0171,7.6739-.0055,15.3478c0,1.4639-.7467,2.09-2.1918,2.0612-2.33-.0464-4.6619-.0339-6.9933-.0462Q81.6106,158.4239,81.5677,148.8851Z"/><path class="aa04851e-9f5c-492c-bfd2-4bdfc9f70845" d="M75.7422,168c-2.3291-.0006-4.6583-.0123-6.9873.0026-1.3575.0087-2.0361-.6148-2.034-1.9925q.012-7.7637-.0028-15.5273c-.0021-.8685.2874-1.7588,1.1249-1.7982,2.6718-.1257,5.3727-.58,8.021.24Q75.803,158.4624,75.7422,168Z"/><path class="ba89d7dd-c098-4f44-8fac-b64422fd4604" d="M75.7422,168q.0608-9.5379.1218-19.0757l5.7036-.0394q.0432,9.5388.0865,19.0776Z"/><path class="b9a023df-6fce-4bc1-bd4d-d4f412d5b789" d="M41.4856,98.6137c-6.76-.03-12.7166-5.8947-12.4755-12.5864.2684-7.4478,5.57-12.4931,12.6929-12.5831,6.889-.0871,12.599,5.9811,12.5095,12.8A12.7748,12.7748,0,0,1,41.4856,98.6137Zm6.8572-12.5469A6.7493,6.7493,0,1,0,41.5983,92.76,6.9346,6.9346,0,0,0,48.3428,86.0668Z"/></svg>