<svg id="b94bf7c0-a541-4850-a539-58d24309ea45" data-name="Capa 1" xmlns="http://www.w3.org/2000/svg" viewBox="0 0 200 200"><defs><style>.a64d7313-f83a-4d69-b859-18454447dea7{fill:#48b592;}.b326de4d-97bf-4fad-b997-c49c4c189c59{fill:#056766;}.e062b24f-0ad4-49d5-847e-a22a5e7f5c70{fill:#e5bd93;}.e8bda813-5816-4593-8fdb-c86cfa3f47f9{fill:#4bb8eb;}.b777cdae-352a-4121-a634-94af9d270bc6{fill:#fde9b6;}.a8ee0d61-54cf-4222-8f06-d3a3788f50b3{fill:#4bb7ea;}</style></defs><path class="a64d7313-f83a-4d69-b859-18454447dea7" d="M117.4629,64.5116q12.9138-.0316,25.8276-.0607c10.2292-.0106,20.4584.023,30.6873-.0265a4.2793,4.2793,0,0,1,4.0418,2.1049q10.4274,16.4754,20.9373,32.8985c.334.5224.3581,1.2414.98,1.58v1.9447a5.347,5.347,0,0,1-5.0772,1.97c-1.401-.1191-2.8226.0043-4.235.0192l-34.2315-.0289a6.6422,6.6422,0,0,0-2.0649-3.4237q-16.0122-15.974-31.9925-31.98C120.6913,67.8638,119.0862,66.1786,117.4629,64.5116Z"/><path class="b326de4d-97bf-4fad-b997-c49c4c189c59" d="M199.9368,190.073c-1.16,1.6354-2.7749,1.9741-4.7045,1.9731q-94.8337-.0516-189.6674-.0287c-3.1973,0-4.693-.96-4.7462-3.04-.0551-2.1512,1.4979-3.1752,4.7972-3.1861,1.4886-.0049,2.9771-.0415,4.4658-.0637l68.4557.0412,6.28.0091,12.4212-.0015,6.2478.0029,12.4232-.0014,6.28-.0091q15.3543.0128,30.7087.0228,18.8517-.009,37.7034-.0495c1.5489.0173,3.1041.1295,4.6452.0282a4.8536,4.8536,0,0,1,4.6893,1.9686Z"/><path class="e062b24f-0ad4-49d5-847e-a22a5e7f5c70" d="M190.6246,104.9421q-.0244,15.7323-.0461,31.4646-.0026,24.6681.0241,49.3359-18.8521.0261-37.7037.0495-15.3543.0073-30.7088-.0228-.0225-19.6164-.0449-39.2328c-.0078-6.7554-3.8028-10.5214-10.6123-10.524q-11.169-.0045-22.3381,0c-6.81.0027-10.6047,3.7688-10.6124,10.5238q-.0224,19.6165-.045,39.233l-68.4557-.0412q.0014-40.3814.0029-80.7626l34.25-.0523c1.1427,3.4708,3.426,4.0284,6.0629,1.48.2328-.225.4592-.4566.6882-.6856Q74.92,81.8685,98.7222,57.9967c1.3231-1.3318,1.9609-1.33,3.2835,0Q126.041,82.184,150.2,106.2483c2.7318,2.7294,5.024,2.2179,6.1935-1.3351Zm-68.48-.1164a21.7811,21.7811,0,1,0-21.6609,21.8511A21.8153,21.8153,0,0,0,122.1448,104.8257ZM33.27,142.234c2.4595,0,4.92.034,7.3783-.01,2.3459-.0417,3.629-1.2646,3.6567-3.5959.0531-4.465.1214-8.9343-.0131-13.3959A10.983,10.983,0,0,0,33.1,114.2419c-6.0016.15-10.5135,4.9865-10.5553,11.3581-.0276,4.2066-.016,8.4135-.0028,12.62.0092,2.9581,1.0326,3.9955,3.9324,4.0123C28.74,142.2457,31.005,142.2351,33.27,142.234Zm105.8749,0c2.46,0,4.9193.025,7.3784-.0072,2.3407-.0307,3.6005-1.262,3.6165-3.586.0312-4.53.0636-9.0615-.0063-13.5908a10.8738,10.8738,0,0,0-21.7471-.0342c-.0754,4.5291-.0374,9.0606-.0087,13.5907a3.26,3.26,0,0,0,3.583,3.6195C134.3552,142.2609,136.75,142.2337,139.1452,142.2339Zm27.7366,0c2.5243,0,5.049.0309,7.5726-.01,2.1327-.0341,3.5831-1.0818,3.595-3.0195.0327-5.296.5214-10.6194-.2531-15.8861a10.6843,10.6843,0,0,0-11.2877-9.062,10.8352,10.8352,0,0,0-10.14,10.5714c-.0763,4.5938-.0457,9.19-.0185,13.7848.015,2.5241,1.1451,3.5923,3.7361,3.6173C162.351,142.2522,164.6165,142.2349,166.8818,142.234ZM22.5405,163.8185c0,3.04-.0289,6.0807.0094,9.12.0294,2.3355,1.1444,3.49,3.4441,3.5089q7.2771.0584,14.5548.0031c2.3973-.0153,3.7016-1.1336,3.7377-3.5082q.1356-8.9244,0-17.8519c-.0359-2.3766-1.3382-3.4968-3.7338-3.5123q-7.2772-.0469-14.5548.0028c-2.302.0183-3.4173,1.1713-3.4484,3.505C22.5111,157.9966,22.5405,160.9077,22.5405,163.8185Zm105.7963.196c0,2.9755-.0291,5.9513.0093,8.9263.03,2.3344,1.1454,3.4887,3.4461,3.5071q7.2769.0581,14.5548.003c2.3965-.0154,3.7-1.1345,3.7359-3.51q.1353-8.9244,0-17.852c-.036-2.3758-1.3392-3.495-3.7356-3.51q-7.2772-.0466-14.5548.003c-2.3009.0183-3.4161,1.1725-3.4463,3.5068C128.3077,158.0632,128.3368,161.039,128.3368,164.0145ZM50.5437,131.4556h-.039c0,2.3946-.0238,4.79.0066,7.1838.0314,2.4663,1.0955,3.5685,3.5372,3.5855q7.184.05,14.3686.0028c2.3928-.0119,3.8037-1.1242,3.814-3.4444.0231-5.1677.4065-10.3514-.264-15.5041-.69-5.3-5.7573-9.2911-11.3549-9.0225A10.8158,10.8158,0,0,0,50.558,124.273C50.474,126.6644,50.5437,129.0612,50.5437,131.4556Zm.0339,32.5958c0,2.8484-.0223,5.6969.0065,8.545.0265,2.6147,1.208,3.8367,3.7832,3.8543q7.0887.0483,14.1779.0006c2.5844-.0166,3.7933-1.2332,3.8051-3.8312q.04-8.6421-.0018-17.2843c-.0132-2.4918-1.2265-3.7344-3.6826-3.7544q-7.1856-.0586-14.3721-.0008c-2.466.019-3.6746,1.2525-3.7069,3.7316C50.5491,158.2248,50.5781,161.1383,50.5776,164.0514Zm127.5773-.0464c0-2.8484.0208-5.6969-.006-8.545-.0247-2.626-1.1988-3.8624-3.7567-3.8806q-7.1858-.051-14.372.0031c-2.36.02-3.6156,1.2576-3.6318,3.6055q-.0607,8.8361.0007,17.6726c.0168,2.3384,1.2814,3.567,3.65,3.5867q7.1856.06,14.3721.0022c2.4791-.0178,3.6988-1.2393,3.7331-3.7053C178.1853,169.8316,178.1543,166.9181,178.1549,164.005Z"/><path class="a64d7313-f83a-4d69-b859-18454447dea7" d="M44.3345,104.9132l-34.25.0523c-1.9425-.0231-3.8859-.0167-5.8272-.0759C1.3012,104.8-.14,102.4081,1.4183,99.938,8.566,88.6066,15.7875,77.3218,22.9819,66.02c.8793-1.3813,2.2158-1.5878,3.7206-1.5849,12.3755.0239,24.7512.0066,37.1268.0163,6.478.0051,12.9559.0394,19.4338.0605-.5248.5691-1.03,1.1574-1.5768,1.7044Q64.0508,83.8608,46.3994,101.49A6.645,6.645,0,0,0,44.3345,104.9132Z"/><path class="b326de4d-97bf-4fad-b997-c49c4c189c59" d="M44.3345,104.9132a6.645,6.645,0,0,1,2.0649-3.4237Q64.0582,83.8681,81.6863,66.2161c.5467-.547,1.052-1.1353,1.5768-1.7044,4.8326-4.5233,9.4854-9.2267,14.05-14.0192,2.7713-2.168,3.3324-2.1679,6.1025,0,4.5636,4.7922,9.2169,9.4945,14.048,14.0187,1.6231,1.667,3.2282,3.3522,4.8726,4.9982q15.9852,16.0008,31.9925,31.98a6.6422,6.6422,0,0,1,2.0649,3.4237c-1.1695,3.553-3.4617,4.0645-6.1935,1.3351q-24.1223-24.1-48.1939-48.2512c-1.3226-1.3309-1.96-1.3322-3.2835,0Q74.9643,81.9121,51.0856,105.7074c-.229.229-.4554.4606-.6882.6856C47.7605,108.9416,45.4772,108.384,44.3345,104.9132Z"/><path class="a64d7313-f83a-4d69-b859-18454447dea7" d="M103.538,14.6634c8.9367.0005,17.8734.0129,26.81-.01,1.5556-.004,2.9921.1148,3.845,1.6681.8656,1.5765.126,2.8442-.7432,4.1169-1.277,1.87-2.4823,3.79-3.7884,5.6383a1.5413,1.5413,0,0,0,0,2.068c1.3785,1.9561,2.6676,3.975,4.0076,5.9585.8015,1.1865,1.3,2.3992.5232,3.7965-.7608,1.3689-2,1.6714-3.4557,1.668q-13.5993-.0314-27.1988-.0091Q103.5378,27.1113,103.538,14.6634Z"/><path class="b326de4d-97bf-4fad-b997-c49c4c189c59" d="M103.538,14.6634q0,12.4478,0,24.8956-.0613,5.4668-.1229,10.9337c-2.77-2.1681-3.3311-2.1682-6.1024,0q-.03-19.2394-.0476-38.4791c.0007-2.14,1.2712-3.5208,3.0651-3.543,1.8009-.0224,3.0521,1.3542,3.1411,3.4762C103.5092,12.8515,103.5166,13.7577,103.538,14.6634Z"/><path class="b326de4d-97bf-4fad-b997-c49c4c189c59" d="M78.5374,185.7693q.0225-19.6165.045-39.233c.0077-6.755,3.8027-10.5211,10.6124-10.5238q11.169-.0045,22.3381,0c6.81.0026,10.6045,3.7686,10.6123,10.524q.0227,19.6164.0449,39.2328-3.14.0045-6.28.0093c.0041-9.7229-.0252-19.4462.0459-29.1688.0114-1.554-.4505-2.0209-1.9806-1.9613-2.848.111-5.7065.1114-8.5544,0-1.5319-.06-1.9912.41-1.98,1.9624.0707,9.7226.0417,19.4459.0457,29.169l-6.2476-.0027c.0042-9.7223-.025-19.445.0462-29.1671.0113-1.5539-.4507-2.0209-1.9806-1.9614-2.8479.1108-5.7062.1115-8.554,0-1.5327-.06-1.99.4116-1.9789,1.9628.0708,9.722.0419,19.4447.0459,29.1672Zm21.8277-37.3118c4.6613,0,9.3226.012,13.9837-.0157.5644-.0034,1.2931.3229,1.5694-.6518.9052-3.1927-.84-5.5493-4.1938-5.553q-11.2648-.0126-22.5295-.0013c-3.3746.002-4.3411,1.0468-4.4228,4.3871-.0345,1.411.2955,1.9057,1.8042,1.872C91.1706,148.3922,95.7686,148.4576,100.3651,148.4575Z"/><path class="a64d7313-f83a-4d69-b859-18454447dea7" d="M84.8177,185.7784c-.004-9.7225.0249-19.4452-.0459-29.1672-.0113-1.5512.4462-2.023,1.9789-1.9628,2.8478.1117,5.7061.111,8.554,0,1.53-.0595,1.9919.4075,1.9806,1.9614-.0712,9.7221-.042,19.4448-.0462,29.1671Q91.0282,185.7776,84.8177,185.7784Z"/><path class="a64d7313-f83a-4d69-b859-18454447dea7" d="M103.4867,185.78c-.004-9.7231.025-19.4464-.0457-29.169-.0113-1.5521.448-2.0224,1.98-1.9624,2.8479.1115,5.7064.1111,8.5544,0,1.53-.06,1.992.4073,1.9806,1.9613-.0711,9.7226-.0418,19.4459-.0459,29.1688Q109.6982,185.779,103.4867,185.78Z"/><path class="b326de4d-97bf-4fad-b997-c49c4c189c59" d="M122.1448,104.8257a21.7811,21.7811,0,1,1-21.8039-21.708A21.82,21.82,0,0,1,122.1448,104.8257Zm-6.2347.01a15.5465,15.5465,0,1,0-15.5816,15.6071A15.72,15.72,0,0,0,115.91,104.8354Z"/><path class="b326de4d-97bf-4fad-b997-c49c4c189c59" d="M33.27,142.2346c-2.2653,0-4.5307.0111-6.796-.0021-2.9-.0168-3.9232-1.0542-3.9324-4.0123-.0132-4.2067-.0248-8.4136.0028-12.62.0418-6.3716,4.5537-11.2086,10.5553-11.3581a10.983,10.983,0,0,1,11.1922,10.99c.1345,4.4616.0662,8.9309.0131,13.3959-.0277,2.3313-1.3108,3.5542-3.6567,3.5959C38.19,142.268,35.73,142.234,33.27,142.2346Zm.0327-15.5586c1.2258,0,2.4517-.0135,3.6772.0054.668.01,1.0533-.1463,1.1265-.9407a5.08,5.08,0,0,0-4.0261-5.1968,4.7773,4.7773,0,0,0-5.176,3.412c-.5878,2.2554-.2352,2.7181,2.076,2.7219Q32.1418,126.68,33.303,126.676Zm.288,6.2257c-1.227,0-2.4567.0521-3.68-.0137-1.3964-.0751-1.1079.8885-1.1576,1.69-.0544.8776.0652,1.487,1.2085,1.4515,2.1289-.0662,4.2622-.0508,6.3922-.0038,1.091.0241,1.7884-.0453,1.7921-1.4985.0037-1.4683-.5969-1.75-1.8442-1.6428C35.4045,132.9618,34.4951,132.9,33.591,132.9017Z"/><path class="b326de4d-97bf-4fad-b997-c49c4c189c59" d="M139.1452,142.2338c-2.3948,0-4.79.0271-7.1842-.0079a3.26,3.26,0,0,1-3.583-3.6195c-.0287-4.53-.0667-9.0616.0087-13.5907a10.8738,10.8738,0,0,1,21.7471.0342c.07,4.5293.0375,9.0606.0063,13.5908-.016,2.324-1.2758,3.5553-3.6165,3.586C144.0645,142.2589,141.6047,142.2339,139.1452,142.2338Zm.0618-15.5559c1.0983,0,2.2041-.08,3.2931.0206,1.3037.12,1.5154-.5031,1.4271-1.605a4.8732,4.8732,0,0,0-4.4217-4.6072,4.8206,4.8206,0,0,0-4.8645,4.1161c-.2832,1.56.1242,2.3195,1.855,2.096A21.3793,21.3793,0,0,1,139.207,126.6779Zm.0348,9.3331c1.1,0,2.2082-.084,3.2981.0211,1.3734.1325,1.3992-.6348,1.4115-1.6552s-.186-1.55-1.375-1.4993c-2.0024.0855-4.0118.0556-6.0167.01-1.1887-.0268-2.0571-.0676-2.0308,1.6484.0257,1.6793.9505,1.4965,1.9952,1.4786C137.43,135.9992,138.3359,136.0116,139.2418,136.011Z"/><path class="b326de4d-97bf-4fad-b997-c49c4c189c59" d="M166.8818,142.2345c-2.2653,0-4.5308.0177-6.7959-.0041-2.591-.025-3.7211-1.0932-3.7361-3.6173-.0272-4.5949-.0578-9.191.0185-13.7848a10.8352,10.8352,0,0,1,10.14-10.5714,10.6843,10.6843,0,0,1,11.2877,9.062c.7745,5.2667.2858,10.59.2531,15.8861-.0119,1.9377-1.4623,2.9854-3.595,3.0195C171.9308,142.2649,169.4061,142.234,166.8818,142.2345Zm.3274-15.5608c1.2257,0,2.4515-.0052,3.6772.0023.5863.0037.9218-.1511,1.0164-.8459a5.081,5.081,0,0,0-4.1241-5.3053,4.7519,4.7519,0,0,0-5.161,3.9144c-.2345,1.4953-.0765,2.5547,1.8853,2.2612A19.0838,19.0838,0,0,1,167.2092,126.6737Zm.2132,6.2268c-1.1622,0-2.3289.063-3.4854-.0178-1.1479-.08-1.4335.4219-1.4014,1.4733.03.9913,0,1.7552,1.3939,1.683,2.0606-.1067,4.1337-.0912,6.1961-.0031,1.2773.0545,1.8163-.2356,1.8217-1.6728.0056-1.4881-.7532-1.5172-1.8134-1.4715C169.2316,132.9305,168.3263,132.9,167.4224,132.9005Z"/><path class="b326de4d-97bf-4fad-b997-c49c4c189c59" d="M22.5405,163.8185c0-2.9108-.0294-5.8219.0093-8.7322.0311-2.3337,1.1464-3.4867,3.4484-3.505q7.2769-.0577,14.5548-.0028c2.3956.0155,3.6979,1.1357,3.7338,3.5123q.1347,8.9243,0,17.8519c-.0361,2.3746-1.34,3.4929-3.7377,3.5082q-7.2771.0465-14.5548-.0031c-2.3-.0184-3.4147-1.1734-3.4441-3.5089C22.5116,169.8992,22.5405,166.8587,22.5405,163.8185Zm10.8064-2.9158c1.1624,0,2.33-.0655,3.4861.0175,1.2928.0928,1.2612-.6868,1.2756-1.5917.0152-.95-.0623-1.6107-1.3145-1.5595-2.0631.0844-4.1334.0654-6.1983.0052-1.1747-.0343-1.8919.0488-1.8958,1.5927-.0041,1.5975.8109,1.6023,1.935,1.5463C31.5368,160.8682,32.4428,160.9041,33.3469,160.9027Zm.0661,9.3352c1.0977,0,2.2023-.0769,3.2915.0195,1.356.12,1.3976-.6425,1.4136-1.6614.0162-1.0345-.2265-1.5359-1.3915-1.492-2.0634.0778-4.1346.0862-6.1972-.0025-1.274-.0548-1.8253.2207-1.8248,1.6666.0005,1.4685.7273,1.5311,1.803,1.48C31.474,170.202,32.4444,170.2383,33.413,170.2379Z"/><path class="b326de4d-97bf-4fad-b997-c49c4c189c59" d="M128.3368,164.0145c0-2.9755-.0291-5.9513.0094-8.9263.03-2.3343,1.1454-3.4885,3.4463-3.5068q7.277-.0581,14.5548-.003c2.3964.0154,3.7,1.1346,3.7356,3.51q.1353,8.9244,0,17.852c-.036,2.3756-1.3394,3.4947-3.7359,3.51q-7.2773.0466-14.5548-.003c-2.3007-.0184-3.4159-1.1727-3.4461-3.5071C128.3077,169.9658,128.3368,166.99,128.3368,164.0145Zm10.8064-3.1118c1.1625,0,2.33-.0655,3.4861.0175,1.2928.0928,1.2612-.6867,1.2757-1.5917.0151-.95-.0623-1.6107-1.3145-1.5595-2.0631.0844-4.1335.0654-6.1983.0052-1.1748-.0343-1.892.0488-1.8959,1.5927-.004,1.5976.8109,1.6023,1.935,1.5463C137.3332,160.8682,138.2391,160.9041,139.1432,160.9027Zm.0213,9.3354c1.0979,0,2.2025-.0762,3.292.02,1.3008.1145,1.4375-.5476,1.4658-1.6174.0314-1.189-.36-1.5879-1.55-1.5379-1.9985.0839-4.005.0757-6.0044.003-1.2111-.044-1.8585.1142-1.871,1.6175-.0135,1.6288.8587,1.5662,1.955,1.5227C137.3551,170.21,138.26,170.2384,139.1645,170.2381Z"/><path class="b326de4d-97bf-4fad-b997-c49c4c189c59" d="M50.5437,131.4556c0-2.3944-.07-4.7912.0143-7.1826a10.8158,10.8158,0,0,1,10.0542-10.0163c5.5976-.2686,10.6653,3.7229,11.3549,9.0225.6705,5.1527.2871,10.3364.264,15.5041-.01,2.32-1.4212,3.4325-3.814,3.4444q-7.1841.036-14.3686-.0028c-2.4417-.017-3.5058-1.1192-3.5372-3.5855-.03-2.3942-.0066-4.7892-.0066-7.1838Zm10.7848-4.78c1.2258,0,2.4516-.0043,3.6774.0019.5742.0029.9467-.125,1.0431-.8241a5.1088,5.1088,0,0,0-3.9336-5.2481,4.4784,4.4784,0,0,0-5.2262,3.2221c-.5947,3.0876-.7279,2.9,2.1167,2.8525C59.78,126.6671,60.5543,126.678,61.3285,126.6757Zm-.096,9.3359c1.1581,0,2.3208-.0647,3.4729.0179,1.1947.0856,1.362-.52,1.3653-1.5141.0035-1.0469-.1205-1.6984-1.4385-1.6413-2.1833.0947-4.3758.0807-6.56.0034-1.1649-.0412-1.5706.3217-1.5733,1.5185-.0028,1.2418.3425,1.77,1.648,1.637A30.7916,30.7916,0,0,1,61.2325,136.0116Z"/><path class="b326de4d-97bf-4fad-b997-c49c4c189c59" d="M50.5778,164.0514c0-2.9131-.0287-5.8266.0091-8.7392.0323-2.4791,1.2409-3.7126,3.7069-3.7316q7.1858-.0552,14.3721.0008c2.4561.02,3.6694,1.2626,3.6826,3.7544q.0459,8.642.0018,17.2843c-.0118,2.598-1.2207,3.8146-3.8051,3.8312q-7.0887.0456-14.1779-.0006c-2.5752-.0176-3.7567-1.24-3.7832-3.8543C50.5553,169.7483,50.5776,166.9,50.5778,164.0514Zm11.021-6.26c-1.1,0-2.2067.0734-3.299-.02-1.2143-.1033-1.5581.3707-1.5324,1.5425.0237,1.0759.1639,1.68,1.4651,1.6148,2.0012-.1006,4.0118-.0543,6.0173-.015,1.1071.0216,1.954.0913,1.9449-1.5341-.0086-1.5288-.6816-1.6905-1.8787-1.602C63.4149,157.8451,62.5048,157.7916,61.5988,157.7918Zm-.1454,12.4443c1.165,0,2.3339-.0589,3.4941.0165,1.1677.0758,1.24-.5954,1.1923-1.4587-.045-.8048.2432-1.7287-1.1608-1.6857-2.3279.0714-4.66.0346-6.99.0108-.7636-.0079-1.1357.1725-1.2179,1.0589-.143,1.5434.2479,2.3209,1.9665,2.0816A20.1147,20.1147,0,0,1,61.4534,170.2361Z"/><path class="b326de4d-97bf-4fad-b997-c49c4c189c59" d="M178.1546,164.005c0,2.9131.0307,5.8266-.01,8.7392-.0343,2.466-1.254,3.6875-3.7331,3.7053q-7.1857.0516-14.3721-.0022c-2.369-.02-3.6336-1.2483-3.65-3.5867q-.0633-8.8359-.0007-17.6726c.0162-2.3479,1.2715-3.5851,3.6318-3.6055q7.1856-.0623,14.372-.0031c2.5579.0182,3.732,1.2546,3.7567,3.8806C178.1757,158.3081,178.1549,161.1566,178.1546,164.005ZM167.12,160.9034c.9061,0,1.8124.0082,2.7184-.0022,1.0446-.0119,2.1547.3645,2.159-1.5054.004-1.7518-.9181-1.6308-2.0631-1.6121q-2.7177.0445-5.4365-.0011c-1.0879-.02-1.9388-.1248-1.9645,1.5159-.0276,1.7566.9181,1.6487,2.0626,1.61C165.4364,160.8808,166.2786,160.9034,167.12,160.9034Zm.13,9.3328c1.1651,0,2.3339-.059,3.4941.0165,1.1672.076,1.2409-.5942,1.1926-1.4578-.0451-.805.2417-1.7289-1.1609-1.6864-2.3279.0706-4.66.0344-6.99.0105-.7635-.0079-1.1357.1724-1.2179,1.0588-.1431,1.5433.2476,2.321,1.9663,2.0817A20.097,20.097,0,0,1,167.25,170.2362Z"/><path class="e8bda813-5816-4593-8fdb-c86cfa3f47f9" d="M100.3651,148.4575c-4.5965,0-9.1945-.0653-13.7888.0373-1.5087.0337-1.8387-.461-1.8042-1.872.0817-3.34,1.0482-4.3851,4.4228-4.3871q11.2647-.0066,22.53.0013c3.3537.0037,5.099,2.36,4.1938,5.553-.2763.9747-1.005.6484-1.5694.6518C109.6877,148.47,105.0264,148.4575,100.3651,148.4575Z"/><path class="b777cdae-352a-4121-a634-94af9d270bc6" d="M115.91,104.8354a15.5465,15.5465,0,1,1-15.511-15.4834A15.72,15.72,0,0,1,115.91,104.8354Zm-12.4413-4.6064c0-1.4887.05-2.98-.0123-4.4656a3.1015,3.1015,0,1,0-6.1884.0542c-.0572,1.5514-.0681,3.1088.0021,4.659.0457,1.01-.2762,1.3786-1.3109,1.3282-1.55-.0753-3.1077-.0592-4.6594-.0039a3.1782,3.1782,0,0,0-3.3553,3.0525,3.1285,3.1285,0,0,0,3.2676,3.1308q4.4643.1,8.9321.0017a3.1139,3.1139,0,0,0,3.3121-3.2913C103.52,103.2086,103.4689,101.7177,103.4688,100.229Z"/><path class="a8ee0d61-54cf-4222-8f06-d3a3788f50b3" d="M33.303,126.677q-1.1611.0015-2.3224.0008c-2.3112-.0038-2.6638-.4665-2.076-2.7219a4.7773,4.7773,0,0,1,5.176-3.412,5.08,5.08,0,0,1,4.0261,5.1968c-.0732.7944-.4585.9509-1.1265.9407C35.7547,126.6625,34.5288,126.676,33.303,126.677Z"/><path class="a8ee0d61-54cf-4222-8f06-d3a3788f50b3" d="M33.591,132.9007c.9041-.0011,1.8135.0611,2.7109-.0161,1.2473-.1074,1.8479.1745,1.8442,1.6428-.0037,1.4532-.7011,1.5226-1.7921,1.4985-2.13-.047-4.2633-.0624-6.3922.0038-1.1433.0355-1.2629-.5739-1.2085-1.4515.05-.8017-.2388-1.7653,1.1576-1.69C31.1343,132.9538,32.364,132.9017,33.591,132.9007Z"/><path class="a8ee0d61-54cf-4222-8f06-d3a3788f50b3" d="M139.207,126.6781a21.3424,21.3424,0,0,0-2.711.02c-1.7308.2235-2.1382-.5364-1.855-2.096a4.8206,4.8206,0,0,1,4.8645-4.1161,4.8732,4.8732,0,0,1,4.4217,4.6072c.0883,1.1019-.1234,1.7254-1.4271,1.605C141.4111,126.5979,140.3053,126.6779,139.207,126.6781Z"/><path class="e8bda813-5816-4593-8fdb-c86cfa3f47f9" d="M139.2418,136.0113c-.9059,0-1.8121-.0121-2.7177.0036-1.0447.0179-1.97.2007-1.9952-1.4786-.0263-1.716.8421-1.6752,2.0308-1.6484,2.0049.0453,4.0143.0752,6.0167-.01,1.189-.0507,1.3874.4793,1.375,1.4993s-.0381,1.7877-1.4115,1.6552C141.45,135.927,140.3419,136.011,139.2418,136.0113Z"/><path class="a8ee0d61-54cf-4222-8f06-d3a3788f50b3" d="M167.2092,126.6759a18.7642,18.7642,0,0,0-2.7062.0245c-1.9618.2935-2.12-.7659-1.8853-2.2612a4.7519,4.7519,0,0,1,5.161-3.9144,5.081,5.081,0,0,1,4.1241,5.3053c-.0946.6948-.43.85-1.0164.8459C169.6607,126.6685,168.4349,126.6737,167.2092,126.6759Z"/><path class="a8ee0d61-54cf-4222-8f06-d3a3788f50b3" d="M167.4224,132.9c.9039-.0005,1.8092.03,2.7115-.0085,1.06-.0457,1.819-.0166,1.8134,1.4715-.0054,1.4372-.5444,1.7273-1.8217,1.6728-2.0624-.0881-4.1355-.1036-6.1961.0031-1.3944.0722-1.3638-.6917-1.3939-1.683-.0321-1.0514.2535-1.5536,1.4014-1.4733C165.0935,132.9635,166.26,132.9005,167.4224,132.9Z"/><path class="a8ee0d61-54cf-4222-8f06-d3a3788f50b3" d="M33.3469,160.9034c-.9041.0007-1.81-.0352-2.7119.01-1.1241.056-1.9391.0512-1.935-1.5463.0039-1.5439.7211-1.627,1.8958-1.5927,2.0649.06,4.1352.0792,6.1983-.0052,1.2522-.0512,1.33.61,1.3145,1.5595-.0144.9049.0172,1.6845-1.2756,1.5917C35.6765,160.8372,34.5093,160.9027,33.3469,160.9034Z"/><path class="a8ee0d61-54cf-4222-8f06-d3a3788f50b3" d="M33.413,170.2381c-.9686,0-1.939-.0361-2.9054.01-1.0757.0512-1.8025-.0114-1.803-1.48,0-1.4459.5508-1.7214,1.8248-1.6666,2.0626.0887,4.1338.08,6.1972.0025,1.165-.0439,1.4077.4575,1.3915,1.492-.016,1.0189-.0576,1.7813-1.4136,1.6614C35.6153,170.161,34.5107,170.2379,33.413,170.2381Z"/><path class="a8ee0d61-54cf-4222-8f06-d3a3788f50b3" d="M139.1432,160.9034c-.9041.0007-1.81-.0352-2.7119.01-1.1241.056-1.939.0513-1.935-1.5463.0039-1.5439.7211-1.627,1.8959-1.5927,2.0648.06,4.1352.0792,6.1983-.0052,1.2522-.0512,1.33.61,1.3145,1.5595-.0145.905.0171,1.6845-1.2757,1.5917C141.4728,160.8372,140.3057,160.9027,139.1432,160.9034Z"/><path class="a8ee0d61-54cf-4222-8f06-d3a3788f50b3" d="M139.1645,170.2383c-.9042,0-1.8094-.0284-2.7122.0074-1.0963.0435-1.9685.1061-1.955-1.5227.0125-1.5033.66-1.6615,1.871-1.6175,1.9994.0727,4.0059.0809,6.0044-.003,1.19-.05,1.581.3489,1.55,1.5379-.0283,1.07-.165,1.7319-1.4658,1.6174C141.367,170.1619,140.2624,170.2381,139.1645,170.2383Z"/><path class="a8ee0d61-54cf-4222-8f06-d3a3788f50b3" d="M61.3285,126.6769c-.7742.0011-1.5486-.01-2.3226.0031-2.8446.0474-2.7114.2351-2.1167-2.8525a4.4784,4.4784,0,0,1,5.2262-3.2221,5.1088,5.1088,0,0,1,3.9336,5.2481c-.0964.6991-.4689.827-1.0431.8241C63.78,126.6714,62.5543,126.6757,61.3285,126.6769Z"/><path class="a8ee0d61-54cf-4222-8f06-d3a3788f50b3" d="M61.2325,136.0119a30.7027,30.7027,0,0,0-3.0861.0211c-1.3055.1328-1.6508-.3952-1.648-1.637.0027-1.1968.4084-1.56,1.5733-1.5185,2.1847.0773,4.3772.0913,6.56-.0034,1.318-.0571,1.442.5944,1.4385,1.6413-.0033.9944-.1706,1.6-1.3653,1.5141C63.5533,135.9469,62.3906,136.0116,61.2325,136.0119Z"/><path class="e8bda813-5816-4593-8fdb-c86cfa3f47f9" d="M61.5988,157.7917c.906,0,1.8161.0534,2.7172-.0133,1.1971-.0885,1.87.0732,1.8787,1.602.0091,1.6254-.8378,1.5557-1.9449,1.5341-2.0055-.0393-4.0161-.0856-6.0173.015-1.3012.0654-1.4414-.5389-1.4651-1.6148-.0257-1.1718.3181-1.6458,1.5324-1.5425C59.3921,157.8652,60.4986,157.7918,61.5988,157.7917Z"/><path class="e8bda813-5816-4593-8fdb-c86cfa3f47f9" d="M61.4534,170.2369a19.985,19.985,0,0,0-2.7155.0226c-1.7186.2393-2.11-.5382-1.9665-2.0816.0822-.8864.4543-1.0668,1.2179-1.0589,2.33.0238,4.6618.0606,6.99-.0108,1.404-.043,1.1158.8809,1.1608,1.6857.0482.8633-.0246,1.5345-1.1923,1.4587C63.7873,170.1772,62.6184,170.2361,61.4534,170.2369Z"/><path class="e8bda813-5816-4593-8fdb-c86cfa3f47f9" d="M167.12,160.9034c-.8414,0-1.6836-.0226-2.5241.0055-1.1445.0383-2.09.1462-2.0626-1.61.0257-1.6407.8766-1.5358,1.9645-1.5159q2.7175.05,5.4365.0011c1.145-.0187,2.0671-.14,2.0631,1.6121-.0043,1.87-1.1144,1.4935-2.159,1.5054C168.9324,160.9116,168.0261,160.9034,167.12,160.9034Z"/><path class="e8bda813-5816-4593-8fdb-c86cfa3f47f9" d="M167.25,170.2369a19.9836,19.9836,0,0,0-2.7154.0226c-1.7187.2393-2.1094-.5384-1.9663-2.0817.0822-.8864.4544-1.0667,1.2179-1.0588,2.33.0239,4.6617.06,6.99-.0105,1.4026-.0425,1.1158.8814,1.1609,1.6864.0483.8636-.0254,1.5338-1.1926,1.4578C169.5834,170.1772,168.4146,170.2362,167.25,170.2369Z"/><path class="b326de4d-97bf-4fad-b997-c49c4c189c59" d="M103.4688,100.229c0,1.4887.0515,2.98-.0124,4.4656a3.1139,3.1139,0,0,1-3.3121,3.2913q-4.4642.0978-8.9321-.0017a3.1285,3.1285,0,0,1-3.2676-3.1308A3.1782,3.1782,0,0,1,91.3,101.8009c1.5517-.0553,3.11-.0714,4.6594.0039,1.0347.05,1.3566-.3186,1.3109-1.3282-.07-1.55-.0593-3.1076-.0021-4.659a3.1015,3.1015,0,1,1,6.1884-.0542C103.5187,97.25,103.4688,98.74,103.4688,100.229Z"/></svg>