<svg id="a9711903-9bed-4a74-9af7-8465377b76c4" data-name="Capa 1" xmlns="http://www.w3.org/2000/svg" viewBox="0 0 200 200"><defs><style>.b4d41404-8f4d-4236-a3f4-bd24c8208946{fill:#fe4f19;}.b88eb5fb-60c3-4d6f-8226-af7f03002eb1{fill:#5c546a;}.e25d9147-6b71-4b91-aae0-f3c9e9870405{fill:#e5bd93;}.a0b7b1f0-f385-4617-a3ca-fb5419ad66ee{fill:#e2031f;}.b9df7f44-e69d-4d78-879d-6c74ddc05a45{fill:#fe4f1a;}.fc8d1b83-c69e-418b-815b-62b8b3baf203{fill:#7e5c62;}.fc48b3b7-a98c-4376-8a62-4f99552e7baf{fill:#986459;}.a9e1e281-1ea1-4441-82a6-34c91e7476b7{fill:#7f5d63;}.a2a95cf0-3abf-4746-b52d-79c839ba82f7{fill:#7e5d62;}.b9e433ea-7af2-4683-9a26-0f699e78988c{fill:#4bb8eb;}.a2e0ca7b-16ff-4021-89a6-cf3366f06265{fill:#fde9b6;}.ea15a8c3-e555-4b1d-a550-d7f48f4dd105{fill:#4bb7ea;}.ef0a8e87-fb45-4df1-9720-dc19d5a06439{fill:#5d556a;}</style></defs><path class="b4d41404-8f4d-4236-a3f4-bd24c8208946" d="M117.4923,64.3923q12.9138-.0315,25.8276-.0607c10.2291-.0106,20.4584.023,30.6873-.0264A4.2792,4.2792,0,0,1,178.049,66.41q10.4274,16.4755,20.9372,32.8986c.334.5223.3582,1.2413.98,1.58v1.9446a5.3471,5.3471,0,0,1-5.0772,1.97c-1.401-.1191-2.8226.0042-4.235.0191q-17.1157-.0144-34.2315-.0288a6.6418,6.6418,0,0,0-2.0649-3.4238q-16.0122-15.9738-31.9925-31.98C120.7206,67.7445,119.1155,66.0594,117.4923,64.3923Z"/><path class="b88eb5fb-60c3-4d6f-8226-af7f03002eb1" d="M199.9661,189.9537c-1.16,1.6354-2.7749,1.9742-4.7045,1.9731q-94.8337-.0516-189.6674-.0287c-3.1973,0-4.6929-.96-4.7462-3.04-.0551-2.1512,1.4979-3.1751,4.7972-3.1861,1.4886-.0049,2.9772-.0414,4.4658-.0637l68.4557.0412,6.28.0092,12.4213-.0015,6.2477.0029,12.4232-.0014,6.28-.0092q15.3545.0128,30.7088.0228,18.8517-.009,37.7034-.0495c1.5489.0174,3.104.13,4.6451.0282a4.8535,4.8535,0,0,1,4.6893,1.9687Z"/><path class="e25d9147-6b71-4b91-aae0-f3c9e9870405" d="M190.6539,104.8228q-.0245,15.7325-.0461,31.4647-.0024,24.6679.0241,49.3359-18.852.026-37.7036.0494-15.3545.0073-30.7088-.0227-.0225-19.6164-.045-39.2329c-.0078-6.7554-3.8028-10.5213-10.6123-10.524q-11.169-.0044-22.3381,0c-6.81.0027-10.6047,3.7689-10.6124,10.5239q-.0224,19.6164-.045,39.2329l-68.4557-.0412q.0013-40.3812.0029-80.7626l34.25-.0523c1.1427,3.4708,3.426,4.0285,6.0629,1.48.2328-.225.4593-.4567.6882-.6857Q74.95,81.7493,98.7515,57.8775c1.3231-1.3319,1.9609-1.3306,3.2835,0q24.0352,24.1869,48.1939,48.2512c2.7318,2.7293,5.024,2.2178,6.1936-1.3352Zm-68.48-.1164a21.7811,21.7811,0,1,0-21.6609,21.8511A21.8154,21.8154,0,0,0,122.1742,104.7064ZM33.3,142.1148c2.4595,0,4.92.034,7.3784-.01,2.3458-.0418,3.6289-1.2647,3.6566-3.596.0532-4.465.1215-8.9343-.0131-13.3959a10.983,10.983,0,0,0-11.1922-10.99c-6.0015.15-10.5135,4.9865-10.5553,11.358-.0275,4.2066-.016,8.4135-.0028,12.62.0093,2.9581,1.0326,3.9955,3.9325,4.0124C28.7689,142.1264,31.0343,142.1159,33.3,142.1148Zm105.8749,0c2.4595,0,4.9193.0251,7.3784-.0072,2.3407-.0307,3.6005-1.262,3.6165-3.586.0313-4.53.0636-9.0615-.0063-13.5907a10.8738,10.8738,0,0,0-21.7471-.0342c-.0754,4.529-.0373,9.06-.0087,13.5906a3.2605,3.2605,0,0,0,3.583,3.62C134.3846,142.1416,136.78,142.1145,139.1745,142.1146Zm27.7367,0c2.5242,0,5.0489.031,7.5725-.0094,2.1327-.0341,3.5831-1.0819,3.5951-3.0195.0326-5.2961.5213-10.62-.2531-15.8862a10.6844,10.6844,0,0,0-11.2878-9.062,10.8352,10.8352,0,0,0-10.14,10.5714c-.0764,4.5939-.0458,9.19-.0185,13.7848.0149,2.5241,1.145,3.5924,3.736,3.6173C162.38,142.1329,164.6458,142.1157,166.9112,142.1147ZM22.57,163.6993c0,3.04-.0289,6.0807.0094,9.12.0294,2.3355,1.1445,3.4906,3.4442,3.509q7.277.0582,14.5548.0031c2.3972-.0154,3.7015-1.1337,3.7376-3.5083q.1356-8.9242,0-17.8519c-.0359-2.3765-1.3381-3.4968-3.7338-3.5122q-7.2771-.0471-14.5548.0028c-2.302.0182-3.4172,1.1713-3.4483,3.5049C22.54,157.8773,22.57,160.7885,22.57,163.6993Zm105.7964.196c0,2.9754-.0292,5.9513.0093,8.9263.03,2.3344,1.1453,3.4887,3.446,3.507q7.2771.0581,14.5548.003c2.3966-.0154,3.7-1.1344,3.7359-3.51q.1353-8.9244,0-17.8519c-.036-2.3758-1.3392-3.495-3.7357-3.51q-7.2771-.0468-14.5548.003c-2.3009.0183-3.4161,1.1724-3.4463,3.5067C128.337,157.9439,128.3662,160.92,128.3662,163.8953ZM50.573,131.3363l-.0389,0c0,2.3946-.0239,4.79.0066,7.1838.0314,2.4662,1.0955,3.5684,3.5371,3.5854q7.1841.05,14.3686.0029c2.3928-.012,3.8037-1.1242,3.8141-3.4444.023-5.1677.4064-10.3515-.2641-15.5042-.69-5.3-5.7573-9.2911-11.3549-9.0224a10.8157,10.8157,0,0,0-10.0542,10.0163C50.5033,126.5452,50.573,128.942,50.573,131.3363Zm.0339,32.5958c0,2.8484-.0223,5.697.0066,8.5451.0265,2.6146,1.2079,3.8366,3.7831,3.8542q7.0887.0484,14.178.0006c2.5844-.0166,3.7932-1.2331,3.8051-3.8312q.0395-8.642-.0018-17.2843c-.0132-2.4917-1.2266-3.7343-3.6826-3.7543q-7.1857-.0587-14.3721-.0008c-2.4661.0189-3.6747,1.2525-3.7069,3.7316C50.5784,158.1056,50.6074,161.0191,50.6069,163.9321Zm127.5774-.0464c0-2.8483.0207-5.6969-.0061-8.545-.0247-2.626-1.1988-3.8624-3.7566-3.8805q-7.1858-.051-14.3721.003c-2.36.02-3.6156,1.2577-3.6317,3.6056q-.0608,8.8359.0006,17.6726c.0168,2.3384,1.2814,3.567,3.65,3.5867q7.1856.06,14.3721.0022c2.4792-.0178,3.6989-1.2394,3.7332-3.7054C178.2146,169.7124,178.1836,166.7988,178.1843,163.8857Z"/><path class="b4d41404-8f4d-4236-a3f4-bd24c8208946" d="M44.3638,104.7939l-34.25.0523c-1.9425-.023-3.8858-.0167-5.8272-.0759-2.9562-.09-4.3972-2.4815-2.8391-4.9516C8.5954,88.4874,15.8168,77.2025,23.0112,65.9006c.8793-1.3814,2.2159-1.5879,3.7206-1.585,12.3756.024,24.7512.0066,37.1268.0164,6.478.0051,12.956.0394,19.4338.0605-.5247.5691-1.03,1.1574-1.5768,1.7043Q64.08,83.7416,46.4287,101.37A6.6458,6.6458,0,0,0,44.3638,104.7939Z"/><path class="a0b7b1f0-f385-4617-a3ca-fb5419ad66ee" d="M44.3638,104.7939a6.6458,6.6458,0,0,1,2.0649-3.4236Q64.0875,83.7489,81.7156,66.0968c.5467-.5469,1.0521-1.1352,1.5768-1.7043,4.8327-4.5234,9.4854-9.2268,14.0495-14.0193,2.7714-2.1679,3.3324-2.1679,6.1025,0,4.5637,4.7922,9.2169,9.4946,14.048,14.0187,1.6231,1.6671,3.2282,3.3522,4.8726,4.9982q15.9853,16.0008,31.9925,31.98a6.6418,6.6418,0,0,1,2.0649,3.4238c-1.1695,3.5529-3.4617,4.0644-6.1935,1.3351q-24.1223-24.1-48.1939-48.2512c-1.3226-1.331-1.96-1.3323-3.2835,0Q74.9936,81.7928,51.1149,105.5881c-.2289.229-.4554.4607-.6882.6857C47.79,108.8224,45.5065,108.2647,44.3638,104.7939Z"/><path class="b9df7f44-e69d-4d78-879d-6c74ddc05a45" d="M103.5673,14.5441c8.9367.0006,17.8735.0129,26.81-.01,1.5557-.0039,2.9922.1149,3.845,1.6681.8656,1.5765.1261,2.8442-.7431,4.117-1.277,1.87-2.4823,3.79-3.7884,5.6383a1.5412,1.5412,0,0,0,0,2.068c1.3785,1.9561,2.6676,3.9749,4.0075,5.9585.8015,1.1864,1.3,2.3992.5232,3.7965-.7608,1.3688-2,1.6714-3.4557,1.668q-13.5993-.0315-27.1988-.0091Q103.5672,26.9921,103.5673,14.5441Z"/><path class="b88eb5fb-60c3-4d6f-8226-af7f03002eb1" d="M103.5673,14.5441q0,12.4479,0,24.8957-.0613,5.4666-.1228,10.9337c-2.77-2.1682-3.3311-2.1682-6.1025,0q-.03-19.2393-.0475-38.479c.0006-2.14,1.2712-3.5208,3.0651-3.5431,1.8009-.0223,3.052,1.3543,3.141,3.4762C103.5385,12.7323,103.546,13.6385,103.5673,14.5441Z"/><path class="fc8d1b83-c69e-418b-815b-62b8b3baf203" d="M78.5667,185.65q.0225-19.6164.045-39.2329c.0077-6.755,3.8028-10.5212,10.6124-10.5239q11.1691-.0044,22.3381,0c6.81.0027,10.6045,3.7686,10.6123,10.524q.0226,19.6165.045,39.2329-3.14.0045-6.28.0093c.0041-9.7229-.0252-19.4463.046-29.1689.0113-1.5539-.45-2.0209-1.9807-1.9612-2.8479.111-5.7064.1113-8.5544,0-1.5319-.06-1.9912.41-1.98,1.9625.0708,9.7226.0417,19.4459.0457,29.169q-3.1238-.0015-6.2476-.0027c.0042-9.7223-.025-19.4451.0462-29.1671.0114-1.554-.4507-2.021-1.9806-1.9615-2.8478.1109-5.7062.1115-8.5539,0-1.5328-.06-1.99.4116-1.9789,1.9628.0708,9.722.0418,19.4448.0458,29.1673Zm21.8277-37.3118c4.6613,0,9.3226.0121,13.9837-.0157.5644-.0033,1.2931.323,1.5695-.6517.9051-3.1928-.84-5.5493-4.1939-5.5531q-11.2647-.0125-22.5295-.0012c-3.3746.0019-4.341,1.0468-4.4227,4.3871-.0345,1.4109.2955,1.9057,1.8042,1.872C91.2,148.2729,95.7979,148.3384,100.3944,148.3382Z"/><path class="fc48b3b7-a98c-4376-8a62-4f99552e7baf" d="M84.847,185.6592c-.004-9.7225.025-19.4453-.0458-29.1673-.0113-1.5512.4461-2.0229,1.9789-1.9628,2.8477.1117,5.7061.1111,8.5539,0,1.53-.06,1.992.4075,1.9806,1.9615-.0712,9.722-.042,19.4448-.0462,29.1671Q91.0577,185.6583,84.847,185.6592Z"/><path class="fc48b3b7-a98c-4376-8a62-4f99552e7baf" d="M103.516,185.6606c-.004-9.7231.0251-19.4464-.0457-29.169-.0113-1.5522.448-2.0224,1.98-1.9625,2.848.1115,5.7065.1112,8.5544,0,1.53-.06,1.992.4073,1.9807,1.9612-.0712,9.7226-.0419,19.446-.046,29.1689Q109.7275,185.66,103.516,185.6606Z"/><path class="a9e1e281-1ea1-4441-82a6-34c91e7476b7" d="M122.1742,104.7064A21.7811,21.7811,0,1,1,100.37,82.9985,21.82,21.82,0,0,1,122.1742,104.7064Zm-6.2347.01a15.5465,15.5465,0,1,0-15.5817,15.6071A15.7206,15.7206,0,0,0,115.94,104.7162Z"/><path class="a2a95cf0-3abf-4746-b52d-79c839ba82f7" d="M33.3,142.1153c-2.2653.0006-4.5307.0111-6.7959-.002-2.9-.0169-3.9232-1.0543-3.9325-4.0124-.0132-4.2067-.0247-8.4136.0028-12.62.0418-6.3715,4.5538-11.2085,10.5553-11.358a10.983,10.983,0,0,1,11.1922,10.99c.1346,4.4616.0663,8.9309.0131,13.3959-.0277,2.3313-1.3108,3.5542-3.6566,3.596C38.2193,142.1488,35.7591,142.1148,33.3,142.1153Zm.0328-15.5586c1.2257,0,2.4517-.0134,3.6771.0054.6681.01,1.0533-.1463,1.1265-.9406a5.08,5.08,0,0,0-4.026-5.1968,4.7773,4.7773,0,0,0-5.1761,3.412c-.5878,2.2554-.2351,2.7181,2.076,2.7219Q32.1712,126.56,33.3324,126.5567Zm.2879,6.2258c-1.2269,0-2.4567.052-3.68-.0138-1.3964-.0751-1.1078.8886-1.1576,1.69-.0544.8776.0653,1.487,1.2085,1.4515,2.129-.0662,4.2622-.0508,6.3922-.0038,1.0911.0241,1.7885-.0452,1.7921-1.4984.0037-1.4683-.5969-1.75-1.8441-1.6429C35.4338,132.8426,34.5244,132.78,33.62,132.7825Z"/><path class="fc8d1b83-c69e-418b-815b-62b8b3baf203" d="M139.1745,142.1145c-2.3948,0-4.79.0271-7.1842-.0078a3.2605,3.2605,0,0,1-3.583-3.62c-.0286-4.53-.0667-9.0616.0087-13.5906a10.8738,10.8738,0,0,1,21.7471.0342c.07,4.5292.0376,9.0606.0063,13.5907-.016,2.324-1.2758,3.5553-3.6165,3.586C144.0938,142.14,141.634,142.1146,139.1745,142.1145Zm.0618-15.5559c1.0984,0,2.2041-.08,3.2932.0206,1.3036.12,1.5154-.5031,1.4271-1.6049a4.8733,4.8733,0,0,0-4.4218-4.6072,4.8206,4.8206,0,0,0-4.8645,4.116c-.2832,1.56.1242,2.32,1.855,2.0961A21.398,21.398,0,0,1,139.2363,126.5586Zm.0348,9.3331c1.1,0,2.2083-.084,3.2982.0212,1.3733.1325,1.3991-.6348,1.4114-1.6553s-.1859-1.55-1.375-1.4992c-2.0023.0855-4.0117.0556-6.0167.01-1.1887-.0269-2.0571-.0676-2.0308,1.6483.0257,1.6793.9505,1.4966,1.9952,1.4786C137.4591,135.88,138.3652,135.8924,139.2711,135.8917Z"/><path class="a2a95cf0-3abf-4746-b52d-79c839ba82f7" d="M166.9112,142.1152c-2.2654.0005-4.5309.0177-6.796-.0041-2.591-.0249-3.7211-1.0932-3.736-3.6173-.0273-4.5948-.0579-9.1909.0185-13.7848a10.8352,10.8352,0,0,1,10.14-10.5714,10.6844,10.6844,0,0,1,11.2878,9.062c.7744,5.2667.2857,10.59.2531,15.8862-.012,1.9376-1.4624,2.9854-3.5951,3.0195C171.96,142.1457,169.4354,142.1147,166.9112,142.1152Zm.3273-15.5607c1.2258,0,2.4515-.0053,3.6772.0023.5863.0036.9218-.1512,1.0164-.8459a5.081,5.081,0,0,0-4.124-5.3054,4.752,4.752,0,0,0-5.1611,3.9144c-.2345,1.4954-.0764,2.5548,1.8853,2.2612A19.084,19.084,0,0,1,167.2385,126.5545Zm.2132,6.2267c-1.1622,0-2.3288.0631-3.4854-.0178-1.1479-.08-1.4334.4219-1.4014,1.4733.03.9914,0,1.7553,1.3939,1.6831,2.0607-.1067,4.1337-.0912,6.1961-.0032,1.2774.0545,1.8163-.2355,1.8217-1.6728.0056-1.488-.7532-1.5171-1.8133-1.4714C169.261,132.8112,168.3557,132.78,167.4517,132.7812Z"/><path class="fc8d1b83-c69e-418b-815b-62b8b3baf203" d="M22.57,163.6993c0-2.9108-.0294-5.822.0094-8.7323.0311-2.3336,1.1463-3.4867,3.4483-3.5049q7.2771-.0577,14.5548-.0028c2.3957.0154,3.6979,1.1357,3.7338,3.5122q.1347,8.9244,0,17.8519c-.0361,2.3746-1.34,3.4929-3.7376,3.5083q-7.2773.0465-14.5548-.0031c-2.3-.0184-3.4148-1.1735-3.4442-3.509C22.5409,169.78,22.57,166.7394,22.57,163.6993Zm10.8064-2.9158c1.1625,0,2.33-.0655,3.4861.0174,1.2928.0928,1.2612-.6867,1.2757-1.5917.0151-.95-.0623-1.6107-1.3145-1.5594-2.0631.0844-4.1335.0654-6.1983.0051-1.1748-.0343-1.892.0489-1.8959,1.5928-.004,1.5975.8109,1.6023,1.935,1.5462C31.5662,160.749,32.4721,160.7848,33.3762,160.7835Zm.0661,9.3351c1.0978,0,2.2023-.0768,3.2916.02,1.3559.12,1.3975-.6424,1.4135-1.6613.0163-1.0346-.2265-1.5359-1.3914-1.492-2.0634.0778-4.1347.0862-6.1973-.0026-1.274-.0548-1.8253.2208-1.8248,1.6666.0005,1.4685.7273,1.5312,1.8031,1.48C31.5034,170.0828,32.4737,170.1191,33.4423,170.1186Z"/><path class="fc8d1b83-c69e-418b-815b-62b8b3baf203" d="M128.3662,163.8953c0-2.9755-.0292-5.9514.0093-8.9264.03-2.3343,1.1454-3.4884,3.4463-3.5067q7.277-.0581,14.5548-.003c2.3965.0154,3.7,1.1346,3.7357,3.51q.1352,8.9244,0,17.8519c-.036,2.3757-1.3393,3.4947-3.7359,3.51q-7.2771.0468-14.5548-.003c-2.3007-.0183-3.4159-1.1726-3.446-3.507C128.337,169.8466,128.3662,166.8707,128.3662,163.8953Zm10.8064-3.1118c1.1624,0,2.33-.0655,3.486.0175,1.2928.0927,1.2613-.6868,1.2757-1.5917.0151-.95-.0623-1.6108-1.3145-1.56-2.0631.0843-4.1335.0654-6.1983.0051-1.1747-.0342-1.8919.0488-1.8958,1.5928-.0041,1.5975.8109,1.6023,1.9349,1.5462C137.3625,160.749,138.2684,160.7848,139.1726,160.7835Zm.0212,9.3354c1.0979,0,2.2025-.0762,3.292.02,1.3008.1146,1.4375-.5475,1.4658-1.6173.0314-1.1891-.36-1.5879-1.55-1.538-1.9986.0839-4.0051.0757-6.0045.0031-1.2111-.044-1.8585.1142-1.871,1.6175-.0135,1.6287.8588,1.5661,1.9551,1.5227C137.3844,170.0907,138.29,170.1192,139.1938,170.1189Z"/><path class="a2a95cf0-3abf-4746-b52d-79c839ba82f7" d="M50.573,131.3363c0-2.3943-.07-4.7911.0143-7.1825a10.8157,10.8157,0,0,1,10.0542-10.0163c5.5976-.2687,10.6653,3.7228,11.3549,9.0224.6705,5.1527.2871,10.3365.2641,15.5042-.01,2.32-1.4213,3.4324-3.8141,3.4444q-7.1841.0358-14.3686-.0029c-2.4416-.017-3.5057-1.1192-3.5371-3.5854-.0305-2.3943-.0066-4.7892-.0066-7.1838Zm10.7848-4.78c1.2258,0,2.4517-.0043,3.6774.0019.5742.0028.9467-.1251,1.0432-.8241a5.1089,5.1089,0,0,0-3.9336-5.2481,4.4784,4.4784,0,0,0-5.2263,3.2221c-.5946,3.0876-.7278,2.9,2.1168,2.8524C59.8093,126.5478,60.5836,126.5588,61.3578,126.5565Zm-.096,9.3359c1.1581,0,2.3208-.0647,3.473.0178,1.1946.0856,1.3619-.52,1.3652-1.514.0036-1.047-.12-1.6985-1.4384-1.6413-2.1834.0946-4.3758.0807-6.5606.0034-1.1648-.0412-1.57.3216-1.5733,1.5185-.0028,1.2417.3426,1.77,1.648,1.6369A30.7621,30.7621,0,0,1,61.2618,135.8924Z"/><path class="fc8d1b83-c69e-418b-815b-62b8b3baf203" d="M50.6072,163.9321c0-2.913-.0288-5.8265.0091-8.7391.0322-2.4791,1.2408-3.7127,3.7069-3.7316q7.1856-.0554,14.3721.0008c2.456.02,3.6694,1.2626,3.6826,3.7543q.0458,8.642.0018,17.2843c-.0119,2.5981-1.2207,3.8146-3.8051,3.8312q-7.0887.0458-14.178-.0006c-2.5752-.0176-3.7566-1.24-3.7831-3.8542C50.5846,169.6291,50.6069,166.7805,50.6072,163.9321Zm11.0209-6.26c-1.1,0-2.2066.0733-3.2989-.02-1.2144-.1034-1.5582.3706-1.5324,1.5425.0236,1.0759.1638,1.68,1.465,1.6147,2.0013-.1005,4.0118-.0543,6.0173-.015,1.1071.0217,1.9541.0914,1.9449-1.5341-.0086-1.5288-.6815-1.69-1.8787-1.6019C63.4442,157.7258,62.5342,157.6724,61.6281,157.6726Zm-.1454,12.4442c1.1651,0,2.3339-.0588,3.4941.0165,1.1678.0759,1.24-.5953,1.1923-1.4586-.045-.8048.2433-1.7288-1.1608-1.6857-2.3279.0713-4.66.0346-6.99.0107-.7636-.0078-1.1357.1725-1.2179,1.059-.1431,1.5433.2478,2.3208,1.9665,2.0815A20.146,20.146,0,0,1,61.4827,170.1168Z"/><path class="fc8d1b83-c69e-418b-815b-62b8b3baf203" d="M178.1839,163.8857c0,2.9131.0307,5.8267-.01,8.7392-.0343,2.466-1.254,3.6876-3.7332,3.7054q-7.1858.0516-14.3721-.0022c-2.369-.02-3.6336-1.2483-3.65-3.5867q-.0633-8.836-.0006-17.6726c.0161-2.3479,1.2715-3.5851,3.6317-3.6056q7.1856-.0623,14.3721-.003c2.5578.0181,3.7319,1.2545,3.7566,3.8805C178.205,158.1888,178.1843,161.0374,178.1839,163.8857Zm-11.0346-3.1016c.9062,0,1.8124.0082,2.7184-.0021,1.0446-.012,2.1548.3645,2.159-1.5055.004-1.7518-.9181-1.6308-2.063-1.6121q-2.7177.0445-5.4366-.0011c-1.0879-.02-1.9388-.1248-1.9645,1.5159-.0276,1.7567.9182,1.6487,2.0627,1.6105C165.4657,160.7616,166.3079,160.7841,167.1493,160.7841Zm.13,9.3328c1.165,0,2.3339-.0589,3.494.0166,1.1672.0759,1.2409-.5943,1.1926-1.4578-.045-.805.2418-1.7289-1.1609-1.6864-2.3279.0706-4.66.0343-6.9895.01-.7636-.0078-1.1358.1724-1.218,1.0589-.143,1.5432.2476,2.3209,1.9663,2.0816A20.1313,20.1313,0,0,1,167.2789,170.1169Z"/><path class="b9e433ea-7af2-4683-9a26-0f699e78988c" d="M100.3944,148.3383c-4.5965,0-9.1945-.0654-13.7887.0373-1.5087.0337-1.8387-.4611-1.8042-1.872.0817-3.34,1.0481-4.3852,4.4227-4.3871q11.2647-.0066,22.53.0012c3.3537.0038,5.099,2.36,4.1939,5.5531-.2764.9747-1.0051.6484-1.5695.6517C109.717,148.35,105.0557,148.3382,100.3944,148.3383Z"/><path class="a2e0ca7b-16ff-4021-89a6-cf3366f06265" d="M115.94,104.7162a15.5465,15.5465,0,1,1-15.511-15.4835A15.72,15.72,0,0,1,115.94,104.7162ZM103.4981,100.11c0-1.4887.05-2.98-.0123-4.4656a3.1014,3.1014,0,1,0-6.1884.0542c-.0571,1.5514-.0681,3.1089.0021,4.6591.0457,1.01-.2761,1.3785-1.3109,1.3282-1.55-.0754-3.1077-.0592-4.6593-.004a3.1783,3.1783,0,0,0-3.3553,3.0525,3.1284,3.1284,0,0,0,3.2676,3.1308q4.4641.1,8.9321.0017a3.1139,3.1139,0,0,0,3.312-3.2913C103.55,103.0894,103.4982,101.5984,103.4981,100.11Z"/><path class="ea15a8c3-e555-4b1d-a550-d7f48f4dd105" d="M33.3324,126.5578q-1.1613.0015-2.3225.0008c-2.3111-.0038-2.6638-.4665-2.076-2.7219a4.7773,4.7773,0,0,1,5.1761-3.412,5.08,5.08,0,0,1,4.026,5.1968c-.0732.7943-.4584.9509-1.1265.9406C35.7841,126.5433,34.5581,126.5567,33.3324,126.5578Z"/><path class="ea15a8c3-e555-4b1d-a550-d7f48f4dd105" d="M33.62,132.7814c.9041-.001,1.8135.0612,2.711-.0161,1.2472-.1073,1.8478.1746,1.8441,1.6429-.0036,1.4532-.701,1.5225-1.7921,1.4984-2.13-.047-4.2632-.0624-6.3922.0038-1.1432.0355-1.2629-.5739-1.2085-1.4515.05-.8016-.2388-1.7653,1.1576-1.69C31.1636,132.8345,32.3934,132.7825,33.62,132.7814Z"/><path class="ea15a8c3-e555-4b1d-a550-d7f48f4dd105" d="M139.2363,126.5588a21.361,21.361,0,0,0-2.711.02c-1.7308.2234-2.1382-.5365-1.855-2.0961a4.8206,4.8206,0,0,1,4.8645-4.116,4.8733,4.8733,0,0,1,4.4218,4.6072c.0883,1.1018-.1235,1.7253-1.4271,1.6049C141.44,126.4787,140.3347,126.5586,139.2363,126.5588Z"/><path class="b9e433ea-7af2-4683-9a26-0f699e78988c" d="M139.2711,135.892c-.9059,0-1.812-.012-2.7177.0036-1.0447.018-1.97.2007-1.9952-1.4786-.0263-1.7159.8421-1.6752,2.0308-1.6483,2.005.0453,4.0144.0752,6.0167-.01,1.1891-.0508,1.3874.4793,1.375,1.4992s-.0381,1.7878-1.4114,1.6553C141.4794,135.8077,140.3712,135.8917,139.2711,135.892Z"/><path class="ea15a8c3-e555-4b1d-a550-d7f48f4dd105" d="M167.2385,126.5566a18.7787,18.7787,0,0,0-2.7062.0245c-1.9617.2936-2.12-.7658-1.8853-2.2612a4.752,4.752,0,0,1,5.1611-3.9144,5.081,5.081,0,0,1,4.124,5.3054c-.0946.6947-.43.85-1.0164.8459C169.69,126.5492,168.4643,126.5545,167.2385,126.5566Z"/><path class="ea15a8c3-e555-4b1d-a550-d7f48f4dd105" d="M167.4517,132.7808c.904,0,1.8093.03,2.7116-.0084,1.06-.0457,1.8189-.0166,1.8133,1.4714-.0054,1.4373-.5443,1.7273-1.8217,1.6728-2.0624-.088-4.1354-.1035-6.1961.0032-1.3943.0722-1.3637-.6917-1.3939-1.6831-.032-1.0514.2535-1.5535,1.4014-1.4733C165.1229,132.8443,166.29,132.7812,167.4517,132.7808Z"/><path class="ea15a8c3-e555-4b1d-a550-d7f48f4dd105" d="M33.3762,160.7842c-.9041.0006-1.81-.0352-2.7119.01-1.1241.0561-1.939.0513-1.935-1.5462.0039-1.5439.7211-1.6271,1.8959-1.5928,2.0648.06,4.1352.0793,6.1983-.0051,1.2522-.0513,1.33.61,1.3145,1.5594-.0145.905.0171,1.6845-1.2757,1.5917C35.7058,160.718,34.5387,160.7835,33.3762,160.7842Z"/><path class="ea15a8c3-e555-4b1d-a550-d7f48f4dd105" d="M33.4423,170.1188c-.9686,0-1.9389-.036-2.9053.01-1.0758.0512-1.8026-.0115-1.8031-1.48,0-1.4458.5508-1.7214,1.8248-1.6666,2.0626.0888,4.1339.08,6.1973.0026,1.1649-.0439,1.4077.4574,1.3914,1.492-.016,1.0189-.0576,1.7812-1.4135,1.6613C35.6446,170.0418,34.54,170.1186,33.4423,170.1188Z"/><path class="ea15a8c3-e555-4b1d-a550-d7f48f4dd105" d="M139.1726,160.7842c-.9042.0006-1.81-.0352-2.712.01-1.124.0561-1.939.0513-1.9349-1.5462.0039-1.544.7211-1.627,1.8958-1.5928,2.0648.06,4.1352.0792,6.1983-.0051,1.2522-.0513,1.33.61,1.3145,1.56-.0144.9049.0171,1.6844-1.2757,1.5917C141.5022,160.718,140.335,160.7835,139.1726,160.7842Z"/><path class="ea15a8c3-e555-4b1d-a550-d7f48f4dd105" d="M139.1938,170.119c-.9041,0-1.8094-.0283-2.7121.0075-1.0963.0434-1.9686.106-1.9551-1.5227.0125-1.5033.66-1.6615,1.871-1.6175,1.9994.0726,4.0059.0808,6.0045-.0031,1.19-.05,1.5809.3489,1.55,1.538-.0283,1.07-.165,1.7319-1.4658,1.6173C141.3963,170.0427,140.2917,170.1189,139.1938,170.119Z"/><path class="ea15a8c3-e555-4b1d-a550-d7f48f4dd105" d="M61.3578,126.5576c-.7742.0012-1.5485-.01-2.3225.0031-2.8446.0474-2.7114.2352-2.1168-2.8524a4.4784,4.4784,0,0,1,5.2263-3.2221,5.1089,5.1089,0,0,1,3.9336,5.2481c-.0965.699-.469.8269-1.0432.8241C63.81,126.5522,62.5836,126.5565,61.3578,126.5576Z"/><path class="ea15a8c3-e555-4b1d-a550-d7f48f4dd105" d="M61.2618,135.8927a30.6734,30.6734,0,0,0-3.0861.021c-1.3054.1328-1.6508-.3952-1.648-1.6369.0028-1.1969.4085-1.56,1.5733-1.5185,2.1848.0773,4.3772.0912,6.5606-.0034,1.318-.0572,1.442.5943,1.4384,1.6413-.0033.9943-.1706,1.6-1.3652,1.514C63.5826,135.8277,62.42,135.8924,61.2618,135.8927Z"/><path class="b9e433ea-7af2-4683-9a26-0f699e78988c" d="M61.6281,157.6725c.9061,0,1.8161.0533,2.7172-.0133,1.1972-.0886,1.87.0731,1.8787,1.6019.0092,1.6255-.8378,1.5558-1.9449,1.5341-2.0055-.0393-4.016-.0855-6.0173.015-1.3012.0654-1.4414-.5388-1.465-1.6147-.0258-1.1719.318-1.6459,1.5324-1.5425C59.4215,157.7459,60.5279,157.6726,61.6281,157.6725Z"/><path class="b9e433ea-7af2-4683-9a26-0f699e78988c" d="M61.4827,170.1176a20.0159,20.0159,0,0,0-2.7154.0226c-1.7187.2393-2.11-.5382-1.9665-2.0815.0822-.8865.4543-1.0668,1.2179-1.059,2.33.0239,4.6617.0606,6.99-.0107,1.4041-.0431,1.1158.8809,1.1608,1.6857.0482.8633-.0245,1.5345-1.1923,1.4586C63.8166,170.058,62.6478,170.1168,61.4827,170.1176Z"/><path class="b9e433ea-7af2-4683-9a26-0f699e78988c" d="M167.1493,160.7841c-.8414,0-1.6836-.0225-2.524.0056-1.1445.0382-2.09.1462-2.0627-1.6105.0257-1.6407.8766-1.5357,1.9645-1.5159q2.7175.05,5.4366.0011c1.1449-.0187,2.067-.14,2.063,1.6121-.0042,1.87-1.1144,1.4935-2.159,1.5055C168.9617,160.7923,168.0555,160.7841,167.1493,160.7841Z"/><path class="b9e433ea-7af2-4683-9a26-0f699e78988c" d="M167.2789,170.1177a20.0014,20.0014,0,0,0-2.7155.0225c-1.7187.2393-2.1093-.5384-1.9663-2.0816.0822-.8865.4544-1.0667,1.218-1.0589,2.33.0239,4.6616.06,6.9895-.01,1.4027-.0425,1.1159.8814,1.1609,1.6864.0483.8635-.0254,1.5337-1.1926,1.4578C169.6128,170.058,168.4439,170.1169,167.2789,170.1177Z"/><path class="ef0a8e87-fb45-4df1-9720-dc19d5a06439" d="M103.4982,100.11c0,1.4887.0514,2.98-.0125,4.4656a3.1139,3.1139,0,0,1-3.312,3.2913q-4.4643.0979-8.9321-.0017a3.1284,3.1284,0,0,1-3.2676-3.1308,3.1783,3.1783,0,0,1,3.3553-3.0525c1.5516-.0552,3.1095-.0714,4.6593.004,1.0348.05,1.3566-.3186,1.3109-1.3282-.07-1.55-.0592-3.1077-.0021-4.6591a3.1014,3.1014,0,1,1,6.1884-.0542C103.5481,97.13,103.4981,98.621,103.4982,100.11Z"/></svg>