<svg id="b5340ab2-5ae7-4ec1-af56-767e39037c09" data-name="Capa 1" xmlns="http://www.w3.org/2000/svg" viewBox="0 0 200 200"><defs><style>.f009a0cd-3cec-4b82-89f3-82a50046c2e9{fill:#010101;}.a78ac7d2-97cb-452a-89b7-afdc72654819{fill:#070707;}.bbcd7a71-7e1e-445e-bf36-c2ca15309ec9{fill:#fcfcfc;}.b472944a-18db-4272-9eca-3b53dc9f42e1{fill:#ebebf0;}.a288a028-0ba2-4132-ade2-39d25b6d24a6{fill:#fcd1a3;}.a6f59408-4780-4db9-8843-259dd76bd963{fill:#75e1f7;}.ab33efbb-8a99-4e3a-8611-35ec723082d5{fill:#fd627a;}.efd842c2-e3eb-474b-920d-f4a75431ebab{fill:#75e0f6;}.bbd1665c-7250-4191-a82c-8e521b9391b8{fill:#7ee780;}.aedeb8af-a636-4350-be24-a237ef3ca1f0{fill:#030202;}</style></defs><path class="f009a0cd-3cec-4b82-89f3-82a50046c2e9" d="M95.49.2683h8.9326c.07.31.3021.3423.5709.3752a37.26,37.26,0,0,1,25.7388,14.624c6.3712,8.1911,9.3276,17.5233,7.8294,27.9369-.871,6.0546-3.3748,11.6168-5.9547,17.12-2.2922,4.89-4.942,9.5921-7.6868,14.5134h26.3837a6.4337,6.4337,0,0,1,.7759.004c1.0881.1329.8857-.6371.8875-1.2564.0071-2.459-.0374-4.919.02-7.3767a23.2966,23.2966,0,0,1,46.5771,1.0144q.0462,54.2592.0033,108.5186a19.2376,19.2376,0,0,1-.1746,2.901C197.5,190.9968,188.0425,199.1179,175.53,199.12q-71.7291.01-143.4581.0021c-2.6529,0-5.3075.0468-7.9586-.0254A24.3633,24.3633,0,0,1,1.3772,181.195c-.1338-.4987.044-1.2108-.65-1.4925V118.3376c1.1124-1.09,2.12-2.35,3.8792-2.3885,2.9382.635,3.8851,1.7935,3.8867,4.8291q.009,17.7612.0025,35.5224v1.9678c10.4526-7.7287,20.7087-7.6816,31.0181-.0585.0223-.4055.0481-.6555.0481-.9055q.0023-45.0339.005-90.0677A15.6648,15.6648,0,0,0,22.2223,51.6231,15.5294,15.5294,0,0,0,8.512,66.9658c-.0669,6.9874-.01,13.9759-.0192,20.9639-.0038,3.0351-.9443,4.188-3.8865,4.8318C2.7385,92.6393,1.6227,91.4661.727,89.9854V63.1868c.657-.5374.5922-1.359.773-2.0663a23.2876,23.2876,0,0,1,45.5084,2.1781c.5431,3.4189.2254,6.8464.31,10.2693.0194.784-.0116,1.3008,1.08,1.2952,8.91-.0455,17.8214-.0256,26.9843-.0256-.4395-.8-.76-1.4057-1.101-2-2.6057-4.5344-5.07-9.1434-7.2322-13.9071C64.2937,52.86,61.61,46.7151,61.365,39.9438,60.7666,23.3842,71.5414,7.972,87.2139,2.4886,89.9326,1.5374,92.7981,1.2493,95.49.2683Zm96.316,157.8626,0-2.3807q0-38.9229-.0009-77.8458c0-3.8178.0749-7.6381-.035-11.4529a15.5169,15.5169,0,0,0-15.1848-14.9072c-8.9192-.1351-15.8344,6.8154-15.84,16.0179q-.0285,44.7466.0043,89.4935c0,.345-.2068.7712.1969,1.0587C169.6725,151.1058,181.5934,150.2105,191.8064,158.1309ZM53.1658,191.3533h2.3568c5.9548,0,11.91-.0435,17.8642.0332a4.0435,4.0435,0,0,0,3.1973-1.3487c14.207-14.2616,28.4736-28.4639,42.6537-42.752a7.8194,7.8194,0,0,1,6.1336-2.5885c8.6715.13,17.3463.0247,26.0194.078,1.2419.0076,1.64-.2813,1.6109-1.5789-.0891-4.0112-.1225-8.0287.0111-12.0375.0546-1.6371-.4036-1.9926-2.0043-1.9859-15.8579.0662-31.7163.0026-47.5741.0814a7.5536,7.5536,0,0,1-5.6882-2.2781c-14.9053-14.2856-29.8886-28.49-44.7879-42.7816a5.3346,5.3346,0,0,0-4.2805-1.6338c-1.1194.0469-1.38.37-1.3683,1.4352.0528,4.8541.0632,9.71-.0042,14.5634a3.6948,3.6948,0,0,0,1.2717,3.0154q22.6088,21.446,45.1567,42.9562c3.4184,3.2534,3.4166,4.9343.0422,8.1446C80.3656,165.4339,66.9681,178.2055,53.1658,191.3533Zm33.3089-.1685a3.7035,3.7035,0,0,0,.6073.16c29.828.0033,59.6561.0466,89.4838-.0263a15.5168,15.5168,0,1,0-15.8077-16.1422c-.1463,2.8659-1.6361,4.558-3.9749,4.5146-2.3494-.0436-3.8068-1.801-3.8109-4.6533-.01-6.9879-.0377-13.9763.0276-20.9637.012-1.283-.351-1.5951-1.6044-1.5865q-12.3252.0842-24.6514.0007a3.6445,3.6445,0,0,0-2.8694,1.1928Q105.7975,171.84,87.66,189.9382C87.3012,190.2974,86.96,190.674,86.4747,191.1848ZM100.3039,8.0375c-17.2474-.0511-31.4514,14.0976-31.2,31.1727.0759,5.1454,2.0009,9.8483,4.07,14.4527,7.0018,15.5822,16.4451,29.7093,26.1333,43.69.75,1.0824,1.0812.8595,1.7306-.0679,4.3027-6.1442,8.5145-12.3483,12.4844-18.713,5.5429-8.8865,10.8464-17.9072,14.7754-27.6531,1.549-3.8423,2.9019-7.7647,2.9141-11.9817A31.1147,31.1147,0,0,0,100.3039,8.0375ZM47.3325,111.0932V113.57q0,30.2865-.0005,60.5729c0,.5824.0251,1.167-.015,1.7468a3.8706,3.8706,0,0,1-7.7328.1766c-.0415-.3851-.0261-.776-.0484-1.1635a15.5321,15.5321,0,0,0-31.0371.9473c.025,8.25,7.0638,15.21,15.8319,15.4539,5.4965.1532,11,.0216,16.5005.0709a2.7085,2.7085,0,0,0,2.0253-.9061q21.3546-20.3633,42.7484-40.6852c1.0516-.9965.8823-1.4594-.0654-2.3551q-14.0372-13.2671-27.9969-26.616C54.24,117.6684,50.9376,114.5249,47.3325,111.0932Zm15.351-28.4848c.385.4665.4941.63.6328.7623q19.5278,18.623,39.049,37.2527a2.977,2.977,0,0,0,2.2571.8348q23.3952-.03,46.7905.0156c1.3041.0039,1.5868-.3933,1.5822-1.627-.044-11.8434-.0616-23.6873.0161-35.53.01-1.5683-.5339-1.7446-1.8744-1.7374q-14.658.0785-29.3165-.0091a2.6625,2.6625,0,0,0-2.5979,1.4818c-4.7531,7.6336-9.8631,15.0275-15.1489,22.3q-3.9229,5.3974-7.8272.022Q88.2492,95.3951,80.9629,83.93c-.3895-.6165-.6313-1.3551-1.6726-1.3454C73.8752,82.6353,68.4594,82.6084,62.6835,82.6084Z"/><path class="a78ac7d2-97cb-452a-89b7-afdc72654819" d="M.727,105.9092v-3.1071c1.11-1.0935,2.1167-2.3554,3.879-2.3912,2.55.5425,3.8315,1.8117,3.8818,3.8458C8.54,106.37,7.2337,107.7309,4.6059,108.3,2.8456,108.2614,1.8408,106.9968.727,105.9092Z"/><path class="bbcd7a71-7e1e-445e-bf36-c2ca15309ec9" d="M4.606,100.4109c-1.7623.0358-2.7688,1.2977-3.879,2.3912V89.9854c.8957,1.4807,2.0115,2.6539,3.8793,2.7761Z"/><path class="bbcd7a71-7e1e-445e-bf36-c2ca15309ec9" d="M.727,105.9092c1.1138,1.0876,2.1186,2.3522,3.8789,2.3909l0,7.649c-1.76.0384-2.7668,1.299-3.8792,2.3885Z"/><path class="b472944a-18db-4272-9eca-3b53dc9f42e1" d="M4.6062,115.9491l0-7.649c2.6278-.5692,3.9342-1.93,3.8819-4.0434-.05-2.0341-1.3315-3.3033-3.8818-3.8458l0-7.6494c2.9422-.6438,3.8827-1.7967,3.8865-4.8318.0089-6.988-.0477-13.9765.0192-20.9639a15.5059,15.5059,0,0,1,30.4355-4.1287,15.7244,15.7244,0,0,1,.6191,4.4q-.0078,45.0339-.005,90.0677c0,.25-.0258.5-.0481.9055-10.3094-7.6231-20.5655-7.67-31.0181.0585v-1.9678q0-17.7612-.0025-35.5224C8.4913,117.7426,7.5444,116.5841,4.6062,115.9491Z"/><path class="b472944a-18db-4272-9eca-3b53dc9f42e1" d="M191.8064,158.1309c-10.213-7.92-22.1339-7.0251-30.86-.0165-.4037-.2875-.1968-.7137-.1969-1.0587q-.0186-44.7468-.0043-89.4935c.0059-9.2025,6.9211-16.153,15.84-16.0179a15.5169,15.5169,0,0,1,15.1848,14.9072c.11,3.8148.0348,7.6351.035,11.4529q.0024,38.9229.0009,77.8458Z"/><path class="a288a028-0ba2-4132-ade2-39d25b6d24a6" d="M53.1658,191.3533c13.8023-13.1478,27.2-25.9194,40.61-38.6776,3.3744-3.21,3.3762-4.8912-.0422-8.1446Q71.1605,123.0475,48.577,101.5749A3.6948,3.6948,0,0,1,47.3053,98.56c.0674-4.8537.057-9.7093.0042-14.5634-.0116-1.0649.2489-1.3883,1.3683-1.4352a5.3346,5.3346,0,0,1,4.2805,1.6338c14.8993,14.2917,29.8826,28.496,44.7879,42.7816a7.5536,7.5536,0,0,0,5.6882,2.2781c15.8578-.0788,31.7162-.0152,47.5741-.0814,1.6007-.0067,2.0589.3488,2.0043,1.9859-.1336,4.0088-.1,8.0263-.0111,12.0375.0289,1.2976-.369,1.5865-1.6109,1.5789-8.6731-.0533-17.3479.0524-26.0194-.078a7.8194,7.8194,0,0,0-6.1336,2.5885c-14.18,14.2881-28.4467,28.49-42.6537,42.752a4.0435,4.0435,0,0,1-3.1973,1.3487c-5.9539-.0767-11.9094-.0331-17.8642-.0332Z"/><path class="a6f59408-4780-4db9-8843-259dd76bd963" d="M86.4747,191.1848c.4849-.5108.8265-.8874,1.1856-1.2466q18.1146-18.1212,36.2144-36.2571a3.6445,3.6445,0,0,1,2.8694-1.1928q12.3255.0807,24.6514-.0007c1.2534-.0086,1.6164.3035,1.6044,1.5865-.0653,6.9874-.0378,13.9758-.0276,20.9637.0041,2.8523,1.4615,4.61,3.8109,4.6533,2.3388.0434,3.8286-1.6487,3.9749-4.5146a15.5381,15.5381,0,0,1,15.9939-14.8806,15.5161,15.5161,0,0,1-.1862,31.0228c-29.8277.0729-59.6558.03-89.4838.0263A3.7035,3.7035,0,0,1,86.4747,191.1848Z"/><path class="ab33efbb-8a99-4e3a-8611-35ec723082d5" d="M100.3039,8.0375A31.1147,31.1147,0,0,1,131.2118,38.937c-.0122,4.217-1.3651,8.1394-2.9141,11.9817-3.929,9.7459-9.2325,18.7666-14.7754,27.6531-3.97,6.3647-8.1817,12.5688-12.4844,18.713-.6494.9274-.98,1.15-1.7306.0679-9.6882-13.98-19.1315-28.1076-26.1333-43.69-2.069-4.6044-3.994-9.3073-4.07-14.4527C68.8525,22.1351,83.0565,7.9864,100.3039,8.0375Zm19.2628,31.1309a19.4169,19.4169,0,1,0-19.43,19.3562A19.4737,19.4737,0,0,0,119.5667,39.1684Z"/><path class="efd842c2-e3eb-474b-920d-f4a75431ebab" d="M47.3325,111.0932c3.6051,3.4317,6.9078,6.5752,10.21,9.7191q13.9888,13.3182,27.9969,26.616c.9477.8957,1.117,1.3586.0654,2.3551q-21.4186,20.2957-42.7484,40.6852a2.7085,2.7085,0,0,1-2.0253.9061c-5.5-.0493-11.004.0823-16.5-.0709C15.5625,191.06,8.5237,184.1,8.4987,175.85a15.5321,15.5321,0,0,1,31.0371-.9473c.0223.3875.0069.7784.0484,1.1635a3.8706,3.8706,0,0,0,7.7328-.1766c.04-.58.015-1.1644.015-1.7468q.0008-30.2863.0005-60.5729Z"/><path class="bbd1665c-7250-4191-a82c-8e521b9391b8" d="M62.6835,82.6084c5.7759,0,11.1917.0269,16.6068-.0235,1.0413-.01,1.2831.7289,1.6726,1.3454Q88.22,95.4149,96.2463,106.374q3.9193,5.3807,7.8272-.022c5.2858-7.2728,10.3958-14.6667,15.1489-22.3A2.6625,2.6625,0,0,1,121.82,82.57q14.6578.1024,29.3165.0091c1.3405-.0072,1.8847.1691,1.8744,1.7374-.0777,11.8431-.06,23.687-.0161,35.53.0046,1.2337-.2781,1.6309-1.5822,1.627q-23.3952-.07-46.7905-.0156a2.977,2.977,0,0,1-2.2571-.8348q-19.5092-18.6425-39.049-37.2527C63.1776,83.2383,63.0685,83.0749,62.6835,82.6084Z"/><path class="aedeb8af-a636-4350-be24-a237ef3ca1f0" d="M119.5667,39.1684a19.4169,19.4169,0,1,1-19.3034-19.4793A19.477,19.477,0,0,1,119.5667,39.1684ZM100.1646,27.4605a11.6464,11.6464,0,1,0,11.6317,11.7562A11.6673,11.6673,0,0,0,100.1646,27.4605Z"/></svg>