<svg id="abc40742-3af8-4691-8a54-c802f9cd0e32" data-name="Capa 1" xmlns="http://www.w3.org/2000/svg" viewBox="0 0 200 200"><defs><style>.b24bf1b4-c7d6-473d-b0a1-0c43d99c1e37{fill:#fefefe;}.bbe4c852-78c8-4a9a-9632-94926c3f6d55{fill:#95e7fe;}.a322a4da-ce49-4966-bfe9-5b455464bf5f{fill:#a56235;}.f24304e2-16a2-4896-97d1-0e86adbdc6bf{fill:#b46d3c;}.a06129c8-d49a-4b63-a828-74ae47c62ff1{fill:#c17b48;}.f9be189f-fc1a-4339-b46d-cd331b224f30{fill:#f4cc61;}.ba8f3aa5-bb0a-4914-9247-135888f49a70{fill:#d89568;}.bdf9c08e-f4c8-4ab3-8d9d-6fc06ba04170{fill:#ccd1e0;}.b0545483-6a90-4ca0-9608-9f6e550a0a76{fill:#e8ecf4;}.a1bba017-ba4d-4bcf-be5b-1f20f7c0f3af{fill:#f09a60;}.b0bd212c-0ee6-4cac-b221-6f82a2269937{fill:#f39c61;}.e44821f6-b9df-4a69-9b5e-809df6923986{fill:#19cefa;}.abe6277e-66df-4f97-b15e-e1604de9c758{fill:#7d8495;}.aa75fc2f-2441-4b7f-9352-21447979441c{fill:#bdc2d1;}.e1b5cd99-63c7-4f53-8cc5-a71f71d7e4e7{fill:#6d7385;}</style></defs><path d="M199.9614,42.3431v2.3354c-1.9119,2.81-3.8133,5.6282-5.7445,8.4254a2.9792,2.9792,0,0,0-.492,1.81c.0139,8.211.0327,16.4223-.0182,24.633-.0071,1.142.3593,1.4815,1.417,1.3343a4.5992,4.5992,0,0,1,4.8377,1.9415V97.6131c-1.035,1.3267-2.27,2.2541-4.0753,1.9423-1.741-.3007-2.2.3544-2.1963,2.1361q.0935,43.59.0422,87.18c0,3.057-1.0315,4.0924-4.0611,4.1-3.2432.0085-6.4865.0021-9.73.0018-4.1375,0-4.89-.7428-4.89-4.8283q0-43.3953.03-86.7907c.0019-1.3691-.1964-1.9157-1.7453-1.8383-2.9764.1487-5.9681.1174-8.9481.0105-1.3851-.05-1.8808.2166-1.8354,1.7518.1264,4.2774.0493,8.5611.0421,12.8422-.0052,3.0771-1.02,4.1132-4.0421,4.1193-4.4109.0089-8.8217.0023-13.2326.0023-4.5658,0-4.4954.001-4.5613,4.6307-.0207,1.459.49,1.6382,1.7589,1.6258,6.486-.063,12.9728-.0382,19.4594-.0263,5.7786.0105,9.9856,3.9951,9.9549,9.4018-.03,5.3094-4.2264,9.2605-9.89,9.2746-6.5513.0163-13.103.0341-19.6539-.0233-1.2172-.0107-1.635.2347-1.6219,1.5591q.108,10.8965.0068,21.7944c-.0094,1.2238.2444,1.6433,1.5635,1.6183,4.6686-.0884,9.34-.066,14.01-.0264a12.4305,12.4305,0,1,1-11.519,16.9212c-.3934-.9959-.7625-1.3972-1.889-1.39-8.6917.0546-17.3838.0416-26.0757.0135a1.5922,1.5922,0,0,0-1.8255,1.1935,12.3591,12.3591,0,0,1-14.91,7.7345,12.4547,12.4547,0,0,1,3.5741-24.476c5.5783-.0228,11.1575-.05,16.7348.0285,1.3277.0187,1.7335-.2632,1.718-1.6663q-.1192-10.7989-.0037-21.6c.013-1.3328-.2717-1.7318-1.67-1.7142-6.55.0828-13.1024.0509-19.6538.0324-5.6364-.0158-9.8343-4.01-9.8425-9.3222-.0081-5.3147,4.1925-9.335,9.8092-9.3525,5.5783-.0174,11.1568-.0039,16.7352-.0039,4.6652,0,4.619,0,4.6213-4.7571.0006-1.1856-.2654-1.5191-1.4869-1.5025-5.4477.0741-10.8969.039-16.3456.03-2.9294-.0052-3.9866-1.056-3.9936-3.9679-.0108-4.4757-.03-8.9518.0183-13.427.0107-.9869-.2172-1.3365-1.2719-1.3111-3.0469.0735-6.1021.1337-9.1433-.0166-1.6838-.0833-2.11.3416-2.1065,2.0758q.0961,43.3951.0454,86.7906c0,3.7266-.855,4.59-4.5477,4.59q-35.9031.0011-71.8061,0c-3.7431,0-4.6038-.8462-4.6039-4.53q-.0011-43.1035,0-86.207c0-2.622,0-2.622-2.58-2.677-2.3651-.05-3.6055-1.13-3.632-3.3462C.6476,92.1919.6817,88.17.6833,84.1481c0-1.2708.4581-2.5322,1.6608-2.8087,1.6788-.3858,1.4543-1.445,1.4539-2.59q-.01-25.0059-.0011-50.0117c.0011-2.8148,1.0733-3.8995,3.8547-3.9061q8.5621-.02,17.1244-.0008c2.8226.0054,3.905,1.07,3.9247,3.8414.0157,2.2053.1057,4.4172-.0317,6.6141-.0967,1.5458.2294,2.1071,1.94,2.0446,4.081-.1492,8.1712-.0493,12.2578-.0478,3.6766.0014,4.52.8616,4.52,4.6141q.0012,18.6814.0072,37.3628c.0006.7578-.369,1.6539,1.1069,1.6456,10.0539-.0567,20.1082-.032,30.1623-.024.61.0005,1.1055-.031,1.4211-.7081.8378-1.7971,1.7472-3.5607,2.7209-5.5248-6.4559,0-12.6677.004-18.88-.0011-6.4917-.0054-10.3072-3.7836-10.3094-10.2234q-.0081-24.0328,0-48.0657c.0022-6.428,3.8282-10.2119,10.3167-10.2126q36.39-.004,72.7791,0c6.5764.0007,10.3124,3.7725,10.3147,10.4106.004,11.7408.024,23.4816-.0277,35.2222a3.3457,3.3457,0,0,0,1.671,3.2719,30.56,30.56,0,0,1,13.6137,21.4864c.2273,1.4381-.3928,3.4563.72,4.1739,1.0565.6815,2.898.0653,4.3792.1937,1.2576.109,1.4825-.3547,1.4693-1.5139-.0623-5.448-.3815-10.9263.0641-16.3383.527-6.4-.76-11.9906-5.1165-16.78a6.38,6.38,0,0,1-.5372-.807,3.151,3.151,0,0,1,.4572-4.3813c1.0992-1.1023,2.1236-2.2952,3.3182-3.282a4.3305,4.3305,0,0,0,1.787-4.3638c-.3225-1.8361.2186-2.5528,2.2939-2.4431,3.9256.2074,3.91.06,3.9435,4.107.0156,1.8976.1006,3.7182-1.6033,5.1371-1.2824,1.0679-3.0649,2.2615-3.3215,3.6415-.2852,1.5341,1.6144,2.912,2.5186,4.3847,1.171,1.9075,2.8618,3.5935,2.3972,6.1361-.2288,1.2523.2661,1.6223,1.5492,1.6148,1.2574-.0073,1.609-.3242,1.5948-1.6033-.07-6.2912-.0316-12.5837-.0316-18.8757,0-4.5029.0014-4.4328,4.4737-4.5222,1.459-.0291,1.8093.3408,1.7925,1.7951-.0839,7.2641.0049,14.53-.0766,21.7941-.0154,1.3764.5794,1.3843,1.5985,1.3882,1.03.004,1.7917-.0222,1.5635-1.3952a6.4159,6.4159,0,0,1,1.5993-5.198c.8-1.0111,1.3422-2.2372,2.1927-3.1961,1.4426-1.6265,1.3166-2.8142-.3849-4.2353-1.96-1.6367-3.7309-3.3382-3.5006-6.4684.3275-4.4505.0848-4.3885,4.5884-4.4888,1.5237-.034,1.9736.442,1.7221,1.8294-.41,2.26.4946,3.9022,2.2041,5.3582A57.2068,57.2068,0,0,1,199.9614,42.3431ZM131.4637,143.2174c-3.1187-.1627-3.1187-.1627-3.1187,2.8618v19.057c0,3.0246,0,3.0246,3.1187,2.8618,3.108.1621,3.108.1621,3.108-2.8632V146.0807C134.5717,143.0553,134.5717,143.0553,131.4637,143.2174Zm0-43.5932c-3.1187-.1628-3.1187-.1628-3.1187,2.8617V121.543c0,3.0245,0,3.0245,3.1187,2.8618,3.108.1621,3.108.1621,3.108-2.8633v-19.054C134.5717,99.4621,134.5717,99.4621,131.4637,99.6242Zm46.71-37.366c-3.1219-.1618-3.1219-.1618-3.1219,2.8554v12.843c0,3.0171,0,3.0171,3.122,2.8554,2.7207.0213,5.4425.0062,8.1616.0839.9391.0269,1.1979-.263,1.1908-1.194q-.062-8.1666,0-16.3338c.0071-.9311-.252-1.2208-1.1909-1.1939C183.616,62.2519,180.8942,62.2368,178.1735,62.2582ZM97.4577,132.8733c-.5106,2.649.7057,4.0452,3.6036,4.0471q22.9275.0153,45.8551.0048c5.0518,0,10.1037.0179,15.1554-.0081,2.4677-.0127,3.5194-1.1053,3.5258-3.53-.3585-2.19-1.8677-2.7-3.8125-2.6972q-16.4365.0247-32.8732.0079-13.908,0-27.8159-.0056C99.4242,130.69,97.9834,130.9991,97.4577,132.8733ZM66.076,62.2512c-1.7368-.0228-3.4741-.028-5.21-.0769-.68-.0192-1.03.0972-1.0561.9216-.1,3.1979.029,5.6383,4.7316,5.3385.6407-.0409,1.2834-.0521,1.9251-.077q17.7648.0315,35.53.0686c.54.0013.9939-.0169,1.2476-.627a44.9685,44.9685,0,0,1,3.1993-5.5478Zm89.6154,13.4763.0217.0283a13.5285,13.5285,0,0,0-.2331-1.5285,25.0376,25.0376,0,0,0-29.2287-17.73c-9.7051,2.1542-17.8449,10.3806-19.054,19.2565l.0222-.0291a.8071.8071,0,0,0-.2261.8517,20.8478,20.8478,0,0,0-.4015,2.8788c-.0375,10.4342-.0281,20.8686-.0564,31.3028-.0023.8342.0832,1.2915,1.1216,1.2788,4.4712-.0545,8.9436-.0454,13.4151-.0048.9.0081,1.0656-.3509,1.0581-1.1437q-.0485-5.1519.0033-10.3045c.0079-.7094-.2258-.9779-.8935-1.192a3.1806,3.1806,0,0,1-2.2462-3.448c.03-4.018-.0375-8.0371.0228-12.0544a9.2921,9.2921,0,0,1,9.1318-9.2282q3.3033-.0815,6.61,0a9.2734,9.2734,0,0,1,9.1288,9.0282c.0926,4.1458.0189,8.2952.0269,12.443a2.9422,2.9422,0,0,1-2.06,3.1655c-1.0033.2943-1.0743.8372-1.0663,1.6722.03,3.1754.0894,6.354-.0236,9.5257-.049,1.3749.4832,1.5606,1.6611,1.5423,4.0172-.0622,8.0375-.0886,12.0533.01,1.47.0362,1.9448-.2923,1.9313-1.8706-.0826-9.656-.0438-19.313-.0391-28.97a17.8069,17.8069,0,0,0-.45-4.6285A.8011.8011,0,0,0,155.6914,75.7275Zm-88.8526-63.29c-.7765-.0215-1.5531-.06-2.33-.0614-3.8419-.005-4.6671.8218-4.6673,4.6614-.0008,11.0235-.0191,22.047.0176,33.07.0063,1.9163-.8617,4.6258.3732,5.5423,1.2954.9614,3.8409.2385,5.84.2517q22.9488.0321,45.8975.0845a3.6047,3.6047,0,0,0,2.0854-.86,30.3205,30.3205,0,0,1,25.03-4.3895c1.6658.4167,1.7454-.0841,1.7394-1.47-.0465-10.892-.0232-21.7843-.0273-32.6764-.0012-3.2692-.977-4.2156-4.3323-4.216q-24.3127-.003-48.6254.002C80.84,12.38,73.8391,12.4159,66.8388,12.4372ZM47.3767,161.836c-10.7575,0-21.5153.037-32.2723-.0392-1.6447-.0117-2.0266.4658-2.0069,2.0541.0877,7.0626.0734,14.1273.0073,21.1905-.0127,1.359.3589,1.736,1.7271,1.7333q32.5641-.0634,65.1284.0011c1.3954.0028,1.7177-.4234,1.7061-1.7538q-.0928-10.692.0054-21.385c.0155-1.4515-.3663-1.8441-1.8282-1.8355C69.0216,161.8652,58.1991,161.836,47.3767,161.836Zm.2082-31.138c-10.89,0-21.78.03-32.6695-.0358-1.4766-.009-1.8292.4022-1.8141,1.84q.1126,10.6944.0042,21.3905c-.0119,1.3349.3117,1.7487,1.7044,1.7459q32.5724-.067,65.1449,0c1.382.0028,1.7256-.3905,1.7131-1.7375-.0656-7.0649-.0811-14.1314.008-21.1958.02-1.5915-.3544-2.06-2.005-2.0475C68.9761,130.7367,58.28,130.6979,47.5849,130.698Zm-.1-31.1381c-10.8279,0-21.6559.0347-32.4833-.0387-1.5644-.0106-1.9168.4455-1.9007,1.94.0766,7.1313.0622,14.2642.0079,21.3959-.0094,1.24.2933,1.6431,1.5978,1.6407q32.6779-.06,65.356,0c1.3.0024,1.6106-.3923,1.601-1.6375-.0549-7.1317-.0681-14.2645.0072-21.3959.0157-1.4881-.3264-1.9542-1.8972-1.9433C69.0114,99.5953,58.2482,99.56,47.4852,99.56Zm6.13-6.2288H96.2322c4.0937,0,4.0088-.0024,4.1294-4.1343.0487-1.6662-.3237-2.1425-2.0875-2.1385q-43.59.0977-87.1812.0463c-4.1954,0-4.1164.002-4.2256,4.2319-.0411,1.5908.3338,2.0444,1.9893,2.0364C23.7757,93.3014,38.6952,93.3311,53.6147,93.3311Zm127.6646,43.3753V170.15c0,4.1483.0048,4.0285,4.1078,4.1923,1.92.0767,2.1536-.6521,2.15-2.297q-.07-34.1244-.0316-68.249c0-4.2508-.0044-4.1334-4.2051-4.2906-1.8592-.07-2.0619.6211-2.0538,2.2009C181.3069,113.3732,181.2793,125.04,181.2793,136.7064ZM10.0215,55.7657c0,7.8436.0278,15.6874-.0284,23.5306-.009,1.2451.2822,1.6551,1.5821,1.612,3.0433-.101,6.0958-.119,9.1373.0053,1.4594.06,1.8055-.3409,1.8-1.7971Q22.4237,55.975,22.495,32.833c.0022-1.1706-.007-1.8512-1.5661-1.8454-1.5245.0057-1.5916.6235-1.5881,1.8257.0358,12.5107.0221,25.0216.0221,37.5325,0,4.3113-.0025,4.2262-4.2725,4.3469-1.6242.0459-2.0062-.3814-1.9973-1.9988.0731-13.3532.0246-26.707.0689-40.06.0041-1.2431-.2845-1.6343-1.5794-1.6288-1.2754.0054-1.6.3577-1.5906,1.6194C10.0511,40.3376,10.0215,48.0518,10.0215,55.7657Zm31.137,6.4452c0-5.6411-.024-11.2824.02-16.9232.009-1.1626.0109-1.8571-1.5584-1.8455-1.5039.0112-1.6057.5868-1.5988,1.8088.0468,8.2993.0245,16.599.0245,24.8986,0,4.52-.0013,4.4547-4.4581,4.5374-1.43.0265-1.8224-.2982-1.81-1.7805.0783-9.3363.0075-18.6739.0756-28.01.01-1.3355-.5153-1.4353-1.5774-1.4124-1.0018.0216-1.6168-.0083-1.6089,1.3811.0659,11.5412.0511,23.083.0145,34.6245-.0033,1.0688.2383,1.4418,1.3707,1.414,3.1752-.078,6.3552-.0859,9.53.0022,1.2462.0345,1.6265-.279,1.6092-1.5771C41.1152,73.6234,41.1584,67.9169,41.1585,62.2109Zm136.8661,31.12h11.2859c4.4768,0,4.4132-.0006,4.4607-4.5778.0147-1.4119-.43-1.6885-1.748-1.6789-8.237.06-16.4746.03-24.712.03-4.885,0-4.8432-.0008-4.7455,4.8709.0228,1.1379.3918,1.3883,1.449,1.377C168.6842,93.3028,173.3545,93.331,178.0246,93.3311Zm-46.8588,0c1.9748,0,3.5943-.0509,5.2085.0187,1.0026.0432,1.3814-.2645,1.3315-1.3052-.0772-1.6135-.02-3.2335-.02-4.8507,0-6.1332-.1839-6.3178-6.2941-6.3178-5.9328,0-6.1822.232-6.1495,6.2538.0108,1.9909-.8405,4.6277.3173,5.8024C126.8212,94.2123,129.4812,93.1527,131.1658,93.3313Zm-16.687,81.0248c.8072,3.0484.8072,3.0484,3.7728,3.0484h23.3038c2.9625,0,2.9625,0,3.7651-3.0484ZM86.7993,80.69a2.2176,2.2176,0,0,0,.4994.1731c3.4858.0088,6.98-.1351,10.4542.0675,2.0769.1212,2.9227-.411,2.673-2.55a8.4844,8.4844,0,0,1,.3018-2.4889c.16-.8351.093-1.2883-.9757-1.2647-2.968.0656-5.9384.0295-8.9078.0166-.6088-.0026-1.107.0378-1.42.7063C88.5861,77.14,87.6848,78.8994,86.7993,80.69Zm97.5155,106.0553c3.191,0,3.191,0,3.191-3.0843,0-3.1424,0-3.1424-3.1328-3.1424-3.0938,0-3.0938,0-3.0938,3.1815C181.2792,186.7452,181.2792,186.7452,184.3148,186.7453Zm-75.5516-9.3908c-1.6388-2.3139-3.5773-3.2792-6.0092-3.0024a5.4275,5.4275,0,0,0-4.4887,3.0024Zm42.553-.1013h10.1855C158.7693,173.2988,153.7,173.3309,151.3162,177.2532ZM98.2241,183.744a5.801,5.801,0,0,0,5.6707,2.961,5.3747,5.3747,0,0,0,4.6664-2.961Zm63.2815.0233H151.1919a5.7076,5.7076,0,0,0,5.3013,2.9522A5.5327,5.5327,0,0,0,161.5056,183.7673Z"/><path class="b24bf1b4-c7d6-473d-b0a1-0c43d99c1e37" d="M199.9614,82.8226a4.5992,4.5992,0,0,0-4.8377-1.9415c-1.0577.1472-1.4241-.1923-1.417-1.3343.0509-8.2107.0321-16.422.0182-24.633a2.9792,2.9792,0,0,1,.492-1.81c1.9312-2.7972,3.8326-5.6149,5.7445-8.4254Z"/><path class="bbe4c852-78c8-4a9a-9632-94926c3f6d55" d="M66.8387,12.4372c7-.0213,14.0009-.0572,21.0014-.0612q24.3127-.0137,48.6254-.002c3.3553,0,4.3311.9468,4.3323,4.216.0041,10.8921-.0192,21.7844.0273,32.6764.006,1.3863-.0736,1.8871-1.7394,1.47a30.3205,30.3205,0,0,0-25.03,4.3895,3.6047,3.6047,0,0,1-2.0854.86q-22.9487-.0744-45.8975-.0845,0-6.163,0-12.3262c3.1107-.1616,3.1107-.1616,3.1107-2.984,0-3.2109,0-3.2109-3.1106-3.3726l0-6.0986c3.1107-.1616,3.1107-.1616,3.1107-3.3725,0-.4534-.0071-.9069.0013-1.36.0276-1.4809-.5046-3.439.2383-4.3188.8815-1.0441,2.9088-.3181,4.4335-.3348,4.8065-.0526,4.7667-.0188,4.6986-4.8914-.0156-1.1135-.3343-1.3944-1.4134-1.3812-3.69.0449-7.38-.0158-11.0708-.0362A6.514,6.514,0,0,1,66.8387,12.4372Z"/><path class="a322a4da-ce49-4966-bfe9-5b455464bf5f" d="M47.3767,161.836c10.8224,0,21.6449.0292,32.4669-.0345,1.4619-.0086,1.8437.384,1.8282,1.8355q-.1143,10.6917-.0054,21.385c.0116,1.33-.3107,1.7566-1.7061,1.7538q-32.5643-.0662-65.1284-.0011c-1.3682.0027-1.74-.3743-1.7271-1.7333.0661-7.0632.08-14.1279-.0073-21.1905-.02-1.5883.3622-2.0658,2.0069-2.0541C25.8614,161.873,36.6192,161.836,47.3767,161.836Zm.084,9.3414h4.6535c4.9231,0,4.9005.0012,4.6342-4.9835-.0467-.8738-.2331-1.2666-1.1958-1.2605-5.4289.0344-10.8752-.2381-16.28.1245-2.6777.18-.6891,2.79-1.1688,4.2142-.2547.7561-.481,1.989,1.2141,1.93C42.0291,171.1068,44.7461,171.1763,47.4607,171.1774Z"/><path class="f24304e2-16a2-4896-97d1-0e86adbdc6bf" d="M47.5849,130.698c10.6954,0,21.3912.0387,32.086-.0409,1.6506-.0123,2.0251.456,2.005,2.0475-.0891,7.0644-.0736,14.1309-.008,21.1958.0125,1.347-.3311,1.74-1.7131,1.7375q-32.5724-.0662-65.1449,0c-1.3927.0028-1.7163-.411-1.7044-1.7459q.0956-10.6947-.0042-21.3905c-.0151-1.4375.3375-1.8487,1.8141-1.84C25.8049,130.7284,36.695,130.698,47.5849,130.698Zm-.2408,3.1125H42.686c-4.778,0-4.7282,0-4.6754,4.7584.0137,1.2337.4034,1.5119,1.5576,1.4946,4.14-.062,8.2807-.0242,12.4212-.0242,5.1,0,5.07.0018,4.7641-5.05-.0572-.9438-.3635-1.2065-1.258-1.1926C52.779,133.8385,50.0613,133.8115,47.3441,133.8105Z"/><path class="a06129c8-d49a-4b63-a828-74ae47c62ff1" d="M47.4852,99.56c10.763,0,21.5262.0354,32.2887-.0392,1.5708-.0109,1.9129.4552,1.8972,1.9433-.0753,7.1314-.0621,14.2642-.0072,21.3959.01,1.2452-.3013,1.64-1.601,1.6375q-32.6779-.06-65.356,0c-1.3045.0024-1.6072-.4-1.5978-1.6407.0543-7.1317.0687-14.2646-.0079-21.3959-.0161-1.4943.3363-1.95,1.9007-1.94C25.8293,99.5946,36.6573,99.56,47.4852,99.56Zm-.0046,3.1126H42.6239c-4.6588,0-4.6132,0-4.61,4.6229.001,1.2441.3055,1.6618,1.6048,1.6361,4.1428-.0818,8.2882-.03,12.4327-.03,4.7881,0,4.7464,0,4.7059-4.72-.01-1.1671-.2771-1.5825-1.5073-1.5373C52.6636,102.7389,50.0709,102.6726,47.4806,102.6725Z"/><path class="f9be189f-fc1a-4339-b46d-cd331b224f30" d="M155.921,76.58a17.8069,17.8069,0,0,1,.45,4.6285c-.0047,9.6567-.0435,19.3137.0391,28.97.0135,1.5783-.4612,1.9068-1.9313,1.8706-4.0158-.0988-8.0361-.0724-12.0533-.01-1.1779.0183-1.71-.1674-1.6611-1.5423.113-3.1717.054-6.35.0236-9.5257-.008-.835.063-1.3779,1.0663-1.6722a2.9422,2.9422,0,0,0,2.06-3.1655c-.008-4.1478.0657-8.2972-.0269-12.443a9.2734,9.2734,0,0,0-9.1288-9.0282q-3.3034-.0795-6.61,0a9.2921,9.2921,0,0,0-9.1318,9.2282c-.06,4.0173.0071,8.0364-.0228,12.0544a3.1806,3.1806,0,0,0,2.2462,3.448c.6677.2141.9014.4826.8935,1.192q-.0572,5.1518-.0033,10.3045c.0075.7928-.1579,1.1518-1.0581,1.1437-4.4715-.0406-8.9439-.05-13.4151.0048-1.0384.0127-1.1239-.4446-1.1216-1.2788.0283-10.4342.0189-20.8686.0564-31.3028a20.8407,20.8407,0,0,1,.4015-2.8786.6822.6822,0,0,0,.2261-.8519l-.0219.0291c2.3678-2.6864,4.4487-5.593,7.36-7.8245a27.9937,27.9937,0,0,1,36.4383,2.2632c1.75,1.7281,2.9674,3.8619,4.7173,5.5629l-.022-.028A.69.69,0,0,0,155.921,76.58Z"/><path class="ba8f3aa5-bb0a-4914-9247-135888f49a70" d="M53.6147,93.3311c-14.9195,0-29.839-.03-44.7581.0418-1.6555.008-2.03-.4456-1.9893-2.0364.1092-4.23.03-4.2319,4.2256-4.2319q43.5908,0,87.1812-.0463c1.7638-.004,2.1362.4723,2.0875,2.1385-.1206,4.1319-.0357,4.1343-4.1294,4.1343Z"/><path class="f24304e2-16a2-4896-97d1-0e86adbdc6bf" d="M181.2793,136.7064c0-11.6665.0276-23.3332-.0325-34.9994-.0081-1.58.1946-2.27,2.0538-2.2009,4.2007.1572,4.2051.04,4.2051,4.2906q0,34.1246.0316,68.249c.0034,1.6449-.23,2.3737-2.15,2.297-4.103-.1638-4.1078-.044-4.1078-4.1923Z"/><path class="bdf9c08e-f4c8-4ab3-8d9d-6fc06ba04170" d="M10.0215,55.7657c0-7.7139.03-15.4281-.0295-23.1416-.01-1.2617.3152-1.614,1.5906-1.6194,1.2949-.0055,1.5835.3857,1.5794,1.6288-.0443,13.3534.0042,26.7072-.0689,40.06-.0089,1.6174.3731,2.0447,1.9973,1.9988,4.27-.1207,4.2725-.0356,4.2725-4.3469,0-12.5109.0137-25.0218-.0221-37.5325-.0035-1.2022.0636-1.82,1.5881-1.8257,1.5591-.0058,1.5683.6748,1.5661,1.8454q-.0434,23.1419.0174,46.2835c.0056,1.4562-.34,1.8568-1.8,1.7971-3.0415-.1243-6.094-.1063-9.1373-.0053-1.3.0431-1.5911-.3669-1.5821-1.612C10.0493,71.4531,10.0215,63.6093,10.0215,55.7657Z"/><path class="b0545483-6a90-4ca0-9608-9f6e550a0a76" d="M41.1584,62.2109c0,5.706-.0432,11.4125.0328,17.1174.0173,1.2981-.363,1.6116-1.6092,1.5771-3.1748-.0881-6.3548-.08-9.53-.0022-1.1324.0278-1.374-.3452-1.3707-1.414.0366-11.5415.0514-23.0833-.0145-34.6245-.0079-1.3894.6071-1.3595,1.6089-1.3811,1.0621-.0229,1.5872.0769,1.5774,1.4124-.0681,9.3366.0027,18.6742-.0756,28.01-.0125,1.4823.38,1.807,1.81,1.7805,4.4568-.0827,4.4581-.0175,4.4581-4.5374,0-8.3.0223-16.5993-.0245-24.8986-.0069-1.222.0949-1.7976,1.5988-1.8088,1.5693-.0116,1.5674.6829,1.5584,1.8455C41.1345,50.9285,41.1585,56.57,41.1584,62.2109Z"/><path class="a1bba017-ba4d-4bcf-be5b-1f20f7c0f3af" d="M155.7131,75.7558c-1.75-1.701-2.9669-3.8348-4.7173-5.5629A27.9937,27.9937,0,0,0,114.5575,67.93c-2.9112,2.2315-4.9921,5.1381-7.36,7.8245,1.2088-8.8759,9.3486-17.1023,19.0537-19.2565a25.0376,25.0376,0,0,1,29.2287,17.73A13.5285,13.5285,0,0,1,155.7131,75.7558Z"/><path class="b0545483-6a90-4ca0-9608-9f6e550a0a76" d="M66.076,62.2512h40.367a44.9685,44.9685,0,0,0-3.1993,5.5478c-.2537.61-.7075.6283-1.2476.627q-17.7648-.0421-35.53-.0686A24.256,24.256,0,0,1,66.076,62.2512Z"/><path class="b0bd212c-0ee6-4cac-b221-6f82a2269937" d="M165.5976,133.3867c-.0064,2.4251-1.0581,3.5177-3.5258,3.53-5.0517.026-10.1036.0081-15.1554.0081q-22.9276,0-45.8551-.0048c-2.8979-.0019-4.1142-1.3981-3.6034-4.0473.962.982,2.2015.94,3.4345.94q28.3934-.0027,56.7866-.0049A34.5886,34.5886,0,0,0,165.5976,133.3867Z"/><path class="f9be189f-fc1a-4339-b46d-cd331b224f30" d="M165.5976,133.3867a34.5886,34.5886,0,0,1-7.9186.4212q-28.3933.01-56.7866.0049c-1.233,0-2.4725.0423-3.4345-.94.5255-1.874,1.9663-2.1835,3.6381-2.1813q13.908.0179,27.8159.0056,16.4365,0,32.8732-.0079C163.73,130.6866,165.2391,131.1968,165.5976,133.3867Z"/><path class="e44821f6-b9df-4a69-9b5e-809df6923986" d="M66.0724,31.12q0,3.0493,0,6.0986c-3.1172.1632-3.1172.1632-3.1172,2.9842,0,3.2092,0,3.2092,3.1171,3.3724q0,6.1632,0,12.3262c-1.9992-.0132-4.5447.71-5.84-.2517-1.2349-.9165-.3669-3.626-.3732-5.5423-.0367-11.0233-.0184-22.0468-.0176-33.07,0-3.84.8254-4.6664,4.6673-4.6614.7766.001,1.5532.04,2.33.0614a6.5126,6.5126,0,0,0-.768,2.9879c-2.4731.6854-3.0986,1.46-3.112,3.94-.015,2.7883-.0034,5.5768-.0034,8.3652C62.9552,30.9574,62.9553,30.9574,66.0724,31.12Z"/><path class="ba8f3aa5-bb0a-4914-9247-135888f49a70" d="M178.0246,93.3311c-4.67,0-9.34-.0283-14.01.0214-1.0572.0113-1.4262-.2391-1.449-1.377-.0977-4.8717-.1395-4.8709,4.7455-4.8709,8.2374,0,16.475.03,24.712-.03,1.3184-.01,1.7627.267,1.748,1.6789-.0475,4.5772.0161,4.5778-4.4607,4.5778Z"/><path class="b0545483-6a90-4ca0-9608-9f6e550a0a76" d="M178.1735,62.2582c2.7207-.0214,5.4425-.0063,8.1616-.084.9389-.0269,1.198.2628,1.1909,1.1939q-.062,8.1666,0,16.3338c.0071.931-.2517,1.2209-1.1908,1.194-2.7191-.0777-5.4409-.0626-8.1616-.084Q178.1736,71.5351,178.1735,62.2582Z"/><path class="abe6277e-66df-4f97-b15e-e1604de9c758" d="M131.1658,93.3313c-1.6846-.1786-4.3446.881-5.6061-.3988-1.1578-1.1747-.3065-3.8115-.3173-5.8024-.0327-6.0218.2167-6.2538,6.1495-6.2538,6.11,0,6.2942.1846,6.2941,6.3178,0,1.6172-.0574,3.2372.02,4.8507.05,1.0407-.3289,1.3484-1.3315,1.3052C134.76,93.28,133.1406,93.3313,131.1658,93.3313Z"/><path class="abe6277e-66df-4f97-b15e-e1604de9c758" d="M114.4788,174.3561h30.8417c-.8026,3.0484-.8026,3.0484-3.7651,3.0484H118.2516C115.286,177.4045,115.286,177.4045,114.4788,174.3561Z"/><path class="aa75fc2f-2441-4b7f-9352-21447979441c" d="M131.4637,124.4048c-3.1187.1627-3.1187.1627-3.1187-2.8618V102.4859c0-3.0245,0-3.0245,3.1187-2.8617Z"/><path class="bdf9c08e-f4c8-4ab3-8d9d-6fc06ba04170" d="M131.4637,124.4048V99.6242c3.108-.1621,3.108-.1621,3.108,2.8633v19.054C134.5717,124.5669,134.5717,124.5669,131.4637,124.4048Z"/><path class="aa75fc2f-2441-4b7f-9352-21447979441c" d="M131.4637,167.998c-3.1187.1628-3.1187.1628-3.1187-2.8618v-19.057c0-3.0245,0-3.0245,3.1187-2.8618Z"/><path class="bdf9c08e-f4c8-4ab3-8d9d-6fc06ba04170" d="M131.4637,167.998V143.2174c3.108-.1621,3.108-.1621,3.108,2.8633v19.0541C134.5717,168.16,134.5717,168.16,131.4637,167.998Z"/><path class="aa75fc2f-2441-4b7f-9352-21447979441c" d="M86.7993,80.69c.8855-1.7906,1.7868-3.55,2.6249-5.34.313-.6685.8112-.7089,1.42-.7063,2.9694.0129,5.94.049,8.9078-.0166,1.0687-.0236,1.1356.43.9757,1.2647a8.4844,8.4844,0,0,0-.3018,2.4889c.25,2.1389-.5961,2.6711-2.673,2.55-3.4741-.2026-6.9684-.0587-10.4542-.0675A2.2176,2.2176,0,0,1,86.7993,80.69Z"/><path class="bdf9c08e-f4c8-4ab3-8d9d-6fc06ba04170" d="M178.1735,62.2582q0,9.2769,0,18.5537c-3.122.1618-3.122.1618-3.122-2.8553V65.1136C175.0516,62.0964,175.0516,62.0964,178.1735,62.2582Z"/><path class="ba8f3aa5-bb0a-4914-9247-135888f49a70" d="M184.3148,186.7453c-3.0356,0-3.0356,0-3.0356-3.0452,0-3.1815,0-3.1815,3.0938-3.1815,3.1328,0,3.1328,0,3.1328,3.1424C187.5058,186.7453,187.5058,186.7453,184.3148,186.7453Z"/><path class="bdf9c08e-f4c8-4ab3-8d9d-6fc06ba04170" d="M66.076,62.2512a24.256,24.256,0,0,0,.3905,6.1062c-.6417.0249-1.2844.0361-1.9251.077-4.7026.3-4.8319-2.1406-4.7316-5.3385.0259-.8244.3766-.9408,1.0561-.9216C62.6019,62.2232,64.3392,62.2284,66.076,62.2512Z"/><path class="aa75fc2f-2441-4b7f-9352-21447979441c" d="M108.7632,177.3545H98.2653a5.4275,5.4275,0,0,1,4.4887-3.0024C105.1859,174.0753,107.1244,175.0406,108.7632,177.3545Z"/><path class="aa75fc2f-2441-4b7f-9352-21447979441c" d="M151.3162,177.2532c2.3837-3.9223,7.4531-3.9544,10.1855,0Z"/><path class="e1b5cd99-63c7-4f53-8cc5-a71f71d7e4e7" d="M98.2241,183.744h10.3371a5.3747,5.3747,0,0,1-4.6664,2.961A5.801,5.801,0,0,1,98.2241,183.744Z"/><path class="e1b5cd99-63c7-4f53-8cc5-a71f71d7e4e7" d="M161.5056,183.7673a5.5327,5.5327,0,0,1-5.0124,2.9522,5.7076,5.7076,0,0,1-5.3013-2.9522Z"/><path class="a1bba017-ba4d-4bcf-be5b-1f20f7c0f3af" d="M155.921,76.58a.69.69,0,0,1-.23-.8517A.8.8,0,0,1,155.921,76.58Z"/><path class="a1bba017-ba4d-4bcf-be5b-1f20f7c0f3af" d="M107.22,75.7251a.6822.6822,0,0,1-.2261.8519A.8074.8074,0,0,1,107.22,75.7251Z"/><path d="M66.0724,31.12c-3.1171-.1627-3.1172-.1627-3.1171-3.3894,0-2.7884-.0116-5.5769.0034-8.3652.0134-2.48.6389-3.255,3.112-3.94,3.69.02,7.3811.0811,11.0707.0362,1.0791-.0132,1.3978.2677,1.4134,1.3812.0681,4.8726.1079,4.8388-4.6986,4.8914-1.5247.0167-3.552-.7093-4.4335.3348-.7429.88-.2107,2.8379-.2383,4.3188-.0084.4532-.0013.9067-.0013,1.36C69.1831,30.9585,69.1831,30.9585,66.0724,31.12Z"/><path d="M66.0724,43.5753c-3.1172-.1632-3.1172-.1632-3.1171-3.3724,0-2.821,0-2.821,3.1172-2.9842,3.1106.1617,3.1106.1617,3.1106,3.3726C69.1831,43.4137,69.1831,43.4137,66.0724,43.5753Z"/><path d="M47.4607,171.1768c-2.7146,0-5.4316-.07-8.1428.0249-1.6951.0594-1.4688-1.1735-1.2141-1.93.48-1.4244-1.5089-4.0346,1.1688-4.2142,5.4048-.3626,10.8511-.09,16.28-.1245.9627-.0061,1.1491.3867,1.1958,1.2605.2663,4.9847.2889,4.9835-4.6342,4.9835Q49.7874,171.1774,47.4607,171.1768Z"/><path d="M47.3441,133.811c2.7172,0,5.4349.0275,8.1514-.0148.8945-.0139,1.2008.2488,1.258,1.1926.306,5.0523.3356,5.0505-4.7641,5.0505-4.1405,0-8.2816-.0378-12.4212.0242-1.1542.0173-1.5439-.2609-1.5576-1.4946-.0528-4.7589-.1026-4.7584,4.6754-4.7584Q45.0151,133.8105,47.3441,133.811Z"/><path d="M47.4806,102.6726c2.59,0,5.183.0663,7.77-.0289,1.23-.0452,1.4973.37,1.5073,1.5373.0405,4.7206.0822,4.72-4.7059,4.72-4.1445,0-8.29-.0515-12.4327.03-1.2993.0257-1.6038-.392-1.6048-1.6361-.0036-4.6229-.0492-4.6229,4.61-4.6229Z"/></svg>