<svg id="a2ada92e-8ed0-4dc5-9d62-f187b0d33898" data-name="Capa 1" xmlns="http://www.w3.org/2000/svg" viewBox="0 0 200 200"><defs><style>.fd80275a-e35b-43dd-8d54-aca4d8e4d4a0{fill:#99422a;}.fbfed149-dd5f-461f-802d-c032e87db7dc{fill:#7a848f;}.a4376662-c312-40a1-bf3d-17a832293a71{fill:#8eae20;}.f07244c1-c4e7-4576-b7d9-bf2b45081128{fill:#d9a461;}.bcab5537-0723-4339-bfb9-928f92356176{fill:#aa5033;}.b44d54f1-99e6-411b-b23b-cd7e6c9461b2{fill:#cd9457;}.fa27f3d9-4515-4f9e-aa95-4218792c91ec{fill:#b6763d;}.e2639288-5c93-493b-98ba-27204fe09cde{fill:#cd9356;}.be34fb56-d934-4a13-96ba-e5b597c17c47{fill:#bd8850;}.bd385ff9-94a6-4000-a752-284307e1ffed{fill:#fefefe;}.abbfb001-4b94-459d-8148-81d4938c6d0a{fill:#9a452d;}.b5f5e910-edfb-4a14-b732-4b3636e8d06e{fill:#ad563b;}.aafe3735-bf19-45a1-9793-0052a2c14ba3{fill:#44433f;}.f43a0e3f-e784-4aab-a3de-75e5aa1eaa57{fill:#edebeb;}.a0a3044f-3174-4808-bdfc-34d069a1a36c{fill:#ece9e8;}.a3ebf72d-90cb-4fdb-a3d6-0eb2c3d9b673{fill:#a04f37;}</style></defs><path class="fd80275a-e35b-43dd-8d54-aca4d8e4d4a0" d="M28.1185,37.6139c-3.4869-.1249-3.4869-.1249-3.4869-3.6375,0-3.8262,0-3.8262,3.8351-3.8262q72.1286,0,144.2569-.045c1.8672-.0022,2.625.4233,2.2911,2.3163a9.0789,9.0789,0,0,0-.0134,1.5549c0,3.5125,0,3.5125-3.4867,3.6374l-6.2205,0q-.7861-.0059-1.5722-.0112c-.9089-.0116-1.8178-.0332-2.7268-.0333q-47.6375-.0025-95.2751,0-14.9044.002-29.8091.0331l-1.5722.0113Z"/><path class="fbfed149-dd5f-461f-802d-c032e87db7dc" d="M194.2387,164.222a1.2446,1.2446,0,0,1,.1568.3509c.4483,4.3688.4473,4.3689-3.87,4.3689H8.72c-3.6387,0-3.6439,0-3.5294-3.5919a7.72,7.72,0,0,1,.2-1.1276q9.6232-.0189,19.2461-.0374c.6482.0192,1.2965.0548,1.9449.0548q73.235.0039,146.47,0c.6484,0,1.2968-.0359,1.9451-.0551Z"/><path class="a4376662-c312-40a1-bf3d-17a832293a71" d="M171.5279,113.2578c6.7368-6.0156,15.4612-3.4466,17.5327,5.1965a1.9693,1.9693,0,0,0,1.19,1.3556c4.29,2.4423,5.3755,6.75,2.7433,10.9067a2.0782,2.0782,0,0,0-.4668,1.775,8.8952,8.8952,0,0,1-12.7843,9.9684,1.2184,1.2184,0,0,0-.3822-.0567q-.6568-.5579-1.3132-1.1163c-2.0684-1.7594-2.0684-1.7594-3.8413.3855-.9235.3384-1.6328,1.1624-2.694,1.1888l-.3548-2.786c.6054-.823.2574-1.7339.241-2.6143a8.8184,8.8184,0,0,1,1.7264-.0953c1.5637.2129,1.9146-.4639,1.9483-1.9448.0374-1.6492-.5214-2.2055-2.09-1.9928a8.8885,8.8885,0,0,1-1.5371-.05Z"/><path class="a4376662-c312-40a1-bf3d-17a832293a71" d="M20.2729,142.4025c-2.0222.661-3.987,1.4086-6.2284.91a8.7822,8.7822,0,0,1-7.0377-10.0518,3.7558,3.7558,0,0,0-.5709-2.8791,7.2328,7.2328,0,0,1,2.7758-10.4832c.629-.3451,1.156-.578,1.359-1.4415,2.0264-8.6188,10.8034-11.2016,17.5342-5.1978q.041,10.0594.0822,20.1191c-.8343.0231-1.6686.0436-2.5028.07-.4568.0146-.8416.051-1.0386.62-.6863,1.9824.14,3.2186,2.2461,3.2862.4486.0144.8958.07,1.3422.1055-.0133.88-.364,1.7921.2421,2.6151l-.3586,3.09-2.69-1.4914c-1.7693-2.15-1.7693-2.15-3.84-.3885Q20.93,141.8443,20.2729,142.4025Z"/><path class="f07244c1-c4e7-4576-b7d9-bf2b45081128" d="M28.1185,37.6139l6.22,0q.003,25.0515.0037,50.1035c0,1.1-.2438,2.3573,1.5667,2.0865,5.9359.0009,11.8718-.0071,17.8076.0146.68.0025,1.4305-.2561,2.0281.3267l-27.6756-.0291c.0293-3.499.0839-6.998.0834-10.4969Q28.15,58.6166,28.1185,37.6139Z"/><path class="f07244c1-c4e7-4576-b7d9-bf2b45081128" d="M165.2942,37.6142l6.22,0q.0243,26.2514.0494,52.5026-13.837.0147-27.675.0295c.5967-.584,1.3476-.3246,2.0274-.3271,5.9357-.0218,11.8716-.0138,17.8074-.0147,1.8106.2708,1.5667-.987,1.5666-2.0866Q165.2886,62.6659,165.2942,37.6142Z"/><path class="f07244c1-c4e7-4576-b7d9-bf2b45081128" d="M28.1871,133.3781q-.0411-10.06-.0822-20.1191c.5727-1.2319.2557-2.5373.2666-3.8036.0361-4.1921-.0066-8.3849-.0185-12.5776.9683-.0188,1.9359-.0507,2.9036-.0537,2.6874-.0082,2.6875-.0035,2.7113-2.703.78.7888.1924,1.7961.4264,2.6722l-.4575,36.6092Z"/><path class="f07244c1-c4e7-4576-b7d9-bf2b45081128" d="M171.5279,113.2578q-.0411,10.06-.0815,20.1207-2.8744.0123-5.75.024-.2289-18.3045-.4576-36.6092c.2341-.876-.3535-1.883.4263-2.672.0238,2.6993.0238,2.6988,2.6414,2.7q1.4322.0009,2.8645.0059c.0241,4.7871.04,9.5744.0809,14.3614C171.2576,111.8828,171.0554,112.62,171.5279,113.2578Z"/><path class="fd80275a-e35b-43dd-8d54-aca4d8e4d4a0" d="M143.8893,90.1457l27.6747-.0293c.3834.005.7671.0133,1.1507.0146,2.1769.0072,2.9468,1.0881,2.2708,3.1575a1.0676,1.0676,0,0,1-1.17.7637c-.8946.0066-1.7891.03-2.6836.0461a.7563.7563,0,0,0-.3647-.0758c-.6887-.5433-1.4974-.3016-2.25-.3034q-14.0764-.0335-28.1531-.027.042-1.7533.0843-3.5068a1.0079,1.0079,0,0,0,.2667.02l2.7737-.061Z"/><path class="fd80275a-e35b-43dd-8d54-aca4d8e4d4a0" d="M28.0693,90.1163q13.8378.0146,27.6759.0293c.1332-.0005.2662-.0012.3994-.0014q1.17.02,2.3389.0385l.3994.0114-.0036,3.4979q-13.8819.0081-27.7638.027c-.7532.0018-1.5615-.2383-2.2511.3025l-.3982.0451a1.233,1.233,0,0,0-.3429.0341l-3.1362-.088q-.1539-.1491-.3082-.2981V90.5755q.15-.1843.3-.3692Z"/><path class="a4376662-c312-40a1-bf3d-17a832293a71" d="M24.6365,164.1846,5.39,164.2223C5.73,162.06,7.454,161.2044,9.1364,160.4c3.5247-1.6856,7.3528-1.8218,11.1611-2.0075a1.7436,1.7436,0,0,0,2.4185-.24c.88-.835,1.7991-1.63,2.701-2.4422q1.3534-.6094,2.7076-1.2178l.0868,5.3352c-3.6272.2856-3.6273.2856-3.59,3.9727C24.6229,163.9282,24.6314,164.0564,24.6365,164.1846Z"/><path class="a4376662-c312-40a1-bf3d-17a832293a71" d="M194.2387,164.222q-9.6211-.0188-19.2422-.0371c.0675-4.0713.0675-4.0713-3.575-4.3577l.0924-5.0359c1.02-.0588,1.7393.7828,2.7.9.901.817,1.8184,1.6169,2.6981,2.4562a1.7443,1.7443,0,0,0,2.423.2452c3.8071.1855,7.6345.3219,11.1576,2.0074C192.1742,161.2041,193.8982,162.0609,194.2387,164.222Z"/><path class="bcab5537-0723-4339-bfb9-928f92356176" d="M25.4172,155.71c-.9021.8121-1.8208,1.6067-2.7012,2.4417a1.7436,1.7436,0,0,1-2.4185.24q-.0121-7.9944-.0244-15.99.6565-.559,1.3134-1.1172c2.0712-1.7617,2.0712-1.7617,3.84.3887Q25.422,148.6925,25.4172,155.71Z"/><path class="bcab5537-0723-4339-bfb9-928f92356176" d="M179.3354,158.3924a1.7443,1.7443,0,0,1-2.423-.2452c-.88-.8393-1.7971-1.6392-2.6979-2.4566q-.0042-7.01-.009-14.0183c1.773-2.1447,1.773-2.1447,3.8414-.3853q.6566.5583,1.3132,1.1163Q179.348,150.3974,179.3354,158.3924Z"/><path class="b44d54f1-99e6-411b-b23b-cd7e6c9461b2" d="M28.4662,94.0666c.1327-.015.2655-.03.3982-.0445q2.5518.05,5.1036.0993c-.0239,2.6992-.024,2.6945-2.7114,2.7027-.9677.003-1.9353.0349-2.9036.0537a4.2431,4.2431,0,0,1-.1694-2.4121Z"/><path class="b44d54f1-99e6-411b-b23b-cd7e6c9461b2" d="M170.7672,94.0219a.7638.7638,0,0,1,.3647.0764q.0192,1.3647.0387,2.7294-1.4319-.003-2.8643-.0059c-2.6176-.0017-2.6176-.0012-2.6414-2.7008Q168.2161,94.0712,170.7672,94.0219Z"/><path class="fa27f3d9-4515-4f9e-aa95-4218792c91ec" d="M24.6789,93.7146q.1542.1489.3082.2981C24.7241,94.0787,24.6278,93.9727,24.6789,93.7146Z"/><path class="fa27f3d9-4515-4f9e-aa95-4218792c91ec" d="M28.4662,94.0666l-.2826.3991a.7759.7759,0,0,1-.06-.3651A1.2378,1.2378,0,0,1,28.4662,94.0666Z"/><path class="fa27f3d9-4515-4f9e-aa95-4218792c91ec" d="M24.9793,90.2063q-.15.1847-.3.3692C24.6249,90.3268,24.699,90.1827,24.9793,90.2063Z"/><path class="e2639288-5c93-493b-98ba-27204fe09cde" d="M56.1445,90.1438q-.2.0009-.3993.0018c-.5979-.583-1.3485-.3244-2.0284-.3269-5.9358-.0217-11.8717-.0137-17.8076-.0145q.0009-26.1006.0017-52.2013Q50.8155,37.5855,65.72,37.57q47.6376-.0065,95.2751,0c.909,0,1.8179.0217,2.7269.0332l.0018,52.2013c-5.9358.0009-11.8717-.0071-17.8074.0147-.68.0025-1.4307-.2569-2.0274.3271q-.2-.0014-.4006-.0017c-.0121-.1074-.0193-.2156-.0218-.324.0078-1.853-.1123-3.7179.0588-5.5557.1784-1.9161-.58-2.5487-2.3652-2.2588l.0022-.7151c5.64-.0158,11.28-.0668,16.92-.0216,1.326.0106,1.7991-.348,1.7923-1.7409q-.0764-15.753.0031-31.5063c.008-1.4705-.4477-1.8812-1.8852-1.86-5.1207.0765-10.2446.0942-15.3644-.008-1.6056-.0321-1.9393.5329-1.93,2.01.0585,9.4646.0328,18.93.0348,28.3946l-5.9025.029c.0106-9.4559-.0125-18.9121.0633-28.3675.0135-1.6921-.6533-2.0756-2.19-2.0542-5.0514.07-10.1059.0969-15.1559-.0131-1.6972-.037-2.2037.4117-2.1859,2.1535.0732,7.1865-.0158,14.3746-.0451,21.5621-1.93-.1436-3.8971.4051-5.7972-.3051.0088-7.1377-.0189-14.2756.0537-21.4124.0161-1.5779-.5888-2.001-2.0669-1.9828q-7.6889.0943-15.3792,0c-1.4786-.0181-2.0827.4057-2.0666,1.9832.0728,7.1369.0454,14.2747.0541,21.4122-1.9.71-3.8672.1614-5.7982.3055-.03-7.133-.1082-14.2668-.0512-21.4.0137-1.7031-.3281-2.3786-2.217-2.3246-4.9262.1411-9.8606.118-14.7884.0088-1.6943-.0375-2.2136.4088-2.1985,2.1575.0815,9.4046.03,18.81.0245,28.2158L58.9,76.558c.0019-9.4649-.0238-18.93.0347-28.3945.0091-1.477-.325-2.0415-1.93-2.0094-5.12.1022-10.2437.0845-15.3644.008-1.4377-.0215-1.8931.39-1.8849,1.86q.0864,15.6555-.0053,31.3116c-.0106,1.5837.5,1.958,1.9954,1.9411,5.5743-.0631,11.15,0,16.7252.0158l.002.7152c-1.7852-.29-2.5436.3427-2.3652,2.2588.171,1.8378.0509,3.7027.0588,5.5557Q56.1623,89.9825,56.1445,90.1438Z"/><path class="be34fb56-d934-4a13-96ba-e5b597c17c47" d="M163.7238,89.8041l-.0018-52.2013q.786.0057,1.5721.0113-.0028,25.0518-.0037,50.1034C165.2905,88.8171,165.5344,90.0749,163.7238,89.8041Z"/><path class="be34fb56-d934-4a13-96ba-e5b597c17c47" d="M35.9109,37.6029q-.0007,26.1007-.0017,52.2013c-1.81.2707-1.5668-.9869-1.5667-2.0866q.002-25.0518-.0037-50.1035Z"/><path class="fd80275a-e35b-43dd-8d54-aca4d8e4d4a0" d="M171.4215,159.8272c3.6425.2864,3.6425.2864,3.575,4.3577-.6485.0189-1.2969.0548-1.9453.0548q-73.2349.0039-146.47,0c-.6484,0-1.2967-.0356-1.9449-.0548-.005-.1285-.0135-.2567-.0148-.3851-.0375-3.6871-.0374-3.6871,3.5889-3.9719a.9042.9042,0,0,0,.292.0255q15.2235-.0088,30.4476-.0187l28.3416.0813h25.0494l27.97-.0364,30.8172-.0262A.9183.9183,0,0,0,171.4215,159.8272Z"/><path class="fd80275a-e35b-43dd-8d54-aca4d8e4d4a0" d="M165.6962,133.4025q2.8755-.0119,5.75-.024a8.9192,8.9192,0,0,0,1.5365.05c1.5682-.2127,2.127.3436,2.09,1.9928-.0337,1.4809-.3846,2.1577-1.9483,1.9448a8.8517,8.8517,0,0,0-1.725.0946q-2.8554-.0369-5.7135-.0727-11.8888-.0135-23.7777-.0267-1.3686-.0048-2.7368-.0086a4.9518,4.9518,0,0,1-.0019-3.9161l2.7445-.03,21.7944-.0263Z"/><path class="f07244c1-c4e7-4576-b7d9-bf2b45081128" d="M171.4215,159.8272a.9324.9324,0,0,1-.2928.0267c-1.2955-.6006-2.6674-.25-4-.27-1.0695-.0162-1.4614-.3565-1.4849-1.4582-.1155-5.4135-.5715-10.8194-.355-16.24.0248-.6215-.2093-1.3108.3793-1.82l5.4884.01q.1773,1.393.3549,2.7859a54.3963,54.3963,0,0,0,.0022,11.93Z"/><path class="bd385ff9-94a6-4000-a752-284307e1ffed" d="M171.5139,154.7913a54.3963,54.3963,0,0,1-.0022-11.93c1.0611-.0263,1.77-.85,2.6939-1.1887q.0045,7.0086.0089,14.0181C173.2532,155.5741,172.5336,154.7325,171.5139,154.7913Z"/><path class="b44d54f1-99e6-411b-b23b-cd7e6c9461b2" d="M171.1568,140.0753l-5.4883-.01q.0087-1.3386.0173-2.6774,2.8573.0358,5.7134.0724C171.4142,138.3414,171.7622,139.2523,171.1568,140.0753Z"/><path class="fd80275a-e35b-43dd-8d54-aca4d8e4d4a0" d="M28.1871,133.3781q2.8749.0123,5.75.0247.9939-.0114,1.9877-.0232,10.8972.0132,21.7945.0266,1.3727.0144,2.745.0283a4.96,4.96,0,0,1-.0024,3.9178q-1.3686.0043-2.7369.009l-21.8079.0082-1.5912.0118-6.09.08c-.4478-.0365-.895-.0918-1.3436-.1062-2.106-.0676-2.9324-1.3038-2.2461-3.2862.197-.5692.5818-.6056,1.0386-.62C26.5185,133.4217,27.3528,133.4012,28.1871,133.3781Z"/><path class="f07244c1-c4e7-4576-b7d9-bf2b45081128" d="M28.5027,159.8529a.891.891,0,0,1-.2922-.025q-.042-2.6688-.0861-5.336a48.89,48.89,0,0,0-.0069-11.3263q.1792-1.5452.3589-3.09a21.6127,21.6127,0,0,1,5.0134.1941c1.15.3051-.0791,2.0944.8608,2.9148.2941,4.9852-.4125,9.9455-.3664,14.923.01,1.0947-.3825,1.4629-1.47,1.4767C31.1784,159.6011,29.8029,159.2549,28.5027,159.8529Z"/><path class="bd385ff9-94a6-4000-a752-284307e1ffed" d="M28.1175,143.1656a48.89,48.89,0,0,1,.0069,11.3263q-1.3537.6087-2.7074,1.2178.0051-7.0172.01-14.0353Z"/><path class="b44d54f1-99e6-411b-b23b-cd7e6c9461b2" d="M34.3506,143.1842c-.94-.82.2894-2.61-.8608-2.9147a21.6127,21.6127,0,0,0-5.0134-.1941c-.6064-.8231-.2557-1.7353-.2424-2.6152q3.0472-.0388,6.092-.0794.0139,1.3432.0273,2.6876Z"/><path class="be34fb56-d934-4a13-96ba-e5b597c17c47" d="M35.9246,133.38q-.9938.0115-1.9877.0231.2286-18.305.457-36.6092.7563.0139,1.5133.0275Z"/><path class="fa27f3d9-4515-4f9e-aa95-4218792c91ec" d="M35.9072,96.8211q-.7567-.0137-1.5133-.0275c-.2336-.8764.3538-1.8837-.426-2.6725q-2.5516-.0489-5.1035-.099c.69-.5414,1.4979-.3013,2.2511-.3031q13.8819-.0333,27.7639-.0269c-.1291,1.1448.2777,1.7808,1.5318,1.6126q.0163.7491.0317,1.4991l-2.7072.0131,0,0c-.0064-2.722-.0064-2.7227-2.6845-2.7229q-8.2328-.0007-16.4654,0c-2.6774,0-2.6774.0009-2.6781,2.7272Z"/><path class="be34fb56-d934-4a13-96ba-e5b597c17c47" d="M165.6962,133.4025q-.994-.0114-1.9878-.0223.0087-18.2791.0173-36.5591l1.5129-.0278Q165.4674,115.098,165.6962,133.4025Z"/><path class="fa27f3d9-4515-4f9e-aa95-4218792c91ec" d="M165.2386,96.7933l-1.5129.0278v0c-.001-2.7263-.001-2.727-2.6783-2.7272q-8.2328-.0007-16.4654,0c-2.6781,0-2.6781.0009-2.6845,2.7229l0,0-2.7062-.014-.0059-1.13c1.6156.0674,1.0364-1.1712,1.1787-1.9806q14.0764.0081,28.153.0271c.7529.0018,1.5616-.24,2.25.3034q-2.5511.0485-5.1023.0985C164.8851,94.91,165.4727,95.9173,165.2386,96.7933Z"/><path class="bcab5537-0723-4339-bfb9-928f92356176" d="M56.1663,89.82c-.0079-1.853.1122-3.7179-.0588-5.5557-.1784-1.9161.58-2.5487,2.3655-2.2588H141.16c1.7852-.29,2.5436.3427,2.3652,2.2588-.1711,1.8378-.051,3.7027-.0589,5.5556-.9159.138-1.9205-.3591-2.7517.3847a1.0206,1.0206,0,0,1-.2675-.0194l-10.6256.0128a3.5917,3.5917,0,0,0-3.5062-.0027l-10.5223.0037c-.5094-.5892-1.2-.374-1.82-.3748q-14.1568-.0186-28.3138,0c-.62.0008-1.31-.2144-1.82.3747l-10.5223-.0035a4.3887,4.3887,0,0,0-3.9.0188l-10.5344-.02q-.2-.0057-.3991-.0112C57.8,89.4992,56.9392,89.9393,56.1663,89.82Z"/><path class="f07244c1-c4e7-4576-b7d9-bf2b45081128" d="M129.8217,90.1982l10.6256-.0128q-.041,1.7533-.0835,3.5067c-.1422.8093.437,2.0479-1.1788,1.98-2.4466-.89-4.9716-.2086-7.4544-.373-1.44.1921-2.106-.3279-1.9313-1.8786A28.8975,28.8975,0,0,0,129.8217,90.1982Z"/><path class="fa27f3d9-4515-4f9e-aa95-4218792c91ec" d="M140.7148,90.2048c.8312-.7438,1.8358-.2467,2.7517-.3847q.0039.1628.0219.3241Q142.1018,90.1741,140.7148,90.2048Z"/><path class="f07244c1-c4e7-4576-b7d9-bf2b45081128" d="M58.8829,90.1941q5.2672.01,10.5345.02c.0011,1.1972-.063,2.399.0215,3.59.0843,1.1888-.4262,1.6111-1.5366,1.4948l-7.4916.0057c-1.2536.1678-1.66-.4682-1.5313-1.613Q58.8811,91.9431,58.8829,90.1941Z"/><path class="fa27f3d9-4515-4f9e-aa95-4218792c91ec" d="M56.1663,89.82c.7729.1191,1.6333-.321,2.3175.3627q-1.17-.0194-2.3392-.0387C56.1563,90.0362,56.1636,89.9284,56.1663,89.82Z"/><path class="abbfb001-4b94-459d-8148-81d4938c6d0a" d="M141.16,81.29v.72H58.47v-.72c.22-1.57-.35-3.21.43-4.73l6.19-.03c.42,0,.83.01,1.25.01a72.8971,72.8971,0,0,0,9.11.14c1.59.01,3.69.75,4.62-.37.77-.94.41-2.98.25-4.5-.2-1.88.62-2.26,2.2-1.96.6,0,1.2.01,1.8.02,1.93-.15,3.89.4,5.79-.31.5,0,1-.01,1.5-.01,3.21.57,6.45.2,9.67.22,2.24.02,4.51.34,6.74-.22.5,0,1,.01,1.5.01,1.9.71,3.87.16,5.8.31.59-.01,1.19-.02,1.79-.02,1.59-.3,2.45.09,2.19,1.97a32.2,32.2,0,0,0-.04,3.68c-.02.75.11,1.24,1.03,1.22,4.33-.12,8.67.2,13-.18.51.02,1.03.03,1.54.05l5.9-.03C141.51,78.08,140.94,79.72,141.16,81.29Z"/><path class="b5f5e910-edfb-4a14-b732-4b3636e8d06e" d="M58.9,76.558c-.7765,1.52-.2067,3.1617-.4295,4.7321-5.5754-.0154-11.1511-.0785-16.7254-.0154-1.495.0169-2.006-.3574-1.9954-1.9411q.1044-15.6554.0053-31.3116c-.0082-1.47.4472-1.8814,1.8849-1.86,5.1207.0765,10.2446.0942,15.3644-.008,1.6054-.0321,1.94.5324,1.93,2.0094C58.8766,57.6281,58.9023,67.0931,58.9,76.558Zm-1.466-7.2058c0-2.8536-.0581-5.7089.0265-8.56.0376-1.2678-.3405-1.69-1.6353-1.6691q-6.5168.105-13.036,0c-1.3364-.0222-1.6219.4968-1.6115,1.7118q.0741,8.6574-.0033,17.3156c-.0129,1.2766.3908,1.6683,1.6555,1.65,4.3446-.0644,8.6917-.074,13.0359.0046,1.3437.0243,1.6193-.4924,1.5906-1.6973C57.3875,75.19,57.4343,72.2706,57.4344,69.3522ZM48.64,52.771c0-1.1019-.0805-2.2113.02-3.304.13-1.4163-.4859-1.7992-1.7965-1.7077a28.535,28.535,0,0,1-4.081-.0015c-1.2684-.094-1.74.3339-1.6868,1.6246a42.99,42.99,0,0,1-.0215,6.0233c-.207,2.07.5955,2.4688,2.4988,2.42C48.6378,57.6973,48.64,57.7846,48.64,52.771Zm8.7983-.1477c-.2047-1.35.7431-3.4572-.3862-4.5394-1.029-.986-3.0863-.2-4.6866-.3007-.322-.02-.6509.0321-.9689-.0089-1.1374-.1467-1.443.39-1.407,1.454.0656,1.9373.0076,3.8784.0209,5.8179.0211,3.07-.3219,2.7214,2.6511,2.7311C57.438,57.7929,57.438,57.7824,57.438,52.6233Z"/><path class="b5f5e910-edfb-4a14-b732-4b3636e8d06e" d="M141.1624,81.2906c-.2239-1.57.347-3.2124-.43-4.7323-.002-9.4649.0237-18.93-.0348-28.3946-.0091-1.4767.3246-2.0417,1.93-2.01,5.12.1022,10.2437.0845,15.3644.008,1.4375-.0215,1.8932.3892,1.8852,1.86q-.0864,15.7528-.0031,31.5063c.0068,1.3929-.4663,1.7515-1.7923,1.7409C152.4427,81.2238,146.8024,81.2748,141.1624,81.2906Zm1.0365-11.74c0,2.9185.0338,5.8375-.018,8.755-.0185,1.0441.2369,1.5054,1.3946,1.4911q6.7119-.0831,13.4254-.0029c1.1.0116,1.457-.3582,1.45-1.4523q-.06-8.8522-.0019-17.7049c.006-1.0482-.2694-1.5174-1.4142-1.5052q-6.7122.0716-13.4255-.002c-1.1279-.013-1.4489.3954-1.4292,1.4718C142.2345,63.5831,142.1988,66.5671,142.1989,69.55Zm8.7959-16.7829c0,1.2316.0407,2.4649-.0126,3.6942-.0444,1.0246.3885,1.3689,1.3806,1.3336,1.5539-.0554,3.1156-.0867,4.6656.0081,1.2708.0778,1.5357-.5008,1.5033-1.6128a48.7288,48.7288,0,0,1,.0256-6.0239c.1938-2.0328-.5469-2.4862-2.4808-2.434C150.9954,47.87,150.9929,47.7767,150.9948,52.7674Zm-8.8.1886c.2186,1.346-.7537,3.4553.4031,4.53,1.0446.97,3.0921.1966,4.6939.2933.2577.0155.52-.0249.7752.0065,1.1519.1424,1.63-.2869,1.58-1.5088-.0828-2.0007-.0108-4.0074-.0245-6.0115-.0192-2.8147.3032-2.4707-2.4811-2.48C142.1949,47.7673,142.1949,47.7786,142.1949,52.956Z"/><path class="b5f5e910-edfb-4a14-b732-4b3636e8d06e" d="M134.83,76.5873l-1.5412-.0437c-.0088-5.2536-.0248-10.5073-.0194-15.7609.0009-.8986.0427-1.66-1.2519-1.6481-4.67.0446-9.3408.0237-14.0113.0116-.7024-.0018-1.1023.2076-1.0753.9908.1118,3.2351-.2156,6.4782.1776,9.7084q-.8953.0119-1.7916.0232c.0286-7.188.1176-14.3761.0444-21.5626-.0178-1.7418.4887-2.19,2.1859-2.1535,5.05.11,10.1045.0832,15.1559.0131,1.5369-.0214,2.2037.3621,2.19,2.0542C134.8176,57.6752,134.8407,67.1314,134.83,76.5873ZM116.9333,53.0346c.2561,1.2462-.7673,3.3629.3729,4.4451,1.0306.9781,3.0932.1983,4.6973.2946.3228.0194.6527-.0343.9707.0089,1.1555.1568,1.43-.4018,1.393-1.4593-.0677-1.9411,0-3.8864-.0234-5.83-.0374-3.1246.4272-2.6873-2.6327-2.7038C116.9334,47.7648,116.9333,47.7832,116.9333,53.0346Zm16.3332-.2931c0-4.9656,0-4.9656-5.06-4.9612a11.5928,11.5928,0,0,1-1.1645-.0051c-.953-.0958-1.2352.3576-1.2179,1.2532.04,2.07.011,4.1419.0112,6.213,0,2.5381.0009,2.5381,2.4452,2.54C133.2665,57.7845,133.2665,57.7845,133.2665,52.7415Z"/><path class="b5f5e910-edfb-4a14-b732-4b3636e8d06e" d="M66.3439,76.5435q-.6288-.0083-1.2581-.0167c.0051-9.4057.0566-18.8115-.0249-28.2161-.0151-1.7487.5042-2.195,2.1985-2.1575,4.9278.1092,9.8622.1323,14.7884-.0088,1.8889-.054,2.2307.6215,2.217,2.3246-.057,7.1328.0216,14.2666.0512,21.4q-.8954-.012-1.7923-.0228c.3931-3.0351.0128-6.0877.2024-9.1231.0856-1.3707-.4835-1.61-1.6831-1.5947-4.2806.0551-8.5635.0777-12.8431-.01-1.4489-.03-1.8865.39-1.864,1.8593C66.4153,66.165,66.3527,71.3547,66.3439,76.5435ZM73.7975,52.597c-.2223-1.3466.7593-3.4641-.4056-4.5305-1.0456-.9572-3.0969-.1929-4.7014-.2847-.1935-.0111-.3918.0225-.5819-.0053-1.3127-.1924-1.8576.2674-1.7716,1.6832.1175,1.9345.0161,3.8817.0325,5.8233.0237,2.7863-.3413,2.487,2.4749,2.4948C73.7975,57.7916,73.7975,57.783,73.7975,52.597ZM82.7,52.5933c-.2176-1.3489.7734-3.5462-.4045-4.5081-.9884-.8071-3.0888-.2539-4.6969-.3a7.2293,7.2293,0,0,1-.7767-.0061c-1.1544-.16-1.6251.24-1.5633,1.4854.0994,2.0033.0107,4.0152.03,6.0232.0275,2.805-.3672,2.4752,2.47,2.4853C82.7,57.79,82.7,57.779,82.7,52.5933Z"/><path class="b5f5e910-edfb-4a14-b732-4b3636e8d06e" d="M91.611,69.5509q-.7488.006-1.4972.0121c-.0083-7.1374.0191-14.2752-.0537-21.4121-.0161-1.5775.588-2.0013,2.0666-1.9832q7.6887.0945,15.3792,0c1.4781-.0182,2.083.4049,2.0669,1.9828-.0726,7.1368-.0449,14.2747-.0537,21.4124l-1.4971-.0121c-.0106-2.9168-.0749-5.8349-.0059-8.75.0289-1.219-.2481-1.71-1.5876-1.686q-6.61.1193-13.2242,0c-1.34-.0242-1.6164.4671-1.5875,1.6861C91.6858,63.7161,91.6215,66.6341,91.611,69.5509Zm7.4516-16.6264c0-1.4022-.0648-2.5089.0178-3.6044.0872-1.156-.2662-1.6425-1.5024-1.56a32.865,32.865,0,0,1-4.469-.0005c-1.2617-.0878-1.527.4453-1.4847,1.5761a49.5825,49.5825,0,0,1-.0167,6.0233c-.1617,1.9107.3445,2.7485,2.3937,2.4439,1.5844-.2355,3.6744.6592,4.6907-.3275C99.8055,56.3947,98.8652,54.2775,99.0626,52.9245Zm8.9932-.0583c-.0709-1.6085.4571-3.734-.3689-4.6906-.9688-1.1219-3.1647-.2623-4.8221-.3881-.3222-.0245-.652.03-.9712-.009-1.0122-.1245-1.3714.29-1.3411,1.3125.0614,2.072.0017,4.1474.0214,6.2211.0265,2.7867-.3513,2.4512,2.5,2.4609C107.9875,57.79,107.9876,57.7788,108.0558,52.8662Z"/><path class="aafe3735-bf19-45a1-9793-0052a2c14ba3" d="M112.3411,159.916q-12.5247,0-25.0492,0,.0134-13.23.0225-26.46a12.1788,12.1788,0,0,1,2.9984-8.2131,12.434,12.434,0,0,1,13.7808-3.59A12.2464,12.2464,0,0,1,112.3,133.261C112.3537,142.1457,112.3315,151.0309,112.3411,159.916Z"/><path class="f07244c1-c4e7-4576-b7d9-bf2b45081128" d="M112.3411,159.916c-.01-8.8851.0126-17.77-.0407-26.655a12.2464,12.2464,0,0,0-8.2068-11.6085,12.434,12.434,0,0,0-13.7808,3.59,12.1788,12.1788,0,0,0-2.9984,8.2131q.003,13.23-.0225,26.46-14.1711-.041-28.3421-.0809c-.017-1.282.0275-2.5693-.0679-3.8462-.091-1.2186.4421-1.634,1.5692-1.5091l7.4347-.0087c1.5369-.2223,2.1434.4444,1.9114,1.962-.0579.3789.0213.7769-.0141,1.1613-.1152,1.2534.06,2.0182,1.6951,2.043,1.6889.0256,1.9876-.7,1.8469-2.0829-.0521-.5116.0427-1.039-.0182-1.5487-.1446-1.2116.4051-1.6607,1.5548-1.527l7.4288.004c1.16-.1419,1.6929.3165,1.5605,1.5306a10.6047,10.6047,0,0,0-.0006,1.9437c.0444.5851-.2939,1.48.6879,1.535,1.1707.0658.8415-.9382.8445-1.5672.025-5.2539.0111-10.508.0156-15.762.003-3.5674-.3389-7.1793.101-10.6927.87-6.95,6.91-13.4415,16.2573-12.3831a14.219,14.219,0,0,1,12.4807,14.1245q-.0156,11.9674-.001,23.9351c0,.5188.0007,1.0379.0167,1.5564.0166.5359.2643.8567.8429.8152a.6944.6944,0,0,0,.6774-.7824,25.1808,25.1808,0,0,0,.0041-2.7225c-.1076-1.2154.4051-1.6725,1.565-1.53l7.4289-.0042c1.1494-.1336,1.6947.315,1.5558,1.5271-.0658.574.0518,1.17-.0231,1.7418-.1913,1.459.4064,1.8838,1.85,1.8769,1.42-.0068,1.8467-.5434,1.6984-1.8367-.0512-.4464.0479-.912-.0181-1.3544-.2265-1.5184.3759-2.1846,1.9129-1.9623l7.4353.0077c.9716-.07,1.2007.471,1.1706,1.3263-.0478,1.3569-.0311,2.7161-.0417,4.0743Z"/><path class="be34fb56-d934-4a13-96ba-e5b597c17c47" d="M140.3113,159.88c.0106-1.3582-.0061-2.7174.0417-4.0743.03-.8553-.199-1.396-1.1706-1.3262q0-7.2067-.0008-14.4139l2.7164.0036c.0013,5.8337.0428,11.6679-.0243,17.5008-.0168,1.4618.3015,2.0471,1.9223,2.0211,6.0271-.0966,12.0572-.0808,18.0849-.0079,1.4523.0175,1.8954-.4138,1.8735-1.8707-.079-5.2491-.0966-10.5014.0078-15.75.0324-1.63-.5756-1.93-2.0281-1.9166-6.6115.0608-13.2239.0243-19.8359.0228l.01-2.7073q11.8889.013,23.7776.0263-.0084,1.3392-.0172,2.6777c-.5887.5093-.3546,1.1986-.3794,1.82-.2165,5.4207.24,10.8266.355,16.24.0235,1.1017.4154,1.442,1.4849,1.4582,1.3323.02,2.7042-.33,4,.27Q155.72,159.8662,140.3113,159.88Z"/><path class="be34fb56-d934-4a13-96ba-e5b597c17c47" d="M60.4511,154.48c-1.1271-.1249-1.66.2905-1.5692,1.5091.0954,1.2769.0509,2.5642.0679,3.8462q-15.2235.0087-30.4473.0181c1.3-.5985,2.6759-.2523,4.012-.2694,1.0872-.0138,1.48-.382,1.47-1.4767-.0461-4.9775.66-9.9378.3664-14.923q.0014-1.5581.0026-3.1158l1.5512.0008.0105.01c-.0018,5.8269.0342,11.6542-.0323,17.48-.0165,1.4428.2732,2.0577,1.9077,2.0311q9.03-.147,18.0636,0c1.6395.0268,1.92-.5975,1.9037-2.0346-.065-5.8262-.0291-11.6535-.03-17.48l.0068-.0069,2.7178-.0039Q60.4514,147.2728,60.4511,154.48Z"/><path class="b44d54f1-99e6-411b-b23b-cd7e6c9461b2" d="M163.7257,96.8211q-.0085,18.28-.0173,36.5591-10.8975.0123-21.7946.026-.0084-18.2943-.0166-36.5893l0,0,21.8282.0043Zm-19.8895,16.827c0,3.1132.0305,6.2268-.0169,9.3393-.0161,1.0614.2994,1.5105,1.43,1.5q7.0045-.0661,14.01-.0043c1.0162.0073,1.3595-.3768,1.3552-1.3729q-.0411-9.3393.0054-18.6789c.0076-1.1686-.5072-1.4022-1.5317-1.3945q-6.9075.0516-13.8156-.003c-1.1035-.01-1.4726.3824-1.4544,1.47C143.87,107.5509,143.8363,110.6,143.8362,113.6481Z"/><path class="b44d54f1-99e6-411b-b23b-cd7e6c9461b2" d="M139.1816,140.0652q0,7.207.0008,14.4139-3.7176-.004-7.435-.0076-.0083-29.5858-.0168-59.1721c2.4828.1644,5.0078-.5166,7.4545.373q.0031.5654.0058,1.1307-.0109,18.3168-.0216,36.6331a4.9509,4.9509,0,0,0,.002,3.9159Q139.1766,138.7086,139.1816,140.0652Z"/><path class="be34fb56-d934-4a13-96ba-e5b597c17c47" d="M139.1693,133.4362q.0107-18.3165.0216-36.6331,1.3535.0067,2.7064.0138.0081,18.2947.0165,36.5893Q140.5416,133.4209,139.1693,133.4362Z"/><path class="fa27f3d9-4515-4f9e-aa95-4218792c91ec" d="M139.1816,140.0652q-.0051-1.3568-.01-2.7131,1.3682.0043,2.7367.0088-.0048,1.3542-.01,2.7077l0,0Z"/><path class="b44d54f1-99e6-411b-b23b-cd7e6c9461b2" d="M35.9246,133.38l-.0174-36.5585,0,0,21.828-.0043,0,0q-.0084,18.2946-.0167,36.5891Zm19.8725-19.4738c0-3.0483-.0416-6.0975.0208-9.1446.0244-1.1911-.228-1.7583-1.59-1.7368-4.5394.0717-9.0808.0549-13.6208.0077-1.1454-.0119-1.6092.304-1.5992,1.5307q.0742,9.1444-.0029,18.29c-.0122,1.3061.452,1.6566,1.6943,1.64,4.4749-.0584,8.9519-.0756,13.426.0072,1.45.0268,1.724-.5689,1.6937-1.8389C55.75,119.7442,55.7973,116.8244,55.7971,113.9058Z"/><path class="b44d54f1-99e6-411b-b23b-cd7e6c9461b2" d="M60.4511,154.48q0-7.2072.0009-14.4142.0051-1.3565.01-2.7133a4.96,4.96,0,0,0,.0023-3.9179q-.0106-18.3153-.0212-36.6308-.0156-.75-.0317-1.4991,3.745-.0022,7.4907-.0057-.0085,29.5857-.0161,59.1723Z"/><path class="be34fb56-d934-4a13-96ba-e5b597c17c47" d="M60.4429,96.8038q.0105,18.3154.0212,36.6308-1.3725-.0143-2.745-.0284.0083-18.2949.0166-36.5893Z"/><path class="be34fb56-d934-4a13-96ba-e5b597c17c47" d="M35.9169,137.37q10.904-.004,21.808-.0086.0047,1.3539.0091,2.7086l-.0068.0068-21.8123.0034-.0105-.01Q35.9107,138.7195,35.9169,137.37Z"/><path class="fa27f3d9-4515-4f9e-aa95-4218792c91ec" d="M57.734,140.07q-.0045-1.3545-.0091-2.7086,1.3683-.004,2.7368-.0086-.0047,1.357-.01,2.7135Q59.0929,140.0675,57.734,140.07Z"/><path class="fa27f3d9-4515-4f9e-aa95-4218792c91ec" d="M35.9169,137.37q-.0063,1.35-.0125,2.7l-1.5512-.0008q-.0134-1.3441-.0272-2.6877Q35.1212,137.3755,35.9169,137.37Z"/><path class="be34fb56-d934-4a13-96ba-e5b597c17c47" d="M57.7354,96.8166l-21.828.0043c.0007-2.7263.0007-2.727,2.6781-2.7272q8.2327-.0007,16.4654,0C57.729,94.0939,57.729,94.0946,57.7354,96.8166Z"/><path class="be34fb56-d934-4a13-96ba-e5b597c17c47" d="M163.7257,96.8209l-21.8282-.0043c.0064-2.722.0064-2.7227,2.6845-2.7229q8.2328-.0007,16.4654,0C163.7247,94.0939,163.7247,94.0946,163.7257,96.8209Z"/><path class="fa27f3d9-4515-4f9e-aa95-4218792c91ec" d="M117.3424,154.483c-1.16-.1419-1.6725.3152-1.5649,1.5306a25.1808,25.1808,0,0,1-.0041,2.7225.6944.6944,0,0,1-.6774.7824c-.5786.0415-.8263-.2793-.8429-.8152-.016-.5185-.0167-1.0376-.0167-1.5564q-.0018-11.9676.001-23.9351a14.219,14.219,0,0,0-12.4807-14.1245C92.41,118.0289,86.37,124.52,85.4994,131.47c-.44,3.5134-.098,7.1253-.101,10.6927-.0045,5.254.0094,10.5081-.0156,15.762-.003.629.3262,1.633-.8445,1.5672-.9818-.0551-.6435-.95-.6879-1.535a10.6047,10.6047,0,0,1,.0006-1.9437c.1324-1.2141-.4006-1.6725-1.5606-1.53q.0141-29.5938.0284-59.1877c1.1212.1265,1.62-.3083,1.5379-1.4962-.083-1.1947-.0175-2.4-.0171-3.6.5094-.5891,1.2-.3739,1.82-.3747q14.1569-.0186,28.3138,0c.62.0008,1.3105-.2144,1.82.3747.0005,1.2005.066,2.4054-.0169,3.6-.0825,1.1879.4166,1.6226,1.5379,1.4962Zm-17.62-38.9576a9.14,9.14,0,0,0,9.4456-9.2348,9.3518,9.3518,0,1,0-18.7026-.1889A9.1457,9.1457,0,0,0,99.7221,115.5254Z"/><path class="fa27f3d9-4515-4f9e-aa95-4218792c91ec" d="M67.8858,154.4713q.0078-29.5864.0161-59.1723c1.1108.1167,1.6213-.3056,1.537-1.4944-.0845-1.1914-.02-2.3932-.0215-3.59a4.3892,4.3892,0,0,1,3.9-.0186c0,1.1689.0627,2.3422-.0179,3.5055-.0834,1.2051.3592,1.8591,1.5864,1.928l-.0243,58.85c-1.15-.1336-1.6992.3155-1.5546,1.5271.0609.51-.0339,1.0371.0182,1.5487.1407,1.3832-.158,2.1085-1.8469,2.0829-1.6354-.0248-1.81-.79-1.6951-2.043.0354-.3844-.0438-.7824.0141-1.1613C70.0292,154.9157,69.4227,154.249,67.8858,154.4713Z"/><path class="fa27f3d9-4515-4f9e-aa95-4218792c91ec" d="M131.7306,95.2994q.0085,29.5861.0168,59.1721c-1.5373-.2225-2.14.4437-1.9132,1.9621.066.4424-.0331.908.0181,1.3544.1483,1.2933-.2788,1.83-1.6984,1.8367-1.4434.0069-2.0411-.4179-1.85-1.8769.0749-.5717-.0427-1.1678.0231-1.7418.1389-1.2121-.4064-1.6607-1.556-1.527q-.0123-29.4248-.0244-58.85a1.4941,1.4941,0,0,0,1.5867-1.842c-.08-1.1922-.0178-2.394-.018-3.5917a3.5917,3.5917,0,0,1,3.5062.0027,28.8975,28.8975,0,0,1-.0224,3.2226C129.6246,94.9715,130.2908,95.4915,131.7306,95.2994Z"/><path class="f07244c1-c4e7-4576-b7d9-bf2b45081128" d="M74.8858,95.6291c-1.2272-.0689-1.67-.7229-1.5864-1.928.0806-1.1633.0178-2.3366.0179-3.5055l10.5223.0035c0,1.2005-.0659,2.4054.0171,3.6.0824,1.1879-.4167,1.6227-1.5383,1.4959C79.8421,95.44,77.3327,94.8391,74.8858,95.6291Z"/><path class="f07244c1-c4e7-4576-b7d9-bf2b45081128" d="M126.3155,90.1955c0,1.1977-.0624,2.4.018,3.5917A1.4944,1.4944,0,0,1,124.747,95.63c-2.447-.791-4.9567-.19-7.4328-.3341-1.1213.1264-1.62-.3083-1.5379-1.4962.0829-1.1947.0174-2.4.0169-3.6Z"/><path class="f43a0e3f-e784-4aab-a3de-75e5aa1eaa57" d="M66.3439,76.5435c.0088-5.1888.0714-10.3785-.008-15.5659-.0225-1.47.4151-1.8889,1.864-1.8593,4.28.0874,8.5625.0648,12.8431.01,1.2-.0154,1.7687.224,1.6831,1.5947-.19,3.0354.1907,6.088-.2024,9.1231-1.5848-.2959-2.4024.0869-2.202,1.9688.1619,1.52.5208,3.555-.256,4.5-.921,1.12-3.0279.3728-4.6108.37A74.4425,74.4425,0,0,1,66.3439,76.5435Z"/><path class="f43a0e3f-e784-4aab-a3de-75e5aa1eaa57" d="M117.1086,69.8454c-.3932-3.23-.0658-6.4733-.1776-9.7084-.027-.7832.3729-.9926,1.0753-.9908,4.6705.0121,9.3412.033,14.0113-.0116,1.2946-.0123,1.2528.7495,1.2519,1.6481-.0054,5.2536.0106,10.5073.0194,15.7609-4.3276.3762-8.6641.06-12.9947.1749-.9268.0247-1.0507-.472-1.0338-1.2158a32.647,32.647,0,0,1,.0378-3.6857C119.5569,69.9418,118.6974,69.5475,117.1086,69.8454Z"/><path class="a0a3044f-3174-4808-bdfc-34d069a1a36c" d="M91.611,69.5509c.01-2.9168.0748-5.8348.0058-8.75-.0289-1.219.248-1.71,1.5875-1.6861q6.61.1193,13.2242,0c1.34-.0242,1.6165.467,1.5876,1.686-.069,2.9149-.0047,5.833.0059,8.75-2.2307.557-4.5005.2425-6.7453.223C98.0556,69.746,94.82,70.1239,91.611,69.5509Z"/><path class="f43a0e3f-e784-4aab-a3de-75e5aa1eaa57" d="M57.4343,69.3522c0,2.9184-.0468,5.838.0225,8.7547.0287,1.2049-.2469,1.7216-1.5906,1.6973-4.3442-.0786-8.6913-.069-13.0359-.0046-1.2647.0188-1.6684-.3729-1.6555-1.65q.0881-8.6571.0033-17.3156c-.01-1.215.2751-1.734,1.6115-1.7118q6.5166.1086,13.036,0c1.2948-.0209,1.6729.4013,1.6353,1.6691C57.3763,63.6433,57.4344,66.4986,57.4343,69.3522Z"/><path class="a0a3044f-3174-4808-bdfc-34d069a1a36c" d="M48.64,52.771c0,5.0136-.0021,4.9263-5.0671,5.0551-1.9033.0484-2.7058-.35-2.4988-2.42a42.99,42.99,0,0,0,.0215-6.0233c-.0532-1.2907.4184-1.7186,1.6868-1.6246a28.535,28.535,0,0,0,4.081.0015c1.3106-.0915,1.9269.2914,1.7965,1.7077C48.5592,50.56,48.64,51.6691,48.64,52.771Z"/><path class="a0a3044f-3174-4808-bdfc-34d069a1a36c" d="M57.438,52.6233c0,5.1591,0,5.17-4.7767,5.154-2.973-.01-2.63.339-2.6511-2.7311-.0133-1.94.0447-3.8806-.0209-5.8179-.036-1.0639.27-1.6007,1.407-1.454.318.041.6469-.0113.9689.0089,1.6.1,3.6576-.6853,4.6866.3007C58.1811,49.1661,57.2333,51.2734,57.438,52.6233Z"/><path class="f43a0e3f-e784-4aab-a3de-75e5aa1eaa57" d="M142.1989,69.55c0-2.9832.0356-5.9672-.0191-8.9494-.02-1.0764.3013-1.4848,1.4292-1.4718q6.712.0774,13.4255.002c1.1448-.0122,1.42.457,1.4142,1.5052q-.0513,8.8523.0019,17.7049c.0073,1.0941-.35,1.4639-1.45,1.4523q-6.7122-.07-13.4254.0029c-1.1577.0143-1.4131-.447-1.3946-1.4911C142.2327,75.3878,142.1989,72.4688,142.1989,69.55Z"/><path class="a0a3044f-3174-4808-bdfc-34d069a1a36c" d="M150.9938,52.7674c-.0009-4.9907.0016-4.8974,5.0827-5.0348,1.9339-.0522,2.6746.4012,2.4808,2.434a48.7288,48.7288,0,0,0-.0256,6.0239c.0324,1.112-.2325,1.6906-1.5033,1.6128-1.55-.0948-3.1117-.0635-4.6656-.0081-.9921.0353-1.425-.309-1.3806-1.3336C151.0355,55.2323,150.9948,53.999,150.9938,52.7674Z"/><path class="a0a3044f-3174-4808-bdfc-34d069a1a36c" d="M142.1949,52.956c0-5.1774,0-5.1887,4.9465-5.1713,2.7843.01,2.4619-.3342,2.4811,2.48.0137,2.0041-.0583,4.0108.0245,6.0115.0506,1.2219-.428,1.6512-1.58,1.5088-.2547-.0314-.5175.009-.7752-.0065-1.6018-.0967-3.6493.6769-4.6939-.2933C141.4412,56.4113,142.4135,54.302,142.1949,52.956Z"/><path class="f43a0e3f-e784-4aab-a3de-75e5aa1eaa57" d="M116.9333,53.0346c0-5.2514,0-5.27,4.7778-5.2441,3.06.0165,2.5953-.4208,2.6327,2.7038.0232,1.9432-.0443,3.8885.0234,5.83.0369,1.0575-.2375,1.6161-1.393,1.4593-.318-.0432-.6479.0105-.9707-.0089-1.6041-.0963-3.6667.6835-4.6973-.2946C116.166,56.3975,117.1894,54.2808,116.9333,53.0346Z"/><path class="a0a3044f-3174-4808-bdfc-34d069a1a36c" d="M133.2665,52.7415c0,5.043,0,5.043-4.9858,5.04-2.4443-.0017-2.4449-.0017-2.4452-2.54,0-2.0711.0286-4.1427-.0112-6.213-.0173-.8956.2649-1.349,1.2179-1.2532a11.5928,11.5928,0,0,0,1.1645.0051C133.2665,47.7759,133.2665,47.7759,133.2665,52.7415Z"/><path class="a0a3044f-3174-4808-bdfc-34d069a1a36c" d="M73.7975,52.597c0,5.186,0,5.1946-4.9531,5.1808-2.8162-.0078-2.4512.2915-2.4749-2.4948-.0164-1.9416.085-3.8888-.0325-5.8233-.086-1.4158.4589-1.8756,1.7716-1.6832.19.0278.3884-.0058.5819.0053,1.6045.0918,3.6558-.6725,4.7014.2847C74.5568,49.1329,73.5752,51.25,73.7975,52.597Z"/><path class="f43a0e3f-e784-4aab-a3de-75e5aa1eaa57" d="M82.7,52.5933c0,5.1857,0,5.197-4.941,5.1795-2.8373-.01-2.4426.32-2.47-2.4853-.02-2.008.0691-4.02-.03-6.0232-.0618-1.2451.4089-1.6459,1.5633-1.4854a7.2293,7.2293,0,0,0,.7767.0061c1.6081.0463,3.7085-.5069,4.6969.3C83.4731,49.0471,82.4821,51.2444,82.7,52.5933Z"/><path class="f43a0e3f-e784-4aab-a3de-75e5aa1eaa57" d="M99.0626,52.9245c-.1974,1.353.7429,3.47-.3706,4.5513-1.0163.9867-3.1063.092-4.6907.3275-2.0492.3046-2.5554-.5332-2.3937-2.4439a49.5825,49.5825,0,0,0,.0167-6.0233c-.0423-1.1308.223-1.6639,1.4847-1.5761a32.865,32.865,0,0,0,4.469.0005c1.2362-.0829,1.59.4036,1.5024,1.56C98.9978,50.4156,99.0626,51.5223,99.0626,52.9245Z"/><path class="f43a0e3f-e784-4aab-a3de-75e5aa1eaa57" d="M108.0558,52.8662c-.0682,4.9126-.0683,4.9234-4.9819,4.9068-2.8513-.01-2.4735.3258-2.5-2.4609-.02-2.0737.04-4.1491-.0214-6.2211-.03-1.0226.3289-1.437,1.3411-1.3125.3192.0392.649-.0155.9712.009,1.6574.1258,3.8533-.7338,4.8221.3881C108.5129,49.1322,107.9849,51.2577,108.0558,52.8662Z"/><path class="b44d54f1-99e6-411b-b23b-cd7e6c9461b2" d="M74.8858,95.6291c2.4469-.79,4.9563-.1888,7.4326-.334q-.0137,29.5944-.028,59.1879l-7.4287-.004Q74.8736,125.054,74.8858,95.6291Z"/><path class="b44d54f1-99e6-411b-b23b-cd7e6c9461b2" d="M117.3142,95.2954c2.4761.1444,4.9858-.4569,7.4328.3341q.0119,29.4246.0242,58.85l-7.4287.0041Q117.3283,124.8892,117.3142,95.2954Z"/><path class="b44d54f1-99e6-411b-b23b-cd7e6c9461b2" d="M141.8981,140.0686c6.6121.0015,13.2245.038,19.836-.0228,1.4525-.0134,2.06.2867,2.0281,1.9166-.1044,5.2483-.0868,10.5006-.0078,15.75.0219,1.4569-.4212,1.8882-1.8735,1.8707-6.0277-.0729-12.0578-.0887-18.0849.0079-1.6208.026-1.9391-.5593-1.9223-2.0211.0671-5.8329.0256-11.6671.0243-17.5008Zm10.2037,15.5756c2.3356,0,4.6719-.0348,7.0063.0158,1.0481.0227,1.5277-.2745,1.5124-1.4188-.05-3.7618-.0429-7.5249-.0041-11.287.0105-1.022-.3821-1.3562-1.3747-1.3495-4.6708.0315-9.3423.0415-14.0129-.006-1.1526-.0117-1.4205.4708-1.4088,1.5121q.0621,5.5458-.0019,11.0924c-.0143,1.1035.3846,1.4848,1.4722,1.4578C147.56,155.6048,149.8312,155.644,152.1018,155.6442Z"/><path class="b44d54f1-99e6-411b-b23b-cd7e6c9461b2" d="M35.9149,140.08l21.8123-.0034c.0013,5.8269-.0346,11.6542.03,17.48.016,1.4371-.2642,2.0614-1.9037,2.0346q-9.03-.1479-18.0636,0c-1.6345.0266-1.9242-.5883-1.9077-2.0311C35.9491,151.7339,35.9131,145.9066,35.9149,140.08Zm11.4016,15.5644c2.3355,0,4.6719-.0365,7.0063.0164,1.0663.0242,1.5071-.3128,1.4924-1.4373q-.0742-5.6428-.0037-11.2871c.0113-1.0389-.41-1.3377-1.3873-1.3312q-7.0063.0459-14.0131.0005c-.9708-.0061-1.4057.287-1.3947,1.3289.04,3.762.045,7.5252-.0038,11.287-.0145,1.1226.4235,1.4648,1.4923,1.4394C42.7743,155.6067,45.0458,155.6442,47.3165,155.6441Z"/><path class="a3ebf72d-90cb-4fdb-a3d6-0eb2c3d9b673" d="M143.8363,113.6481c0-3.0483.0333-6.0972-.0178-9.1447-.0182-1.0873.3509-1.48,1.4544-1.47q6.9074.0648,13.8156.003c1.0245-.0077,1.5393.2259,1.5317,1.3945q-.0612,9.3392-.0054,18.6789c.0043.9961-.339,1.38-1.3552,1.3729q-7.0049-.05-14.01.0043c-1.1307.0106-1.4462-.4385-1.43-1.5C143.8667,119.8749,143.8362,116.7613,143.8363,113.6481Zm8.915.1273c0,2.6539.043,5.3089-.0206,7.9613-.0266,1.1068.1751,1.6922,1.4654,1.58a24.3432,24.3432,0,0,1,3.88-.0027c1.1556.0851,1.3994-.3875,1.3864-1.4471-.0514-4.2068-.021-8.4146-.021-12.622,0-5.2693.0011-5.2315-5.3131-5.0826-1.1294.0316-1.4229.39-1.3982,1.4586C152.7931,108.3379,152.7513,111.0571,152.7513,113.7754Zm-1.1166,3.2131v-1.3614c0-5.3264.0009-5.3028-5.3241-5.096-.9542.0371-1.4079.23-1.3923,1.2965.05,3.4353.0149,6.8717.0249,10.3077.0014.4933-.1107,1.1416.6761,1.1319,1.9309-.0238,4.0967.611,5.7055-.2824.9464-.5256.2077-2.65.3024-4.0519C151.6709,118.2876,151.6347,117.6368,151.6347,116.9885Zm-3.3941-7.4294c3.3963,0,3.3963,0,3.3967-2.541,0-2.829,0-2.829-2.8895-2.8291a13.0647,13.0647,0,0,1-1.9456-.0159c-1.5932-.2424-1.94.4648-1.9036,1.9446C144.9828,109.5574,144.911,109.5591,148.2406,109.5591Z"/><path class="a3ebf72d-90cb-4fdb-a3d6-0eb2c3d9b673" d="M55.7972,113.9058c0,2.9186-.0474,5.8384.0222,8.7553.03,1.27-.2435,1.8657-1.6937,1.8389-4.4741-.0828-8.9511-.0656-13.426-.0072-1.2423.0162-1.7065-.3343-1.6943-1.64q.0856-9.1442.0029-18.29c-.01-1.2267.4538-1.5426,1.5992-1.5307,4.54.0472,9.0814.064,13.6208-.0077,1.3616-.0215,1.614.5457,1.59,1.7368C55.7555,107.8083,55.7971,110.8575,55.7972,113.9058Zm-1.1-.1686V109.27c0-5.2683.0008-5.2327-5.3116-5.1066-1.1043.0262-1.4256.3331-1.4106,1.4295.0577,4.2076.0232,8.4165.0231,12.6249,0,5.2659-.0008,5.2332,5.2875,5.1016,1.0845-.027,1.46-.3182,1.4329-1.4247C54.6513,119.1769,54.6966,116.4565,54.6973,113.7372Zm-7.8153,3.1521v-1.361c0-5.0653,0-5.0277-5.0555-5.0032-1.2169.0059-1.7412.2568-1.6649,1.5985.114,2.0026.0295,4.0164.0295,6.0255,0,5.4467-.0016,5.4117,5.4275,5.1729,1.0637-.0468,1.31-.4207,1.2781-1.3781C46.841,120.2607,46.8811,118.5743,46.882,116.8893Zm-3.26-12.7a12.38,12.38,0,0,1-1.75-.0137c-1.3856-.2-1.7384.3622-1.7174,1.716.0569,3.6672-.0086,3.6682,3.6683,3.6677.5841,0,1.1725-.046,1.7513.0091,1.0337.0983,1.2963-.36,1.3355-1.349C47.0689,104.1876,47.103,104.189,43.6219,104.1891Z"/><path class="f07244c1-c4e7-4576-b7d9-bf2b45081128" d="M99.7221,115.5254a9.1457,9.1457,0,0,1-9.257-9.4237,9.3518,9.3518,0,1,1,18.7026.1889A9.14,9.14,0,0,1,99.7221,115.5254Zm.0166-1.9151a7.3475,7.3475,0,0,0,7.4879-7.3109,7.4111,7.4111,0,1,0-14.8213-.1483A7.3229,7.3229,0,0,0,99.7387,113.61Z"/><path class="a3ebf72d-90cb-4fdb-a3d6-0eb2c3d9b673" d="M152.1018,155.6441c-2.2706,0-4.5423-.0393-6.8115.0169-1.0876.027-1.4865-.3543-1.4722-1.4578q.0716-5.5455.0019-11.0924c-.0117-1.0413.2562-1.5238,1.4088-1.5121,4.6706.0475,9.3421.0375,14.0129.006.9926-.0067,1.3852.3275,1.3747,1.3495-.0388,3.7621-.0461,7.5252.0041,11.287.0153,1.1443-.4643,1.4415-1.5124,1.4188C156.7737,155.6094,154.4374,155.6442,152.1018,155.6441Zm7.34-6.9592v-.9723c0-5.2889.0014-5.2571-5.3995-5.0189-1.0347.0456-1.3433.3714-1.3076,1.3628.063,1.7476.0425,3.4992.0184,5.2486-.0777,5.6465-.0862,5.623,5.6075,5.1922.8546-.0646,1.1167-.3279,1.0931-1.1458C159.4088,151.7972,159.4407,150.2406,159.4418,148.6849Zm-11.2643,5.7881a11.28,11.28,0,0,1,1.55.0114c1.4611.2044,2.0027-.2586,1.95-1.8538-.1171-3.5466-.0227-3.55-3.5495-3.55a6.32,6.32,0,0,1-.9686-.0071c-1.71-.2681-2.361.3049-2.27,2.1586C145.048,154.4671,144.9279,154.473,148.1775,154.473Zm.1073-6.48a5.5255,5.5255,0,0,1,.9718.008c1.9657.3563,2.554-.4171,2.4262-2.395-.1859-2.877-.0465-2.8861-2.8828-2.8861-.9083,0-1.8183.035-2.7246-.0081-.823-.0391-1.0908.2733-1.1607,1.1128C144.5676,147.9958,144.54,147.9935,148.2848,147.9935Z"/><path class="a3ebf72d-90cb-4fdb-a3d6-0eb2c3d9b673" d="M47.3165,155.6442c-2.2707,0-4.5422-.0375-6.8116.0165-1.0688.0254-1.5068-.3168-1.4923-1.4394.0488-3.7618.0437-7.525.0038-11.287-.011-1.0419.4239-1.335,1.3947-1.3289q7.0064.044,14.0131-.0005c.9768-.0065,1.3986.2923,1.3873,1.3312q-.0613,5.6431.0037,11.2871c.0147,1.1245-.4261,1.4615-1.4924,1.4373C51.9884,155.6076,49.652,155.6441,47.3165,155.6442Zm7.3808-6.8453v-.9725c0-5.4819.0007-5.47-5.5063-5.1193-.7359.0468-1.2168.1059-1.2054,1.0393.04,3.2415.03,6.4838.0037,9.7255-.0061.7519.2795.9475,1.0129,1.0207,5.6968.5689,5.6951.5862,5.6951-5.11ZM43.41,154.473a11.4967,11.4967,0,0,1,1.5492.0111c1.4548.2,2.0155-.25,1.9656-1.854-.1105-3.5463-.0162-3.5493-3.7625-3.5492a4.8074,4.8074,0,0,1-.7744-.0058c-1.7247-.2851-2.3316.33-2.2424,2.157C40.3032,154.4673,40.1856,154.473,43.41,154.473Zm.1232-11.7526a5.4235,5.4235,0,0,1-.9712-.0082c-1.975-.3648-2.5425.43-2.418,2.3941.1824,2.8783.0459,2.8872,2.8919,2.8871.9078,0,1.8172-.0347,2.7231.0067.8371.0383,1.0757-.3152,1.1429-1.1344C47.2415,142.7183,47.2673,142.72,43.5329,142.72Z"/><path class="f43a0e3f-e784-4aab-a3de-75e5aa1eaa57" d="M152.7513,113.7754c0-2.7183.0418-5.4375-.0208-8.1544-.0247-1.0686.2688-1.427,1.3982-1.4586,5.3142-.1489,5.3132-.1867,5.3131,5.0826,0,4.2074-.03,8.4152.021,12.622.013,1.06-.2308,1.5322-1.3864,1.4471a24.3432,24.3432,0,0,0-3.88.0027c-1.29.1121-1.492-.4733-1.4654-1.58C152.7943,119.0843,152.7513,116.4293,152.7513,113.7754Z"/><path class="f43a0e3f-e784-4aab-a3de-75e5aa1eaa57" d="M151.6347,116.9885c0,.6483.0362,1.2991-.0075,1.9444-.0947,1.4018.644,3.5263-.3024,4.0519-1.6088.8934-3.7746.2586-5.7055.2824-.7868.01-.6747-.6386-.6761-1.1319-.01-3.436.0253-6.8724-.0249-10.3077-.0156-1.0661.4381-1.2594,1.3923-1.2965,5.325-.2068,5.3241-.23,5.3241,5.096Z"/><path class="a0a3044f-3174-4808-bdfc-34d069a1a36c" d="M148.2406,109.5591c-3.33,0-3.2578-.0017-3.342-3.4414-.0362-1.48.31-2.187,1.9036-1.9446a13.0647,13.0647,0,0,0,1.9456.0159c2.89,0,2.89,0,2.8895,2.8291C151.6369,109.5592,151.6369,109.5592,148.2406,109.5591Z"/><path class="f43a0e3f-e784-4aab-a3de-75e5aa1eaa57" d="M54.6969,113.7372c0,2.7193-.0456,5.44.0217,8.1574.0274,1.1065-.3484,1.3977-1.4329,1.4247-5.2883.1316-5.2875.1643-5.2875-5.1016,0-4.2084.0346-8.4173-.0231-12.6249-.015-1.0964.3063-1.4033,1.4106-1.4295,5.3124-.1261,5.3116-.1617,5.3116,5.1066Q54.6973,111.5036,54.6969,113.7372Z"/><path class="f43a0e3f-e784-4aab-a3de-75e5aa1eaa57" d="M46.8816,116.8893c0,1.685-.0406,3.3714.0151,5.0546.0316.9574-.2144,1.3313-1.2781,1.3781-5.4291.2388-5.4276.2738-5.4275-5.1729,0-2.0091.0845-4.0229-.0295-6.0255-.0763-1.3417.448-1.5926,1.6649-1.5985,5.0555-.0245,5.0553-.0621,5.0555,5.0032Q46.882,116.2087,46.8816,116.8893Z"/><path class="a0a3044f-3174-4808-bdfc-34d069a1a36c" d="M43.6219,104.189c3.4811,0,3.447-.0014,3.2874,4.03-.0392.9886-.3018,1.4473-1.3355,1.349-.5788-.0551-1.1672-.0092-1.7513-.0091-3.6769.0005-3.6114-.0005-3.6683-3.6677-.021-1.3538.3318-1.9158,1.7174-1.716A12.3655,12.3655,0,0,0,43.6219,104.189Z"/><path class="aafe3735-bf19-45a1-9793-0052a2c14ba3" d="M99.7387,113.61a7.3229,7.3229,0,0,1-7.3334-7.4592,7.4111,7.4111,0,1,1,14.8213.1483A7.3475,7.3475,0,0,1,99.7387,113.61Z"/><path class="f43a0e3f-e784-4aab-a3de-75e5aa1eaa57" d="M159.4413,148.6849c-.0006,1.5557-.0325,3.1123.0124,4.6666.0236.8179-.2385,1.0812-1.0931,1.1458-5.6937.4308-5.6852.4543-5.6075-5.1922.0241-1.7494.0446-3.501-.0184-5.2486-.0357-.9914.2729-1.3172,1.3076-1.3628,5.4009-.2382,5.3995-.27,5.3995,5.0189Q159.4418,148.1988,159.4413,148.6849Z"/><path class="f43a0e3f-e784-4aab-a3de-75e5aa1eaa57" d="M148.1775,154.473c-3.25,0-3.13-.0059-3.2882-3.2406-.091-1.8537.56-2.4267,2.27-2.1586a6.32,6.32,0,0,0,.9686.0071c3.5268,0,3.4324.0031,3.5495,3.55.0527,1.5952-.4889,2.0582-1.95,1.8538A11.28,11.28,0,0,0,148.1775,154.473Z"/><path class="f43a0e3f-e784-4aab-a3de-75e5aa1eaa57" d="M148.2848,147.9935c-3.7451,0-3.7172.0023-3.37-4.1684.07-.8395.3377-1.1519,1.1607-1.1128.9063.0431,1.8163.0082,2.7246.0081,2.8363,0,2.6969.0091,2.8828,2.8861.1278,1.9779-.46,2.7513-2.4262,2.395A5.5255,5.5255,0,0,0,148.2848,147.9935Z"/><path class="f43a0e3f-e784-4aab-a3de-75e5aa1eaa57" d="M54.6973,148.7989v.5836c0,5.6963.0017,5.679-5.6951,5.11-.7334-.0732-1.019-.2688-1.0129-1.0207.0262-3.2417.0358-6.484-.0037-9.7255-.0114-.9334.47-.9925,1.2054-1.0393,5.507-.35,5.5063-.3626,5.5063,5.1193Z"/><path class="f43a0e3f-e784-4aab-a3de-75e5aa1eaa57" d="M43.41,154.473c-3.2241,0-3.1065-.0057-3.2645-3.2409-.0892-1.8271.5177-2.4421,2.2424-2.157a4.8074,4.8074,0,0,0,.7744.0058c3.7463,0,3.652.0029,3.7625,3.5492.05,1.6037-.5108,2.0536-1.9656,1.854A11.4967,11.4967,0,0,0,43.41,154.473Z"/><path class="f43a0e3f-e784-4aab-a3de-75e5aa1eaa57" d="M43.5329,142.72c3.7344,0,3.7086-.0021,3.3687,4.1453-.0672.8192-.3058,1.1727-1.1429,1.1344-.9059-.0414-1.8153-.0068-2.7231-.0067-2.846,0-2.71-.0088-2.8919-2.8871-.1245-1.9645.443-2.7589,2.418-2.3941A5.4235,5.4235,0,0,0,43.5329,142.72Z"/></svg>