<svg id="e91abc7e-7a48-497b-8265-a068ac4b08ac" data-name="Capa 1" xmlns="http://www.w3.org/2000/svg" viewBox="0 0 200 200"><defs><style>.e7c13abb-1e99-4088-bcb2-fab646185251{fill:#48b592;}</style></defs><path class="e7c13abb-1e99-4088-bcb2-fab646185251" d="M175.9218,114.1054c.0328,5.87.1146,11.7395.0635,17.6083-.0125,1.4287.3322,1.8669,1.8087,1.8356,4.7087-.1,9.4215.01,14.1309-.0673,1.3051-.0214,1.6526.4034,1.6071,1.6453-.1085,2.9616-.0966,5.9276-.1333,8.8919l-3.7165-.016c-.0347-1.6766-.1281-3.3548-.0833-5.0292.0293-1.0934-.1643-1.6068-1.4589-1.6007q-16.2855.0776-32.5714.0105c-1.0125-.0029-1.3535.3019-1.324,1.3184.0637,2.1953-.0433,4.3963.0465,6.59.05,1.2269-.4115,1.526-1.562,1.5094-4.006-.0577-8.0159.06-12.0189-.0626-1.598-.049-1.924.4934-1.8992,1.9676.07,4.1317-.02,8.266-.0471,12.3994l-3.6929.0047c-.0341-4.3144-.1314-8.63-.069-12.9428.0225-1.5582-.86-1.4474-1.848-1.3829-.9245.0605-2.1439-.4655-2.078,1.3458.0863,2.3774-.0331,4.7623-.064,7.1439l-3.708.0073c-.0358-2.2613-.1521-4.5253-.0768-6.7829.0448-1.3415-.3448-1.7672-1.7232-1.75-5.9534.0723-11.9089-.02-17.862.0663-1.511.022-1.9544-.3685-1.9506-1.9113.0039-1.5581.3365-2.0754,2.0074-2.0662,13.2026.0728,26.4058.0405,39.6088.0405,3.1148,0,2.9941-.0064,3.16-3.1874.0973-1.8629-.4045-2.3393-2.3031-2.3354q-47.6666.1-95.3334.0472c-3.3769,0-3.2564.0059-3.4166,3.3168-.09,1.8527.5506,2.2051,2.2642,2.1961,13.0732-.0681,26.1469-.0373,39.2205-.0373,3.3441,0,3.3441,0,3.1327,3.4753l-.311.336-20.94.0537c-1.5242-1.1717-3.0521-1.1279-4.0132.1149l-3.7588-.1149c-1.5213-1.17-3.0472-1.1279-4.0148.1119-4.5216-.0252-9.0446-.1249-13.5638-.0351-1.58.0314-1.9884-.4731-1.897-1.9636.1224-1.9953-.0144-4.0052.0519-6.0057.0343-1.0343-.1947-1.4764-1.3626-1.4719q-16.2814.0616-32.5631-.0055c-1.3168-.0064-1.4418.55-1.4354,1.6174.0208,3.4853-.0415,6.9711-.0719,10.4567l-3.6961.0117c-.0348-4.9037-.0343-9.808-.1279-14.7106-.0251-1.3147.7124-1.2447,1.5992-1.242,4.7142.0141,9.43-.0576,14.1418.0441,1.4876.0321,1.8092-.4237,1.8033-1.843-.0341-8.198.0364-16.3964.0714-24.5947l3.6931-.019c.0295,8.1437.1057,16.2878.0489,24.431-.0113,1.6151.4261,2.0341,2.03,2.025q17.94-.1018,35.8808-.0036c1.4417.0071,1.8456-.3553,1.8354-1.8191-.0639-9.1145-.0271-18.23-.0119-27.3447.0012-.77.089-1.54.1362-2.3106l3.628-.0327c.0333,9.8912.097,19.7825.0664,29.6736-.0045,1.4425.361,1.8391,1.8283,1.8347q26.7714-.08,53.5429.0063c1.6474.0061,1.8669-.6028,1.8556-2.0016-.0469-5.8187.0046-11.6381.02-17.4573l3.874-.0032c.03,5.8769.1116,11.7543.0548,17.63-.0141,1.4539.3779,1.832,1.8289,1.8247q18.0245-.09,36.05.0013c1.4676.0076,1.8406-.3935,1.8274-1.8348-.0541-5.8762.0232-11.7537.0521-17.6306Z"/><path class="e7c13abb-1e99-4088-bcb2-fab646185251" d="M68.7676,146.8575c.9611-1.2428,2.489-1.2866,4.0132-.1149a4.3059,4.3059,0,0,0-.1351.76q0,22.6145,0,45.2287c-.0028,2.3035,1.6714,1.1344,2.63,1.33,1.0868.2218,1.9333.1179,1.9169-1.496-.0763-7.5049-.04-15.0112-.0152-22.5169.0116-3.4889.089-6.9776.1365-10.4664l3.6494,0c.0458.7059.13,1.4118.1316,2.1177.015,10.0861.0534,20.1725-.01,30.2581-.01,1.624.2832,2.2484,2.0915,2.1833,4.262-.1534,8.5353-.1242,12.8-.01,1.58.0423,2.0569-.3292,2.045-1.9855-.0666-9.3087.0005-18.6184.022-27.9277h3.7716c.0215,9.3084.0883,18.6171.0223,27.9248-.0118,1.6515.4568,2.03,2.0415,1.9887q6.4932-.1712,12.9932.0009c1.6013.0435,1.929-.5156,1.8963-1.9759-.0871-3.8769-.042-7.7572-.0189-11.6359.0315-5.2962.0912-10.5922.1389-15.8882l3.662.0007c.0447.7065.1272,1.4131.1284,2.12.0143,8.3456.0751,16.6919-.0237,25.0362-.0219,1.8485.411,2.4365,2.323,2.3721,1.6761-.0564,2.3739-.3334,2.27-2.2065-.1717-3.0958-.0516-6.2081-.0417-9.3134q.0436-13.68.0975-27.3594l3.708-.0073c.0266,3.8148.0694,7.6295.0764,11.4444.0157,8.5384.0036,17.077.04,25.6153.0026.6047-.44,1.4574.6457,1.7544,2.2375.6121,3.1927-.0652,3.2-2.3233q.0471-15.3274.0972-30.6548l3.6929-.0047c.0271,10.288.0908,20.5762.0438,30.8639-.0074,1.6321.2778,2.2229,2.0858,2.1732,5.2383-.1438,10.4844.0166,15.7244-.0921,1.5606-.0324,1.8279.532,1.7673,1.8911-.0559,1.2508.0572,2.1087-1.7672,2.1032-23.622-.071-47.2444-.0469-70.8667-.0469q-21.163,0-42.326-.02c-.6452-.0011-1.6549.4417-1.8828-.4339a6.9543,6.9543,0,0,1-.0083-3.0656c.14-.6772,1.0048-.3726,1.5456-.3746,5.3716-.02,10.7443-.0689,16.1143.0246,1.4825.0259,1.8219-.4144,1.8175-1.8464-.0469-15.1426-.0224-30.2855-.0176-45.4282.9676-1.24,2.4935-1.2822,4.0148-.1118a4.3113,4.3113,0,0,0-.1351.761c0,15.0848.0269,30.17-.0113,45.2545-.0052,2.016,1.3735,1.16,2.2758,1.3285,1.27.2378,1.6421-.3067,1.6392-1.5862Q68.7248,169.6791,68.7676,146.8575Z"/><path class="e7c13abb-1e99-4088-bcb2-fab646185251" d="M179.9721,47.9726c-4.3453,2.0774-8.5971,4.3916-13.0659,6.1565-3.5126,1.3872-4.9049,3.3859-4.4572,7.1927a24.8106,24.8106,0,0,1-.2614,8.5048c-2.2643,9.7421-9.349,15.5125-18.9086,15.7642a19.2662,19.2662,0,0,1-19.0918-15.9037c-.6491-3.7032-.2777-7.4979-.2129-11.2473a2.6238,2.6238,0,0,0-1.855-2.9282c-1.7835-.7033-3.4873-1.6087-5.4906-2.5518,0,3.557.0088,6.8327-.0046,10.1083-.0049,1.1918.8945.9876,1.5115.8892,2.0138-.3212,2.5124.4993,2.42,2.4347-.1632,3.4234-.0952,6.8616-.0142,10.291.0309,1.3042-.2731,1.8479-1.6981,1.7942-2.78-.1046-5.57-.1085-8.35.0014-1.4489.0572-1.7066-.5243-1.68-1.8063.0753-3.624.0983-7.2524-.0018-10.8751-.04-1.4451.361-2.0759,1.8283-1.8115,1.712.3084,2.2205-.3726,2.1355-2.098-.15-3.0354-.11-6.0861-.0042-9.1253a2.2377,2.2377,0,0,0-1.6-2.48c-1.72-.7184-3.363-1.6194-5.5656-2.7012l8.3054-3.8486c.3969.9077,1.2071.7675,1.9705.8065,1.3239.0676,2.6949-.286,3.9539.41a26.0736,26.0736,0,0,1-4.7711,2.2952c-.1978.1027-.5357.1742-.5668.3139-.0909.409.2773.4315.5688.4786.4774.1885.968.349,1.43.57,8.4021,4.0121,16.8113,8.01,25.1877,12.0752a3.1384,3.1384,0,0,0,3.07-.0093c6.7507-3.2609,13.5663-6.3883,20.2959-9.6913a38.4312,38.4312,0,0,0,6.5365-3.4333L166.3861,44.88c1.1271-1.3177,2.6317-1.1623,4.0952-.9687.7437.0984,1.4611.52,2.1223-.1725a68.0941,68.0941,0,0,1,7.3723,3.5253ZM158.6476,63.675c0-1.2286-.0762-2.4631.019-3.6842.1222-1.5677-.4441-1.55-1.63-.9628-3.9939,1.9762-8.0554,3.8179-12.0223,5.8455a3.55,3.55,0,0,1-3.6067-.03c-3.9208-1.9769-7.9346-3.77-11.8467-5.7635-1.5765-.8034-1.8347-.3536-1.7689,1.1784.0969,2.2593-.008,4.5268.0664,6.7878a15.2816,15.2816,0,0,0,10.45,13.7947,15.545,15.545,0,0,0,16.8275-4.8224A16.8481,16.8481,0,0,0,158.6476,63.675Zm-45.9059,7.6924c0,.71.0452,1.423-.011,2.1282-.0773.97.2345,1.5231,1.2844,1.328.943-.1753,2.4319.6636,2.5664-1.1329.12-1.604.0276-3.2239.0278-4.8368,0-.4773-.0813-.8214-.6695-.9807-2.2265-.603-3.1994.0813-3.2006,2.3329Q112.7389,70.7867,112.7417,71.3674Z"/><path class="e7c13abb-1e99-4088-bcb2-fab646185251" d="M132.3713,114.0911l-3.8739.0032a13.114,13.114,0,0,1-.0467-2.3244c.2643-1.7356-.4441-2.4844-2.12-2.9607a47.002,47.002,0,0,1-11.4264-5.2365,64.8833,64.8833,0,0,1-9.1624-6.9617,27.3135,27.3135,0,0,0,.02,3.0074c.178,1.4488-.351,1.9339-1.8155,1.8788-2.7163-.1023-5.4415-.0965-8.1583-.0007-1.3557.0478-1.7606-.37-1.7412-1.7372.0774-5.4388.0051-10.8795.0578-16.3189a11.6217,11.6217,0,0,0-.7988-5.1,7.64,7.64,0,0,1,3.613-.8232,52.7168,52.7168,0,0,0,17.0179,20.7447c27.2713,19.5128,66.009,7.1575,76.8928-24.5429.2724-.7937.5638-1.5809.8463-2.3711a9.1452,9.1452,0,0,1,3.7469.3929,53.0864,53.0864,0,0,1-17.4795,27.1214,4.5421,4.5421,0,0,0-1.9611,4.0309c.1235,3.7326-.024,7.4742-.06,11.212l-3.7377-.0233c-.03-2.3887-.0765-4.7773-.085-7.166-.0131-3.6336-.0015-3.6331-3.1-1.9648a5.2059,5.2059,0,0,1-.6941.342,2.321,2.321,0,0,0-1.674,2.6228,39.0307,39.0307,0,0,1-.11,6.9585l-3.6339-.0112c-.0292-1.7932-.0454-3.5868-.0972-5.3794-.012-.4168.1877-.9268-.3039-1.2215-.7692-.461-3.505,1.0715-3.5425,2.0015-.0618,1.5345-.0812,3.0708-.1184,4.6063l-3.74-.0114c-.0646-1.3477.3536-3.05-.3119-3.9561-.897-1.2217-2.5567.1249-3.8981.059-1.1983-.0589-1.34.6523-1.3112,1.6117.0228.7649-.089,1.5339-.1411,2.3011l-3.6644-.0156a4.9535,4.9535,0,0,1-.08-1.1376c.2995-1.8927-.5136-2.3479-2.3314-2.2767-1.5362.06-1.6265.763-1.5515,1.9034a11.2276,11.2276,0,0,1-.0976,1.52l-3.7112-.0093a14.4074,14.4074,0,0,1-.0742-2.123c.128-1.2057-.4872-1.55-1.54-1.7088C132.6936,110.4714,132.6972,110.4472,132.3713,114.0911ZM97.99,87.3859c0,3.3595.0078,6.1745-.0057,8.9895-.0032.6654.1373,1.1835.9369,1.0862.9678-.1177,2.5825.5316,2.7735-.45.3256-1.6734.7409-3.605-.342-5.233C100.4342,90.3976,99.34,89.1332,97.99,87.3859Z"/><path class="e7c13abb-1e99-4088-bcb2-fab646185251" d="M94.2015,34.0536a51.3808,51.3808,0,0,1,26.1823-25.932c19.3149-8.5738,37.7708-6.5992,55.0935,5.5649.8267.58,1.9126.9986.6764,2.31-.9338.991-1.3135,2.1341-3.0989.7813a47.24,47.24,0,0,0-32.547-9.8116c-18.46,1.278-32.3559,10.216-41.6044,26.291a9.3441,9.3441,0,0,1-.5556.7768Z"/><path class="e7c13abb-1e99-4088-bcb2-fab646185251" d="M180.6727,36.7853a50.2722,50.2722,0,0,0-10.5457-12.522,42.5552,42.5552,0,0,0-61.3824,7.9608c-.45.624-.9426,1.2174-1.4153,1.8251-1.06-1.298-2.52-.6206-3.8119-.7731a43.5432,43.5432,0,0,1,15.8257-15.8835,46.2979,46.2979,0,0,1,56.7327,7.0507,39.8573,39.8573,0,0,1,8.9349,12.71A13.9454,13.9454,0,0,0,180.6727,36.7853Z"/><path class="e7c13abb-1e99-4088-bcb2-fab646185251" d="M188.1508,68.6264a15.61,15.61,0,0,1-1.381,4.8223,49.8372,49.8372,0,0,1-8.523,14.3961,46.7191,46.7191,0,0,1-62.0119,7.3219c-.7118-.5054-1.7538-.9608-.6066-2.0126.8214-.753.9326-2.5774,2.9761-1.1356a42.5641,42.5641,0,0,0,60.6431-12.1239,43.4088,43.4088,0,0,0,5.1331-11.645C185.6421,68.3267,186.9483,67.9578,188.1508,68.6264Z"/><path class="e7c13abb-1e99-4088-bcb2-fab646185251" d="M189.6822,144.0032l3.7165.016c.03,1.4867.0837,2.9733.0852,4.46.0144,14.5013.0478,29.0028-.01,43.5039-.0066,1.6565.33,2.4621,2.0985,2.1087,1.7317-.3461,1.9426.5357,1.9625,2.0367.0206,1.5491-.4407,1.9193-1.9486,1.905-7.9627-.0758-15.9276-.1018-23.8894.0137-1.8576.027-1.6715-.9053-1.7489-2.13-.09-1.4216.3072-1.8908,1.81-1.8634,5.3073.0971,10.6187-.0282,15.9255.0779,1.5916.0318,1.9156-.4919,1.912-1.97-.0379-15.2781-.0091-30.5564.0067-45.8346C189.603,145.5527,189.6543,144.7779,189.6822,144.0032Z"/><path class="e7c13abb-1e99-4088-bcb2-fab646185251" d="M94.2015,34.0536l4.1463-.0192a51.9114,51.9114,0,0,0-5.4294,26.613,50.4551,50.4551,0,0,0,3.3724,15.0452c.2328.5992.4194,1.2162.6276,1.8249a7.64,7.64,0,0,0-3.6129.8232A4.8024,4.8024,0,0,1,92.29,76.0851a1.5816,1.5816,0,0,0-1.8086-1.2826q-8.89.0608-17.7809-.0007c-1.0947-.0081-1.469.3343-1.4413,1.4333.05,1.9929-.031,3.9892-.0574,5.9841l-3.6751.0152c-.3421-3.418-.06-6.845-.1514-10.2663-.0341-1.27.8716-1.0391,1.6111-1.04q9.6074-.012,19.2147-.0049c2.4383,0,2.3893.0089,1.9178-2.31A53.1226,53.1226,0,0,1,94.2015,34.0536Z"/><path class="e7c13abb-1e99-4088-bcb2-fab646185251" d="M6.456,149.4585l3.6961-.0117q.0442,11.55.0861,23.1c.016,6.4719.0636,12.9445-.0227,19.4153-.0218,1.6284.2683,2.2321,2.0856,2.1818,5.2387-.145,10.4861.0338,15.7255-.0993,1.7292-.044,1.7983.6913,1.8451,2.0381.0522,1.5018-.3528,1.9715-1.9249,1.9548-7.96-.0848-15.923-.1111-23.8821.0136-1.8955.03-1.6386-.9308-1.7133-2.1266-.0852-1.3643.2046-2.1385,1.7535-1.8319,1.9391.3838,2.2949-.506,2.2851-2.3143-.0719-13.3317-.0295-26.664-.0171-39.9962C6.3737,151.0073,6.4271,150.2329,6.456,149.4585Z"/><path class="e7c13abb-1e99-4088-bcb2-fab646185251" d="M172.6036,43.7383c-.6612.6922-1.3786.2709-2.1223.1725-1.4635-.1936-2.9681-.349-4.0952.9688-6.2338-2.9386-12.5969-5.6379-18.65-8.91-3.35-1.811-5.9744-1.6435-9.24.0785-6.0911,3.2117-12.4265,5.96-18.66,8.9011-1.259-.6963-2.63-.3427-3.9539-.41-.7634-.039-1.5736.1012-1.9705-.8065q8.4426-4.1067,16.8864-8.211c3.6639-1.775,7.3435-3.5178,11.0052-5.2973a2.656,2.656,0,0,1,2.5579-.1547q13.9677,6.7382,27.9708,13.4025C172.44,43.5235,172.5137,43.6478,172.6036,43.7383Z"/><path class="e7c13abb-1e99-4088-bcb2-fab646185251" d="M185.7542,154.8814c0,3.5522-.0371,7.1051.0221,10.6563.0183,1.0971-.32,1.4552-1.425,1.4308q-4.4546-.0985-8.9126-.0015c-1.0375.0212-1.3074-.3381-1.3019-1.3345q.0587-10.6563.0094-21.3131c-.005-1.0545.2461-1.4934,1.3929-1.4653,2.9049.0712,5.8142.0791,8.7185-.0029,1.232-.0348,1.5286.4195,1.5085,1.5677-.0611,3.4866-.0221,6.9749-.0221,10.4625Zm-7.686-.0607h.0068c0,2.3214.07,4.6456-.0246,6.9631-.0624,1.5357.9439,1.256,1.7853,1.2052.8295-.05,2.0313.5408,2.0112-1.1862-.0535-4.5775-.069-9.1572.0185-13.7338.0316-1.6485-1.0037-1.3142-1.9125-1.3051-.8889.009-1.9956-.39-1.9123,1.2876C178.1523,150.3028,178.0682,152.5639,178.0682,154.8207Z"/><path class="e7c13abb-1e99-4088-bcb2-fab646185251" d="M41.347,154.9442c0,3.4934-.045,6.9876.0249,10.48.0239,1.19-.3413,1.5617-1.5331,1.5286-2.8444-.0791-5.6936-.07-8.5387-.0036-1.0979.0256-1.4434-.3183-1.4362-1.4236q.07-10.6737.0183-21.348c-.0038-.9908.2835-1.3631,1.3168-1.3427,2.91.0576,5.8234.0656,8.7331-.0033,1.1177-.0265,1.44.3514,1.4229,1.4393-.0563,3.5572-.0211,7.1158-.0211,10.6738Zm-3.9263.1272h.0079c0-2.3275-.0718-4.6581.0263-6.9814.0611-1.4471-.7947-1.3607-1.7322-1.3093-.8919.0488-1.9743-.3811-1.9454,1.29q.1193,6.8835.01,13.77c-.0226,1.5683,1.0042,1.181,1.82,1.1727.8023-.0082,1.8914.4293,1.8346-1.1547C37.36,159.5992,37.4207,157.3342,37.4207,155.0714Z"/><path class="e7c13abb-1e99-4088-bcb2-fab646185251" d="M103.5174,33.2761c1.2919.1525,2.7523-.5249,3.8119.7731a44.7776,44.7776,0,0,0-6.3464,17.9074,45.5067,45.5067,0,0,0,1.7854,18.7441,38.9578,38.9578,0,0,0,5.9,11.3958c1.2462,1.7439-.5163,1.8333-1.1419,2.5569-.8139.9415-1.393.658-2.1081-.2641C94.7419,70.624,93.88,47.9041,103.5174,33.2761Z"/><path class="e7c13abb-1e99-4088-bcb2-fab646185251" d="M33.1521,117.4671c0-2.9769.049-5.9549-.0237-8.93-.03-1.221.2817-1.7571,1.6052-1.7228,2.91.0753,5.8245.0494,8.7363.01.9735-.0134,1.3807.28,1.3754,1.3207q-.0472,9.3186.0125,18.6374c.0072,1.0731-.4446,1.2961-1.3973,1.2826-2.9765-.0422-5.9549-.0588-8.9306.0068-1.1445.0253-1.4248-.4237-1.4065-1.48.0525-3.0406.0185-6.0828.0185-9.1243Zm7.7683.0812c0-1.8105-.0779-3.6254.0252-5.43.08-1.3917-.708-1.4825-1.6924-1.36-.8871.11-2.2233-.57-2.203,1.2589.04,3.6205.0633,7.2427-.0027,10.8624-.031,1.6977,1.1319,1.1943,1.9925,1.2359.9369.0454,1.9971.29,1.8987-1.331C40.8332,121.0449,40.9149,119.2941,40.92,117.5483Z"/><path class="e7c13abb-1e99-4088-bcb2-fab646185251" d="M45.559,158.7706c0-2.2646.0377-4.53-.0174-6.7934-.0243-.9956.2844-1.3713,1.32-1.352q4.4634.0832,8.9292.0018c1.0043-.0167,1.3563.3082,1.3473,1.3311q-.06,6.89.0044,13.7816c.0075.9329-.3188,1.2335-1.2364,1.221-3.0407-.0415-6.0833-.0582-9.1232.0066-1.1116.0237-1.2629-.4822-1.2449-1.4031.044-2.2637.0144-4.5289.0144-6.7936Zm7.6456.1556c0-1.0983-.0436-2.1989.0108-3.2945.0712-1.4346-.97-1.1542-1.719-1.07-.7347.0827-2-.6742-2.0166.9458-.022,2.1964.0006,4.3932-.0045,6.59a.7889.7889,0,0,0,.727.9185c2.2916.5087,2.998-.0176,3.0007-2.3453C53.2037,160.0891,53.2031,159.5077,53.2046,158.9262Z"/><path class="e7c13abb-1e99-4088-bcb2-fab646185251" d="M142.7377,158.7971c0-2.2.0507-4.4016-.0208-6.5992-.0371-1.139.2525-1.6166,1.5-1.5805,2.91.0842,5.8237.0566,8.7349.0106.9757-.0154,1.3777.2513,1.3676,1.3041-.0444,4.5936-.0335,9.1881.0017,13.7819.0069.9-.25,1.2622-1.2,1.248-3.0407-.0453-6.0833-.0563-9.1235.0048-1.0738.0216-1.3051-.4142-1.2831-1.376.0519-2.2635.0166-4.529.0166-6.7937Zm7.649-.0462c0-1.0337-.04-2.0693.0093-3.1006.0775-1.6131-1.1178-1.08-1.8883-1.0951-.7912-.0154-1.92-.46-1.8695,1.1281.0657,2.0654.0163,4.1343.02,6.2017.001.52-.0183.9655.7144,1.1325,2.2536.5139,3.0106-.0358,3.0128-2.3284Q150.3868,159.72,150.3867,158.7509Z"/><path class="e7c13abb-1e99-4088-bcb2-fab646185251" d="M142.7537,180.3118c0-2.1943.034-4.3895-.0159-6.5827-.0215-.9438.1746-1.4033,1.264-1.38,3.0323.065,6.0673.0518,9.1.0055.9428-.0144,1.2067.33,1.2,1.235-.0323,4.582-.0378,9.1648.0118,13.7466.0114,1.0534-.3908,1.3155-1.3638,1.3-2.9684-.0455-5.9386-.0521-8.9067.0025-1.0389.0192-1.3366-.3712-1.3143-1.3575.0523-2.3223.0167-4.6465.0167-6.97Zm3.8931.2083c0,1.0293.0423,2.0608-.01,3.0875-.08,1.5791,1.08,1.1353,1.8667,1.117.7634-.0178,1.936.53,1.9016-1.0758-.0454-2.122-.0277-4.2461.0017-6.3687.01-.7273-.2472-.9713-.9909-1.0436-2.6432-.2568-2.7741-.1692-2.773,2.5465C146.6434,179.362,146.6432,179.941,146.6468,180.52Z"/><path class="e7c13abb-1e99-4088-bcb2-fab646185251" d="M174.1723,180.4427c0-2.2016.04-4.4042-.0179-6.6043-.0266-1.0066.1353-1.5264,1.3388-1.4936,2.9767.0812,5.9573.0487,8.9358.0131.8677-.01,1.2894.1828,1.2813,1.1727q-.0568,6.8957.0092,13.792c.01,1.0431-.3852,1.33-1.369,1.3145-2.9134-.0465-5.83-.0777-8.7412.0117-1.2832.0394-1.4964-.4982-1.4628-1.6019.0671-2.2.02-4.4026.02-6.6042Zm7.6316.1323a23.8768,23.8768,0,0,1,.0208-2.8911c.2166-1.7648-.9924-1.4116-1.9671-1.4228-.9331-.0107-1.9608-.2982-1.8315,1.3538a47.4035,47.4035,0,0,1,.0146,5.7834c-.0513,1.1553.4378,1.298,1.455,1.3975,1.8423.18,2.6318-.3894,2.32-2.2944A11.6347,11.6347,0,0,1,181.8039,180.575Z"/><path class="e7c13abb-1e99-4088-bcb2-fab646185251" d="M14.1677,180.4782c0-2.26.0388-4.521-.0179-6.7795-.0248-.9867.26-1.3682,1.3028-1.3476,2.9694.059,5.9412.0533,8.9108.0021.9752-.0168,1.3559.2272,1.344,1.2838-.0512,4.5839-.0362,9.1689-.0025,13.7533.0065.896-.25,1.2672-1.2007,1.2555-3.0345-.0374-6.0708-.043-9.1044.0253-1.1124.025-1.2676-.4994-1.2523-1.4132.0378-2.2593.0124-4.52.0124-6.78Zm7.63.0847c0-1.0289-.0759-2.0647.0178-3.085.1413-1.538-.9217-1.2649-1.7554-1.1994-.8084.0636-2.0787-.5939-2.0191,1.1526.0635,1.8627.0915,3.7331-.0081,5.5925-.07,1.3113.2991,1.7321,1.686,1.7882,1.7059.0689,2.3666-.4107,2.0942-2.13A13.3834,13.3834,0,0,1,21.7979,180.5629Z"/><path class="e7c13abb-1e99-4088-bcb2-fab646185251" d="M57.1123,180.5109c0,2.2589-.0372,4.5186.0171,6.7761.0238.9933-.288,1.3707-1.32,1.3521-2.968-.0537-5.9381-.0487-8.9064-.0019-.98.0155-1.3692-.261-1.3581-1.3066.0487-4.5817.0443-9.1643.0112-13.7462-.0066-.9116.27-1.2434,1.2059-1.2293,3.0328.0457,6.0677.06,9.1-.0058,1.0964-.0238,1.278.4493,1.2583,1.3855-.0475,2.2578-.0154,4.5173-.0154,6.7761Zm-3.8958.0678a22.7076,22.7076,0,0,1,.0227-2.8922c.2-1.5487-.7568-1.4972-1.77-1.4258-.9173.0646-2.1588-.4752-2.0362,1.3482a44.4466,44.4466,0,0,1,.0026,5.5938c-.0791,1.3386.4744,1.5291,1.6645,1.598,1.66.0962,2.4163-.3366,2.1323-2.1018A13.2087,13.2087,0,0,1,53.2165,180.5787Z"/><path class="e7c13abb-1e99-4088-bcb2-fab646185251" d="M41.3363,180.4956c0,2.265-.0361,4.5308.0167,6.7946.0231.9943-.2949,1.3682-1.3249,1.3489-2.9114-.0546-5.8249-.0488-8.7366-.0019-.9609.0155-1.3943-.21-1.3827-1.2813.05-4.5942.0453-9.1893.01-13.7838-.007-.9217.2779-1.2333,1.2115-1.2181,2.9763.0487,5.9549.06,8.9306-.0044,1.06-.0229,1.3089.38,1.2851,1.3514-.0556,2.2636-.0178,4.53-.0178,6.7946Zm-3.8962.2115c0-1.0919-.0647-2.1886.0154-3.2746.1155-1.5676-.9991-1.1786-1.8-1.1538-.7658.0236-1.9108-.51-1.8481,1.102.0749,1.9241.0919,3.8569-.0067,5.7788-.0649,1.2629.3434,1.6047,1.6067,1.6429,1.5371.0466,2.3012-.2933,2.0477-1.9782A14.0349,14.0349,0,0,1,37.44,180.7071Z"/><path class="e7c13abb-1e99-4088-bcb2-fab646185251" d="M169.93,180.5289c0,2.2651-.0418,4.5313.0188,6.7947.0276,1.0319-.3512,1.3333-1.35,1.3152q-4.3672-.0788-8.7369-.0008c-.9932.0171-1.3678-.2847-1.3579-1.3158q.0663-6.8918.0082-13.7843c-.0079-.9656.3662-1.1939,1.2527-1.1817,2.9767.0408,5.9554.0619,8.9309-.0085,1.1106-.0263,1.2614.4628,1.2426,1.3862-.0461,2.2642-.0151,4.53-.0151,6.795Zm-7.5065-.112c0,1.0919.0169,2.1841-.0039,3.2755-.0306,1.6079,1.183.9754,1.9349,1.0352.762.0606,1.7452.3382,1.6923-1.0847a46.6683,46.6683,0,0,1,.02-5.3919c.1236-1.5657-.2945-2.1286-1.9606-2.0519-1.3129.0605-1.8819.33-1.7074,1.7153A21.2947,21.2947,0,0,1,162.4235,180.4169Z"/><path class="e7c13abb-1e99-4088-bcb2-fab646185251" d="M27.6369,107.0933l-3.6931.019c-.0372-2.7113-.003-5.4261-.14-8.1323-.0737-1.45.6574-1.521,1.7648-1.5169,7.564.0283,15.1281.0148,22.6922.0148,1.4869,0,2.9823.1,4.4587-.0251,1.8274-.155,1.5139,1.05,1.5687,2.1273.0585,1.15.0021,1.9363-1.5754,1.921-7.628-.0737-15.2579.0226-22.8853-.0749-1.7457-.0223-2.3026.4973-2.1278,2.1871A27.22,27.22,0,0,1,27.6369,107.0933Z"/><path class="e7c13abb-1e99-4088-bcb2-fab646185251" d="M25.3178,166.8615c-3.2794.0217-6.5592.0191-9.8378.08-.9457.0177-1.3845-.1926-1.3681-1.2649.077-5.0144.082-10.03.1128-15.045l3.7-.02c.0268,3.6113.1579,7.2261.0361,10.8323-.06,1.7811.9332,1.5481,2.0469,1.6057,1.2028.0621,1.8761-.0789,1.8357-1.5989-.0961-3.6087.006-7.2226.0281-10.8344l3.7415.0053q.005,7.9605.01,15.9211Z"/><path class="e7c13abb-1e99-4088-bcb2-fab646185251" d="M169.8678,151.0008c.0274,4.8476.0389,9.6953.0961,14.5425.011.9334-.1666,1.4092-1.26,1.3852q-4.4595-.0981-8.9224,0c-1.0937.024-1.2712-.4518-1.26-1.3852.0572-4.8472.0687-9.6949.096-14.5425l3.7024.0064c.03,3.5383.1444,7.0788.05,10.6137-.0405,1.5225.7448,1.4816,1.7764,1.4346.9814-.0446,2.024.31,1.9708-1.4347-.1079-3.534.0187-7.0752.0486-10.6135Z"/><path class="e7c13abb-1e99-4088-bcb2-fab646185251" d="M195.4224,71.7411a9.1452,9.1452,0,0,0-3.7469-.3929,67.3653,67.3653,0,0,0,1.885-12.1687,54.3086,54.3086,0,0,0-4.002-21.9871c1.1842-.6932,2.5074-.3089,3.7578-.4867,1.5388,2.9786,2.0815,6.2578,2.8633,9.4657a50.8655,50.8655,0,0,1-.2526,23.9056C195.7958,70.64,195.5923,71.1868,195.4224,71.7411Z"/><path class="e7c13abb-1e99-4088-bcb2-fab646185251" d="M188.1508,68.6264c-1.2025-.6686-2.5087-.3-3.77-.3768a43.9883,43.9883,0,0,0-3.7077-31.4644,13.9477,13.9477,0,0,1,4.3378.368,44.4314,44.4314,0,0,1,4.4516,24.7123A22.1743,22.1743,0,0,1,188.1508,68.6264Z"/><path class="e7c13abb-1e99-4088-bcb2-fab646185251" d="M61.8722,114.867c.0267,3.9318.0355,7.8639.0933,11.7952.0139.9468-.2207,1.4044-1.2867,1.3849-3.03-.0554-6.0617-.0389-9.0923-.0075-.8561.0088-1.3172-.184-1.2984-1.1685.0764-3.9928.1012-7.9866.1449-11.98l3.6669-.0319c.0262,2.5784.1569,5.1617.04,7.7336-.0719,1.5783.7137,1.6289,1.8707,1.5688,1.0777-.056,2.1865.2558,2.1024-1.56-.1191-2.5715.02-5.1549.048-7.7333Z"/><path class="e7c13abb-1e99-4088-bcb2-fab646185251" d="M61.8722,114.867l-3.7116.0013a11.9944,11.9944,0,0,1-.0891-2.1153c.2087-1.6194-.41-2.1082-2.0276-2.0591-1.3977.0424-2.0461.3587-1.8718,1.8545a15.03,15.03,0,0,1-.0722,2.3107l-3.6669.0319a66.3008,66.3008,0,0,1-.1571-6.7721c-.04-.9006.3132-1.2942,1.2337-1.2874q4.6578.0345,9.3158,0c.7711-.0046,1.259.2151,1.224,1.0815C61.9558,110.23,62.274,112.5578,61.8722,114.867Z"/><path class="e7c13abb-1e99-4088-bcb2-fab646185251" d="M162.32,151.0072l-3.7024-.0064c-.03-2.3248-.0309-4.6506-.105-6.974-.0307-.9651.3887-1.1972,1.2686-1.1862q4.4613.0555,8.9236,0c.88-.011,1.2993.2211,1.2685,1.1862-.074,2.3234-.0747,4.6492-.105,6.974l-3.7024.0065a15.1822,15.1822,0,0,1-.0859-2.4784c.1832-1.4975-.4521-1.7995-1.837-1.7995s-2.02.3018-1.837,1.7994A15.1935,15.1935,0,0,1,162.32,151.0072Z"/><path class="e7c13abb-1e99-4088-bcb2-fab646185251" d="M67.5264,82.2344l3.6751-.0152-.0174,19.8194-3.628.0327C67.2506,95.46,67.335,88.847,67.5264,82.2344Z"/><path class="e7c13abb-1e99-4088-bcb2-fab646185251" d="M25.6132,150.6223l-3.7415-.0053q-.0413-1.4353-.0825-2.8707c-.0129-.4506-.0159-.8214-.6214-.9927-2.1446-.6069-3.1256.0963-3.15,2.3333-.0055.5087-.0608,1.0169-.0932,1.5254l-3.7.02c-.036-2.1872-.0456-4.3752-.12-6.5611-.0322-.9441.3645-1.2173,1.2583-1.2065q4.5428.0551,9.0863,0c.8841-.0107,1.2886.2357,1.2571,1.1923C25.634,146.2438,25.6393,148.4336,25.6132,150.6223Z"/><path class="e7c13abb-1e99-4088-bcb2-fab646185251" d="M193.3163,36.7057c-1.25.1778-2.5736-.2065-3.7578.4867a63.7651,63.7651,0,0,0-6.2626-10.4461c-1.3455-1.7318.8248-1.7066,1.3313-2.4923.4391-.6811,1.0379-.8307,1.665.0218A48.18,48.18,0,0,1,193.3163,36.7057Z"/><path class="e7c13abb-1e99-4088-bcb2-fab646185251" d="M62.0311,99.5268c.4573,1.9423-.688,1.9359-2.0827,2.0222-1.7871.1107-1.8945-.7532-1.97-2.1948-.0942-1.7931.7268-1.9078,2.1745-1.9547C61.8906,97.3432,62.3769,98.0282,62.0311,99.5268Z"/><path class="e7c13abb-1e99-4088-bcb2-fab646185251" d="M37.5518,196.0436c.4564,1.7453-.44,1.9757-1.9344,2.0135-1.5734.04-2.0486-.3864-2.0485-2.0053s.4785-2.0349,2.0483-2.005C37.1273,194.0754,38.0045,194.3181,37.5518,196.0436Z"/><path class="e7c13abb-1e99-4088-bcb2-fab646185251" d="M166.179,196.0221c.4383,1.7081-.3843,2.0143-1.9159,2.0362-1.5451.0221-2.0778-.3408-2.0683-1.987.0092-1.5926.4285-2.0722,2.0294-2.0238C165.6989,194.0921,166.6456,194.2606,166.179,196.0221Z"/><path class="e7c13abb-1e99-4088-bcb2-fab646185251" d="M182.7133,20.1968c-.1339.7939-2.4157,2.7455-2.7218,2.4931-.8539-.7041-2.3574-1.3484-2.0318-2.4774.2766-.9595,1.2727-2.442,2.5149-2.2238C181.4264,18.1559,182.2268,19.3555,182.7133,20.1968Z"/><path class="e7c13abb-1e99-4088-bcb2-fab646185251" d="M111.703,91.3265c-.9609-.6586-2.2791-1.4431-2.3978-2.5281-.1322-1.21,1.4423-1.7707,2.3568-2.5229.2027-.1668,2.5574,2.055,2.5784,2.4021A7.8223,7.8223,0,0,1,111.703,91.3265Z"/><path class="e7c13abb-1e99-4088-bcb2-fab646185251" d="M179.9721,47.9726l.0038-.709c.1371.0872.3655.1522.3933.2661C180.4361,47.8037,180.2289,47.9333,179.9721,47.9726Z"/><path class="e7c13abb-1e99-4088-bcb2-fab646185251" d="M25.3178,166.8615l.3054-.3181C25.6776,166.7994,25.5674,166.8974,25.3178,166.8615Z"/><path class="e7c13abb-1e99-4088-bcb2-fab646185251" d="M94.0322,146.3529c.0272.2331-.0515.3682-.311.336Z"/><path class="e7c13abb-1e99-4088-bcb2-fab646185251" d="M118.8884,164.6323a41.6626,41.6626,0,0,1-.1377-6.9326c.0068-1.2709-.2558-1.83-1.6853-1.8037-4.5723.0836-9.1478.0729-13.7205.0036-1.2363-.0188-1.517.4166-1.4857,1.5605.0616,2.2506-.0211,4.505-.0441,6.7578H98.0435c-.023-2.1223-.1359-4.2488-.038-6.3656.0672-1.4538-.2729-2.01-1.8714-1.9659-4.3095.1181-8.6275.1343-12.9359-.0048-1.776-.0574-2.2984.5434-2.0794,2.1832a6.4263,6.4263,0,0,1-.1548,1.5174l-3.65,0c-.3758-2.1845-.0824-4.386-.1671-6.578-.0478-1.2381.8558-1.0627,1.6138-1.0644q5.1465-.011,10.2932-.0034c10.5521,0,21.1046.0343,31.6562-.0387,1.6437-.0113,2.1214.4827,2.0336,2.08-.1949,3.5464.1935,7.1081-.1938,10.6552Z"/><path class="e7c13abb-1e99-4088-bcb2-fab646185251" d="M115.0646,47.2442l.0021.7924c-.2916-.047-.66-.0695-.5689-.4785C114.5289,47.4184,114.8668,47.3469,115.0646,47.2442Z"/><path class="e7c13abb-1e99-4088-bcb2-fab646185251" d="M149.4226,114.8746c.0444,3.9958.07,7.9919.1466,11.9871.0187.9749-.4225,1.1882-1.29,1.1785-3.0325-.0336-6.0662-.0491-9.098.006-1.0652.0193-1.3026-.4361-1.2885-1.3848.058-3.9338.0668-7.8683.0936-11.8025l3.7113.0093c.0286,2.645.1385,5.2925.0577,7.9341-.0549,1.7924,1.1411,1.31,2.0778,1.355.9667.0465,1.93.2269,1.8774-1.3641-.0879-2.6413.0213-5.2891.0475-7.9342Z"/><path class="e7c13abb-1e99-4088-bcb2-fab646185251" d="M166.5209,114.8746c.0445,3.9958.07,7.9919.1467,11.9871.0186.9749-.4225,1.1882-1.29,1.1785-3.0324-.0337-6.0661-.049-9.0979.006-1.0652.0193-1.3026-.4361-1.2886-1.3848.0581-3.9338.0669-7.8683.0937-11.8025l3.74.0114c.0305,2.64.1432,5.2822.0629,7.9187-.0547,1.7917,1.14,1.3087,2.074,1.3513.9589.0438,1.9331.2383,1.88-1.3563-.0876-2.6368.02-5.28.0448-7.9206Z"/><path class="e7c13abb-1e99-4088-bcb2-fab646185251" d="M150.3863,158.7509q0,.9691,0,1.9382c-.0022,2.2926-.7592,2.8423-3.0128,2.3284-.7327-.167-.7134-.6124-.7144-1.1325-.0042-2.0674.0452-4.1363-.02-6.2017-.05-1.5885,1.0783-1.1435,1.8695-1.1281.77.0151,1.9658-.518,1.8883,1.0951C150.3464,156.6816,150.3867,157.7172,150.3863,158.7509Z"/><path class="e7c13abb-1e99-4088-bcb2-fab646185251" d="M88.6629,90.88c0,2.9709-.0359,5.9424.0188,8.9122.02,1.0869-.1547,1.6494-1.4538,1.6089-2.9682-.0927-5.9417-.0614-8.912-.0125-1.0012.0165-1.3412-.3095-1.3346-1.3261q.06-9.3.0108-18.6c-.0047-.9556.3556-1.2021,1.2474-1.19,3.0351.04,6.0718.05,9.1065-.0048,1.0067-.0183,1.347.2864,1.3279,1.3129-.0578,3.0989-.0209,6.2-.0209,9.3Zm-3.8914-.1085h.006c0-1.7478-.11-3.5046.0318-5.2409.1349-1.6524-.9133-1.418-1.8519-1.3534-.8859.0609-2.1536-.5744-2.1012,1.2952.1,3.5576.0947,7.1215.0064,10.68C80.821,97.83,81.92,97.45,82.8021,97.4245c.8438-.0245,2.0648.5036,1.9876-1.2157C84.7085,94.4,84.7715,92.5844,84.7715,90.7718Z"/><path class="e7c13abb-1e99-4088-bcb2-fab646185251" d="M94.1115,117.4649c0-2.9769.0386-5.9545-.02-8.93-.0217-1.1013.173-1.6443,1.4631-1.6036,2.9095.0917,5.8245.0625,8.736.0106,1.038-.0186,1.49.218,1.4805,1.3842q-.0741,9.2212.0061,18.4433c.0083,1.0783-.4192,1.2906-1.3751,1.276-2.9764-.0455-5.9552-.0659-8.93.0082-1.1543.0287-1.41-.4071-1.3894-1.464.0579-3.04.02-6.0828.02-9.1244Zm7.77.0622c0-1.8057-.0982-3.6184.0293-5.415.1136-1.5988-.881-1.4479-1.8463-1.3751-.894.0673-2.1555-.5412-2.1115,1.3q.1295,5.4141.0065,10.833c-.0417,1.8751,1.26,1.1743,2.1282,1.2618.9758.0983,1.9449.2061,1.82-1.3832C101.7706,121.0178,101.876,119.2683,101.8812,117.5271Z"/><path class="e7c13abb-1e99-4088-bcb2-fab646185251" d="M122.8542,119.5079c0,2.3949-.0357,4.79.0173,7.1842.0216.9753-.2373,1.3788-1.2948,1.3576-3.0411-.061-6.0845-.0448-9.1264-.0072-.8813.011-1.2732-.2151-1.2654-1.1841.0392-4.9189.066-9.8387,0-14.7569-.0229-1.6985,1.1126-1.2282,1.9737-1.243.8853-.0151,1.9841-.3961,1.943,1.276-.0859,3.493.0807,6.9939-.0622,10.4831-.0763,1.8623,1.0426,1.4782,2.099,1.542,1.16.07,1.9309.01,1.8746-1.57-.1222-3.426.0612-6.8632-.0724-10.2884-.0684-1.7533.9873-1.4429,1.9852-1.46,1.032-.0172,2.0631-.2317,1.9585,1.4838-.1455,2.3859-.0366,4.7874-.0366,7.1822Z"/><path class="e7c13abb-1e99-4088-bcb2-fab646185251" d="M88.5973,114.0932c.02,4.1989.0184,8.3981.0764,12.5965.0134.9671-.2262,1.3814-1.2872,1.36q-4.5537-.0918-9.11,0c-1.06.0213-1.3021-.391-1.2881-1.3592.0587-4.0691.0563-8.1391.0763-12.2088a12.9988,12.9988,0,0,1,3.7609-.3892c.02,2.9047.1222,5.8122.0268,8.7131-.0535,1.6254.947,1.3762,1.8814,1.3305.9137-.0448,2.1335.4979,2.0743-1.33-.094-2.901.0091-5.8085.0288-8.7132Z"/><path class="e7c13abb-1e99-4088-bcb2-fab646185251" d="M80.8253,114.0925a12.9988,12.9988,0,0,0-3.7609.3892c-.0228-2.0645-.0121-4.13-.0833-6.193-.0336-.9725.252-1.3869,1.2974-1.3689q4.551.0788,9.1041,0c1.0443-.0181,1.3346.3941,1.2981,1.3679-.0723,1.9335-.0605,3.87-.0834,5.8055l-3.7607-.0007c-.0259-.7646-.0483-1.5293-.079-2.2936-.0152-.3775-.0165-.712-.4887-.91-1.8153-.76-3.3452.1565-3.3745,2.0589C80.8886,113.33,80.8492,113.7111,80.8253,114.0925Z"/><path class="e7c13abb-1e99-4088-bcb2-fab646185251" d="M99.8756,142.9278c1.6809-.4374,2.0278.3216,2.0636,1.9013.0375,1.6515-.4762,2.0385-2.0557,2.0066-1.4536-.0294-2.0361-.3136-1.9531-1.9027C98.0039,143.527,97.9982,142.4154,99.8756,142.9278Z"/><path class="e7c13abb-1e99-4088-bcb2-fab646185251" d="M94.0791,175.6873a19.9043,19.9043,0,0,0,.0242,2.7013c.2273,1.6173-.5262,1.8414-1.9464,1.891-1.6255.0569-2.12-.4235-2-2.0353a52.2677,52.2677,0,0,0,.0191-5.9849c-.0643-1.5835,1.0447-1.1968,1.8311-1.1377.79.0595,2.112-.6576,2.0751,1.0886C94.0573,173.3688,94.0771,174.5282,94.0791,175.6873Z"/><path class="e7c13abb-1e99-4088-bcb2-fab646185251" d="M109.6651,175.4983a22.0583,22.0583,0,0,0,.0257,2.8945c.219,1.6119-.5164,1.8455-1.9411,1.8864-1.6149.0465-2.126-.4243-2.0068-2.0389a54.7611,54.7611,0,0,0,.02-5.9853c-.0568-1.5771,1.0609-1.1893,1.8464-1.1324s2.1124-.6679,2.0593,1.0919C109.636,173.3082,109.6629,174.4036,109.6651,175.4983Z"/></svg>