<svg id="b392c0bc-f4e9-430a-8e75-f42a6b449f59" data-name="Capa 1" xmlns="http://www.w3.org/2000/svg" viewBox="0 0 200 200"><defs><style>.a84d62dc-d4e6-4f73-b707-c0bf9bc0686e{fill:#056766;}.e85409bb-2a26-4365-9e91-a33c713496bc{fill:#004849;}.a2ec607e-c44f-4739-bf45-2b45b6b01f51{fill:#48b592;}.f1adcc04-83ab-4d18-b585-49953adeac3c{fill:#eceef0;}.ff8b9c51-7880-410c-ad57-38dbb257caf9{fill:#d2d2d2;}.fa219840-1a96-47f9-870b-5f8ffac637b5{fill:#d4d4d4;}.b00cd35f-5169-4786-a0a3-0ec1a97bd243{fill:#fbe053;}.a6efc1ed-3b0d-4ad8-8c99-fd45418c7c56{fill:#fbafaa;}.b8e8d88e-ee2c-42a6-8f03-3208cc5b55ef{fill:#97c86a;}</style></defs><path class="a84d62dc-d4e6-4f73-b707-c0bf9bc0686e" d="M18.3939,174.1862c-.02-.6468-.0584-1.2936-.0585-1.9405q-.0044-51.22-.0022-102.44c0-3.6938.8477-4.529,4.593-4.529q77.0728-.0006,154.1456,0c3.7426,0,4.5957.84,4.5958,4.5291q.001,51.22-.0021,102.44c0,.6469-.0383,1.2937-.0586,1.94-3.7564-.0064-7.5129-.0189-11.2693-.0186Q94.3657,174.1755,18.3939,174.1862Zm156.2333-10.9193c.0114-.1939.0328-.3879.0328-.5819q.0055-44.3174.0491-88.6346c.0035-1.77-.8082-1.79-2.11-1.7894Q100,72.2885,27.4018,72.2339c-1.7948-.002-2.1137.57-2.1043,2.2053.0664,11.5973.03,23.1952.0364,34.7929q.0141,27.0174.04,54.0348c-.1294,3.9-.1294,3.9,3.7956,3.9H170.8316C174.7566,167.1667,174.7566,167.1667,174.6272,163.2669Z"/><path class="a84d62dc-d4e6-4f73-b707-c0bf9bc0686e" d="M181.6959,178.0486c4.1465.0025,8.2934.0415,12.4391-.0162,1.1505-.016,1.6117.2513,1.5611,1.4991-.0969,2.3933-.012,4.7934-.0316,7.19A10.4656,10.4656,0,0,1,184.84,197.4927q-30.9042.03-61.8084.0078-53.4505,0-106.9013,0c-7.5756,0-11.7942-4.2044-11.7975-11.75-.0009-2.0732.0737-4.15-.0274-6.2184-.0611-1.2487.41-1.5152,1.5605-1.4992,4.1456.0577,8.2926.0187,12.439.0162q30.01.0036,60.021-.0213c1.5857-.0032,2.66.3153,3.4066,1.8679.7783,1.62,1.9175,3.0622,2.8327,4.621a2.5406,2.5406,0,0,0,2.5182,1.3462c6.9923-.0583,14.0225-.47,20.9658.1162,5.1943.4381,8.3254-1.3113,10.1537-5.8975.7063-1.7718,1.9338-2.0619,3.6662-2.0577Q151.7824,178.096,181.6959,178.0486Z"/><path class="a84d62dc-d4e6-4f73-b707-c0bf9bc0686e" d="M73.179,61.34c-5.5072.0157-11.0148.0031-16.5214.07-1.1389.0139-1.3774-.3947-1.4056-1.4558-.1584-5.9664-.1844-5.9611,5.5085-7.4941,1.8733-.5045,3.7166-1.148,5.6138-1.5277a3.678,3.678,0,0,0,3.094-2.7039,3.537,3.537,0,0,0-.201-3.4027c-1.8062-2.9918-3.4254-6.0961-5.209-9.1022a1.5557,1.5557,0,0,1,.3-2.3047q4.34-4.18,8.5255-8.5193a1.4692,1.4692,0,0,1,2.15-.2846c3.1287,1.8311,6.3024,3.5853,9.4625,5.3625a4.0874,4.0874,0,0,0,5.6121-2.35c.9543-3.3593,1.9587-6.7071,2.7913-10.0967.3305-1.3455.93-1.71,2.262-1.6779,3.8211.0919,7.647.0818,11.4687.0034a1.69,1.69,0,0,1,1.984,1.5269c.9244,3.5674,1.955,7.1077,2.9725,10.65.4794,1.6691,3.664,2.976,5.1754,2.1314,3.2213-1.8,6.4564-3.5785,9.627-5.4647a1.6645,1.6645,0,0,1,2.453.3582c2.6963,2.8,5.4354,5.5635,8.252,8.2422a1.7624,1.7624,0,0,1,.3009,2.6259c-1.822,3.0585-3.53,6.1849-5.2754,9.2889-.999,1.7769.23,4.8434,2.1753,5.3968,3.545,1.0084,7.086,2.0341,10.6515,2.965.9928.2592,1.4375.6628,1.3441,1.7112-.1762,1.9769.8174,4.5049-.4261,5.7885-1.07,1.1048-3.5707.2838-5.437.2965-4.0165.0275-8.0334-.0185-12.05-.0345.7475-14.4188-12.2906-27.6682-27.5071-27.723C85.4848,33.5617,72.3628,47.0162,73.179,61.34Z"/><path class="e85409bb-2a26-4365-9e91-a33c713496bc" d="M181.6959,178.0486q-29.9134.0036-59.8268-.0252c-1.7324-.0042-2.96.2859-3.6662,2.0577-1.8283,4.5862-4.9594,6.3356-10.1537,5.8975-6.9433-.5857-13.9735-.1745-20.9658-.1162a2.5406,2.5406,0,0,1-2.5182-1.3462c-.9152-1.5588-2.0544-3.0014-2.8327-4.621-.7461-1.5526-1.8209-1.8711-3.4066-1.8679q-30.0105.0615-60.021.0213.0445-1.9313.089-3.8624,75.9718-.01,151.9437-.0185c3.7564,0,7.5129.0122,11.2693.0186Q181.6514,176.1176,181.6959,178.0486Z"/><path class="e85409bb-2a26-4365-9e91-a33c713496bc" d="M73.179,61.34C72.3628,47.0162,85.4848,33.5617,100.87,33.617c15.2165.0548,28.2546,13.3042,27.5071,27.723l-9.2922-.03c.6494-9.9282-8.9035-18.336-18.2081-18.3812-9.9-.0481-19.0954,8.8752-18.4051,18.381Z"/><path class="a84d62dc-d4e6-4f73-b707-c0bf9bc0686e" d="M14.09,25.5692C9.5,24.0627,6.4974,21.1806,6.3022,16.1206a9.6981,9.6981,0,1,1,13.0324,8.9046c-.4769.1773-.9508.3625-1.426.5442Q15.9994,25.57,14.09,25.5692Z"/><path class="a84d62dc-d4e6-4f73-b707-c0bf9bc0686e" d="M182.0923,25.5692c-4.5909-1.5066-7.5931-4.3889-7.788-9.4492a9.6989,9.6989,0,1,1,13.0324,8.9052c-.4769.1772-.9508.3625-1.4261.5442Q184.0016,25.57,182.0923,25.5692Z"/><path class="a2ec607e-c44f-4739-bf45-2b45b6b01f51" d="M14.09,25.5692q1.9092,0,3.8184,0c.0117,8.1613.0691,16.3233-.0034,24.4841-.0145,1.6344.4573,2.056,2.0608,2.0373,7.254-.0842,14.51.0137,21.7641-.0759,1.5994-.02,1.9276.5162,1.93,1.9855.0023,1.4769-.3417,1.9959-1.9339,1.9809-8.6145-.0815-17.23-.0562-25.8454-.0188-1.2163.0053-1.8693-.1314-1.8576-1.6336C14.0981,44.7427,14.0786,35.1558,14.09,25.5692Z"/><path class="a2ec607e-c44f-4739-bf45-2b45b6b01f51" d="M182.0923,25.5692q1.9092,0,3.8183,0c.0117,9.5864.0016,19.1732.0606,28.76.0079,1.2856-.3944,1.6454-1.6567,1.6385-8.7446-.0475-17.49-.0695-26.234.0145-1.6452.0158-1.7238-.72-1.7211-1.9816.0026-1.2547.0648-2.0066,1.717-1.9861,7.3834.0918,14.7689.0025,22.1528.0718,1.44.0135,1.872-.367,1.8615-1.8381C182.0323,42.0221,182.0805,33.7955,182.0923,25.5692Z"/><path class="a84d62dc-d4e6-4f73-b707-c0bf9bc0686e" d="M82.4718,61.31c-.69-9.5058,8.5047-18.4291,18.4051-18.381,9.3046.0452,18.8575,8.453,18.2081,18.3812a8.9068,8.9068,0,0,0-1.1556.0844c-2.0391.41-2.5993-.61-2.794-2.4722-.6038-5.7747-6.0537-11.2071-11.7731-11.9244C94.3685,45.87,87.8529,50.6731,86.3276,59.69,85.8525,62.4989,83.88,61.0784,82.4718,61.31Z"/><path class="a2ec607e-c44f-4739-bf45-2b45b6b01f51" d="M25.3736,163.2669q-.02-27.0174-.04-54.0348c-.006-11.5977.03-23.1956-.0364-34.7929-.0094-1.6356.3095-2.2073,2.1043-2.2053q72.5986.08,145.1973.0271c1.3018-.0005,2.1135.019,2.11,1.7894q-.09,44.3172-.0491,88.6346c0,.194-.0214.388-.0325.582ZM41.693,92.5q-.0132,29.937-.0181,59.874c.001,2.7731,1.5576,4.2855,4.38,4.2863q53.9453.0139,107.8905,0c2.8184-.0007,4.38-1.5164,4.3807-4.2863q.01-29.937-.0179-59.874c.0089-2.8481.0241-5.6962.0251-8.5444.0013-3.6507-1.4028-5.0665-5.0239-5.0671q-20.4883-.0032-40.9769-.0009-32.9173,0-65.8349.0018c-3.3532.0005-4.8271,1.491-4.8288,4.872C41.667,86.6743,41.6841,89.5871,41.693,92.5Z"/><path class="e85409bb-2a26-4365-9e91-a33c713496bc" d="M25.3736,163.2669l149.2539,0c.1291,3.9.1291,3.9-3.7959,3.9H29.1692C25.2442,167.1667,25.2442,167.1667,25.3736,163.2669Z"/><path class="f1adcc04-83ab-4d18-b585-49953adeac3c" d="M158.3078,92.5q.0132,29.937.0179,59.874c-.001,2.77-1.5623,4.2856-4.3807,4.2863q-53.9452.0138-107.89,0c-2.822-.0008-4.3786-1.5132-4.38-4.2863q-.01-29.937.0179-59.874ZM56.0443,124.664c0,6.155.0369,12.31-.0281,18.4647-.0148,1.4.3225,1.9235,1.8286,1.914q14.7714-.093,29.5435-.0054c1.37.0069,1.7636-.4339,1.7591-1.7784q-.0635-18.6591.0072-37.3184c.007-1.5259-.5488-1.8193-1.9288-1.8123q-14.6744.0745-29.3492-.0039c-1.4635-.0087-1.8786.4394-1.8624,1.8808C56.0845,112.224,56.0443,118.4443,56.0443,124.664Zm64.5563-20.8779q-10.7751,0-21.55.007c-.6274.001-1.4928-.2586-1.8017.386a7.18,7.18,0,0,0-.1674,4.7283c.2545,1.13,1.5374.6759,2.38.6773q20.7734.0348,41.547.0164c3.3325,0,3.3325,0,3.317-3.404a1.4264,1.4264,0,0,1,.001-.194c.2244-1.6715-.4485-2.2691-2.1759-2.25C134.9678,103.8318,127.784,103.7861,120.6006,103.7861Zm-.1845,23.7042q10.8722,0,21.7443-.0072c.6274-.0009,1.4907.261,1.8056-.3773a7.1375,7.1375,0,0,0,.1815-4.726c-.2457-1.137-1.53-.6871-2.3725-.6884q-21.0647-.034-42.1294-.0158c-2.7459,0-2.7459.0024-2.7472,2.8086a4.2447,4.2447,0,0,1-.0036.5819c-.2556,1.8264.44,2.4919,2.36,2.4643C106.3074,127.4293,113.3622,127.49,120.4161,127.49Zm.3967,12.0741q-10.872,0-21.7442.0072c-.6275.001-1.49-.262-1.8074.3736a7.12,7.12,0,0,0-.1875,4.725c.2419,1.14,1.5272.6919,2.3693.6932q21.1619.0337,42.3236.0153c2.5538,0,2.5538-.0054,2.5585-2.6086q0-.2913,0-.5824c-.0044-2.6169-.0044-2.6215-2.5446-2.6225Q131.2967,139.5615,120.8128,139.5644Z"/><path class="a84d62dc-d4e6-4f73-b707-c0bf9bc0686e" d="M158.3078,92.5H41.6928c-.0087-2.9129-.0258-5.8257-.0244-8.7386.0017-3.381,1.4756-4.8715,4.8288-4.872q32.9175-.0051,65.8349-.0018,20.4885,0,40.9769.0009c3.6211.0006,5.0252,1.4164,5.0239,5.0671C158.3319,86.8038,158.3167,89.6519,158.3078,92.5ZM61.3866,88.8274a3.3583,3.3583,0,0,0,3.0593-3.18,3.3094,3.3094,0,0,0-3.1386-3.0968,3.22,3.22,0,0,0-3.1327,3.2717A3.2934,3.2934,0,0,0,61.3866,88.8274Zm-7.59-3.1144a2.7809,2.7809,0,0,0-3.02-3.0087,2.9889,2.9889,0,0,0-.041,5.9768A2.78,2.78,0,0,0,53.7962,85.713Zm18.0094,2.9408a2.695,2.695,0,0,0,2.9608-3.01,2.663,2.663,0,0,0-2.8654-2.9106,2.961,2.961,0,1,0-.0954,5.92Z"/><path class="ff8b9c51-7880-410c-ad57-38dbb257caf9" d="M56.0443,124.664c0-6.22.04-12.44-.03-18.6589-.0162-1.4414.3989-1.8895,1.8624-1.8808q14.6742.0876,29.3492.0039c1.38-.007,1.9358.2864,1.9288,1.8123q-.0858,18.6588-.0072,37.3184c.0045,1.3445-.3889,1.7853-1.7591,1.7784q-14.7716-.0744-29.5435.0054c-1.5061.01-1.8434-.5141-1.8286-1.914C56.0812,136.9744,56.0443,130.819,56.0443,124.664Z"/><path class="fa219840-1a96-47f9-870b-5f8ffac637b5" d="M120.6006,103.7861c7.1834,0,14.3672.0457,21.55-.0331,1.7274-.019,2.4.5786,2.1759,2.25a1.4264,1.4264,0,0,0-.001.194c.0155,3.4039.0155,3.404-3.317,3.404q-20.7735,0-41.547-.0164c-.8424-.0014-2.1253.4524-2.38-.6773a7.18,7.18,0,0,1,.1674-4.7283c.3089-.6446,1.1743-.385,1.8017-.386Q109.8255,103.7766,120.6006,103.7861Z"/><path class="fa219840-1a96-47f9-870b-5f8ffac637b5" d="M120.4161,127.49c-7.0539,0-14.1087-.061-21.1612.04-1.92.0276-2.6157-.6379-2.36-2.4643a4.2447,4.2447,0,0,0,.0036-.5819c.0013-2.8062.0013-2.8085,2.7472-2.8086q21.0648-.0012,42.1294.0158c.8422.0013,2.1268-.4486,2.3725.6884a7.1375,7.1375,0,0,1-.1815,4.726c-.3149.6383-1.1782.3764-1.8056.3773Q131.2882,127.5,120.4161,127.49Z"/><path class="fa219840-1a96-47f9-870b-5f8ffac637b5" d="M120.8128,139.5644q10.484,0,20.9677.0008c2.54.001,2.54.0056,2.5446,2.6225q0,.2911,0,.5824c-.0047,2.6032-.0047,2.6082-2.5585,2.6086q-21.1617.0026-42.3236-.0153c-.8421-.0013-2.1274.447-2.3693-.6932a7.12,7.12,0,0,1,.1875-4.725c.3175-.6356,1.18-.3726,1.8074-.3736Q109.9408,139.5547,120.8128,139.5644Z"/><path class="b00cd35f-5169-4786-a0a3-0ec1a97bd243" d="M61.3866,88.8274a3.2934,3.2934,0,0,1-3.212-3.0052,3.22,3.22,0,0,1,3.1327-3.2717,3.3094,3.3094,0,0,1,3.1386,3.0968A3.3583,3.3583,0,0,1,61.3866,88.8274Z"/><path class="a6efc1ed-3b0d-4ad8-8c99-fd45418c7c56" d="M53.7962,85.713a2.9907,2.9907,0,1,1-5.979-.1384,2.75,2.75,0,0,1,2.9591-2.87A2.7809,2.7809,0,0,1,53.7962,85.713Z"/><path class="b8e8d88e-ee2c-42a6-8f03-3208cc5b55ef" d="M71.8056,88.6538a2.961,2.961,0,1,1,.0954-5.92,2.663,2.663,0,0,1,2.8654,2.9106A2.695,2.695,0,0,1,71.8056,88.6538Z"/></svg>