<svg id="fdc495d3-2f23-4074-82dc-51c16056bbc8" data-name="Capa 1" xmlns="http://www.w3.org/2000/svg" viewBox="0 0 200 200"><defs><style>.b9834f24-e299-495c-bf4b-9db4e732e99c{fill:#293d7c;}.bdb519d5-eb4e-4724-9ae3-c7809218503a{fill:#69ccfe;}.e899058e-f907-4be2-a47e-26bb8708e73c{fill:#4560a1;}.ac9bed5a-e94f-481a-a1eb-589e6e5f30a6{fill:#fdfefe;}.e3d82be0-2727-4829-8c6c-32f1256e68d9{fill:#feae10;}.ac60c276-7daa-4e0b-ba70-652b715e76c8{fill:#d7e8fa;}.bef72e83-7c44-432b-8de4-7c8f8b79ec3e{fill:#445d9f;}.ba5c9bc6-2c6a-40e2-a6c2-4a613af90f05{fill:#2f4c89;}.a194d961-53d2-4967-8dd6-cdaf83362d20{fill:#fc9419;}.ee504c5d-2976-41cf-bc25-a5fc4cdbf36f{fill:#1b2d64;}.ad3bbcf9-9c76-4e88-a64b-286d4dbdb9ac{fill:#c3dcf3;}.bfd0ce15-2a88-44f8-a77a-6aca7322f640{fill:#fdfdfd;}.e5d86d1d-3e96-4cf6-864c-05735abe3552{fill:#bfd7ee;}.f1971a8b-af53-4653-b18c-a1467a477be3{fill:#aec1ec;}.f1b2fd0a-ee62-4b01-ab29-bd768f2a2361{fill:#5ec1d7;}</style></defs><path class="b9834f24-e299-495c-bf4b-9db4e732e99c" d="M.4778,24.6811a3.93,3.93,0,0,1,3.2731-1.1958q20.9214.0569,41.8429.0209c.7737,0,1.5474-.039,2.3209-.06.516.0218,1.0321.0624,1.5483.0624q54.8367.0045,109.6735,0c.5162,0,1.0323-.0407,1.5485-.0624q5.7091.0313,11.4184.0613c2.9567.0122,3.3763.4218,3.3934,3.3039.02,3.4184.053,6.8368.08,10.2553q-.0125,20.4342-.025,40.8679L166.77,77.912q.0136-17.2961.0274-34.592c.0157-2.0706.0407-4.1412.0449-6.2119.0072-3.4865.0016-3.4873-3.3939-3.4873q-71.9637,0-143.9275.0023c-.6461,0-1.2922.0377-1.9383.0578-2.1237-.0229-4.25.0086-6.37-.0864-1.6258-.0728-2.1852.6968-2.1567,2.2038.0474,2.51.04,5.0213.0553,7.532-.0169.3225-.0487.645-.0487.9676q-.0037,37.4474-.0026,74.8947c0,.194.0036.3881.0008.5821-.0207,1.46.7314,2.1158,2.1554,2.0894,2.0016-.0371,4.0033-.0666,6.005-.0993q3.6892-.0045,7.3786-.0086,48.0819-.0008,96.1637-.0025c.8413,0,1.6825-.0322,2.5238-.0493q.0363,9.4043.0726,18.8087c-6.7232-.0545-13.4468-.2193-20.1684.0853l-22.6266-.0448-7.85.0485c-.6419-.0516-1.2839-.148-1.9258-.1483q-25.3289-.0123-50.6576-.0009c-.6427,0-1.2853.0834-1.928.128-4.7137-.4081-9.4364-.1039-14.1545-.1528a5.5386,5.5386,0,0,1-3.5706-1.0315Zm87.46,101.1005c-2.8808-.1215-5.1915,2.243-5.3507,5.4449-.1271,2.5574,2.6387,5.055,5.3675,5.0606a5.2566,5.2566,0,1,0-.0168-10.5055Z"/><path class="bdb519d5-eb4e-4724-9ae3-c7809218503a" d="M18.2029,140.5809c.6427-.0446,1.2853-.1277,1.928-.128q25.3289-.0106,50.6576.0009c.6419,0,1.2839.0967,1.926.1482q-.0442,7.5109-.089,15.0219l-15.7494.0725c-2.0622-.0264-4.1251-.0956-6.1865-.0669-1.9485.0271-2.67.7448-2.7029,2.7091q-.0707,4.2562-.0009,8.5146c.031,2.0056.8264,2.7766,2.8624,2.8069,1.8684.0279,3.7382-.0347,5.6074-.0574q24.1433.0048,48.2864.0123c6.2056.0045,12.4111.04,18.6166.0621-.0077,1.7417-.0336,3.4835-.0176,5.225a3.05,3.05,0,0,0,2.4343,3.0714,8.1221,8.1221,0,0,0,2.4892.2336q15.0933.0455,30.1865.0875a70.3318,70.3318,0,0,1-14.1873,8.32,93.0011,93.0011,0,0,1-30.1543,8.3,95.39,95.39,0,0,1-95.457-53.0571A11.2533,11.2533,0,0,1,18.2029,140.5809Z"/><path class="e899058e-f907-4be2-a47e-26bb8708e73c" d="M158.451,178.2946q-15.0933-.0433-30.1865-.0875a8.1221,8.1221,0,0,1-2.4892-.2336,3.05,3.05,0,0,1-2.4343-3.0714c-.016-1.7415.01-3.4833.0176-5.2247q-.0121-7.0311-.0241-14.0627l.0248-15.1019-.0726-18.8084-.0279-8.7175-.0026-25.7331q.0132-3.2768.0262-6.5536c.5066-2.0921,1.8693-2.8306,3.97-2.8164,5.7159.0385,11.4326-.0473,17.149-.0839l22.3682.112,8.7824.0229,21.33-.0455a3.4071,3.4071,0,0,1,2.6952,3.733q-.0175,46.3419-.016,92.6838c-.0012,2.7879-1.2206,3.8277-4.3989,3.8309q-16.7094.0166-33.4189.011C160.6457,178.1491,159.5484,178.2435,158.451,178.2946Zm33.39-94.1769c-.4183-.43-.9627-.3108-1.4653-.3111q-29.0166-.0143-58.0332-.01c-1.9109.0006-2.66.7415-2.7081,2.7088-.04,1.6145.0335,3.2319.0567,4.848-.0164.2581-.0471.5162-.0471.7744q-.0054,35.323-.006,70.6462a6.9873,6.9873,0,0,0,.0128.7758c.1658,1.4792.8467,2.3949,2.4858,2.3461,2.0014-.06,4.0043-.0712,6.0065-.1036.3863.028.7727.08,1.1591.08q25.2528.0006,50.5055-.0089c2.8675-.0011,3.2164-.355,3.2172-3.2661q.0051-18.4549-.0006-36.91-.0128-17.1911-.0525-34.3821c.0278-1.7446.0848-3.4893.0711-5.2336C193.0365,85.2173,192.9051,84.36,191.8413,84.1177Z"/><path class="bdb519d5-eb4e-4724-9ae3-c7809218503a" d="M160.685,23.4463c-.5162.0217-1.0323.0624-1.5485.0624q-54.8367.0045-109.6735,0c-.5162,0-1.0323-.0406-1.5483-.0624a94.7757,94.7757,0,0,1,60.7559-18.521,94.8626,94.8626,0,0,1,51.7679,18.2269A1.5692,1.5692,0,0,1,160.685,23.4463Z"/><path class="bdb519d5-eb4e-4724-9ae3-c7809218503a" d="M196.8818,77.8893l-21.33.0455q.0128-20.4339.0252-40.868A90.5358,90.5358,0,0,1,192.5519,64.235,77.1221,77.1221,0,0,1,196.8818,77.8893Z"/><path class="ac9bed5a-e94f-481a-a1eb-589e6e5f30a6" d="M123.2824,80.7q-.013,3.2769-.0262,6.5536l-13.1553.0819c-2.1328-.0145-4.267.0131-6.3978-.0583a1.7826,1.7826,0,0,0-2.0762,1.9775q-.0561,10.8606-.0006,21.7215a1.7853,1.7853,0,0,0,2.0736,1.9823c2.1311-.0676,4.2652-.0417,6.398-.0556l13.1608.0838q.0141,4.3587.028,8.7175c-.8413.0171-1.6825.0492-2.5238.0493q-48.0819.0038-96.1637.0025-3.6894,0-7.3787.0086a16.2223,16.2223,0,0,1-.4159-4.4062q.01-36.9733-.0055-73.9466c.7758-.0218,1.5517-.0626,2.3275-.0627q46.5359-.0048,93.0717-.0039,27.2992-.0037,54.5987-.0254-.0136,17.2959-.0274,34.592L144.4013,77.8q-.0147-11.6521-.029-23.3043c-.0037-3.2852-.47-3.7427-3.8541-3.7432q-14.9532-.002-29.9064,0-35.44.0113-70.8807.0271c-1.8083-.0085-3.6167-.0388-5.4247-.02-2.1371.0224-2.7518.6268-2.7558,2.7843-.0151,8.2029.0233,16.406-.0279,24.6085-.0117,1.8761.8637,2.5508,2.5881,2.528,2.0017-.0265,4.0038-.0226,6.0058-.032.8418.0093,1.6836.0264,2.5255.0267Q82.9623,80.6892,123.2824,80.7ZM50.737,97.1086q-7.4829,0-14.966-.0055a6.0547,6.0547,0,0,0-2.2927.3146,2.7134,2.7134,0,0,0-1.8855,2.8573,2.5426,2.5426,0,0,0,2.0217,2.5354,11.41,11.41,0,0,0,2.6864.2928q14.48.03,28.96.0043a14.2039,14.2039,0,0,0,2.3106-.1914,2.6841,2.6841,0,0,0,2.462-2.7857,2.6241,2.6241,0,0,0-2.4109-2.8111,12.2416,12.2416,0,0,0-2.1142-.2018C60.5848,97.1006,55.6609,97.1085,50.737,97.1086Zm-.1-3.5992c5.242,0,10.4841.0112,15.726-.0051,2.2853-.0071,3.6442-1.0776,3.6978-2.8381.0556-1.8253-1.3617-2.9842-3.7343-2.9864q-15.5319-.0144-31.0637,0c-2.3.0023-3.6306,1.0528-3.6812,2.8292C31.529,92.357,32.913,93.4973,35.3,93.5047,40.412,93.52,45.5246,93.51,50.6371,93.5094Zm.0833,19.0464c5.1775,0,10.3551.0087,15.5325-.0038,2.4135-.0058,3.8157-1.1,3.8126-2.9207s-1.3948-2.9025-3.82-2.9046q-15.4355-.0135-30.8709,0c-2.4247.002-3.7994,1.0795-3.7956,2.914.0039,1.8405,1.3708,2.9062,3.8035,2.912C40.4948,112.5646,45.6076,112.5561,50.72,112.5558Zm33.7117-9.44c1.7464,0,3.493.0172,5.2391-.0058a14.4393,14.4393,0,0,0,3.857-.2354,2.6915,2.6915,0,0,0,2.1919-2.8068,2.5681,2.5681,0,0,0-2.0963-2.6686,9.9125,9.9125,0,0,0-2.2945-.2782c-4.657-.0246-9.3141-.0173-13.9711-.006a9.7685,9.7685,0,0,0-1.73.146,2.6829,2.6829,0,0,0-2.4491,2.7857,2.6139,2.6139,0,0,0,2.35,2.8458,11.9017,11.9017,0,0,0,2.1112.2134C79.9042,103.1321,82.1683,103.1156,84.4321,103.1157Zm-.0388,9.44c2.5837,0,5.1677.0187,7.7513-.0057,2.2421-.0213,3.5981-1.151,3.59-2.927-.0086-1.7814-1.3475-2.885-3.6146-2.8933q-7.7513-.0285-15.5026,0c-2.1564.008-3.4052,1.06-3.45,2.8126-.0477,1.8524,1.2177,2.9781,3.4753,3.0061C79.2254,112.58,81.81,112.5557,84.3933,112.5555Zm-.0152-19.047c2.6571,0,5.3146.0307,7.9711-.01,2.0909-.0319,3.41-1.2265,3.3835-2.9527-.0265-1.72-1.3455-2.8519-3.4673-2.8619q-7.7766-.0369-15.5535-.0017c-2.2888.0091-3.5708,1.1087-3.5478,2.9473.0228,1.8248,1.2959,2.8535,3.6317,2.8746C79.3231,93.5271,81.8507,93.51,84.3781,93.5085Z"/><path class="e3d82be0-2727-4829-8c6c-32f1256e68d9" d="M166.797,43.32q-27.2994.0132-54.5987.0254-46.5358.0063-93.0717.0039c-.7758,0-1.5517.0409-2.3275.0627l.0285-.131c-.0058-2.4392.0254-4.8793-.0368-7.317a3.1938,3.1938,0,0,1,.7914-2.2831c.6461-.02,1.2922-.0578,1.9383-.0578q71.9637-.0041,143.9275-.0023c3.3955,0,3.4011.0008,3.3939,3.4873C166.8377,39.1788,166.8127,41.2494,166.797,43.32Z"/><path class="ac60c276-7daa-4e0b-ba70-652b715e76c8" d="M16.7991,43.412q.0069,36.9734.0055,73.9466a16.2223,16.2223,0,0,0,.4159,4.4062c-2.0016.0327-4.0033.0622-6.0049.0993-1.424.0264-2.1761-.63-2.1554-2.0894.0028-.194-.0008-.3881-.0008-.5821q0-37.4473.0026-74.8947c0-.3226.0318-.6451.0487-.9676l7.7169-.0493Z"/><path class="bef72e83-7c44-432b-8de4-7c8f8b79ec3e" d="M80.5643,140.5536l22.6264.0447q.0394,7.5025.0787,15.0059-11.3367.0554-22.6727.11Z"/><path class="bdb519d5-eb4e-4724-9ae3-c7809218503a" d="M103.27,155.6038q-.04-7.5028-.0792-15.0055c6.7218-.3045,13.4454-.14,20.1686-.0852q-.0125,7.5505-.0248,15.1019Q113.3022,155.61,103.27,155.6038Z"/><path class="ba5c9bc6-2c6a-40e2-a6c2-4a613af90f05" d="M80.5643,140.5536q.0162,7.58.0323,15.1608-3.9858-.045-7.9711-.0905.0447-7.5109.089-15.0219Z"/><path class="bef72e83-7c44-432b-8de4-7c8f8b79ec3e" d="M87.9378,125.7816a5.2566,5.2566,0,1,1,.0168,10.5055c-2.7288-.0056-5.4946-2.5032-5.3675-5.0606C82.7463,128.0246,85.057,125.66,87.9378,125.7816Z"/><path class="a194d961-53d2-4967-8dd6-cdaf83362d20" d="M16.8276,43.281,9.1107,43.33c-.0155-2.5107-.0079-5.0219-.0553-7.532-.0285-1.507.5309-2.2766,2.1567-2.2038,2.12.095,4.2464.0635,6.37.0864a3.1938,3.1938,0,0,0-.7914,2.2831C16.853,38.4017,16.8218,40.8418,16.8276,43.281Z"/><path class="b9834f24-e299-495c-bf4b-9db4e732e99c" d="M72.6255,155.6239q3.9855.0453,7.9711.0905,11.3363-.0551,22.6728-.11,10.033.0051,20.0651.0108.012,7.0311.0241,14.0624c-6.2055-.0219-12.411-.0579-18.6166-.0624q-24.1431-.0173-48.2864-.0123a15.0553,15.0553,0,0,1-.786-5.1,35.1776,35.1776,0,0,0,.0092-4.85,5.2584,5.2584,0,0,1,1.1973-3.9567Z"/><path class="ee504c5d-2976-41cf-bc25-a5fc4cdbf36f" d="M56.8761,155.6964a5.2584,5.2584,0,0,0-1.1973,3.9567,35.1776,35.1776,0,0,1-.0092,4.85,15.0553,15.0553,0,0,0,.786,5.1c-1.8692.0227-3.739.0853-5.6074.0574-2.036-.03-2.8314-.8013-2.8624-2.8069q-.0657-4.2565.0009-8.5146c.0327-1.9643.7544-2.682,2.7029-2.7091C52.751,155.6008,54.8139,155.67,56.8761,155.6964Z"/><path class="ad3bbcf9-9c76-4e88-a64b-286d4dbdb9ac" d="M39.7311,50.78q35.44-.0138,70.8807-.0271,14.9532-.0048,29.9064,0c3.3838,0,3.85.458,3.8541,3.7432q.0129,11.6521.029,23.3043c-5.7163.0366-11.433.1224-17.1489.0839-2.1007-.0142-3.4634.7243-3.97,2.8164q-40.32-.0118-80.64-.025c-.8419,0-1.6837-.0174-2.5253-.0265a3.7441,3.7441,0,0,1-.7785-2.5136c.04-5.3133-.0346-10.6277.0369-15.94C39.4265,58.3893,39.0109,54.5651,39.7311,50.78Z"/><path class="bfd0ce15-2a88-44f8-a77a-6aca7322f640" d="M192.9721,91.3055q.0273,17.1911.0525,34.3821.0137,18.4548.0006,36.91c-.0008,2.9111-.35,3.265-3.2172,3.2661q-25.2528.01-50.5055.0089c-.3864,0-.7728-.0524-1.1592-.08a13.99,13.99,0,0,1-.8147-3.1445q.08-23.2555.0556-46.512,3.4935-.0265,6.9875-.0518,19.92-.0043,39.84-.0122c1.9748-.0014,2.8544-.7041,2.8772-2.557q.0906-7.384-.0054-14.77a2.2762,2.2762,0,0,0-2.5364-2.5232q-19.9192.0533-39.8387.0514l-7.334-.0834q-.0041-2.3157-.0083-4.6313c1.3489-.08,2.6977-.2283,4.0468-.23Q167.1923,91.2985,192.9721,91.3055ZM151.318,151.1313c-1.811-.0127-3.6233-.0759-5.4324-.0255-2.4346.0678-3.0792.7657-3.0876,3.1588q-.0078,2.2318,0,4.4638c.0084,2.3974.65,3.0991,3.0793,3.1675,1.8086.051,3.6207-.022,5.4312-.04a20.2213,20.2213,0,0,1,4.0393-.2836q10.9737.0212,21.9476.0043c2.3611-.002,2.7906-.44,2.8153-2.8476q.0231-2.2335,0-4.4674c-.0245-2.3552-.7384-3.1521-3.1571-3.1594C168.4085,151.0768,159.8632,151.1164,151.318,151.1313Zm9.9349-6.2587c4.2686,0,8.5373.0162,12.8058-.0066,2.2779-.0121,3.3738-.9426,3.4162-2.7987.0429-1.8738-1.193-3.01-3.4677-3.0166q-12.6117-.038-25.2236.0032c-2.2077.0084-3.5544,1.2678-3.4956,3.07.0558,1.7094,1.3384,2.7316,3.5471,2.7428C152.9743,144.8876,157.1136,144.8726,161.2529,144.8726Zm.2315-23.7613c-4.1459,0-8.2918-.01-12.4377.0037-2.4467.0078-3.586.8984-3.6409,2.79-.057,1.9663,1.1723,3.0272,3.6394,3.0321q12.4376.0249,24.8753-.001c2.2946-.0051,3.5649-1.095,3.56-2.9332-.0046-1.8722-1.2183-2.8787-3.559-2.8876C169.7762,121.1,165.63,121.1112,161.4844,121.1113Zm-.129,14.7944c4.1456,0,8.2913.0083,12.4369-.0032,2.48-.0069,3.7154-1.0124,3.6864-2.9547-.0274-1.8336-1.2835-2.8642-3.6239-2.8686q-12.437-.0237-24.8739.0012c-2.3569.0053-3.5738,1.0332-3.5839,2.9009-.01,1.9146,1.1584,2.9084,3.5215,2.9188C153.064,135.9185,157.21,135.9052,161.3554,135.9057Z"/><path class="ac60c276-7daa-4e0b-ba70-652b715e76c8" d="M137.3843,116.1362q-.0129,23.2557-.0557,46.5113a13.99,13.99,0,0,0,.8147,3.1445c-2.0021.0324-4.005.0441-6.0064.1036-1.6391.0488-2.32-.8669-2.4858-2.3461a6.9873,6.9873,0,0,1-.0128-.7758q.0017-35.323.006-70.6462c0-.2582.0307-.5163.0472-.7735a39.2626,39.2626,0,0,0,7.707-.0225.7831.7831,0,0,0-.0326.2266q.004,2.3157.008,4.6317a3.042,3.042,0,0,0-1.6043,3.03c.0734,4.7086.0547,9.4193.0107,14.1286A2.6114,2.6114,0,0,0,137.3843,116.1362Z"/><path class="e3d82be0-2727-4829-8c6c-32f1256e68d9" d="M192.9721,91.3055q-25.78.0062-51.56.0227c-1.3491.0016-2.6979.15-4.0467.23a.7855.7855,0,0,1,.0327-.2265c-.0147-1.23-.045-2.46-.0411-3.69.01-3.1725.3052-3.4673,3.381-3.4705q25.5514-.0258,51.1029-.0532c1.0638.2418,1.1952,1.1,1.2019,1.9542C193.0569,87.8162,193,89.5609,192.9721,91.3055Z"/><path class="e5d86d1d-3e96-4cf6-864c-05735abe3552" d="M110.1009,87.3357l13.1553-.0819q.0013,12.8666.0026,25.7331-6.5805-.0418-13.1606-.0834a3.6217,3.6217,0,0,1-.76-2.51q.0485-10.2741,0-20.5484A3.6223,3.6223,0,0,1,110.1009,87.3357Z"/><path class="a194d961-53d2-4967-8dd6-cdaf83362d20" d="M191.8413,84.1177q-25.5514.0268-51.1029.0532c-3.0758.0032-3.3711.298-3.381,3.4705-.0039,1.23.0264,2.46.0411,3.69a39.27,39.27,0,0,1-7.707.0224c-.0233-1.617-.0967-3.2344-.0568-4.8489.0486-1.9673.7972-2.7082,2.7081-2.7088q29.0166-.0084,58.0332.01C190.8786,83.8069,191.423,83.6873,191.8413,84.1177Z"/><path class="f1971a8b-af53-4653-b18c-a1467a477be3" d="M39.7311,50.78c-.72,3.7855-.3046,7.61-.3559,11.4153-.0715,5.3125.0031,10.6269-.0369,15.94a3.7441,3.7441,0,0,0,.7785,2.5136c-2.0022.0092-4.0043.0053-6.006.0318-1.7244.0228-2.6-.6519-2.5881-2.528.0512-8.2025.0128-16.4056.0279-24.6085.004-2.1575.6187-2.7619,2.7558-2.7843C36.1144,50.7408,37.9228,50.7711,39.7311,50.78Z"/><path class="f1b2fd0a-ee62-4b01-ab29-bd768f2a2361" d="M50.737,97.1086c4.9239,0,9.8478-.008,14.7716.0089a12.2416,12.2416,0,0,1,2.1142.2018,2.6241,2.6241,0,0,1,2.4109,2.8111,2.6841,2.6841,0,0,1-2.462,2.7857,14.2039,14.2039,0,0,1-2.3106.1914q-14.48.0186-28.96-.0043a11.41,11.41,0,0,1-2.6864-.2928,2.5426,2.5426,0,0,1-2.0217-2.5354,2.7134,2.7134,0,0,1,1.8855-2.8573,6.0547,6.0547,0,0,1,2.2927-.3146Q43.2541,97.1195,50.737,97.1086Z"/><path class="f1b2fd0a-ee62-4b01-ab29-bd768f2a2361" d="M50.6371,93.51c-5.1125,0-10.2251.0109-15.3376-.0048-2.3865-.0074-3.7705-1.1477-3.7178-2.9953.0506-1.7764,1.381-2.8269,3.6812-2.8292q15.5319-.0156,31.0637,0c2.3726.0022,3.79,1.1611,3.7343,2.9864-.0536,1.76-1.4125,2.831-3.6978,2.8381C61.1212,93.5206,55.8791,93.5094,50.6371,93.51Z"/><path class="f1b2fd0a-ee62-4b01-ab29-bd768f2a2361" d="M50.72,112.556c-5.1128,0-10.2256.0086-15.3384-.0036-2.4327-.0058-3.8-1.0715-3.8035-2.912-.0038-1.8345,1.3709-2.912,3.7956-2.914q15.4355-.0127,30.8709,0c2.4257.0021,3.8174,1.0834,3.82,2.9046s-1.3991,2.9149-3.8126,2.9207C61.0755,112.5645,55.8979,112.5558,50.72,112.556Z"/><path class="f1971a8b-af53-4653-b18c-a1467a477be3" d="M110.1009,87.3357a3.6223,3.6223,0,0,0-.7625,2.5093q.0491,10.2741,0,20.5484a3.6217,3.6217,0,0,0,.76,2.51c-2.1331.0135-4.2672-.0124-6.3983.0552a1.7853,1.7853,0,0,1-2.0736-1.9823q-.0546-10.8606.0006-21.7215a1.7826,1.7826,0,0,1,2.0762-1.9775C105.8339,87.3488,107.9681,87.3212,110.1009,87.3357Z"/><path class="f1b2fd0a-ee62-4b01-ab29-bd768f2a2361" d="M84.4321,103.1156c-2.2638,0-4.5279.0165-6.7914-.01a11.9017,11.9017,0,0,1-2.1112-.2134,2.6139,2.6139,0,0,1-2.35-2.8458,2.6829,2.6829,0,0,1,2.4491-2.7857,9.7685,9.7685,0,0,1,1.73-.146c4.657-.0113,9.3141-.0186,13.9711.006a9.9125,9.9125,0,0,1,2.2945.2782,2.5681,2.5681,0,0,1,2.0963,2.6686,2.6915,2.6915,0,0,1-2.1919,2.8068,14.4393,14.4393,0,0,1-3.857.2354C87.9251,103.1329,86.1785,103.1157,84.4321,103.1156Z"/><path class="f1b2fd0a-ee62-4b01-ab29-bd768f2a2361" d="M84.3933,112.5556c-2.5838,0-5.1679.0247-7.7513-.0074-2.2576-.028-3.523-1.1537-3.4753-3.0061.045-1.7529,1.2938-2.8046,3.45-2.8126q7.7513-.0288,15.5026,0c2.2671.0083,3.606,1.1119,3.6146,2.8933.0086,1.776-1.3474,2.9057-3.59,2.927C89.561,112.5742,86.977,112.5555,84.3933,112.5556Z"/><path class="f1b2fd0a-ee62-4b01-ab29-bd768f2a2361" d="M84.3781,93.509c-2.5274.0005-5.055.0181-7.5823-.0047-2.3358-.0211-3.6089-1.05-3.6317-2.8746-.023-1.8386,1.259-2.9382,3.5478-2.9473q7.7768-.0311,15.5535.0017c2.1218.01,3.4408,1.1423,3.4673,2.8619.0266,1.7262-1.2926,2.9208-3.3835,2.9527C89.6927,93.5392,87.0352,93.5085,84.3781,93.509Z"/><path class="ad3bbcf9-9c76-4e88-a64b-286d4dbdb9ac" d="M144.708,96.2728q19.9194-.02,39.8387-.0514a2.2762,2.2762,0,0,1,2.5364,2.5232q.1016,7.3839.0054,14.77c-.0228,1.8529-.9024,2.5556-2.8772,2.557q-19.92.0141-39.84.012a5.7071,5.7071,0,0,1-.8161-3.3162c.0459-4.3919.0693-8.7854-.0131-13.1761A4.2647,4.2647,0,0,1,144.708,96.2728Z"/><path class="ad3bbcf9-9c76-4e88-a64b-286d4dbdb9ac" d="M151.318,151.1313c8.5452-.0149,17.09-.0545,25.6356-.0289,2.4187.0073,3.1326.8042,3.1571,3.1594q.0233,2.2335,0,4.4674c-.0247,2.4072-.4542,2.8456-2.8153,2.8476q-10.9738.0092-21.9476-.0043a20.1494,20.1494,0,0,0-4.0389.2845A16.8434,16.8434,0,0,1,151.318,151.1313Z"/><path class="f1b2fd0a-ee62-4b01-ab29-bd768f2a2361" d="M161.2529,144.8726c-4.1393,0-8.2786.015-12.4178-.0061-2.2087-.0112-3.4913-1.0334-3.5471-2.7428-.0588-1.802,1.2879-3.0614,3.4956-3.07q12.6115-.0476,25.2236-.0032c2.2747.0069,3.5106,1.1428,3.4677,3.0166-.0424,1.8561-1.1383,2.7866-3.4162,2.7987C169.79,144.8888,165.5215,144.8726,161.2529,144.8726Z"/><path class="f1b2fd0a-ee62-4b01-ab29-bd768f2a2361" d="M161.4844,121.1113c4.1458,0,8.2918-.0114,12.4376.0043,2.3407.0089,3.5544,1.0154,3.559,2.8876.0044,1.8382-1.2659,2.9281-3.56,2.9332q-12.4377.0279-24.8753.001c-2.4671-.0049-3.6964-1.0658-3.6394-3.0321.0549-1.8919,1.1942-2.7825,3.6409-2.79C153.1926,121.1017,157.3385,121.1113,161.4844,121.1113Z"/><path class="f1b2fd0a-ee62-4b01-ab29-bd768f2a2361" d="M161.3554,135.9055c-4.1457,0-8.2914.013-12.4369-.0054-2.3631-.01-3.5318-1.0042-3.5215-2.9188.01-1.8677,1.227-2.8956,3.5839-2.9009q12.4369-.0282,24.8739-.0012c2.34.0044,3.5965,1.035,3.6239,2.8686.029,1.9423-1.2068,2.9478-3.6864,2.9547C169.6467,135.914,165.501,135.9057,161.3554,135.9055Z"/><path class="f1971a8b-af53-4653-b18c-a1467a477be3" d="M144.708,96.2728a4.2647,4.2647,0,0,0-1.1657,3.3184c.0824,4.3907.059,8.7842.0131,13.1761a5.7071,5.7071,0,0,0,.8161,3.3162q-3.4935.026-6.9873.052a2.61,2.61,0,0,1-1.6039-2.7871c.044-4.7093.0627-9.42-.0107-14.1286a3.042,3.042,0,0,1,1.6043-3.03Q141.0411,96.2309,144.708,96.2728Z"/><path class="f1971a8b-af53-4653-b18c-a1467a477be3" d="M151.318,151.1313a16.8434,16.8434,0,0,0-.0091,10.7257c-1.8109.0169-3.623.09-5.4316.0389-2.43-.0684-3.0709-.77-3.0793-3.1675q-.0078-2.2318,0-4.4638c.0084-2.3931.653-3.091,3.0876-3.1588C147.6947,151.0554,149.507,151.1186,151.318,151.1313Z"/></svg>