<svg id="a7dcd021-61d2-493b-88d5-f583c30207ad" data-name="Capa 1" xmlns="http://www.w3.org/2000/svg" viewBox="0 0 200 200"><defs><style>.f3f7d7e4-8f73-4e59-b606-c6f1ce1e0958{fill:#010101;}.b92f9ea6-a512-4bf5-bc1c-ea8f4d105293{fill:#e5e8ec;}.e0706a21-dc7f-43b4-b48d-a2650b58e258{fill:#646c77;}.a22bdc16-007b-428f-becb-3a7451011e71{fill:#cbd0d8;}.ec885bd4-6d88-4074-b148-5fcc2c363fab{fill:#48b592;}.e1ade622-0ed7-4386-9e0a-a7952b87b595{fill:#edcdb2;}.acf5f8c8-66ce-4860-b671-76208c370be1{fill:#69d5f3;}.b7f4693d-109e-4a06-9985-6f55b0d3be3e{fill:#a9b1bc;}.a78a8de3-7a6e-42be-84f1-3754180d2431{fill:#fad56f;}.be0d61f2-16d1-43c2-822e-fe71f11b92d9{fill:#040303;}.e09192ce-0bf9-43cd-8a04-a17425900540{fill:#090a0a;}.a354b3b1-944d-4ab1-9795-4c77ccff5a32{fill:#f9d46f;}.b740b62c-2766-4a6f-b8d4-925f91559c1f{fill:#fe816e;}</style></defs><path class="f3f7d7e4-8f73-4e59-b606-c6f1ce1e0958" d="M140.8106,55.15c2.5823-.5193,5.0054-1.1734,7.5046-1.4517A43.5463,43.5463,0,0,1,196.8336,96.777c.0956,15.4976.054,30.9964.0071,46.4944-.0385,12.71-9.5708,22.1423-22.3178,22.1966-2.5786.011-2.5541.0113-2.5839,2.6792-.0549,4.9039.3848,9.8327-1.4951,14.584-3.153,7.9688-10.8938,13.7-19.438,13.8108-11.2823.1467-22.5677.035-33.8516.0819-1.0477.0043-1.3318-.3138-1.2711-1.3081.0789-1.2921-.0346-2.5956.0377-3.8885.0495-.8859-.2874-1.16-1.1117-1.0617a9.9446,9.9446,0,0,1-1.1663.0077q-41.44,0-82.88.0452c-1.7261.004-2.135-.4135-2.0808-2.1014.134-4.1679.0424-4.1709,4.2432-4.1709,2.3346,0,4.6712-.0564,7.003.0254,1.0531.037,1.2573-.3241,1.2777-1.3079.1029-4.9436.1331-4.943-4.8156-4.943-5.5123,0-11.0248.0193-16.5371-.0045-9.3027-.04-16.02-6.7668-16.0273-16.1043q-.0286-36.7677-.0014-73.5353c.006-9.4786,6.6824-16.16,16.1238-16.2039C22.5,72.0608,22.5,72.0608,22.5,69.5613q0-15.3685.0011-30.737c.0017-4.7641,2.42-7.2208,7.1175-7.2212q52.0432-.0039,104.0865,0c4.6538,0,7.0959,2.4232,7.1034,7.0437C140.8173,44.09,140.8106,49.5323,140.8106,55.15Zm6.5066,93.4757a22.0762,22.0762,0,0,0-5.7025,3.6161,35.854,35.854,0,0,0-12.5218,19.452c5.7437,0,11.3067-.0283,16.8689.0244,1.0838.01,1.089-.5151,1.0851-1.306q-.0316-6.6018-.0054-13.2037c.0115-2.7739-.2444-5.5723.6391-8.2805l.0417-.4729ZM126.3425,62.734h-1.7571q-47.08,0-94.16-.0428c-1.5728-.0028-1.7272.5246-1.7254,1.8589q.0546,40.0728-.0231,80.1455c-.0052,1.8788.5991,2.13,2.25,2.1271q37.8389-.0739,75.6778-.0343c3.1055,0,3.0776,0,3.0759-3.145q-.0133-23.5379-.005-47.0758a39.1119,39.1119,0,0,1,.576-6.5786C112.11,79.0622,117.4379,70.1411,126.3425,62.734Zm14.2846,82.3872c-.8145-.3417-1.2993-.5187-1.7614-.7427-10.0433-4.8681-16.0062-12.7959-16.6073-23.97-.5045-9.3776-.0974-18.8031-.1574-28.2069-.0082-1.2748.4866-1.5221,1.5977-1.4651a34.0479,34.0479,0,0,0,7.7394-.5465A34.9128,34.9128,0,0,0,151.61,78.59c1.2325-1.37,1.9684-1.4884,3.2694-.0407,7.4854,8.3291,16.8136,12.5527,28.0865,12.1788,1.3121-.0435,1.4538.531,1.4494,1.6121-.0375,9.1447-.0085,18.29-.0512,27.4342a24.185,24.185,0,0,1-1.2939,7.4372,28.0691,28.0691,0,0,1-13.45,16.2063c-.6356.3558-1.5411.51-.6187,1.6085a13.1264,13.1264,0,0,1,2.9538,9.6021c-.07,1.1632.0266,2.3357-.0211,3.5011-.0349.8528.3261,1.061,1.1383,1.13a15.7937,15.7937,0,0,0,17.5442-15.9984q.04-23.2512.0079-46.5025a35.2943,35.2943,0,0,0-.99-8.2749A37.248,37.248,0,0,0,148.7657,59.95c-17.6877,1.9658-32.3292,17.1618-32.7435,34.76-.3907,16.5942-.163,33.2049-.0694,49.8076.0342,6.0505,4.4428,11.7114,10.1621,13.6819.8153.2809,1.5663.6422,2.1937-.3674A43.5035,43.5035,0,0,1,140.6271,145.1212ZM70.1825,171.6934q25.3851,0,50.77.0234c1.2134.0024,1.8447-.1988,2.072-1.5727a21.0958,21.0958,0,0,1,1.4059-4.4249c.4165-1.0227.1114-1.3938-.8351-1.7606a20.7448,20.7448,0,0,1-10.9481-9.4456,2.6207,2.6207,0,0,0-2.7086-1.5226q-35.4027.0517-70.8056.0252c-9.1425,0-18.2852.0321-27.4272-.0346-1.3759-.01-1.7661.3438-1.6911,1.707.1209,2.1978.0308,4.407.0328,6.6114.0059,6.6014,3.77,10.3914,10.3375,10.3928Q45.2839,171.6977,70.1825,171.6934Zm11.26-115.187q25.6659,0,51.3318.031c1.39.0039,1.8824-.2441,1.85-1.7693-.1091-5.1174-.0833-10.2393-.0119-15.3581.0177-1.2691-.3328-1.61-1.6061-1.6084q-51.332.0522-102.6638-.0066c-1.453-.0019-1.6594.501-1.642,1.772.0685,4.9893.1012,9.9817-.0139,14.9692-.0375,1.62.386,2.0166,2.0075,2.01C47.61,56.4814,64.526,56.5064,81.4422,56.5064Zm96.7287,53.6283c0-4.48-.0377-8.1746.0241-11.8673.0175-1.0467-.2727-1.4748-1.3479-1.5839a39.4043,39.4043,0,0,1-22.6618-10.0674c-.64-.5684-1.0519-.7212-1.7673-.0816a39.5161,39.5161,0,0,1-22.8223,10.1668c-.9615.0981-1.2754.4565-1.2677,1.4554.0561,7.2573-.2616,14.5319.1346,21.7684.4979,9.0913,5.3229,15.4634,13.6817,19.0754,5.1254,2.2148,10.5774,1.7338,15.9148,1.4519A21.658,21.658,0,0,0,177.4,124.4348C178.7106,119.45,177.9115,114.3761,178.1709,110.1347ZM22.5,112.6426v-1.1674c0-10.5065.01-21.013-.0269-31.5194-.0019-.5622.5559-1.4239-.6761-1.6719-5.8964-1.187-11.7035,3.2335-11.723,9.2-.0633,19.3265-.0144,38.6535-.0527,57.98-.0023,1.1786.4271,1.3645,1.4558,1.3447,3.0473-.0585,6.1-.1034,9.1436.0143,1.4968.058,1.93-.3278,1.9189-1.8832C22.4642,134.1747,22.5,123.4085,22.5,112.6426Zm114.8126,77.7293c4.2768,0,8.554.041,12.83-.0086A15.5309,15.5309,0,0,0,165.7,174.7814c.068-7.1267.0339-14.2546.0092-21.3819-.0131-3.7935-2.659-6.5866-6.1694-6.6067-3.607-.0206-6.2575,2.793-6.2722,6.7033-.0176,4.6651.28,9.3528-.0872,13.9889-.3391,4.2857.601,7.7075,4.2357,10.185.21.1433.3546.38.5533.5437.5389.4454.3706.7825-.024,1.2753-3.3147,4.14-3.37,4.1532-7.0548.4728a16.3375,16.3375,0,0,1-1.2271-1.244,2.3346,2.3346,0,0,0-2.0461-.813q-12.0526.0388-24.1053-.008c-1.0859-.0058-1.4328.2768-1.4081,1.39q.1081,4.8571,0,9.718c-.0245,1.11.3158,1.4063,1.4059,1.3927C128.11,190.34,132.7116,190.3728,137.3123,190.3719ZM97.6015,177.9211H51.7385c-4.3407,0-4.2551.0024-4.3733,4.2658-.0454,1.6357.4067,2.0061,2.0151,1.9988,14.9111-.0676,29.8227-.04,44.7341-.04,3.0582,0,3.0326-.0008,3.1218-2.96C97.2671,180.1594,97.46,179.1381,97.6015,177.9211Zm12.0742,6.2263H111.23c4.9507,0,4.9506,0,4.6741-5.0643a2.8446,2.8446,0,0,1-.0012-.3884c.0482-.5874-.2374-.7841-.8013-.78-2.9791.0233-5.966-.1022-8.9348.0778-2.1306.1292-3.0481,2.0276-2.7058,5.1713.2242,2.0593,1.8153.7206,2.73.9245A16.3364,16.3364,0,0,0,109.6757,184.1474Z"/><path class="f3f7d7e4-8f73-4e59-b606-c6f1ce1e0958" d="M171.942,3.584c5.0554-.0009,10.1108-.0192,15.166.004,5.7812.0266,9.722,3.9852,9.7385,9.8018q.0341,11.9568.0008,23.9136c-.0148,5.9166-3.9646,10.032-9.8766,9.7808-3.02-.1283-5.0164.6094-6.2742,3.4056a16.4126,16.4126,0,0,1-2.1629,3.2151,6.9733,6.9733,0,0,1-7.81,2.4433,6.7816,6.7816,0,0,1-4.9362-6.6882c.0906-2.0642-.6015-2.46-2.4527-2.3307-2.3219.1621-4.6644.0739-6.9968.03a9.2807,9.2807,0,0,1-9.2836-9.27q-.0885-12.5394.0024-25.08a9.2439,9.2439,0,0,1,9.33-9.2131C161.5717,3.5436,166.7571,3.5848,171.942,3.584Zm-.0386,6.2267c-4.9247,0-9.8494-.01-14.774.004-2.7744.0079-3.8573,1.0995-3.8612,3.897q-.0159,11.6627,0,23.3254c.0039,2.7983,1.0869,3.89,3.8606,3.9,4.4062.015,8.8131.0442,13.2184-.0223,1.204-.0182,1.71.2079,1.6311,1.5539-.1249,2.1309-.0221,4.2745-.04,6.4125-.0046.566.1117,1.0418.6763,1.2553.6076.23.9732-.1552,1.2766-.606.5417-.8051,1.0665-1.6216,1.6128-2.4235,1.38-2.0257,2.3543-4.7921,4.2712-5.8542,1.8446-1.022,4.6673-.2785,7.06-.3119,2.6573-.0371,3.7778-1.13,3.7829-3.7881q.0225-11.76.0005-23.52c-.0049-2.7516-1.1122-3.8127-3.9418-3.819C181.7527,9.8028,176.8281,9.8107,171.9034,9.8107Z"/><path class="b92f9ea6-a512-4bf5-bc1c-ea8f4d105293" d="M126.3425,62.734c-8.9046,7.4071-14.2327,16.3282-16.09,27.255a39.1119,39.1119,0,0,0-.576,6.5786q.0108,23.538.005,47.0758c.0017,3.145.03,3.145-3.0759,3.145q-37.8388,0-75.6778.0343c-1.651.0032-2.2553-.2483-2.25-2.1271Q28.788,104.6231,28.7,64.55c-.0018-1.3343.1526-1.8617,1.7254-1.8589q47.08.0859,94.16.0428Zm-91.3867,25A18.6783,18.6783,0,1,0,53.5372,68.9616,18.7407,18.7407,0,0,0,34.9558,87.7341Zm53.1229,34.15c-4.7973,0-9.595.0332-14.3917-.025-1.0939-.0133-1.409.2841-1.3972,1.389q.0853,7.9725,0,15.9461c-.0115,1.0984.2934,1.3977,1.3925,1.3928q14.1972-.0641,28.3948,0c1.0927.0048,1.4089-.2833,1.3971-1.3883q-.0854-7.9724,0-15.946c.0116-1.0984-.2922-1.4079-1.3926-1.3937C97.4146,121.9184,92.7464,121.8838,88.0787,121.8838ZM50.3211,128.11H61.405c4.7406,0,4.69,0,4.716-4.6626.007-1.2664-.3221-1.6028-1.5938-1.5937-8.2963.0593-16.5932.03-24.89.03-4.81,0-4.7719,0-4.7121,4.8576.0134,1.0929.2941,1.4078,1.3955,1.3936C40.9868,128.0749,45.6542,128.11,50.3211,128.11Zm.11,12.4526h11.084c4.6086,0,4.5459-.0009,4.6111-4.5777.02-1.3855-.3623-1.6926-1.7086-1.6816-8.2314.067-16.4637.0335-24.6956.0335-4.8521,0-4.801,0-4.8026,4.7724-.0005,1.2228.3293,1.5006,1.5114,1.4826C41.0963,140.52,45.7639,140.5622,50.4308,140.5622ZM90.9855,75.1859l7.7771,0c4.7428,0,4.6938,0,4.7188-4.658.0067-1.2571-.3068-1.6138-1.5883-1.5994-6.2209.07-12.443.0316-18.6646.0316-4.8111,0-4.7739-.0005-4.715,4.8529.0132,1.0856.2806,1.4195,1.39,1.3988C83.5965,75.1431,87.2914,75.1859,90.9855,75.1859Zm.2069,6.2269H83.2209c-4.7372,0-4.6861,0-4.7122,4.6655-.0071,1.2715.33,1.6046,1.5968,1.5908,6.221-.0674,12.443-.0305,18.6647-.0305,4.8071,0,4.7686,0,4.7081-4.8606-.0136-1.0968-.3-1.411-1.3985-1.3906C98.4518,81.4549,94.8217,81.4128,91.1924,81.4128Zm-.2269,18.6784h7.9716c4.5309,0,4.47-.0011,4.5475-4.4431.0245-1.4033-.2569-1.8494-1.7662-1.8247-6.1552.1009-12.313.042-18.47.042-4.8215,0-4.7588,0-4.7473,4.8327.0031,1.3218.5036,1.43,1.5767,1.414C83.7064,100.0573,87.3362,100.0912,90.9655,100.0912Z"/><path class="e0706a21-dc7f-43b4-b48d-a2650b58e258" d="M140.6271,145.1212a43.5035,43.5035,0,0,0-12.3185,12.7105c-.6274,1.01-1.3784.6483-2.1937.3674-5.7193-1.97-10.1279-7.6314-10.1621-13.6819-.0936-16.6027-.3213-33.2134.0694-49.8076.4143-17.5981,15.0558-32.7941,32.7435-34.76a37.248,37.248,0,0,1,40.8687,28.5342,35.2943,35.2943,0,0,1,.99,8.2749q-.004,23.2512-.0079,46.5025A15.7937,15.7937,0,0,1,173.0726,159.26c-.8122-.0687-1.1732-.2769-1.1383-1.13.0477-1.1654-.0487-2.3379.0211-3.5011a13.1264,13.1264,0,0,0-2.9538-9.6021c-.9224-1.0981-.0169-1.2527.6187-1.6085a28.0691,28.0691,0,0,0,13.45-16.2063,24.185,24.185,0,0,0,1.2939-7.4372c.0427-9.1446.0137-18.29.0512-27.4342.0044-1.0811-.1373-1.6556-1.4494-1.6121-11.2729.3739-20.6011-3.85-28.0865-12.1788-1.301-1.4477-2.0369-1.3294-3.2694.0407a34.9128,34.9128,0,0,1-20.1716,11.6,34.0479,34.0479,0,0,1-7.7394.5465c-1.1111-.057-1.6059.19-1.5977,1.4651.06,9.4038-.3471,18.8293.1574,28.2069.6011,11.174,6.564,19.1018,16.6073,23.97C139.3278,144.6025,139.8126,144.78,140.6271,145.1212Z"/><path class="a22bdc16-007b-428f-becb-3a7451011e71" d="M70.1825,171.6934q-24.8987,0-49.7974-.0012c-6.5677-.0014-10.3316-3.7914-10.3375-10.3928-.002-2.2044.0881-4.4136-.0328-6.6114-.075-1.3632.3152-1.717,1.6911-1.707,9.142.0667,18.2847.0346,27.4272.0346q35.4029,0,70.8056-.0252a2.6207,2.6207,0,0,1,2.7086,1.5226,20.7448,20.7448,0,0,0,10.9481,9.4456c.9465.3668,1.2516.7379.8351,1.7606a21.0958,21.0958,0,0,0-1.4059,4.4249c-.2273,1.3739-.8586,1.5751-2.072,1.5727Q95.5677,171.6652,70.1825,171.6934Zm-.8905-12.45a3.1112,3.1112,0,1,0,3.0189,3.1532A3.125,3.125,0,0,0,69.292,159.2435Zm9.2533,2.959a3.1117,3.1117,0,1,0,3.21-2.959A3.1444,3.1444,0,0,0,78.5453,162.2025Zm18.673.1741a3.1109,3.1109,0,1,0-3.0866,3.0879A3.1309,3.1309,0,0,0,97.2183,162.3766Z"/><path class="ec885bd4-6d88-4074-b148-5fcc2c363fab" d="M81.4422,56.5064c-16.9162,0-33.8325-.025-50.7485.04-1.6215.0063-2.045-.39-2.0075-2.01.1151-4.9875.0824-9.98.0139-14.9692-.0174-1.271.189-1.7739,1.642-1.772q51.3318.0665,102.6638.0066c1.2733-.0013,1.6238.3393,1.6061,1.6084-.0714,5.1188-.0972,10.2407.0119,15.3581.0325,1.5252-.46,1.7732-1.85,1.7693Q107.1083,56.466,81.4422,56.5064ZM62.8088,50.281c3.28,0,3.2794,0,3.2794-3.3334,0-2.8929,0-2.8929-2.9475-2.8929-3.2794,0-3.2794,0-3.2793,3.3335C59.8614,50.281,59.8614,50.281,62.8088,50.281Zm-12.2934,0c3.1191,0,3.1191,0,3.1191-3.1074,0-3.1189,0-3.1189-3.1076-3.1189-3.1192,0-3.1192,0-3.1192,3.1074C47.4077,50.281,47.4077,50.281,50.5154,50.281ZM41.1809,47.27c0-3.2154,0-3.2154-3.2036-3.2154-3.0232,0-3.0232,0-3.0232,3.01,0,3.2159,0,3.2159,3.204,3.2159C41.1809,50.281,41.1809,50.281,41.1809,47.27Z"/><path class="e1ade622-0ed7-4386-9e0a-a7952b87b595" d="M178.1709,110.1347c-.2594,4.2414.54,9.3152-.7709,14.3a21.658,21.658,0,0,1-19.3409,16.0176c-5.3374.2819-10.7894.7629-15.9148-1.4519-8.3588-3.612-13.1838-9.9841-13.6817-19.0754-.3962-7.2365-.0785-14.5111-.1346-21.7684-.0077-.9989.3062-1.3573,1.2677-1.4554A39.5161,39.5161,0,0,0,152.418,86.5345c.7154-.64,1.1272-.4868,1.7673.0816a39.4043,39.4043,0,0,0,22.6618,10.0674c1.0752.1091,1.3654.5372,1.3479,1.5839C178.1332,101.96,178.1709,105.6544,178.1709,110.1347Zm-24.7357,5.5231c-4.7913,0-9.5826-.0091-14.3738.0123-.5547.0025-1.2914-.3346-1.3834.7786-.89,10.775,6.77,17.4759,14.8192,17.85a15.8442,15.8442,0,0,0,16.3635-17.6954c-.1182-1.1888-.7856-.9389-1.44-.94Q160.4279,115.648,153.4352,115.6578Zm18.46-6.2255a8.9559,8.9559,0,0,1,1.3564.01c1.8513.2873,1.9441-.5838,1.562-2.0742a9.3389,9.3389,0,0,0-18.021-.7282c-.8294,2.6878-.7554,2.792,1.9821,2.7923.776,0,1.5582-.0618,2.3264.0157.95.0958,1.3995-.1779,1.8-1.15.9677-2.3519,4.2852-2.8313,5.1884-.6338C168.98,109.8321,170.3879,109.3906,171.8952,109.4323Zm-24.9533,0a15.48,15.48,0,0,1,1.9382.0141c1.257.16,1.35-.4548,1.1784-1.4683a9.3633,9.3633,0,0,0-18.1049-1.5681c-.9625,2.8351-.8348,3.0222,2.0619,3.0224.6466,0,1.2955-.0336,1.94.0077a1.7391,1.7391,0,0,0,2.1221-1.2692c.8786-2.2505,4.2066-2.6591,5.0751-.543C144.0335,109.7749,145.4276,109.39,146.9419,109.4322Z"/><path class="acf5f8c8-66ce-4860-b671-76208c370be1" d="M22.5,112.6426c0,10.7659-.0355,21.5321.04,32.2975.0109,1.5554-.4221,1.9412-1.9189,1.8832-3.0439-.1177-6.0963-.0728-9.1436-.0143-1.0287.02-1.4581-.1661-1.4558-1.3447.0383-19.3267-.0106-38.6537.0527-57.98.0195-5.9667,5.8266-10.3872,11.723-9.2,1.232.248.6742,1.11.6761,1.6719.0367,10.5064.0269,21.0129.0269,31.5194Z"/><path class="ec885bd4-6d88-4074-b148-5fcc2c363fab" d="M137.3123,190.3724c-4.6007,0-9.202-.0327-13.802.0248-1.09.0136-1.43-.283-1.4059-1.3927q.1072-4.8571,0-9.718c-.0247-1.1129.3222-1.3955,1.4081-1.39q12.0524.0651,24.1053.008a2.3346,2.3346,0,0,1,2.0461.813,16.3375,16.3375,0,0,0,1.2271,1.244c3.6846,3.68,3.74,3.6668,7.0548-.4728.3946-.4928.5629-.83.024-1.2753-.1987-.1642-.3431-.4-.5533-.5437-3.6347-2.4775-4.5748-5.8993-4.2357-10.185.3668-4.6361.07-9.3238.0872-13.9889.0147-3.91,2.6652-6.7239,6.2722-6.7033,3.51.02,6.1563,2.8132,6.1694,6.6067.0247,7.1273.0588,14.2552-.0092,21.3819a15.5309,15.5309,0,0,1-15.5577,15.5819C145.8663,190.4129,141.5891,190.3719,137.3123,190.3724Z"/><path class="b7f4693d-109e-4a06-9985-6f55b0d3be3e" d="M97.6015,177.9211c-.1414,1.217-.3344,2.2383-.3653,3.2644-.0892,2.9594-.0636,2.96-3.1218,2.96-14.9114,0-29.823-.0276-44.7341.04-1.6084.0073-2.06-.3631-2.0151-1.9988.1182-4.2634.0326-4.2658,4.3733-4.2658h45.863Z"/><path class="ec885bd4-6d88-4074-b148-5fcc2c363fab" d="M147.6818,148.9281c-.8847,2.7079-.6288,5.5063-.64,8.28q-.0275,6.6018.0054,13.2037c.0039.7909-.0013,1.3163-1.0851,1.306-5.5622-.0527-11.1252-.0244-16.8689-.0244a35.854,35.854,0,0,1,12.5218-19.452,22.0762,22.0762,0,0,1,5.7025-3.6161Z"/><path class="e1ade622-0ed7-4386-9e0a-a7952b87b595" d="M109.6757,184.1474a16.3364,16.3364,0,0,1-3.4845-.0588c-.9147-.2039-2.5058,1.1348-2.73-.9245-.3423-3.1437.5752-5.0421,2.7058-5.1713,2.9688-.18,5.9557-.0545,8.9348-.0778.5639-.0044.85.1923.8013.78a2.8446,2.8446,0,0,0,.0012.3884c.2765,5.0643.2766,5.0643-4.6741,5.0643Z"/><path class="a78a8de3-7a6e-42be-84f1-3754180d2431" d="M147.3172,148.6255l.4051-.1706q-.0208.2364-.0411.4731Q147.5,148.777,147.3172,148.6255Z"/><path class="b92f9ea6-a512-4bf5-bc1c-ea8f4d105293" d="M171.9034,9.8107c4.9247,0,9.8493-.0079,14.774.003,2.83.0063,3.9369,1.0674,3.9418,3.819q.021,11.76-.0005,23.52c-.0051,2.6583-1.1256,3.751-3.7829,3.7881-2.3929.0334-5.2156-.71-7.06.3119-1.9169,1.0621-2.8913,3.8285-4.2712,5.8542-.5463.8019-1.0711,1.6184-1.6128,2.4235-.3034.4508-.669.8358-1.2766.606-.5646-.2135-.6809-.6893-.6763-1.2553.0176-2.138-.0852-4.2816.04-6.4125.0789-1.346-.4271-1.5721-1.6311-1.5539-4.4053.0665-8.8122.0373-13.2184.0223-2.7737-.0095-3.8567-1.1014-3.8606-3.9q-.0162-11.6627,0-23.3254c.0039-2.7975,1.0868-3.8891,3.8612-3.897C162.054,9.8006,166.9787,9.8107,171.9034,9.8107Zm-.059,24.9042h7.9716c4.6642,0,4.6158,0,4.6155-4.7628,0-1.2031-.2994-1.5057-1.5-1.4932-6.2211.0651-12.4432.03-18.6649.03-4.948,0-4.9142-.0008-4.8037,4.9575.0225,1.0138.2818,1.3077,1.2992,1.2914C164.4555,34.6791,168.15,34.7149,171.8444,34.7149Zm.1824-18.6783H164.25c-4.8478,0-4.795,0-4.7949,4.78,0,1.2352.3517,1.4846,1.5192,1.4735,6.2211-.0594,12.4431-.028,18.6648-.028,4.9422,0,4.9045.0009,4.7894-4.9751-.0242-1.0458-.3346-1.2854-1.3193-1.2715C179.4155,16.068,175.721,16.0367,172.0268,16.0366Z"/><path class="be0d61f2-16d1-43c2-822e-fe71f11b92d9" d="M34.9558,87.7341A18.6783,18.6783,0,1,1,53.7322,106.316,18.7345,18.7345,0,0,1,34.9558,87.7341ZM53.68,75.19A12.4486,12.4486,0,1,0,66.0811,87.7321,12.4831,12.4831,0,0,0,53.68,75.19Z"/><path d="M88.0787,121.8838c4.6677,0,9.3359.0346,14.0028-.0254,1.1-.0142,1.4042.2953,1.3926,1.3937q-.0839,7.9724,0,15.946c.0118,1.105-.3044,1.3931-1.3971,1.3883q-14.1972-.0632-28.3948,0c-1.0991.0049-1.404-.2944-1.3925-1.3928q.084-7.9725,0-15.9461c-.0118-1.1049.3033-1.4023,1.3972-1.389C78.4837,121.917,83.2814,121.8838,88.0787,121.8838Zm-.1877,12.4523h4.6547c4.8347,0,4.7945.0008,4.7068-4.8679-.02-1.1185-.3583-1.3951-1.4278-1.381-4.2014.0555-8.404.0227-12.6062.0226-4.98,0-4.95-.0015-4.7037,5.0627.0459.9443.3266,1.1976,1.2308,1.1811C82.46,134.304,85.1758,134.3357,87.891,134.3361Z"/><path d="M50.3211,128.11c-4.6669,0-9.3343-.0346-14,.0255-1.1014.0142-1.3821-.3007-1.3955-1.3936-.06-4.8581-.0979-4.8576,4.7121-4.8576,8.2967,0,16.5936.0288,24.89-.03,1.2717-.0091,1.6008.3273,1.5938,1.5937-.0257,4.6623.0246,4.6626-4.716,4.6626Z"/><path d="M50.4308,140.5622c-4.6669,0-9.3345-.0421-14,.0292-1.1821.018-1.5119-.26-1.5114-1.4826.0016-4.7724-.05-4.7724,4.8026-4.7724,8.2319,0,16.4642.0335,24.6956-.0335,1.3463-.011,1.7283.2961,1.7086,1.6816-.0652,4.5768-.0025,4.5777-4.6111,4.5777Z"/><path d="M90.9855,75.1859c-3.6941,0-7.389-.0428-11.0818.026-1.11.0207-1.377-.3132-1.39-1.3988-.0589-4.8534-.0961-4.8529,4.715-4.8529,6.2216,0,12.4437.0383,18.6646-.0316,1.2815-.0144,1.595.3423,1.5883,1.5994-.025,4.6577.024,4.658-4.7188,4.658Z"/><path d="M91.1924,81.4128c3.6293,0,7.2594.0421,10.8874-.0254,1.098-.02,1.3849.2938,1.3985,1.3906.06,4.861.099,4.8606-4.7081,4.8606-6.2217,0-12.4437-.0369-18.6647.0305-1.267.0138-1.6039-.3193-1.5968-1.5908.0261-4.6652-.025-4.6655,4.7122-4.6655Z"/><path d="M90.9655,100.0912c-3.6293,0-7.2591-.0339-10.8876.0209-1.0731.0162-1.5736-.0922-1.5767-1.414-.0115-4.8328-.0742-4.8327,4.7473-4.8327,6.1569,0,12.3147.0589,18.47-.042,1.5093-.0247,1.7907.4214,1.7662,1.8247-.0775,4.442-.0166,4.4431-4.5475,4.4431Z"/><path class="e09192ce-0bf9-43cd-8a04-a17425900540" d="M69.292,159.2435a3.1112,3.1112,0,1,1-3.2,2.9681A3.13,3.13,0,0,1,69.292,159.2435Z"/><path class="e09192ce-0bf9-43cd-8a04-a17425900540" d="M78.5453,162.2025a3.1117,3.1117,0,1,1,2.91,3.2586A3.1262,3.1262,0,0,1,78.5453,162.2025Z"/><path class="e09192ce-0bf9-43cd-8a04-a17425900540" d="M97.2183,162.3766a3.1109,3.1109,0,1,1-3.039-3.1331A3.139,3.139,0,0,1,97.2183,162.3766Z"/><path d="M62.8088,50.281c-2.9474,0-2.9474,0-2.9474-2.8928,0-3.3335,0-3.3335,3.2793-3.3335,2.9475,0,2.9475,0,2.9475,2.8929C66.0882,50.281,66.0883,50.281,62.8088,50.281Z"/><path d="M50.5154,50.281c-3.1077,0-3.1077,0-3.1077-3.1189,0-3.1074,0-3.1074,3.1192-3.1074,3.1076,0,3.1076,0,3.1076,3.1189C53.6345,50.281,53.6345,50.281,50.5154,50.281Z"/><path d="M41.1809,47.27c0,3.0109,0,3.0109-3.0228,3.0109-3.2041,0-3.2041,0-3.204-3.2159,0-3.01,0-3.01,3.0232-3.01C41.1809,44.0547,41.1809,44.0547,41.1809,47.27Z"/><path class="f3f7d7e4-8f73-4e59-b606-c6f1ce1e0958" d="M153.4352,115.6578q6.9927,0,13.9854.0056c.6545.0014,1.3219-.2485,1.44.94a15.8442,15.8442,0,0,1-16.3635,17.6954c-8.0491-.3745-15.7094-7.0754-14.8192-17.85.092-1.1132.8287-.7761,1.3834-.7786C143.8526,115.6487,148.6439,115.6578,153.4352,115.6578Zm-.2124,6.2275c-2.526,0-5.0524.0234-7.5779-.0119-.9643-.0135-1.157.2955-.694,1.1227a9.3214,9.3214,0,0,0,16.5468.1115c.6788-1.1765.0746-1.2467-.8912-1.2338C158.1457,121.9068,155.6841,121.8848,153.2228,121.8853Z"/><path class="be0d61f2-16d1-43c2-822e-fe71f11b92d9" d="M171.896,109.4305c-1.5081-.04-2.9158.4016-3.8069-1.7668-.9032-2.1975-4.2207-1.7181-5.1884.6338-.4.9726-.8492,1.2463-1.8,1.15-.7682-.0775-1.55-.0157-2.3264-.0157-2.7375,0-2.8115-.1045-1.9821-2.7923a9.3389,9.3389,0,0,1,18.021.7282c.3821,1.49.2893,2.3615-1.562,2.0742A9.1852,9.1852,0,0,0,171.896,109.4305Z"/><path class="be0d61f2-16d1-43c2-822e-fe71f11b92d9" d="M146.942,109.4321c-1.5144-.0417-2.9085.3428-3.79-1.8043-.8685-2.1161-4.1965-1.7075-5.0751.543a1.7391,1.7391,0,0,1-2.1221,1.2692c-.644-.0413-1.2929-.0077-1.94-.0077-2.8967,0-3.0244-.1873-2.0619-3.0224a9.3633,9.3633,0,0,1,18.1049,1.5681c.1713,1.0135.0786,1.628-1.1784,1.4683A15.4979,15.4979,0,0,0,146.942,109.4321Z"/><path d="M171.8444,34.7149c-3.6942,0-7.3889-.0358-11.0821.0232-1.0174.0163-1.2767-.2776-1.2992-1.2914-.1105-4.9583-.1443-4.9575,4.8037-4.9575,6.2217,0,12.4438.0348,18.6649-.03,1.2-.0125,1.5.29,1.5,1.4932,0,4.7628.0487,4.7628-4.6155,4.7628Z"/><path d="M172.0268,16.0366c3.6942,0,7.3887.0314,11.0821-.0209.9847-.0139,1.2951.2257,1.3193,1.2715.1151,4.976.1528,4.9751-4.7894,4.9751-6.2217,0-12.4437-.0314-18.6648.028-1.1675.0111-1.5191-.2383-1.5192-1.4735,0-4.78-.0529-4.78,4.7949-4.78Z"/><path class="a354b3b1-944d-4ab1-9795-4c77ccff5a32" d="M53.68,75.19A12.4486,12.4486,0,1,1,41.1862,87.6383,12.4831,12.4831,0,0,1,53.68,75.19Z"/><path class="b740b62c-2766-4a6f-b8d4-925f91559c1f" d="M87.891,134.3359c-2.7152,0-5.431-.0319-8.1454.0177-.9042.0165-1.1849-.2368-1.2308-1.1811-.2459-5.0642-.2766-5.0627,4.7037-5.0627,4.2022,0,8.4048.0329,12.6062-.0226,1.0695-.0141,1.4076.2625,1.4278,1.381.0877,4.8687.1279,4.8679-4.7068,4.8679Q90.2185,134.3361,87.891,134.3359Z"/><path class="b740b62c-2766-4a6f-b8d4-925f91559c1f" d="M153.2228,121.8851c2.4613,0,4.9229.0217,7.3837-.0113.9658-.0129,1.57.0573.8912,1.2338a9.3214,9.3214,0,0,1-16.5468-.1115c-.463-.8272-.27-1.1362.694-1.1227C148.17,121.9087,150.6968,121.8853,153.2228,121.8851Z"/></svg>