<svg id="ad924601-abd5-4cd0-9bbd-5f188d24bb10" data-name="Capa 1" xmlns="http://www.w3.org/2000/svg" viewBox="0 0 200 200"><defs><style>.f7b3bf53-ac66-406d-bf57-a05de3df1a15{fill:#056766;}.a4182552-1f9e-4498-aef5-1a96d4aa162a{fill:#48b592;}.b83781a8-4fc1-41b8-8e32-8390b252fe11{fill:#004849;}.accd7874-7c85-4ef5-a148-ad0fe457a1b2{fill:#fdfefe;}.bf41a2f1-f5d0-4a7c-a721-6e5e86c874af{fill:#feae10;}.b4100acb-2f54-4195-8e3c-b8499b92f74c{fill:#d7e8fa;}.bc572052-decd-4917-a6f5-d59849144a20{fill:#fc9419;}.b46b555e-1b74-432c-b0d0-8a6b3d2a7cd6{fill:#c3dcf3;}.ed0f3d1b-f95a-431a-bdee-39af52d43003{fill:#fdfdfd;}.bad85ea3-2ade-466d-9271-860955c32ecf{fill:#bfd7ee;}.f4bfd6c4-8434-4a73-a778-9d6ea17cfd05{fill:#aec1ec;}.fded985d-c972-488d-b12f-36d20589bcee{fill:#5ec1d7;}</style></defs><path class="f7b3bf53-ac66-406d-bf57-a05de3df1a15" d="M.45,25.6791a3.9288,3.9288,0,0,1,3.2731-1.1958q20.9214.0569,41.843.0208c.7737,0,1.5474-.039,2.3208-.06.516.0217,1.0321.0623,1.5483.0623q54.8367.0045,109.6735,0c.5162,0,1.0323-.0407,1.5485-.0624q5.7091.0313,11.4184.0613c2.9567.0122,3.3763.4219,3.3934,3.3039.02,3.4185.053,6.8368.08,10.2554q-.0125,20.4341-.025,40.8679l-8.7826-.0228q.0138-17.2959.0274-34.592c.0157-2.0706.0407-4.1412.045-6.2118.0071-3.4865.0016-3.4873-3.3939-3.4874q-71.9639,0-143.9276.0023c-.6461,0-1.2922.0377-1.9383.0578-2.1236-.0229-4.25.0087-6.37-.0863C9.5589,34.52,9,35.2892,9.028,36.7963c.0474,2.51.04,5.0212.0553,7.5319-.0169.3226-.0487.6451-.0487.9676q-.0037,37.4474-.0026,74.8947c0,.1941.0036.3881.0008.5821-.0206,1.46.7314,2.1158,2.1554,2.0894,2.0016-.0371,4.0033-.0665,6.005-.0993q3.6892-.0043,7.3786-.0085,48.0819-.0009,96.1637-.0026c.8413,0,1.6825-.0321,2.5238-.0493q.0363,9.4043.0726,18.8087c-6.7231-.0544-13.4467-.2193-20.1684.0853l-22.6266-.0448-7.85.0485c-.6419-.0516-1.2838-.1479-1.9258-.1483q-25.3289-.0123-50.6576-.0008c-.6426,0-1.2853.0834-1.9279.1279-4.7137-.408-9.4365-.1039-14.1546-.1527A5.5392,5.5392,0,0,1,.45,140.3946Zm87.46,101.1c-2.8808-.1215-5.1915,2.2431-5.3507,5.4449-.1271,2.5575,2.6387,5.055,5.3676,5.0607A5.2567,5.2567,0,1,0,87.91,126.78Z"/><path class="a4182552-1f9e-4498-aef5-1a96d4aa162a" d="M18.1756,141.5788c.6426-.0445,1.2853-.1277,1.9279-.1279q25.3289-.0108,50.6576.0008c.642,0,1.2839.0967,1.926.1482q-.0442,7.511-.0889,15.022l-15.75.0725c-2.0622-.0265-4.125-.0956-6.1865-.0669-1.9485.0271-2.67.7447-2.7028,2.709q-.0708,4.2564-.001,8.5146c.031,2.0056.8265,2.7766,2.8624,2.807,1.8684.0279,3.7382-.0347,5.6075-.0575q24.1431.0048,48.2863.0124c6.2056.0044,12.4111.04,18.6166.0621-.0076,1.7416-.0336,3.4835-.0175,5.2249a3.05,3.05,0,0,0,2.4342,3.0714,8.1194,8.1194,0,0,0,2.4893.2337q15.0931.0453,30.1864.0874a70.3318,70.3318,0,0,1-14.1873,8.32,93.0013,93.0013,0,0,1-30.1543,8.3,95.39,95.39,0,0,1-95.457-53.0572A11.2265,11.2265,0,0,1,18.1756,141.5788Z"/><path class="b83781a8-4fc1-41b8-8e32-8390b252fe11" d="M158.4236,179.2925q-15.0931-.0432-30.1864-.0874a8.1194,8.1194,0,0,1-2.4893-.2337,3.05,3.05,0,0,1-2.4342-3.0714c-.0161-1.7414.01-3.4833.0175-5.2247q-.0121-7.0311-.0241-14.0627l.0248-15.1018-.0726-18.8085-.0279-8.7175-.0025-25.733q.0131-3.2769.0262-6.5536c.5065-2.0922,1.8693-2.8307,3.97-2.8165,5.7159.0386,11.4326-.0473,17.149-.0838l22.3683.112,8.7823.0229,21.33-.0455A3.407,3.407,0,0,1,199.55,82.62q-.0174,46.3419-.016,92.6839c-.0011,2.7878-1.2206,3.8277-4.3989,3.8308q-16.7094.0166-33.4189.0111C160.6183,179.147,159.521,179.2414,158.4236,179.2925Zm33.39-94.1768c-.4183-.43-.9627-.3109-1.4653-.3111q-29.0166-.0144-58.0332-.01c-1.9109,0-2.66.7415-2.7081,2.7087-.04,1.6146.0335,3.2319.0567,4.848-.0163.2581-.047.5163-.0471.7744q-.0054,35.3232-.0059,70.6463a6.9613,6.9613,0,0,0,.0127.7757c.1658,1.4793.8468,2.395,2.4858,2.3462,2.0015-.06,4.0043-.0713,6.0065-.1037.3864.028.7727.08,1.1591.0805q25.2528,0,50.5055-.009c2.8675-.0011,3.2164-.3549,3.2172-3.2661q.0052-18.4548-.0006-36.91-.0128-17.1911-.0525-34.382c.0279-1.7446.0849-3.4894.0711-5.2336C193.0091,86.2152,192.8777,85.3575,191.8139,85.1157Z"/><path class="a4182552-1f9e-4498-aef5-1a96d4aa162a" d="M160.6576,24.4442c-.5162.0217-1.0323.0624-1.5485.0624q-54.8367.0045-109.6735,0c-.5162,0-1.0323-.0406-1.5483-.0623A94.7767,94.7767,0,0,1,108.6432,5.9232,94.8614,94.8614,0,0,1,160.4111,24.15,1.5615,1.5615,0,0,1,160.6576,24.4442Z"/><path class="a4182552-1f9e-4498-aef5-1a96d4aa162a" d="M196.8544,78.8873l-21.33.0455q.0129-20.434.0252-40.868A90.5358,90.5358,0,0,1,192.5245,65.233,77.12,77.12,0,0,1,196.8544,78.8873Z"/><path class="accd7874-7c85-4ef5-a148-ad0fe457a1b2" d="M123.2551,81.6982q-.0132,3.2768-.0262,6.5536l-13.1554.0819c-2.1328-.0146-4.267.013-6.3978-.0584A1.7827,1.7827,0,0,0,101.6,90.2528q-.0561,10.8606-.0006,21.7215a1.7853,1.7853,0,0,0,2.0737,1.9823c2.131-.0676,4.2651-.0417,6.3979-.0555l13.1609.0837.0279,8.7175c-.8413.0172-1.6825.0493-2.5238.0493q-48.0817.0039-96.1637.0026-3.6894,0-7.3787.0085a16.222,16.222,0,0,1-.4159-4.4062q.01-36.9732-.0055-73.9465c.7758-.0219,1.5517-.0627,2.3276-.0628q46.5357-.0048,93.0716-.0039Q139.47,44.34,166.77,44.3179q-.0136,17.296-.0274,34.592l-22.3683-.112q-.0147-11.6522-.029-23.3044c-.0037-3.2852-.47-3.7427-3.8541-3.7432q-14.9532-.002-29.9064,0-35.44.0114-70.8807.0271c-1.8083-.0085-3.6167-.0388-5.4247-.02-2.1371.0224-2.7518.6268-2.7557,2.7843-.0152,8.2029.0232,16.406-.028,24.6086-.0117,1.876.8637,2.5508,2.5881,2.5279,2.0017-.0265,4.0039-.0226,6.0058-.0319.8418.0092,1.6837.0263,2.5255.0266Q82.9349,81.6872,123.2551,81.6982ZM50.71,98.1066q-7.4829,0-14.966-.0056a6.055,6.055,0,0,0-2.2927.3146,2.7134,2.7134,0,0,0-1.8855,2.8573,2.5428,2.5428,0,0,0,2.0217,2.5354,11.4007,11.4007,0,0,0,2.6865.2928q14.48.03,28.96.0043a14.215,14.215,0,0,0,2.3106-.1913,2.6841,2.6841,0,0,0,2.462-2.7857,2.6242,2.6242,0,0,0-2.4109-2.8112,12.25,12.25,0,0,0-2.1141-.2018C60.5574,98.0985,55.6335,98.1065,50.71,98.1066Zm-.1-3.5992c5.2419,0,10.484.0111,15.7259-.0052,2.2853-.0071,3.6442-1.0776,3.6978-2.8381.0556-1.8252-1.3617-2.9842-3.7343-2.9864q-15.5318-.0144-31.0636.0005c-2.3.0023-3.6307,1.0528-3.6813,2.8291-.0527,1.8477,1.3313,2.9879,3.7178,2.9953C40.3846,94.5184,45.4972,94.5074,50.61,94.5074Zm.0832,19.0464c5.1775,0,10.3551.0087,15.5326-.0039,2.4134-.0058,3.8156-1.1,3.8125-2.9207s-1.3948-2.9024-3.82-2.9046q-15.4355-.0133-30.8709,0c-2.4247.0019-3.7994,1.0795-3.7955,2.9139.0038,1.8406,1.3707,2.9063,3.8034,2.9121C40.4674,113.5625,45.58,113.5541,50.693,113.5538Zm33.7117-9.44c1.7464,0,3.493.0173,5.2391-.0057a14.4475,14.4475,0,0,0,3.857-.2354,2.6917,2.6917,0,0,0,2.1919-2.8069,2.568,2.568,0,0,0-2.0963-2.6686,9.9064,9.9064,0,0,0-2.2945-.2781c-4.657-.0247-9.3141-.0173-13.9711-.0061a9.7685,9.7685,0,0,0-1.73.146,2.6828,2.6828,0,0,0-2.449,2.7857,2.6138,2.6138,0,0,0,2.35,2.8458,11.9,11.9,0,0,0,2.1111.2135C79.8768,104.13,82.1409,104.1135,84.4047,104.1136Zm-.0388,9.44c2.5838,0,5.1677.0188,7.7513-.0057,2.2421-.0212,3.5981-1.1509,3.59-2.9269-.0085-1.7815-1.3474-2.885-3.6145-2.8934q-7.7513-.0285-15.5027,0c-2.1564.008-3.4051,1.06-3.45,2.8125-.0476,1.8524,1.2177,2.9782,3.4753,3.0062C79.198,113.5782,81.7821,113.5536,84.3659,113.5534Zm-.0151-19.0469c2.657,0,5.3145.0307,7.971-.01,2.091-.0318,3.41-1.2265,3.3835-2.9527-.0265-1.72-1.3455-2.8518-3.4673-2.8619q-7.7766-.0369-15.5535-.0017c-2.2888.0091-3.5707,1.1088-3.5478,2.9473.0228,1.8248,1.2959,2.8536,3.6318,2.8746C79.2957,94.525,81.8233,94.5074,84.3508,94.5065Z"/><path class="bf41a2f1-f5d0-4a7c-a721-6e5e86c874af" d="M166.77,44.3179q-27.2994.0133-54.5987.0254-46.5358.0065-93.0716.0039c-.7759,0-1.5518.0409-2.3276.0628l.0285-.1311c-.0058-2.4391.0254-4.8792-.0368-7.3169a3.1945,3.1945,0,0,1,.7914-2.2832c.6461-.02,1.2922-.0577,1.9383-.0578q71.9637-.0041,143.9276-.0023c3.3955,0,3.401.0009,3.3939,3.4874C166.81,40.1767,166.7853,42.2473,166.77,44.3179Z"/><path class="b4100acb-2f54-4195-8e3c-b8499b92f74c" d="M16.7717,44.41q.0069,36.9732.0055,73.9465a16.222,16.222,0,0,0,.4159,4.4062c-2.0016.0328-4.0033.0622-6.0049.0993-1.424.0264-2.176-.63-2.1554-2.0894.0028-.194-.0008-.388-.0008-.5821q0-37.4473.0026-74.8947c0-.3225.0318-.645.0487-.9675L16.8,44.2789Z"/><path class="f7b3bf53-ac66-406d-bf57-a05de3df1a15" d="M80.5369,141.5515l22.6264.0447q.0394,7.5027.0787,15.0059-11.3367.0555-22.6727.11Z"/><path class="a4182552-1f9e-4498-aef5-1a96d4aa162a" d="M103.2425,156.6017q-.04-7.5029-.0792-15.0055c6.7219-.3045,13.4455-.14,20.1686-.0852q-.0123,7.5506-.0248,15.102Q113.275,156.6076,103.2425,156.6017Z"/><path class="b83781a8-4fc1-41b8-8e32-8390b252fe11" d="M80.5369,141.5515q.0162,7.58.0323,15.1608-3.9856-.045-7.971-.09.0445-7.5111.0889-15.022Z"/><path class="a4182552-1f9e-4498-aef5-1a96d4aa162a" d="M87.91,126.78a5.2567,5.2567,0,1,1,.0169,10.5056c-2.7289-.0057-5.4947-2.5032-5.3676-5.0607C82.7189,129.0226,85.03,126.658,87.91,126.78Z"/><path class="bc572052-decd-4917-a6f5-d59849144a20" d="M16.8,44.2789l-7.7169.0494c-.0155-2.5108-.0079-5.0219-.0553-7.532C9,35.2892,9.5589,34.52,11.1847,34.5925c2.12.095,4.2465.0634,6.37.0863a3.1945,3.1945,0,0,0-.7914,2.2832C16.8256,39.4,16.7944,41.84,16.8,44.2789Z"/><path class="f7b3bf53-ac66-406d-bf57-a05de3df1a15" d="M72.5982,156.6219q3.9853.0453,7.971.09,11.3364-.055,22.6728-.11,10.033.0052,20.0651.0109.012,7.0309.0241,14.0623c-6.2055-.0219-12.411-.0579-18.6166-.0623q-24.1431-.0174-48.2864-.0124a15.0549,15.0549,0,0,1-.786-5.1,35.16,35.16,0,0,0,.0092-4.8494,5.2587,5.2587,0,0,1,1.1973-3.9567Z"/><path class="b83781a8-4fc1-41b8-8e32-8390b252fe11" d="M56.8487,156.6944a5.2587,5.2587,0,0,0-1.1973,3.9567,35.16,35.16,0,0,1-.0092,4.8494,15.0549,15.0549,0,0,0,.786,5.1c-1.8692.0228-3.739.0854-5.6074.0575-2.0359-.03-2.8314-.8014-2.8624-2.807q-.0657-4.2564.001-8.5146c.0326-1.9643.7543-2.6819,2.7028-2.709C52.7237,156.5988,54.7865,156.6679,56.8487,156.6944Z"/><path class="b46b555e-1b74-432c-b0d0-8a6b3d2a7cd6" d="M39.7037,51.7775q35.44-.0138,70.8807-.0271,14.9532-.0048,29.9064,0c3.3839,0,3.85.458,3.8541,3.7432q.0129,11.6523.029,23.3044c-5.7163.0365-11.433.1224-17.1489.0838-2.1006-.0142-3.4634.7243-3.97,2.8165q-40.32-.012-80.64-.0251c-.8418,0-1.6837-.0174-2.5253-.0264a3.7449,3.7449,0,0,1-.7785-2.5137c.04-5.3132-.0346-10.6276.037-15.94C39.3991,59.3872,38.9835,55.563,39.7037,51.7775Z"/><path class="ed0f3d1b-f95a-431a-bdee-39af52d43003" d="M192.9447,92.3035q.0273,17.1909.0525,34.382.0137,18.4549.0006,36.91c-.0008,2.9112-.35,3.265-3.2172,3.2661q-25.2526.01-50.5055.009c-.3864,0-.7727-.0525-1.1592-.08a13.993,13.993,0,0,1-.8147-3.1445q.08-23.2555.0556-46.512,3.4935-.0266,6.9875-.0519,19.92-.0044,39.84-.0122c1.9747-.0014,2.8543-.704,2.8771-2.5569q.0906-7.3842-.0054-14.77a2.2761,2.2761,0,0,0-2.5364-2.5231q-19.9192.0533-39.8386.0514l-7.3341-.0834q-.0041-2.3157-.0082-4.6313c1.3488-.08,2.6977-.2284,4.0467-.23Q167.1649,92.2964,192.9447,92.3035Zm-41.6541,59.8257c-1.8109-.0126-3.6233-.0759-5.4324-.0255-2.4346.0678-3.0792.7657-3.0875,3.1588q-.0078,2.2319,0,4.4639c.0083,2.3974.6495,3.0991,3.0792,3.1675,1.8086.0509,3.6207-.0221,5.4312-.04a20.2286,20.2286,0,0,1,4.0393-.2835q10.9737.021,21.9476.0042c2.3611-.002,2.7906-.44,2.8154-2.8476q.023-2.2335,0-4.4674c-.0245-2.3551-.7384-3.1521-3.1571-3.1593C168.3811,152.0747,159.8358,152.1143,151.2906,152.1292Zm9.9349-6.2587c4.2686,0,8.5373.0163,12.8058-.0065,2.2779-.0122,3.3738-.9426,3.4162-2.7987.0429-1.8739-1.193-3.01-3.4677-3.0166q-12.6117-.0381-25.2236.0032c-2.2077.0083-3.5544,1.2678-3.4955,3.07.0558,1.7093,1.3383,2.7315,3.547,2.7428C152.9469,145.8855,157.0862,145.8705,161.2255,145.8705Zm.2315-23.7613c-4.1459,0-8.2918-.01-12.4376.0037-2.4468.0078-3.586.8984-3.641,2.79-.057,1.9662,1.1723,3.0272,3.6394,3.0321q12.4377.0247,24.8753-.0011c2.2946-.0051,3.5649-1.095,3.56-2.9331-.0046-1.8723-1.2183-2.8787-3.559-2.8876C169.7488,122.0978,165.6029,122.1092,161.457,122.1092Zm-.129,14.7944c4.1457,0,8.2913.0084,12.437-.0031,2.48-.0069,3.7153-1.0125,3.6863-2.9547-.0274-1.8336-1.2835-2.8642-3.6239-2.8687q-12.4368-.0237-24.8738.0012c-2.3569.0053-3.5739,1.0333-3.584,2.9009-.01,1.9147,1.1585,2.9084,3.5215,2.9189C153.0367,136.9164,157.1824,136.9032,161.328,136.9036Z"/><path class="b4100acb-2f54-4195-8e3c-b8499b92f74c" d="M137.357,117.1341q-.013,23.2557-.0558,46.5114a13.993,13.993,0,0,0,.8147,3.1445c-2.0021.0323-4.0049.044-6.0064.1036-1.639.0488-2.32-.8669-2.4858-2.3462a6.9613,6.9613,0,0,1-.0127-.7757q.0015-35.3232.0059-70.6463c0-.2581.0308-.5163.0473-.7735a39.2539,39.2539,0,0,0,7.7069-.0225.7831.7831,0,0,0-.0326.2266q.004,2.3157.008,4.6317a3.0423,3.0423,0,0,0-1.6043,3.03c.0734,4.7086.0547,9.4192.0107,14.1286A2.6112,2.6112,0,0,0,137.357,117.1341Z"/><path class="bf41a2f1-f5d0-4a7c-a721-6e5e86c874af" d="M192.9447,92.3035q-25.78.0061-51.56.0226c-1.349.0016-2.6979.15-4.0467.23a.7845.7845,0,0,1,.0327-.2265c-.0147-1.23-.045-2.46-.0411-3.69.01-3.1725.3052-3.4673,3.381-3.47q25.5514-.0258,51.1029-.0532c1.0638.2418,1.1952,1.0995,1.2019,1.9542C193.03,88.8141,192.9726,90.5589,192.9447,92.3035Z"/><path class="bad85ea3-2ade-466d-9271-860955c32ecf" d="M110.0735,88.3337l13.1554-.0819q.0012,12.8665.0025,25.733-6.5805-.0419-13.1606-.0834a3.621,3.621,0,0,1-.76-2.51q.0483-10.2739,0-20.5483A3.622,3.622,0,0,1,110.0735,88.3337Z"/><path class="bc572052-decd-4917-a6f5-d59849144a20" d="M191.8139,85.1157q-25.5514.0267-51.1029.0532c-3.0758.0031-3.3711.2979-3.381,3.47-.0039,1.23.0264,2.46.0411,3.69a39.2694,39.2694,0,0,1-7.7069.0223c-.0234-1.617-.0968-3.2343-.0569-4.8489.0486-1.9672.7972-2.7082,2.7081-2.7087q29.0166-.0084,58.0332.01C190.8512,84.8048,191.3956,84.6853,191.8139,85.1157Z"/><path class="f4bfd6c4-8434-4a73-a778-9d6ea17cfd05" d="M39.7037,51.7775c-.72,3.7855-.3046,7.61-.3558,11.4153-.0716,5.3126.003,10.627-.037,15.94a3.7449,3.7449,0,0,0,.7785,2.5137c-2.0021.0091-4.0043.0052-6.006.0317-1.7244.0229-2.6-.6519-2.5881-2.5279.0512-8.2026.0128-16.4057.028-24.6086.0039-2.1575.6186-2.7619,2.7557-2.7843C36.087,51.7387,37.8954,51.769,39.7037,51.7775Z"/><path class="fded985d-c972-488d-b12f-36d20589bcee" d="M50.71,98.1065c4.9239,0,9.8478-.008,14.7717.0089a12.25,12.25,0,0,1,2.1141.2018,2.6242,2.6242,0,0,1,2.4109,2.8112,2.6841,2.6841,0,0,1-2.462,2.7857,14.215,14.215,0,0,1-2.3106.1913q-14.48.0186-28.96-.0043a11.4007,11.4007,0,0,1-2.6865-.2928,2.5428,2.5428,0,0,1-2.0217-2.5354,2.7134,2.7134,0,0,1,1.8855-2.8573,6.055,6.055,0,0,1,2.2927-.3146Q43.2267,98.1175,50.71,98.1065Z"/><path class="fded985d-c972-488d-b12f-36d20589bcee" d="M50.61,94.5074c-5.1126,0-10.2252.011-15.3377-.0048-2.3865-.0074-3.7705-1.1476-3.7178-2.9953.0506-1.7763,1.381-2.8268,3.6813-2.8291q15.5318-.0156,31.0636-.0005c2.3726.0022,3.79,1.1612,3.7343,2.9864-.0536,1.76-1.4125,2.831-3.6978,2.8381C61.0938,94.5185,55.8517,94.5074,50.61,94.5074Z"/><path class="fded985d-c972-488d-b12f-36d20589bcee" d="M50.693,113.5539c-5.1128,0-10.2256.0086-15.3384-.0035-2.4327-.0058-3.8-1.0715-3.8034-2.9121-.0039-1.8344,1.3708-2.912,3.7955-2.9139q15.4355-.0127,30.8709,0c2.4257.0022,3.8174,1.0835,3.82,2.9046s-1.3991,2.9149-3.8125,2.9207C61.0481,113.5625,55.8705,113.5538,50.693,113.5539Z"/><path class="f4bfd6c4-8434-4a73-a778-9d6ea17cfd05" d="M110.0735,88.3337a3.622,3.622,0,0,0-.7624,2.5093q.0489,10.2739,0,20.5483a3.621,3.621,0,0,0,.76,2.51c-2.1331.0135-4.2672-.0124-6.3982.0552a1.7853,1.7853,0,0,1-2.0737-1.9823q-.0546-10.86.0006-21.7215a1.7827,1.7827,0,0,1,2.0762-1.9775C105.8065,88.3467,107.9407,88.3191,110.0735,88.3337Z"/><path class="fded985d-c972-488d-b12f-36d20589bcee" d="M84.4047,104.1136c-2.2638,0-4.5279.0164-6.7914-.01a11.9,11.9,0,0,1-2.1111-.2135,2.6138,2.6138,0,0,1-2.35-2.8458,2.6828,2.6828,0,0,1,2.449-2.7857,9.7685,9.7685,0,0,1,1.73-.146c4.657-.0112,9.3141-.0186,13.9711.0061a9.9064,9.9064,0,0,1,2.2945.2781,2.568,2.568,0,0,1,2.0963,2.6686,2.6917,2.6917,0,0,1-2.1919,2.8069,14.4475,14.4475,0,0,1-3.857.2354C87.8977,104.1309,86.1511,104.1136,84.4047,104.1136Z"/><path class="fded985d-c972-488d-b12f-36d20589bcee" d="M84.3659,113.5535c-2.5838,0-5.1679.0247-7.7513-.0073-2.2576-.028-3.5229-1.1538-3.4753-3.0062.0451-1.7529,1.2938-2.8045,3.45-2.8125q7.7513-.0288,15.5027,0c2.2671.0084,3.606,1.1119,3.6145,2.8934.0086,1.776-1.3474,2.9057-3.59,2.9269C89.5336,113.5722,86.95,113.5534,84.3659,113.5535Z"/><path class="fded985d-c972-488d-b12f-36d20589bcee" d="M84.3508,94.5069c-2.5275.0005-5.0551.0181-7.5823-.0047-2.3359-.021-3.609-1.05-3.6318-2.8746-.0229-1.8385,1.259-2.9382,3.5478-2.9473q7.7768-.0311,15.5535.0017c2.1218.01,3.4408,1.1423,3.4673,2.8619.0267,1.7262-1.2925,2.9209-3.3835,2.9527C89.6653,94.5372,87.0078,94.5065,84.3508,94.5069Z"/><path class="b46b555e-1b74-432c-b0d0-8a6b3d2a7cd6" d="M144.6807,97.2708q19.9192-.02,39.8386-.0514a2.2761,2.2761,0,0,1,2.5364,2.5231q.1016,7.3839.0054,14.77c-.0228,1.8529-.9024,2.5555-2.8771,2.5569q-19.92.0143-39.84.0121a5.7075,5.7075,0,0,1-.8161-3.3163c.0459-4.3918.0693-8.7854-.0131-13.1761A4.2643,4.2643,0,0,1,144.6807,97.2708Z"/><path class="b46b555e-1b74-432c-b0d0-8a6b3d2a7cd6" d="M151.2906,152.1292c8.5452-.0149,17.09-.0545,25.6356-.0288,2.4187.0072,3.1326.8042,3.1571,3.1593q.0233,2.2335,0,4.4674c-.0248,2.4072-.4543,2.8456-2.8154,2.8476q-10.9738.0093-21.9476-.0042a20.1567,20.1567,0,0,0-4.0389.2844A16.8434,16.8434,0,0,1,151.2906,152.1292Z"/><path class="fded985d-c972-488d-b12f-36d20589bcee" d="M161.2255,145.8705c-4.1393,0-8.2786.015-12.4178-.006-2.2087-.0113-3.4912-1.0335-3.547-2.7428-.0589-1.802,1.2878-3.0615,3.4955-3.07q12.6117-.0477,25.2236-.0032c2.2747.0068,3.5106,1.1427,3.4677,3.0166-.0424,1.8561-1.1383,2.7865-3.4162,2.7987C169.7628,145.8868,165.4941,145.8705,161.2255,145.8705Z"/><path class="fded985d-c972-488d-b12f-36d20589bcee" d="M161.457,122.1092c4.1459,0,8.2918-.0114,12.4376.0044,2.3407.0089,3.5544,1.0153,3.559,2.8876.0044,1.8381-1.2659,2.928-3.56,2.9331q-12.4375.0279-24.8753.0011c-2.4671-.0049-3.6964-1.0659-3.6394-3.0321.055-1.892,1.1942-2.7826,3.641-2.79C153.1652,122.1,157.3111,122.1092,161.457,122.1092Z"/><path class="fded985d-c972-488d-b12f-36d20589bcee" d="M161.328,136.9034c-4.1456,0-8.2913.013-12.4369-.0053-2.363-.0105-3.5318-1.0042-3.5215-2.9189.01-1.8676,1.2271-2.8956,3.584-2.9009q12.4368-.0282,24.8738-.0012c2.34.0045,3.5965,1.0351,3.6239,2.8687.029,1.9422-1.2067,2.9478-3.6863,2.9547C169.6193,136.912,165.4737,136.9036,161.328,136.9034Z"/><path class="f4bfd6c4-8434-4a73-a778-9d6ea17cfd05" d="M144.6807,97.2708a4.2643,4.2643,0,0,0-1.1658,3.3183c.0824,4.3907.059,8.7843.0131,13.1761a5.7075,5.7075,0,0,0,.8161,3.3163q-3.4935.0258-6.9873.052a2.61,2.61,0,0,1-1.6039-2.7871c.044-4.7094.0627-9.42-.0107-14.1286a3.0423,3.0423,0,0,1,1.6043-3.03Q141.0137,97.229,144.6807,97.2708Z"/><path class="f4bfd6c4-8434-4a73-a778-9d6ea17cfd05" d="M151.2906,152.1292a16.8434,16.8434,0,0,0-.0091,10.7257c-1.8109.0169-3.623.09-5.4316.039-2.43-.0684-3.0709-.77-3.0792-3.1675q-.0078-2.232,0-4.4639c.0083-2.3931.6529-3.091,3.0875-3.1588C147.6673,152.0533,149.48,152.1166,151.2906,152.1292Z"/></svg>