<svg id="b7f98cc7-e405-4d1d-bc8b-53993b0e39e3" data-name="Capa 1" xmlns="http://www.w3.org/2000/svg" viewBox="0 0 200 200"><defs><style>.a2ef61f6-64d1-4aed-90f9-2adf952a4c71{fill:#020201;}.ac676f8a-d229-45db-a6a6-2ec119664d95{fill:#69d5f3;}.ae2384fc-543e-4c0c-8ce4-557ef439235a{fill:#010101;}.e507b9d6-d6d2-4c1a-b56a-a6bdbec1d8fe{fill:#cacfd7;}.fbe15a28-a99e-45e6-815f-28e295806c54{fill:#fad66f;}.b66b0fad-4ee4-4318-9237-43b8857c54af{fill:#fe816e;}.b09a9dbe-35f8-4c94-8c80-e0224c7e4bb6{fill:#f27b68;}.bedfbaf2-15d0-41a6-a0d2-e85c8ea40d2b{fill:#959ea9;}.bf273fe8-e8cf-4aeb-87ce-437595c66a62{fill:#f8d46e;}.bbdedc35-2822-40f4-94b7-abe53691e4e7{fill:#b3dc7f;}</style></defs><path class="a2ef61f6-64d1-4aed-90f9-2adf952a4c71" d="M62.0428,93.709c-2.309-2.3657-4.5788-4.7721-6.9494-7.0742-.7861-.7634-1.047-1.3865-.3829-2.3a7.7166,7.7166,0,0,0,.5677-1.0179c3.0308-5.88,3.0189-5.8747.3476-11.8706a1.9816,1.9816,0,0,0-1.4132-1.16c-1.9812-.6021-3.919-1.3667-5.924-1.8643-1.28-.3177-1.5932-.9353-1.5176-2.16.108-1.75-.0447-3.5157.0523-5.267.0673-1.2172-.214-1.679-1.5543-1.6339-3.2432.1091-6.4936.0857-9.7386.01a2.3281,2.3281,0,0,0-2.5084,1.4657,9.0916,9.0916,0,0,1-11.3459,4.1787,9.3485,9.3485,0,0,1,3.77-18.0859,8.8885,8.8885,0,0,1,7.749,5.0821,1.7931,1.7931,0,0,0,1.9062,1.1617q5.1606-.0965,10.3239,0c1.0925.022,1.4509-.2714,1.3986-1.3892-.091-1.9476.0451-3.9061-.0535-5.853a1.473,1.473,0,0,1,1.294-1.7384c2.05-.5921,4.07-1.29,6.1032-1.9434.4836-.1554,1.03-.19,1.2683-.7668.8666-2.0945,1.75-4.1822,2.6084-6.28.2342-.572-.2259-.9895-.4462-1.4315-.9837-1.9731-1.9774-3.9427-3.0357-5.876a1.1814,1.1814,0,0,1,.2337-1.6738Q62.3341,18.73,69.81,11.1768c.5548-.56,1.0208-.6939,1.6712-.2324a8.029,8.029,0,0,0,1.0335.538c1.9611.9973,3.8877,2.6945,5.8931,2.7939,1.9919.0987,4.0547-1.4328,6.1042-2.2017a2.0117,2.0117,0,0,0,1.304-1.5205c.6121-2.1169,1.3373-4.2008,1.9762-6.31a1.307,1.307,0,0,1,1.4906-1.1014q10.5192.0713,21.0389.0006a1.31,1.31,0,0,1,1.4811,1.1092c.6255,2.0457,1.2879,4.08,1.9513,6.1139.5981,1.8338,6.96,4.4217,8.6819,3.5373,1.8429-.9467,3.7007-1.867,5.5125-2.87a1.3848,1.3848,0,0,1,1.9891.2815q7.3118,7.4406,14.7384,14.7674c.6964.6875.819,1.2309.2724,1.9911-.15.2081-.2108.4822-.3673.6832-2.9918,3.8418-3.362,7.8133-.74,12.0279.4277.6877.7144,1.2428,1.5871,1.4819,2.12.5808,4.1936,1.3326,6.3,1.9667a1.294,1.294,0,0,1,1.0934,1.5023c-.0746,2.0793.024,4.1647-.0451,6.2444-.0316.9509.2733,1.2015,1.2,1.1883,3.5708-.0508,7.1434-.0618,10.7136.0066.9625.0185,1.2982-.422,1.7008-1.17a9.1043,9.1043,0,0,1,10.6412-4.7566,9.3522,9.3522,0,0,1-.6041,18.21,9.1043,9.1043,0,0,1-9.9471-4.7957,2.0572,2.0572,0,0,0-2.2239-1.2857c-3.3108.0539-6.6256.0937-9.9337-.0162-1.3482-.0448-1.6179.4287-1.55,1.6384.0953,1.6862-.0578,3.3872.05,5.0719.0863,1.3513-.24,2.085-1.6988,2.4209-1.9472.4484-3.8116,1.2469-5.7384,1.8015a1.9939,1.9939,0,0,0-1.4842,1.3378c-.6366,1.6975-1.2838,3.3973-2.0577,5.034a1.9529,1.9529,0,0,0,.063,1.9832c1.0154,1.8826,1.9278,3.8227,2.9876,5.6789a1.6005,1.6005,0,0,1-.384,2.3108c-2.3724,2.3-4.6407,4.7074-6.95,7.0731-2.4977,2.45-5.0369,4.8592-7.4688,7.3725a1.5914,1.5914,0,0,1-2.3129.3533c-1.7381-.9993-3.5522-1.8662-5.3378-2.7822-1.7285-.8868-8.0875,1.6866-8.6881,3.5237-.6647,2.0331-1.3279,4.0671-1.9508,6.1132a1.319,1.319,0,0,1-1.4918,1.1077q-10.5107-.0645-21.0217,0a1.32,1.32,0,0,1-1.4933-1.1065c-.6412-2.1085-1.3634-4.1927-1.9827-6.3074a2.0115,2.0115,0,0,0-1.3067-1.5213c-2.0529-.7607-4.1157-2.29-6.1094-2.1917-2.0062.0993-3.9343,1.7909-5.8957,2.7868a5.2235,5.2235,0,0,0-.6807.3746c-.8914.6361-1.5287.4588-2.3105-.35C67.08,98.5681,64.54,96.159,62.0428,93.709Zm47.1089-46.8517V67.5462c0,4.3508.0023,4.2679,4.2624,4.385,1.6113.0443,2.0255-.3589,2.0137-1.9991-.0811-11.2546-.0113-22.51-.0805-33.765-.0091-1.4759.3686-1.8268,1.8132-1.7994q7.5945.144,15.1929-.002c1.4852-.03,1.7863.3793,1.7774,1.8249q-.1041,16.8822-.0012,33.7654c.0029.6373-.7357,1.8863.7811,1.9062,1.053.0139,2.5265.5692,2.7209-1.2438.462-4.3067,3.2388-6.0636,7.1257-6.6671.2517-.039.4836-.2093.7351-.2451.9022-.1284,1.0986-.6688,1.0847-1.51-.0438-2.6667-.016-5.3346-.016-8.002,0-5.0092.02-5.077-4.835-6.51-1.7678-.5217-2.9088-1.2836-3.26-3.2274a19.5071,19.5071,0,0,0-1.3981-4.0367c-.8029-1.8951-2.4158-3.7609-2.3762-5.6111.04-1.8721,1.6148-3.7419,2.63-5.5491a1.4037,1.4037,0,0,0-.3378-2.0067c-2.2366-2.1741-4.419-4.4041-6.6225-6.6124-2.5105-2.5162-2.61-2.68-5.6883-.8035-2.4527,1.4948-4.6,1.9468-7.0094.0657a6.18,6.18,0,0,0-2.82-1.2532c-4.7032-.6364-6.9566-3.5126-7.5788-7.9727-.1523-1.0915-.7623-1.2958-1.75-1.2791-3.1159.0528-6.2333.0194-9.35.0194-3.4684,0-3.6647-.0463-4.4641,3.3568-.6726,2.8631-1.8619,4.792-4.9894,5.1579a9.9639,9.9639,0,0,0-2.7288.9957c-1.8795.834-3.7524,2.4251-5.5989,2.3842-1.8686-.0414-3.7317-1.6244-5.5378-2.6383a1.4054,1.4054,0,0,0-2.0053.3433c-2.3083,2.3783-4.6712,4.7035-7.0133,7.0488-2.0915,2.0944-2.25,2.1923-.6624,4.7658,1.6615,2.6943,2.3446,5.1659.1383,7.8784a5.1778,5.1778,0,0,0-1.0572,2.4893c-.6036,4.7319-3.525,6.9506-7.9576,7.5908-1.0925.1578-1.286.7712-1.2728,1.7563.048,3.5776.1249,7.1608-.0275,10.7325-.0723,1.6929.4767,2.4936,2.09,2.7618,3.6128.6006,6.4351,2.0912,6.7483,6.2749.0093.1237.113.2381.1351.3635.32,1.815,1.7486,1.1739,2.7836,1.1771,1.3909.0042.72-1.1735.7231-1.7648.05-9.1081.0979-18.2173-.0168-27.3242-.0236-1.8749.58-2.1893,2.2547-2.1527,4.8677.1064,9.74.0927,14.6086.0043,1.4609-.0265,1.9555.2762,1.9381,1.87-.0908,8.3266-.0424,16.6548-.0424,24.9824,0,4.432.0019,4.3545,4.3827,4.4589,1.5587.0371,1.8907-.427,1.8852-1.9232-.0561-15.4189-.0074-30.8382-.0751-46.257-.0069-1.5856.4656-1.9,1.9332-1.8738,4.9983.0889,10.0011.1132,14.9979-.0113,1.6291-.04,1.8586.5342,1.8468,1.9615C109.1182,31.503,109.1517,39.18,109.1517,46.8573Zm-9.0923,31.28c-9.9272,0-19.8646.2609-29.777-.1235-4.1882-.1624-6.6095.9583-7.9039,4.9411a2.1017,2.1017,0,0,0,.5337,2.6433c2.1632,2.0589,4.2389,4.21,6.3506,6.3232,2.4993,2.5013,2.615,2.6853,5.5188.8625,2.5775-1.6179,4.8366-2.0065,7.3453-.038a5.7,5.7,0,0,0,2.6555,1.1409c4.7335.61,6.9051,3.5685,7.551,7.99.1606,1.0994.7762,1.2885,1.7577,1.267,2.5942-.057,5.19-.0193,7.7857-.0193,4.9908,0,5.0633.0213,6.4876-4.8436.5212-1.78,1.2986-2.8978,3.2229-3.2543a10.1324,10.1324,0,0,0,4-1.4281c3.8493-2.7581,7.5042-2.6257,11.1692.2251.7741.6021,1.3422.3988,1.99-.28,1.7486-1.8315,3.59-3.5741,5.3481-5.3965,1.2089-1.2529,3.2673-2.2787,3.3933-3.819.1224-1.4975-1.3941-3.0894-2.0329-4.7026a2.2239,2.2239,0,0,0-2.5-1.5194C121.99,78.1609,111.0248,78.1379,100.0594,78.1378Zm2.8547-27.9116V32.6869c0-4.5578-.0012-4.4867-4.47-4.5671-1.4763-.0266-1.8045.3836-1.7975,1.8244.0608,12.4721.035,24.9446.035,37.417,0,4.6,0,4.548,4.6647,4.5607,1.287.0035,1.6073-.3654,1.5959-1.6232C102.8819,63.6083,102.9141,56.9171,102.9141,50.2262Zm24.9407,6.2177V45.3423c0-4.7692,0-4.7106-4.6933-4.7248-1.3357-.004-1.5706.4445-1.5637,1.6533.0476,8.31.025,16.62.025,24.93,0,4.8548-.0008,4.8116,4.8884,4.7193,1.1476-.0217,1.3759-.4042,1.3649-1.4531C127.8269,65.7928,127.8547,61.1182,127.8548,56.4439ZM71.7414,59.19v8.1761c0,4.594,0,4.5435,4.6595,4.5554,1.2738.0032,1.6151-.3457,1.6019-1.6141-.0648-6.2288-.0294-12.4586-.0294-18.688,0-4.8669.0007-4.8274-4.8544-4.7468-1.1041.0183-1.4227.3116-1.4025,1.4163C71.783,51.9211,71.7416,55.5557,71.7414,59.19Zm102.9035.2a3.119,3.119,0,1,0-3.1367-3.0446A3.1435,3.1435,0,0,0,174.6449,59.39ZM28.087,56.2246A3.112,3.112,0,1,0,25.0689,59.39,3.1408,3.1408,0,0,0,28.087,56.2246Z"/><path class="ac676f8a-d229-45db-a6a6-2ec119664d95" d="M62.0428,93.709c2.4973,2.45,5.0368,4.8591,7.4675,7.3738.7818.8088,1.4191.9861,2.3105.35a5.2235,5.2235,0,0,1,.6807-.3746c1.9614-.9959,3.89-2.6875,5.8957-2.7868,1.9937-.0986,4.0565,1.431,6.1094,2.1917a2.0115,2.0115,0,0,1,1.3067,1.5213c.6193,2.1147,1.3415,4.1989,1.9827,6.3074a1.32,1.32,0,0,0,1.4933,1.1065q10.5105-.0642,21.0217,0a1.319,1.319,0,0,0,1.4918-1.1077c.6229-2.0461,1.2861-4.08,1.9508-6.1132.6006-1.8371,6.96-4.41,8.6881-3.5237,1.7856.916,3.6,1.7829,5.3378,2.7822a1.5914,1.5914,0,0,0,2.3129-.3533c2.4319-2.5133,4.9711-4.9226,7.4688-7.3725l27.7192.1c-.0045,19.0578-.0369,38.1158.0314,57.1735.0065,1.803-.48,2.192-2.2183,2.19q-63.295-.0759-126.59,0c-1.7371.0021-2.2252-.3854-2.2188-2.1894.0686-19.0577.0363-38.1158.0318-57.1737Zm.3388,53.1481c6.75,0,13.5-.0329,20.25.0294,1.2606.0117,1.6148-.3121,1.609-1.5981q-.0775-17.1673-.0013-34.3352c.0055-1.2661-.3173-1.6138-1.5966-1.6093q-20.25.0718-40.4993.0013c-1.2594-.0043-1.6147.311-1.6089,1.597q.0776,17.1675.0013,34.3353c-.0055,1.2661.3163,1.6228,1.5968,1.61C48.8814,146.8223,55.6317,146.8571,62.3816,146.8571Zm62.351-31.2363H94.7491c-4.3136,0-4.224.0026-4.3488,4.2989-.0483,1.6624.4374,1.9912,2.0249,1.9867q31.054-.0869,62.1086-.0385c4.5272,0,4.4529-.0014,4.54-4.4944.0291-1.4984-.4056-1.7954-1.8269-1.7872C146.4092,115.6493,135.5708,115.6208,124.7326,115.6208Zm.2023,24.9892H94.7567c-4.3208,0-4.2331.0026-4.3556,4.2914-.0471,1.6487.4158,2,2.0166,1.995q31.0541-.089,62.1086-.0392c4.5337,0,4.4615-.0014,4.5466-4.487.0282-1.4835-.3825-1.8044-1.8184-1.7957C146.4817,140.64,135.7082,140.61,124.9349,140.61Zm-6.4369-12.4946H94.7485c-4.3129,0-4.2236.0026-4.3481,4.2982-.0481,1.66.4342,1.994,2.0235,1.9879,16.5465-.0632,33.0934-.039,49.64-.039,4.5265,0,4.4524-.0014,4.5394-4.4937.0289-1.4961-.4021-1.8-1.8256-1.7884C136.0184,128.15,127.2581,128.1154,118.498,128.1154Zm37.2384,6.2471c3.2958,0,3.2958,0,3.2958-3.3336,0-2.9134,0-2.9134-2.9394-2.9135-3.2957,0-3.2957,0-3.2956,3.3337C152.7972,134.3625,152.7972,134.3625,155.7364,134.3625Z"/><path class="ae2384fc-543e-4c0c-8ce4-557ef439235a" d="M177.7862,93.7819c1.5578-.009,3.1249.0838,4.6707-.0576,1.374-.1256,1.5427.4572,1.54,1.6415q-.0533,22.832-.0235,45.6642c0,7.6757.03,15.3517-.03,23.027-.01,1.2624.3013,1.6432,1.5879,1.6037,3.1782-.0976,6.3615-.0442,9.5425-.02.5623.0042,1.4023-.336,1.3694.7881-.1729,5.9094.5705,11.8642-.3642,17.7235a15.1178,15.1178,0,0,1-14.869,12.6757c-9.5427.0955-19.0869.0376-28.63.0379q-66.4156.0026-132.8313-.0024c-7.96-.0011-13.9632-4.289-15.9975-11.3721a18.2954,18.2954,0,0,1-.6069-5.2072c.0259-4.4232.0428-8.8471-.0158-13.27-.0145-1.0935.2791-1.4381,1.3946-1.4113,3.1145.0746,6.2357-.0637,9.3466.0651,1.4754.061,1.7922-.36,1.789-1.8059-.0507-22.6369-.0182-45.2739-.0711-67.9107-.0039-1.667.2556-2.4835,2.138-2.23a32.4258,32.4258,0,0,0,4.0847.06c.0163.7148.0467,1.43.0468,2.1443q.0038,33.9647-.0191,67.9293c-.0015,1.2032.0586,1.8131,1.5909,1.8117q76.3694-.07,152.7389-.01c1.2757.0008,1.611-.3353,1.6-1.6064-.0623-7.0266-.0345-14.054-.0288-21.0812Q177.7582,118.3757,177.7862,93.7819ZM99.81,190.6169h3.311q38.563,0,77.1261-.0074c6.0917-.004,9.9367-3.9161,9.9589-10.029.0088-2.4068-.0662-4.8163.03-7.2192.049-1.23-.361-1.5118-1.54-1.51q-30.2856.0522-60.5712-.0067a2.0988,2.0988,0,0,0-2.185,1.4417c-1.54,3.22-3.1993,6.3834-4.7276,9.6089a2.2284,2.2284,0,0,1-2.3383,1.5069q-19.0864-.0767-38.1734-.0075a2.0943,2.0943,0,0,1-2.2428-1.3448c-1.4633-3.1133-3.1152-6.1384-4.5463-9.2655a2.836,2.836,0,0,0-3.0508-1.9537c-6.815.1082-13.6327.0456-20.4494.0456-13.0491,0-26.0984.0288-39.1472-.0379-1.5557-.0079-2.0049.4212-1.9069,1.9406.13,2.008.0315,4.0308.032,6.0473.0017,7.1726,3.6037,10.7889,10.763,10.79Q59.9809,190.62,99.81,190.6169Zm19.8037-18.6H79.9721c.93,1.8625,1.8213,3.5138,2.5813,5.2235.3758.8455.9608.8931,1.7131.8922q15.5727-.0171,31.1454-.0028c.6729,0,1.2283-.0193,1.5786-.7891C117.7892,175.5862,118.6888,173.8776,119.6136,172.0171Z"/><path class="e507b9d6-d6d2-4c1a-b56a-a6bdbec1d8fe" d="M177.7862,93.7819q-.0245,24.5937-.0478,49.1875c-.0057,7.0272-.0335,14.0546.0288,21.0812.0113,1.2711-.324,1.6072-1.6,1.6064q-76.3695-.05-152.7389.01c-1.5323.0014-1.5924-.6085-1.5909-1.8117q.043-33.9647.0191-67.9293c0-.7148-.03-1.4295-.0468-2.1443l6.3317.0005q-.024,28.983-.0473,57.9659c-.0039,5.4441,2.2088,7.6329,7.71,7.6331q43.0512.0016,86.1024,0,21.4281,0,42.8563-.0071c3.9805-.0048,6.7178-2.4947,6.7217-6.26q.03-29.6661-.0305-59.3323Z"/><path class="ae2384fc-543e-4c0c-8ce4-557ef439235a" d="M171.4545,93.7824q.0237,29.6661.0305,59.3323c-.0039,3.7654-2.7412,6.2553-6.7217,6.26q-21.4281.0258-42.8563.0071-43.0512,0-86.1024,0c-5.5014,0-7.7141-2.189-7.71-7.6331q.0208-28.983.0473-57.9659l6.1742.0277c.0047,19.0581.037,38.1162-.0316,57.1739-.0064,1.804.4817,2.1915,2.2188,2.1894q63.2952-.0757,126.59,0c1.7381.0021,2.2248-.3869,2.2183-2.19-.0683-19.0577-.0359-38.1157-.0314-57.1735Q168.3673,93.7964,171.4545,93.7824Z"/><path class="ae2384fc-543e-4c0c-8ce4-557ef439235a" d="M163.9494,37.53c-4.2849,0-8.57-.03-12.8544.0217-1.029.0124-1.4349-.1628-1.45-1.34-.0643-4.9305-.1112-4.93,4.8582-4.93,7.4012,0,14.8024-.0153,22.2035.0172a2.07,2.07,0,0,0,2.2354-1.2646,9.0122,9.0122,0,0,1,10.4942-4.6675,9.332,9.332,0,0,1-.0936,18.0966,9.0106,9.0106,0,0,1-10.4465-4.773,1.9382,1.9382,0,0,0-2.092-1.1772C172.5194,37.5525,168.2343,37.53,163.9494,37.53ZM187.13,31.2866a3.12,3.12,0,1,0,3.0713,3.111A3.1372,3.1372,0,0,0,187.13,31.2866Z"/><path class="ae2384fc-543e-4c0c-8ce4-557ef439235a" d="M164.0736,75.0127c4.155,0,8.3106-.0395,12.4647.0245a2.3359,2.3359,0,0,0,2.51-1.4664A9.0864,9.0864,0,0,1,190.3863,69.39a9.3519,9.3519,0,0,1-3.7626,18.0922,8.6739,8.6739,0,0,1-7.5472-4.7457,2.4881,2.4881,0,0,0-2.6893-1.4963c-8.31.041-16.62-.0148-24.93.0561-1.41.012-1.8543-.2632-1.8218-1.7722.0971-4.5094.02-4.5111,4.5048-4.5111Zm23.0133,6.2426a3.1194,3.1194,0,1,0-3.1084-3.0731A3.1434,3.1434,0,0,0,187.0869,81.2553Z"/><path class="ae2384fc-543e-4c0c-8ce4-557ef439235a" d="M35.5446,37.53c-4.22,0-8.44.0255-12.66-.018A2.0613,2.0613,0,0,0,20.65,38.779a9.0288,9.0288,0,0,1-10.4991,4.6624,9.3338,9.3338,0,0,1,.1052-18.0983,9.0161,9.0161,0,0,1,10.4451,4.7814,1.9426,1.9426,0,0,0,2.0945,1.1731c8.44-.0278,16.88.0148,25.32-.0471,1.3632-.01,1.8831.19,1.8473,1.746-.1042,4.5315-.02,4.5334-4.4855,4.5334Zm-23.1907-.0057a3.122,3.122,0,1,0-2.96-3.2216A3.1572,3.1572,0,0,0,12.3539,37.5243Z"/><path class="ae2384fc-543e-4c0c-8ce4-557ef439235a" d="M35.5025,81.2611c-4.1551,0-8.311.0438-12.4649-.0269A2.3347,2.3347,0,0,0,20.5408,82.72,9.091,9.091,0,0,1,9.1887,86.8705a9.3446,9.3446,0,0,1,3.6077-18.084,8.8146,8.8146,0,0,1,7.837,4.9328,2.0912,2.0912,0,0,0,2.2047,1.3159c8.44-.0407,16.8805.017,25.32-.06,1.45-.0132,1.8292.326,1.8,1.7945-.09,4.49-.0194,4.4917-4.5218,4.4917Zm-22.9469-.0057a3.1191,3.1191,0,1,0-3.162-3.02A3.1449,3.1449,0,0,0,12.5556,81.2554Z"/><path class="fbe15a28-a99e-45e6-815f-28e295806c54" d="M109.1517,46.8573c0-7.677-.0335-15.3543.03-23.0308.0118-1.4273-.2177-2.002-1.8468-1.9615-4.9968.1245-10,.1-14.9979.0113-1.4676-.026-1.94.2882-1.9332,1.8738.0677,15.4188.019,30.8381.0751,46.257.0055,1.4962-.3265,1.96-1.8852,1.9232-4.3808-.1044-4.3827-.0269-4.3827-4.4589,0-8.3276-.0484-16.6558.0424-24.9824.0174-1.594-.4772-1.8967-1.9381-1.87-4.8684.0884-9.7409.1021-14.6086-.0043-1.675-.0366-2.2783.2778-2.2547,2.1527.1147,9.1069.067,18.2161.0168,27.3242-.0033.5913.6678,1.769-.7231,1.7648-1.035-.0032-2.4634.6379-2.7836-1.1771-.0221-.1254-.1258-.24-.1351-.3635-.3132-4.1837-3.1355-5.6743-6.7483-6.2749-1.6132-.2682-2.1622-1.0689-2.09-2.7618.1524-3.5717.0755-7.1549.0275-10.7325-.0132-.9851.18-1.5985,1.2728-1.7563,4.4326-.64,7.354-2.8589,7.9576-7.5908A5.1778,5.1778,0,0,1,63.3039,38.71c2.2063-2.7125,1.5232-5.1841-.1383-7.8784-1.5871-2.5735-1.4291-2.6714.6624-4.7658,2.3421-2.3453,4.705-4.6705,7.0133-7.0488a1.4054,1.4054,0,0,1,2.0053-.3433c1.8061,1.0139,3.6692,2.5969,5.5378,2.6383,1.8465.0409,3.7194-1.55,5.5989-2.3842a9.9639,9.9639,0,0,1,2.7288-.9957c3.1275-.3659,4.3168-2.2948,4.9894-5.1579.7994-3.4031.9957-3.3568,4.4641-3.3568,3.1168,0,6.2342.0334,9.35-.0194.9875-.0167,1.5975.1876,1.75,1.2791.6222,4.46,2.8756,7.3363,7.5788,7.9727a6.18,6.18,0,0,1,2.82,1.2532c2.4093,1.8811,4.5567,1.4291,7.0094-.0657,3.0784-1.8761,3.1778-1.7127,5.6883.8035,2.2035,2.2083,4.3859,4.4383,6.6225,6.6124a1.4037,1.4037,0,0,1,.3378,2.0067c-1.0153,1.8072-2.59,3.677-2.63,5.5491-.04,1.85,1.5733,3.716,2.3762,5.6111a19.5071,19.5071,0,0,1,1.3981,4.0367c.3511,1.9438,1.4921,2.7057,3.26,3.2274,4.8549,1.4327,4.835,1.5005,4.835,6.51,0,2.6674-.0278,5.3353.016,8.002.0139.8415-.1825,1.3819-1.0847,1.51-.2515.0358-.4834.2061-.7351.2451-3.8869.6035-6.6637,2.36-7.1257,6.6671-.1944,1.813-1.6679,1.2577-2.7209,1.2438-1.5168-.02-.7782-1.2689-.7811-1.9062q-.0769-16.8825.0012-33.7654c.0089-1.4456-.2922-1.855-1.7774-1.8249q-7.594.1539-15.1929.002c-1.4446-.0274-1.8223.3235-1.8132,1.7994.0692,11.2547-.0006,22.51.0805,33.765.0118,1.64-.4024,2.0434-2.0137,1.9991-4.26-.1171-4.2624-.0342-4.2624-4.385Z"/><path class="fbe15a28-a99e-45e6-815f-28e295806c54" d="M100.0594,78.1379c10.9654,0,21.931.023,32.8961-.0313a2.2239,2.2239,0,0,1,2.5,1.5194c.6388,1.6132,2.1553,3.2051,2.0329,4.7026-.126,1.54-2.1844,2.5661-3.3933,3.819-1.7584,1.8224-3.6,3.565-5.3481,5.3965-.6482.679-1.2163.8823-1.99.28-3.665-2.8508-7.32-2.9832-11.1692-.2251a10.1324,10.1324,0,0,1-4,1.4281c-1.9243.3565-2.7017,1.4745-3.2229,3.2543-1.4243,4.8649-1.4968,4.8436-6.4876,4.8436-2.5954,0-5.1915-.0377-7.7857.0193-.9815.0215-1.5971-.1676-1.7577-1.267-.6459-4.4217-2.8175-7.3806-7.551-7.99a5.7,5.7,0,0,1-2.6555-1.1409c-2.5087-1.9685-4.7678-1.58-7.3453.038-2.9038,1.8228-3.0195,1.6388-5.5188-.8625-2.1117-2.1133-4.1874-4.2643-6.3506-6.3232a2.1017,2.1017,0,0,1-.5337-2.6433c1.2944-3.9828,3.7157-5.1035,7.9039-4.9411C80.1948,78.3987,90.1322,78.1378,100.0594,78.1379Z"/><path class="b66b0fad-4ee4-4318-9237-43b8857c54af" d="M102.9141,50.2262c0,6.6909-.0322,13.3821.0286,20.0725.0114,1.2578-.3089,1.6267-1.5959,1.6232-4.6646-.0127-4.6647.04-4.6647-4.5607,0-12.4724.0258-24.9449-.035-37.417-.007-1.4408.3212-1.851,1.7975-1.8244,4.4683.08,4.47.0093,4.47,4.5671Z"/><path class="b66b0fad-4ee4-4318-9237-43b8857c54af" d="M127.8548,56.4439c0,4.6743-.0279,9.3489.0213,14.0228.011,1.0489-.2173,1.4314-1.3649,1.4531-4.8892.0923-4.8884.1355-4.8884-4.7193,0-8.31.0226-16.62-.025-24.93-.0069-1.2088.228-1.6573,1.5637-1.6533,4.6931.0142,4.6933-.0444,4.6933,4.7248Z"/><path class="b66b0fad-4ee4-4318-9237-43b8857c54af" d="M71.7415,59.19c0-3.6339.0415-7.2685-.025-10.9011-.02-1.1047.2984-1.398,1.4025-1.4163,4.8551-.0806,4.8544-.12,4.8544,4.7468,0,6.2294-.0354,12.4592.0294,18.688.0132,1.2684-.3281,1.6173-1.6019,1.6141-4.6594-.0119-4.6595.0386-4.6595-4.5554Q71.7414,63.2776,71.7415,59.19Z"/><path class="b09a9dbe-35f8-4c94-8c80-e0224c7e4bb6" d="M174.6449,59.39a3.1193,3.1193,0,1,1,3.0862-3.0967A3.14,3.14,0,0,1,174.6449,59.39Z"/><path class="b09a9dbe-35f8-4c94-8c80-e0224c7e4bb6" d="M28.087,56.2246a3.1117,3.1117,0,1,1-3.11-3.0723A3.1457,3.1457,0,0,1,28.087,56.2246Z"/><path d="M62.3816,146.8571c-6.75,0-13.5-.0348-20.2495.0307-1.2805.0125-1.6023-.3442-1.5968-1.61q.0738-17.1675-.0013-34.3353c-.0058-1.286.3495-1.6013,1.6089-1.597q20.25.0684,40.4993-.0013c1.2793-.0045,1.6021.3432,1.5966,1.6093q-.0738,17.1675.0013,34.3352c.0058,1.286-.3484,1.61-1.609,1.5981C75.8818,146.8242,69.1315,146.8571,62.3816,146.8571Zm.013-6.2472c4.67,0,9.3406-.0473,14.0092.0309,1.2832.0214,1.6105-.3506,1.6-1.6156q-.0894-10.9169.0017-21.8348c.0113-1.2918-.3622-1.6048-1.6166-1.5978Q62.38,115.67,48.37,115.5909c-1.2811-.0076-1.61.35-1.6,1.6146q.0892,10.9169-.0017,21.8347c-.0113,1.2919.3606,1.6185,1.6169,1.5988C53.0541,140.566,57.7247,140.61,62.3946,140.61Z"/><path d="M124.7326,115.6208c10.8382,0,21.6766.0285,32.5144-.0345,1.4213-.0082,1.856.2888,1.8269,1.7872-.0872,4.493-.0129,4.4944-4.54,4.4944q-31.0543,0-62.1086.0385c-1.5875.0045-2.0732-.3243-2.0249-1.9867.1248-4.2963.0352-4.2989,4.3488-4.2989Z"/><path d="M124.9349,140.61c10.7733,0,21.5468.03,32.32-.0355,1.4359-.0087,1.8466.3122,1.8184,1.7957-.0851,4.4856-.0129,4.487-4.5466,4.487q-31.0543,0-62.1086.0392c-1.6008.0046-2.0637-.3463-2.0166-1.995.1225-4.2888.0348-4.2914,4.3556-4.2914Z"/><path d="M118.498,128.1154c8.76,0,17.52.0349,26.28-.035,1.4235-.0114,1.8545.2923,1.8256,1.7884-.087,4.4923-.0129,4.4937-4.5394,4.4937-16.5468,0-33.0937-.0242-49.64.039-1.5893.0061-2.0716-.3276-2.0235-1.9879.1245-4.2956.0352-4.2982,4.3481-4.2982Z"/><path d="M155.7364,134.3625c-2.9392,0-2.9392,0-2.9392-2.9134,0-3.3337,0-3.3337,3.2956-3.3337,2.9393,0,2.9393,0,2.9394,2.9135C159.0322,134.3626,159.0322,134.3626,155.7364,134.3625Z"/><path class="bedfbaf2-15d0-41a6-a0d2-e85c8ea40d2b" d="M99.81,190.6169q-39.829,0-79.6581-.001c-7.1593-.0006-10.7613-3.6169-10.763-10.79-.0005-2.0165.0977-4.0393-.032-6.0473-.098-1.5194.3512-1.9485,1.9069-1.9406,13.0488.0667,26.0981.0379,39.1472.0379,6.8167,0,13.6344.0626,20.4494-.0456a2.836,2.836,0,0,1,3.0508,1.9537c1.4311,3.1271,3.083,6.1522,4.5463,9.2655A2.0943,2.0943,0,0,0,80.7,184.3948q19.0866-.0563,38.1734.0075a2.2284,2.2284,0,0,0,2.3383-1.5069c1.5283-3.2255,3.1875-6.3887,4.7276-9.6089a2.0988,2.0988,0,0,1,2.185-1.4417q30.2856.0665,60.5712.0067c1.1788-.002,1.5888.28,1.54,1.51-.0958,2.4029-.0208,4.8124-.03,7.2192-.0222,6.1129-3.8672,10.025-9.9589,10.029q-38.5631.0252-77.1261.0074Zm49.7645-6.251c3.222,0,3.2219,0,3.2233-2.2848.0023-3.9637.0023-3.9637-2.3327-3.9649-3.9028-.0019-3.9028-.0019-3.9037,2.3908C146.56,184.3659,146.56,184.3659,149.5744,184.3659Zm12.5448-6.25c-3.0857,0-3.0857,0-3.0875,2.2346-.0034,4.0136-.0034,4.0136,2.2735,4.0151,3.9624.0027,3.9624.0027,3.9628-2.518C165.2686,178.1162,165.2686,178.1162,162.1192,178.1162Zm12.6241,0c-3.2413,0-3.2413,0-3.2413,3.0545,0,3.1952,0,3.1952,3.0924,3.1952,3.144,0,3.144,0,3.144-3.1435C177.7384,178.1163,177.7384,178.1163,174.7433,178.1162Z"/><path class="bf273fe8-e8cf-4aeb-87ce-437595c66a62" d="M119.6136,172.0171c-.9248,1.8605-1.8244,3.5691-2.6231,5.3238-.35.77-.9057.79-1.5786.7891q-15.5727-.0105-31.1454.0028c-.7523.0009-1.3373-.0467-1.7131-.8922-.76-1.71-1.6509-3.361-2.5813-5.2235Z"/><path class="b09a9dbe-35f8-4c94-8c80-e0224c7e4bb6" d="M187.13,31.2866a3.1206,3.1206,0,1,1-3.1518,3.0287A3.1416,3.1416,0,0,1,187.13,31.2866Z"/><path class="b09a9dbe-35f8-4c94-8c80-e0224c7e4bb6" d="M187.0869,81.2553a3.12,3.12,0,1,1,3.1146-3.0683A3.1407,3.1407,0,0,1,187.0869,81.2553Z"/><path class="b09a9dbe-35f8-4c94-8c80-e0224c7e4bb6" d="M12.3539,37.5243a3.1223,3.1223,0,1,1,3.26-2.92A3.1477,3.1477,0,0,1,12.3539,37.5243Z"/><path class="b09a9dbe-35f8-4c94-8c80-e0224c7e4bb6" d="M12.5556,81.2554a3.1193,3.1193,0,1,1,3.0612-3.122A3.1405,3.1405,0,0,1,12.5556,81.2554Z"/><path class="bbdedc35-2822-40f4-94b7-abe53691e4e7" d="M62.3946,140.61c-4.67,0-9.34-.0439-14.0092.0291-1.2563.02-1.6282-.3069-1.6169-1.5988q.0954-10.9167.0017-21.8347c-.01-1.265.3187-1.6222,1.6-1.6146q14.0093.0832,28.0191.0017c1.2544-.007,1.6279.306,1.6166,1.5978q-.0954,10.9168-.0017,21.8348c.01,1.265-.317,1.637-1.6,1.6156C71.7352,140.5626,67.0645,140.61,62.3946,140.61Z"/><path class="ae2384fc-543e-4c0c-8ce4-557ef439235a" d="M149.5744,184.3659c-3.0145,0-3.0145,0-3.0131-3.8589.0009-2.3927.0009-2.3927,3.9037-2.3908,2.335.0012,2.335.0012,2.3327,3.9649C152.7963,184.3659,152.7964,184.3659,149.5744,184.3659Z"/><path class="ae2384fc-543e-4c0c-8ce4-557ef439235a" d="M162.1192,178.1162c3.1494,0,3.1494,0,3.1488,3.7317,0,2.5207,0,2.5207-3.9628,2.518-2.2769-.0015-2.2769-.0015-2.2735-4.0151C159.0335,178.1162,159.0335,178.1162,162.1192,178.1162Z"/><path class="ae2384fc-543e-4c0c-8ce4-557ef439235a" d="M174.7433,178.1162c2.9951,0,2.9951,0,2.9951,3.1062,0,3.1435,0,3.1435-3.144,3.1435-3.0924,0-3.0924,0-3.0924-3.1952C171.502,178.1162,171.502,178.1162,174.7433,178.1162Z"/></svg>