<svg id="b3c14633-a156-465d-a3f2-e861ce048133" data-name="Capa 1" xmlns="http://www.w3.org/2000/svg" viewBox="0 0 200 200"><defs><style>.b09bf1ed-c9ea-417d-b3d4-3f86c58c239f{fill:#6e83b6;}.f5f96166-ab9f-47d2-b374-37cca5f541f1{fill:#466089;}.a62f8b38-7fbb-47fb-9f4a-941510f7df3c{fill:#6f84b7;}.ace6f40e-b50c-4596-aa62-e24ff4c72d1a{fill:#80d5fa;}.e813659e-c256-461a-9f12-31f5386594e7{fill:#46bde7;}.b985459e-5bf8-4000-919c-a2b8133a9e10{fill:#eceef0;}.a7956b66-9921-4faf-a24c-c59a3aad83c7{fill:#d2d2d2;}.ac660b1b-0a33-4b3f-8c0a-a486b98d98c2{fill:#d4d4d4;}.a38f0ca9-8e33-4ce7-a37f-f084f0e80edc{fill:#fbe053;}.b763187e-1b36-406b-bb49-b19f1f5060c9{fill:#fbafaa;}.bd45a300-c786-4af1-adf1-2769aaad1ac8{fill:#97c86a;}</style></defs><path class="b09bf1ed-c9ea-417d-b3d4-3f86c58c239f" d="M18.4109,173.8828c-.02-.6468-.0585-1.2937-.0586-1.9405q-.0042-51.22-.0021-102.44c0-3.6937.8477-4.5289,4.593-4.5289q77.0727-.0006,154.1456,0c3.7426,0,4.5957.84,4.5957,4.5291q.0012,51.22-.0021,102.44c0,.6468-.0382,1.2937-.0586,1.9405-3.7564-.0065-7.5128-.019-11.2692-.0186Q94.3827,173.872,18.4109,173.8828Zm156.2333-10.9193c.0114-.194.0327-.388.0328-.5819q.0054-44.3173.049-88.6346c.0036-1.77-.8082-1.79-2.11-1.7894q-72.5987.0275-145.1973-.0271c-1.7948-.002-2.1137.57-2.1043,2.2053.0664,11.5973.03,23.1951.0365,34.7928q.0139,27.0174.04,54.0349c-.1294,3.9-.1294,3.9,3.7957,3.9H170.8485C174.7736,166.8633,174.7736,166.8633,174.6442,162.9635Z"/><path class="b09bf1ed-c9ea-417d-b3d4-3f86c58c239f" d="M181.7128,177.7452c4.1465.0025,8.2935.0415,12.4391-.0162,1.15-.016,1.6117.2513,1.5612,1.4991-.097,2.3932-.0121,4.7933-.0317,7.19a10.4655,10.4655,0,0,1-10.8244,10.7708q-30.9042.03-61.8084.0078-53.4507,0-106.9013-.0005c-7.5757,0-11.7943-4.2045-11.7975-11.75-.0009-2.0733.0736-4.15-.0275-6.2184-.061-1.2487.41-1.5152,1.5606-1.4992,4.1456.0577,8.2925.0187,12.4389.0162q30.0105.0036,60.021-.0213c1.5858-.0033,2.6606.3153,3.4066,1.8679.7783,1.62,1.9175,3.0621,2.8328,4.621A2.5407,2.5407,0,0,0,87.1,185.559c6.9922-.0583,14.0224-.47,20.9658.1161,5.1943.4382,8.3253-1.3113,10.1536-5.8974.7064-1.7718,1.9339-2.0619,3.6662-2.0577Q151.7993,177.7926,181.7128,177.7452Z"/><path class="b09bf1ed-c9ea-417d-b3d4-3f86c58c239f" d="M73.196,61.0367c-5.5073.0158-11.0148.0032-16.5214.07-1.1389.0139-1.3775-.3947-1.4057-1.4557-.1583-5.9664-.1844-5.9611,5.5085-7.4941,1.8733-.5045,3.7167-1.1481,5.6138-1.5278a3.6776,3.6776,0,0,0,3.094-2.7038,3.537,3.537,0,0,0-.201-3.4027c-1.8062-2.9918-3.4253-6.0962-5.2089-9.1023a1.5557,1.5557,0,0,1,.3-2.3047q4.34-4.18,8.5254-8.5192a1.4692,1.4692,0,0,1,2.15-.2847c3.1287,1.8312,6.3024,3.5854,9.4626,5.3626a4.0875,4.0875,0,0,0,5.6121-2.35c.9543-3.3592,1.9586-6.707,2.7913-10.0966.3305-1.3455.93-1.71,2.2619-1.678,3.8212.092,7.647.0819,11.4688.0035a1.69,1.69,0,0,1,1.984,1.5269c.9243,3.5674,1.955,7.1077,2.9724,10.65.4794,1.6691,3.664,2.976,5.1755,2.1314,3.2213-1.8,6.4563-3.5785,9.6269-5.4647a1.6645,1.6645,0,0,1,2.453.3582c2.6964,2.8,5.4355,5.5635,8.252,8.2422a1.7625,1.7625,0,0,1,.301,2.6259c-1.822,3.0585-3.53,6.1848-5.2755,9.2889-.999,1.7769.23,4.8434,2.1753,5.3968,3.545,1.0084,7.086,2.0341,10.6515,2.965.9928.2592,1.4375.6627,1.3441,1.7112-.1761,1.9769.8175,4.5049-.426,5.7885-1.07,1.1048-3.5708.2837-5.4371.2965-4.0164.0275-8.0334-.0186-12.05-.0345.7476-14.4188-12.2905-27.6683-27.507-27.723C85.5017,33.2582,72.38,46.7127,73.196,61.0367Z"/><path class="f5f96166-ab9f-47d2-b374-37cca5f541f1" d="M181.7128,177.7452q-29.9134.0036-59.8268-.0252c-1.7323-.0042-2.96.2859-3.6662,2.0577-1.8283,4.5861-4.9593,6.3356-10.1536,5.8974-6.9434-.5857-13.9736-.1744-20.9658-.1161a2.5407,2.5407,0,0,1-2.5182-1.3462c-.9153-1.5589-2.0545-3.0014-2.8328-4.621-.746-1.5526-1.8208-1.8712-3.4066-1.8679q-30.01.0614-60.021.0213l.0891-3.8624q75.9719-.01,151.9437-.0185c3.7564,0,7.5128.0121,11.2692.0186Q181.6684,175.814,181.7128,177.7452Z"/><path class="f5f96166-ab9f-47d2-b374-37cca5f541f1" d="M73.196,61.0367c-.8162-14.324,12.3057-27.7785,27.6911-27.7231,15.2165.0547,28.2546,13.3042,27.507,27.723l-9.2922-.03c.6494-9.9282-8.9034-18.336-18.2081-18.3812-9.9-.0481-19.0954,8.8751-18.405,18.381Z"/><path class="a62f8b38-7fbb-47fb-9f4a-941510f7df3c" d="M14.1072,25.2658c-4.5906-1.5065-7.5928-4.3886-7.788-9.4486a9.698,9.698,0,1,1,13.0323,8.9046c-.4769.1772-.9508.3624-1.426.5441Q16.0163,25.2661,14.1072,25.2658Z"/><path class="a62f8b38-7fbb-47fb-9f4a-941510f7df3c" d="M182.1092,25.2658c-4.5908-1.5066-7.593-4.389-7.788-9.4493a9.6989,9.6989,0,1,1,13.0324,8.9053c-.4768.1772-.9508.3624-1.426.5442Z"/><path class="ace6f40e-b50c-4596-aa62-e24ff4c72d1a" d="M14.1072,25.2658q1.9092,0,3.8183,0c.0117,8.1614.0691,16.3234-.0033,24.4842-.0145,1.6344.4572,2.0559,2.0608,2.0373,7.254-.0842,14.51.0137,21.764-.076,1.5995-.02,1.9277.5163,1.93,1.9856.0022,1.4769-.3418,1.9959-1.934,1.9808-8.6145-.0814-17.23-.0561-25.8454-.0187-1.2163.0053-1.8693-.1314-1.8575-1.6337C14.115,44.4393,14.0955,34.8524,14.1072,25.2658Z"/><path class="ace6f40e-b50c-4596-aa62-e24ff4c72d1a" d="M182.1092,25.2658l3.8184,0c.0116,9.5864.0016,19.1732.0606,28.76.0079,1.2857-.3945,1.6454-1.6567,1.6386-8.7446-.0476-17.49-.07-26.2341.0145-1.6452.0158-1.7238-.72-1.7211-1.9816.0027-1.2547.0648-2.0067,1.717-1.9861,7.3834.0918,14.7689.0025,22.1528.0717,1.44.0135,1.872-.3669,1.8616-1.8381C182.0492,41.7187,182.0975,33.4921,182.1092,25.2658Z"/><path class="b09bf1ed-c9ea-417d-b3d4-3f86c58c239f" d="M82.4888,61.0062c-.69-9.5059,8.5046-18.4291,18.405-18.381,9.3047.0452,18.8575,8.453,18.2081,18.3812a8.908,8.908,0,0,0-1.1556.0843c-2.039.41-2.5993-.61-2.794-2.4721-.6038-5.7747-6.0537-11.2071-11.7731-11.9245C94.3855,45.5661,87.87,50.37,86.3446,59.3864,85.8694,62.1954,83.8967,60.775,82.4888,61.0062Z"/><path class="ace6f40e-b50c-4596-aa62-e24ff4c72d1a" d="M25.3905,162.9635q-.02-27.0174-.04-54.0349c-.006-11.5977.03-23.1955-.0365-34.7928-.0094-1.6356.3095-2.2073,2.1043-2.2053q72.5987.08,145.1973.0271c1.3018-.0005,2.1136.019,2.11,1.7894q-.09,44.3171-.049,88.6346c0,.1939-.0214.3879-.0325.5819Q100.0177,162.9637,25.3905,162.9635ZM41.71,92.1966q-.013,29.937-.018,59.874c.0009,2.7731,1.5575,4.2855,4.38,4.2862q53.9453.0139,107.89,0c2.8184-.0007,4.38-1.5164,4.3806-4.2864q.0105-29.937-.0179-59.8739c.0089-2.8482.0241-5.6963.0251-8.5444.0013-3.6507-1.4028-5.0666-5.0238-5.0671q-20.4885-.0033-40.9769-.0009-32.9175,0-65.8349.0017c-3.3533.0006-4.8272,1.4911-4.8288,4.8721C41.684,86.3708,41.701,89.2837,41.71,92.1966Z"/><path class="e813659e-c256-461a-9f12-31f5386594e7" d="M25.3905,162.9635q74.6271,0,149.254,0c.1291,3.9.1291,3.9-3.796,3.9H29.1862C25.2611,166.8633,25.2611,166.8633,25.3905,162.9635Z"/><path class="b985459e-5bf8-4000-919c-a2b8133a9e10" d="M158.3247,92.1966q.0132,29.9368.0179,59.8739c-.0009,2.77-1.5622,4.2857-4.3806,4.2864q-53.9452.0138-107.89,0c-2.8221-.0007-4.3787-1.5131-4.38-4.2862q-.01-29.937.0178-59.874ZM56.0612,124.3606c0,6.155.037,12.31-.0281,18.4647-.0147,1.4.3225,1.9235,1.8286,1.914q14.7714-.093,29.5436-.0054c1.37.0068,1.7636-.4339,1.759-1.7785q-.0634-18.6591.0073-37.3184c.007-1.5258-.5489-1.8192-1.9289-1.8122q-14.6743.0744-29.3491-.0039c-1.4636-.0087-1.8787.4393-1.8624,1.8807C56.1014,111.9206,56.0612,118.1408,56.0612,124.3606Zm64.5563-20.8779q-10.775,0-21.55.007c-.6273.001-1.4927-.2586-1.8016.386a7.1788,7.1788,0,0,0-.1674,4.7282c.2545,1.13,1.5373.676,2.38.6774q20.7735.0346,41.547.0164c3.3325,0,3.3325,0,3.317-3.4041a1.41,1.41,0,0,1,.0011-.194c.2243-1.6715-.4485-2.269-2.1759-2.25C134.9848,103.5283,127.8009,103.4827,120.6175,103.4827Zm-.1844,23.7042q10.8722,0,21.7442-.0072c.6274-.001,1.4908.261,1.8057-.3773a7.1381,7.1381,0,0,0,.1815-4.726c-.2458-1.1371-1.53-.6871-2.3725-.6885q-21.0646-.0339-42.13-.0158c-2.7459,0-2.7459.0024-2.7472,2.8087a4.2289,4.2289,0,0,1-.0036.5819c-.2556,1.8264.44,2.4918,2.36,2.4643C106.3243,127.1259,113.3791,127.1869,120.4331,127.1869Zm.3967,12.0741q-10.8722,0-21.7443.0072c-.6274.001-1.49-.262-1.8073.3736a7.12,7.12,0,0,0-.1876,4.725c.242,1.14,1.5273.6919,2.3694.6932q21.1617.0337,42.3236.0152c2.5537,0,2.5537-.0053,2.5584-2.6085q.0006-.2913,0-.5825c-.0043-2.6168-.0044-2.6214-2.5445-2.6224Q131.3136,139.2579,120.83,139.261Z"/><path class="b09bf1ed-c9ea-417d-b3d4-3f86c58c239f" d="M158.3247,92.1966H41.71c-.0087-2.9129-.0257-5.8258-.0243-8.7386.0016-3.381,1.4755-4.8715,4.8288-4.8721q32.9175-.0049,65.8349-.0017,20.4883,0,40.9769.0009c3.621.0005,5.0251,1.4164,5.0238,5.0671C158.3488,86.5,158.3336,89.3484,158.3247,92.1966ZM61.4035,88.5239a3.3583,3.3583,0,0,0,3.0594-3.18,3.3093,3.3093,0,0,0-3.1386-3.0967,3.22,3.22,0,0,0-3.1328,3.2717A3.2933,3.2933,0,0,0,61.4035,88.5239Zm-7.59-3.1144a2.7808,2.7808,0,0,0-3.02-3.0087,2.9889,2.9889,0,0,0-.041,5.9769A2.78,2.78,0,0,0,53.8131,85.41ZM71.8226,88.35a2.6949,2.6949,0,0,0,2.9607-3.01A2.6631,2.6631,0,0,0,71.9179,82.43a2.961,2.961,0,1,0-.0953,5.92Z"/><path class="a7956b66-9921-4faf-a24c-c59a3aad83c7" d="M56.0612,124.3606c0-6.22.04-12.44-.03-18.659-.0163-1.4414.3988-1.8894,1.8624-1.8807q14.6742.0876,29.3491.0039c1.38-.007,1.9359.2864,1.9289,1.8122q-.0858,18.659-.0073,37.3184c.0046,1.3446-.3888,1.7853-1.759,1.7785q-14.7716-.0744-29.5436.0054c-1.5061.01-1.8433-.5141-1.8286-1.914C56.0982,136.671,56.0612,130.5156,56.0612,124.3606Z"/><path class="ac660b1b-0a33-4b3f-8c0a-a486b98d98c2" d="M120.6175,103.4827c7.1834,0,14.3673.0456,21.55-.0332,1.7274-.0189,2.4.5786,2.1759,2.25a1.41,1.41,0,0,0-.0011.194c.0155,3.404.0155,3.4041-3.317,3.4041q-20.7735,0-41.547-.0164c-.8424-.0014-2.1252.4524-2.38-.6774a7.1788,7.1788,0,0,1,.1674-4.7282c.3089-.6446,1.1743-.385,1.8016-.386Q109.8425,103.4731,120.6175,103.4827Z"/><path class="ac660b1b-0a33-4b3f-8c0a-a486b98d98c2" d="M120.4331,127.1869c-7.054,0-14.1088-.061-21.1613.04-1.92.0275-2.6157-.6379-2.36-2.4643a4.2289,4.2289,0,0,0,.0036-.5819c.0013-2.8063.0013-2.8085,2.7472-2.8087q21.0648-.0012,42.13.0158c.8421.0014,2.1267-.4486,2.3725.6885a7.1381,7.1381,0,0,1-.1815,4.726c-.3149.6383-1.1783.3763-1.8057.3773Q131.3052,127.1965,120.4331,127.1869Z"/><path class="ac660b1b-0a33-4b3f-8c0a-a486b98d98c2" d="M120.83,139.2609q10.4838,0,20.9677.0009c2.54.001,2.54.0056,2.5445,2.6224q.0006.2913,0,.5825c-.0047,2.6032-.0047,2.6082-2.5584,2.6085q-21.1618.0027-42.3236-.0152c-.8421-.0013-2.1274.447-2.3694-.6932a7.12,7.12,0,0,1,.1876-4.725c.3174-.6356,1.18-.3726,1.8073-.3736Q109.9577,139.2513,120.83,139.2609Z"/><path class="a38f0ca9-8e33-4ce7-a37f-f084f0e80edc" d="M61.4035,88.5239a3.2933,3.2933,0,0,1-3.212-3.0051,3.22,3.22,0,0,1,3.1328-3.2717,3.3093,3.3093,0,0,1,3.1386,3.0967A3.3583,3.3583,0,0,1,61.4035,88.5239Z"/><path class="b763187e-1b36-406b-bb49-b19f1f5060c9" d="M53.8131,85.41a2.9906,2.9906,0,1,1-5.9789-.1384,2.75,2.75,0,0,1,2.9591-2.87A2.7808,2.7808,0,0,1,53.8131,85.41Z"/><path class="bd45a300-c786-4af1-adf1-2769aaad1ac8" d="M71.8226,88.35a2.961,2.961,0,1,1,.0953-5.92,2.6631,2.6631,0,0,1,2.8654,2.9107A2.6949,2.6949,0,0,1,71.8226,88.35Z"/></svg>