<svg id="e6132ce6-9f8b-4189-98ff-2d49e1256a17" data-name="Capa 1" xmlns="http://www.w3.org/2000/svg" viewBox="0 0 200 200"><defs><style>.bc43f87c-f90f-459f-91f4-b3a16d87bc6b{fill:#020201;}.e6c72496-61c7-4989-8a0d-09f81fcf9922{fill:#69d5f3;}.ba27842f-414b-4b07-9344-5c7d7b3665ca{fill:#010101;}.a800b90e-b30b-4be8-af3b-1b046719c262{fill:#cacfd7;}.b66a4f72-1290-45c4-94b6-7c9d9fc4a991{fill:#48b592;}.e504f42d-33d4-4bef-bc44-ce3066ae303f{fill:#056766;}.a070a5fd-5d90-4d8d-932a-a9b0f0346e98{fill:#959ea9;}.fbe7c1af-80df-4fbf-ae21-951ee1de71e9{fill:#b3dc7f;}</style></defs><path class="bc43f87c-f90f-459f-91f4-b3a16d87bc6b" d="M62.2011,93.6965c-2.3091-2.3657-4.5788-4.772-6.9494-7.0741-.7862-.7634-1.047-1.3865-.3829-2.3a7.7114,7.7114,0,0,0,.5677-1.018c3.0308-5.88,3.0189-5.8746.3476-11.8705a1.9816,1.9816,0,0,0-1.4132-1.16c-1.9812-.6022-3.919-1.3667-5.924-1.8643-1.28-.3177-1.5932-.9353-1.5176-2.16.108-1.75-.0447-3.5157.0523-5.267.0673-1.2172-.214-1.6791-1.5543-1.634-3.2432.1092-6.4936.0858-9.7386.01A2.328,2.328,0,0,0,33.18,60.8231a9.0914,9.0914,0,0,1-11.3459,4.1786,9.3485,9.3485,0,0,1,3.77-18.0858,8.8883,8.8883,0,0,1,7.749,5.082A1.7932,1.7932,0,0,0,35.26,53.16q5.1606-.0966,10.3239,0c1.0925.0219,1.4508-.2714,1.3986-1.3892-.091-1.9476.0451-3.9061-.0535-5.853a1.473,1.473,0,0,1,1.294-1.7384c2.05-.5921,4.07-1.29,6.1032-1.9434.4836-.1554,1.03-.19,1.2683-.7668.8666-2.0945,1.75-4.1822,2.6084-6.28.2342-.5721-.2259-.9895-.4462-1.4315-.9837-1.9731-1.9774-3.9427-3.0357-5.876a1.1815,1.1815,0,0,1,.2337-1.6739q7.5381-7.4905,15.0139-15.0437c.5548-.56,1.0208-.6938,1.6712-.2323a8.0543,8.0543,0,0,0,1.0335.538c1.9611.9973,3.8877,2.6945,5.8931,2.7939,1.9919.0987,4.0546-1.4328,6.1042-2.2017a2.0122,2.0122,0,0,0,1.304-1.5206c.6121-2.1169,1.3373-4.2007,1.9762-6.31A1.307,1.307,0,0,1,89.441,3.13q10.5192.0713,21.0389.0006A1.31,1.31,0,0,1,111.961,4.24c.6254,2.0457,1.2879,4.08,1.9513,6.1139.5981,1.8337,6.96,4.4217,8.6819,3.5372,1.8429-.9466,3.7007-1.8669,5.5125-2.87a1.3848,1.3848,0,0,1,1.9891.2815q7.3118,7.4406,14.7384,14.7674c.6964.6875.819,1.2309.2724,1.991-.15.2082-.2108.4823-.3673.6833-2.9918,3.8418-3.362,7.8133-.74,12.0279.4278.6877.7145,1.2428,1.5872,1.4819,2.12.5808,4.1936,1.3326,6.3,1.9667a1.294,1.294,0,0,1,1.0934,1.5023c-.0746,2.0793.024,4.1647-.0451,6.2444-.0316.9509.2733,1.2015,1.2,1.1883,3.5707-.0508,7.1434-.0618,10.7136.0066.9625.0185,1.2982-.422,1.7008-1.17A9.1042,9.1042,0,0,1,177.19,47.2349a9.3522,9.3522,0,0,1-.6041,18.21,9.1045,9.1045,0,0,1-9.9471-4.7957,2.0572,2.0572,0,0,0-2.2239-1.2857c-3.3108.0539-6.6256.0937-9.9337-.0162-1.3482-.0449-1.6179.4287-1.55,1.6384.0953,1.6862-.0578,3.3871.05,5.0719.0863,1.3513-.24,2.085-1.6988,2.4209-1.9472.4484-3.8116,1.2468-5.7384,1.8015a1.9939,1.9939,0,0,0-1.4842,1.3378c-.6366,1.6975-1.2839,3.3973-2.0577,5.034a1.9529,1.9529,0,0,0,.063,1.9832c1.0154,1.8826,1.9278,3.8226,2.9876,5.6789a1.6,1.6,0,0,1-.384,2.3107c-2.3724,2.3-4.6407,4.7075-6.95,7.0732-2.4977,2.45-5.0369,4.8592-7.4689,7.3725a1.5912,1.5912,0,0,1-2.3128.3533c-1.7381-.9993-3.5522-1.8663-5.3378-2.7823-1.7285-.8868-8.0875,1.6866-8.6881,3.5238-.6647,2.0331-1.3279,4.0671-1.9508,6.1132a1.319,1.319,0,0,1-1.4918,1.1077q-10.5107-.0645-21.0218,0a1.32,1.32,0,0,1-1.4932-1.1065c-.6412-2.1086-1.3635-4.1927-1.9828-6.3074a2.0111,2.0111,0,0,0-1.3067-1.5213c-2.0528-.7607-4.1156-2.29-6.1093-2.1917-2.0062.0992-3.9343,1.7909-5.8957,2.7867a5.2241,5.2241,0,0,0-.6807.3747c-.8915.6361-1.5287.4588-2.3105-.35C67.2379,98.5557,64.6984,96.1466,62.2011,93.6965ZM109.31,46.8449V67.5338c0,4.3507.0023,4.2679,4.2624,4.385,1.6113.0442,2.0255-.3589,2.0136-1.9991-.081-11.2546-.0112-22.51-.08-33.765-.0091-1.4759.3685-1.8268,1.8132-1.7994q7.5945.144,15.1929-.0021c1.4852-.03,1.7863.3794,1.7774,1.8249q-.1041,16.8824-.0013,33.7655c.0029.6373-.7356,1.8862.7812,1.9062,1.053.0138,2.5265.5692,2.7209-1.2438.4619-4.3067,3.2388-6.0637,7.1257-6.6671.2517-.039.4836-.2093.7351-.2451.9022-.1284,1.0985-.6689,1.0847-1.51-.0438-2.6667-.0161-5.3346-.016-8.002,0-5.0092.02-5.0771-4.835-6.51-1.7678-.5216-2.9088-1.2835-3.26-3.2273a19.513,19.513,0,0,0-1.3981-4.0367c-.8029-1.8952-2.4158-3.7609-2.3763-5.6111.04-1.8721,1.6149-3.7419,2.63-5.5491a1.4037,1.4037,0,0,0-.3378-2.0067c-2.2366-2.1741-4.419-4.4041-6.6225-6.6125-2.5105-2.5162-2.61-2.68-5.6883-.8034-2.4527,1.4948-4.6,1.9467-7.0094.0657a6.1817,6.1817,0,0,0-2.82-1.2533c-4.7032-.6363-6.9566-3.5126-7.5788-7.9727-.1523-1.0914-.7623-1.2957-1.75-1.279-3.1159.0528-6.2333.0194-9.35.0194-3.4684,0-3.6648-.0463-4.4641,3.3568-.6726,2.8631-1.8619,4.792-4.9894,5.1579a9.9645,9.9645,0,0,0-2.7288.9956c-1.8795.8341-3.7524,2.4252-5.5989,2.3842-1.8686-.0414-3.7317-1.6243-5.5378-2.6383A1.4055,1.4055,0,0,0,71,19.0046c-2.3083,2.3783-4.6712,4.7035-7.0133,7.0488-2.0915,2.0944-2.2495,2.1923-.6624,4.7658,1.6615,2.6943,2.3446,5.1659.1383,7.8784a5.177,5.177,0,0,0-1.0572,2.4893c-.6036,4.7319-3.525,6.9506-7.9576,7.5908-1.0925.1578-1.286.7711-1.2728,1.7563.048,3.5776.1249,7.1608-.0275,10.7325-.0723,1.6928.4767,2.4936,2.09,2.7618,3.6129.6,6.4352,2.0912,6.7484,6.2749.0093.1237.113.2381.1351.3635.32,1.815,1.7486,1.1739,2.7836,1.177,1.3909.0043.72-1.1734.7231-1.7648.05-9.108.0979-18.2172-.0168-27.3241-.0236-1.8749.58-2.1893,2.2547-2.1527,4.8677.1063,9.74.0926,14.6085.0043,1.461-.0266,1.9556.2761,1.9382,1.87-.0908,8.3266-.0424,16.6548-.0424,24.9824,0,4.432.0019,4.3545,4.3827,4.4589,1.5587.0371,1.8906-.427,1.8852-1.9232-.0561-15.4189-.0074-30.8382-.0751-46.257-.0069-1.5857.4656-1.9,1.9332-1.8738,4.9983.0888,10.0011.1132,14.9978-.0113,1.6292-.0406,1.8587.5342,1.8469,1.9614C109.2765,31.4905,109.31,39.1678,109.31,46.8449Zm-9.0923,31.28c-9.9273,0-19.8646.2609-29.777-.1235-4.1882-.1624-6.61.9583-7.9039,4.941a2.1017,2.1017,0,0,0,.5337,2.6433c2.1632,2.059,4.2389,4.21,6.3506,6.3233,2.4993,2.5013,2.6149,2.6853,5.5188.8625,2.5774-1.6179,4.8366-2.0066,7.3453-.0381a5.7,5.7,0,0,0,2.6554,1.141c4.7336.61,6.9052,3.5685,7.5511,7.99.1606,1.0994.7762,1.2885,1.7577,1.2669,2.5941-.0569,5.19-.0192,7.7857-.0192,4.9908,0,5.0632.0213,6.4876-4.8436.5211-1.78,1.2986-2.8979,3.2228-3.2544a10.1312,10.1312,0,0,0,4-1.428c3.8492-2.7581,7.5042-2.6257,11.1692.225.7741.6022,1.3422.3989,1.99-.28,1.7485-1.8316,3.59-3.5741,5.348-5.3965,1.209-1.2529,3.2674-2.2787,3.3934-3.819.1224-1.4975-1.3941-3.0894-2.0329-4.7026a2.224,2.224,0,0,0-2.5-1.5194C122.1487,78.1485,111.1831,78.1254,100.2177,78.1254Zm2.8547-27.9116V32.6745c0-4.5578-.0012-4.4867-4.4695-4.5671-1.4763-.0266-1.8045.3836-1.7975,1.8244.0608,12.4721.035,24.9446.035,37.4169,0,4.6,0,4.5481,4.6647,4.5608,1.287.0035,1.6073-.3654,1.5959-1.6232C103.04,63.5959,103.0724,56.9047,103.0724,50.2138Zm24.9407,6.2176V45.33c0-4.7693,0-4.7106-4.6933-4.7248-1.3357-.004-1.5706.4445-1.5637,1.6533.0476,8.31.025,16.62.025,24.93,0,4.8548-.0008,4.8116,4.8884,4.7193,1.1476-.0217,1.3759-.4042,1.3648-1.4532C127.9852,65.78,128.013,61.1058,128.0131,56.4314ZM71.9,59.1772v8.1761c0,4.594,0,4.5434,4.66,4.5553,1.2738.0033,1.6151-.3456,1.6019-1.6141-.0648-6.2287-.0294-12.4585-.0294-18.688,0-4.8668.0007-4.8274-4.8544-4.7467-1.1041.0183-1.4227.3116-1.4025,1.4163C71.9413,51.9087,71.9,55.5433,71.9,59.1772Zm102.9035.2a3.119,3.119,0,1,0-3.1367-3.0447A3.1436,3.1436,0,0,0,174.8032,59.3773ZM28.2452,56.2121a3.1119,3.1119,0,1,0-3.018,3.1652A3.1405,3.1405,0,0,0,28.2452,56.2121Z"/><path class="e6c72496-61c7-4989-8a0d-09f81fcf9922" d="M62.2011,93.6965c2.4973,2.45,5.0368,4.8592,7.4675,7.3739.7818.8088,1.419.9861,2.3105.35a5.2241,5.2241,0,0,1,.6807-.3747c1.9614-.9958,3.8895-2.6875,5.8957-2.7867,1.9937-.0987,4.0565,1.431,6.1093,2.1917a2.0111,2.0111,0,0,1,1.3067,1.5213c.6193,2.1147,1.3416,4.1988,1.9828,6.3074a1.32,1.32,0,0,0,1.4932,1.1065q10.5106-.0642,21.0218,0a1.319,1.319,0,0,0,1.4918-1.1077c.6229-2.0461,1.2861-4.08,1.9508-6.1132.6006-1.8372,6.96-4.4106,8.6881-3.5238,1.7856.916,3.6,1.783,5.3378,2.7823a1.5912,1.5912,0,0,0,2.3128-.3533c2.432-2.5133,4.9712-4.9226,7.4689-7.3725l27.7192.1c-.0045,19.0577-.0369,38.1158.0314,57.1735.0065,1.803-.48,2.192-2.2183,2.19q-63.2952-.0759-126.59,0c-1.7372.0021-2.2253-.3854-2.2188-2.1894.0686-19.0577.0363-38.1158.0318-57.1738Zm.3388,53.1482c6.75,0,13.5-.0329,20.2495.0294,1.2606.0116,1.6148-.3121,1.609-1.5981q-.0775-17.1674-.0013-34.3352c.0055-1.2661-.3173-1.6138-1.5966-1.6093q-20.25.0718-40.4993.0013c-1.26-.0043-1.6147.311-1.6089,1.597q.0775,17.1675.0013,34.3353c-.0055,1.2661.3163,1.6227,1.5968,1.61C49.04,146.81,55.79,146.8447,62.54,146.8447Zm62.351-31.2363H94.9074c-4.3136,0-4.224.0026-4.3488,4.2989-.0483,1.6624.4374,1.9911,2.0249,1.9867q31.054-.087,62.1086-.0385c4.5272,0,4.4529-.0014,4.54-4.4945.0291-1.4983-.4056-1.7954-1.8269-1.7871C146.5675,115.6369,135.7291,115.6084,124.8909,115.6084Zm.2023,24.9892H94.915c-4.3208,0-4.2332.0025-4.3556,4.2914-.0471,1.6487.4158,2,2.0165,1.995q31.0542-.0889,62.1087-.0393c4.5337,0,4.4615-.0013,4.5466-4.4869.0282-1.4835-.3825-1.8044-1.8184-1.7957C146.64,140.6274,135.8665,140.5976,125.0932,140.5976Zm-6.4369-12.4946H94.9068c-4.3129,0-4.2236.0026-4.3481,4.2982-.0481,1.66.4342,1.994,2.0235,1.9879,16.5465-.0633,33.0934-.039,49.64-.039,4.5264,0,4.4524-.0014,4.5394-4.4937.0289-1.4961-.4021-1.8-1.8256-1.7884C136.1767,128.1379,127.4163,128.103,118.6563,128.103Zm37.2384,6.2471c3.2958,0,3.2958,0,3.2957-3.3336,0-2.9135,0-2.9135-2.9393-2.9135-3.2957,0-3.2957,0-3.2956,3.3337C152.9555,134.35,152.9555,134.35,155.8947,134.35Z"/><path class="ba27842f-414b-4b07-9344-5c7d7b3665ca" d="M177.9445,93.77c1.5578-.009,3.1249.0838,4.6707-.0576,1.374-.1256,1.5427.4571,1.54,1.6415q-.0533,22.832-.0235,45.6641c0,7.6758.03,15.3518-.03,23.0271-.01,1.2624.3013,1.6432,1.5878,1.6037,3.1783-.0976,6.3616-.0443,9.5426-.02.5623.0042,1.4023-.336,1.3694.7881-.1729,5.9094.5705,11.8642-.3642,17.7235a15.1176,15.1176,0,0,1-14.8691,12.6756c-9.5426.0956-19.0868.0376-28.63.038q-66.4156.0025-132.8314-.0024c-7.96-.0012-13.9631-4.289-15.9974-11.3721a18.3,18.3,0,0,1-.607-5.2073c.026-4.4231.0429-8.847-.0157-13.27-.0145-1.0934.2791-1.438,1.3946-1.4113,3.1145.0747,6.2357-.0636,9.3466.0651,1.4754.0611,1.7922-.36,1.789-1.8058-.0507-22.6369-.0182-45.2739-.0711-67.9108-.0039-1.6669.2556-2.4834,2.138-2.23a32.4069,32.4069,0,0,0,4.0847.06c.0163.7147.0467,1.43.0467,2.1443q.0039,33.9646-.019,67.9293c-.0015,1.2031.0586,1.8131,1.5909,1.8117q76.3694-.07,152.7389-.01c1.2757.0008,1.611-.3353,1.6-1.6064-.0623-7.0266-.0345-14.054-.0288-21.0812Q177.9165,118.3633,177.9445,93.77Zm-77.9763,96.835h3.311q38.563,0,77.1261-.0075c6.0917-.004,9.9367-3.916,9.9589-10.029.0088-2.4067-.0662-4.8162.0295-7.2191.0491-1.23-.3609-1.5119-1.54-1.51q-30.2856.0522-60.5712-.0068a2.099,2.099,0,0,0-2.185,1.4418c-1.54,3.22-3.1993,6.3833-4.7276,9.6089a2.2284,2.2284,0,0,1-2.3383,1.5068q-19.0864-.0765-38.1734-.0074a2.0944,2.0944,0,0,1-2.2428-1.3449c-1.4633-3.1132-3.1152-6.1383-4.5464-9.2654a2.8358,2.8358,0,0,0-3.0507-1.9537c-6.815.1082-13.6327.0456-20.4494.0456-13.0492,0-26.0984.0288-39.1472-.0379-1.5557-.0079-2.0049.4212-1.9069,1.9405.13,2.0081.0315,4.0309.032,6.0474.0017,7.1725,3.6037,10.7888,10.763,10.79Q60.1392,190.6071,99.9682,190.6045Zm19.8036-18.6H80.13c.93,1.8625,1.8213,3.5138,2.5813,5.2235.3758.8455.9607.8931,1.7131.8922q15.5727-.0172,31.1454-.0029c.6729,0,1.2283-.0193,1.5786-.789C117.9475,175.5738,118.8471,173.8652,119.7718,172.0047Z"/><path class="a800b90e-b30b-4be8-af3b-1b046719c262" d="M177.9445,93.77q-.0245,24.5937-.0478,49.1875c-.0057,7.0272-.0335,14.0546.0288,21.0812.0113,1.2711-.324,1.6072-1.6,1.6064q-76.3695-.05-152.7389.01c-1.5323.0014-1.5924-.6086-1.5909-1.8117q.0431-33.9647.019-67.9293c0-.7148-.03-1.43-.0467-2.1443L28.3,93.77q-.024,28.9829-.0473,57.9659c-.0039,5.4441,2.2088,7.6329,7.71,7.6331q43.0512.0015,86.1024,0,21.4281,0,42.8563-.0071c3.98-.0048,6.7178-2.4948,6.7216-6.26q.03-29.6661-.03-59.3323Z"/><path class="ba27842f-414b-4b07-9344-5c7d7b3665ca" d="M171.6128,93.77q.0236,29.6661.03,59.3323c-.0038,3.7653-2.7411,6.2553-6.7216,6.26q-21.4281.0258-42.8563.0071-43.0512,0-86.1024,0c-5.5014,0-7.7141-2.189-7.71-7.6331q.0208-28.983.0473-57.9659,3.087.0138,6.1742.0277c.0047,19.0581.037,38.1162-.0316,57.1739-.0065,1.804.4816,2.1915,2.2188,2.1894q63.2952-.0757,126.59,0c1.7381.0021,2.2248-.3869,2.2183-2.19-.0683-19.0577-.0359-38.1158-.0314-57.1735Z"/><path class="ba27842f-414b-4b07-9344-5c7d7b3665ca" d="M164.1077,37.5176c-4.2849,0-8.57-.03-12.8544.0217-1.029.0124-1.4349-.1628-1.45-1.34-.0643-4.9306-.1112-4.93,4.8582-4.93,7.4012,0,14.8024-.0153,22.2034.0172A2.07,2.07,0,0,0,179.1,30.0217a9.0124,9.0124,0,0,1,10.4942-4.6675,9.3321,9.3321,0,0,1-.0936,18.0967,9.0107,9.0107,0,0,1-10.4465-4.773,1.9384,1.9384,0,0,0-2.092-1.1773C172.6777,37.54,168.3926,37.5176,164.1077,37.5176Zm23.1809-6.2434a3.12,3.12,0,1,0,3.0713,3.111A3.1372,3.1372,0,0,0,187.2886,31.2742Z"/><path class="ba27842f-414b-4b07-9344-5c7d7b3665ca" d="M164.2319,75c4.155,0,8.3106-.0395,12.4647.0244a2.3359,2.3359,0,0,0,2.51-1.4663,9.0864,9.0864,0,0,1,11.3382-4.1811A9.352,9.352,0,0,1,186.782,87.47a8.6739,8.6739,0,0,1-7.5472-4.7457,2.4882,2.4882,0,0,0-2.6893-1.4963c-8.31.041-16.62-.0148-24.93.0561-1.41.012-1.8542-.2632-1.8217-1.7723.0971-4.5093.02-4.511,4.5048-4.511Zm23.0133,6.2426a3.1195,3.1195,0,1,0-3.1084-3.0731A3.1435,3.1435,0,0,0,187.2452,81.2429Z"/><path class="ba27842f-414b-4b07-9344-5c7d7b3665ca" d="M35.7028,37.5175c-4.22,0-8.44.0256-12.66-.018a2.0615,2.0615,0,0,0-2.2342,1.2671A9.0288,9.0288,0,0,1,10.31,43.429a9.3339,9.3339,0,0,1,.1052-18.0984A9.0164,9.0164,0,0,1,20.86,30.1121a1.9424,1.9424,0,0,0,2.0945,1.173c8.44-.0277,16.88.0149,25.32-.047,1.3632-.01,1.8831.19,1.8473,1.746-.1042,4.5315-.02,4.5334-4.4855,4.5334Zm-23.1906-.0057a3.122,3.122,0,1,0-2.96-3.2215A3.1571,3.1571,0,0,0,12.5122,37.5118Z"/><path class="ba27842f-414b-4b07-9344-5c7d7b3665ca" d="M35.6608,81.2486c-4.1551,0-8.311.0438-12.4649-.0268a2.3347,2.3347,0,0,0-2.4968,1.4855A9.0911,9.0911,0,0,1,9.347,86.8581a9.3445,9.3445,0,0,1,3.6077-18.084,8.8146,8.8146,0,0,1,7.837,4.9328,2.0911,2.0911,0,0,0,2.2047,1.3158c8.44-.0406,16.88.0171,25.32-.06,1.45-.0133,1.8292.3259,1.8,1.7945-.09,4.49-.0194,4.4916-4.5218,4.4916ZM12.7139,81.243a3.1191,3.1191,0,1,0-3.1621-3.02A3.1449,3.1449,0,0,0,12.7139,81.243Z"/><path class="b66a4f72-1290-45c4-94b6-7c9d9fc4a991" d="M109.31,46.8449c0-7.6771-.0335-15.3544.03-23.0309.0118-1.4272-.2177-2.002-1.8469-1.9614-4.9967.1245-9.9995.1-14.9978.0113-1.4676-.0261-1.94.2881-1.9332,1.8738.0677,15.4188.019,30.8381.0751,46.257.0054,1.4962-.3265,1.96-1.8852,1.9232-4.3808-.1044-4.3827-.0269-4.3827-4.4589,0-8.3276-.0484-16.6558.0424-24.9824.0174-1.5941-.4772-1.8968-1.9382-1.87-4.8683.0883-9.7408.102-14.6085-.0043-1.675-.0366-2.2783.2778-2.2547,2.1527.1147,9.1069.067,18.2161.0168,27.3241-.0033.5914.6678,1.7691-.7231,1.7648-1.035-.0031-2.4634.638-2.7836-1.177-.0221-.1254-.1258-.24-.1351-.3635-.3132-4.1837-3.1355-5.6744-6.7484-6.2749-1.6131-.2682-2.1621-1.069-2.09-2.7618.1524-3.5717.0755-7.1549.0275-10.7325-.0132-.9852.18-1.5985,1.2728-1.7563,4.4326-.64,7.354-2.8589,7.9576-7.5908a5.177,5.177,0,0,1,1.0572-2.4893c2.2063-2.7125,1.5232-5.1841-.1383-7.8784-1.5871-2.5735-1.4291-2.6714.6624-4.7658,2.3421-2.3453,4.705-4.6705,7.0133-7.0488a1.4055,1.4055,0,0,1,2.0053-.3434c1.8061,1.014,3.6692,2.5969,5.5378,2.6383,1.8465.041,3.7194-1.55,5.5989-2.3842A9.9645,9.9645,0,0,1,86.87,17.92c3.1275-.3659,4.3168-2.2948,4.9894-5.1579.7993-3.4031.9957-3.3568,4.4641-3.3568,3.1168,0,6.2342.0334,9.35-.0194.9875-.0167,1.5975.1876,1.75,1.279.6222,4.46,2.8756,7.3364,7.5788,7.9727a6.1817,6.1817,0,0,1,2.82,1.2533c2.4093,1.881,4.5567,1.4291,7.0094-.0657,3.0784-1.8762,3.1778-1.7128,5.6883.8034,2.2035,2.2084,4.3859,4.4384,6.6225,6.6125a1.4037,1.4037,0,0,1,.3378,2.0067c-1.0153,1.8072-2.59,3.677-2.63,5.5491-.04,1.85,1.5734,3.7159,2.3763,5.6111a19.513,19.513,0,0,1,1.3981,4.0367c.3511,1.9438,1.4921,2.7057,3.26,3.2273,4.8549,1.4327,4.835,1.5006,4.835,6.51,0,2.6674-.0278,5.3353.016,8.002.0138.8414-.1825,1.3819-1.0847,1.51-.2515.0358-.4834.2061-.7351.2451-3.8869.6034-6.6638,2.36-7.1257,6.6671-.1944,1.813-1.6679,1.2576-2.7209,1.2438-1.5168-.02-.7783-1.2689-.7812-1.9062q-.0768-16.8825.0013-33.7655c.0089-1.4455-.2922-1.855-1.7774-1.8249q-7.5942.1539-15.1929.0021c-1.4447-.0274-1.8223.3235-1.8132,1.7994.0692,11.2547-.0006,22.51.08,33.765.0119,1.64-.4023,2.0433-2.0136,1.9991-4.26-.1171-4.2624-.0343-4.2624-4.385Z"/><path class="b66a4f72-1290-45c4-94b6-7c9d9fc4a991" d="M100.2177,78.1254c10.9654,0,21.931.0231,32.8961-.0312a2.224,2.224,0,0,1,2.5,1.5194c.6388,1.6132,2.1553,3.2051,2.0329,4.7026-.126,1.54-2.1844,2.5661-3.3934,3.819-1.7584,1.8224-3.6,3.5649-5.348,5.3965-.6482.679-1.2163.8823-1.99.28-3.665-2.8507-7.32-2.9831-11.1692-.225a10.1312,10.1312,0,0,1-4,1.428c-1.9242.3565-2.7017,1.4746-3.2228,3.2544-1.4244,4.8649-1.4968,4.8436-6.4876,4.8436-2.5954,0-5.1916-.0377-7.7857.0192-.9815.0216-1.5971-.1675-1.7577-1.2669-.6459-4.4217-2.8175-7.3806-7.5511-7.99a5.7,5.7,0,0,1-2.6554-1.141c-2.5087-1.9685-4.7679-1.58-7.3453.0381-2.9039,1.8228-3.0195,1.6388-5.5188-.8625-2.1117-2.1133-4.1874-4.2643-6.3506-6.3233a2.1017,2.1017,0,0,1-.5337-2.6433c1.2944-3.9827,3.7157-5.1034,7.9039-4.941C80.3531,78.3863,90.29,78.1254,100.2177,78.1254Z"/><path class="e504f42d-33d4-4bef-bc44-ce3066ae303f" d="M103.0724,50.2138c0,6.6909-.0322,13.3821.0286,20.0725.0114,1.2578-.3089,1.6267-1.5959,1.6232-4.6646-.0127-4.6647.04-4.6647-4.5608,0-12.4723.0258-24.9448-.035-37.4169-.007-1.4408.3212-1.851,1.7975-1.8244,4.4683.08,4.4695.0093,4.4695,4.5671Z"/><path class="e504f42d-33d4-4bef-bc44-ce3066ae303f" d="M128.0131,56.4314c0,4.6744-.0279,9.349.0212,14.0228.0111,1.049-.2172,1.4315-1.3648,1.4532-4.8892.0923-4.8885.1355-4.8884-4.7193,0-8.31.0226-16.62-.025-24.93-.0069-1.2088.228-1.6573,1.5637-1.6533,4.6931.0142,4.6933-.0445,4.6933,4.7248Z"/><path class="e504f42d-33d4-4bef-bc44-ce3066ae303f" d="M71.9,59.1772c0-3.6339.0415-7.2685-.025-10.9011-.02-1.1047.2984-1.398,1.4025-1.4163,4.8551-.0807,4.8544-.12,4.8544,4.7467,0,6.23-.0354,12.4593.0294,18.688.0132,1.2685-.3281,1.6174-1.6019,1.6141-4.6594-.0119-4.66.0387-4.66-4.5553Q71.9,63.2652,71.9,59.1772Z"/><path class="b66a4f72-1290-45c4-94b6-7c9d9fc4a991" d="M174.8032,59.3773a3.1193,3.1193,0,1,1,3.0862-3.0967A3.14,3.14,0,0,1,174.8032,59.3773Z"/><path class="b66a4f72-1290-45c4-94b6-7c9d9fc4a991" d="M28.2452,56.2121a3.1117,3.1117,0,1,1-3.11-3.0722A3.1456,3.1456,0,0,1,28.2452,56.2121Z"/><path d="M62.54,146.8447c-6.75,0-13.5-.0348-20.25.0307-1.28.0124-1.6023-.3442-1.5968-1.61q.0738-17.1675-.0013-34.3353c-.0058-1.286.3494-1.6013,1.6089-1.597q20.25.0684,40.4993-.0013c1.2793-.0045,1.6021.3432,1.5966,1.6093q-.0738,17.1674.0013,34.3352c.0058,1.286-.3484,1.61-1.609,1.5981C76.04,146.8118,69.29,146.8447,62.54,146.8447Zm.013-6.2472c4.67,0,9.3406-.0473,14.0092.0308,1.2831.0215,1.6105-.35,1.6-1.6155q-.0894-10.917.0017-21.8348c.0113-1.2919-.3622-1.6049-1.6166-1.5979q-14.0093.078-28.0191-.0016c-1.2811-.0077-1.61.35-1.6,1.6146q.0894,10.9168-.0016,21.8347c-.0113,1.2919.3606,1.6185,1.6168,1.5988C53.2124,140.5536,57.883,140.5975,62.5529,140.5975Z"/><path d="M124.8909,115.6084c10.8382,0,21.6766.0285,32.5144-.0345,1.4213-.0083,1.856.2888,1.8269,1.7871-.0872,4.4931-.0129,4.4945-4.54,4.4945q-31.0543,0-62.1086.0385c-1.5875.0044-2.0732-.3243-2.0249-1.9867.1248-4.2963.0352-4.2989,4.3488-4.2989Z"/><path d="M125.0932,140.5976c10.7733,0,21.5467.03,32.32-.0355,1.4359-.0087,1.8466.3122,1.8184,1.7957-.0851,4.4856-.0129,4.4869-4.5466,4.4869q-31.0545,0-62.1087.0393c-1.6007.0046-2.0636-.3463-2.0165-1.995.1224-4.2889.0348-4.2914,4.3556-4.2914Z"/><path d="M118.6563,128.103c8.76,0,17.52.0349,26.28-.035,1.4235-.0114,1.8545.2923,1.8256,1.7884-.087,4.4923-.013,4.4937-4.5394,4.4937-16.5468,0-33.0937-.0243-49.64.039-1.5893.0061-2.0716-.3276-2.0235-1.9879.1245-4.2956.0352-4.2982,4.3481-4.2982Z"/><path d="M155.8947,134.35c-2.9392,0-2.9392,0-2.9392-2.9134,0-3.3337,0-3.3337,3.2956-3.3337,2.9393,0,2.9393,0,2.9393,2.9135C159.1905,134.35,159.1905,134.35,155.8947,134.35Z"/><path class="a070a5fd-5d90-4d8d-932a-a9b0f0346e98" d="M99.9682,190.6045q-39.829,0-79.6581-.001c-7.1593-.0007-10.7613-3.617-10.763-10.79-.0005-2.0165.0977-4.0393-.032-6.0474-.098-1.5193.3512-1.9484,1.9069-1.9405,13.0488.0667,26.098.0379,39.1472.0379,6.8167,0,13.6344.0626,20.4494-.0456a2.8358,2.8358,0,0,1,3.0507,1.9537c1.4312,3.1271,3.0831,6.1522,4.5464,9.2654a2.0944,2.0944,0,0,0,2.2428,1.3449q19.0866-.0563,38.1734.0074a2.2284,2.2284,0,0,0,2.3383-1.5068c1.5283-3.2256,3.1875-6.3887,4.7276-9.6089a2.099,2.099,0,0,1,2.185-1.4418q30.2856.0666,60.5712.0068c1.1788-.0021,1.5888.2795,1.54,1.51-.0957,2.4029-.0207,4.8124-.0295,7.2191-.0222,6.113-3.8672,10.025-9.9589,10.029q-38.5631.0253-77.1261.0075Zm49.7645-6.251c3.2219,0,3.2219,0,3.2233-2.2848.0023-3.9637.0023-3.9637-2.3327-3.9649-3.9029-.0019-3.9029-.002-3.9037,2.3907C146.7182,184.3535,146.7182,184.3535,149.7327,184.3535Zm12.5448-6.25c-3.0857,0-3.0857,0-3.0876,2.2346-.0033,4.0135-.0033,4.0135,2.2736,4.0151,3.9624.0027,3.9624.0027,3.9628-2.518C165.4269,178.1038,165.4269,178.1038,162.2775,178.1038Zm12.6241,0c-3.2413,0-3.2413,0-3.2413,3.0545,0,3.1952,0,3.1952,3.0924,3.1952,3.144,0,3.144,0,3.144-3.1435C177.8967,178.1038,177.8967,178.1038,174.9016,178.1038Z"/><path class="e504f42d-33d4-4bef-bc44-ce3066ae303f" d="M119.7718,172.0047c-.9247,1.86-1.8243,3.5691-2.623,5.3238-.35.77-.9057.79-1.5786.789q-15.5727-.01-31.1454.0029c-.7524.0009-1.3373-.0467-1.7131-.8922-.76-1.71-1.6509-3.361-2.5813-5.2235Z"/><path class="b66a4f72-1290-45c4-94b6-7c9d9fc4a991" d="M187.2886,31.2742a3.1206,3.1206,0,1,1-3.1518,3.0286A3.1416,3.1416,0,0,1,187.2886,31.2742Z"/><path class="b66a4f72-1290-45c4-94b6-7c9d9fc4a991" d="M187.2452,81.2429a3.12,3.12,0,1,1,3.1146-3.0683A3.1407,3.1407,0,0,1,187.2452,81.2429Z"/><path class="b66a4f72-1290-45c4-94b6-7c9d9fc4a991" d="M12.5122,37.5118a3.1222,3.1222,0,1,1,3.26-2.92A3.1477,3.1477,0,0,1,12.5122,37.5118Z"/><path class="b66a4f72-1290-45c4-94b6-7c9d9fc4a991" d="M12.7139,81.243a3.1193,3.1193,0,1,1,3.0612-3.1221A3.1407,3.1407,0,0,1,12.7139,81.243Z"/><path class="fbe7c1af-80df-4fbf-ae21-951ee1de71e9" d="M62.5529,140.5975c-4.67,0-9.34-.0439-14.0093.0291-1.2562.02-1.6281-.3069-1.6168-1.5988q.0954-10.9167.0016-21.8347c-.01-1.265.3188-1.6223,1.6-1.6146q14.0093.0832,28.0191.0016c1.2544-.007,1.6279.306,1.6166,1.5979q-.0954,10.9169-.0017,21.8348c.01,1.265-.3171,1.637-1.6,1.6155C71.8935,140.55,67.2228,140.5975,62.5529,140.5975Z"/><path class="ba27842f-414b-4b07-9344-5c7d7b3665ca" d="M149.7327,184.3535c-3.0145,0-3.0145,0-3.0131-3.859.0008-2.3927.0008-2.3926,3.9037-2.3907,2.335.0012,2.335.0012,2.3327,3.9649C152.9546,184.3535,152.9546,184.3535,149.7327,184.3535Z"/><path class="ba27842f-414b-4b07-9344-5c7d7b3665ca" d="M162.2775,178.1038c3.1494,0,3.1494,0,3.1488,3.7317,0,2.5207,0,2.5207-3.9628,2.518-2.2769-.0016-2.2769-.0016-2.2736-4.0151C159.1918,178.1038,159.1918,178.1038,162.2775,178.1038Z"/><path class="ba27842f-414b-4b07-9344-5c7d7b3665ca" d="M174.9016,178.1038c2.9951,0,2.9951,0,2.9951,3.1062,0,3.1435,0,3.1435-3.144,3.1435-3.0924,0-3.0924,0-3.0924-3.1952C171.66,178.1038,171.66,178.1038,174.9016,178.1038Z"/></svg>