<svg id="b43a9404-e89e-4146-805c-251300e88774" data-name="Capa 1" xmlns="http://www.w3.org/2000/svg" viewBox="0 0 200 200"><defs><style>.a6d582b5-0106-403f-b869-840ed155e90e{fill:#fed97c;}.a6462d88-cdb8-44b5-86d9-5b85e170b325{fill:#77cfe7;}.ad41eac2-e4b4-4a2b-b390-78cf217e3b67{fill:#6497d7;}.b31d7000-0015-4cd6-97f7-fe1c559d362d{fill:#293e57;}.b8774348-f93d-4117-9289-92f5040a6eed{fill:#283e57;}.f7b4a564-42f0-4167-8ba4-bb052750a243{fill:#476c99;}.b7a57817-8c04-4100-abca-d61ceedfe583{fill:#466b96;}.eb862212-9516-47a3-8bd6-647d58ab6588{fill:#ee7085;}.e1d6b878-a096-41f6-bae0-4fb0f44cabed{fill:#446892;}.a47fedfb-d4d7-446d-a4fa-d6ca76c62ec4{fill:#ee7185;}.bbed7732-d600-4ea8-88d3-53312d718df3{fill:#294059;}.a62bdfd2-f34f-4e89-be0f-2e47cad8e70c{fill:#fcd87c;}.bbee5060-da8e-422c-91da-5bb27aa179d6{fill:#e66f86;}</style></defs><path class="a6d582b5-0106-403f-b869-840ed155e90e" d="M21.5549,39.9639q.0569-6.2525.1135-12.5051,18.7017-.0272,37.4037-.0539c.519.0214,1.0379.0613,1.5569.0613q58.5177.0012,117.0354-.0036.0564,6.2507.1126,12.5014c-.0191.8442-.0544,1.6883-.0545,2.5324q-.0043,40.6594-.0027,81.3189c0,3.22-.336,3.5538-3.57,3.5538q-45.3437.0006-90.6873.0029c-.8441,0-1.6881.0387-2.5322.0593-1.8181-.0208-3.64-.1212-5.453-.0345-1.2144.058-1.6937-.3869-2.2849-1.475-1.1356-2.09-.873-3.5545,1.0345-4.9092.7834-.5565,1.3465-1.4142,2.0961-2.03.7818-.642.6031-1.07-.041-1.679-1.4634-1.3831-2.8545-2.8422-4.29-4.2551-1.2011-1.1822-2.3837-3.2234-3.6473-3.2807-1.4467-.0656-2.5641,2.0864-3.7624,3.3274a2.297,2.297,0,0,1-2.8294.6644c-2.2278-.7214-3.1373-1.8909-2.6986-4.2.1549-.8153-.0448-1.6918.0415-2.5276.12-1.1661-.2341-1.6064-1.485-1.546-2.2042.1064-4.4172.03-6.6265.03-4.3948,0-4.5279.0057-4.3369,4.4319.0909,2.1054-.5809,3.0762-2.5506,3.7289-1.2915.4279-2.1015.51-3.0049-.5869-.8635-1.0485-1.9485-1.9116-2.8545-2.9289-.6166-.6925-1.0158-.7255-1.6792-.0252-1.7421,1.839-3.567,3.6-5.3585,5.3918-2.6346,2.6359-2.7508,2.7688-.001,5.1818,1.8673,1.6386,2.5365,3.0951,1.2086,5.4-.5419.9407-.9747,1.3145-2.021,1.2819-1.8806-.0587-3.7655.0195-5.6486.04-2.8051-.1923-3.1245-.5431-3.1246-3.4661q-.0014-36.9348-.0031-73.8695C21.6088,46.7187,21.5739,43.3413,21.5549,39.9639ZM134.0585,96.1507c-9.8786,0-19.7572.0192-29.6355-.0245-1.224-.0054-1.6852.262-1.6657,1.5924q.1145,7.7964,0,15.5953c-.02,1.3306.4425,1.5935,1.6658,1.5914q29.538-.05,59.0761.0039c1.3172.0027,1.79-.2758,1.7661-1.693q-.13-7.6984,0-15.4c.024-1.4175-.4488-1.7008-1.7664-1.6938C153.6857,96.1747,143.872,96.1507,134.0585,96.1507Zm-72.07-12.488c8.903,0,17.8061-.012,26.7091.016,1.0515.0034,1.653-.0761,1.6334-1.4215-.0779-5.3272-.0652-10.6566-.0069-15.9843.0131-1.19-.4758-1.36-1.4959-1.3581q-26.6117.0357-53.2232-.0083c-1.1989-.0024-1.5465.3251-1.5313,1.5283.0641,5.0676.0914,10.1378-.0111,15.2042-.0319,1.5787.3222,2.0838,1.9971,2.0661C44.7019,83.614,53.3455,83.6628,61.9886,83.6627Zm37.8728-43.706c-11.9676,0-23.9354.0181-35.9029-.0261-1.2952-.0048-1.8434.2432-1.7916,1.6856.11,3.0528.0813,6.1133.01,9.1683-.0283,1.21.2374,1.6905,1.5863,1.6883q35.9028-.06,71.8058,0c1.3481.0022,1.617-.4773,1.5868-1.6878-.073-2.9248-.1563-5.8609.0247-8.7763.1142-1.84-.5773-2.096-2.1965-2.087C123.2766,39.9868,111.5689,39.9566,99.8614,39.9567Zm34.0537,37.4627q12.779,0,25.5579,0c1.9509,0,3.9043.0555,5.8522-.0227a3.0076,3.0076,0,0,0,3.0224-3.1517,3.0393,3.0393,0,0,0-2.9314-3.0531c-.581-.0513-1.17-.016-1.7551-.016q-27.5089-.0008-55.0178,0c-1.9509,0-3.9043-.0583-5.8523.0179a3.0727,3.0727,0,0,0-2.9256,4.2c.6434,1.64,1.97,2.0455,3.6143,2.0408C113.6248,77.4049,123.77,77.4192,133.9151,77.4194Zm.0186,9.3657q14.6324,0,29.2647,0c.7154,0,1.4338.038,2.1454-.0145a3.11,3.11,0,0,0,.0539-6.2148c-.5166-.0449-1.04-.0143-1.56-.0143q-29.85-.0006-59.7.0005a10.2516,10.2516,0,0,0-1.7527.0349,3.1146,3.1146,0,0,0-.0529,6.1649,9.3387,9.3387,0,0,0,1.7518.0424Q119.0086,86.7863,133.9337,86.7851ZM62.2973,93.0287q-13.8517,0-27.7035.0066c-2.5527.0045-4.1552,1.7963-3.5128,3.9323.56,1.8622,1.9916,2.3263,3.8054,2.3221q20.3872-.0477,40.7748-.0172c4.7473,0,9.4946-.0131,14.2418.0074a3.17,3.17,0,0,0,3.1975-1.7716c1.1044-2.2693-.486-4.4666-3.2949-4.4724Q76.0515,93.0073,62.2973,93.0287Zm81.1382-24.9755c7.1531,0,14.3063.0144,21.4594-.0088,2.1481-.007,3.46-1.2455,3.4528-3.1243s-1.3147-3.1-3.4746-3.1021q-21.4593-.0232-42.9188-.0178a3.311,3.311,0,0,0-2.9211,1.238,2.98,2.98,0,0,0-.2888,3.3053,3.2266,3.2266,0,0,0,3.2317,1.7189C129.1292,68.0427,136.2824,68.0533,143.4355,68.0532Zm-59.55,40.5854c2.0155,0,4.0313.023,6.0463-.0062,2.1641-.0313,3.4717-1.2161,3.4851-3.0936.0133-1.881-1.297-3.12-3.4387-3.1362q-5.9485-.0456-11.8976.0015c-2.1215.0185-3.429,1.2987-3.3868,3.186.04,1.806,1.3115,2.9969,3.3406,3.039C79.9838,108.67,81.9349,108.6379,83.8853,108.6386Zm5.1037,3.1455v-.0113a15.2843,15.2843,0,0,0-2.1422.0166,3.1075,3.1075,0,0,0-.0151,6.1786,18.4948,18.4948,0,0,0,3.8926-.0194,2.8512,2.8512,0,0,0,2.6744-3.06,2.92,2.92,0,0,0-2.6588-3.0879A9.7727,9.7727,0,0,0,88.989,111.7841Z"/><path class="a6462d88-cdb8-44b5-86d9-5b85e170b325" d="M80.93,127.4313c.8441-.0206,1.6881-.0592,2.5322-.0593q45.3437-.0047,90.6873-.0029c3.2345,0,3.57-.3342,3.57-3.5538q.0008-40.6594.0027-81.3189c0-.8441.0354-1.6882.0545-2.5324,2.1463-.0022,4.2927-.0317,6.4382,0a5.8306,5.8306,0,0,1,5.98,5.8852q.0247,46.8186-.0037,93.6373a3.4962,3.4962,0,0,1-.0427.3875l-12.4648.0189-12.4551.0157-12.4873.0118-18.6989-.0308-53.1351-.0428Q80.9185,133.639,80.93,127.4313Z"/><path class="ad41eac2-e4b4-4a2b-b390-78cf217e3b67" d="M177.6644,27.4626q-58.5177.0032-117.0354.0036c-.519,0-1.0379-.04-1.5569-.0612q-.0063-9.3032-.0124-18.6062c.7141-.02,1.4282-.0584,2.1422-.0584q56.4638-.0043,112.9273-.0024c3.2944,0,3.5964.2892,3.589,3.5157Q177.7007,19.8582,177.6644,27.4626Zm-71.743-6.2366q7.4053,0,14.8107-.0029c2.4878-.0049,3.8771-1.1181,3.9007-3.0842.0238-1.98-1.3711-3.1524-3.8275-3.1546q-14.908-.0132-29.8163,0c-2.4375.0023-3.8416,1.2-3.8025,3.1784.0376,1.907,1.4021,3.0508,3.7293,3.0581C95.9176,21.2366,100.92,21.2259,105.9214,21.226Zm-31.2905-.007c1.1025,0,2.2094.062,3.3067-.014a3.0641,3.0641,0,0,0,2.9872-3.1918,3.0137,3.0137,0,0,0-2.9708-3.0039c-2.2016-.0863-4.4127-.0937-6.6133.0066a3,3,0,0,0-2.8894,3.0782,3.0465,3.0465,0,0,0,2.8734,3.1027C72.42,21.2877,73.5283,21.2138,74.6309,21.219Z"/><path class="b31d7000-0015-4cd6-97f7-fe1c559d362d" d="M80.93,127.4313q-.0112,6.2078-.0227,12.4155a30.8643,30.8643,0,0,1-4.8382-.0375c-2.3579-.3734-2.6114,1.2913-3.3906,2.772-.8323,1.5816.1907,2.2327,1.03,3.0906,1.0378,1.0613,2.7267,2.0067,2.9434,3.2155.2587,1.444-1.9547,2.1109-2.7039,3.44-1.5738,1.5433-3.202,3.0361-4.6992,4.65-.7847.8461-1.2676.7737-1.9451-.0528-.5733-.6994-1.3561-1.2326-1.8978-1.9511-1.2936-1.7162-2.6081-2.2079-4.7229-1.1044a2.428,2.428,0,0,0-1.6393,2.563c.01,1.7217.7875,4.0215-.3451,5.0068-.9723.8458-3.21.2528-4.8888.2672-2.0123.0173-4.0262-.04-6.0366.0233-.9376.03-1.2649-.2691-1.2-1.2055.0718-1.0336-.1013-2.0924.0411-3.1111.2783-1.9918-.29-3.1121-2.3678-3.8348-1.4887-.5178-2.2839-.4315-3.3057.6987-1.1092,1.2268-2.2154,3.2713-3.6054,3.2122-1.2106-.0514-2.338-2.0288-3.5048-3.1523-.6993-.6733-1.4038-1.3413-2.1056-2.0115a7.22,7.22,0,0,0-.4747-.6067c-2.616-2.7178-2.7332-2.8484.0807-5.326,1.8522-1.6308,2.3247-3.1094,1.0742-5.28-.4719-.8194-.7864-1.3209-1.82-1.2786-1.9386.0794-3.8831.0167-5.8251.0131l-.0231-12.4149c1.8831-.021,3.768-.0992,5.6486-.04,1.0463.0326,1.4791-.3412,2.021-1.2819,1.3279-2.3052.6587-3.7617-1.2086-5.4-2.75-2.413-2.6336-2.5459.001-5.1818,1.7915-1.7923,3.6164-3.5528,5.3585-5.3918.6634-.7,1.0626-.6673,1.6792.0252.906,1.0173,1.991,1.88,2.8545,2.9289.9034,1.0969,1.7134,1.0148,3.0049.5869,1.97-.6527,2.6415-1.6235,2.5506-3.7289-.191-4.4262-.0579-4.4319,4.3369-4.4319,2.2093,0,4.4223.0767,6.6265-.03,1.2509-.06,1.6053.38,1.485,1.546-.0863.8358.1134,1.7123-.0415,2.5276-.4387,2.3093.4708,3.4788,2.6986,4.2a2.297,2.297,0,0,0,2.8294-.6644c1.1983-1.241,2.3157-3.393,3.7624-3.3274,1.2636.0573,2.4462,2.0985,3.6473,3.2807,1.4356,1.4129,2.8267,2.872,4.29,4.2551.6441.6087.8228,1.037.041,1.679-.75.6156-1.3127,1.4733-2.0961,2.03-1.9075,1.3547-2.17,2.819-1.0345,4.9092.5912,1.0881,1.07,1.533,2.2849,1.475C77.29,127.31,79.1117,127.4105,80.93,127.4313Zm-15.61,6.0926a12.4863,12.4863,0,1,0-12.4483,12.5746A12.503,12.503,0,0,0,65.3194,133.5239Z"/><path class="a6462d88-cdb8-44b5-86d9-5b85e170b325" d="M24.7371,127.4318l.0231,12.415L9.184,139.874c-.02-.7794-.0579-1.5586-.058-2.3379-.003-30.105.0623-60.21-.0725-90.3145-.02-4.5113,2.7525-7.7421,7.4321-7.2905,1.6754.1617,3.379.03,5.0695.0329.0188,3.3773.0537,6.7547.0543,10.1322q.007,36.9348.0031,73.8695C21.6126,126.8887,21.932,127.24,24.7371,127.4318Z"/><path class="b8774348-f93d-4117-9289-92f5040a6eed" d="M117.3574,177.2393c2.0118.03,4.0248.0279,6.0352.0974A11.0714,11.0714,0,0,1,134.03,188.37c.005,1.0284-.1454,1.4658-1.337,1.4638q-33.0276-.0549-66.0553,0c-1.194.002-1.34-.44-1.3358-1.4653A11.0751,11.0751,0,0,1,75.938,177.336c2.01-.0679,4.0234-.0669,6.0352-.0973Z"/><path class="ad41eac2-e4b4-4a2b-b390-78cf217e3b67" d="M73.9475,152.3273c.7492-1.329,2.9626-1.9959,2.7039-3.44-.2167-1.2088-1.9056-2.1542-2.9434-3.2155-.839-.8579-1.862-1.509-1.03-3.0906.7792-1.4807,1.0327-3.1454,3.3906-2.772a30.8643,30.8643,0,0,0,4.8382.0375l53.1352.0426q-.0164,6.1956-.0328,12.3915l-23.9053.0651-20.8772,0Z"/><path class="f7b4a564-42f0-4167-8ba4-bb052750a243" d="M89.2271,152.3464l20.8771,0q2.8537,9.75,5.7066,19.5c.5244,1.7952,1.0315,3.5954,1.5466,5.3934l-35.3842-.0006q3.457-11.6941,6.91-23.3895C89.0282,153.3572,89.1138,152.8477,89.2271,152.3464Z"/><path class="b7a57817-8c04-4100-abca-d61ceedfe583" d="M59.06,8.7988q.0061,9.303.0124,18.6062-18.702.0267-37.4037.0538c-.0186-5.458-.0234-10.9163-.0645-16.3743-.0123-1.6361.7285-2.36,2.3613-2.3552Q41.5125,8.7842,59.06,8.7988ZM34.1,18.1066a3.1195,3.1195,0,1,0-3.0744,3.116A3.11,3.11,0,0,0,34.1,18.1066Zm9.3665.0156a3.12,3.12,0,1,0-3.09,3.1A3.111,3.111,0,0,0,43.4668,18.1222Zm9.3665.0194a3.12,3.12,0,1,0-3.11,3.081A3.1125,3.1125,0,0,0,52.8333,18.1416Z"/><path class="ad41eac2-e4b4-4a2b-b390-78cf217e3b67" d="M9.184,139.874l15.5762-.0272c1.942.0035,3.8865.0662,5.8251-.0132,1.0331-.0423,1.3476.4592,1.82,1.2786,1.25,2.1711.778,3.65-1.0742,5.28-2.8139,2.4776-2.6967,2.6082-.0807,5.326a7.22,7.22,0,0,1,.4747.6067c-5.5679.006-11.1356.0355-16.703.01a5.6719,5.6719,0,0,1-5.8895-5.8613C9.11,144.2743,9.1641,142.0739,9.184,139.874Z"/><path class="eb862212-9516-47a3-8bd6-647d58ab6588" d="M134.01,152.2809q.0165-6.1958.0328-12.3915,9.3492.0156,18.6987.0308l-.0126,12.3655Z"/><path class="a6d582b5-0106-403f-b869-840ed155e90e" d="M152.7284,152.2857l.0126-12.3655q6.2438-.0058,12.4873-.012.0068,6.19.0135,12.38Z"/><path class="e1d6b878-a096-41f6-bae0-4fb0f44cabed" d="M165.2418,152.288q-.0068-6.19-.0135-12.38,6.2277-.0074,12.4553-.0155.0087,6.1953.0172,12.3909Z"/><path class="ad41eac2-e4b4-4a2b-b390-78cf217e3b67" d="M177.7008,152.2836q-.0085-6.1956-.0172-12.3909l12.4646-.0188c.0193,2.329.1092,4.66.04,6.9864a5.68,5.68,0,0,1-5.5005,5.4658C182.3609,152.3874,180.03,152.3032,177.7008,152.2836Z"/><path class="e1d6b878-a096-41f6-bae0-4fb0f44cabed" d="M134.0585,96.1507c9.8135,0,19.6272.024,29.44-.0285,1.3176-.007,1.79.2763,1.7664,1.6938q-.13,7.6985,0,15.4c.0239,1.4172-.4489,1.6957-1.7661,1.693q-29.538-.06-59.0761-.0039c-1.2233.0021-1.6854-.2608-1.6658-1.5914q.1145-7.7964,0-15.5953c-.02-1.33.4417-1.5978,1.6657-1.5924C114.3013,96.17,124.18,96.1507,134.0585,96.1507Z"/><path class="e1d6b878-a096-41f6-bae0-4fb0f44cabed" d="M61.9886,83.6628c-8.6431,0-17.2867-.0488-25.9288.0423-1.6749.0177-2.029-.4874-1.9971-2.0661.1025-5.0664.0752-10.1366.0111-15.2042-.0152-1.2032.3324-1.5307,1.5313-1.5283q26.6115.0554,53.2232.0083c1.02-.0014,1.509.1677,1.4959,1.3581-.0583,5.3277-.071,10.6571.0069,15.9843.02,1.3454-.5819,1.4249-1.6334,1.4215C79.7947,83.6507,70.8916,83.6627,61.9886,83.6628Z"/><path class="ad41eac2-e4b4-4a2b-b390-78cf217e3b67" d="M99.8614,39.9567c11.7075,0,23.4152.03,35.1223-.035,1.6192-.009,2.3107.2468,2.1965,2.087-.181,2.9154-.0977,5.8515-.0247,8.7763.03,1.2105-.2387,1.69-1.5868,1.6878q-35.9028-.06-71.8058,0c-1.3489.0022-1.6146-.4786-1.5863-1.6883.0716-3.055.1-6.1155-.01-9.1683-.0518-1.4424.4964-1.69,1.7916-1.6856C75.926,39.9748,87.8938,39.9567,99.8614,39.9567Z"/><path class="eb862212-9516-47a3-8bd6-647d58ab6588" d="M133.9151,77.4193c-10.1452,0-20.29-.0144-30.4354.0143-1.6442.0047-2.9709-.4011-3.6143-2.0408a3.0727,3.0727,0,0,1,2.9256-4.2c1.948-.0762,3.9014-.0179,5.8523-.0179q27.509,0,55.0178,0c.5852,0,1.1741-.0353,1.7551.016a3.0393,3.0393,0,0,1,2.9314,3.0531,3.0076,3.0076,0,0,1-3.0224,3.1517c-1.9479.0782-3.9013.0226-5.8522.0227Q146.6941,77.42,133.9151,77.4193Z"/><path class="eb862212-9516-47a3-8bd6-647d58ab6588" d="M133.9337,86.7851q-14.925,0-29.85-.0012a9.3387,9.3387,0,0,1-1.7518-.0424,3.1146,3.1146,0,0,1,.0529-6.1649,10.2516,10.2516,0,0,1,1.7527-.0349q29.85-.0015,59.7-.0005c.52,0,1.0436-.0306,1.56.0143a3.11,3.11,0,0,1-.0539,6.2148c-.7116.0525-1.43.0145-2.1454.0145Q148.5661,86.7854,133.9337,86.7851Z"/><path class="eb862212-9516-47a3-8bd6-647d58ab6588" d="M62.2973,93.0287q13.7541,0,27.5083.0072c2.8089.0058,4.3993,2.2031,3.2949,4.4724A3.17,3.17,0,0,1,89.903,99.28c-4.7472-.02-9.4945-.0075-14.2418-.0074q-20.3874,0-40.7748.0172c-1.8138.0042-3.2454-.46-3.8054-2.3221-.6424-2.136.96-3.9278,3.5128-3.9323Q48.4454,93.01,62.2973,93.0287Z"/><path class="eb862212-9516-47a3-8bd6-647d58ab6588" d="M143.4355,68.0532c-7.1531,0-14.3063-.0105-21.4594.0092a3.2266,3.2266,0,0,1-3.2317-1.7189,2.98,2.98,0,0,1,.2888-3.3053,3.311,3.311,0,0,1,2.9211-1.238q21.4595.0225,42.9188.0178c2.16.0024,3.4677,1.2224,3.4746,3.1021s-1.3047,3.1173-3.4528,3.1243C157.7418,68.0676,150.5886,68.0532,143.4355,68.0532Z"/><path class="a47fedfb-d4d7-446d-a4fa-d6ca76c62ec4" d="M83.8853,108.6382c-1.95,0-3.9015.0314-5.8511-.0091-2.0291-.0421-3.3-1.233-3.3406-3.039-.0422-1.8873,1.2653-3.1675,3.3868-3.186q5.9484-.0521,11.8976-.0015c2.1417.0163,3.452,1.2552,3.4387,3.1362-.0134,1.8775-1.321,3.0623-3.4851,3.0936C87.9166,108.6616,85.9008,108.6386,83.8853,108.6382Z"/><path class="a47fedfb-d4d7-446d-a4fa-d6ca76c62ec4" d="M88.989,111.7841a9.7727,9.7727,0,0,1,1.7509.0165,2.92,2.92,0,0,1,2.6588,3.0879,2.8512,2.8512,0,0,1-2.6744,3.06,18.4948,18.4948,0,0,1-3.8926.0194,3.1075,3.1075,0,0,1,.0151-6.1786,15.2843,15.2843,0,0,1,2.1422-.0166Z"/><path class="b8774348-f93d-4117-9289-92f5040a6eed" d="M105.9214,21.2259c-5.0019,0-10.0038.0107-15.0056-.0048-2.3272-.0073-3.6917-1.1511-3.7293-3.0581-.0391-1.9786,1.365-3.1761,3.8025-3.1784q14.9082-.0141,29.8163,0c2.4564.0022,3.8513,1.1742,3.8275,3.1546-.0236,1.9661-1.4129,3.0793-3.9007,3.0842Q113.3268,21.2378,105.9214,21.2259Z"/><path class="bbed7732-d600-4ea8-88d3-53312d718df3" d="M74.6309,21.2164c-1.1026-.0026-2.2112.0713-3.3062-.02a3.0465,3.0465,0,0,1-2.8734-3.1027,3,3,0,0,1,2.8894-3.0782c2.2006-.1,4.4117-.0929,6.6133-.0066a3.0137,3.0137,0,0,1,2.9708,3.0039,3.0641,3.0641,0,0,1-2.9872,3.1918C76.84,21.281,75.7334,21.219,74.6309,21.2164Z"/><path class="a62bdfd2-f34f-4e89-be0f-2e47cad8e70c" d="M65.3194,133.5239a12.4863,12.4863,0,1,1-12.6223-12.3966A12.5121,12.5121,0,0,1,65.3194,133.5239Z"/><path class="bbee5060-da8e-422c-91da-5bb27aa179d6" d="M34.1,18.1066a3.1194,3.1194,0,1,1-3.0659-3.1236A3.111,3.111,0,0,1,34.1,18.1066Z"/><path class="bbee5060-da8e-422c-91da-5bb27aa179d6" d="M43.4668,18.1222a3.12,3.12,0,1,1-3.05-3.1392A3.1109,3.1109,0,0,1,43.4668,18.1222Z"/><path class="bbee5060-da8e-422c-91da-5bb27aa179d6" d="M52.8333,18.1416a3.12,3.12,0,1,1-3.0308-3.1586A3.1114,3.1114,0,0,1,52.8333,18.1416Z"/></svg>