<svg id="Capa_1" data-name="Capa 1" xmlns="http://www.w3.org/2000/svg" viewBox="0 0 187.09 187.09"><defs><style>.cls-1{fill:#cfe4c4;}.cls-2{fill:#a6539b;}.cls-3{fill:#48b592;}.cls-4{fill:#056766;}</style></defs><ellipse class="cls-1" cx="92.57" cy="94.15" rx="83.58" ry="79.86"/><path class="cls-2" d="M124.44,25.3c1.12.37,2.23.76,3.34,1.17a10.62,10.62,0,0,0-3.34-1.17Z"/><path class="cls-3" d="M146.34,134a26.84,26.84,0,1,1-18.68-25.61A26.88,26.88,0,0,1,146.34,134Z"/><path class="cls-2" d="M124.44,25.3c1.12.37,2.23.76,3.34,1.17a10.62,10.62,0,0,0-3.34-1.17Z"/><path class="cls-2" d="M124.44,25.3c1.12.37,2.23.76,3.34,1.17a10.62,10.62,0,0,0-3.34-1.17Z"/><path class="cls-2" d="M124.44,25.3c1.12.37,2.23.76,3.34,1.17a10.62,10.62,0,0,0-3.34-1.17Z"/><path class="cls-2" d="M124.44,25.3c1.12.37,2.23.76,3.34,1.17a10.62,10.62,0,0,0-3.34-1.17Z"/><path class="cls-4" d="M165.1,106.5h0a122.28,122.28,0,0,0-22.62-7.16,130.19,130.19,0,0,0-27.22-2.85,127,127,0,0,0-47,8.85q-4.43,1.75-8.61,3.83c.26-1,.53-2,.84-3,0-.19.11-.38.17-.57.18-.59.37-1.18.57-1.76l.3-.88c.1-.29.2-.58.31-.87.21-.6.44-1.2.67-1.8.09-.21.17-.42.25-.64l.29-.72c.1-.25.21-.5.32-.74.57-1.38,1.18-2.73,1.84-4.07l.39-.8c.52-1,1.06-2.08,1.63-3.11l.51-.9c.15-.28.31-.55.47-.82s.45-.78.69-1.16.33-.56.5-.83l.58-.92c.13-.22.28-.43.42-.65l.14-.22c.14-.22.29-.44.44-.66a2.33,2.33,0,0,1,.17-.26l.41-.61.71-1,.62-.87.13-.18c.19-.26.37-.52.57-.77,1.23-1.67,2.53-3.3,3.88-4.89v0A6.75,6.75,0,0,1,80,73.63a77.92,77.92,0,0,1,25.65-5.76c1.46-.07,2.93-.11,4.41-.11,1.81,0,3.61,0,5.39.18a8,8,0,0,0,4.85-7,8,8,0,0,0-5-7.12,10.65,10.65,0,0,0-3-.87q-2.53-.7-5.13-1.31a129.48,129.48,0,0,0-29.6-3.39c-2.48,0-5,.07-7.39.21h0a128.64,128.64,0,0,0-13.62,1.48,11.53,11.53,0,0,1,.58,3.62c0,5-3.17,9.28-7.9,11.63-5.58-1.71-9.71-5.93-10.46-11-.55.17-1.11.35-1.66.54-1.3.43-2.6.88-3.88,1.36l-1,.38c0-.41,0-.83,0-1.24A47.8,47.8,0,0,1,33.3,44.86a24.62,24.62,0,0,0,4.38,1.4,26.63,26.63,0,0,0,5.64.6,26.05,26.05,0,0,0,3.88-.29,23.7,23.7,0,0,0,11.15-4.64,17.27,17.27,0,0,0,7.12-13.62c0-6.61-4.13-12.41-10.33-15.69l-.3-.16a24.07,24.07,0,0,0-5.71-2.06A122.65,122.65,0,0,1,71.29,3.75,130.34,130.34,0,0,1,97,1.21c28.46,0,54.39,9.07,73.88,24a94.89,94.89,0,0,1,6.84,27.76C179.7,74.85,174.81,92.63,165.1,106.5Z"/><path class="cls-4" d="M121.58,94.65c-.52-1-1.06-2.08-1.63-3.11l-.51-.9-.47-.82c-.22-.39-.45-.77-.69-1.16l-.5-.83c-.19-.3-.38-.61-.58-.91s-.27-.44-.42-.66l-.14-.21-.44-.67-.17-.26-.41-.61-.71-1-.62-.87-.13-.18-.56-.77q-1.86-2.51-3.89-4.89a0,0,0,0,1,0,0A6.77,6.77,0,0,0,107.15,75,77.91,77.91,0,0,0,81.5,69.21q-2.19-.12-4.41-.12c-1.81,0-3.61.06-5.39.18a8,8,0,0,1-4.85-7,8,8,0,0,1,5-7.11,10.65,10.65,0,0,1,3-.87Q77.4,53.55,80,53a129.48,129.48,0,0,1,29.6-3.38c2.48,0,5,.06,7.39.2h0a131.31,131.31,0,0,1,13.62,1.48,11.59,11.59,0,0,0-.58,3.63c0,4.94,3.17,9.27,7.9,11.62,5.58-1.71,9.71-5.93,10.46-11l1.66.54c1.3.43,2.6.89,3.88,1.37l1,.37c0-.41,0-.83,0-1.24a48.43,48.43,0,0,0-1.12-10.33,25.15,25.15,0,0,1-4.38,1.4,26.32,26.32,0,0,1-9.53.32,23.9,23.9,0,0,1-11.15-4.64,17.29,17.29,0,0,1-7.12-13.63C121.67,23,125.8,17.23,132,14l.3-.16A24.07,24.07,0,0,1,138,11.73a122.65,122.65,0,0,0-22.16-6.65A130.34,130.34,0,0,0,90.14,2.54c-28.46,0-54.39,9.08-73.88,24A95,95,0,0,0,9.42,54.27C7.44,76.19,12.33,94,22,107.83h0a122.26,122.26,0,0,1,22.62-7.15,129.52,129.52,0,0,1,27.22-2.86"/><path class="cls-3" d="M121.43,60.49a8.64,8.64,0,0,1-4.94,7.62c-1.81-.13-3.64-.19-5.49-.19-1.51,0-3,0-4.49.13A74.93,74.93,0,0,0,80.37,74.3a6.79,6.79,0,0,0-2.6,2h0q-2.07,2.6-4,5.31l-.58.84-.13.2c-.21.31-.42.63-.64.94s-.47.74-.71,1.11l-.42.66-.18.28-.45.72-.14.24-.43.71c-.2.33-.39.66-.58,1s-.35.6-.52.9-.47.84-.7,1.26l-.48.89-.52,1c-.57,1.12-1.13,2.24-1.66,3.38-.14.29-.27.58-.4.86C64.59,98,64,99.47,63.38,101c-.11.27-.21.54-.31.81s-.2.53-.3.79-.17.46-.25.69q-.36,1-.69,2c-.11.32-.22.64-.31,1s-.21.63-.31.95c-.2.64-.4,1.28-.58,1.92l-.18.61c-.31,1.08-.59,2.17-.86,3.26a89.94,89.94,0,0,0-2.53,21.24c0,1.35,0,2.7.09,4v.29a90.91,90.91,0,0,0,1,9.68c.15,1,.32,1.9.5,2.85a91.54,91.54,0,0,0,9.62,26.73l.19.35a94.42,94.42,0,0,0,5.09,8.23,110.16,110.16,0,0,1-44.51-33l0-.05-.53-.67a99.71,99.71,0,0,1-5.8-8.26h0c-.58-.93-1.15-1.86-1.7-2.81h0a90.87,90.87,0,0,1-12.5-45.9A89.65,89.65,0,0,1,13,67.41,8,8,0,0,1,16.66,63q2.18-1.28,4.41-2.45c1.46-.77,2.95-1.52,4.46-2.23q3-1.43,6.13-2.7l1-.41c1.31-.52,2.63-1,4-1.48l1.69-.59c.76,5.53,5,10.11,10.66,12a14.44,14.44,0,0,0,8.06-12.62,13.19,13.19,0,0,0-.6-3.94,123.24,123.24,0,0,1,13.88-1.61h0q3.74-.22,7.53-.22a124.84,124.84,0,0,1,30.17,3.67q2.64.66,5.22,1.43c1,.31,2,.62,3,1A8.7,8.7,0,0,1,121.43,60.49Z"/><path class="cls-3" d="M66,25.27a24.2,24.2,0,0,1-8,18A24.94,24.94,0,0,1,45.4,49.37,25.53,25.53,0,0,1,34.67,49a25,25,0,0,1-8.77-4.2,24.86,24.86,0,0,1-4.32-4.13,24.32,24.32,0,0,1-2.7-4,24,24,0,0,1-2.82-11.31c0-.75,0-1.49.11-2.22A25,25,0,0,1,45.35,1.15q1.13.2,2.22.48A25,25,0,0,1,54,4.36l.33.2A24.35,24.35,0,0,1,66,25.27Z"/></svg>