<svg id="Capa_1" data-name="Capa 1" xmlns="http://www.w3.org/2000/svg" xmlns:xlink="http://www.w3.org/1999/xlink" viewBox="0 0 500 370"><defs><style>.cls-1{fill:#bad1c9;}.cls-2{fill:#9bd9d9;}.cls-3{fill:#6ec5c8;}.cls-4{fill:#6fb6ab;}.cls-5{stroke:#000;stroke-width:3px;fill:url(#vb_2);}.cls-14,.cls-5{stroke-miterlimit:10;}.cls-6{fill:#99baae;}.cls-7{fill:url(#Degradado_sin_nombre_6);}.cls-8{fill:url(#Degradado_sin_nombre_5);}.cls-9{fill:url(#Degradado_sin_nombre_4);}.cls-10{fill:#84d4ce;}.cls-11{fill:#6d857c;}.cls-12,.cls-14{fill:#69c2c1;}.cls-13{fill:#2e6557;}.cls-14{stroke:#6fb6ab;stroke-width:0.25px;}.cls-15{fill:#003426;}</style><radialGradient id="vb_2" cx="243.34" cy="170.06" r="60.18" gradientTransform="matrix(1, -0.03, 0.02, 0.7, -3.9, 58.61)" gradientUnits="userSpaceOnUse"><stop offset="0" stop-color="#eef3f1"/><stop offset="1" stop-color="#bad1c9"/></radialGradient><linearGradient id="Degradado_sin_nombre_6" x1="247.01" y1="231.05" x2="247.01" y2="215" gradientUnits="userSpaceOnUse"><stop offset="0" stop-color="#bad1c9"/><stop offset="0.31" stop-color="#b8cfc7"/><stop offset="0.42" stop-color="#b1c8c0"/><stop offset="0.5" stop-color="#a6bdb5"/><stop offset="0.56" stop-color="#95aca4"/><stop offset="0.62" stop-color="#7f978e"/><stop offset="0.65" stop-color="#6d857c"/></linearGradient><linearGradient id="Degradado_sin_nombre_5" x1="122.34" y1="240.9" x2="315.35" y2="240.9" gradientUnits="userSpaceOnUse"><stop offset="0" stop-color="#2e6557"/><stop offset="0.52" stop-color="#2d6356"/><stop offset="0.71" stop-color="#295c53"/><stop offset="0.84" stop-color="#22514e"/><stop offset="0.89" stop-color="#1f4b4b"/></linearGradient><linearGradient id="Degradado_sin_nombre_4" x1="127.34" y1="247.4" x2="364.34" y2="247.4" gradientUnits="userSpaceOnUse"><stop offset="0" stop-color="#69c2c1"/><stop offset="0.32" stop-color="#68bfbf"/><stop offset="0.51" stop-color="#64b7b6"/><stop offset="0.66" stop-color="#5ea9a8"/><stop offset="0.8" stop-color="#559594"/><stop offset="0.92" stop-color="#497b7a"/><stop offset="1" stop-color="#406666"/></linearGradient></defs><rect class="cls-1" x="78.34" y="13.15" width="316.81" height="3.21"/><rect class="cls-2" x="105.34" y="27.4" width="125" height="155"/><rect class="cls-2" x="240.34" y="28.4" width="125" height="154"/><rect class="cls-3" x="174.34" y="27.4" width="56" height="155"/><rect class="cls-2" x="210.34" y="27.4" width="12" height="26"/><rect class="cls-2" x="210.34" y="57.4" width="12" height="36"/><rect class="cls-2" x="210.34" y="99.4" width="12" height="32"/><rect class="cls-2" x="210.34" y="137.4" width="12" height="31"/><rect class="cls-2" x="210.34" y="173.4" width="12" height="9"/><rect class="cls-4" x="105.34" y="114.4" width="86" height="8"/><rect class="cls-2" x="105.34" y="121.4" width="85" height="61"/><rect class="cls-4" x="157.34" y="126.4" width="29" height="56"/><rect class="cls-4" x="124.34" y="126.4" width="29" height="56"/><rect class="cls-4" x="105.34" y="126.4" width="15" height="56"/><path class="cls-3" d="M152.34,27.4c0,23.21-21,42-47,42v-42Z"/><rect class="cls-3" x="240.34" y="64.4" width="96" height="118"/><rect class="cls-2" x="240.34" y="70.4" width="19" height="13"/><rect class="cls-2" x="266.34" y="70.4" width="42" height="13"/><rect class="cls-2" x="314.34" y="70.4" width="19" height="13"/><rect class="cls-4" x="240.34" y="58.4" width="103" height="6"/><rect class="cls-2" x="240.34" y="87.4" width="19" height="13"/><rect class="cls-2" x="266.34" y="87.4" width="42" height="13"/><rect class="cls-2" x="314.34" y="87.4" width="19" height="13"/><rect class="cls-2" x="240.34" y="105.4" width="19" height="13"/><rect class="cls-2" x="266.34" y="105.4" width="42" height="13"/><rect class="cls-2" x="314.34" y="105.4" width="19" height="13"/><rect class="cls-2" x="240.34" y="123.4" width="19" height="13"/><rect class="cls-2" x="266.34" y="123.4" width="42" height="13"/><rect class="cls-2" x="314.34" y="123.4" width="19" height="13"/><rect class="cls-2" x="240.34" y="142.4" width="19" height="13"/><rect class="cls-2" x="266.34" y="142.4" width="42" height="13"/><rect class="cls-2" x="314.34" y="142.4" width="19" height="13"/><rect class="cls-2" x="240.34" y="160.4" width="19" height="13"/><rect class="cls-2" x="266.34" y="160.4" width="42" height="13"/><rect class="cls-2" x="314.34" y="160.4" width="19" height="13"/><rect class="cls-2" x="240.34" y="179.4" width="19" height="3"/><rect class="cls-2" x="266.34" y="179.4" width="42" height="3"/><rect class="cls-2" x="314.34" y="179.4" width="19" height="3"/><ellipse class="cls-4" cx="250.84" cy="343.9" rx="241.5" ry="13.5"/><rect class="cls-5" x="183.34" y="127.4" width="128" height="86" rx="7.83"/><path class="cls-6" d="M212.34,237.9s1.54-10.5,5.11-10.5h59.28c3.58,0,5.11,10.5,5.11,10.5Z"/><path class="cls-7" d="M230.82,214.4h32.54s6.48,12.5,1,15-31.5,2.5-35.5,0S230.82,214.4,230.82,214.4Z"/><rect class="cls-8" x="122.34" y="236.4" width="247" height="9"/><rect class="cls-9" x="127.34" y="245.4" width="237" height="4"/><polygon class="cls-10" points="356.09 249.4 361.34 249.4 368.34 341.4 362.34 341.4 356.09 249.4"/><polygon class="cls-4" points="349.34 249.65 356.34 249.4 362.34 341.4 360.34 341.4 349.34 249.65"/><polygon class="cls-10" points="311.47 249.4 317.34 249.52 323.34 341.4 317.34 341.4 311.47 249.4"/><polygon class="cls-4" points="304.72 249.4 311.34 249.4 317.34 341.4 315.34 341.4 304.72 249.4"/><polygon class="cls-10" points="139.97 249.4 134.72 249.4 127.72 341.4 133.72 341.4 139.97 249.4"/><polygon class="cls-4" points="146.72 249.65 139.72 249.4 133.72 341.4 135.72 341.4 146.72 249.65"/><polygon class="cls-10" points="184.59 249.4 178.72 249.52 172.72 341.4 178.72 341.4 184.59 249.4"/><polygon class="cls-4" points="191.34 249.4 184.72 249.4 178.72 341.4 180.72 341.4 191.34 249.4"/><rect class="cls-11" x="196.84" y="140.9" width="51.5" height="10"/><rect class="cls-11" x="196.34" y="154.4" width="52" height="10"/><rect class="cls-11" x="196.34" y="168.4" width="104" height="33"/><rect class="cls-11" x="252.34" y="140.4" width="47" height="24"/><path class="cls-12" d="M151,256.27h89.61c5.75,0,4.6,9,4.6,10.07H151Z"/><path class="cls-13" d="M151,260.74h89.14c6.29.78,7.1,10.83,1.16,13.43H158c-3.38-1.25-6-3.38-7-7.32Z"/><path class="cls-14" d="M203.48,223.23l-48.54.12a8.94,8.94,0,0,1-9.07-8.78l0-13.71a9,9,0,0,1,9-8.82l43.27-.64c11.48,0,13.78,12.3,13.78,16.77v6.72A8,8,0,0,1,203.48,223.23Z"/><path class="cls-13" d="M164.85,212.1c0-2.81,2.25-2.81,3.34-1.11,2.35,3.9,7.93,42.28,2.22,60.94H166C171.54,252.13,166,214.9,164.85,212.1Z"/><path class="cls-13" d="M189,211c0-2.81,2.25-2.81,3.34-1.11,2.36,3.9,7.93,42.28,2.23,60.94h-4.45C195.66,251,190.17,213.78,189,211Z"/><rect class="cls-13" x="184.33" y="282" width="11.49" height="33.56"/><path class="cls-15" d="M164.23,274.17h50.65a1,1,0,0,1,1,1v3.56a1,1,0,0,1-1,1h-5.29a1.05,1.05,0,0,0-.87.45L207,282.66a1,1,0,0,1-.87.45h-32a1,1,0,0,1-1-.69l-.67-2a1.05,1.05,0,0,0-1-.69h-6.25a1,1,0,0,1-1-1v-4.57"/><path class="cls-15" d="M183.18,315.55q5.9-4.05,12.64,0l25.27,21.25h-1.15c-10.3-6.77-20.31-12.88-29.87-17.89-9.38,5.23-19,11.26-28.72,17.89h-1.14Z"/><ellipse class="cls-15" cx="159.63" cy="338.48" rx="4.02" ry="3.91"/><ellipse class="cls-15" cx="221.67" cy="338.48" rx="4.02" ry="3.91"/></svg>