<svg id="b4f7fccd-2897-41ae-a0f6-b3c11d2b3075" data-name="Capa 1" xmlns="http://www.w3.org/2000/svg" viewBox="0 0 1000 740"><defs><style>.e9fa8aa6-51da-4365-ab96-3e64c2396d80{fill:#52cac9;}.fb7b90d1-e700-4e4a-863a-710a686fd7b8{fill:#001e21;}.a96723d5-0531-43b9-a783-7f6e8bf1a575{fill:#00191d;}.f5fcbe5f-7902-4478-b8a5-c909ffd78da1{fill:#092b2f;}.fbc81590-15ed-499c-8a9a-f9ad87b18294{fill:#cdcdcd;}.b27a586f-d2a4-41da-aff4-4452a49d3bc3{fill:#001c20;}.a5a8c80e-7991-4943-a4b0-4651746454ed{fill:#0e3135;}.b809cd7d-6ce2-4a87-81c8-4f2b5da09ce4{fill:#00070c;}.f7833529-47c9-4c74-ab19-c605eed58925{fill:#2678a2;}.a25d315e-1331-49e8-a240-50d5f456d3ca{fill:#242e6d;}.ae15dc68-1b6c-41c5-a33e-d91f6610ab6d{fill:#63341a;}.ead7497c-3fd0-458d-8754-5cd8df8db947{fill:#f6aca0;}.b5ae96cb-bb0c-48d0-ac0e-80359295947e{fill:#f3938d;}.a58eb4cd-bacf-4a40-9993-84235136bf34{fill:#f6ada3;}.f0171139-8b9b-4534-9dd8-07b823c756b6{fill:#12c8b6;}.a4d93511-ca36-41cf-b630-d00ba713363c{fill:#269ba7;}.afd096cf-27a6-4f62-af1f-76a29a1d86b3{fill:#f1867c;}.ad89b585-8872-4a96-9e3c-e26ed5bba825{fill:#f29499;}.ea908089-5aa8-4dfa-8b5c-9ba46a0f8339{fill:#7f3f2e;}.fba5f262-1e87-4da9-8db2-c857ca812e5e{fill:#ed6d7a;}.e724d36b-5446-413e-a489-6d886c9ee7de{fill:#fff;}.ae981af0-eaa3-44ac-b937-50d9d447c686{fill:#b7c01f;}.aff0bbac-4cf4-4dc7-8932-25b10934ebc0{fill:#e6456c;}.e78a9277-1868-451b-8c70-679cdab76e27{fill:#fdeee5;}.ba6b9189-86a8-41f3-a6dd-86f0052fb5dd{fill:#f49983;}.f29e67fd-f6d1-4347-b29f-debd94e877eb{fill:#6cdfe9;}.bd66f9c7-b040-4fe2-ad4c-407f40a3f0e3{fill:#f5a38c;}.a84e2310-32db-4b71-9159-dc1e55cb8c53{fill:#f07a65;}.a124557c-1744-4ef7-818c-524a58487870{fill:#481b0e;}.eb23d327-4b4e-4b4c-9478-38069b3cc61a{fill:#f38f80;}.f6be1e4d-f04d-448a-ba67-194d35420f27{fill:#3f1608;}.f283c8aa-0815-4c34-887b-7a29ae65368f{fill:#632a1d;}.b3a15031-fe78-4fd6-afe6-b3bd8d5a5f3a{fill:#39cfdb;}.ec52ade6-29ba-42cd-9ef7-49d3e013200a{fill:#64d9d7;}.a4c86c97-e6e9-47be-9e2e-0d424298498a{fill:#fffffb;}.b0450c5a-01b6-43f0-b942-76e4e5d25a32{fill:#e74333;}.fb1000c0-b4d5-4655-87f7-ffb974b0c2d5{fill:#202455;}.a19fc11c-78c9-445e-9506-ad3dd9dd4da5{fill:#bf5e4a;}.a43f7732-c77d-4b0c-8e89-b5141a3f9fe4{fill:#ae443f;}.f7b6b09c-a474-4404-bc99-f268fadf6dc8{fill:#131138;}.b5b2b4cb-fb7c-43fb-a697-9f1f015c8347{fill:#03667f;}.e43fbb7e-2efb-4d1d-9e54-321c52eab2b0{fill:#02718c;}.ac8867a6-bdc6-419a-bba5-8c68bde7c797{fill:#c04239;}.a5699638-d602-405c-a368-9ecf0713dfbf{fill:#585d80;}.bdc6262b-1384-474b-b46a-aa6d6ce67887{fill:#45496f;}.be386e67-8ed4-4497-a0a2-c0c3b08b900c{fill:#4ea3c3;}.a5300499-e24e-4e7c-8180-5970a14ea362{fill:#0086a6;}.a560ca40-982a-4712-9838-96bb6415a61f{fill:#00bccb;}.a2164ee6-5a8f-412f-8dbc-bbbcb8925503{fill:#99cde2;}.b45a9d84-bf09-46fa-a80a-ff9937a3f302{fill:#b7d4d7;}.ae2302ad-c434-4b6a-b9be-c933ec74accb{fill:#00b189;}.a35e5af8-66b3-451e-9d21-e07fde2b1f8f{fill:#006c5b;}.ad983f8e-0f19-40bb-9436-489e2e5d9388{fill:#f5a395;}.a834da66-632e-4fd9-b6de-dff31d3c4681{fill:#007958;}.f07b6db3-0a12-4ec8-b6a0-a59667aad4ea{fill:#371713;}.b26d7b1b-ad88-46c9-be0d-75c7444d2661{fill:#002f22;}.ba83cf54-1869-45fb-a514-20b2a16f6a85{fill:#fbd5cc;}.a7eecd61-9234-4db7-8a16-b5d6f5e58763{fill:#722524;}.b63c9722-ff75-4cdd-aae9-604f4ea4adfc{fill:#11083c;}.fc036b09-9bc8-491d-a651-3286d947eb5b{fill:#22263d;}.bcdc0142-8f31-48d9-ad4d-c4cc008dc503{fill:#9fd0d5;}.f1cb81c5-dc01-4cd1-8731-04de9da6d5c1{fill:#c6ebf0;}.b8442202-34d4-4341-a8b5-a144ca75e2bb{fill:#233139;}.afb9f653-6804-4a13-9482-2c3274bcfb4d{fill:#0f0f23;}.a9f61684-4448-454f-beeb-c9aef5fff413{fill:#303857;}.aaeaed65-5bba-4e15-a536-cd59192238e0{fill:#262b44;}</style></defs><ellipse class="e9fa8aa6-51da-4365-ab96-3e64c2396d80" cx="498.747" cy="647.6567" rx="494.7089" ry="75.5566"/><path class="fb7b90d1-e700-4e4a-863a-710a686fd7b8" d="M665.9238,304.8869l.1625-129.6628c.5444-13.7881-7.3773-11.9866-7.3773-11.9866s-7.1976-2.5113-8.64,12.97L631.4435,304.8869Z"/><path class="fb7b90d1-e700-4e4a-863a-710a686fd7b8" d="M665.9238,304.8869h9.6348s6.24,1.2913,6.1942,7.5711H601.2363s.5445-7.9274,8.0984-7.5711Z"/><rect class="a96723d5-0531-43b9-a783-7f6e8bf1a575" x="786.0744" y="91.036" width="5.5357" height="189.5158"/><rect class="f5fcbe5f-7902-4478-b8a5-c909ffd78da1" x="516.2074" y="91.036" width="269.867" height="189.5015"/><rect class="fbc81590-15ed-499c-8a9a-f9ad87b18294" x="525.0754" y="98.5728" width="252.1394" height="174.425"/><path class="b27a586f-d2a4-41da-aff4-4452a49d3bc3" d="M672.1038,81.5494a11.7579,11.7579,0,0,1-11.6417,11.6388c-13.7938.3534-17.1974-5.5757-17.1974-12.0065,0-6.4223.8923-13.2523,17.1974-11.2825C666.8473,70.6717,672.1038,75.11,672.1038,81.5494Z"/><path class="a5a8c80e-7991-4943-a4b0-4651746454ed" d="M662.7881,81.5551a11.64,11.64,0,1,1-11.6444-11.6388A11.65,11.65,0,0,1,662.7881,81.5551Z"/><path class="b809cd7d-6ce2-4a87-81c8-4f2b5da09ce4" d="M656.6994,81.5551a5.5543,5.5543,0,1,1-5.5557-5.5443A5.5493,5.5493,0,0,1,656.6994,81.5551Z"/><rect class="f7833529-47c9-4c74-ab19-c605eed58925" x="530.4401" y="108.373" width="73.2277" height="77.5805"/><rect class="a25d315e-1331-49e8-a240-50d5f456d3ca" x="530.4401" y="108.373" width="73.2277" height="6.3482"/><path class="ae15dc68-1b6c-41c5-a33e-d91f6610ab6d" d="M559.2933,137.4286a15.7657,15.7657,0,0,0,.8694,10.9148c1.2486,3.0244,2.939,5.57,3.626,8.8851.6727,3.2383-.3592,5.6755-1.4453,8.6543-.9378,2.557-1.411,6.0546.9236,8.1041,2.5883,2.2748,8.3521,1.4966,11.482,1.26,3.6459-.2678,7.58-.0769,11.1143-1.1316,3.0586-.915,4.9428-3.8254,5.6555-6.8441a12.9176,12.9176,0,0,0-2.5569-10.9832c-2.0924-2.7736-5.12-4.6578-3.1756-8.4092,1.06-2.0466,2.7422-3.2467,3.0074-5.6754a14.9488,14.9488,0,0,0-1.4025-7.6c-2.765-6.3709-9.0733-11.4506-15.9146-10.8149a14.2252,14.2252,0,0,0-7.6537,3.8483C561.4284,130.1512,560.234,134.1819,559.2933,137.4286Z"/><path class="ead7497c-3fd0-458d-8754-5cd8df8db947" d="M560.3338,185.9535c1.8357-6.4365,3.2753-13.1438,3.2753-13.1438,2.8961-11.8469-2.3147-14.2527-2.3147-14.2527a17.5087,17.5087,0,0,0-6.1429,5.262c-1.0633,4.5751-2.6168,16.14-3.395,22.1345Z"/><path class="ead7497c-3fd0-458d-8754-5cd8df8db947" d="M553.7262,185.9535a49.0715,49.0715,0,0,0-2.4059-4.367c-3.375-5.416-8.13-16.9807-8.13-16.9807l-2.5256.4418a124.94,124.94,0,0,0,5.1054,20.9059Z"/><polygon class="ead7497c-3fd0-458d-8754-5cd8df8db947" points="586.017 185.954 590.316 159.244 576.525 154.141 569.307 154.141 561.845 157.633 562.677 185.954 586.017 185.954"/><path class="ead7497c-3fd0-458d-8754-5cd8df8db947" d="M568.3923,154.5918h9.1189v-10.9h-9.1189S569.3643,152.2772,568.3923,154.5918Z"/><path class="b5ae96cb-bb0c-48d0-ac0e-80359295947e" d="M568.8227,151.2253a14.0579,14.0579,0,0,0,8.6885-.5587v-6.9753h-9.1189A70.5174,70.5174,0,0,1,568.8227,151.2253Z"/><path class="a58eb4cd-bacf-4a40-9993-84235136bf34" d="M563.592,137.879c-.0086,3.1784.51,8.74,2.7023,10.7637,2.6652,2.4515,11.2169-.268,12.1148-4.0335.9635-4.0392,3.0045-8.8225,2.269-12.77a7.95,7.95,0,0,0-9.8115-6.28C566.2915,126.6992,563.6034,133.7173,563.592,137.879Z"/><path class="a58eb4cd-bacf-4a40-9993-84235136bf34" d="M582.1149,137.36c1.06,1.4224-.6443,4.9114-3.2982,5.7353-.5159-.77-.4788-2.7651-.4218-3.68a4.074,4.074,0,0,1,1.4651-2.2833A1.6143,1.6143,0,0,1,582.1149,137.36Z"/><path class="ae15dc68-1b6c-41c5-a33e-d91f6610ab6d" d="M575.6526,134.5268c1.0177.55.9208,1.9925,1.183,2.6966a2.3608,2.3608,0,0,0,2.3973,1.8244,2.406,2.406,0,0,1,1.8843-2.07c.8522-.0143,1.0774.5416,1.3083,1.1231a18.0677,18.0677,0,0,0,.5017-4.8573,19.9868,19.9868,0,0,0-.9093-3.5518c-.3591-1.2543-.9692-1.5422-1.9013-2.46-.8751-.8637-1.9127-.9407-2.805-1.6419a2.5649,2.5649,0,0,0-.7211.8694c-.61.7183-2.4373,3.6829-2.7707,4.1418C573.82,130.6016,572.2234,132.68,575.6526,134.5268Z"/><path class="ae15dc68-1b6c-41c5-a33e-d91f6610ab6d" d="M573.4833,131.0833l3.8283-5.4929c-1.2713-1.8329-6.04-1.6049-6.0431-1.6049-4.98.1539-9.4039,4.997-8.831,9.9683a9.024,9.024,0,0,0,1.1545,3.9252c.419-5.0853,1.3511-5.339,1.73-5.5813a9.9749,9.9749,0,0,0,5.0512-.191,19.5616,19.5616,0,0,0,3.4464-1.5051"/><path class="f0171139-8b9b-4534-9dd8-07b823c756b6" d="M559.7723,178.5079a33.64,33.64,0,0,1,.9862,7.4456h25.7233l-.0227-1.6419,2.383-8.5858c-4.119-5.9035-8.1411-13.0441-1.14-17.4739-.08-.0314-.1653-.0541-.248-.0855-2.1892-.8181-6.34-2.4059-8.5317-3.2155-5.7581,6.24-12.1034.3507-12.1034.3507l-4.9742,2.3317-2.0723,4.9857c-.841,2.1777-2.9789,7.3173-2.5655,9.5037C557.6942,174.6511,558.7575,176.1249,559.7723,178.5079Z"/><path class="a4d93511-ca36-41cf-b630-d00ba713363c" d="M573.1841,158.0666c-1.9014,0-4.8118-.7554-5.7325-1.9925a.2782.2782,0,0,1,.0541-.39.2811.2811,0,0,1,.3906.0542c.8808,1.1829,4.4554,2.0409,6.12,1.7046a8.1868,8.1868,0,0,0,4.3728-2.1465.2892.2892,0,0,1,.4019,0,.2826.2826,0,0,1,0,.3877,8.7143,8.7143,0,0,1-4.6949,2.3146A5.3161,5.3161,0,0,1,573.1841,158.0666Z"/><path class="afd096cf-27a6-4f62-af1f-76a29a1d86b3" d="M580.205,141.1886a.3234.3234,0,0,1-.2765-.1626.3175.3175,0,0,1,.12-.4275,1.972,1.972,0,0,0,.7781-1.1745,1.6188,1.6188,0,0,0-.0655-1.2456.3309.3309,0,0,1,.1226-.4362.3244.3244,0,0,1,.4247.1226,2.2626,2.2626,0,0,1,.1255,1.7275,2.6088,2.6088,0,0,1-1.0776,1.5563A.3505.3505,0,0,1,580.205,141.1886Z"/><path class="afd096cf-27a6-4f62-af1f-76a29a1d86b3" d="M580.9718,139.7975a.3354.3354,0,0,1-.2167-.0856.7829.7829,0,0,0-.5957-.1909.3206.3206,0,0,1-.3364-.2965.3159.3159,0,0,1,.2936-.3364,1.4336,1.4336,0,0,1,1.0661.3592.3205.3205,0,0,1,.0228.4419A.3261.3261,0,0,1,580.9718,139.7975Z"/><path class="ead7497c-3fd0-458d-8754-5cd8df8db947" d="M540.6337,153.5314c-1.736.0684.3677,4.558.3563,5.49-.4077-1.0519-1.659-5.1937-2.8107-5.1025-.6813.1226.9493,3.6458,1.1146,4.3556-.362-.5729-1.4282-3.0786-2.2006-2.8334-.4988.3107.69,2.6795.9264,3.4662-.1568-.1453-1.2543-2.3516-1.5963-1.9555-.3649.3592.1625,2.01.4875,2.805,1.4565,3.6031,2.9646,7.6281,5.0825,6.0175,1.5849-1.2143,2.4258-1.9241,3.1071-7.6223.1169-.9778-1.5137-.2082-2.1636,1.696C542.4951,159.6173,540.8475,153.5143,540.6337,153.5314Z"/><path class="afd096cf-27a6-4f62-af1f-76a29a1d86b3" d="M542.5891,160.9941c.0343-.04.077-.0769.1141-.1169.1225-.1282-.248-.1824-.3307-.0969-.0456.0456-.08.0969-.1225.1454.1368-.0085.2678-.0171.3961-.0256a.4971.4971,0,0,0-.4988-.0685c-.1.0456-.18.2-.2423.2908-.08.1226-.2594.1539-.3506.2594a2.0648,2.0648,0,0,0,.0513,2.1921c.0941.1539.6328.1539.5673-.0684a4.2312,4.2312,0,0,1-.3051-1.488.772.772,0,0,1,.3821-.6271.5948.5948,0,0,0,.1681-.2c.1254-.2137.0912-.0741-.1083-.16.0827.0371.3079.06.3592-.0456a1.2733,1.2733,0,0,0,.0541-.1311c.0456-.1454-.3306-.1682-.3649-.0513-.017.0456-.0313.0912-.0427.1283-.04.1139.2223.1139.2736.0626Z"/><path class="ad89b585-8872-4a96-9e3c-e26ed5bba825" d="M570.4276,140.2251c0,.419.801.7553,1.7873.7553s1.7873-.3363,1.7873-.7553-.8011-.7554-1.7873-.7554S570.4276,139.806,570.4276,140.2251Z"/><path class="ad89b585-8872-4a96-9e3c-e26ed5bba825" d="M563.8685,140.2251c0,.419.6471.7553,1.4452.7553.79,0,1.4395-.3363,1.4395-.7553s-.65-.7554-1.4395-.7554C564.5156,139.47,563.8685,139.806,563.8685,140.2251Z"/><path class="ea908089-5aa8-4dfa-8b5c-9ba46a0f8339" d="M565.6386,137.3289c.3507.0228.6186.5131.5873,1.1088-.0143.5958-.3136,1.0548-.667,1.032-.3478-.0228-.6158-.5217-.5929-1.1174C564.9887,137.7651,565.2909,137.3,565.6386,137.3289Z"/><path class="ea908089-5aa8-4dfa-8b5c-9ba46a0f8339" d="M571.7445,137.3232c.3507.0285.6158.5188.5958,1.1145-.0228.5873-.325,1.0548-.6755,1.032-.3478-.0228-.6158-.5274-.593-1.1174C571.0946,137.7564,571.3968,137.3,571.7445,137.3232Z"/><path class="afd096cf-27a6-4f62-af1f-76a29a1d86b3" d="M568.1272,137.5142c.268.7925-.45,1.6333-.9549,2.1379-.2423.2451-.5616.61-.41.9863.3079.7554,1.3312,1.0746,2.0581,1.2286.0713.0142.5673.0313.45-.1767a.3581.3581,0,0,0-.5958,0c.1254-.0286.2508-.06.3791-.097-.8836-.1682-2.4714-.7582-1.5136-1.8329.4874-.5445,1.3141-1.4993.81-2.269-.037-.0542-.2508-.0628-.2223.0228Z"/><path class="fba5f262-1e87-4da9-8db2-c857ca812e5e" d="M568.4265,144.518a2.1328,2.1328,0,0,1-1.5735-.6813.2719.2719,0,0,1,0-.3877.2788.2788,0,0,1,.3934,0,1.8344,1.8344,0,0,0,2.4543.06.2835.2835,0,0,1,.3934.0456.2877.2877,0,0,1-.0456.399A2.7722,2.7722,0,0,1,568.4265,144.518Z"/><path class="ae15dc68-1b6c-41c5-a33e-d91f6610ab6d" d="M570.1,137.2091a.2857.2857,0,0,1-.2138-.1083.2743.2743,0,0,1,.037-.39,2.68,2.68,0,0,1,3.7058-.0456.2756.2756,0,0,1-.3478.4275,2.1393,2.1393,0,0,0-3.0073.0456A.2482.2482,0,0,1,570.1,137.2091Z"/><path class="ae15dc68-1b6c-41c5-a33e-d91f6610ab6d" d="M567.0383,137.1778a.3108.3108,0,0,1-.1768-.0627,2.08,2.08,0,0,0-2.5711-.305.2689.2689,0,0,1-.3791-.1.2776.2776,0,0,1,.0912-.3821,2.6706,2.6706,0,0,1,3.2125.3535.2705.2705,0,0,1,.0342.3877A.2516.2516,0,0,1,567.0383,137.1778Z"/><path class="ead7497c-3fd0-458d-8754-5cd8df8db947" d="M586.479,185.9535h8.54l.399-17.5821s.3706-8.6144-7.7164-10.1195c0,0-5.45,2.4344-2.8534,11.7015Z"/><path class="e724d36b-5446-413e-a489-6d886c9ee7de" d="M579.84,142.0038a.6243.6243,0,1,1-.6243-.6243A.6284.6284,0,0,1,579.84,142.0038Z"/><polygon class="f0171139-8b9b-4534-9dd8-07b823c756b6" points="585.898 185.954 585.219 173.947 558.886 175.98 557.922 185.954 585.898 185.954"/><path class="f0171139-8b9b-4534-9dd8-07b823c756b6" d="M586.65,157.8528s-4.3983,1.6277-3.8425,9.2272l1.1089,17.7989a22.0157,22.0157,0,0,0,13.7254-.9265l-1.9926-18.7736S594.7656,159.663,586.65,157.8528Z"/><path class="f0171139-8b9b-4534-9dd8-07b823c756b6" d="M562.315,157.297s-6.1858,1.602-8.1355,6.3311l-5.0056,10.5727s3.338,7.437,9.3925,8.6912l6.8813-14.33S568.8541,160.5666,562.315,157.297Z"/><path class="a4d93511-ca36-41cf-b630-d00ba713363c" d="M584.0161,183.4422a.282.282,0,0,1-.2822-.2537c-.1083-1.26-.2594-2.8562-.4247-4.5808-.3335-3.3922-.7041-7.249-.8238-9.7461-.1454-2.859-.4019-8.1753,2.8961-10.5356a.282.282,0,0,1,.3906.0628.2888.2888,0,0,1-.0685.39c-3.0557,2.1836-2.7963,7.3-2.6652,10.0511.1255,2.4885.496,6.3311.8238,9.7232.1682,1.7246.3221,3.338.4276,4.5894a.2776.2776,0,0,1-.2565.2993Z"/><path class="e724d36b-5446-413e-a489-6d886c9ee7de" d="M592.18,111.4431a1.7146,1.7146,0,1,1-1.71-1.716A1.71,1.71,0,0,1,592.18,111.4431Z"/><path class="ae981af0-eaa3-44ac-b937-50d9d447c686" d="M596.9177,111.4431a1.716,1.716,0,1,1-1.7131-1.716A1.7092,1.7092,0,0,1,596.9177,111.4431Z"/><path class="aff0bbac-4cf4-4dc7-8932-25b10934ebc0" d="M601.6582,111.4431a1.7161,1.7161,0,1,1-1.716-1.716A1.7135,1.7135,0,0,1,601.6582,111.4431Z"/><rect class="e78a9277-1868-451b-8c70-679cdab76e27" x="603.6678" y="108.373" width="73.2277" height="77.5805"/><rect class="a25d315e-1331-49e8-a240-50d5f456d3ca" x="603.6678" y="108.373" width="73.2277" height="6.3482"/><path class="e724d36b-5446-413e-a489-6d886c9ee7de" d="M665.4078,111.4431a1.7146,1.7146,0,1,1-1.71-1.716A1.7141,1.7141,0,0,1,665.4078,111.4431Z"/><path class="ae981af0-eaa3-44ac-b937-50d9d447c686" d="M670.1426,111.4431a1.7146,1.7146,0,1,1-1.71-1.716A1.7123,1.7123,0,0,1,670.1426,111.4431Z"/><path class="aff0bbac-4cf4-4dc7-8932-25b10934ebc0" d="M674.88,111.4431a1.7161,1.7161,0,1,1-1.7132-1.716A1.7147,1.7147,0,0,1,674.88,111.4431Z"/><path class="ba6b9189-86a8-41f3-a6dd-86f0052fb5dd" d="M624.9415,185.9535a76.7922,76.7922,0,0,1,2.6567-8.4632s-4.1618-13.7083-11.4336-2.443c0,0-.5045,4.3471-.8409,10.9062Z"/><path class="f29e67fd-f6d1-4347-b29f-debd94e877eb" d="M621.3013,185.9535l6.3652-16.6956s3.9965-10.9547-.9321-17.3c0,0-6.0631,1.42-12.4341,15.5041l-4.5066,8.8453,9.2842,9.6462Z"/><polygon class="bd66f9c7-b040-4fe2-ad4c-407f40a3f0e3" points="628.736 151.986 633.228 148.703 642.88 148.703 648.213 151.986 628.736 151.986"/><path class="ba6b9189-86a8-41f3-a6dd-86f0052fb5dd" d="M632.7862,150.5355H642.88V139.521H632.7862S633.8608,148.198,632.7862,150.5355Z"/><path class="a84e2310-32db-4b71-9159-dc1e55cb8c53" d="M642.88,144.518v-4.997H632.7862s.3049,2.4543.4275,5.0968A12.363,12.363,0,0,0,642.88,144.518Z"/><path class="a124557c-1744-4ef7-818c-524a58487870" d="M626.9767,130.7926a19.3464,19.3464,0,0,0,2.0211,5.0255c1.1374,1.6961,2.9817,1.947,3.985.0142a11.0874,11.0874,0,0,0,.898-6.0858c-.1112-1.069,1.582-4.866.6527-5.6612-1.4594-1.2458-6.103-1.4139-7.3458-.1682C626.0189,125.0772,626.5263,129.3417,626.9767,130.7926Z"/><path class="bd66f9c7-b040-4fe2-ad4c-407f40a3f0e3" d="M627.6752,133.5947a27.138,27.138,0,0,0,.4532,5.7438c.3706,1.9184.8038,5.4988,2.8619,6.4394a4.2511,4.2511,0,0,0,1.9356.3279,12.2433,12.2433,0,0,0,8.1269-3.643c3.7313-3.7343,4.4639-13.4347,1.3226-17.46-2.8677-3.6687-12.9671-2.6681-14.056,2.7565A33.848,33.848,0,0,0,627.6752,133.5947Z"/><path class="ba6b9189-86a8-41f3-a6dd-86f0052fb5dd" d="M627.6752,133.5947a27.138,27.138,0,0,0,.4532,5.7438c.3706,1.9184.8038,5.4988,2.8619,6.4394a4.2511,4.2511,0,0,0,1.9356.3279,12.2433,12.2433,0,0,0,8.1269-3.643c3.7313-3.7343,4.4639-13.4347,1.3226-17.46-2.8677-3.6687-12.9671-2.6681-14.056,2.7565A33.848,33.848,0,0,0,627.6752,133.5947Z"/><path class="a84e2310-32db-4b71-9159-dc1e55cb8c53" d="M641.8338,141.5306c3.03-4.2159,3.4463-12.8075.5416-16.5275a4.02,4.02,0,0,0-.5416-.5586l.63,7.7534-.63,2.3146Z"/><path class="ea908089-5aa8-4dfa-8b5c-9ba46a0f8339" d="M629.6876,133.9225a.4871.4871,0,1,1-.9521,0,.4881.4881,0,1,1,.9521,0Z"/><path class="ea908089-5aa8-4dfa-8b5c-9ba46a0f8339" d="M635.2491,134.1534a.4866.4866,0,1,1-.9521,0,.49.49,0,1,1,.9521,0Z"/><path class="eb23d327-4b4e-4b4c-9478-38069b3cc61a" d="M643.165,133.6944c.45-.4275.85-1.6276,1.65-1.2a2.322,2.322,0,0,0,.2509.0769c.3107.1369.3592.45.47.7184a6.73,6.73,0,0,1,.3221,1.4965c.0029.0228.0685.0228.0713,0,.1226-.8922-.0484-2.3374-.9777-2.7565a1.8422,1.8422,0,0,0-2.2947,1.5963c.0085.1825.4162.1511.5074.0684Z"/><path class="a84e2310-32db-4b71-9159-dc1e55cb8c53" d="M630.9219,140.2393c.51.5587,1.3654.4048,2.0553.4133a3.1076,3.1076,0,0,0,1.6646-.5273.1215.1215,0,0,0,.0371-.1454.4194.4194,0,0,1-.0228-.0769c-.0542-.16-.3962-.097-.496-.06a3.8278,3.8278,0,0,1-2.9132.2736c-.0742-.0371-.4675-.0371-.325.1226Z"/><path class="a124557c-1744-4ef7-818c-524a58487870" d="M641.5431,131.4254c.017.496.14,2.9247.2622,3.3608.12.4447.5416.5644.6812.2223.7355-.6641.6329-2.4515,1.8472-2.62,1.3055-.1853,1.565,1.7417,1.525,2.62a9.3139,9.3139,0,0,0,1.2971-3.8653c0-.6955.0114-2.3916,0-3.643a4.63,4.63,0,0,0-4.9144-4.7433,4.0421,4.0421,0,0,0-3.4149,2.061c-.6272,1.3539.2451,2.5,1.1316,3.4605C641.0613,129.4927,641.4518,129.7008,641.5431,131.4254Z"/><path class="ba6b9189-86a8-41f3-a6dd-86f0052fb5dd" d="M645.4454,132.5029c1.2628,1.2685.4618,4.9571-2.0808,6.1572-.6272-.7041-.6016-2.5912-.6642-3.5233a3.5369,3.5369,0,0,1,.4646-2.5512A1.6188,1.6188,0,0,1,645.4454,132.5029Z"/><path class="a84e2310-32db-4b71-9159-dc1e55cb8c53" d="M643.3788,135.0228c-.0257.1767-.1682.55-.0342.7041a1.0547,1.0547,0,0,0,.39.2594.6363.6363,0,0,0,.7554-.2908,2.5277,2.5277,0,0,0,.2337-.9549.757.757,0,0,0-.131-.6556.2605.2605,0,0,0-.2795,0c-.2536.2594-.1824.724-.2252,1.0518a1.2553,1.2553,0,0,1-.208.5958c-.0428.0456-.0513.0228.0513.0228.0941-.0057-.0257-.037-.0741-.0741-.1682-.1226-.1055-.4732-.12-.6585-.0086-.1226-.345-.1226-.3592,0Z"/><path class="a84e2310-32db-4b71-9159-dc1e55cb8c53" d="M644.1057,134.1677c.342-.4419.6784,0,.7582.3278a1.5978,1.5978,0,0,1,.02.6043,5.0252,5.0252,0,0,1-.47,1.1231c-.0343.1.18.1.2252.0684a1.65,1.65,0,0,0,.5786-2.1921c-.2879-.4418-1.1745-.5131-1.3911.0314-.0513.114.2281.1.2794.0371Z"/><path class="a84e2310-32db-4b71-9159-dc1e55cb8c53" d="M630.2121,132.0839c-.1.6556.1739,1.3654.0827,2.07a14.8912,14.8912,0,0,1-.9379,3.033c-.4675,1.2827,2.232,1.2286,2.8563,1.1145.4646-.0769.1368-.3591-.18-.3221a2.7,2.7,0,0,1-.6613.0314c-1.964-.0912-1.3369-.7868-1.0974-1.451a9.4474,9.4474,0,0,0,.6527-2.0467c.1226-.9178-.3734-1.582-.4419-2.4286-.0113-.1-.2593-.1-.2736,0Z"/><path class="f6be1e4d-f04d-448a-ba67-194d35420f27" d="M625.3491,122.1982a12.7724,12.7724,0,0,0,.3706,1.5593,5.9851,5.9851,0,0,0,4.5494,3.8653c1.69.3421,2.7793-.8551,4.3271-1.0633,1.4054-.1824,2.5314.7269,3.8283,1.0633,1.2657.3364,1.73.41,2.6966-.45a12.5309,12.5309,0,0,1,1.5365-.9407c.5416-.3591.9036-.9407,1.4766-1.2685.9863-.5416.7355-.496,1.2372-1.6334a3.1447,3.1447,0,0,0,.0085-2.6823c-.45-.9378-1.69-1.1146-2.09-1.9013-.3991-.7953-2.9931-.228-3.86-.3962a22.0239,22.0239,0,0,0-8.3236-.191S625.352,119.41,625.3491,122.1982Z"/><path class="f283c8aa-0815-4c34-887b-7a29ae65368f" d="M633.0684,132.7167a.2459.2459,0,0,1-.2-.1.2506.2506,0,0,1,.0542-.3507,2.9359,2.9359,0,0,1,3.4491.0142.2583.2583,0,0,1,.0057.3592.25.25,0,0,1-.3506.0086,2.46,2.46,0,0,0-2.8078.0143A.2148.2148,0,0,1,633.0684,132.7167Z"/><path class="f283c8aa-0815-4c34-887b-7a29ae65368f" d="M630.195,132.7167a.277.277,0,0,1-.171-.06,1.6978,1.6978,0,0,0-1.9128-.0628.2441.2441,0,0,1-.3448-.0827.2522.2522,0,0,1,.0854-.3448,2.174,2.174,0,0,1,2.5114.1139.2463.2463,0,0,1,.0114.3535A.2524.2524,0,0,1,630.195,132.7167Z"/><path class="f29e67fd-f6d1-4347-b29f-debd94e877eb" d="M657.509,185.9535c-.1055-1.3511-.1711-2.1977-.1711-2.1977l-1.73-30.0049L642.88,148.4118c-7.6308,6.0346-9.6519,0-9.6519,0l-7.0494,3.5376c-4.7291,2.879-5.4844,22.2428-5.4844,22.2428-.345,3.9251-.71,7.8447-1.0548,11.7613Z"/><path class="b3a15031-fe78-4fd6-afe6-b3bd8d5a5f3a" d="M620.6713,181.5238a.2526.2526,0,0,1-.2479-.2594c0-7.7449.2964-16.0258,2.5084-24.09a.2518.2518,0,1,1,.4846.1368c-2.1921,8.0044-2.4942,16.2453-2.4942,23.9532A.255.255,0,0,1,620.6713,181.5238Z"/><path class="b3a15031-fe78-4fd6-afe6-b3bd8d5a5f3a" d="M637.0591,153.8593a6.1864,6.1864,0,0,1-1.6362-.1911c-.8551-.228-3.2211-1.183-3.8568-2.7793a.2417.2417,0,0,1,.1425-.3221.2449.2449,0,0,1,.3193.1368c.5587,1.4,2.7878,2.2833,3.529,2.4829,2.1749.5958,6.4508-.2594,7.6765-2.6054a.25.25,0,0,1,.3364-.1055.2459.2459,0,0,1,.1112.3364C642.612,152.85,639.465,153.8593,637.0591,153.8593Z"/><path class="ba6b9189-86a8-41f3-a6dd-86f0052fb5dd" d="M666.2659,185.9535c.533-10.5014-1.4538-18.7823-3.5775-21.6613-1.6676,0-4.3842,1.0462-7.8419,0-.6584,3.1869,2.9047,17.4767,3.0273,21.6613Z"/><path class="f29e67fd-f6d1-4347-b29f-debd94e877eb" d="M654.0113,185.9535h9.9057a18.1026,18.1026,0,0,0,5.7837-1.97l-5.5072-21.1055a17.1742,17.1742,0,0,0-8.5859-9.1274c-5.416,1.2543-4.8716,7.54-4.8716,7.54Z"/><path class="b3a15031-fe78-4fd6-afe6-b3bd8d5a5f3a" d="M654.1339,183.4023a.249.249,0,0,1-.2366-.1825,123.3308,123.3308,0,0,1-2.8448-14.2527l-.22-1.3283c-.6812-4.2787-1.18-9.1218,1.6534-12.5111a.243.243,0,0,1,.3563-.0313.2557.2557,0,0,1,.0314.3506c-2.7,3.2382-2.212,7.9445-1.5422,12.1148l.2138,1.3284a123.6076,123.6076,0,0,0,2.8278,14.1928.24.24,0,0,1-.1711.305A.161.161,0,0,1,654.1339,183.4023Z"/><rect class="ec52ade6-29ba-42cd-9ef7-49d3e013200a" x="530.4373" y="185.9535" width="73.2248" height="77.589"/><rect class="a25d315e-1331-49e8-a240-50d5f456d3ca" x="530.4373" y="185.9535" width="73.2248" height="6.3482"/><path class="e724d36b-5446-413e-a489-6d886c9ee7de" d="M592.1687,189.0265a1.7132,1.7132,0,1,1-1.71-1.7133A1.7092,1.7092,0,0,1,592.1687,189.0265Z"/><path class="ae981af0-eaa3-44ac-b937-50d9d447c686" d="M596.912,189.0265a1.716,1.716,0,1,1-1.7131-1.7133A1.7134,1.7134,0,0,1,596.912,189.0265Z"/><path class="aff0bbac-4cf4-4dc7-8932-25b10934ebc0" d="M601.6468,189.0265a1.7118,1.7118,0,1,1-1.7132-1.7133A1.7116,1.7116,0,0,1,601.6468,189.0265Z"/><rect class="a4c86c97-e6e9-47be-9e2e-0d424298498a" x="603.6678" y="185.9535" width="73.2277" height="77.589"/><rect class="a25d315e-1331-49e8-a240-50d5f456d3ca" x="603.6678" y="185.9535" width="73.2277" height="6.3482"/><path class="e724d36b-5446-413e-a489-6d886c9ee7de" d="M665.4078,189.0265a1.7146,1.7146,0,1,1-1.7189-1.7133A1.7165,1.7165,0,0,1,665.4078,189.0265Z"/><path class="ae981af0-eaa3-44ac-b937-50d9d447c686" d="M670.1426,189.0265a1.7161,1.7161,0,1,1-1.71-1.7133A1.7129,1.7129,0,0,1,670.1426,189.0265Z"/><path class="aff0bbac-4cf4-4dc7-8932-25b10934ebc0" d="M674.88,189.0265a1.7161,1.7161,0,1,1-1.7132-1.7133A1.7153,1.7153,0,0,1,674.88,189.0265Z"/><path class="b0450c5a-01b6-43f0-b942-76e4e5d25a32" d="M629.0947,214.5759c-.1967.838-.9549,1.5335-1.2543,2.3431a5.1484,5.1484,0,0,0-.1909,3.1642c.3164,1.0375,1.1858,1.32,1.7673,1.9241a3.434,3.434,0,0,0,1.964.0684c.7868-.2052,1.5422-.7184,2.34-.8409a3.25,3.25,0,0,1,3.05,1.6048c.4333.55.9037,1.374,1.6476,1.5507a3.3277,3.3277,0,0,0,2.9589-.8865,6.1715,6.1715,0,0,1,3.5717-1.7274,3.21,3.21,0,0,0,2.4259-.9835,6.3382,6.3382,0,0,0,1.14-2.8733,2.9685,2.9685,0,0,1,.9293-1.7417c.419-.3649,1.0632-.55,1.4623-.9464-.0057-.0912,0-.191-.0085-.2737a21.0212,21.0212,0,0,0-1.97-7.9217c-1.0547-2.2462-2.4686-4.5066-5.1681-4.4838-1.24.0142-1.8642.2993-2.8762-.6414-1.8756-1.7417-3.5774-4.0934-6.5676-3.1385-2.3574.7555-4.4725,3.4121-5.6983,5.4132a7.35,7.35,0,0,0-.5872,7.3887C628.5531,212.5434,629.38,213.39,629.0947,214.5759Z"/><path class="ead7497c-3fd0-458d-8754-5cd8df8db947" d="M632.1191,237.3061c.7412-7.2175-2.8676-7.3714-2.8676-7.3714-4.0963-.7954-5.6042,5.4616-5.6042,5.4616s-2.1009,13.7653-1.6932,19.8512c0,0,4.4382,2.4,6.2284-1.5108Z"/><path class="ead7497c-3fd0-458d-8754-5cd8df8db947" d="M624.3,263.5426a70.09,70.09,0,0,0,3.84-9.41s-1.7645-9.3327-6.14-3.78a86.8135,86.8135,0,0,1-3.4521,13.1895Z"/><polygon class="ead7497c-3fd0-458d-8754-5cd8df8db947" points="648.57 263.543 655.821 231.081 642.278 226.092 635.939 226.092 627.564 230.012 630.44 263.543 648.57 263.543"/><path class="ead7497c-3fd0-458d-8754-5cd8df8db947" d="M635.1378,226.4912h8.013V216.919h-8.013S635.993,224.4673,635.1378,226.4912Z"/><path class="afd096cf-27a6-4f62-af1f-76a29a1d86b3" d="M640.1035,221.99a10.3538,10.3538,0,0,0,3.0473-.9606V216.919h-8.013s.3051,2.66.3735,5.2564A15.8924,15.8924,0,0,0,640.1035,221.99Z"/><path class="fb1000c0-b4d5-4655-87f7-ffb974b0c2d5" d="M649.2,263.5426c.5616-1.2286,1.5992-3.23,1.5621-4.2987-.0456-1.2172,1.2856-3.1869,1.3854-4.3869a8.4488,8.4488,0,0,1,.6642-3.4977c1.1-2.0153,1.086-5.0112,1.5906-7.2774a22.8356,22.8356,0,0,0,.8551-5.8123c0-1.2627,1.08-2.6681,1.3854-3.8881.3335-1.3084.1454-2.8819-1.1345-3.4606-1.1459-.5273-2.443-.8552-3.6231-1.2827-1.9241-.7184-5.5728-2.1237-7.4969-2.8278-6.8756,5.9121-10.6326.3136-10.6326.3136l-4.37,2.041-.0541,34.3776Z"/><path class="fb1000c0-b4d5-4655-87f7-ffb974b0c2d5" d="M627.5639,247.5026c.8866,2.0865-.1852,3.2781-.7553,8.3407-.345,2.9873-.6528,5.5443-1.0348,7.6993h28.477a18.5661,18.5661,0,0,1-.9179-4.2844c-.5273-5.2108.4076-10.4729,1.126-15.507.342-2.4287,1.6105-5.5585,1.3482-7.9815-.2536-2.2919-3.087-4.1989-5.225-4.2074-3.0643,0-5.9491,1.6191-9.0277,1.9155-3.48.3535-5.2991-.9007-7.9416-2.8932-1.069-.81-2.7906-2.6054-4.0278-1.451-1.3027,1.2058-1.3854,2.7708-2.0211,4.4155-.7325,1.9071-2.6167,6.4223-2.249,8.3407C625.74,244.11,626.6746,245.41,627.5639,247.5026Z"/><path class="ead7497c-3fd0-458d-8754-5cd8df8db947" d="M655.8215,263.5426h5.607a90.3936,90.3936,0,0,0,.5644-10.1964c-6.5449-.2509-6.4765,3.6886-6.4765,3.6886C655.7388,259.29,655.8243,261.4645,655.8215,263.5426Z"/><path class="ead7497c-3fd0-458d-8754-5cd8df8db947" d="M660.5961,258.99a14.7026,14.7026,0,0,0,1.3968-5.6441c.3363-9.7232-3.4777-19.1557-5.513-21.5843-.2138-.6272-4.8288-3.4692-5.8864,2.1749-.4133,2.8733,4.8858,20.9686,4.9229,23.098C655.5164,257.0348,657.0272,260.5951,660.5961,258.99Z"/><path class="ead7497c-3fd0-458d-8754-5cd8df8db947" d="M631.9681,209.4335c.02,2.8506.533,7.8447,2.52,9.6405,2.4059,2.1835,8.9023-1.4737,10.8378-3.7284,2.4315-2.8193,2.6282-7.936,1.927-11.4792a7.1346,7.1346,0,0,0-8.8623-5.5529C634.297,199.3739,631.9424,205.7078,631.9681,209.4335Z"/><path class="afd096cf-27a6-4f62-af1f-76a29a1d86b3" d="M647.1358,203.69a7.0467,7.0467,0,0,0-.8323-2.115l-1.3,9.25-.0542,3.5432.2937,1.1317c.0826-.1.171-.191.2479-.2822C647.8485,212.3354,647.9168,207.2129,647.1358,203.69Z"/><path class="ead7497c-3fd0-458d-8754-5cd8df8db947" d="M648.59,208.6011c.992,1.2372-.0542,4.4241-2.4173,5.2394-.4817-.6785-.285-2.3375-.2623-3.1613a3.2006,3.2006,0,0,1,.6557-2.2234A1.4523,1.4523,0,0,1,648.59,208.6011Z"/><path class="afd096cf-27a6-4f62-af1f-76a29a1d86b3" d="M646.503,210.6479c-.0428.1767-.2052.4731-.0826.6356a.6513.6513,0,0,0,.3391.2651.6409.6409,0,0,0,.7326-.2651,2.0433,2.0433,0,0,0,.2794-.7953.5668.5668,0,0,0-.0769-.5872.2508.2508,0,0,0-.2737,0c-.2737.2052-.2423.6556-.325.9549a.8615.8615,0,0,1-.2451.4789c.1226-.0969.2337.0313.1482-.0228a.5081.5081,0,0,1-.1283-.12c-.0912-.0855-.0114-.4219-.0086-.5444.0086-.1226-.3278-.1141-.3591,0Z"/><path class="afd096cf-27a6-4f62-af1f-76a29a1d86b3" d="M647.2527,209.9609c.53-.55.6214.4959.5958.7725-.0457.419-.3878.7012-.536,1.0689-.0456.1054.18.0912.2252.06a1.4888,1.4888,0,0,0,.744-1.87c-.2194-.45-1.0518-.5815-1.3-.0912-.0513.1.22.1055.2708.06Z"/><path class="a19fc11c-78c9-445e-9506-ad3dd9dd4da5" d="M643.9289,198.1824a2.2475,2.2475,0,0,0-.6186.8095c-.5273.6585-2.078,3.3694-2.3688,3.7884-.7782,1.1317.1169,2.0638.9094,2.842.248.2452.5045.4818.75.7269a7.3854,7.3854,0,0,1,1.8471,2.5284c.2566.6642.4447,2.4971,1.4054,2.5741.0541-.9635.4133-2.919,1.83-3.1641.1767-.0685.7839-.0143,1.277,1.0632,0,0,2.8592-9.3184-5.0312-11.1684"/><path class="b0450c5a-01b6-43f0-b942-76e4e5d25a32" d="M640.6593,203.225l3.27-5.0426c-1.2-1.6106-5.4673-1.26-5.4758-1.26-1.4709.1225-7.2718,2.8562-9.1275,7.1121,0,0-2.651,6.2484,3.05,10.2192-.687-4.2017-.6557-6.9354.9977-9.6862a9.0208,9.0208,0,0,0,4.521-.3278,16.3816,16.3816,0,0,0,3.0471-1.4595"/><path class="ad89b585-8872-4a96-9e3c-e26ed5bba825" d="M637.9143,211.4517c0,.3734.7212.6784,1.6163.6784.8893,0,1.602-.305,1.602-.6784,0-.382-.7127-.687-1.602-.687C638.6355,210.7647,637.9143,211.07,637.9143,211.4517Z"/><path class="ad89b585-8872-4a96-9e3c-e26ed5bba825" d="M632.0137,211.4517c0,.3734.5814.6784,1.3.6784.7155,0,1.297-.305,1.297-.6784,0-.382-.5815-.687-1.297-.687C632.5951,210.7647,632.0137,211.07,632.0137,211.4517Z"/><path class="ea908089-5aa8-4dfa-8b5c-9ba46a0f8339" d="M633.61,208.8377c.3049.0228.55.4732.5358,1.0006-.0227.5359-.2907.9492-.6071.9264-.3193-.0171-.5559-.4675-.5359-1.0034C633.0228,209.2283,633.2936,208.8235,633.61,208.8377Z"/><path class="ea908089-5aa8-4dfa-8b5c-9ba46a0f8339" d="M639.1058,208.8377c.3136.0228.553.4675.53,1.0006-.02.5359-.2908.9492-.6043.9264-.3164-.0256-.5559-.476-.533-1.0034C638.5186,209.2283,638.7894,208.8235,639.1058,208.8377Z"/><path class="afd096cf-27a6-4f62-af1f-76a29a1d86b3" d="M635.8505,209.0059c.2423.7183-.4076,1.4737-.8609,1.9327-.2223.2138-.5017.5416-.3677.8779.2708.6813,1.1944.9721,1.8443,1.1146.0684.0086.5131.0256.4048-.16a.3108.3108,0,0,0-.53,0c.1112-.0285.2281-.06.3392-.0913-.7924-.1539-2.2234-.6869-1.36-1.65.4447-.496,1.1773-1.3512.7269-2.0467-.04-.0542-.2224-.0542-.1967.0228Z"/><path class="fba5f262-1e87-4da9-8db2-c857ca812e5e" d="M636.1156,215.317a1.9235,1.9235,0,0,1-1.4082-.6214.2337.2337,0,0,1,0-.3506.2516.2516,0,0,1,.3449,0,1.65,1.65,0,0,0,2.2092.0542.2639.2639,0,0,1,.3535.0456.2442.2442,0,0,1-.04.3506A2.4345,2.4345,0,0,1,636.1156,215.317Z"/><path class="a43f7732-c77d-4b0c-8e89-b5141a3f9fe4" d="M640.8332,208.3788a2.5119,2.5119,0,0,0-3.5175.0541c-.1568.191.4447.2082.5331.1626a6.7356,6.7356,0,0,1,.9064-.5132,1.946,1.946,0,0,1,1.6961.4133c.0941.0514.5358.0286.3819-.1168Z"/><path class="a43f7732-c77d-4b0c-8e89-b5141a3f9fe4" d="M632.4213,208.242a1.87,1.87,0,0,1,1.2428-.191,4.8371,4.8371,0,0,1,.9777.5131c.0827.0456.687.037.5331-.1539a2.4309,2.4309,0,0,0-3.0957-.2965c-.1682.1054.2623.16.3421.1283Z"/><path class="b0450c5a-01b6-43f0-b942-76e4e5d25a32" d="M643.1678,213.5753c-.7924,1.9555-1.79,4.1989-.7553,6.2541.7867,1.565,2.021,2.9105,3.8995,2.4515,1.8956-.4646,2.9189-2.2833,4.5609-3.1613,1.32-.7183,3.9109-.75,4.749-2.383.5359-1.0233.1226-2.6425-.2508-3.6743-.0343-.0912-.0713-.1825-.1084-.2737a9.9123,9.9123,0,0,1-1.3625-1.2143c-1.5792-1.736-.9265-4.2189-2.1265-6.2655-.479-.81-1.3-1.36-1.7788-2.0923a27.0072,27.0072,0,0,0-1.2571-2.3974,4.1075,4.1075,0,0,0-4.595-1.7587c-2.0011.3762-2.9789.75-3.4663,2.8049a6.6491,6.6491,0,0,0,1.3426,6.3311C643.6439,210.0606,644.1513,211.1524,643.1678,213.5753Z"/><path class="f7b6b09c-a474-4404-bc99-f268fadf6dc8" d="M653.31,247.3971a.2589.2589,0,0,1-.24-.1767c-.6783-2.2064-1.1516-4.0877-1.5848-5.8066-.1169-.4732-.2424-.9378-.3677-1.4054-.2309-.8238-.4647-1.6789-.6357-2.5341-.2566-1.2542-.8438-5.5158,2.135-7.2717a.2645.2645,0,0,1,.3478.0912.2509.2509,0,0,1-.0912.3449c-2.7,1.5878-2.138,5.5586-1.9014,6.7359.1682.8409.3963,1.6875.6215,2.5056.1254.4646.2622.9463.3791,1.4139.4276,1.7188.9036,3.58,1.5792,5.7808a.259.259,0,0,1-.1682.3136A.2187.2187,0,0,1,653.31,247.3971Z"/><path class="f7b6b09c-a474-4404-bc99-f268fadf6dc8" d="M638.4417,229.7208a8.3576,8.3576,0,0,1-2.614-.382,3.5234,3.5234,0,0,1-2.2063-1.7958.2525.2525,0,0,1,.1226-.3335.2656.2656,0,0,1,.3363.12,2.9969,2.9969,0,0,0,1.9127,1.5279,8.53,8.53,0,0,0,5.69-.2594,7.4794,7.4794,0,0,0,2.2377-1.6334.2489.2489,0,1,1,.382.3193,7.9005,7.9005,0,0,1-2.3888,1.7588A8.2245,8.2245,0,0,1,638.4417,229.7208Z"/><path class="f7b6b09c-a474-4404-bc99-f268fadf6dc8" d="M633.2194,250.8263a5.1772,5.1772,0,0,1-2.2519-.4589,2.2366,2.2366,0,0,1-1.2343-1.3968.2455.2455,0,0,1,.1653-.3136.2546.2546,0,0,1,.3136.1739,1.7747,1.7747,0,0,0,.9778,1.0918,5.6785,5.6785,0,0,0,3.9166.1,6.5748,6.5748,0,0,0,.7554-.3877,3.9324,3.9324,0,0,1,1.5678-.6356,2.1417,2.1417,0,0,1,1.3426.45,1.3232,1.3232,0,0,0,.915.3308.2475.2475,0,0,1,.2879.1966.243.243,0,0,1-.1938.2908,1.71,1.71,0,0,1-1.2714-.39,1.7227,1.7227,0,0,0-1.0347-.382,3.753,3.753,0,0,0-1.3683.5673,4.8978,4.8978,0,0,1-2.8876.7639Z"/><path class="f7b6b09c-a474-4404-bc99-f268fadf6dc8" d="M643.2448,261.3419a.3094.3094,0,0,1-.1567-.0513.249.249,0,0,1-.0514-.3363c.0713-.114.14-.2452.2081-.382.0513-.1.1-.191.1482-.2822a.2493.2493,0,0,1,.3421-.0941c.0057,0,.0171.0086.0256.0086a6.6871,6.6871,0,0,1,2.3945-1.7559,4.0026,4.0026,0,0,1,2.2691.0313,6.57,6.57,0,0,0,1.1944.1824,2.2951,2.2951,0,0,0,1.77-.6357c1.2285-1.2142,1.2285-3.8938,1.2285-5.4986a.2581.2581,0,0,1,.2566-.2509.2526.2526,0,0,1,.248.2509c0,1.6875,0,4.4982-1.3854,5.8578a2.8694,2.8694,0,0,1-2.1208.7811,7.3152,7.3152,0,0,1-1.3-.2,3.55,3.55,0,0,0-1.9954-.0456,7.0553,7.0553,0,0,0-2.46,1.9014c-.1482.1539-.2936.3049-.4389.45A.26.26,0,0,1,643.2448,261.3419Z"/><path class="bd66f9c7-b040-4fe2-ad4c-407f40a3f0e3" d="M592.2485,263.5426c-.6756-3.88-1.2086-6.2854-1.2086-6.2854l8.4376-.4134a56.287,56.287,0,0,1,1.0034,6.6988Z"/><polygon class="bd66f9c7-b040-4fe2-ad4c-407f40a3f0e3" points="561.511 228.843 565.813 225.696 575.057 225.696 580.171 228.843 561.511 228.843"/><polygon class="bd66f9c7-b040-4fe2-ad4c-407f40a3f0e3" points="547.147 263.543 550.847 245.196 560.479 249.221 556.411 263.543 547.147 263.543"/><path class="bd66f9c7-b040-4fe2-ad4c-407f40a3f0e3" d="M551.2947,263.5426h-8.8509a75.1335,75.1335,0,0,1-6.1886-18.7965c-1.6134-2.6425,3.2212-5.2792,4.0393-5.73l-.2167,5.1167C542.3582,251.7813,547.6432,259.1128,551.2947,263.5426Z"/><path class="bd66f9c7-b040-4fe2-ad4c-407f40a3f0e3" d="M565.3935,227.4518h9.6634v-10.547h-9.6634S566.4283,225.2141,565.3935,227.4518Z"/><path class="a84e2310-32db-4b71-9159-dc1e55cb8c53" d="M575.0569,221.6852v-4.78h-9.6634s.2907,2.3516.4133,4.88A11.7989,11.7989,0,0,0,575.0569,221.6852Z"/><path class="b5b2b4cb-fb7c-43fb-a697-9f1f015c8347" d="M559.8264,208.5327a18.2354,18.2354,0,0,0,1.9383,4.82c1.089,1.6277,2.8563,1.87,3.82.0228a10.7723,10.7723,0,0,0,.8637-5.835,4.29,4.29,0,0,0-1.2542-2.95,3.7249,3.7249,0,0,0-4.8345-.0228C560.5162,204.408,559.3931,207.1417,559.8264,208.5327Z"/><path class="bd66f9c7-b040-4fe2-ad4c-407f40a3f0e3" d="M560.4963,211.2208a25.945,25.945,0,0,0,.4446,5.5158c.3507,1.8329.7583,5.2535,2.7337,6.1714a4.2389,4.2389,0,0,0,1.8529.305,11.7054,11.7054,0,0,0,7.782-3.4976c3.58-3.5746,4.2758-12.87,1.2685-16.7213-2.748-3.5119-12.4227-2.5512-13.46,2.6368A32.1086,32.1086,0,0,0,560.4963,211.2208Z"/><path class="bd66f9c7-b040-4fe2-ad4c-407f40a3f0e3" d="M560.4963,211.2208a25.945,25.945,0,0,0,.4446,5.5158c.3507,1.8329.7583,5.2535,2.7337,6.1714a4.2389,4.2389,0,0,0,1.8529.305,11.7054,11.7054,0,0,0,7.782-3.4976c3.58-3.5746,4.2758-12.87,1.2685-16.7213-2.748-3.5119-12.4227-2.5512-13.46,2.6368A32.1086,32.1086,0,0,0,560.4963,211.2208Z"/><path class="a84e2310-32db-4b71-9159-dc1e55cb8c53" d="M574.062,218.8289c2.9076-4.0393,3.3009-12.26.516-15.8348a4.5455,4.5455,0,0,0-.516-.5331l.5958,7.4229-.5958,2.2234Z"/><path class="ea908089-5aa8-4dfa-8b5c-9ba46a0f8339" d="M562.4233,211.5429a.4665.4665,0,1,1-.9122,0,.468.468,0,1,1,.9122,0Z"/><path class="ea908089-5aa8-4dfa-8b5c-9ba46a0f8339" d="M567.7509,211.7567a.4676.4676,0,1,1-.456-.5644A.5165.5165,0,0,1,567.7509,211.7567Z"/><path class="eb23d327-4b4e-4b4c-9478-38069b3cc61a" d="M575.3305,211.312c.439-.4048.8125-1.5507,1.585-1.1431.074.0371.1652.0456.2422.0827.2994.1311.3421.419.4447.687a6.061,6.061,0,0,1,.3108,1.4367c.0056.0142.0683.0142.0683,0,.1226-.8637-.0427-2.2463-.9321-2.6511a1.7671,1.7671,0,0,0-2.2006,1.5279c0,.1825.3991.1454.4817.06Z"/><path class="b5b2b4cb-fb7c-43fb-a697-9f1f015c8347" d="M574.33,210.1433a19.4757,19.4757,0,0,0-.2965,2.232c.114.4133.5188.533.6557.2052.704-.6414.6043-2.3431,1.7559-2.5113,1.26-.1768,1.5051,1.67,1.4709,2.5113a8.8946,8.8946,0,0,0,1.2428-3.7029c.0029-.6642.0057-2.2861,0-3.4919-.0228-3.6658-.63-4.7975-4.7148-4.5437a3.8911,3.8911,0,0,0-3.27,1.9782c-.5957,1.297.24,2.3888,1.0861,3.3152A6.4412,6.4412,0,0,1,574.33,210.1433Z"/><path class="bd66f9c7-b040-4fe2-ad4c-407f40a3f0e3" d="M577.5226,210.1832c1.2086,1.2143.4447,4.7433-1.9926,5.8949-.6043-.6784-.5729-2.4743-.6413-3.375a3.45,3.45,0,0,1,.4418-2.443A1.5584,1.5584,0,0,1,577.5226,210.1832Z"/><path class="a84e2310-32db-4b71-9159-dc1e55cb8c53" d="M575.5357,212.5976c-.0142.1682-.1539.5188-.0256.6642a1.0392,1.0392,0,0,0,.3706.2594.6091.6091,0,0,0,.7212-.2823,2.4122,2.4122,0,0,0,.2337-.9092.7616.7616,0,0,0-.1311-.6357.257.257,0,0,0-.2708,0c-.2423.2451-.1711.6955-.2167,1.0091a1.0916,1.0916,0,0,1-.1995.5729c-.0371.0456-.0456.0229.0513.0229.0912-.0086-.0228-.0371-.0684-.0685-.1653-.1311-.1055-.4589-.1112-.6328-.0114-.1226-.3335-.1226-.3535,0Z"/><path class="a84e2310-32db-4b71-9159-dc1e55cb8c53" d="M576.24,211.7709c.3278-.419.6527,0,.73.3221a1.8387,1.8387,0,0,1,.02.573,5.2227,5.2227,0,0,1-.4561,1.0832c-.0341.0913.1711.0913.2195.0627a1.5917,1.5917,0,0,0,.5473-2.1094c-.2765-.419-1.12-.4817-1.334.0371-.0484.1083.2252.1.2737.0313Z"/><path class="e43fbb7e-2efb-4d1d-9e54-321c52eab2b0" d="M561.0008,205.5454a17.9644,17.9644,0,0,0,12.9672-1.3883,24.1838,24.1838,0,0,0,3.0044-2.0865c1.1659-.8781-.8922-2.8421-1.5164-3.2925-2.97-2.1293-7.0039-1.2513-10.1395,0-1.545.6186-3.9508,1.6049-5.9348.8324a1.8454,1.8454,0,0,0,1.2,1.85,3.6122,3.6122,0,0,1-2.8192-.7725A4.2209,4.2209,0,0,0,561.0008,205.5454Z"/><path class="e724d36b-5446-413e-a489-6d886c9ee7de" d="M562.8537,216.8278a1.7822,1.7822,0,0,0,3.5631,0Z"/><path class="a84e2310-32db-4b71-9159-dc1e55cb8c53" d="M563.5236,211.9477c-.2908.5416-.49,1.1231-.7469,1.6875a4.69,4.69,0,0,0-.5217,1.2286c-.1026.6129,1.0377,1.1687,1.4966,1.2543.4133.0826.8181-.3279.228-.4134a2.1369,2.1369,0,0,1-.8124-.5046c-.5074-.41-.2679-.7924-.0484-1.2656a3.6472,3.6472,0,0,0,.5017-1.9783c0-.04-.0913-.04-.0969-.0085Z"/><path class="ac8867a6-bdc6-419a-bba5-8c68bde7c797" d="M560.8839,210.4568a.2234.2234,0,0,1-.1652-.0684.24.24,0,0,1-.0087-.3421,1.9491,1.9491,0,0,1,1.4652-.5131,1.5331,1.5331,0,0,1,1.1089.4733.2392.2392,0,1,1-.3734.2992,1.0939,1.0939,0,0,0-.7583-.2907,1.4516,1.4516,0,0,0-1.0974.3677A.2294.2294,0,0,1,560.8839,210.4568Z"/><path class="ac8867a6-bdc6-419a-bba5-8c68bde7c797" d="M568.4351,210.8787a.2757.2757,0,0,1-.1768-.0769,1.7506,1.7506,0,0,0-2.2206-.2.2443.2443,0,0,1-.3278-.0826.2364.2364,0,0,1,.0912-.3278,2.2206,2.2206,0,0,1,2.8079.2822.2385.2385,0,0,1-.0086.3363A.2911.2911,0,0,1,568.4351,210.8787Z"/><path class="a5699638-d602-405c-a368-9ecf0713dfbf" d="M588.3033,251.65c.1084,1.4595.2252,2.91.3308,4.37q.2778,3.7671.5786,7.5226H552.6344c.0884-1.0148.1711-2.0324.2623-3.0558l-5.8122-3.3152,3.7884-22.0262a7.9115,7.9115,0,0,1,3.5944-4.8146l11.3452-4.6349s1.9384,5.7808,9.2444,0l12.1974,5.1167s6.5079,2.078,7.6224,5.5927l7.3545,20.6608-13.3263,2.4886Z"/><path class="bdc6262b-1384-474b-b46a-aa6d6ce67887" d="M589.0331,259.777a.2433.2433,0,0,1-.1938-.1c-1.0918-1.5194-1.5735-3.7942-1.9983-5.798-.1283-.5873-.2451-1.1517-.3734-1.6648a73.8413,73.8413,0,0,1-1.75-11.8611c-.228-2.7793-.573-6.9725,1.6362-9.6862a.2372.2372,0,0,1,.3364-.037.248.248,0,0,1,.0342.3363c-2.0838,2.5655-1.75,6.6447-1.5336,9.35a73.6329,73.6329,0,0,0,1.7416,11.7756q.1925.7825.3764,1.69c.419,1.9555.8921,4.1761,1.9212,5.6127a.2458.2458,0,0,1-.06.3364A.2892.2892,0,0,1,589.0331,259.777Z"/><path class="bdc6262b-1384-474b-b46a-aa6d6ce67887" d="M553.7832,257.1346h0a.2417.2417,0,0,1-.2366-.2366v-1.46c0-1.71-.0028-3.4663.0342-5.1937.1683-7.7677.71-15.812,5.2964-21.3107a.2363.2363,0,0,1,.3421-.0314.2387.2387,0,0,1,.0256.3364c-4.4868,5.3847-5.0227,13.3292-5.1794,21.0057-.04,1.7331-.0371,3.4919-.0371,5.1937v1.46A.2417.2417,0,0,1,553.7832,257.1346Z"/><path class="bd66f9c7-b040-4fe2-ad4c-407f40a3f0e3" d="M536.4006,231.7846c-1.8871.1511.6072,4.94.6413,5.9577-.4988-1.1317-2.05-5.5757-3.2923-5.4246-.7355.16,1.1972,3.9195,1.411,4.6892-.4219-.61-1.6989-3.29-2.5256-2.9789-.5273.3535.87,2.8819,1.1659,3.7285-.1738-.1539-1.4737-2.5056-1.8244-2.0552-.3734.4048.2708,2.1778.6614,3.0329,1.7474,3.8483,3.566,8.1583,5.8037,6.3027,1.6647-1.3911,2.5484-2.2007,3.0244-8.4348.0884-1.0747-1.6533-.16-2.2718,1.95C538.7067,238.3152,536.6286,231.7619,536.4006,231.7846Z"/><path class="a84e2310-32db-4b71-9159-dc1e55cb8c53" d="M538.8435,239.789a1.1793,1.1793,0,0,1,.1055-.1311c.0541-.0827-.2195-.1226-.2822-.0456a1.3355,1.3355,0,0,0-.0969.1368c.0912-.0143.1824-.0285.2736-.0371a.4.4,0,0,0-.43-.0228,1.41,1.41,0,0,0-.1967.2908c-.0912.151-.2623.1681-.3649.2964a2.2554,2.2554,0,0,0,.1568,2.36c.0713.1226.4989.1083.4333-.0542a4.362,4.362,0,0,1-.4076-1.6191.9078.9078,0,0,1,.4076-.7241c.1026-.0912.3335-.3363.1682-.4047.0655.0228.2337.0456.2765-.0456.0228-.0456.0456-.0912.0627-.1311.037-.1141-.2508-.1369-.2822-.0456-.0142.0456-.0342.1-.0513.1453-.0314.0912.1853.0855.228.0314Z"/><path class="bdc6262b-1384-474b-b46a-aa6d6ce67887" d="M570.439,230.4164c-.1881,0-.3849-.0143-.5758-.0228-.1682-.0143-.3307-.0314-.4789-.0314a5.1613,5.1613,0,0,1-2.0039-.496,2.9645,2.9645,0,0,1-.918-.496,4.5366,4.5366,0,0,0-.5415-.3506,2.4959,2.4959,0,0,1-1.0519-.9179.2353.2353,0,0,1-.04-.1368c-.0057,0-.0228-.0313-.04-.0542a.39.39,0,0,1-.2509-.1368.2308.2308,0,0,1,0-.3363.2483.2483,0,0,1,.3307-.0086.3836.3836,0,0,1,.2509.1311.6962.6962,0,0,1,.1739.3193,2.0244,2.0244,0,0,0,.8408.7126,3.8966,3.8966,0,0,1,.6044.382,2.8,2.8,0,0,0,.7867.4418,4.9322,4.9322,0,0,0,1.8586.4733c.1568,0,.3364.0085.5131.0227a3.2413,3.2413,0,0,0,.9891-.0227,4.9657,4.9657,0,0,0,1.7246-.573,4.3861,4.3861,0,0,1,.4589-.191c.1425-.06.2851-.1141.4048-.1682a2.1271,2.1271,0,0,0,.7725-.5559.6157.6157,0,0,1,.0628-.0484c.06-.0285.1282-.06.1966-.0912a1.8718,1.8718,0,0,0,.5787-.3507,1.371,1.371,0,0,0,.2993-.3363.2227.2227,0,0,1,.2366-.2224.2512.2512,0,0,1,.2337.2623c0,.1738-.1511.3649-.4276.6414a2.2562,2.2562,0,0,1-.7269.4418c-.0484.0228-.094.0456-.1425.0684a2.2537,2.2537,0,0,1-.9036.6272,3.3831,3.3831,0,0,1-.4076.1767c-.1454.06-.2851.114-.3991.1653a5.4217,5.4217,0,0,1-1.8585.6214A2.2012,2.2012,0,0,1,570.439,230.4164Zm-5.5643-2.97-.1682.1682.1825-.1625C564.889,227.4461,564.8776,227.4461,564.8747,227.4461Z"/><rect class="be386e67-8ed4-4497-a0a2-c0c3b08b900c" x="683.0983" y="108.0225" width="88.7575" height="155.2464"/><rect class="a5300499-e24e-4e7c-8180-5970a14ea362" x="683.0983" y="108.0225" width="88.7575" height="12.3058"/><path class="a560ca40-982a-4712-9838-96bb6415a61f" d="M695.23,114.18a4.9857,4.9857,0,1,1-4.9828-4.9885A4.9818,4.9818,0,0,1,695.23,114.18Z"/><path class="e724d36b-5446-413e-a489-6d886c9ee7de" d="M769.53,111.597a.9136.9136,0,1,1-.915-.9093A.9167.9167,0,0,1,769.53,111.597Z"/><path class="e724d36b-5446-413e-a489-6d886c9ee7de" d="M769.53,114.18a.9136.9136,0,1,1-.915-.9179A.9149.9149,0,0,1,769.53,114.18Z"/><path class="e724d36b-5446-413e-a489-6d886c9ee7de" d="M769.53,116.7451a.9136.9136,0,1,1-.915-.9093A.9113.9113,0,0,1,769.53,116.7451Z"/><path class="e724d36b-5446-413e-a489-6d886c9ee7de" d="M757.2952,124.1h-58.75a3.525,3.525,0,0,0-3.529,3.5233v6.4393a3.5263,3.5263,0,0,0,3.529,3.5291h58.75a3.5232,3.5232,0,0,0,3.5318-3.5291v-4.9656a.0267.0267,0,0,1,.02.0086s-.0855-3.4235,2.3432-4.1789a.9717.9717,0,0,0,.6727-.8267Z"/><path class="a2164ee6-5a8f-412f-8dbc-bbbcb8925503" d="M695.4184,140.47h58.7441a3.5243,3.5243,0,0,1,3.5289,3.529v6.4451a3.526,3.526,0,0,1-3.5289,3.5289H695.4184a3.5316,3.5316,0,0,1-3.529-3.5289v-4.9714a.0272.0272,0,0,0-.02.0057s.08-3.4206-2.34-4.1761a.9893.9893,0,0,1-.6756-.8323Z"/><path class="e724d36b-5446-413e-a489-6d886c9ee7de" d="M757.2952,158.93h-58.75a3.5316,3.5316,0,0,0-3.529,3.5289v6.4394a3.5317,3.5317,0,0,0,3.529,3.529h58.75a3.5286,3.5286,0,0,0,3.5318-3.529v-4.9714l.0114.0057s-.0769-3.4206,2.3518-4.17a.9832.9832,0,0,0,.6727-.8323Z"/><path class="a2164ee6-5a8f-412f-8dbc-bbbcb8925503" d="M695.4184,175.3068h58.7441a3.5206,3.5206,0,0,1,3.5289,3.5289v6.4394a3.5261,3.5261,0,0,1-3.5289,3.529H695.4184a3.5316,3.5316,0,0,1-3.529-3.529v-4.9657a.0212.0212,0,0,0-.02.0086s.08-3.4235-2.34-4.1789a.9893.9893,0,0,1-.6756-.8323Z"/><path class="e724d36b-5446-413e-a489-6d886c9ee7de" d="M757.2952,194.012h-58.75a3.5317,3.5317,0,0,0-3.529,3.529v6.448a3.5317,3.5317,0,0,0,3.529,3.5289h58.75a3.5286,3.5286,0,0,0,3.5318-3.5289v-4.9742a.0125.0125,0,0,0,.0114.0085s-.0769-3.415,2.3518-4.17a1.0007,1.0007,0,0,0,.6727-.8409Z"/><path class="a2164ee6-5a8f-412f-8dbc-bbbcb8925503" d="M695.4184,210.397h58.7441a3.5188,3.5188,0,0,1,3.5289,3.52v6.448a3.5206,3.5206,0,0,1-3.5289,3.5289H695.4184a3.5261,3.5261,0,0,1-3.529-3.5289v-4.9742a.0214.0214,0,0,1-.02.0085s.08-3.415-2.34-4.17a.9893.9893,0,0,1-.6756-.8323Z"/><path class="e724d36b-5446-413e-a489-6d886c9ee7de" d="M757.2952,229.1022h-58.75a3.5335,3.5335,0,0,0-3.529,3.5376v6.4394a3.5244,3.5244,0,0,0,3.529,3.52h58.75a3.5213,3.5213,0,0,0,3.5318-3.52V234.105a.0269.0269,0,0,1,.02.0085s-.0855-3.4235,2.3432-4.17a1.0058,1.0058,0,0,0,.6727-.841Z"/><path class="a2164ee6-5a8f-412f-8dbc-bbbcb8925503" d="M695.4184,245.4872h58.7441a3.5188,3.5188,0,0,1,3.5289,3.52v6.4393a3.5255,3.5255,0,0,1-3.5289,3.5347H695.4184a3.531,3.531,0,0,1-3.529-3.5347v-4.9656c-.0086,0-.0114.0085-.02.0085,0,0,.08-3.415-2.34-4.17a.99.99,0,0,1-.6756-.8324Z"/><path class="f5fcbe5f-7902-4478-b8a5-c909ffd78da1" d="M553.7918,304.8869h9.6434s6.237,1.2913,6.1914,7.5711H489.11s.5444-7.9274,8.1041-7.5711Z"/><path class="fb7b90d1-e700-4e4a-863a-710a686fd7b8" d="M490.6778,304.8869h9.6462s6.2285,1.2913,6.1857,7.5711H449.2964s.5387-7.9274,8.1013-7.5711Z"/><rect class="b45a9d84-bf09-46fa-a80a-ff9937a3f302" x="333.8265" y="335.4334" width="21.6585" height="321.2994"/><rect class="b45a9d84-bf09-46fa-a80a-ff9937a3f302" x="133.4301" y="335.4334" width="21.6585" height="321.2994"/><rect class="ae2302ad-c434-4b6a-b9be-c933ec74accb" x="133.4301" y="312.4665" width="729.1501" height="22.9669"/><rect class="b45a9d84-bf09-46fa-a80a-ff9937a3f302" x="842.4069" y="335.4334" width="21.6613" height="321.2994"/><rect class="b45a9d84-bf09-46fa-a80a-ff9937a3f302" x="674.5039" y="335.4334" width="21.6585" height="321.2994"/><rect class="a35e5af8-66b3-451e-9d21-e07fde2b1f8f" x="674.5039" y="312.4665" width="189.5643" height="22.9669"/><polygon class="ad983f8e-0f19-40bb-9436-489e2e5d9388" points="480.667 573.819 496.427 578.471 509.685 550.53 487.115 543.007 480.667 573.819"/><path class="a834da66-632e-4fd9-b6de-dff31d3c4681" d="M481.442,565.9914l-10.8862,22.6475,80.5394,25.8232c1.93-9.5322-4.5752-13.8794-4.5752-13.8794L523.2995,586.712,507.077,571.758s-.687-4.2388-2.7109-4.92c0,0-11.02.9864-7.8761,5.47C496.49,572.3081,485.0708,568.7165,481.442,565.9914Z"/><polygon class="f07b6db3-0a12-4ec8-b6a0-a59667aad4ea" points="469.113 592.082 549.924 618.122 551.095 614.462 470.809 588.057 469.113 592.082"/><polygon class="ad983f8e-0f19-40bb-9436-489e2e5d9388" points="406.37 528.51 412.356 543.817 442.558 537.164 434.662 514.724 406.37 528.51"/><path class="a834da66-632e-4fd9-b6de-dff31d3c4681" d="M413.0289,524.3334l-24.56,5.2764,28.97,79.459c8.72-4.3214,8.1611-12.12,8.1611-12.12l-3.281-26.8493,1.8728-21.9806s2.9218-3.147,2.2235-5.1651c0,0-7.5369-8.1042-9.156-2.8649C417.2591,540.0884,413.1,528.8687,413.0289,524.3334Z"/><polygon class="f07b6db3-0a12-4ec8-b6a0-a59667aad4ea" points="384.851 530.588 413.83 610.391 417.439 609.069 389.081 529.459 384.851 530.588"/><path class="b26d7b1b-ad88-46c9-be0d-75c7444d2661" d="M523.0828,418.33c-14.3268,17.1945-16.479,21.4931-34.389,35.8229,0,0-46.8117,35.877-70.0607,65.3517,0,0,3.64,16.8181,13.369,26.7723,34.8394-12.9928,78.5954-40.5063,88.9343-49.8533,30.0847-27.2226,40.8369-35.1073,55.1609-52.3075,0,0,20.0622-27.9325,7.1663-55.1638-10.5185-22.2628-35.5663-26.5557-57.3644-33.4-11.2882-3.5433-22.5821-7.1435-33.7819-11.006A445.7347,445.7347,0,0,1,444.154,325.22c-15.9117-7.6537-38.6962-8.5545-53.2425,2.6595-19.23,14.8172-25.1133,47.4161-1.5593,61.2725,14.9455,8.7911,36.1222,8.4491,52.8178,11.26,19.9567,3.3665,39.8308,7.2546,59.7475,10.8463,10.8948,1.9612,11.6132.9008,21.1653,7.0722"/><path class="ead7497c-3fd0-458d-8754-5cd8df8db947" d="M439.6558,109.55s-10.0253,8.241-11.8212,19.7058l1.0718,17.5537H392.73l9.6691-37.2595Z"/><path class="afd096cf-27a6-4f62-af1f-76a29a1d86b3" d="M402.3992,109.55l-1.8585,7.172c7.38,2.0153,13.3206,3.1327,20.0421,6.0888,4.9885,2.192,6.2028,13.0212,7.9617,18.0867l-.71-11.6417c1.7959-11.4648,11.8212-19.7058,11.8212-19.7058Z"/><path class="ead7497c-3fd0-458d-8754-5cd8df8db947" d="M444.8524,114.744s3.224-.1767,4.1162-2.8648c6.599-13.1895,4.9457-16.8582,4.1219-23.9987-1.6106-13.9763-5.9662-24.7856-8.6-33.8531-4.8346-16.6587-8.3179-16.8781-19.98-19.7145,0,0-14.6832-3.5888-25.9828,5.5472C382.8758,52.508,387.18,77.5073,390.1048,95.2292c1.81,10.929,6.9211,12.893,18.6511,17.1688C408.7559,112.398,427.8346,119.9377,444.8524,114.744Z"/><path class="afd096cf-27a6-4f62-af1f-76a29a1d86b3" d="M420.2579,110.796c-.0114-.0228-.0228-.04-.0314-.0542-1.69-3.27-.2594-7.6451.4733-10.9917.5558-2.5113.8893-5.2934-.4733-7.6309-2.3146-3.9793-7.8447-8.4917-12.6906-7.2318-4.8146,1.2429-8.0956,6.3453-9.6035,10.7693a21.5227,21.5227,0,0,0-1.4139,7.363,29.3074,29.3074,0,0,0,.573,4.2759c2.8591,1.8642,6.6532,3.278,11.6644,5.1024a70.4774,70.4774,0,0,0,19.8,4.0792C425.7423,114.8808,421.8856,113.8575,420.2579,110.796Z"/><path class="ad983f8e-0f19-40bb-9436-489e2e5d9388" d="M583.198,300.8563l24.4491-2.3917,27.6276,8.6771s5.37,2.4885,2.4857,5.2393l-49.6708.0912S579.9741,310.9158,583.198,300.8563Z"/><path class="ad983f8e-0f19-40bb-9436-489e2e5d9388" d="M476.3851,289.246c-20.7747-38.146-33.85-72.5322-40.29-105.6214,5.1909-5.607,32.8127-17.9641,42.0855,2.2776,9.96,24.25,16.12,48.7159,21.1339,80.2372,0,0,9.4867,13.62,83.8831,34.7169l2.9789,8.9963S495.0163,308.7751,476.3851,289.246Z"/><path class="ad983f8e-0f19-40bb-9436-489e2e5d9388" d="M473.9793,219.761c-41.9857-11.1371-75.95-25.2815-104.4041-43.3539-.5046-7.6224,9.5151-36.182,30.5863-28.9958,24.4606,9.4353,46.4583,21.7839,72.803,39.8193,0,0,13.6826.1283,80.1546-39.3917l8.58,4.0193S500.9654,219.6612,473.9793,219.761Z"/><path class="ad983f8e-0f19-40bb-9436-489e2e5d9388" d="M583.9249,112.7572c5.5671,4.11-11.368,14.2242-13.3947,17.3085,3.7057-2.5655,17.0206-13.3976,20.6037-10.5328,1.9584,1.8956-11.22,9.8686-13.3747,11.8612,2.4914-1.0918,11.5874-6.981,13.5658-4.4355.9635,2.1151-8.2324,7.2946-10.7552,9.3413.8267-.1084,9.3584-4.9571,9.6007-2.882.382,1.9812-5.0085,6.2427-7.85,8.1526-12.8133,8.6229-26.7182,18.5372-30.1047,8.4861-2.5284-7.5026-3.72-11.71,6.7245-31.9974,1.7958-3.4919,5.4417,2.6738,3.33,10.4017C564.2561,128.6832,583.2636,112.27,583.9249,112.7572Z"/><path class="afd096cf-27a6-4f62-af1f-76a29a1d86b3" d="M561.9558,133.23c.0541-.1853.1111-.3763.1681-.5672.1654-.5559-1.2913-.6329-1.42-.191a4.9061,4.9061,0,0,0-.1539.6813c-.0456.265.459.3734.6157.3962-.43-.0684-.2166,1.6647-.18,1.8186a3.5248,3.5248,0,0,1-.1225,3.1071c-.8922,1.8813-2.765,2.95-4.3271,4.1789-.821.6414,1.3482.8951,1.7844.6728,2.0553-1.0633,4.6749-3.301,5.1538-5.684.2964-1.4738-.4846-2.4515-.5473-3.88-.04-.9236-.764-.992-1.5365-1.0234.2737.1368.5616.2822.8438.4134-.0228-.2-.0456-.3906-.0827-.5816-.12-.533-1.5706-.4418-1.4765,0,.0428.191.0826.3905.1282.5816.0741.3591,1.0462.4332,1.1517.0769Z"/><path class="ba83cf54-1869-45fb-a514-20b2a16f6a85" d="M402.003,142.4941s-18.6255-7.172-31.5243,12.893c0,0-15.0451,25.7946,13.6114,38.6933l57.316,29.3692s21.496-24.3579,25.0734-51.5863Z"/><path class="b26d7b1b-ad88-46c9-be0d-75c7444d2661" d="M496.6041,399.5393c9.7033.4277,20.96.536,21.77,10.128,0,0-25.8858,84.9834-36.0936,149.2889,0,0,7.1606,5.73,27.2228,9.31,35.8228-53.0145,63.9406-158.881,63.9406-158.881,7.8845-36.5326-24.1784-51.2215-24.1784-51.2215l-96.8958-31.1707c-26.51,14.3383-96.7219,15.7664-96.7219,15.7664-5.1823,10.51-3.6715,27.9154,0,38.6563,4.1988,12.3115,12.3885,18.0639,25.0762,18.66Z"/><path class="e9fa8aa6-51da-4365-ab96-3e64c2396d80" d="M450.5934,231.035c3.2753,25.35,15.3815,102.4115,15.3815,102.4115C417.08,379.1238,335.4,346.8841,335.4,346.8841c-6.2626-62.8718,5.3648-161.6774,5.3762-161.7458,3.3608-17.4625,17.9014-41.4613,36.3644-45.8539,14.6575-3.4805,40.1414-1.565,60.56-2.6425,7.56-.3962,14.9511,14.5834,15.7607,19.8826,1.562,10.1736-4.5951,23.54-3.5832,33.6706C453.3042,224.49,448.7462,216.728,450.5934,231.035Z"/><path class="e9fa8aa6-51da-4365-ab96-3e64c2396d80" d="M460.9637,275.0531c40.8341-9.669,45.1384-33.8531,45.1384-33.8531-10.7494-30.6263-35.0845-78.2219-35.0845-78.2276-7.5283-15.5839-15.0481-22.029-31.7066-25.7946,0,0-24.0188,7.7592-15.96,47.2878C423.3508,184.4656,440.28,249.535,460.9637,275.0531Z"/><path class="a7eecd61-9234-4db7-8a16-b5d6f5e58763" d="M386.7839,38.9593c-16.4876,11.4478-20.9857,19.9568-17.699,37.6387,1.3682,7.3573,5.94,15.1706,10.088,21.6556,3.7143,5.8123,10.9832,14.29,17.1917,17.1945,5.3733,2.5028,10.7894,5.8863,16.3935-4.3015,6.9809-12.7163,7.1064-13.084,4.8345-19.3466-3.586-9.8544-2.1522-4.8346-3.5517-10.1908-.8324-3.1926,2.1521-10.7465,9.3184-8.2409,1.679.5958,4.1162,4.8431,5.0113,8.9593.2365,1.069,4.0021-2.3061,5.2164-2.46-2.5113-8.6-5.37-15.4043-1.63-20.82,4.8916-7.0894,21.4533-11.4877,20.3814-21.1653,0,0,1.0719-4.2929-7.5226-15.3987,0,0,.3592,4.6521-5.0141,6.0859,0,0,1.79-11.1057-14.33-14.3269,0,0,7.879,6.8044-1.793,11.8242A292.063,292.063,0,0,0,386.7839,38.9593Z"/><path class="ead7497c-3fd0-458d-8754-5cd8df8db947" d="M428.0171,80.1726c0,4.7062-2.5057,12.5195-7.2005,12.5195-4.6977,0-9.823-7.8133-9.823-12.5195a8.5118,8.5118,0,0,1,17.0235,0Z"/><path class="ead7497c-3fd0-458d-8754-5cd8df8db947" d="M447.1813,62.2711c2.95,9.0876,7.9673,8.9508,9.6719,11.502C459,76.997,454.245,78.9126,451.3,85.4831c-4.6236-8.3635-11.4734-12.5338-8.6029-22.7616Z"/><path class="b63c9722-ff75-4cdd-aae9-604f4ea4adfc" d="M547.857,489.6794a1.2756,1.2756,0,0,1-.3678-.0628,1.0832,1.0832,0,0,1-.65-1.3739c4.5466-12.5795,7.6965-22.22,10.7437-31.5471,1.6134-4.94,3.17-9.706,4.8516-14.6489,4.8916-14.3668,10.9718-32.24,10.1423-49.038-.8124-16.459-10.6667-28.9017-27.02-34.1352a1.0776,1.0776,0,0,1-.6984-1.3512,1.0916,1.0916,0,0,1,1.3569-.6955c17.2486,5.5243,27.65,18.6682,28.5083,36.0765.8523,17.2087-5.3078,35.2955-10.2534,49.8389-1.6819,4.9258-3.2326,9.6919-4.8431,14.6262-3.0558,9.3412-6.2086,18.9961-10.7608,31.5983A1.0774,1.0774,0,0,1,547.857,489.6794Z"/><path class="b63c9722-ff75-4cdd-aae9-604f4ea4adfc" d="M488.2149,531.5881a.9245.9245,0,0,1-.1539-.0086,1.069,1.069,0,0,1-.9122-1.2057c1.3654-9.9143,3.7656-23.2576,6.5763-36.6182,2.0238-9.6319,4.9428-19.27,7.7591-28.58,1.91-6.3111,3.8853-12.8246,5.57-19.2953,5.1281-19.7144,12.2915-39.2834,19.1642-52.3532a1.075,1.075,0,0,1,1.9014,1.0034c-6.7986,12.9216-13.8936,32.3224-18.9847,51.8914-1.699,6.5078-3.6772,13.0469-5.5871,19.3723-2.8078,9.2728-5.7125,18.865-7.7221,28.4057-2.7964,13.3121-5.188,26.6042-6.5506,36.4642A1.071,1.071,0,0,1,488.2149,531.5881Z"/><path class="b63c9722-ff75-4cdd-aae9-604f4ea4adfc" d="M519.1063,412.0361a1.05,1.05,0,0,1-.3278-.06,1.0722,1.0722,0,0,1-.6955-1.354,3.222,3.222,0,0,0-.3592-2.9618c-3.4149-5.12-20.3757-6.4793-26.761-6.99-.9492-.077-1.7445-.1368-2.32-.2-10.1365-1.0091-25.3528-.7184-38.79-.4589-5.37.1-10.3874.2-14.5749.2a1.0775,1.0775,0,0,1,0-2.155c4.17,0,9.1787-.0912,14.5321-.191,13.4917-.2594,28.7763-.5559,39.0411.4675.5786.06,1.354.1225,2.2861.2,12.0607.9606,24.86,2.6567,28.3772,7.9359a5.329,5.329,0,0,1,.6158,4.8175A1.0749,1.0749,0,0,1,519.1063,412.0361Z"/><path class="b63c9722-ff75-4cdd-aae9-604f4ea4adfc" d="M519.6337,411.4176a1.0293,1.0293,0,0,1-.305-.0456,1.0688,1.0688,0,0,1-.7725-1.0547c.1-5.7752-2.3973-13.3121-7.2091-15.8718a1.0776,1.0776,0,0,1,1.0148-1.9014c5.7211,3.0615,8.0129,10.9147,8.3093,16.308a1.0846,1.0846,0,0,1,.2339,1.1829,4.0377,4.0377,0,0,1-.3592.8694A1.0879,1.0879,0,0,1,519.6337,411.4176Z"/><rect class="fc036b09-9bc8-491d-a651-3286d947eb5b" x="363.646" y="461.2651" width="36.3587" height="34.2778" rx="4.5794"/><path class="ae2302ad-c434-4b6a-b9be-c933ec74accb" d="M279.5292,420.4766c0,11.4962,8.184,20.82,18.2692,20.82H443.7492c10.0881,0,18.2749-9.3242,18.2749-20.82h0c0-11.5019-8.1868-20.8289-18.2749-20.8289H297.7984c-10.0852,0-18.2692,9.327-18.2692,20.8289Z"/><path class="a35e5af8-66b3-451e-9d21-e07fde2b1f8f" d="M496.9832,441.297H429.1544c-10.0852,0-18.272-9.3242-18.272-20.82,0-11.5019,8.1868-20.8289,18.272-20.8289h67.8288s24.11-.5588,22.6818,23.7992C519.665,423.4469,518.7215,441.297,496.9832,441.297Z"/><rect class="bcdc0142-8f31-48d9-ad4d-c4cc008dc503" x="371.485" y="495.5429" width="20.6751" height="75.5196"/><rect class="f1cb81c5-dc01-4cd1-8731-04de9da6d5c1" x="371.485" y="495.5429" width="8.8596" height="75.5196"/><rect class="fc036b09-9bc8-491d-a651-3286d947eb5b" x="363.646" y="571.0625" width="36.3587" height="44.172" rx="5.3538"/><path class="fc036b09-9bc8-491d-a651-3286d947eb5b" d="M487.08,630.1372h-.7458a3.9257,3.9257,0,0,1-3.9257-3.9257V613.2254a3.9257,3.9257,0,0,0-3.9257-3.9257h-193.32a3.9257,3.9257,0,0,0-3.9257,3.9257v12.9861a3.9257,3.9257,0,0,1-3.9257,3.9257h-.743a3.9257,3.9257,0,0,1-3.9257-3.9257V604.631a3.9257,3.9257,0,0,1,3.9257-3.9257H487.08a3.9257,3.9257,0,0,1,3.9257,3.9257v21.5805A3.9257,3.9257,0,0,1,487.08,630.1372Z"/><rect class="fc036b09-9bc8-491d-a651-3286d947eb5b" x="328.094" y="604.8016" width="8.5973" height="25.3356"/><rect class="fc036b09-9bc8-491d-a651-3286d947eb5b" x="433.4644" y="605.6567" width="8.5973" height="25.3272"/><path class="b8442202-34d4-4341-a8b5-a144ca75e2bb" d="M293.0009,639.6068A16.4078,16.4078,0,1,1,276.59,623.2075,16.4082,16.4082,0,0,1,293.0009,639.6068Z"/><path class="afb9f653-6804-4a13-9482-2c3274bcfb4d" d="M284.7942,639.6068a8.2011,8.2011,0,1,1-8.2039-8.2039A8.2,8.2,0,0,1,284.7942,639.6068Z"/><path class="b8442202-34d4-4341-a8b5-a144ca75e2bb" d="M348.7975,639.6068a16.4021,16.4021,0,1,1-16.4021-16.3993A16.399,16.399,0,0,1,348.7975,639.6068Z"/><path class="afb9f653-6804-4a13-9482-2c3274bcfb4d" d="M340.6022,639.6068a8.2053,8.2053,0,1,1-8.2068-8.2039A8.208,8.208,0,0,1,340.6022,639.6068Z"/><path class="b8442202-34d4-4341-a8b5-a144ca75e2bb" d="M454.168,639.6068A16.4078,16.4078,0,1,1,437.76,623.2075,16.4,16.4,0,0,1,454.168,639.6068Z"/><path class="afb9f653-6804-4a13-9482-2c3274bcfb4d" d="M445.967,639.6068a8.2053,8.2053,0,1,1-8.2067-8.2039A8.2062,8.2062,0,0,1,445.967,639.6068Z"/><path class="b8442202-34d4-4341-a8b5-a144ca75e2bb" d="M503.1119,639.6068a16.4064,16.4064,0,1,1-16.4106-16.3993A16.4027,16.4027,0,0,1,503.1119,639.6068Z"/><path class="afb9f653-6804-4a13-9482-2c3274bcfb4d" d="M494.908,639.6068a8.2025,8.2025,0,1,1-8.2067-8.2039A8.2025,8.2025,0,0,1,494.908,639.6068Z"/><path class="ae2302ad-c434-4b6a-b9be-c933ec74accb" d="M446.0639,433.37a7.9239,7.9239,0,0,1-7.93,7.9274h-143.93a7.9246,7.9246,0,0,1-7.9245-7.9274l-37.402-256.78a7.9271,7.9271,0,0,1,7.9359-7.9274H400.7317a7.9259,7.9259,0,0,1,7.93,7.9274Z"/><path class="ae2302ad-c434-4b6a-b9be-c933ec74accb" d="M437.4609,433.37a7.9191,7.9191,0,0,1-7.9245,7.9274H285.6123a7.9264,7.9264,0,0,1-7.9331-7.9274L240.2829,176.59a7.9259,7.9259,0,0,1,7.93-7.9274H392.1344a7.9235,7.9235,0,0,1,7.9274,7.9274Z"/><path class="a9f61684-4448-454f-beeb-c9aef5fff413" d="M448.6438,461.2794H306.1265a4.745,4.745,0,0,1-4.548-3.3925L298.4541,447.38a4.7449,4.7449,0,0,1,4.548-6.0973H451.7652a4.7449,4.7449,0,0,1,4.5484,6.0961l-3.1214,10.5069A4.745,4.745,0,0,1,448.6438,461.2794Z"/><path class="aaeaed65-5bba-4e15-a536-cd59192238e0" d="M390.75,441.2827H303.1041a4.2766,4.2766,0,0,0-4.0992,5.4955l3.4029,11.4435a4.2767,4.2767,0,0,0,4.0992,3.0577h81.2394a4.2766,4.2766,0,0,0,4.1365-3.191l3.0032-11.4436A4.2766,4.2766,0,0,0,390.75,441.2827Z"/></svg>