<svg id="b3c8e254-11c5-490b-9ab5-675f4e69e71c" data-name="Capa 1" xmlns="http://www.w3.org/2000/svg" viewBox="0 0 1000 740"><defs><style>.fedeb5c5-d26c-4280-ac94-8ce7d5cdee8d{fill:#fbd7cc;}.a00e8f89-1338-4e45-9e88-29293d35c092{fill:#09282f;}.b16ca633-9fe9-42fd-90d9-3c4b16645c4b{fill:#001b21;}.f60d5759-846d-408b-95d7-3d182ebaad6b{fill:#c6e7f0;}.be0da597-23fd-4913-87d4-e8b0517a585b{fill:#bd8c7a;}.eb214d49-7ea8-46f0-9569-cde44c7ad9b8{fill:#80c4d1;}.aad7c5b8-b735-47c1-8a87-fafb20854b1b{fill:#d69175;}.a0b58569-7b1b-46bf-ad7a-d21a29a1d3e2{fill:#e9a580;}.e2d23874-f819-4665-8eb5-40c6db21f53e{fill:#da9476;}.fa79547b-8692-40ef-983f-3ff248d01201{fill:#ececec;}.ab8a097d-5039-42b7-b9d0-0d676498826f{fill:#9a655e;}.a91290de-fd28-4492-be4c-c3ee4362dee1{fill:#00161d;}.b4f6cc7c-719e-4df3-bb94-f8f1ed364396{fill:#00b8ac;}.e429eb0f-5429-42eb-ae3d-8fe861acfa2a{fill:#001820;}.a90f3297-d007-4693-8484-00e2be935043{fill:#0e2d35;}.e25466ab-e4a5-4ba3-8ffe-80d32acfe368{fill:#00070c;}.b99c03bf-1e1e-428d-85a5-09154a6a62e3{fill:#266ba2;}.a27ea868-6d91-4669-8c3a-1e2ee3a72d91{fill:#242a6d;}.a7d20f83-4e54-46d2-bd35-5aaad391babd{fill:#63371a;}.a2d831db-56d8-455e-8677-5d9118a141a2{fill:#f6afa0;}.ba5e6d3a-8a5b-466b-9d4d-fe44a85ac32c{fill:#f3978d;}.ef428147-e832-4aae-93b8-49aec7be1d9f{fill:#f6b0a3;}.b785aad6-225d-4d84-83f8-d8f61623443d{fill:#12c8c8;}.ef0a7eb1-db4d-4b07-be65-0773951ddd33{fill:#268ea7;}.ac1572e6-a2ef-4709-8511-4ce9b256be30{fill:#f18a7c;}.b13e6389-e194-4691-acd1-3dbdd09a6d2f{fill:#f29694;}.a24e2d50-d968-44e9-a4aa-9ef7f3189c78{fill:#7f432e;}.a9d20481-7ca8-4cd5-9990-52790f1cfbd5{fill:#ed6d6e;}.b0f107fc-70da-4f40-b363-6492cdea410c{fill:#fff;}.a335d407-e611-49d6-9396-bde12223d41e{fill:#aac01f;}.a3631130-4100-4de8-911b-2584ebfb2f47{fill:#e6455d;}.f81cf80d-e661-4286-bca5-0fd7e6981198{fill:#fdefe5;}.e3655c98-e0b8-4214-b136-c90e1efe4928{fill:#f49d83;}.a4ebb6c1-6ff7-4121-8263-03dd6749fd43{fill:#6cd2e9;}.e27f034a-5ea0-4de3-838d-c52396db9632{fill:#f5a78c;}.b60735d5-228f-4c00-b7a7-f63fa1c05ee6{fill:#f08065;}.aee58839-2a57-4cfe-aec6-2f4feb853210{fill:#481d0e;}.bf988d7d-3a96-4c6f-ac36-9c99b571eb1a{fill:#f39380;}.b4a73ad8-71f1-48a4-bcf4-5de663baa1b7{fill:#3f1808;}.a05a3446-e5e8-4747-b656-ac8f7253bc8d{fill:#632c1d;}.b97c23d5-de87-47a5-8ddb-cc800cd1bca3{fill:#39bfdb;}.eebc56ef-777f-450e-8b70-61ab283577f9{fill:#fffffb;}.b989fbec-ded3-4d70-9f2d-cd0395c8ad82{fill:#e74a33;}.a055ff02-fc96-4b42-b8b7-1629d0a2e6d8{fill:#202155;}.ab44d73b-538d-4a3d-98f6-73d4f9811fa4{fill:#bf624a;}.a3b0347c-5e62-4846-be77-7558a1a34cd0{fill:#ae493f;}.a6718e68-dffa-41ed-be62-44c7e77c4507{fill:#151138;}.afd82374-ee5a-4879-b3b8-f58c7f3bfc65{fill:#64cfd9;}.ab4f7cf8-535f-4735-8aef-b48cc830b610{fill:#03597f;}.a75ba62c-834c-4c35-9a4f-a1fa25b93f0c{fill:#02648c;}.e523c7fe-1240-44c9-a6f0-ba48b04c4244{fill:#c04739;}.aff47c62-0cb4-4855-b5bc-b08b8c607090{fill:#585b80;}.b07e1e23-54f3-4bb9-8f9b-630b6486b887{fill:#45476f;}.faa414b5-570c-49a7-b64e-aab2ddc3b73b{fill:#f5a795;}.bc79376d-d412-4ca1-800f-7dd1a4a3102b{fill:#006b80;}.af6205a4-4516-429d-ada1-f03a56c2440c{fill:#00586a;}.aea14049-6918-4eec-987f-e209cf0507d2{fill:#57d4eb;}.a0c1da95-dca1-4a71-8de9-8bbb55e47f14{fill:#ba5f9c;}.af44377a-9914-4265-9fc5-c5cd91cdcb0f{fill:#833a2f;}.e73fddac-57a1-407f-90c2-a19b492500fb{fill:#00778e;}.ab08da64-f4fc-46c2-aedd-cb80001364d1{fill:#00b2c4;}.bad0836f-6e73-45e5-8979-94505731baa0{fill:#9d5388;}.ac494a43-76ce-4edd-9cd9-983a1d69a6dd{fill:#042731;}.a0ba04a2-1244-4425-b6af-611f0b8e050b{fill:#262944;}.a9c386f1-387d-41d6-9381-a5cdd73a505a{fill:#22253d;}.bb7c0f1d-a21f-4f11-89d2-0a87c7c3a7a4{fill:#303657;}.bce9f79b-1a2a-4995-9d44-b30001029cfa{fill:#9fcad5;}.b3e0fae6-a544-4e53-a377-b6e377d05389{fill:#232f39;}.b2321ff5-0421-4615-923a-5c72aa5b246d{fill:#100f23;}.ea96bb59-ca36-4c32-8d43-c11b816bae58{fill:#0c4453;}</style></defs><ellipse class="fedeb5c5-d26c-4280-ac94-8ce7d5cdee8d" cx="505.1349" cy="653.3756" rx="489.9307" ry="74.8268"/><path class="a00e8f89-1338-4e45-9e88-29293d35c092" d="M561.27,297.7887h9.5022s6.14,1.2731,6.1035,7.4668H497.54s.5364-7.8141,7.9807-7.4668Z"/><path class="b16ca633-9fe9-42fd-90d9-3c4b16645c4b" d="M499.0845,297.7887h9.491s6.1514,1.2731,6.1062,7.4668h-56.37s.5364-7.8141,7.9807-7.4668Z"/><polygon class="f60d5759-846d-408b-95d7-3d182ebaad6b" points="362.016 660.027 353.061 660.027 349.891 328.924 367.803 328.924 362.016 660.027"/><rect class="be0da597-23fd-4913-87d4-e8b0517a585b" x="152.6357" y="305.2555" width="709.3784" height="23.6682"/><polygon class="eb214d49-7ea8-46f0-9569-cde44c7ad9b8" points="148.249 660.1 157.031 660.1 170.26 328.924 152.695 328.924 148.249 660.1"/><rect class="aad7c5b8-b735-47c1-8a87-fafb20854b1b" x="785.3354" y="328.9237" width="76.6787" height="331.1764"/><rect class="a0b58569-7b1b-46bf-ad7a-d21a29a1d3e2" x="611.5648" y="328.9237" width="173.7706" height="331.1764"/><rect class="e2d23874-f819-4665-8eb5-40c6db21f53e" x="622.9725" y="342.381" width="150.9551" height="66.4679"/><rect class="fa79547b-8692-40ef-983f-3ff248d01201" x="682.0582" y="372.0199" width="32.7837" height="7.2015"/><rect class="e2d23874-f819-4665-8eb5-40c6db21f53e" x="622.9725" y="419.9179" width="150.9551" height="66.4735"/><rect class="fa79547b-8692-40ef-983f-3ff248d01201" x="682.0582" y="449.5624" width="32.7837" height="7.1931"/><rect class="e2d23874-f819-4665-8eb5-40c6db21f53e" x="622.9725" y="498.9426" width="150.9551" height="66.4678"/><rect class="fa79547b-8692-40ef-983f-3ff248d01201" x="682.0582" y="528.573" width="32.7837" height="7.1987"/><rect class="e2d23874-f819-4665-8eb5-40c6db21f53e" x="622.9725" y="577.9587" width="150.9551" height="66.4679"/><rect class="fa79547b-8692-40ef-983f-3ff248d01201" x="682.0582" y="607.5976" width="32.7837" height="7.193"/><rect class="ab8a097d-5039-42b7-b9d0-0d676498826f" x="783.9041" y="305.7185" width="78.11" height="22.7365"/><path class="b16ca633-9fe9-42fd-90d9-3c4b16645c4b" d="M679.7207,297.67l.1666-128.3992c.5308-13.652-7.3144-11.8679-7.3144-11.8679s-7.1253-2.504-8.5565,12.8362L645.5764,297.67Z"/><path class="b16ca633-9fe9-42fd-90d9-3c4b16645c4b" d="M679.7207,297.67H689.26s6.1795,1.2845,6.1343,7.5036h-79.736s.5364-7.8536,8.0258-7.5036Z"/><rect class="a91290de-fd28-4492-be4c-c3ee4362dee1" x="798.7165" y="85.8819" width="5.4766" height="187.6938"/><rect class="a00e8f89-1338-4e45-9e88-29293d35c092" x="531.4504" y="85.8819" width="267.2661" height="187.6797"/><rect class="b4f6cc7c-719e-4df3-bb94-f8f1ed364396" x="540.2328" y="93.3544" width="249.7098" height="172.7346"/><path class="e429eb0f-5429-42eb-ae3d-8fe861acfa2a" d="M685.8467,76.4869a11.649,11.649,0,0,1-11.5348,11.5348c-13.6606.3473-17.0341-5.5218-17.0341-11.89,0-6.3631.8836-13.1242,17.0341-11.1735C680.6354,65.7227,685.8467,70.1238,685.8467,76.4869Z"/><path class="a90f3297-d007-4693-8484-00e2be935043" d="M676.6127,76.501a11.5293,11.5293,0,1,1-11.5293-11.5263A11.5222,11.5222,0,0,1,676.6127,76.501Z"/><path class="e25466ab-e4a5-4ba3-8ffe-80d32acfe368" d="M670.5827,76.501a5.4993,5.4993,0,1,1-5.4993-5.4992A5.5024,5.5024,0,0,1,670.5827,76.501Z"/><rect class="b99c03bf-1e1e-428d-85a5-09154a6a62e3" x="667.8133" y="100.3216" width="74.8438" height="79.2901"/><rect class="a27ea868-6d91-4669-8c3a-1e2ee3a72d91" x="667.8133" y="100.3216" width="74.8438" height="6.4901"/><path class="a7d20f83-4e54-46d2-bd35-5aaad391babd" d="M713.1707,130.02a16.1572,16.1572,0,0,1-.8865,11.1566c-1.2844,3.08-3.0093,5.6827-3.7122,9.0788-.6889,3.3114.37,5.8013,1.4821,8.8417.9541,2.617,1.4284,6.1881-.9458,8.2827-2.648,2.3233-8.5339,1.5273-11.7409,1.2873-3.7207-.2739-7.7435-.0762-11.3541-1.1574-3.1308-.9373-5.0589-3.9127-5.7787-6.9983a13.2242,13.2242,0,0,1,2.6169-11.2243c2.1342-2.823,5.2282-4.76,3.2465-8.5848-1.09-2.0975-2.8061-3.3283-3.08-5.8041a15.1737,15.1737,0,0,1,1.4369-7.7689c2.8231-6.5042,9.268-11.693,16.2578-11.0493a14.4839,14.4839,0,0,1,7.82,3.9324C710.9857,122.5839,712.2109,126.7,713.1707,130.02Z"/><path class="a2d831db-56d8-455e-8677-5d9118a141a2" d="M712.1035,179.6116c-1.8829-6.58-3.3509-13.4347-3.3509-13.4347-2.9585-12.1107,2.3686-14.57,2.3686-14.57a17.8779,17.8779,0,0,1,6.2784,5.3863c1.09,4.675,2.6762,16.4836,3.4723,22.618Z"/><path class="a2d831db-56d8-455e-8677-5d9118a141a2" d="M718.8506,179.6116c1.2477-2.5406,2.4673-4.4632,2.4673-4.4632,3.4413-5.5359,8.3053-17.353,8.3053-17.353l2.58.4545a127.5668,127.5668,0,0,1-5.22,21.3617Z"/><polygon class="a2d831db-56d8-455e-8677-5d9118a141a2" points="685.855 179.612 681.46 152.319 695.561 147.093 702.929 147.093 710.559 150.67 709.698 179.612 685.855 179.612"/><path class="a2d831db-56d8-455e-8677-5d9118a141a2" d="M703.866,147.5535h-9.3187V136.428h9.3187S702.8751,145.1935,703.866,147.5535Z"/><path class="ba5e6d3a-8a5b-466b-9d4d-fe44a85ac32c" d="M703.4284,144.1207a14.3784,14.3784,0,0,1-8.8811-.5759V136.428h9.3187A74.2927,74.2927,0,0,0,703.4284,144.1207Z"/><path class="ef428147-e832-4aae-93b8-49aec7be1d9f" d="M708.7753,130.48c.014,3.2465-.5223,8.9348-2.7695,10.9985-2.7157,2.504-11.4585-.271-12.3733-4.13-.9851-4.1132-3.08-9.0083-2.3148-13.048a8.1144,8.1144,0,0,1,10.0217-6.4139C706.0144,119.0523,708.7668,126.2312,708.7753,130.48Z"/><path class="ef428147-e832-4aae-93b8-49aec7be1d9f" d="M689.85,129.952c-1.09,1.4453.6492,5.0136,3.3734,5.8634.5223-.7961.4771-2.823.4235-3.7687a4.0383,4.0383,0,0,0-1.499-2.329A1.629,1.629,0,0,0,689.85,129.952Z"/><path class="a7d20f83-4e54-46d2-bd35-5aaad391babd" d="M696.4528,127.0556c-1.05.559-.9373,2.0325-1.2111,2.7524a2.42,2.42,0,0,1-2.456,1.8689,2.4418,2.4418,0,0,0-1.9225-2.1173c-.8779-.017-1.0981.5589-1.3381,1.1405a18.1543,18.1543,0,0,1-.5082-4.9544,20.3731,20.3731,0,0,1,.9232-3.63c.37-1.2873.9909-1.5809,1.9451-2.5181.892-.878,1.9647-.9683,2.8653-1.6741a2.5969,2.5969,0,0,1,.7425.8865c.621.7255,2.487,3.7658,2.8286,4.2288C698.3216,123.0384,699.9561,125.1641,696.4528,127.0556Z"/><path class="a7d20f83-4e54-46d2-bd35-5aaad391babd" d="M698.6688,123.53l-3.9183-5.6065c1.3014-1.883,6.1739-1.64,6.18-1.64,5.0927.1524,9.6067,5.0983,9.0252,10.1741a9.3485,9.3485,0,0,1-1.18,4.0228c-.432-5.2028-1.3777-5.46-1.77-5.7025a10.29,10.29,0,0,1-5.1577-.1976,19.9334,19.9334,0,0,1-3.5259-1.5414"/><path class="b785aad6-225d-4d84-83f8-d8f61623443d" d="M712.6794,171.9951a34.2666,34.2666,0,0,0-1.0134,7.6165H685.3781l.0226-1.68-2.4335-8.7655c4.22-6.0384,8.3195-13.3444,1.1631-17.8669.0847-.0311.175-.0536.2569-.0931,2.2386-.8244,6.4844-2.456,8.7231-3.2832,5.8832,6.3772,12.3761.3641,12.3761.3641l5.073,2.3827,2.12,5.0984c.8554,2.216,3.0489,7.4753,2.617,9.7055C714.8052,168.06,713.707,169.573,712.6794,171.9951Z"/><path class="ef0a7eb1-db4d-4b07-be65-0773951ddd33" d="M698.9709,151.1161c1.9366,0,4.9177-.7791,5.8634-2.041a.2829.2829,0,0,0-.0593-.4009.2889.2889,0,0,0-.3952.0593c-.9062,1.2111-4.5592,2.0805-6.2558,1.739a8.32,8.32,0,0,1-4.4773-2.1935.28.28,0,0,0-.4009,0,.2729.2729,0,0,0,0,.3952,8.8365,8.8365,0,0,0,4.7879,2.36A4.8593,4.8593,0,0,0,698.9709,151.1161Z"/><path class="ac1572e6-a2ef-4709-8511-4ce9b256be30" d="M691.8005,133.8619a.3172.3172,0,0,0,.2794-.1666.3217.3217,0,0,0-.127-.4375,2.0467,2.0467,0,0,1-.7961-1.197,1.701,1.701,0,0,1,.0706-1.276.323.323,0,0,0-.5618-.319,2.3425,2.3425,0,0,0-.1271,1.7616,2.6862,2.6862,0,0,0,1.0954,1.5893A.3606.3606,0,0,0,691.8005,133.8619Z"/><path class="ac1572e6-a2ef-4709-8511-4ce9b256be30" d="M691.0213,132.439a.3028.3028,0,0,0,.2117-.09.7845.7845,0,0,1,.6126-.1948.3189.3189,0,0,0,.3416-.3049.3077.3077,0,0,0-.2964-.33,1.3958,1.3958,0,0,0-1.0869.3613.3168.3168,0,0,0-.0254.4545A.3309.3309,0,0,0,691.0213,132.439Z"/><path class="a2d831db-56d8-455e-8677-5d9118a141a2" d="M732.2317,146.4723c1.7784.0677-.37,4.6607-.3558,5.6121.4178-1.0812,1.6967-5.31,2.8683-5.2113.6888.1214-.9684,3.7207-1.1434,4.4548.3783-.59,1.468-3.1618,2.2556-2.905.5053.319-.7114,2.7469-.9542,3.5486.1666-.144,1.2873-2.4052,1.6345-2.0044.37.37-.1665,2.058-.4912,2.8739-1.49,3.6755-3.0263,7.8-5.1971,6.1429-1.6176-1.2337-2.4815-1.9592-3.17-7.7831-.127-1.0078,1.5442-.22,2.202,1.7249C730.3346,152.697,732.02,146.4638,732.2317,146.4723Z"/><path class="ac1572e6-a2ef-4709-8511-4ce9b256be30" d="M730.2358,154.0972l-.113-.1129c-.1213-.13.257-.1892.3332-.0988.0508.0452.0819.0988.1271.1439-.1356-.0084-.2711-.0169-.4066-.0225a.4867.4867,0,0,1,.5138-.0678c.1044.0452.1807.2033.2484.2936.0847.1214.2654.1524.3642.2738a2.1013,2.1013,0,0,1-.0537,2.23c-.1044.1581-.6492.1581-.59-.0762a4.3887,4.3887,0,0,0,.319-1.5188c-.0169-.3331-.175-.446-.3951-.6352a.76.76,0,0,1-.1723-.206c-.1214-.2174-.0931-.0734.1186-.1581-.09.0311-.3162.0593-.3783-.0536a.567.567,0,0,1-.0508-.1271c-.0452-.1524.3387-.175.3783-.0536.0141.0452.0282.09.0367.13.0395.1185-.2259.1185-.2795.0592Z"/><path class="b13e6389-e194-4691-acd1-3dbdd09a6d2f" d="M701.7939,132.871c0,.4319-.8243.7791-1.8321.7791-1.0135,0-1.8293-.3472-1.8293-.7791,0-.4234.8158-.7707,1.8293-.7707C700.97,132.1,701.7939,132.4476,701.7939,132.871Z"/><path class="b13e6389-e194-4691-acd1-3dbdd09a6d2f" d="M708.4873,132.871c0,.4319-.6578.7791-1.468.7791-.8158,0-1.4821-.3472-1.4821-.7791,0-.4234.6663-.7707,1.4821-.7707C707.83,132.1,708.4873,132.4476,708.4873,132.871Z"/><path class="a24e2d50-d968-44e9-a4aa-9ef7f3189c78" d="M706.6805,129.9124c-.3472.0255-.63.5308-.6041,1.1434.0226.6041.33,1.067.686,1.0445s.63-.5307.607-1.1348S707.0362,129.89,706.6805,129.9124Z"/><path class="a24e2d50-d968-44e9-a4aa-9ef7f3189c78" d="M700.4389,129.9124c-.3558.0255-.6268.5308-.6041,1.1434.0225.5985.3246,1.067.6888,1.0445.3557-.0226.6267-.5364.6041-1.1348C701.1136,130.3613,700.803,129.89,700.4389,129.9124Z"/><path class="ac1572e6-a2ef-4709-8511-4ce9b256be30" d="M704.14,130.1016c-.2822.8187.46,1.6741.974,2.1963.2512.24.5674.6182.4178.9965-.3105.7735-1.3551,1.1038-2.0975,1.2647-.0734.0142-.5815.0283-.46-.175a.3507.3507,0,0,1,.6042,0c-.1271-.0367-.2569-.0677-.384-.1044.8977-.1751,2.5266-.7792,1.5414-1.8773-.5-.559-1.3381-1.5357-.8243-2.329.0395-.0537.2569-.0537.2286.0282Z"/><path class="a9d20481-7ca8-4cd5-9990-52790f1cfbd5" d="M703.8349,137.2664a2.1849,2.1849,0,0,0,1.6035-.6973.29.29,0,0,0,0-.4009.2794.2794,0,0,0-.4008,0,1.88,1.88,0,0,1-2.51.0707.2726.2726,0,0,0-.3952.0451.2755.2755,0,0,0,.048.4008A2.8055,2.8055,0,0,0,703.8349,137.2664Z"/><path class="a7d20f83-4e54-46d2-bd35-5aaad391babd" d="M702.1271,129.7854a.2992.2992,0,0,0,.22-.0988.2826.2826,0,0,0-.048-.4008,2.7331,2.7331,0,0,0-3.78-.0537.2853.2853,0,0,0,.3558.446,2.1739,2.1739,0,0,1,3.0685.0452A.26.26,0,0,0,702.1271,129.7854Z"/><path class="a7d20f83-4e54-46d2-bd35-5aaad391babd" d="M705.2493,129.7628a.2733.2733,0,0,0,.1835-.0677,2.1122,2.1122,0,0,1,2.6254-.3021.31.31,0,0,0,.4009-.1072.298.298,0,0,0-.0988-.3868,2.7076,2.7076,0,0,0-3.2832.3557.2869.2869,0,0,0-.0452.4009A.29.29,0,0,0,705.2493,129.7628Z"/><path class="a2d831db-56d8-455e-8677-5d9118a141a2" d="M685.3866,179.6116h-8.7288l-.4093-17.9572S675.87,152.841,684.13,151.3c0,0,5.584,2.4871,2.919,11.9583Z"/><path class="b0f107fc-70da-4f40-b363-6492cdea410c" d="M692.1646,134.6946a.6423.6423,0,1,0,.6436-.6436A.6415.6415,0,0,0,692.1646,134.6946Z"/><polygon class="b785aad6-225d-4d84-83f8-d8f61623443d" points="685.977 179.612 686.674 167.334 713.586 169.415 714.571 179.612 685.977 179.612"/><path class="b785aad6-225d-4d84-83f8-d8f61623443d" d="M685.2059,150.89s4.5084,1.6628,3.9324,9.4317l-1.1433,18.1943a22.5848,22.5848,0,0,1-14.0163-.9457l2.0354-19.1908S676.9147,152.7422,685.2059,150.89Z"/><path class="b785aad6-225d-4d84-83f8-d8f61623443d" d="M710.0767,150.3314s6.3235,1.626,8.3137,6.459l5.1125,10.8009s-3.4046,7.6108-9.59,8.8811l-7.0349-14.6373S703.3974,153.6653,710.0767,150.3314Z"/><path class="ef0a7eb1-db4d-4b07-be65-0773951ddd33" d="M687.9047,177.0483a.3.3,0,0,0,.2879-.2653c.1073-1.2788.2654-2.919.432-4.6834.3387-3.4638.717-7.4047.8468-9.9624.1355-2.919.4094-8.3505-2.9641-10.7642a.284.284,0,0,0-.3952.0678.2893.2893,0,0,0,.0621.3952c3.1222,2.23,2.8654,7.4584,2.73,10.2729-.13,2.5408-.5138,6.4732-.8469,9.94-.1666,1.7616-.3331,3.4018-.44,4.6891a.2978.2978,0,0,0,.2654.3105Z"/><path class="b0f107fc-70da-4f40-b363-6492cdea410c" d="M679.5542,103.4608a1.7517,1.7517,0,1,0,1.7559-1.7474A1.7578,1.7578,0,0,0,679.5542,103.4608Z"/><path class="a335d407-e611-49d6-9396-bde12223d41e" d="M674.7128,103.4608a1.7545,1.7545,0,1,0,1.7558-1.7474A1.7577,1.7577,0,0,0,674.7128,103.4608Z"/><path class="a3631130-4100-4de8-911b-2584ebfb2f47" d="M669.88,103.4608a1.7474,1.7474,0,1,0,1.7473-1.7474A1.7505,1.7505,0,0,0,669.88,103.4608Z"/><rect class="f81cf80d-e661-4286-bca5-0fd7e6981198" x="592.9865" y="100.3216" width="74.8269" height="79.2901"/><rect class="a27ea868-6d91-4669-8c3a-1e2ee3a72d91" x="592.9865" y="100.3216" width="74.8269" height="6.4901"/><path class="b0f107fc-70da-4f40-b363-6492cdea410c" d="M604.7274,103.4608a1.7475,1.7475,0,1,0,1.7474-1.7474A1.7505,1.7505,0,0,0,604.7274,103.4608Z"/><path class="a335d407-e611-49d6-9396-bde12223d41e" d="M599.8859,103.4608a1.7517,1.7517,0,1,0,1.7475-1.7474A1.7505,1.7505,0,0,0,599.8859,103.4608Z"/><path class="a3631130-4100-4de8-911b-2584ebfb2f47" d="M595.0388,103.4608a1.75,1.75,0,1,0,1.7531-1.7474A1.7608,1.7608,0,0,0,595.0388,103.4608Z"/><path class="e3655c98-e0b8-4214-b136-c90e1efe4928" d="M646.0733,179.6116a75.3066,75.3066,0,0,0-2.7158-8.6469s4.26-14.0162,11.6873-2.504c0,0,.5223,4.4491.8638,11.1509Z"/><path class="a4ebb6c1-6ff7-4121-8263-03dd6749fd43" d="M649.7968,179.6116l-6.507-17.0651s-4.085-11.1961.9541-17.6862c0,0,6.2022,1.4595,12.7092,15.8569l4.6044,9.0393-9.4854,9.8551Z"/><polygon class="e27f034a-5ea0-4de3-838d-c52396db9632" points="642.2 144.891 637.61 141.54 627.755 141.54 622.292 144.891 642.2 144.891"/><path class="e3655c98-e0b8-4214-b136-c90e1efe4928" d="M638.0559,143.4093H627.7547V132.16h10.3012S636.9606,141.0267,638.0559,143.4093Z"/><path class="b60735d5-228f-4c00-b7a7-f63fa1c05ee6" d="M627.7547,137.2579V132.16h10.3012s-.31,2.504-.4376,5.2056A12.5425,12.5425,0,0,1,627.7547,137.2579Z"/><path class="aee58839-2a57-4cfe-aec6-2f4feb853210" d="M644.0012,123.2332a19.8365,19.8365,0,0,1-2.0721,5.1379c-1.1575,1.73-3.0489,1.99-4.0764.0141a11.3577,11.3577,0,0,1-.9148-6.2247c.113-1.09-1.6062-4.9714-.6605-5.7787,1.4906-1.2648,6.2276-1.437,7.5064-.1751C644.9694,117.3952,644.4641,121.7511,644.0012,123.2332Z"/><path class="e27f034a-5ea0-4de3-838d-c52396db9632" d="M643.2841,126.1014a27.7992,27.7992,0,0,1-.4686,5.869c-.3783,1.9592-.8187,5.615-2.9218,6.5833a4.4453,4.4453,0,0,1-1.9733.3387,12.5587,12.5587,0,0,1-8.3053-3.7291c-3.8195-3.82-4.562-13.7368-1.3551-17.8443,2.936-3.7518,13.2541-2.7242,14.3663,2.823A34.1889,34.1889,0,0,1,643.2841,126.1014Z"/><path class="e3655c98-e0b8-4214-b136-c90e1efe4928" d="M643.2841,126.1014a27.7992,27.7992,0,0,1-.4686,5.869c-.3783,1.9592-.8187,5.615-2.9218,6.5833a4.4453,4.4453,0,0,1-1.9733.3387,12.5587,12.5587,0,0,1-8.3053-3.7291c-3.8195-3.82-4.562-13.7368-1.3551-17.8443,2.936-3.7518,13.2541-2.7242,14.3663,2.823A34.1889,34.1889,0,0,1,643.2841,126.1014Z"/><path class="b60735d5-228f-4c00-b7a7-f63fa1c05ee6" d="M628.8133,134.2091c-3.1024-4.3108-3.5259-13.0847-.5533-16.89a5.9,5.9,0,0,1,.5533-.5759l-.6436,7.9213.6436,2.3742Z"/><path class="a24e2d50-d968-44e9-a4aa-9ef7f3189c78" d="M641.2261,126.4345a.4984.4984,0,1,0,.4912-.6041A.557.557,0,0,0,641.2261,126.4345Z"/><path class="a24e2d50-d968-44e9-a4aa-9ef7f3189c78" d="M635.5462,126.6688a.4965.4965,0,1,0,.4828-.6126A.555.555,0,0,0,635.5462,126.6688Z"/><path class="bf988d7d-3a96-4c6f-ac36-9c99b571eb1a" d="M627.4583,126.2c-.46-.44-.87-1.6571-1.6938-1.2252a2.1746,2.1746,0,0,1-.2513.0819c-.3162.1355-.37.4545-.4827.7339a7.1235,7.1235,0,0,0-.3247,1.5273c-.0084.0311-.0761.0311-.0761,0-.13-.9146.0451-2.3827.9993-2.8117a1.8659,1.8659,0,0,1,2.3374,1.6261c0,.1806-.4178.15-.5081.0677Z"/><path class="b60735d5-228f-4c00-b7a7-f63fa1c05ee6" d="M639.97,132.8879c-.5307.5731-1.3917.4235-2.0947.4235a3.2379,3.2379,0,0,1-1.7023-.5308.12.12,0,0,1-.0452-.1524c.0086-.0226.0142-.0508.0227-.0734.0451-.1666.4008-.1158.5-.0678a3.9189,3.9189,0,0,0,2.9868.28c.0678-.031.4771-.04.3331.1214Z"/><path class="aee58839-2a57-4cfe-aec6-2f4feb853210" d="M629.1154,123.8853c-.0311.5053-.1524,2.9868-.2738,3.4328-.1186.4461-.55.5844-.6945.2287-.7565-.68-.6437-2.504-1.8829-2.6791-1.341-.1891-1.5978,1.7785-1.5584,2.6791a9.56,9.56,0,0,1-1.3324-3.9494c0-.7171-.0085-2.4419,0-3.7292a4.7267,4.7267,0,0,1,5.0306-4.8415,4.1155,4.1155,0,0,1,3.4865,2.1031c.6351,1.3833-.2485,2.5492-1.1575,3.5316C629.5982,121.912,629.2057,122.1238,629.1154,123.8853Z"/><path class="e3655c98-e0b8-4214-b136-c90e1efe4928" d="M625.1209,124.9806c-1.2845,1.3015-.4772,5.07,2.1257,6.2954.6436-.72.6125-2.648.68-3.5937a3.6208,3.6208,0,0,0-.4686-2.6085A1.6632,1.6632,0,0,0,625.1209,124.9806Z"/><path class="b60735d5-228f-4c00-b7a7-f63fa1c05ee6" d="M627.2381,127.5609c.0226.175.175.559.031.7114a1.036,1.036,0,0,1-.3923.271.6382.6382,0,0,1-.7736-.3021,2.3347,2.3347,0,0,1-.24-.9683.8.8,0,0,1,.127-.68.2778.2778,0,0,1,.2879,0c.2654.2654.1892.7481.2344,1.0812a1.3266,1.3266,0,0,0,.2032.6126c.048.0451.0537.0226-.0451.017-.096,0,.0225-.0311.0762-.0678.1665-.1384.1073-.4855.1214-.6747.0085-.1355.3472-.127.37,0Z"/><path class="b60735d5-228f-4c00-b7a7-f63fa1c05ee6" d="M626.49,126.6829c-.3472-.446-.6944,0-.7791.3416a1.6572,1.6572,0,0,0-.0142.6126,5.0414,5.0414,0,0,0,.4828,1.149c.031.1073-.1892.0988-.2428.0677a1.6958,1.6958,0,0,1-.5815-2.2387c.2963-.46,1.2025-.5222,1.4313.0311.0451.1214-.2429.113-.2965.0367Z"/><path class="b60735d5-228f-4c00-b7a7-f63fa1c05ee6" d="M640.6954,124.5516c.0988.6719-.1807,1.4058-.09,2.1172a15.3209,15.3209,0,0,0,.96,3.1025c.4771,1.3155-2.2838,1.2478-2.9275,1.1405-.46-.0818-.127-.37.1892-.3331a2.4526,2.4526,0,0,0,.6747.031c2.0185-.09,1.3691-.7932,1.1179-1.482a9.9927,9.9927,0,0,1-.6634-2.0947c-.1214-.9316.3782-1.612.4517-2.4814.0169-.0988.2653-.09.2879,0Z"/><path class="b4a73ad8-71f1-48a4-bcf4-5de663baa1b7" d="M645.6582,114.4536a12.5783,12.5783,0,0,1-.3782,1.5865,6.1146,6.1146,0,0,1-4.6523,3.9579c-1.7164.3473-2.8372-.8779-4.4181-1.09-1.4369-.1892-2.5858.74-3.9183,1.09-1.2845.3388-1.7616.415-2.7525-.4714a11.1408,11.1408,0,0,0-1.5667-.9429c-.559-.3727-.9232-.9768-1.5132-1.3014-1.0049-.5618-.7565-.5081-1.2619-1.674a3.23,3.23,0,0,1-.0084-2.744c.4629-.9542,1.7248-1.1264,2.1342-1.9451.4093-.81,3.0545-.2258,3.9494-.4093a22.7379,22.7379,0,0,1,8.5-.1891S645.65,111.6,645.6582,114.4536Z"/><path class="a05a3446-e5e8-4747-b656-ac8f7253bc8d" d="M637.768,125.2008a.2386.2386,0,0,0,.206-.1044.2575.2575,0,0,0-.0536-.3557,3.004,3.004,0,0,0-3.526.0225.2524.2524,0,0,0-.0056.3614.2574.2574,0,0,0,.3614.0085,2.5363,2.5363,0,0,1,2.8681.0141A.2227.2227,0,0,0,637.768,125.2008Z"/><path class="a05a3446-e5e8-4747-b656-ac8f7253bc8d" d="M640.7124,125.2008a.31.31,0,0,0,.1722-.0592,1.7121,1.7121,0,0,1,1.9535-.0622.2472.2472,0,0,0,.3472-.0818.2579.2579,0,0,0-.0847-.3557,2.2348,2.2348,0,0,0-2.5633.1129.2537.2537,0,0,0-.0141.3642A.2353.2353,0,0,0,640.7124,125.2008Z"/><path class="a4ebb6c1-6ff7-4121-8263-03dd6749fd43" d="M612.7984,179.6116c.1072-1.3833.175-2.2471.175-2.2471l1.7616-30.6664,13.02-5.46c7.7915,6.18,9.8551,0,9.8551,0l7.21,3.6163c4.8245,2.9415,5.5952,22.7366,5.5952,22.7366.3557,4.0029.7283,8.0116,1.084,12.02Z"/><path class="b97c23d5-de87-47a5-8ddb-cc800cd1bca3" d="M650.4461,175.0807a.2549.2549,0,0,0,.2513-.2569c0-7.9214-.3106-16.3932-2.5662-24.6223a.2576.2576,0,0,0-.3162-.1807.2621.2621,0,0,0-.1834.3162c2.2415,8.1783,2.5576,16.6049,2.5576,24.4868A.2542.2542,0,0,0,650.4461,175.0807Z"/><path class="b97c23d5-de87-47a5-8ddb-cc800cd1bca3" d="M633.6915,146.8139a6.6,6.6,0,0,0,1.6712-.1977c.87-.2427,3.2973-1.2111,3.941-2.8371a.2457.2457,0,0,0-.1355-.3331.2489.2489,0,0,0-.3332.1439c-.5758,1.4144-2.8512,2.3291-3.6078,2.5266-2.2161.6127-6.5888-.2568-7.8451-2.6621a.2691.2691,0,0,0-.3473-.1072.2513.2513,0,0,0-.1044.35C628.0173,145.775,631.2327,146.8139,633.6915,146.8139Z"/><path class="e3655c98-e0b8-4214-b136-c90e1efe4928" d="M603.8438,179.6116c-.5392-10.7331,1.4877-19.1993,3.6529-22.1324,1.7079,0,4.4774,1.0586,8.0174,0,.6747,3.2437-2.9642,17.85-3.094,22.1324Z"/><path class="a4ebb6c1-6ff7-4121-8263-03dd6749fd43" d="M616.37,179.6116h-10.12a18.5521,18.5521,0,0,1-5.9086-2.0184l5.6291-21.5678a17.5109,17.5109,0,0,1,8.7655-9.3273c5.5387,1.2873,4.977,7.7012,4.977,7.7012Z"/><path class="b97c23d5-de87-47a5-8ddb-cc800cd1bca3" d="M616.24,177.0032a.25.25,0,0,0,.2428-.1892,128.1354,128.1354,0,0,0,2.9134-14.5611l.2174-1.3635c.7057-4.3644,1.211-9.3188-1.6854-12.7826a.2566.2566,0,0,0-.3642-.04.2613.2613,0,0,0-.0282.3642c2.7524,3.3058,2.2528,8.1246,1.5725,12.3818l-.22,1.3551a125.7106,125.7106,0,0,1-2.8964,14.5074.2706.2706,0,0,0,.1807.319C616.1945,176.9947,616.2171,177.0032,616.24,177.0032Z"/><rect class="eebc56ef-777f-450e-8b70-61ab283577f9" x="592.9865" y="179.6116" width="74.8269" height="79.2984"/><rect class="a27ea868-6d91-4669-8c3a-1e2ee3a72d91" x="592.9865" y="179.6116" width="74.8269" height="6.4901"/><path class="b0f107fc-70da-4f40-b363-6492cdea410c" d="M604.7274,182.7508a1.7475,1.7475,0,1,0,1.7474-1.7474A1.7505,1.7505,0,0,0,604.7274,182.7508Z"/><path class="a335d407-e611-49d6-9396-bde12223d41e" d="M599.8859,182.7508a1.7517,1.7517,0,1,0,1.7475-1.7474A1.7505,1.7505,0,0,0,599.8859,182.7508Z"/><path class="a3631130-4100-4de8-911b-2584ebfb2f47" d="M595.0388,182.7508a1.75,1.75,0,1,0,1.7531-1.7474A1.7608,1.7608,0,0,0,595.0388,182.7508Z"/><path class="b989fbec-ded3-4d70-9f2d-cd0395c8ad82" d="M641.83,208.8552c.2117.8639.9767,1.5725,1.2873,2.4052a5.26,5.26,0,0,1,.1947,3.2239c-.3246,1.0671-1.2082,1.3523-1.8067,1.9733a3.5319,3.5319,0,0,1-2.0043.0678,24.6467,24.6467,0,0,0-2.4-.8611,3.3167,3.3167,0,0,0-3.1138,1.64c-.44.5675-.9231,1.4-1.68,1.5893a3.4668,3.4668,0,0,1-3.0348-.9,6.2058,6.2058,0,0,0-3.6445-1.77,3.3122,3.3122,0,0,1-2.4815-1.005,6.515,6.515,0,0,1-1.1659-2.9444,3.0105,3.0105,0,0,0-.9457-1.7756c-.4234-.3727-1.09-.5534-1.49-.9684v-.2879a21.5073,21.5073,0,0,1,2.0213-8.0879c1.0727-2.298,2.5181-4.6128,5.279-4.5762,1.27.0085,1.9055.2965,2.9359-.6662,1.914-1.7757,3.653-4.1752,6.716-3.1984,2.4052.765,4.57,3.4807,5.8182,5.53a7.5127,7.5127,0,0,1,.6042,7.5487C642.3892,206.7831,641.5423,207.6441,641.83,208.8552Z"/><path class="a2d831db-56d8-455e-8677-5d9118a141a2" d="M638.7362,232.0859c-.7566-7.3682,2.936-7.5347,2.936-7.5347,4.1893-.8017,5.7335,5.59,5.7335,5.59s2.14,14.0643,1.7249,20.2891c0,0-4.5394,2.45-6.3631-1.55Z"/><path class="a2d831db-56d8-455e-8677-5d9118a141a2" d="M646.74,258.91a70.84,70.84,0,0,1-3.924-9.6151s1.7982-9.5475,6.27-3.8817a88.0537,88.0537,0,0,0,3.5259,13.4968Z"/><polygon class="a2d831db-56d8-455e-8677-5d9118a141a2" points="621.928 258.91 614.523 225.726 628.359 220.633 634.835 220.633 643.397 224.642 640.461 258.91 621.928 258.91"/><path class="a2d831db-56d8-455e-8677-5d9118a141a2" d="M635.6592,221.0422h-8.1924V211.26h8.1924S634.7812,218.9616,635.6592,221.0422Z"/><path class="ac1572e6-a2ef-4709-8511-4ce9b256be30" d="M630.5834,216.435a10.797,10.797,0,0,1-3.1166-.9768V211.26h8.1924s-.319,2.7158-.3783,5.3638A16.2719,16.2719,0,0,1,630.5834,216.435Z"/><path class="a055ff02-fc96-4b42-b8b7-1629d0a2e6d8" d="M621.2872,258.91c-.5759-1.2732-1.6345-3.3142-1.5979-4.4123.04-1.2309-1.3155-3.2437-1.4143-4.4773a8.5693,8.5693,0,0,0-.6888-3.5627c-1.1179-2.0721-1.1038-5.1294-1.6176-7.4443a23.3063,23.3063,0,0,1-.8694-5.9453c0-1.2844-1.1067-2.7214-1.4229-3.9776-.3331-1.324-.1439-2.9275,1.1659-3.526,1.1716-.5363,2.4956-.8694,3.7067-1.3155,1.9648-.7255,5.694-2.1624,7.6532-2.8907,7.0292,6.0441,10.8714.319,10.8714.319l4.4632,2.0946.0508,35.1381Z"/><path class="a055ff02-fc96-4b42-b8b7-1629d0a2e6d8" d="M643.397,242.5084c-.909,2.1342.1807,3.3452.7792,8.534.3387,3.0488.6577,5.6573,1.05,7.8677H616.1182a18.89,18.89,0,0,0,.9457-4.387c.5392-5.3185-.4234-10.7049-1.1574-15.8484-.3472-2.4814-1.64-5.68-1.3692-8.1556.2513-2.3431,3.1477-4.2967,5.3412-4.2967,3.1251,0,6.0836,1.6486,9.2228,1.9536,3.5541.3557,5.4146-.9231,8.1161-2.9586,1.09-.8243,2.8513-2.662,4.1132-1.4764,1.3409,1.2336,1.4143,2.8314,2.0664,4.5084.7481,1.945,2.6763,6.5663,2.298,8.5254C645.2659,239.053,644.3117,240.377,643.397,242.5084Z"/><path class="a2d831db-56d8-455e-8677-5d9118a141a2" d="M614.5232,258.91H608.79a94.025,94.025,0,0,1-.5816-10.4311c6.6934-.2512,6.6257,3.78,6.6257,3.78A62.8877,62.8877,0,0,0,614.5232,258.91Z"/><path class="a2d831db-56d8-455e-8677-5d9118a141a2" d="M609.6366,254.2493a15.0842,15.0842,0,0,1-1.4285-5.77c-.3415-9.9341,3.5627-19.5691,5.6433-22.059.2117-.6436,4.9374-3.54,6.013,2.23.4149,2.9275-4.9939,21.4239-5.0306,23.6089C614.8338,252.2591,613.284,255.8923,609.6366,254.2493Z"/><path class="a2d831db-56d8-455e-8677-5d9118a141a2" d="M638.8972,203.6129c-.017,2.9048-.5449,8.0117-2.58,9.85-2.4588,2.2245-9.0929-1.5047-11.0747-3.8139-2.4814-2.88-2.6847-8.1077-1.9676-11.73a7.2964,7.2964,0,0,1,9.0562-5.6828C636.5117,193.3258,638.9253,199.7934,638.8972,203.6129Z"/><path class="ac1572e6-a2ef-4709-8511-4ce9b256be30" d="M623.3959,197.7354a7.4185,7.4185,0,0,1,.847-2.1625l1.3325,9.4543.0592,3.6248-.3021,1.1489c-.09-.0988-.1806-.1975-.2568-.2879C622.662,206.5714,622.5943,201.3376,623.3959,197.7354Z"/><path class="a2d831db-56d8-455e-8677-5d9118a141a2" d="M621.9054,202.7519c-1.0134,1.27.0621,4.5224,2.4758,5.3552.4968-.6888.2852-2.391.2625-3.23a3.2333,3.2333,0,0,0-.6577-2.2612A1.4822,1.4822,0,0,0,621.9054,202.7519Z"/><path class="ac1572e6-a2ef-4709-8511-4ce9b256be30" d="M624.04,204.8465c.0452.1807.2117.4828.09.6494a.6758.6758,0,0,1-.3557.2653.6338.6338,0,0,1-.7482-.2653,2.39,2.39,0,0,1-.2879-.8159.6051.6051,0,0,1,.0847-.5984.25.25,0,0,1,.2851,0c.2739.2116.2428.6661.3275.9767a.9313.9313,0,0,0,.2569.4912c-.13-.0988-.2428.0311-.161-.0226a1.73,1.73,0,0,0,.1384-.1214c.09-.09.0057-.4376.0057-.559-.0057-.13.3331-.1213.3641,0Z"/><path class="ac1572e6-a2ef-4709-8511-4ce9b256be30" d="M623.2746,204.1352c-.5364-.55-.6352.5137-.6126.8017.0621.4235.4009.7114.5533,1.09.0451.1073-.1892.09-.2287.0677a1.5262,1.5262,0,0,1-.7621-1.914.8.8,0,0,1,1.33-.1045c.0536.113-.2259.113-.2795.0594Z"/><path class="ab44d73b-538d-4a3d-98f6-73d4f9811fa4" d="M626.6707,192.1091a2.295,2.295,0,0,1,.6352.8244c.5391.6718,2.12,3.45,2.4221,3.8731.7933,1.1574-.1214,2.1088-.9316,2.9049-.2569.24-.5138.4912-.7791.74a7.5606,7.5606,0,0,0-1.8745,2.5887c-.2569.6719-.4545,2.5492-1.4313,2.6226-.0678-.9739-.4291-2.9726-1.8745-3.23-.1807-.0677-.8017-.0141-1.31,1.0812,0,0-2.919-9.5136,5.1436-11.405"/><path class="b989fbec-ded3-4d70-9f2d-cd0395c8ad82" d="M630.0159,197.2583l-3.3452-5.1492c1.2252-1.6486,5.5924-1.2873,5.5924-1.2873,1.51.13,7.4358,2.919,9.3328,7.2608,0,0,2.7017,6.3857-3.1166,10.4564.6973-4.2966.6747-7.097-1.0219-9.9115a9.1837,9.1837,0,0,1-4.6213-.33,17.4985,17.4985,0,0,1-3.1081-1.49"/><path class="b13e6389-e194-4691-acd1-3dbdd09a6d2f" d="M632.822,205.6624c0,.3868-.7424.6973-1.6571.6973-.9,0-1.64-.31-1.64-.6973,0-.3839.74-.6945,1.64-.6945C632.08,204.9679,632.822,205.2785,632.822,205.6624Z"/><path class="b13e6389-e194-4691-acd1-3dbdd09a6d2f" d="M638.8435,205.6624c0,.3868-.59.6973-1.3155.6973-.734,0-1.3325-.31-1.3325-.6973,0-.3839.5985-.6945,1.3325-.6945C638.2535,204.9679,638.8435,205.2785,638.8435,205.6624Z"/><path class="a24e2d50-d968-44e9-a4aa-9ef7f3189c78" d="M637.2231,203c-.3247.0226-.5674.4771-.5505,1.0219.0226.5449.3021.9684.6182.9457.3275-.0225.5675-.4855.5533-1.0219C637.8216,203.4011,637.5506,202.9777,637.2231,203Z"/><path class="a24e2d50-d968-44e9-a4aa-9ef7f3189c78" d="M631.6025,203c-.3162.0226-.5674.4771-.542,1.0219.0226.5449.2936.96.6182.9457.319-.031.5674-.4855.5449-1.0219C632.2009,203.3955,631.93,202.9777,631.6025,203Z"/><path class="ac1572e6-a2ef-4709-8511-4ce9b256be30" d="M634.9252,203.1753c-.2428.7256.415,1.4963.8836,1.9592.22.2259.5138.5674.3726.9062-.2739.6888-1.22.9909-1.8857,1.1348-.0678.017-.5223.0227-.415-.158a.3184.3184,0,0,1,.5448,0c-.1214-.0311-.2258-.0593-.3416-.0989.81-.15,2.27-.6944,1.3861-1.6853-.446-.5-1.2026-1.3776-.7425-2.089.04-.0536.2259-.0536.1977.031Z"/><path class="a9d20481-7ca8-4cd5-9990-52790f1cfbd5" d="M634.66,209.62a1.9951,1.9951,0,0,0,1.4454-.63.2572.2572,0,0,0,0-.3613.2608.2608,0,0,0-.3642,0,1.7083,1.7083,0,0,1-2.2612.0593.2513.2513,0,1,0-.31.3952A2.4731,2.4731,0,0,0,634.66,209.62Z"/><path class="a3b0347c-5e62-4846-be77-7558a1a34cd0" d="M629.8409,202.5232a2.5674,2.5674,0,0,1,3.5937.0678c.1525.1891-.463.206-.5448.1524a8.1178,8.1178,0,0,0-.9232-.5223,1.9808,1.9808,0,0,0-1.7389.4235c-.0988.0536-.5449.031-.3868-.1214Z"/><path class="a3b0347c-5e62-4846-be77-7558a1a34cd0" d="M638.4341,202.3793a1.9663,1.9663,0,0,0-1.27-.1892,4.7871,4.7871,0,0,0-.9993.5307c-.0819.0367-.7029.0311-.5449-.1581a2.4892,2.4892,0,0,1,3.17-.3105c.1665.113-.2711.1666-.3558.1271Z"/><path class="b989fbec-ded3-4d70-9f2d-cd0395c8ad82" d="M627.45,207.8333c.81,1.9987,1.8237,4.2967.7651,6.4-.8018,1.5978-2.058,2.967-3.972,2.504-1.9423-.4771-2.9952-2.3375-4.658-3.238-1.355-.734-4.0031-.7622-4.8641-2.4278-.5448-1.0586-.1213-2.7073.2569-3.7574.0368-.0932.0678-.1835.113-.2823a10.4115,10.4115,0,0,0,1.3917-1.2394c1.612-1.7784.9542-4.3107,2.1709-6.3912.4856-.8413,1.324-1.4,1.8237-2.1484a25.7949,25.7949,0,0,1,1.2844-2.4588,4.1744,4.1744,0,0,1,4.6919-1.7842c2.041.384,3.04.7622,3.5457,2.8654a6.7867,6.7867,0,0,1-1.3748,6.4591C626.9586,204.2424,626.4448,205.36,627.45,207.8333Z"/><path class="a6718e68-dffa-41ed-be62-44c7e77c4507" d="M617.0866,242.4039a.26.26,0,0,0,.2427-.1806c.6888-2.2641,1.1744-4.1781,1.6261-5.94.1129-.477.2512-.9456.3726-1.4284.2344-.8469.4743-1.7192.6493-2.5887.2569-1.2929.861-5.6432-2.185-7.4358a.2693.2693,0,0,0-.3557.09.259.259,0,0,0,.0988.35c2.7524,1.626,2.1766,5.6884,1.9338,6.8909-.1638.8554-.4009,1.7249-.6267,2.5549q-.2033.7284-.3925,1.4454c-.44,1.7559-.9146,3.6614-1.6119,5.9086a.2671.2671,0,0,0,.175.3246A.2041.2041,0,0,0,617.0866,242.4039Z"/><path class="a6718e68-dffa-41ed-be62-44c7e77c4507" d="M632.2772,224.3479a8.3045,8.3045,0,0,0,2.6705-.4009,3.5963,3.5963,0,0,0,2.2528-1.832.2544.2544,0,1,0-.46-.2174,3.0957,3.0957,0,0,1-1.9592,1.5639,8.7654,8.7654,0,0,1-5.8182-.271,7.5927,7.5927,0,0,1-2.2839-1.6712.2546.2546,0,1,0-.3924.3246,8.0243,8.0243,0,0,0,2.45,1.8011A8.2771,8.2771,0,0,0,632.2772,224.3479Z"/><path class="a6718e68-dffa-41ed-be62-44c7e77c4507" d="M637.6183,245.8988a5.2081,5.2081,0,0,0,2.2979-.4629,2.2972,2.2972,0,0,0,1.2648-1.4285.2542.2542,0,0,0-.1751-.319.2481.2481,0,0,0-.3105.175,1.81,1.81,0,0,1-1.005,1.1123,5.6836,5.6836,0,0,1-4.0087.0988,5.8716,5.8716,0,0,1-.765-.3952,4.0937,4.0937,0,0,0-1.6035-.6408,2.1828,2.1828,0,0,0-1.3776.46,1.33,1.33,0,0,1-.9231.3416.2544.2544,0,1,0-.096.5,1.8076,1.8076,0,0,0,1.3014-.4009,1.7294,1.7294,0,0,1,1.05-.3952,3.8718,3.8718,0,0,1,1.3917.5843,7.6509,7.6509,0,0,0,.8384.4292A6.1474,6.1474,0,0,0,637.6183,245.8988Z"/><path class="a6718e68-dffa-41ed-be62-44c7e77c4507" d="M627.3679,256.6545a.229.229,0,0,0,.1666-.0593.2469.2469,0,0,0,.0452-.3331c-.0677-.1214-.1355-.2569-.2118-.3952-.0451-.096-.0988-.1948-.1439-.2851a.26.26,0,0,0-.3472-.0988c-.017.0056-.0226.0056-.0311.0141a6.8377,6.8377,0,0,0-2.45-1.8011,4.0972,4.0972,0,0,0-2.315.04,6.9349,6.9349,0,0,1-1.2252.1807,2.3369,2.3369,0,0,1-1.801-.6493c-1.27-1.2421-1.27-3.9805-1.27-5.615a.2556.2556,0,0,0-.2484-.2625.2633.2633,0,0,0-.26.2625c0,1.7192,0,4.5931,1.4143,5.9763a2.8975,2.8975,0,0,0,2.1737.7961,6.8973,6.8973,0,0,0,1.3212-.1891,3.6012,3.6012,0,0,1,2.0439-.0536,7.2769,7.2769,0,0,1,2.5125,1.945c.15.15.302.3078.4517.4517A.22.22,0,0,0,627.3679,256.6545Z"/><rect class="afd82374-ee5a-4879-b3b8-f58c7f3bfc65" x="667.8218" y="179.6116" width="74.8409" height="79.2984"/><rect class="a27ea868-6d91-4669-8c3a-1e2ee3a72d91" x="667.8218" y="179.6116" width="74.8409" height="6.4901"/><path class="b0f107fc-70da-4f40-b363-6492cdea410c" d="M679.5683,182.7508a1.7517,1.7517,0,1,0,1.7475-1.7474A1.7505,1.7505,0,0,0,679.5683,182.7508Z"/><path class="a335d407-e611-49d6-9396-bde12223d41e" d="M674.7212,182.7508a1.7545,1.7545,0,1,0,1.7474-1.7474A1.76,1.76,0,0,0,674.7212,182.7508Z"/><path class="a3631130-4100-4de8-911b-2584ebfb2f47" d="M669.8882,182.7508a1.75,1.75,0,1,0,1.7474-1.7474A1.7506,1.7506,0,0,0,669.8882,182.7508Z"/><path class="e27f034a-5ea0-4de3-838d-c52396db9632" d="M679.4949,258.91c.68-3.9635,1.2252-6.4308,1.2252-6.4308l-8.6243-.4234a58.3411,58.3411,0,0,0-1.0219,6.8542Z"/><polygon class="e27f034a-5ea0-4de3-838d-c52396db9632" points="710.901 223.439 706.505 220.224 697.06 220.224 691.832 223.439 710.901 223.439"/><polygon class="e27f034a-5ea0-4de3-838d-c52396db9632" points="725.583 258.91 721.801 240.148 711.96 244.264 716.112 258.91 725.583 258.91"/><path class="e27f034a-5ea0-4de3-838d-c52396db9632" d="M721.3489,258.91h9.0393a77.0342,77.0342,0,0,0,6.3236-19.2134c1.6486-2.7017-3.3-5.3948-4.13-5.8634l.2259,5.2338C730.4786,246.8812,725.07,254.3792,721.3489,258.91Z"/><path class="e27f034a-5ea0-4de3-838d-c52396db9632" d="M706.929,222.019H697.06V211.2378h9.8693S705.8788,219.7323,706.929,222.019Z"/><path class="b60735d5-228f-4c00-b7a7-f63fa1c05ee6" d="M697.06,216.1245v-4.8867h9.8693s-.2936,2.4-.4235,4.994A12.0545,12.0545,0,0,1,697.06,216.1245Z"/><path class="ab4f7cf8-535f-4735-8aef-b48cc830b610" d="M712.6258,202.69a18.9253,18.9253,0,0,1-1.9817,4.9261c-1.1208,1.6571-2.9275,1.9056-3.9043.0141a10.959,10.959,0,0,1-.8836-5.9593,4.4437,4.4437,0,0,1,1.2788-3.0207,3.8144,3.8144,0,0,1,4.9375-.0225C711.9144,198.4693,713.0634,201.27,712.6258,202.69Z"/><path class="e27f034a-5ea0-4de3-838d-c52396db9632" d="M711.937,205.4366a25.984,25.984,0,0,1-.4545,5.629c-.3557,1.8746-.7792,5.3779-2.7976,6.3067a4.2,4.2,0,0,1-1.8914.319,11.9778,11.9778,0,0,1-7.95-3.58c-3.653-3.653-4.3729-13.1468-1.293-17.0793,2.8061-3.5993,12.6923-2.6168,13.7594,2.6932A33.6375,33.6375,0,0,1,711.937,205.4366Z"/><path class="e27f034a-5ea0-4de3-838d-c52396db9632" d="M711.937,205.4366a25.984,25.984,0,0,1-.4545,5.629c-.3557,1.8746-.7792,5.3779-2.7976,6.3067a4.2,4.2,0,0,1-1.8914.319,11.9778,11.9778,0,0,1-7.95-3.58c-3.653-3.653-4.3729-13.1468-1.293-17.0793,2.8061-3.5993,12.6923-2.6168,13.7594,2.6932A33.6375,33.6375,0,0,1,711.937,205.4366Z"/><path class="b60735d5-228f-4c00-b7a7-f63fa1c05ee6" d="M698.0788,213.2055c-2.9726-4.13-3.3819-12.5342-.5279-16.1731a3.3821,3.3821,0,0,1,.5279-.5533l-.6182,7.5883.6182,2.27Z"/><path class="a24e2d50-d968-44e9-a4aa-9ef7f3189c78" d="M709.9637,205.7556a.48.48,0,1,0,.9373,0,.48.48,0,1,0-.9373,0Z"/><path class="a24e2d50-d968-44e9-a4aa-9ef7f3189c78" d="M704.5238,205.9814a.4773.4773,0,1,0,.4686-.5815A.5332.5332,0,0,0,704.5238,205.9814Z"/><path class="bf988d7d-3a96-4c6f-ac36-9c99b571eb1a" d="M696.7774,205.5354c-.446-.4235-.83-1.5894-1.6176-1.18a2.3372,2.3372,0,0,1-.2484.0818c-.3049.13-.35.44-.4545.703a6.2412,6.2412,0,0,0-.319,1.4679c0,.017-.0678.017-.0762,0-.113-.8779.0536-2.2838.9542-2.6988a1.8077,1.8077,0,0,1,2.2555,1.5583c-.0084.1807-.4093.144-.494.0678Z"/><path class="ab4f7cf8-535f-4735-8aef-b48cc830b610" d="M697.7994,204.3328a19.35,19.35,0,0,1,.302,2.2753c-.1214.4235-.5279.5533-.6662.2117-.717-.6492-.6183-2.3967-1.7983-2.5633-1.2873-.1807-1.53,1.7023-1.499,2.5633a9.1188,9.1188,0,0,1-1.27-3.78c-.0086-.6832-.0086-2.3459,0-3.5711.0225-3.7518.6436-4.9092,4.8188-4.6438a3.9674,3.9674,0,0,1,3.3368,2.0184c.6041,1.3325-.2427,2.4447-1.1066,3.3876A6.6025,6.6025,0,0,0,697.7994,204.3328Z"/><path class="e27f034a-5ea0-4de3-838d-c52396db9632" d="M694.5388,204.361c-1.2337,1.2506-.4546,4.8584,2.0354,6.03.6125-.6888.59-2.5266.6577-3.4327a3.55,3.55,0,0,0-.4545-2.504A1.5865,1.5865,0,0,0,694.5388,204.361Z"/><path class="b60735d5-228f-4c00-b7a7-f63fa1c05ee6" d="M696.56,206.8283c.0283.1807.1666.5448.0367.6889a.9319.9319,0,0,1-.3867.2568.616.616,0,0,1-.734-.28,2.5464,2.5464,0,0,1-.2343-.9372.7738.7738,0,0,1,.13-.6437.2484.2484,0,0,1,.271,0c.26.2485.1835.7115.2286,1.0361a1.1548,1.1548,0,0,0,.2033.5816c.04.0451.0452.0225-.0537.0169-.09-.0085.0226-.031.0763-.0706.1581-.1186.0988-.46.1129-.6493.0085-.1214.3331-.1129.35,0Z"/><path class="b60735d5-228f-4c00-b7a7-f63fa1c05ee6" d="M695.8487,205.9955c-.3332-.4291-.6663,0-.7425.3247a1.8777,1.8777,0,0,0-.0226.59,5.9263,5.9263,0,0,0,.463,1.0981c.0367.0988-.175.0988-.22.0678a1.62,1.62,0,0,1-.5589-2.1484c.2794-.4375,1.1489-.4911,1.3606.0311.0452.113-.2258.1044-.2794.0367Z"/><path class="a75ba62c-834c-4c35-9a4f-a1fa25b93f0c" d="M711.4232,199.6268a18.3537,18.3537,0,0,1-13.254-1.4058,26.0209,26.0209,0,0,1-3.0686-2.1342c-1.1885-.9006.9146-2.9134,1.55-3.3651,3.032-2.1793,7.1564-1.2873,10.3634-.0084,1.5724.6351,4.04,1.6486,6.0582.8469a1.8829,1.8829,0,0,1-1.2252,1.9,3.7046,3.7046,0,0,0,2.8738-.7961A4.3017,4.3017,0,0,1,711.4232,199.6268Z"/><path class="b0f107fc-70da-4f40-b363-6492cdea410c" d="M709.5233,211.1616a1.8187,1.8187,0,0,1-3.636,0Z"/><path class="b60735d5-228f-4c00-b7a7-f63fa1c05ee6" d="M708.8514,206.1706c.288.5589.4912,1.1574.7651,1.7248a5.2934,5.2934,0,0,1,.5279,1.2619c.0988.6211-1.0586,1.1885-1.5357,1.2788-.415.0847-.8328-.3387-.2428-.4234a1.9562,1.9562,0,0,0,.8412-.5223c.5223-.415.2795-.7932.0537-1.2844a3.7356,3.7356,0,0,1-.5166-2.027c.0084-.04.0931-.04.1072-.0084Z"/><path class="e523c7fe-1240-44c9-a6f0-ba48b04c4244" d="M711.5446,204.6489a.2441.2441,0,0,0,.1722-.4149,1.9483,1.9483,0,0,0-1.4962-.5223,1.5517,1.5517,0,0,0-1.1348.4771.2419.2419,0,0,0,.0452.3473.2491.2491,0,0,0,.3415-.0368,1.0934,1.0934,0,0,1,.7791-.302,1.4749,1.4749,0,0,1,1.118.3782A.226.226,0,0,0,711.5446,204.6489Z"/><path class="e523c7fe-1240-44c9-a6f0-ba48b04c4244" d="M703.8293,205.0809a.3145.3145,0,0,0,.1807-.0763,1.7833,1.7833,0,0,1,2.27-.2032.2441.2441,0,0,0,.2428-.4235,2.2963,2.2963,0,0,0-2.8767.2879.248.248,0,0,0,.0085.3473A.268.268,0,0,0,703.8293,205.0809Z"/><path class="aff47c62-0cb4-4855-b5bc-b08b8c607090" d="M683.5178,246.7542c-.113,1.4821-.2259,2.9726-.3388,4.4547-.1892,2.5633-.3868,5.1351-.59,7.7012h37.3824c-.0847-1.0445-.1665-2.089-.2653-3.1335l5.9311-3.3877-3.8647-22.505a8.0751,8.0751,0,0,0-3.6784-4.9233l-11.5885-4.7371s-1.9817,5.9171-9.4458,0l-12.4664,5.2282s-6.651,2.1258-7.7915,5.7194l-7.512,21.1106,13.6153,2.5435Z"/><path class="b07e1e23-54f3-4bb9-8f9b-630b6486b887" d="M682.7781,255.051a.2363.2363,0,0,0,.1947-.1044c1.1123-1.5442,1.6035-3.8675,2.044-5.917.127-.6042.2568-1.18.3839-1.708a75.51,75.51,0,0,0,1.787-12.1191c.2258-2.8372.573-7.1253-1.6713-9.9032a.2447.2447,0,1,0-.3783.3105c2.1257,2.6254,1.7842,6.7951,1.5583,9.556A75.0706,75.0706,0,0,1,684.918,247.2c-.13.528-.2513,1.118-.3868,1.7249-.415,1.9959-.9006,4.2741-1.9507,5.7392a.2422.2422,0,0,0,.0536.3416A.321.321,0,0,0,682.7781,255.051Z"/><path class="b07e1e23-54f3-4bb9-8f9b-630b6486b887" d="M718.7913,252.3579h0a.2452.2452,0,0,0,.2484-.2484v-1.499c0-1.7306,0-3.5317-.0367-5.3017-.1666-7.9354-.72-16.15-5.4089-21.7795a.2437.2437,0,0,0-.3472-.0283.2483.2483,0,0,0-.0311.3473c4.5846,5.4992,5.13,13.6239,5.296,21.469.0452,1.7615.0452,3.5626.0367,5.2932v1.499A.25.25,0,0,0,718.7913,252.3579Z"/><path class="e27f034a-5ea0-4de3-838d-c52396db9632" d="M736.5678,226.4341c1.9281.1666-.6211,5.0617-.6578,6.0977.5054-1.1574,2.0863-5.6968,3.3651-5.5359.7481.1581-1.2252,4-1.4454,4.7879.432-.6211,1.7333-3.3679,2.58-3.0489.5364.37-.8921,2.95-1.1884,3.8111.175-.15,1.5046-2.5549,1.86-2.1.3868.415-.28,2.2217-.6719,3.1-1.7841,3.9353-3.6473,8.3364-5.9311,6.4365-1.7023-1.4143-2.6029-2.2443-3.1-8.6074-.0762-1.1038,1.6938-.1665,2.3206,1.99C734.2078,233.1218,736.3335,226.42,736.5678,226.4341Z"/><path class="b60735d5-228f-4c00-b7a7-f63fa1c05ee6" d="M734.07,234.6266a1.03,1.03,0,0,0-.113-.1356c-.0593-.0762.2287-.1214.2965-.0451.031.0451.0677.09.0987.1439-.0987-.0141-.1891-.0226-.2879-.0367a.3884.3884,0,0,1,.4375-.0253,1.1121,1.1121,0,0,1,.2062.2963c.09.1525.271.1751.3782.3021a2.3078,2.3078,0,0,1-.1665,2.4137c-.0762.1214-.5082.1129-.4461-.0593a4.3308,4.3308,0,0,0,.4235-1.6515.888.888,0,0,0-.4178-.734c-.1045-.0959-.3388-.3528-.1722-.429-.0706.0282-.2428.0508-.2879-.0311a.969.969,0,0,0-.0622-.144c-.0367-.1129.2569-.1355.2965-.0451.014.0536.031.0988.0451.1439.031.0988-.1807.09-.2286.0368Z"/><path class="b07e1e23-54f3-4bb9-8f9b-630b6486b887" d="M701.218,224.9973a5.6355,5.6355,0,0,1-1.9055-.6409c-.1129-.0536-.2569-.1157-.4094-.175-.158-.0621-.3161-.13-.4149-.175a2.3485,2.3485,0,0,1-.9231-.6437c-.0452-.0226-.09-.0452-.1441-.0677a2.3969,2.3969,0,0,1-.74-.4517c-.2879-.2879-.44-.4771-.44-.6663a.2533.2533,0,0,1,.2429-.2569.2258.2258,0,0,1,.2427.2174,1.1859,1.1859,0,0,0,.2936.3557,2.0861,2.0861,0,0,0,.5985.3557,1.8738,1.8738,0,0,1,.1948.09.21.21,0,0,1,.0706.0479,2.0491,2.0491,0,0,0,.7932.5647c.1214.062.2654.1157.4093.1749.1666.0678.3162.13.4687.1977a4.93,4.93,0,0,0,1.77.59,3.129,3.129,0,0,0,1.005.0141c.1807-.0085.3642-.0225.5307-.0225a4.9851,4.9851,0,0,0,1.8971-.4828,2.7754,2.7754,0,0,0,.8018-.4461,4.6129,4.6129,0,0,1,.6125-.3952,1.9918,1.9918,0,0,0,.8554-.7255.6432.6432,0,0,1,.1891-.3246.345.345,0,0,1,.2513-.13.2456.2456,0,0,1,.3387,0,.24.24,0,0,1,0,.3472.4748.4748,0,0,1-.2484.1384.1865.1865,0,0,0-.0451.0592.28.28,0,0,1-.04.1355,2.5707,2.5707,0,0,1-1.0727.94,4.9576,4.9576,0,0,0-.5674.3557,3.1138,3.1138,0,0,1-.9232.5138,5.4088,5.4088,0,0,1-2.0495.5054c-.1525,0-.3274.0084-.4912.0225-.1976.0169-.4009.0311-.59.0311A2.6245,2.6245,0,0,1,701.218,224.9973Zm6.2332-2.9783.1835.158-.1665-.1665C707.4512,222.0105,707.4512,222.0105,707.4512,222.019Z"/><polygon class="faa414b5-570c-49a7-b64e-aab2ddc3b73b" points="444.552 552.907 458.577 561.151 478.002 537.468 458.108 524.841 444.552 552.907"/><path class="bc79376d-d412-4ca1-800f-7dd1a4a3102b" d="M447.1608,545.5675l-15.8766,19.1541,71.2246,44.0927c4.1386-8.7062-1.0812-14.44-1.0812-14.44L482.4259,575.5,470.414,557.2322s.3642-4.2289-1.4228-5.3638c0,0-10.8235-1.6938-8.8784,3.3764C460.1128,555.2448,450.0064,549.0623,447.1608,545.5675Z"/><polygon class="af6205a4-4516-429d-ada1-f03a56c2440c" points="429.077 567.703 500.513 612.044 502.509 608.814 431.671 564.239 429.077 567.703"/><path class="b0f107fc-70da-4f40-b363-6492cdea410c" d="M465.0587,567.6576a1.1459,1.1459,0,0,1-.6944-.5c-.81-1.5809,4.0369-5.1972,4.09-5.2282a9.6929,9.6929,0,0,1,4.5761-1.6854,1.063,1.063,0,1,1,.0311,2.1258,7.6644,7.6644,0,0,0-3.3877,1.3155,21.6185,21.6185,0,0,0-3.0714,2.9048,1.0451,1.0451,0,0,1-.5985,1.0135A1.4509,1.4509,0,0,1,465.0587,567.6576Z"/><path class="b0f107fc-70da-4f40-b363-6492cdea410c" d="M470.3773,571.2428a1.0367,1.0367,0,0,1-.463-.2739,1.0571,1.0571,0,0,1-.0141-1.5046,29.4811,29.4811,0,0,1,5.2875-3.9551,1.0558,1.0558,0,0,1,1.451.3924,1.0681,1.0681,0,0,1-.3923,1.4511,27.9766,27.9766,0,0,0-4.833,3.6106A1.0819,1.0819,0,0,1,470.3773,571.2428Z"/><path class="b0f107fc-70da-4f40-b363-6492cdea410c" d="M473.3189,575.3334a1.05,1.05,0,0,1-.7566-.8018c-.2654-1.2026,3.63-4.226,4.8641-4.81a1.0632,1.0632,0,0,1,.909,1.9224,14.4793,14.4793,0,0,0-3.8506,3.2437,1.0112,1.0112,0,0,1-.6578.463A1.0655,1.0655,0,0,1,473.3189,575.3334Z"/><path class="b0f107fc-70da-4f40-b363-6492cdea410c" d="M477.39,579.0033a1.0834,1.0834,0,0,1-.3782-.1892,1.0686,1.0686,0,0,1-.1892-1.499,9.5455,9.5455,0,0,1,3.4779-3.1674,1.0633,1.0633,0,1,1,.847,1.9507,8.1187,8.1187,0,0,0-2.6395,2.5266A1.0771,1.0771,0,0,1,477.39,579.0033Z"/><path class="b0f107fc-70da-4f40-b363-6492cdea410c" d="M481.723,582.49a1.1763,1.1763,0,0,1-.1976-.0678,1.0862,1.0862,0,0,1-.2569-1.7926,10.4873,10.4873,0,0,1,2.7016-2.82,1.0769,1.0769,0,0,1,1.468.3388,1.0638,1.0638,0,0,1-.3416,1.4764,8.3905,8.3905,0,0,0-2.0636,2.185A1.24,1.24,0,0,1,481.723,582.49Z"/><path class="aea14049-6918-4eec-987f-e209cf0507d2" d="M406.1085,315.9971c-17.0256-2.1257-36.0273-10.8912-50.3766,12.0571-7.0972,11.3542-5.6743,26.9682,0,41.1511,7.4414,18.6149,26.254,22.7168,64.5679,24.1311,10.9534.4066,58.7385-5.008,62.702,5.5359,6.1119,16.2634-12.7911,38.0881-17.4575,53.307,0,0-21.8614,50.9216-18.3976,87.9426,0,0,14.0925,9.57,27.8659,10.0612,15.16-31.1576,34.0033-72.224,38.7686-85.8874,6.77-19.4082,21.5819-48.7958,25.7261-69.5449,4.76-23.911,2.8287-29.797-17.0341-42.574-9.8579-6.3291-50.2723-18.2056-39.0254-14.9Z"/><path class="a2d831db-56d8-455e-8677-5d9118a141a2" d="M426.3128,111.2523s-9.937,8.1557-11.707,19.5155l1.0643,17.3757H379.8375l9.5785-36.8912Z"/><path class="ac1572e6-a2ef-4709-8511-4ce9b256be30" d="M389.416,111.2523l-1.8462,7.0942c7.3144,1.9988,13.2,3.1026,19.8486,6.03,4.9459,2.1709,6.1485,12.8983,7.89,17.9205l-.703-11.5292c1.77-11.36,11.707-19.5155,11.707-19.5155Z"/><path class="a2d831db-56d8-455e-8677-5d9118a141a2" d="M426.05,120.2916s3.1844.3191,4.4688-2.1709c8.4888-11.899,6.6285-10.3774,7.7238-22.8438,1.2195-13.8808-2.0269-25.1672-3.1985-34.4408C432.8735,43.7936,429.5,43.037,418.53,38.4694c-.0056,0-13.8187-5.7647-26.2766,1.4284-17.2487,9.9765-16.893,35.0844-16.7574,52.8751.09,10.9674,4.7821,13.6775,15.6,19.6679C391.0957,112.4408,408.6069,122.7589,426.05,120.2916Z"/><path class="a0c1da95-dca1-4a71-8de9-8bbb55e47f14" d="M467.8422,188.2811c-1.4228-21.2856-2.7072-35.3413-4.2571-45.4082-.81-5.2593-5.5839-4.4265-31.9311-5.6827-14.9-.7114-44.1068.96-61.0223,2.8371-12.7685,1.4228-28.9331,17.912-27.6684,35.4769,1.7927,24.8792,19.3349,61.7337,22.8749,84.4419l-7.2693,28.38s44.7053,15.6056,85.8536.7058l-.7114-44.7Z"/><path class="af44377a-9914-4265-9fc5-c5cd91cdcb0f" d="M438.22,39.1045C437.45,50.8963,427.88,57.6291,422.0021,63.8087c-4.4943,4.7286-5.1435,6.9362-4.0087,15.7327-1.2111-.0282-3.6614,2.6875-3.7207,1.5978-.2428-4.17-1.3325-3.7969-2.8908-4.63-6.62-3.5542-9.6745,3.4327-10.3717,6.6256-1.9056,8.6779,9.4175,7.0744,9.66,15.2047.2061,7.1423-6.6172,12.6556-11.2638,19.0639-5.2113,7.193-14.7418,5.2028-21.0738-.8413-4.9008-4.689-10.62-13.7961-13.367-20.06-3.0545-6.9757-6.9643-17.785-7.162-25.19-.5081-17.8076,5.1972-29.7263,23.0867-38.39,10.1063-4.8866,24.3343-7.1394,35.5078-5C416.3984,27.9225,433.4692,30.4577,438.22,39.1045Z"/><path class="a2d831db-56d8-455e-8677-5d9118a141a2" d="M414.8994,83.8775a8.4268,8.4268,0,1,1-7.0208-9.6293A8.4349,8.4349,0,0,1,414.8994,83.8775Z"/><path class="a2d831db-56d8-455e-8677-5d9118a141a2" d="M436.4052,69.308c1.49,9.35,6.4223,9.9934,7.6842,12.7459,1.6119,3.4864-3.334,4.6212-7.23,10.5976-3.23-8.8953-9.2906-14.0248-4.9093-23.6Z"/><path class="faa414b5-570c-49a7-b64e-aab2ddc3b73b" d="M575.2269,297.1535l24.2045-2.3741,27.3607,8.6073s5.327,2.4532,2.4672,5.1746l-49.191.0988S572.034,307.1159,575.2269,297.1535Z"/><path class="faa414b5-570c-49a7-b64e-aab2ddc3b73b" d="M466.4194,275.9075c-19.16-46.1224-26.0733-75.6144-32.4647-108.384-2.6564-20.2184,4.7427-29.0319,11.1792-29.9776,18.0955-2.6621,22.172,3.5485,25.5454,22.3526,7.45,30.3333,10.9985,59.7745,15.9614,91,0,0,14.9,25.3648,88.5862,46.2551l2.9416,8.9038S484.8707,295.24,466.4194,275.9075Z"/><polygon class="faa414b5-570c-49a7-b64e-aab2ddc3b73b" points="477.04 571.031 492.654 575.644 505.778 547.975 483.434 540.523 477.04 571.031"/><path class="e73fddac-57a1-407f-90c2-a19b492500fb" d="M477.8131,563.2847l-10.7811,22.42,79.7586,25.5765c1.9141-9.44-4.5309-13.7453-4.5309-13.7453L519.2578,583.8l-16.06-14.8038s-.68-4.2063-2.6846-4.8782c0,0-10.9167.9739-7.8,5.423C492.713,569.5405,481.4068,565.9779,477.8131,563.2847Z"/><polygon class="af6205a4-4516-429d-ada1-f03a56c2440c" points="465.604 589.124 545.628 614.904 546.791 611.282 467.283 585.138 465.604 589.124"/><path class="b0f107fc-70da-4f40-b363-6492cdea410c" d="M501.86,581.4084a1.0928,1.0928,0,0,1-.8018-.302c-1.1941-1.3155,2.5492-6.0667,2.5859-6.1033a9.772,9.772,0,0,1,3.9946-2.8231,1.0644,1.0644,0,0,1,.5758,2.05,7.4552,7.4552,0,0,0-2.9274,2.1484,21.4541,21.4541,0,0,0-2.216,3.6021,1.0333,1.0333,0,0,1-.3106,1.1349A1.46,1.46,0,0,1,501.86,581.4084Z"/><path class="b0f107fc-70da-4f40-b363-6492cdea410c" d="M507.9262,583.4975a1.02,1.02,0,0,1-.5223-.144,1.0537,1.0537,0,0,1-.4008-1.4454,29.2194,29.2194,0,0,1,4.0764-5.1972,1.062,1.062,0,1,1,1.499,1.5048,27.6812,27.6812,0,0,0-3.7207,4.737A1.0763,1.0763,0,0,1,507.9262,583.4975Z"/><path class="b0f107fc-70da-4f40-b363-6492cdea410c" d="M511.83,586.6875a1.06,1.06,0,0,1-.9456-.5816c-.5675-1.09,2.4052-5.0221,3.45-5.9085a1.0625,1.0625,0,1,1,1.3747,1.62,14.22,14.22,0,0,0-2.8653,4.13,1.0937,1.0937,0,0,1-.5223.6211A1.24,1.24,0,0,1,511.83,586.6875Z"/><path class="b0f107fc-70da-4f40-b363-6492cdea410c" d="M516.7086,589.1689a.99.99,0,0,1-.4094-.0819,1.063,1.063,0,0,1-.573-1.3916,9.6039,9.6039,0,0,1,2.5323-3.972,1.0664,1.0664,0,1,1,1.3324,1.6655,8.0428,8.0428,0,0,0-1.9,3.1308A1.0613,1.0613,0,0,1,516.7086,589.1689Z"/><path class="b0f107fc-70da-4f40-b363-6492cdea410c" d="M521.7985,591.4161a1.0689,1.0689,0,0,1-1.1038-1.0954,1.05,1.05,0,0,1,.1807-.5843,10.2236,10.2236,0,0,1,1.8857-3.4272,1.0685,1.0685,0,0,1,1.5583,1.4623,8.2189,8.2189,0,0,0-1.4312,2.6537C522.7837,590.699,522.5268,591.4161,521.7985,591.4161Z"/><path class="aea14049-6918-4eec-987f-e209cf0507d2" d="M455.867,330.3634l89.1084,27.0953s31.7561,14.5442,23.95,50.7409c0,0-27.8462,104.827-63.323,157.3322-19.8712-3.5485-26.9655-9.2227-26.9655-9.2227,10.112-63.6844,35.7422-147.8442,35.7422-147.8442-.7961-9.4938-11.9385-9.601-21.5509-10.0244l-98.7829.5306c-12.5652-.5984-33.1874-8.102-40.818-18.4879-6.7188-9.1437-18.0729-27.5865-6.7188-56.6861l12.06-35.4712s55.1646,8.8671,85.7632-.1806Z"/><path class="af44377a-9914-4265-9fc5-c5cd91cdcb0f" d="M411.859,231.253a15.2522,15.2522,0,0,1-4.0849,1.5527c-17.2006,3.9325-44.29.7481-58.9643-9.5842-14.3663-10.1148-12.8588-14.1856-11.7014-26.0761,1.6938-17.435,6.2107-44.16,7.9638-61.7253,1.7474-17.3671,2.7467-34.819,5.3269-52.1495,2.298-15.4306,4.5677-35.0224,20.2326-44.0531,11.93-6.8769,28.0128-10.7191,41.727-9.7507,6.428.4545,13.48,2.1567,17.61,7.5261,5.2932,6.891-.4177,16.3085-3.6162,22.8382,0,0-8.89,8.0089-9.4261,99.531C416.8275,176.526,431.654,220.1557,411.859,231.253Z"/><path class="ab08da64-f4fc-46c2-aedd-cb80001364d1" d="M551.2086,467.4829a1.07,1.07,0,0,0,1.0079-.72c5.4371-15.9924,10.31-32.1343,13.0169-43.1921l.5222-2.1173c2.1568-8.6864,4.3729-17.6636,3.8959-26.9315-.878-17.17-9.1692-28.5322-27.7164-38.0176a121.0122,121.0122,0,0,0-19.3264-7.45c-2.45-.7791-4.9629-1.5809-7.5939-2.49-4.5846-1.5809-16.7771-4.7794-29.6755-8.1614-7.1479-1.8772-14.485-3.8054-20.7633-5.5217a1.0675,1.0675,0,0,0-1.31.7481,1.056,1.056,0,0,0,.7481,1.31c6.2869,1.7164,13.6238,3.6389,20.78,5.5219,12.8673,3.3735,25.0148,6.5578,29.5232,8.1161,2.6564.9147,5.1829,1.7164,7.6475,2.504a118.7756,118.7756,0,0,1,19.0017,7.3229c17.7849,9.0845,25.72,19.9164,26.5674,36.2249.4545,8.9546-1.7334,17.7766-3.8421,26.3078l-.5223,2.12c-2.7017,11.0041-7.5431,27.0868-12.9661,43.0171a1.0672,1.0672,0,0,0,.6662,1.3551A1.0884,1.0884,0,0,0,551.2086,467.4829Z"/><path class="ab08da64-f4fc-46c2-aedd-cb80001364d1" d="M487.002,511.121a1.0619,1.0619,0,0,0,1.0135-.7424c.7509-2.36,1.7785-7.9355,2.7016-12.8588.5-2.6791.9457-5.0758,1.2478-6.3913l1.2336-5.44c7.0491-31.0955,14.3409-63.244,31.073-91.6351a1.06,1.06,0,1,0-1.8294-1.0727c-16.907,28.6621-24.23,60.9828-31.3157,92.2392l-1.2421,5.4315c-.302,1.3325-.7481,3.76-1.2534,6.4759-.8638,4.63-1.9366,10.369-2.6424,12.6077a1.0712,1.0712,0,0,0,.6889,1.3409A1.252,1.252,0,0,0,487.002,511.121Z"/><path class="ab08da64-f4fc-46c2-aedd-cb80001364d1" d="M514.3176,409.2977a1.0543,1.0543,0,0,0,1.0529-.9541c.4517-4.5-4.9036-8.3364-8.39-9.6971-7.0491-2.7609-22.8213-2.1483-29.2747-1.7475-1.595.0989-8.4267.1045-16.34.113-17.9939.0311-33.0941.0819-35.6038.6041a1.0693,1.0693,0,0,0-.8328,1.2562,1.0908,1.0908,0,0,0,1.2562.8329c2.504-.5223,21.3928-.5449,35.18-.559,8.2771-.0169,14.8124-.0226,16.4695-.1214,4.9233-.3021,21.5283-1.0812,28.3741,1.6035,3.1449,1.2251,7.3455,4.5224,7.0406,7.5035a1.0591,1.0591,0,0,0,.9542,1.1575A.512.512,0,0,0,514.3176,409.2977Z"/><path class="ab08da64-f4fc-46c2-aedd-cb80001364d1" d="M514.6647,410.0063a1.0713,1.0713,0,0,0,1.0164-.7312,21.5628,21.5628,0,0,0-4.8585-20.5854,1.0651,1.0651,0,1,0-1.5272,1.485,19.5771,19.5771,0,0,1,4.3559,18.44,1.0762,1.0762,0,0,0,.6888,1.3466A1.1861,1.1861,0,0,0,514.6647,410.0063Z"/><path class="ab08da64-f4fc-46c2-aedd-cb80001364d1" d="M400.9367,306.732a190.35,190.35,0,0,0,27.5781-2.0128c4.9854-.7425,11.21-1.6656,15.5012-5a1.071,1.071,0,0,0,.1806-1.499,1.0461,1.0461,0,0,0-1.4821-.1807c-3.859,2.9952-9.7676,3.8647-14.5159,4.5677a185.06,185.06,0,0,1-69.4659-2.9049,1.0585,1.0585,0,0,0-1.2844.7876,1.079,1.079,0,0,0,.7875,1.2873A184.3059,184.3059,0,0,0,400.9367,306.732Z"/><path class="ab08da64-f4fc-46c2-aedd-cb80001364d1" d="M402.69,293.9776a200.6441,200.6441,0,0,0,28.0947-1.9733l.4009-.0536c4.0312-.5759,8.6017-1.22,12.3761-3.0263a1.0682,1.0682,0,0,0-.9317-1.9225c-3.4637,1.674-7.8592,2.2923-11.738,2.8371l-.4094.0622a201.4636,201.4636,0,0,1-70.9762-2.71,1.0639,1.0639,0,1,0-.446,2.0806A206.0315,206.0315,0,0,0,402.69,293.9776Z"/><path class="ab08da64-f4fc-46c2-aedd-cb80001364d1" d="M492.8513,559.9027a1.0586,1.0586,0,0,0,1.036-.8327c2.8061-12.3225,34.3646-106.6112,35.8608-109.8859,1.68-3.6841,3.2691-7.481,4.8133-11.1509.8017-1.914,1.6091-3.8421,2.4334-5.7476,4.9177-11.4756,7.52-20.8649,8.2093-29.5542.87-11.0832-2.36-19.88-9.6237-26.1581-10.8233-9.3723-26.9512-12.3761-38.122-13.8215-8.5424-1.1037-17.2316-1.8519-25.6357-2.5774l-.9627-.0847c-8.8727-.7621-17.3446-.6718-26.2992-.5814l-4.9713.0536c-10.7021.1129-26.892.2794-32.5494-9.8495-2.8427-5.0984-2.82-11.165-2.7976-17.0284l.0057-2.0862c-.0057-1.9536-.0763-4.0115-.144-6.0977a93.5961,93.5961,0,0,1,.1383-13.0029,1.07,1.07,0,0,0-.94-1.1743,1.0827,1.0827,0,0,0-1.18.9457,97.0911,97.0911,0,0,0-.15,13.2992c.0762,2.0664.144,4.1075.15,6.0356l-.0057,2.0664c-.0226,6.1429-.0537,12.4947,3.0714,18.0786,6.2784,11.2328,23.2278,11.0521,34.4239,10.9392l4.9628-.048c8.9095-.09,17.33-.1891,26.1044.5759l.9543.0762c8.3871.7255,17.0481,1.4736,25.5426,2.58,10.9166,1.3974,26.621,4.3108,37.0125,13.3134,6.7188,5.807,9.714,14.0078,8.8981,24.38-.6662,8.4492-3.2238,17.6325-8.0512,28.8794q-1.2364,2.871-2.4334,5.7646c-1.5358,3.6614-3.1251,7.4358-4.7963,11.0888-1.5047,3.2916-33.1846,97.9445-35.9907,110.3036a1.05,1.05,0,0,0,.8018,1.27A1.0907,1.0907,0,0,0,492.8513,559.9027Z"/><path class="ab08da64-f4fc-46c2-aedd-cb80001364d1" d="M409.3917,352.6229c4.2232,0,12.9661-4.1583,14.3663-5.104,4.6806-3.1618,7.5939-8.1924,9.3781-11.71,4.7285-9.3131,5.3862-22.2764,1.643-32.2557a1.0646,1.0646,0,0,0-1.99.7566c3.5485,9.44,2.9274,21.7174-1.55,30.5393-1.68,3.2973-4.3954,8.0173-8.6779,10.9053-3.0179,2.0438-12.0035,5.2056-13.57,4.7822a1.0737,1.0737,0,0,0-1.3523-.1214,1.0584,1.0584,0,0,0-.2794,1.4764A2.3261,2.3261,0,0,0,409.3917,352.6229Z"/><path class="bad0836f-6e73-45e5-8979-94505731baa0" d="M439.6346,200.1575a1.0335,1.0335,0,0,0,.4009-.0762,1.0526,1.0526,0,0,0,.5816-1.3917c-3.5627-8.7147-6.2473-21.9434-6.8374-33.7068-.6888-13.7594.63-21.4973,9.7507-25.5822a1.0614,1.0614,0,1,0-.8695-1.9366c-11.21,5.0137-11.611,15.4842-11.0069,27.6317.5985,11.9753,3.3452,25.4777,6.9982,34.4041A1.0551,1.0551,0,0,0,439.6346,200.1575Z"/><path class="bad0836f-6e73-45e5-8979-94505731baa0" d="M432.3965,260.8918a1.0457,1.0457,0,0,0,.8243-.3867c8.17-10.03,13.2512-18.7363,16.9973-29.1166a1.0658,1.0658,0,0,0-2.0043-.7255,90.6544,90.6544,0,0,1-14.5922,25.9238,1.0391,1.0391,0,0,0-.7424.4855l-.46.7312c-.302.4856-.5985.9683-.909,1.4454a1.0626,1.0626,0,0,0,.2569,1.4369A1.0815,1.0815,0,0,0,432.3965,260.8918Z"/><path class="ac494a43-76ce-4edd-9cd9-983a1d69a6dd" d="M438.3728,335.4138a7.8463,7.8463,0,0,1-7.8537,7.8536H287.9852a7.85,7.85,0,0,1-7.8537-7.8536L259.9131,177.6383a7.8474,7.8474,0,0,1,7.8508-7.8451H410.2922a7.8492,7.8492,0,0,1,7.8593,7.8451Z"/><polygon class="a0ba04a2-1244-4425-b6af-611f0b8e050b" points="381.678 406.89 353.423 406.89 328.885 283.425 357.129 283.425 381.678 406.89"/><rect class="a9c386f1-387d-41d6-9381-a5cdd73a505a" x="373.5761" y="459.9934" width="36.0047" height="33.5177"/><polygon class="bb7c0f1d-a21f-4f11-89d2-0a87c7c3a7a4" points="461.843 459.985 313.689 459.985 307.803 440.173 467.729 440.173 461.843 459.985"/><polygon class="a0ba04a2-1244-4425-b6af-611f0b8e050b" points="405.77 440.173 307.803 440.173 313.689 459.985 400.581 459.985 405.77 440.173"/><rect class="bce9f79b-1a2a-4995-9d44-b30001029cfa" x="381.3365" y="493.5111" width="20.4754" height="74.7958"/><rect class="f60d5759-846d-408b-95d7-3d182ebaad6b" x="381.3365" y="493.5111" width="8.7683" height="74.7958"/><rect class="a9c386f1-387d-41d6-9381-a5cdd73a505a" x="373.5761" y="568.3068" width="36.0047" height="43.737"/><polygon class="a9c386f1-387d-41d6-9381-a5cdd73a505a" points="283.446 626.811 291.957 626.811 291.957 606.175 491.186 606.175 491.186 626.811 499.697 626.811 499.697 597.658 283.446 597.658 283.446 626.811"/><rect class="a9c386f1-387d-41d6-9381-a5cdd73a505a" x="338.3618" y="601.7201" width="8.5199" height="25.091"/><rect class="a9c386f1-387d-41d6-9381-a5cdd73a505a" x="442.7145" y="602.5585" width="8.5086" height="25.0909"/><path class="b3e0fae6-a544-4e53-a377-b6e377d05389" d="M303.6134,636.1891a16.2522,16.2522,0,1,1-16.2578-16.2465A16.2474,16.2474,0,0,1,303.6134,636.1891Z"/><path class="b2321ff5-0421-4615-923a-5c72aa5b246d" d="M295.48,636.1834a8.12,8.12,0,1,1-8.1247-8.119A8.1222,8.1222,0,0,1,295.48,636.1834Z"/><path class="b3e0fae6-a544-4e53-a377-b6e377d05389" d="M358.871,636.1891a16.245,16.245,0,1,1-16.2493-16.2465A16.24,16.24,0,0,1,358.871,636.1891Z"/><path class="b2321ff5-0421-4615-923a-5c72aa5b246d" d="M350.7548,636.1834a8.1289,8.1289,0,1,1-8.1331-8.119A8.1294,8.1294,0,0,1,350.7548,636.1834Z"/><path class="b3e0fae6-a544-4e53-a377-b6e377d05389" d="M463.2209,636.1891a16.2479,16.2479,0,1,1-16.2492-16.2465A16.24,16.24,0,0,1,463.2209,636.1891Z"/><path class="b2321ff5-0421-4615-923a-5c72aa5b246d" d="M455.0963,636.1834a8.1246,8.1246,0,1,1-8.1246-8.119A8.1276,8.1276,0,0,1,455.0963,636.1834Z"/><path class="b3e0fae6-a544-4e53-a377-b6e377d05389" d="M511.6921,636.1891a16.2479,16.2479,0,1,1-16.2549-16.2465A16.2449,16.2449,0,0,1,511.6921,636.1891Z"/><path class="b2321ff5-0421-4615-923a-5c72aa5b246d" d="M503.57,636.1834a8.1247,8.1247,0,1,1-8.1331-8.119A8.1294,8.1294,0,0,1,503.57,636.1834Z"/><path class="ea96bb59-ca36-4c32-8d43-c11b816bae58" d="M429.8529,335.4138a7.8438,7.8438,0,0,1-7.8508,7.8536H279.4737a7.851,7.851,0,0,1-7.8592-7.8536L251.3961,177.6383a7.8474,7.8474,0,0,1,7.8507-7.8451H401.7837a7.842,7.842,0,0,1,7.8508,7.8451Z"/><path class="ea96bb59-ca36-4c32-8d43-c11b816bae58" d="M285.4811,419.5537c0,11.3909,8.1021,20.6193,18.0927,20.6193H448.1065c9.9935,0,18.1012-9.2284,18.1012-20.6193h0c0-11.3908-8.1077-20.6277-18.1012-20.6277H303.5738c-9.9906,0-18.0927,9.2369-18.0927,20.6277Z"/><path class="ac494a43-76ce-4edd-9cd9-983a1d69a6dd" d="M500.832,440.173H433.6583c-9.9906,0-18.0927-9.2284-18.0927-20.6193s8.1021-20.6277,18.0927-20.6277H500.832s23.88-.5533,22.457,23.5693C523.289,422.4953,522.36,440.173,500.832,440.173Z"/></svg>