<svg id="e312506d-79ce-403f-bfd9-048f32e20a27" data-name="Capa 1" xmlns="http://www.w3.org/2000/svg" viewBox="0 0 1000 740"><defs><style>.fb9adcba-6e5b-4711-a8e5-b7e50d715c47{fill:#52cac9;}.a8974523-2899-474a-8681-b3e1fd19b764{fill:#001e21;}.fcd7b86e-8208-43cb-8209-a02befa12077{fill:#00191d;}.afa20506-12a0-41b8-83f7-964d9de675b2{fill:#092b2f;}.f9ea59f4-4921-45af-ae77-40a5da9a7c96{fill:#cdcdcd;}.f80c0c93-2d64-4e1c-8cb3-908fd9e49a87{fill:#001c20;}.b325493c-788d-43d9-bfb2-c98f47640739{fill:#0e3135;}.fc57f9d0-765b-49ad-8f2b-eee492278998{fill:#00070c;}.e23e591c-cd2f-4c3a-95a6-66ee7d5bee33{fill:#2678a2;}.a2296cc5-b846-43a8-add3-ce3ee8e42f3c{fill:#242e6d;}.ee0ac21b-c4b8-44d5-9d5f-28a88b61fe18{fill:#63341a;}.bf8e6cd3-afd9-4984-ac17-032e6c33ff64{fill:#f6aca0;}.f6b8bc12-42ed-4c0e-8f33-7d85403fc008{fill:#f3938d;}.b2de3171-14ab-416e-aa16-5e21d7300fd4{fill:#f6ada3;}.bd0ee75f-a049-4e94-830c-5b4a8252fa85{fill:#12c8b6;}.bcd3218c-b977-48ff-aeb0-6ca20d0966bb{fill:#269ba7;}.e909ce62-48e9-4816-ab90-a385a115a03d{fill:#f1867c;}.e2548d0e-6eef-4352-9301-f174f88aa850{fill:#f29499;}.b6c4a1e1-4708-4070-ab3c-bc017bbf68de{fill:#7f3f2e;}.a042d2ad-71bc-4013-9104-6043d48f4a16{fill:#ed6d7a;}.a839b793-a5ac-491f-83f6-84e76d709efc{fill:#fff;}.b4d87ea6-a4b9-4d4e-8fd8-d26c89c25af6{fill:#b7c01f;}.a66ca632-173c-48ce-9c6b-1c2d65938cd2{fill:#e6456c;}.ac55d6b2-f871-47c2-9d5e-5ae8fe0a1792{fill:#fdeee5;}.bb06d30e-009f-433f-bc50-0364eee79072{fill:#f49983;}.b88af77a-1796-46b2-b16e-07adcb4da081{fill:#6cdfe9;}.a86e67bb-ee08-4859-b69b-23a4c50da366{fill:#f5a38c;}.e0de059a-ac6b-4a8f-8b1d-87e225ab4219{fill:#f07a65;}.ed9bc885-dff1-420f-b021-673f23951e28{fill:#481b0e;}.feb5a8fc-26c3-4300-98ba-59279ce1f76a{fill:#f38f80;}.b1640169-8f7e-45b3-bf02-5de5e069c2d2{fill:#3f1608;}.a64ddba8-cde8-4166-8dea-f5831fadbe0f{fill:#632a1d;}.af01755a-e633-462d-93aa-6cb67082824d{fill:#39cfdb;}.a3c7587d-35d3-4d98-b6dc-eca790b50c51{fill:#64d9d7;}.f0c59ffc-db6f-414d-822c-28ac1a7ccdce{fill:#fffffb;}.e5692801-cde9-4fda-b7f1-eddea125c880{fill:#e74333;}.acafecd4-eda4-4983-98a6-27e4633b0bc1{fill:#202455;}.a60ffddc-9238-460a-a80a-a361a224bc0f{fill:#bf5e4a;}.b105705d-1d4a-46ea-ba9f-f05f4f3fc9ea{fill:#ae443f;}.ad1ac0f9-2319-4f62-95ef-2b70baf6731d{fill:#131138;}.a89c1e9d-740b-4d38-abf5-e94e226f0ab7{fill:#03667f;}.fe399bcc-03e1-4f44-b4c2-4bb06c40e3ff{fill:#02718c;}.b9937af2-8e9b-4b0e-8e69-629032a15ca3{fill:#c04239;}.a97ab80e-5e36-4c9c-b9d5-fd49ab03c1a1{fill:#585d80;}.a3e426d0-6899-4bea-9308-d71869f5f075{fill:#45496f;}.a4044298-362d-4ce8-9568-b9d40efb4cd2{fill:#4ea3c3;}.af32108d-2374-4b50-9b11-1608d84966be{fill:#0086a6;}.e8d344bf-7e06-4baf-a1cf-f78668d36287{fill:#00bccb;}.e8d35280-62a1-44d7-a8e8-1b804d4eb632{fill:#99cde2;}.ba94a2dd-8390-4740-9c2b-0e39841a725b{fill:#b7d4d7;}.a86c3778-a8a1-4c64-865a-cabaac7eea94{fill:#00b189;}.b15019d5-0639-4ac5-9f0c-e2e04b5fa6b9{fill:#006c5b;}.abf9f6c8-e91f-4d76-af48-335939160148{fill:#f5a395;}.b8bc78bc-3de3-4185-8c4f-51f5e917fcea{fill:#007958;}.e2363b71-89f5-4948-a2dc-dbf6a1dc297b{fill:#371713;}.f9efe62e-9329-487d-8d47-1fb5f80f3a46{fill:#002f22;}.f4b1ca1d-482b-4463-9c8d-668e7356d8fd{fill:#fbd5cc;}.b9db352e-ecf0-4d44-8c0f-8c3bffe48dfc{fill:#722524;}.fad17871-f550-42bf-9a8f-38b5a0b38a81{fill:#11083c;}.a3eb7858-0536-4bb9-aa13-41caa306ef49{fill:#22263d;}.a6d7e63a-2dcd-4b8f-a391-ea791796ce62{fill:#9fd0d5;}.f52277b9-3bcf-46cf-965a-8d2685fd312c{fill:#c6ebf0;}.f5866800-1d13-41dd-a7a3-71531c0dbb1b{fill:#233139;}.eadef466-c085-4c45-a7ec-c60d590bb196{fill:#0f0f23;}.a445b9ab-e6ed-41e1-8a86-7efcb5fbc72f{fill:#303857;}.af3dfa9a-d920-479e-82e0-e56b9db82171{fill:#262b44;}</style></defs><ellipse class="fb9adcba-6e5b-4711-a8e5-b7e50d715c47" cx="499.9993" cy="647.6567" rx="494.7089" ry="75.5566"/><path class="a8974523-2899-474a-8681-b3e1fd19b764" d="M332.8226,304.8869,332.66,175.2241c-.5444-13.7881,7.3773-11.9866,7.3773-11.9866s7.1976-2.5113,8.64,12.97l18.6255,128.6794Z"/><path class="a8974523-2899-474a-8681-b3e1fd19b764" d="M332.8226,304.8869h-9.6349s-6.24,1.2913-6.1942,7.5711H397.51s-.5445-7.9274-8.0984-7.5711Z"/><rect class="fcd7b86e-8208-43cb-8209-a02befa12077" x="207.1362" y="91.036" width="5.5357" height="189.5158"/><rect class="afa20506-12a0-41b8-83f7-964d9de675b2" x="212.6719" y="91.036" width="269.867" height="189.5015"/><rect class="f9ea59f4-4921-45af-ae77-40a5da9a7c96" x="221.5315" y="98.5728" width="252.1394" height="174.425"/><path class="f80c0c93-2d64-4e1c-8cb3-908fd9e49a87" d="M326.6425,81.5494a11.7579,11.7579,0,0,0,11.6417,11.6388c13.7938.3534,17.1974-5.5757,17.1974-12.0065,0-6.4223-.8923-13.2523-17.1974-11.2825C331.899,70.6717,326.6425,75.11,326.6425,81.5494Z"/><path class="b325493c-788d-43d9-bfb2-c98f47640739" d="M335.9582,81.5551a11.64,11.64,0,1,0,11.6444-11.6388A11.65,11.65,0,0,0,335.9582,81.5551Z"/><path class="fc57f9d0-765b-49ad-8f2b-eee492278998" d="M342.0469,81.5551a5.5543,5.5543,0,1,0,5.5557-5.5443A5.5493,5.5493,0,0,0,342.0469,81.5551Z"/><rect class="e23e591c-cd2f-4c3a-95a6-66ee7d5bee33" x="395.0785" y="108.373" width="73.2277" height="77.5805"/><rect class="a2296cc5-b846-43a8-add3-ce3ee8e42f3c" x="395.0785" y="108.373" width="73.2277" height="6.3482"/><path class="ee0ac21b-c4b8-44d5-9d5f-28a88b61fe18" d="M439.453,137.4286a15.7657,15.7657,0,0,1-.8694,10.9148c-1.2486,3.0244-2.939,5.57-3.626,8.8851-.6727,3.2383.3592,5.6755,1.4453,8.6543.9378,2.557,1.411,6.0546-.9236,8.1041-2.5883,2.2748-8.3521,1.4966-11.482,1.26-3.6458-.2678-7.58-.0769-11.1143-1.1316-3.0586-.915-4.9428-3.8254-5.6555-6.8441a12.9176,12.9176,0,0,1,2.557-10.9832c2.0923-2.7736,5.12-4.6578,3.1755-8.4092-1.06-2.0466-2.7422-3.2467-3.0073-5.6754a14.9487,14.9487,0,0,1,1.4024-7.6c2.765-6.3709,9.0733-11.4506,15.9147-10.8149a14.2252,14.2252,0,0,1,7.6536,3.8483C437.3179,130.1512,438.5123,134.1819,439.453,137.4286Z"/><path class="bf8e6cd3-afd9-4984-ac17-032e6c33ff64" d="M438.4125,185.9535c-1.8357-6.4365-3.2753-13.1438-3.2753-13.1438-2.8961-11.8469,2.3147-14.2527,2.3147-14.2527a17.5087,17.5087,0,0,1,6.1429,5.262c1.0633,4.5751,2.6168,16.14,3.395,22.1345Z"/><path class="bf8e6cd3-afd9-4984-ac17-032e6c33ff64" d="M445.02,185.9535a49.0715,49.0715,0,0,1,2.4059-4.367c3.375-5.416,8.13-16.9807,8.13-16.9807l2.5256.4418a124.94,124.94,0,0,1-5.1054,20.9059Z"/><polygon class="bf8e6cd3-afd9-4984-ac17-032e6c33ff64" points="412.729 185.954 408.43 159.244 422.221 154.141 429.439 154.141 436.902 157.633 436.069 185.954 412.729 185.954"/><path class="bf8e6cd3-afd9-4984-ac17-032e6c33ff64" d="M430.354,154.5918h-9.1189v-10.9h9.1189S429.382,152.2772,430.354,154.5918Z"/><path class="f6b8bc12-42ed-4c0e-8f33-7d85403fc008" d="M429.9236,151.2253a14.058,14.058,0,0,1-8.6885-.5587v-6.9753h9.1189A70.5174,70.5174,0,0,0,429.9236,151.2253Z"/><path class="b2de3171-14ab-416e-aa16-5e21d7300fd4" d="M435.1543,137.879c.0086,3.1784-.51,8.74-2.7023,10.7637-2.6652,2.4515-11.2169-.268-12.1148-4.0335-.9635-4.0392-3.0045-8.8225-2.269-12.77a7.95,7.95,0,0,1,9.8115-6.28C432.4549,126.6992,435.1429,133.7173,435.1543,137.879Z"/><path class="b2de3171-14ab-416e-aa16-5e21d7300fd4" d="M416.6315,137.36c-1.06,1.4224.6442,4.9114,3.2981,5.7353.5159-.77.4788-2.7651.4219-3.68a4.0747,4.0747,0,0,0-1.4652-2.2833A1.6141,1.6141,0,0,0,416.6315,137.36Z"/><path class="ee0ac21b-c4b8-44d5-9d5f-28a88b61fe18" d="M423.0937,134.5268c-1.0177.55-.9207,1.9925-1.183,2.6966a2.3608,2.3608,0,0,1-2.3973,1.8244,2.406,2.406,0,0,0-1.8842-2.07c-.8523-.0143-1.0775.5416-1.3084,1.1231a18.0677,18.0677,0,0,1-.5017-4.8573,19.9868,19.9868,0,0,1,.9093-3.5518c.3591-1.2543.9692-1.5422,1.9013-2.46.8751-.8637,1.9127-.9407,2.805-1.6419a2.5649,2.5649,0,0,1,.7211.8694c.61.7183,2.4373,3.6829,2.7708,4.1418C424.9266,130.6016,426.5229,132.68,423.0937,134.5268Z"/><path class="ee0ac21b-c4b8-44d5-9d5f-28a88b61fe18" d="M425.263,131.0833l-3.8283-5.4929c1.2713-1.8329,6.04-1.6049,6.0431-1.6049,4.98.1539,9.4039,4.997,8.831,9.9683a9.024,9.024,0,0,1-1.1545,3.9252c-.419-5.0853-1.3511-5.339-1.73-5.5813a9.975,9.975,0,0,1-5.0512-.191,19.5574,19.5574,0,0,1-3.4463-1.5051"/><path class="bd0ee75f-a049-4e94-830c-5b4a8252fa85" d="M438.9741,178.5079a33.6317,33.6317,0,0,0-.9863,7.4456H412.2645l.0227-1.6419-2.383-8.5858c4.119-5.9035,8.1411-13.0441,1.14-17.4739.08-.0314.1653-.0541.248-.0855,2.1892-.8181,6.34-2.4059,8.5317-3.2155,5.7581,6.24,12.1034.3507,12.1034.3507l4.9742,2.3317,2.0724,4.9857c.8409,2.1777,2.9788,7.3173,2.5654,9.5037C441.0521,174.6511,439.9888,176.1249,438.9741,178.5079Z"/><path class="bcd3218c-b977-48ff-aeb0-6ca20d0966bb" d="M425.5622,158.0666c1.9014,0,4.8118-.7554,5.7325-1.9925a.2782.2782,0,0,0-.0541-.39.2811.2811,0,0,0-.3906.0542c-.8808,1.1829-4.4554,2.0409-6.12,1.7046a8.1868,8.1868,0,0,1-4.3728-2.1465.2892.2892,0,0,0-.4019,0,.2826.2826,0,0,0,0,.3877,8.7143,8.7143,0,0,0,4.6949,2.3146A5.3161,5.3161,0,0,0,425.5622,158.0666Z"/><path class="e909ce62-48e9-4816-ab90-a385a115a03d" d="M418.5413,141.1886a.3234.3234,0,0,0,.2765-.1626.3176.3176,0,0,0-.12-.4275,1.9716,1.9716,0,0,1-.7782-1.1745,1.6188,1.6188,0,0,1,.0655-1.2456.3309.3309,0,0,0-.1226-.4362.3244.3244,0,0,0-.4247.1226,2.2626,2.2626,0,0,0-.1255,1.7275,2.6088,2.6088,0,0,0,1.0776,1.5563A.3505.3505,0,0,0,418.5413,141.1886Z"/><path class="e909ce62-48e9-4816-ab90-a385a115a03d" d="M417.7745,139.7975a.3354.3354,0,0,0,.2167-.0856.7829.7829,0,0,1,.5957-.1909.3208.3208,0,0,0,.3365-.2965.3161.3161,0,0,0-.2937-.3364,1.4337,1.4337,0,0,0-1.0661.3592.3205.3205,0,0,0-.0228.4419A.3261.3261,0,0,0,417.7745,139.7975Z"/><path class="bf8e6cd3-afd9-4984-ac17-032e6c33ff64" d="M458.1127,153.5314c1.7359.0684-.3678,4.558-.3564,5.49.4077-1.0519,1.659-5.1937,2.8107-5.1025.6813.1226-.9493,3.6458-1.1146,4.3556.362-.5729,1.4282-3.0786,2.2006-2.8334.4988.3107-.69,2.6795-.9264,3.4662.1568-.1453,1.2543-2.3516,1.5963-1.9555.3649.3592-.1624,2.01-.4875,2.805-1.4565,3.6031-2.9645,7.6281-5.0825,6.0175-1.5849-1.2143-2.4258-1.9241-3.1071-7.6223-.1169-.9778,1.5137-.2082,2.1636,1.696C456.2512,159.6173,457.8988,153.5143,458.1127,153.5314Z"/><path class="e909ce62-48e9-4816-ab90-a385a115a03d" d="M456.1572,160.9941c-.0343-.04-.077-.0769-.1141-.1169-.1225-.1282.2481-.1824.3307-.0969.0456.0456.08.0969.1226.1454-.1369-.0085-.2679-.0171-.3962-.0256a.4971.4971,0,0,1,.4988-.0685c.1.0456.18.2.2423.2908.08.1226.2594.1539.3506.2594a2.0648,2.0648,0,0,1-.0513,2.1921c-.0941.1539-.6328.1539-.5673-.0684a4.2312,4.2312,0,0,0,.3051-1.488.7721.7721,0,0,0-.382-.6271.594.594,0,0,1-.1682-.2c-.1254-.2137-.0912-.0741.1083-.16-.0827.0371-.3079.06-.3592-.0456a1.2733,1.2733,0,0,1-.0541-.1311c-.0456-.1454.3306-.1682.3649-.0513.017.0456.0313.0912.0427.1283.04.1139-.2223.1139-.2736.0626Z"/><path class="e2548d0e-6eef-4352-9301-f174f88aa850" d="M428.3188,140.2251c0,.419-.8011.7553-1.7874.7553s-1.7873-.3363-1.7873-.7553.8011-.7554,1.7873-.7554S428.3188,139.806,428.3188,140.2251Z"/><path class="e2548d0e-6eef-4352-9301-f174f88aa850" d="M434.8778,140.2251c0,.419-.6471.7553-1.4452.7553-.79,0-1.4395-.3363-1.4395-.7553s.65-.7554,1.4395-.7554C434.2307,139.47,434.8778,139.806,434.8778,140.2251Z"/><path class="b6c4a1e1-4708-4070-ab3c-bc017bbf68de" d="M433.1077,137.3289c-.3507.0228-.6186.5131-.5872,1.1088.0142.5958.3135,1.0548.6669,1.032.3478-.0228.6158-.5217.593-1.1174C433.7576,137.7651,433.4554,137.3,433.1077,137.3289Z"/><path class="b6c4a1e1-4708-4070-ab3c-bc017bbf68de" d="M427.0018,137.3232c-.3506.0285-.6158.5188-.5958,1.1145.0228.5873.325,1.0548.6756,1.032.3477-.0228.6157-.5274.5929-1.1174C427.6517,137.7564,427.35,137.3,427.0018,137.3232Z"/><path class="e909ce62-48e9-4816-ab90-a385a115a03d" d="M430.6191,137.5142c-.2679.7925.45,1.6333.955,2.1379.2422.2451.5615.61.41.9863-.3078.7554-1.3312,1.0746-2.0581,1.2286-.0712.0142-.5673.0313-.45-.1767a.358.358,0,0,1,.5957,0c-.1254-.0286-.2508-.06-.3791-.097.8837-.1682,2.4714-.7582,1.5136-1.8329-.4874-.5445-1.3141-1.4993-.81-2.269.037-.0542.2508-.0628.2223.0228Z"/><path class="a042d2ad-71bc-4013-9104-6043d48f4a16" d="M430.32,144.518a2.1328,2.1328,0,0,0,1.5735-.6813.2719.2719,0,0,0,0-.3877.2788.2788,0,0,0-.3934,0,1.8343,1.8343,0,0,1-2.4542.06.2836.2836,0,0,0-.3935.0456.2876.2876,0,0,0,.0457.399A2.7716,2.7716,0,0,0,430.32,144.518Z"/><path class="ee0ac21b-c4b8-44d5-9d5f-28a88b61fe18" d="M428.6466,137.2091a.2857.2857,0,0,0,.2137-.1083.2743.2743,0,0,0-.037-.39,2.68,2.68,0,0,0-3.7058-.0456.2756.2756,0,0,0,.3478.4275,2.1394,2.1394,0,0,1,3.0074.0456A.2481.2481,0,0,0,428.6466,137.2091Z"/><path class="ee0ac21b-c4b8-44d5-9d5f-28a88b61fe18" d="M431.708,137.1778a.3108.3108,0,0,0,.1768-.0627,2.08,2.08,0,0,1,2.5711-.305.2689.2689,0,0,0,.3791-.1.2776.2776,0,0,0-.0912-.3821,2.6706,2.6706,0,0,0-3.2125.3535.2705.2705,0,0,0-.0342.3877A.2516.2516,0,0,0,431.708,137.1778Z"/><path class="bf8e6cd3-afd9-4984-ac17-032e6c33ff64" d="M412.2673,185.9535h-8.54l-.399-17.5821s-.3706-8.6144,7.7164-10.1195c0,0,5.45,2.4344,2.8534,11.7015Z"/><path class="a839b793-a5ac-491f-83f6-84e76d709efc" d="M418.9062,142.0038a.6243.6243,0,1,0,.6243-.6243A.6284.6284,0,0,0,418.9062,142.0038Z"/><polygon class="bd0ee75f-a049-4e94-830c-5b4a8252fa85" points="412.849 185.954 413.527 173.947 439.861 175.98 440.824 185.954 412.849 185.954"/><path class="bd0ee75f-a049-4e94-830c-5b4a8252fa85" d="M412.0963,157.8528s4.3983,1.6277,3.8425,9.2272L414.83,184.8789a22.0154,22.0154,0,0,1-13.7253-.9265l1.9925-18.7736S403.9808,159.663,412.0963,157.8528Z"/><path class="bd0ee75f-a049-4e94-830c-5b4a8252fa85" d="M436.4313,157.297s6.1858,1.602,8.1356,6.3311l5.0055,10.5727s-3.338,7.437-9.3925,8.6912l-6.8813-14.33S429.8922,160.5666,436.4313,157.297Z"/><path class="bcd3218c-b977-48ff-aeb0-6ca20d0966bb" d="M414.73,183.4422a.2818.2818,0,0,0,.2822-.2537c.1083-1.26.2594-2.8562.4247-4.5808.3335-3.3922.7041-7.249.8238-9.7461.1454-2.859.4019-8.1753-2.8961-10.5356a.282.282,0,0,0-.3906.0628.2888.2888,0,0,0,.0685.39c3.0558,2.1836,2.7963,7.3,2.6652,10.0511-.1254,2.4885-.496,6.3311-.8238,9.7232-.1682,1.7246-.3221,3.338-.4276,4.5894a.2776.2776,0,0,0,.2565.2993Z"/><path class="a839b793-a5ac-491f-83f6-84e76d709efc" d="M406.5662,111.4431a1.7146,1.7146,0,1,0,1.71-1.716A1.71,1.71,0,0,0,406.5662,111.4431Z"/><path class="b4d87ea6-a4b9-4d4e-8fd8-d26c89c25af6" d="M401.8286,111.4431a1.716,1.716,0,1,0,1.7131-1.716A1.7092,1.7092,0,0,0,401.8286,111.4431Z"/><path class="a66ca632-173c-48ce-9c6b-1c2d65938cd2" d="M397.0881,111.4431a1.7161,1.7161,0,1,0,1.716-1.716A1.7135,1.7135,0,0,0,397.0881,111.4431Z"/><rect class="ac55d6b2-f871-47c2-9d5e-5ae8fe0a1792" x="321.8508" y="108.373" width="73.2277" height="77.5805"/><rect class="a2296cc5-b846-43a8-add3-ce3ee8e42f3c" x="321.8508" y="108.373" width="73.2277" height="6.3482"/><path class="a839b793-a5ac-491f-83f6-84e76d709efc" d="M333.3385,111.4431a1.7146,1.7146,0,1,0,1.71-1.716A1.7141,1.7141,0,0,0,333.3385,111.4431Z"/><path class="b4d87ea6-a4b9-4d4e-8fd8-d26c89c25af6" d="M328.6037,111.4431a1.7146,1.7146,0,1,0,1.71-1.716A1.7123,1.7123,0,0,0,328.6037,111.4431Z"/><path class="a66ca632-173c-48ce-9c6b-1c2d65938cd2" d="M323.8661,111.4431a1.7161,1.7161,0,1,0,1.7132-1.716A1.7147,1.7147,0,0,0,323.8661,111.4431Z"/><path class="bb06d30e-009f-433f-bc50-0364eee79072" d="M373.8048,185.9535a76.7922,76.7922,0,0,0-2.6567-8.4632s4.1618-13.7083,11.4336-2.443c0,0,.5046,4.3471.8409,10.9062Z"/><path class="b88af77a-1796-46b2-b16e-07adcb4da081" d="M377.445,185.9535,371.08,169.2579s-3.9965-10.9547.9321-17.3c0,0,6.0631,1.42,12.4341,15.5041l4.5066,8.8453-9.2842,9.6462Z"/><polygon class="a86e67bb-ee08-4859-b69b-23a4c50da366" points="370.011 151.986 365.518 148.703 355.866 148.703 350.533 151.986 370.011 151.986"/><path class="bb06d30e-009f-433f-bc50-0364eee79072" d="M365.96,150.5355H355.8664V139.521H365.96S364.8855,148.198,365.96,150.5355Z"/><path class="e0de059a-ac6b-4a8f-8b1d-87e225ab4219" d="M355.8664,144.518v-4.997H365.96s-.3049,2.4543-.4275,5.0968A12.363,12.363,0,0,1,355.8664,144.518Z"/><path class="ed9bc885-dff1-420f-b021-673f23951e28" d="M371.77,130.7926a19.3429,19.3429,0,0,1-2.0211,5.0255c-1.1374,1.6961-2.9816,1.947-3.985.0142a11.0874,11.0874,0,0,1-.898-6.0858c.1112-1.069-1.582-4.866-.6527-5.6612,1.4594-1.2458,6.103-1.4139,7.3458-.1682C372.7274,125.0772,372.22,129.3417,371.77,130.7926Z"/><path class="a86e67bb-ee08-4859-b69b-23a4c50da366" d="M371.0712,133.5947a27.1446,27.1446,0,0,1-.4533,5.7438c-.37,1.9184-.8038,5.4988-2.8619,6.4394a4.2509,4.2509,0,0,1-1.9355.3279,12.243,12.243,0,0,1-8.1269-3.643c-3.7314-3.7343-4.464-13.4347-1.3227-17.46,2.8677-3.6687,12.9671-2.6681,14.056,2.7565A33.8578,33.8578,0,0,1,371.0712,133.5947Z"/><path class="bb06d30e-009f-433f-bc50-0364eee79072" d="M371.0712,133.5947a27.1446,27.1446,0,0,1-.4533,5.7438c-.37,1.9184-.8038,5.4988-2.8619,6.4394a4.2509,4.2509,0,0,1-1.9355.3279,12.243,12.243,0,0,1-8.1269-3.643c-3.7314-3.7343-4.464-13.4347-1.3227-17.46,2.8677-3.6687,12.9671-2.6681,14.056,2.7565A33.8578,33.8578,0,0,1,371.0712,133.5947Z"/><path class="e0de059a-ac6b-4a8f-8b1d-87e225ab4219" d="M356.9125,141.5306c-3.03-4.2159-3.4463-12.8075-.5416-16.5275a4.0254,4.0254,0,0,1,.5416-.5586l-.63,7.7534.63,2.3146Z"/><path class="b6c4a1e1-4708-4070-ab3c-bc017bbf68de" d="M369.0587,133.9225a.4871.4871,0,1,0,.9521,0,.4881.4881,0,1,0-.9521,0Z"/><path class="b6c4a1e1-4708-4070-ab3c-bc017bbf68de" d="M363.4973,134.1534a.4865.4865,0,1,0,.952,0,.49.49,0,1,0-.952,0Z"/><path class="feb5a8fc-26c3-4300-98ba-59279ce1f76a" d="M355.5813,133.6944c-.45-.4275-.8495-1.6276-1.65-1.2a2.322,2.322,0,0,1-.2509.0769c-.3107.1369-.3592.45-.47.7184a6.73,6.73,0,0,0-.3221,1.4965c-.0029.0228-.0685.0228-.0713,0-.1226-.8922.0484-2.3374.9777-2.7565a1.8422,1.8422,0,0,1,2.2947,1.5963c-.0085.1825-.4162.1511-.5074.0684Z"/><path class="e0de059a-ac6b-4a8f-8b1d-87e225ab4219" d="M367.8244,140.2393c-.51.5587-1.3654.4048-2.0552.4133a3.1076,3.1076,0,0,1-1.6647-.5273.1215.1215,0,0,1-.0371-.1454.4194.4194,0,0,0,.0228-.0769c.0542-.16.3962-.097.496-.06a3.8278,3.8278,0,0,0,2.9132.2736c.0742-.0371.4675-.0371.325.1226Z"/><path class="ed9bc885-dff1-420f-b021-673f23951e28" d="M357.2032,131.4254c-.017.496-.14,2.9247-.2621,3.3608-.12.4447-.5417.5644-.6813.2223-.7355-.6641-.6329-2.4515-1.8472-2.62-1.3055-.1853-1.565,1.7417-1.525,2.62a9.3139,9.3139,0,0,1-1.2971-3.8653c0-.6955-.0114-2.3916,0-3.643a4.63,4.63,0,0,1,4.9144-4.7433,4.0421,4.0421,0,0,1,3.4149,2.061c.6272,1.3539-.2451,2.5-1.1316,3.4605C357.685,129.4927,357.2945,129.7008,357.2032,131.4254Z"/><path class="bb06d30e-009f-433f-bc50-0364eee79072" d="M353.3009,132.5029c-1.2628,1.2685-.4618,4.9571,2.0808,6.1572.6272-.7041.6016-2.5912.6643-3.5233a3.5374,3.5374,0,0,0-.4647-2.5512A1.6188,1.6188,0,0,0,353.3009,132.5029Z"/><path class="e0de059a-ac6b-4a8f-8b1d-87e225ab4219" d="M355.3675,135.0228c.0257.1767.1682.55.0342.7041a1.0547,1.0547,0,0,1-.3905.2594.6363.6363,0,0,1-.7554-.2908,2.5277,2.5277,0,0,1-.2337-.9549.7571.7571,0,0,1,.1311-.6556.26.26,0,0,1,.2794,0c.2536.2594.1824.724.2252,1.0518a1.2553,1.2553,0,0,0,.208.5958c.0428.0456.0513.0228-.0513.0228-.094-.0057.0257-.037.0742-.0741.1681-.1226.1054-.4732.12-.6585.0086-.1226.345-.1226.3592,0Z"/><path class="e0de059a-ac6b-4a8f-8b1d-87e225ab4219" d="M354.6406,134.1677c-.342-.4419-.6784,0-.7582.3278a1.6,1.6,0,0,0-.02.6043,5.0252,5.0252,0,0,0,.47,1.1231c.0343.1-.1795.1-.2252.0684a1.65,1.65,0,0,1-.5786-2.1921c.2879-.4418,1.1745-.5131,1.3911.0314.0513.114-.2281.1-.2794.0371Z"/><path class="e0de059a-ac6b-4a8f-8b1d-87e225ab4219" d="M368.5342,132.0839c.1.6556-.1739,1.3654-.0827,2.07a14.8912,14.8912,0,0,0,.9379,3.033c.4675,1.2827-2.232,1.2286-2.8563,1.1145-.4646-.0769-.1368-.3591.18-.3221a2.7,2.7,0,0,0,.6613.0314c1.964-.0912,1.337-.7868,1.0975-1.451a9.4477,9.4477,0,0,1-.6528-2.0467c-.1226-.9178.3734-1.582.4419-2.4286.0113-.1.2593-.1.2736,0Z"/><path class="b1640169-8f7e-45b3-bf02-5de5e069c2d2" d="M373.3972,122.1982a12.7724,12.7724,0,0,1-.3706,1.5593,5.9851,5.9851,0,0,1-4.5494,3.8653c-1.69.3421-2.7793-.8551-4.3271-1.0633-1.4054-.1824-2.5313.7269-3.8283,1.0633-1.2657.3364-1.73.41-2.6966-.45a12.5309,12.5309,0,0,0-1.5365-.9407c-.5416-.3591-.9036-.9407-1.4765-1.2685-.9864-.5416-.7355-.496-1.2372-1.6334a3.1443,3.1443,0,0,1-.0086-2.6823c.45-.9378,1.69-1.1146,2.0895-1.9013.3991-.7953,2.9931-.228,3.86-.3962a22.0234,22.0234,0,0,1,8.3235-.191S373.3944,119.41,373.3972,122.1982Z"/><path class="a64ddba8-cde8-4166-8dea-f5831fadbe0f" d="M365.6779,132.7167a.2459.2459,0,0,0,.2-.1.2506.2506,0,0,0-.0542-.3507,2.9359,2.9359,0,0,0-3.4491.0142.2583.2583,0,0,0-.0057.3592.25.25,0,0,0,.3506.0086,2.46,2.46,0,0,1,2.8078.0143A.2148.2148,0,0,0,365.6779,132.7167Z"/><path class="a64ddba8-cde8-4166-8dea-f5831fadbe0f" d="M368.5513,132.7167a.277.277,0,0,0,.171-.06,1.6978,1.6978,0,0,1,1.9128-.0628.2441.2441,0,0,0,.3448-.0827.2522.2522,0,0,0-.0854-.3448,2.174,2.174,0,0,0-2.5114.1139.2463.2463,0,0,0-.0114.3535A.2524.2524,0,0,0,368.5513,132.7167Z"/><path class="b88af77a-1796-46b2-b16e-07adcb4da081" d="M341.2373,185.9535c.1056-1.3511.1711-2.1977.1711-2.1977l1.73-30.0049,12.7277-5.3391c7.6309,6.0346,9.6519,0,9.6519,0l7.0494,3.5376c4.7291,2.879,5.4844,22.2428,5.4844,22.2428.345,3.9251.71,7.8447,1.0548,11.7613Z"/><path class="af01755a-e633-462d-93aa-6cb67082824d" d="M378.075,181.5238a.2526.2526,0,0,0,.2479-.2594c0-7.7449-.2964-16.0258-2.5084-24.09a.2518.2518,0,1,0-.4846.1368c2.1921,8.0044,2.4942,16.2453,2.4942,23.9532A.255.255,0,0,0,378.075,181.5238Z"/><path class="af01755a-e633-462d-93aa-6cb67082824d" d="M361.6872,153.8593a6.1859,6.1859,0,0,0,1.6362-.1911c.8551-.228,3.2211-1.183,3.8568-2.7793a.2417.2417,0,0,0-.1425-.3221.2449.2449,0,0,0-.3193.1368c-.5587,1.4-2.7878,2.2833-3.5289,2.4829-2.175.5958-6.4509-.2594-7.6766-2.6054a.25.25,0,0,0-.3364-.1055.2459.2459,0,0,0-.1112.3364C356.1343,152.85,359.2813,153.8593,361.6872,153.8593Z"/><path class="bb06d30e-009f-433f-bc50-0364eee79072" d="M332.4805,185.9535c-.533-10.5014,1.4537-18.7823,3.5774-21.6613,1.6676,0,4.3842,1.0462,7.8419,0,.6584,3.1869-2.9047,17.4767-3.0273,21.6613Z"/><path class="b88af77a-1796-46b2-b16e-07adcb4da081" d="M344.735,185.9535h-9.9057a18.1026,18.1026,0,0,1-5.7837-1.97l5.5072-21.1055a17.1742,17.1742,0,0,1,8.5859-9.1274c5.416,1.2543,4.8716,7.54,4.8716,7.54Z"/><path class="af01755a-e633-462d-93aa-6cb67082824d" d="M344.6124,183.4023a.2489.2489,0,0,0,.2366-.1825,123.3522,123.3522,0,0,0,2.8449-14.2527l.22-1.3283c.6812-4.2787,1.18-9.1218-1.6534-12.5111a.243.243,0,0,0-.3563-.0313.2557.2557,0,0,0-.0313.3506c2.6994,3.2382,2.2119,7.9445,1.5421,12.1148l-.2138,1.3284a123.6287,123.6287,0,0,1-2.8277,14.1928.24.24,0,0,0,.171.305A.161.161,0,0,0,344.6124,183.4023Z"/><rect class="a3c7587d-35d3-4d98-b6dc-eca790b50c51" x="395.0842" y="185.9535" width="73.2248" height="77.589"/><rect class="a2296cc5-b846-43a8-add3-ce3ee8e42f3c" x="395.0842" y="185.9535" width="73.2248" height="6.3482"/><path class="a839b793-a5ac-491f-83f6-84e76d709efc" d="M406.5776,189.0265a1.7132,1.7132,0,1,0,1.71-1.7133A1.7092,1.7092,0,0,0,406.5776,189.0265Z"/><path class="b4d87ea6-a4b9-4d4e-8fd8-d26c89c25af6" d="M401.8343,189.0265a1.716,1.716,0,1,0,1.7131-1.7133A1.7135,1.7135,0,0,0,401.8343,189.0265Z"/><path class="a66ca632-173c-48ce-9c6b-1c2d65938cd2" d="M397.1,189.0265a1.7118,1.7118,0,1,0,1.7132-1.7133A1.7116,1.7116,0,0,0,397.1,189.0265Z"/><rect class="f0c59ffc-db6f-414d-822c-28ac1a7ccdce" x="321.8508" y="185.9535" width="73.2277" height="77.589"/><rect class="a2296cc5-b846-43a8-add3-ce3ee8e42f3c" x="321.8508" y="185.9535" width="73.2277" height="6.3482"/><path class="a839b793-a5ac-491f-83f6-84e76d709efc" d="M333.3385,189.0265a1.7146,1.7146,0,1,0,1.7189-1.7133A1.7165,1.7165,0,0,0,333.3385,189.0265Z"/><path class="b4d87ea6-a4b9-4d4e-8fd8-d26c89c25af6" d="M328.6037,189.0265a1.7161,1.7161,0,1,0,1.71-1.7133A1.7129,1.7129,0,0,0,328.6037,189.0265Z"/><path class="a66ca632-173c-48ce-9c6b-1c2d65938cd2" d="M323.8661,189.0265a1.7161,1.7161,0,1,0,1.7132-1.7133A1.7153,1.7153,0,0,0,323.8661,189.0265Z"/><path class="e5692801-cde9-4fda-b7f1-eddea125c880" d="M369.6516,214.5759c.1967.838.9549,1.5335,1.2543,2.3431a5.1476,5.1476,0,0,1,.1909,3.1642c-.3164,1.0375-1.1858,1.32-1.7673,1.9241a3.434,3.434,0,0,1-1.964.0684c-.7868-.2052-1.5422-.7184-2.34-.8409a3.25,3.25,0,0,0-3.05,1.6048c-.4333.55-.9036,1.374-1.6476,1.5507a3.3277,3.3277,0,0,1-2.9589-.8865,6.1715,6.1715,0,0,0-3.5717-1.7274,3.21,3.21,0,0,1-2.4259-.9835,6.3382,6.3382,0,0,1-1.14-2.8733,2.968,2.968,0,0,0-.9293-1.7417c-.419-.3649-1.0632-.55-1.4623-.9464.0057-.0912,0-.191.0086-.2737a21.0192,21.0192,0,0,1,1.97-7.9217c1.0547-2.2462,2.4686-4.5066,5.1681-4.4838,1.24.0142,1.8642.2993,2.8762-.6414,1.8756-1.7417,3.5774-4.0934,6.5676-3.1385,2.3574.7555,4.4725,3.4121,5.6983,5.4132a7.35,7.35,0,0,1,.5872,7.3887C370.1932,212.5434,369.3666,213.39,369.6516,214.5759Z"/><path class="bf8e6cd3-afd9-4984-ac17-032e6c33ff64" d="M366.6272,237.3061c-.7411-7.2175,2.8676-7.3714,2.8676-7.3714,4.0963-.7954,5.6042,5.4616,5.6042,5.4616s2.1009,13.7653,1.6932,19.8512c0,0-4.4382,2.4-6.2284-1.5108Z"/><path class="bf8e6cd3-afd9-4984-ac17-032e6c33ff64" d="M374.4462,263.5426a70.09,70.09,0,0,1-3.84-9.41s1.7645-9.3327,6.14-3.78a86.8135,86.8135,0,0,0,3.4521,13.1895Z"/><polygon class="bf8e6cd3-afd9-4984-ac17-032e6c33ff64" points="350.177 263.543 342.925 231.081 356.468 226.092 362.807 226.092 371.182 230.012 368.306 263.543 350.177 263.543"/><path class="bf8e6cd3-afd9-4984-ac17-032e6c33ff64" d="M363.6085,226.4912h-8.0129V216.919h8.0129S362.7533,224.4673,363.6085,226.4912Z"/><path class="e909ce62-48e9-4816-ab90-a385a115a03d" d="M358.6428,221.99a10.3532,10.3532,0,0,1-3.0472-.9606V216.919h8.0129s-.3051,2.66-.3734,5.2564A15.8931,15.8931,0,0,1,358.6428,221.99Z"/><path class="acafecd4-eda4-4983-98a6-27e4633b0bc1" d="M349.5467,263.5426c-.5616-1.2286-1.5992-3.23-1.5621-4.2987.0456-1.2172-1.2856-3.1869-1.3854-4.3869a8.4488,8.4488,0,0,0-.6642-3.4977c-1.1-2.0153-1.086-5.0112-1.5906-7.2774a22.8356,22.8356,0,0,1-.8551-5.8123c0-1.2627-1.08-2.6681-1.3854-3.8881-.3335-1.3084-.1454-2.8819,1.1345-3.4606,1.1459-.5273,2.443-.8552,3.6231-1.2827,1.9241-.7184,5.5728-2.1237,7.4969-2.8278,6.8756,5.9121,10.6326.3136,10.6326.3136l4.37,2.041.0541,34.3776Z"/><path class="acafecd4-eda4-4983-98a6-27e4633b0bc1" d="M371.1824,247.5026c-.8866,2.0865.1852,3.2781.7553,8.3407.345,2.9873.6528,5.5443,1.0348,7.6993H344.4956a18.5713,18.5713,0,0,0,.9178-4.2844c.5273-5.2108-.4076-10.4729-1.126-15.507-.342-2.4287-1.6105-5.5585-1.3482-7.9815.2536-2.2919,3.0871-4.1989,5.225-4.2074,3.0643,0,5.9491,1.6191,9.0277,1.9155,3.4805.3535,5.2991-.9007,7.9416-2.8932,1.069-.81,2.7906-2.6054,4.0279-1.451,1.3026,1.2058,1.3853,2.7708,2.021,4.4155.7326,1.9071,2.6167,6.4223,2.249,8.3407C373.0067,244.11,372.0717,245.41,371.1824,247.5026Z"/><path class="bf8e6cd3-afd9-4984-ac17-032e6c33ff64" d="M342.9249,263.5426h-5.6071a90.3936,90.3936,0,0,1-.5644-10.1964c6.5449-.2509,6.4765,3.6886,6.4765,3.6886C343.0075,259.29,342.922,261.4645,342.9249,263.5426Z"/><path class="bf8e6cd3-afd9-4984-ac17-032e6c33ff64" d="M338.15,258.99a14.7026,14.7026,0,0,1-1.3968-5.6441c-.3363-9.7232,3.4777-19.1557,5.513-21.5843.2138-.6272,4.8289-3.4692,5.8864,2.1749.4133,2.8733-4.8858,20.9686-4.9229,23.098C343.23,257.0348,341.7191,260.5951,338.15,258.99Z"/><path class="bf8e6cd3-afd9-4984-ac17-032e6c33ff64" d="M366.7782,209.4335c-.02,2.8506-.533,7.8447-2.52,9.6405-2.4059,2.1835-8.9023-1.4737-10.8378-3.7284-2.4315-2.8193-2.6282-7.936-1.927-11.4792a7.1346,7.1346,0,0,1,8.8623-5.5529C364.4493,199.3739,366.8039,205.7078,366.7782,209.4335Z"/><path class="e909ce62-48e9-4816-ab90-a385a115a03d" d="M351.6105,203.69a7.0469,7.0469,0,0,1,.8324-2.115l1.3,9.25.0542,3.5432-.2937,1.1317c-.0826-.1-.171-.191-.2479-.2822C350.8979,212.3354,350.83,207.2129,351.6105,203.69Z"/><path class="bf8e6cd3-afd9-4984-ac17-032e6c33ff64" d="M350.1567,208.6011c-.992,1.2372.0542,4.4241,2.4173,5.2394.4817-.6785.285-2.3375.2623-3.1613a3.2006,3.2006,0,0,0-.6557-2.2234A1.4523,1.4523,0,0,0,350.1567,208.6011Z"/><path class="e909ce62-48e9-4816-ab90-a385a115a03d" d="M352.2433,210.6479c.0428.1767.2053.4731.0827.6356a.6519.6519,0,0,1-.3392.2651.6409.6409,0,0,1-.7326-.2651,2.0433,2.0433,0,0,1-.2794-.7953.5666.5666,0,0,1,.077-.5872.2506.2506,0,0,1,.2736,0c.2737.2052.2424.6556.325.9549a.861.861,0,0,0,.2452.4789c-.1226-.0969-.2338.0313-.1483-.0228a.5081.5081,0,0,0,.1283-.12c.0912-.0855.0114-.4219.0086-.5444-.0086-.1226.3278-.1141.3591,0Z"/><path class="e909ce62-48e9-4816-ab90-a385a115a03d" d="M351.4936,209.9609c-.53-.55-.6214.4959-.5957.7725.0456.419.3877.7012.5359,1.0689.0456.1054-.18.0912-.2252.06a1.4888,1.4888,0,0,1-.744-1.87c.2194-.45,1.0519-.5815,1.3-.0912.0513.1-.22.1055-.2708.06Z"/><path class="a60ffddc-9238-460a-a80a-a361a224bc0f" d="M354.8174,198.1824a2.2475,2.2475,0,0,1,.6186.8095c.5273.6585,2.078,3.3694,2.3688,3.7884.7782,1.1317-.1169,2.0638-.9094,2.842-.248.2452-.5045.4818-.75.7269a7.3854,7.3854,0,0,0-1.8471,2.5284c-.2566.6642-.4447,2.4971-1.4053,2.5741-.0542-.9635-.4134-2.919-1.83-3.1641-.1767-.0685-.7839-.0143-1.277,1.0632,0,0-2.8592-9.3184,5.0312-11.1684"/><path class="e5692801-cde9-4fda-b7f1-eddea125c880" d="M358.087,203.225l-3.27-5.0426c1.2-1.6106,5.4673-1.26,5.4759-1.26,1.4708.1225,7.2717,2.8562,9.1274,7.1121,0,0,2.651,6.2484-3.05,10.2192.687-4.2017.6557-6.9354-.9977-9.6862a9.0208,9.0208,0,0,1-4.521-.3278,16.3816,16.3816,0,0,1-3.0471-1.4595"/><path class="e2548d0e-6eef-4352-9301-f174f88aa850" d="M360.832,211.4517c0,.3734-.7212.6784-1.6163.6784-.8893,0-1.602-.305-1.602-.6784,0-.382.7127-.687,1.602-.687C360.1108,210.7647,360.832,211.07,360.832,211.4517Z"/><path class="e2548d0e-6eef-4352-9301-f174f88aa850" d="M366.7326,211.4517c0,.3734-.5814.6784-1.3.6784-.7155,0-1.297-.305-1.297-.6784,0-.382.5815-.687,1.297-.687C366.1512,210.7647,366.7326,211.07,366.7326,211.4517Z"/><path class="b6c4a1e1-4708-4070-ab3c-bc017bbf68de" d="M365.1363,208.8377c-.3049.0228-.55.4732-.5358,1.0006.0227.5359.2907.9492.6071.9264.3193-.0171.5559-.4675.5359-1.0034C365.7235,209.2283,365.4527,208.8235,365.1363,208.8377Z"/><path class="b6c4a1e1-4708-4070-ab3c-bc017bbf68de" d="M359.6405,208.8377c-.3136.0228-.553.4675-.53,1.0006.02.5359.2908.9492.6043.9264.3164-.0256.5559-.476.533-1.0034C360.2277,209.2283,359.9569,208.8235,359.6405,208.8377Z"/><path class="e909ce62-48e9-4816-ab90-a385a115a03d" d="M362.8958,209.0059c-.2423.7183.4076,1.4737.8609,1.9327.2223.2138.5017.5416.3677.8779-.2708.6813-1.1944.9721-1.8443,1.1146-.0684.0086-.5131.0256-.4048-.16a.3108.3108,0,0,1,.53,0c-.1111-.0285-.2281-.06-.3392-.0913.7924-.1539,2.2235-.6869,1.36-1.65-.4447-.496-1.1773-1.3512-.7269-2.0467.04-.0542.2224-.0542.1967.0228Z"/><path class="a042d2ad-71bc-4013-9104-6043d48f4a16" d="M362.6307,215.317a1.9235,1.9235,0,0,0,1.4082-.6214.2337.2337,0,0,0,0-.3506.2516.2516,0,0,0-.3449,0,1.65,1.65,0,0,1-2.2092.0542.2639.2639,0,0,0-.3535.0456.2442.2442,0,0,0,.04.3506A2.4345,2.4345,0,0,0,362.6307,215.317Z"/><path class="b105705d-1d4a-46ea-ba9f-f05f4f3fc9ea" d="M357.9131,208.3788a2.5119,2.5119,0,0,1,3.5175.0541c.1568.191-.4447.2082-.533.1626a6.7428,6.7428,0,0,0-.9065-.5132,1.946,1.946,0,0,0-1.6961.4133c-.0941.0514-.5358.0286-.3819-.1168Z"/><path class="b105705d-1d4a-46ea-ba9f-f05f4f3fc9ea" d="M366.325,208.242a1.87,1.87,0,0,0-1.2428-.191,4.8371,4.8371,0,0,0-.9777.5131c-.0827.0456-.687.037-.5331-.1539a2.4309,2.4309,0,0,1,3.0957-.2965c.1682.1054-.2623.16-.3421.1283Z"/><path class="e5692801-cde9-4fda-b7f1-eddea125c880" d="M355.5785,213.5753c.7924,1.9555,1.79,4.1989.7553,6.2541-.7867,1.565-2.021,2.9105-3.8995,2.4515-1.8956-.4646-2.9189-2.2833-4.5609-3.1613-1.32-.7183-3.9109-.75-4.749-2.383-.5359-1.0233-.1226-2.6425.2509-3.6743.0342-.0912.0712-.1825.1083-.2737a9.9123,9.9123,0,0,0,1.3625-1.2143c1.5792-1.736.9265-4.2189,2.1266-6.2655.4789-.81,1.3-1.36,1.7787-2.0923a27.0072,27.0072,0,0,1,1.2571-2.3974,4.1075,4.1075,0,0,1,4.595-1.7587c2.0011.3762,2.9789.75,3.4663,2.8049a6.6488,6.6488,0,0,1-1.3426,6.3311C355.1024,210.0606,354.595,211.1524,355.5785,213.5753Z"/><path class="ad1ac0f9-2319-4f62-95ef-2b70baf6731d" d="M345.4362,247.3971a.2589.2589,0,0,0,.24-.1767c.6784-2.2064,1.1516-4.0877,1.5848-5.8066.1169-.4732.2424-.9378.3678-1.4054.2308-.8238.4647-1.6789.6356-2.5341.2566-1.2542.8438-5.5158-2.135-7.2717a.2645.2645,0,0,0-.3478.0912.251.251,0,0,0,.0913.3449c2.6994,1.5878,2.1379,5.5586,1.9013,6.7359-.1682.8409-.3963,1.6875-.6215,2.5056-.1254.4646-.2622.9463-.3791,1.4139-.4276,1.7188-.9036,3.58-1.5792,5.7808a.259.259,0,0,0,.1682.3136A.2187.2187,0,0,0,345.4362,247.3971Z"/><path class="ad1ac0f9-2319-4f62-95ef-2b70baf6731d" d="M360.3046,229.7208a8.3571,8.3571,0,0,0,2.614-.382,3.5234,3.5234,0,0,0,2.2063-1.7958.2525.2525,0,0,0-.1226-.3335.2656.2656,0,0,0-.3363.12,2.9969,2.9969,0,0,1-1.9127,1.5279,8.53,8.53,0,0,1-5.69-.2594,7.4794,7.4794,0,0,1-2.2377-1.6334.2489.2489,0,1,0-.3819.3193,7.899,7.899,0,0,0,2.3887,1.7588A8.2245,8.2245,0,0,0,360.3046,229.7208Z"/><path class="ad1ac0f9-2319-4f62-95ef-2b70baf6731d" d="M365.5269,250.8263a5.1772,5.1772,0,0,0,2.2519-.4589,2.2366,2.2366,0,0,0,1.2343-1.3968.2455.2455,0,0,0-.1653-.3136.2546.2546,0,0,0-.3136.1739,1.7747,1.7747,0,0,1-.9778,1.0918,5.6785,5.6785,0,0,1-3.9166.1,6.5748,6.5748,0,0,1-.7554-.3877,3.9318,3.9318,0,0,0-1.5678-.6356,2.1417,2.1417,0,0,0-1.3426.45,1.3232,1.3232,0,0,1-.915.3308.2475.2475,0,0,0-.2879.1966.243.243,0,0,0,.1938.2908,1.71,1.71,0,0,0,1.2714-.39,1.7227,1.7227,0,0,1,1.0347-.382,3.753,3.753,0,0,1,1.3683.5673,4.8978,4.8978,0,0,0,2.8876.7639Z"/><path class="ad1ac0f9-2319-4f62-95ef-2b70baf6731d" d="M355.5015,261.3419a.3094.3094,0,0,0,.1567-.0513.249.249,0,0,0,.0514-.3363c-.0713-.114-.14-.2452-.2081-.382-.0513-.1-.1-.191-.1482-.2822a.2493.2493,0,0,0-.3421-.0941c-.0057,0-.0171.0086-.0256.0086a6.6871,6.6871,0,0,0-2.3945-1.7559,4.0026,4.0026,0,0,0-2.2691.0313,6.57,6.57,0,0,1-1.1944.1824,2.2951,2.2951,0,0,1-1.77-.6357c-1.2285-1.2142-1.2285-3.8938-1.2285-5.4986a.258.258,0,0,0-.2565-.2509.2526.2526,0,0,0-.2481.2509c0,1.6875,0,4.4982,1.3854,5.8578a2.8694,2.8694,0,0,0,2.1208.7811,7.3152,7.3152,0,0,0,1.3-.2,3.55,3.55,0,0,1,1.9954-.0456,7.0544,7.0544,0,0,1,2.46,1.9014c.1482.1539.2936.3049.4389.45A.26.26,0,0,0,355.5015,261.3419Z"/><path class="a86e67bb-ee08-4859-b69b-23a4c50da366" d="M406.4978,263.5426c.6756-3.88,1.2086-6.2854,1.2086-6.2854l-8.4376-.4134a56.287,56.287,0,0,0-1.0034,6.6988Z"/><polygon class="a86e67bb-ee08-4859-b69b-23a4c50da366" points="437.235 228.843 432.934 225.696 423.689 225.696 418.576 228.843 437.235 228.843"/><polygon class="a86e67bb-ee08-4859-b69b-23a4c50da366" points="451.599 263.543 447.899 245.196 438.267 249.221 442.335 263.543 451.599 263.543"/><path class="a86e67bb-ee08-4859-b69b-23a4c50da366" d="M447.4516,263.5426h8.8509a75.1335,75.1335,0,0,0,6.1886-18.7965c1.6134-2.6425-3.2211-5.2792-4.0393-5.73l.2167,5.1167C456.3881,251.7813,451.1031,259.1128,447.4516,263.5426Z"/><path class="a86e67bb-ee08-4859-b69b-23a4c50da366" d="M433.3528,227.4518h-9.6634v-10.547h9.6634S432.318,225.2141,433.3528,227.4518Z"/><path class="e0de059a-ac6b-4a8f-8b1d-87e225ab4219" d="M423.6894,221.6852v-4.78h9.6634s-.2907,2.3516-.4133,4.88A11.7989,11.7989,0,0,1,423.6894,221.6852Z"/><path class="a89c1e9d-740b-4d38-abf5-e94e226f0ab7" d="M438.92,208.5327a18.2354,18.2354,0,0,1-1.9383,4.82c-1.0889,1.6277-2.8563,1.87-3.82.0228a10.7723,10.7723,0,0,1-.8637-5.835,4.29,4.29,0,0,1,1.2542-2.95,3.7249,3.7249,0,0,1,4.8345-.0228C438.23,204.408,439.3532,207.1417,438.92,208.5327Z"/><path class="a86e67bb-ee08-4859-b69b-23a4c50da366" d="M438.25,211.2208a25.945,25.945,0,0,1-.4446,5.5158c-.3507,1.8329-.7583,5.2535-2.7337,6.1714a4.2387,4.2387,0,0,1-1.8529.305,11.7054,11.7054,0,0,1-7.782-3.4976c-3.58-3.5746-4.2758-12.87-1.2684-16.7213,2.7479-3.5119,12.4226-2.5512,13.46,2.6368A32.1086,32.1086,0,0,1,438.25,211.2208Z"/><path class="a86e67bb-ee08-4859-b69b-23a4c50da366" d="M438.25,211.2208a25.945,25.945,0,0,1-.4446,5.5158c-.3507,1.8329-.7583,5.2535-2.7337,6.1714a4.2387,4.2387,0,0,1-1.8529.305,11.7054,11.7054,0,0,1-7.782-3.4976c-3.58-3.5746-4.2758-12.87-1.2684-16.7213,2.7479-3.5119,12.4226-2.5512,13.46,2.6368A32.1086,32.1086,0,0,1,438.25,211.2208Z"/><path class="e0de059a-ac6b-4a8f-8b1d-87e225ab4219" d="M424.6843,218.8289c-2.9076-4.0393-3.3009-12.26-.5159-15.8348a4.5365,4.5365,0,0,1,.5159-.5331l-.5958,7.4229.5958,2.2234Z"/><path class="b6c4a1e1-4708-4070-ab3c-bc017bbf68de" d="M436.3231,211.5429a.4665.4665,0,1,0,.9121,0,.468.468,0,1,0-.9121,0Z"/><path class="b6c4a1e1-4708-4070-ab3c-bc017bbf68de" d="M430.9954,211.7567a.4676.4676,0,1,0,.4561-.5644A.5165.5165,0,0,0,430.9954,211.7567Z"/><path class="feb5a8fc-26c3-4300-98ba-59279ce1f76a" d="M423.4158,211.312c-.439-.4048-.8124-1.5507-1.5849-1.1431-.0741.0371-.1653.0456-.2423.0827-.2994.1311-.342.419-.4447.687a6.0608,6.0608,0,0,0-.3107,1.4367c-.0057.0142-.0684.0142-.0684,0-.1226-.8637.0427-2.2463.9321-2.6511a1.7672,1.7672,0,0,1,2.2007,1.5279c0,.1825-.3991.1454-.4818.06Z"/><path class="a89c1e9d-740b-4d38-abf5-e94e226f0ab7" d="M424.4163,210.1433a19.4535,19.4535,0,0,1,.2965,2.232c-.114.4133-.5188.533-.6557.2052-.704-.6414-.6043-2.3431-1.7559-2.5113-1.26-.1768-1.505,1.67-1.4709,2.5113a8.8946,8.8946,0,0,1-1.2428-3.7029c-.0029-.6642-.0057-2.2861,0-3.4919.0228-3.6658.63-4.7975,4.7148-4.5437a3.8911,3.8911,0,0,1,3.27,1.9782c.5957,1.297-.24,2.3888-1.0861,3.3152A6.4412,6.4412,0,0,0,424.4163,210.1433Z"/><path class="a86e67bb-ee08-4859-b69b-23a4c50da366" d="M421.2237,210.1832c-1.2086,1.2143-.4447,4.7433,1.9926,5.8949.6043-.6784.5729-2.4743.6413-3.375a3.4492,3.4492,0,0,0-.4418-2.443A1.5584,1.5584,0,0,0,421.2237,210.1832Z"/><path class="e0de059a-ac6b-4a8f-8b1d-87e225ab4219" d="M423.2106,212.5976c.0142.1682.1539.5188.0256.6642a1.0392,1.0392,0,0,1-.3706.2594.6091.6091,0,0,1-.7212-.2823,2.4122,2.4122,0,0,1-.2337-.9092.7616.7616,0,0,1,.1311-.6357.257.257,0,0,1,.2708,0c.2423.2451.1711.6955.2167,1.0091a1.0916,1.0916,0,0,0,.2.5729c.0371.0456.0456.0229-.0513.0229-.0912-.0086.0228-.0371.0684-.0685.1653-.1311.1055-.4589.1112-.6328.0114-.1226.3335-.1226.3535,0Z"/><path class="e0de059a-ac6b-4a8f-8b1d-87e225ab4219" d="M422.5064,211.7709c-.3278-.419-.6527,0-.73.3221a1.8387,1.8387,0,0,0-.02.573,5.2227,5.2227,0,0,0,.4561,1.0832c.0341.0913-.1711.0913-.2195.0627a1.5917,1.5917,0,0,1-.5473-2.1094c.2765-.419,1.12-.4817,1.334.0371.0485.1083-.2252.1-.2737.0313Z"/><path class="fe399bcc-03e1-4f44-b4c2-4bb06c40e3ff" d="M437.7455,205.5454a17.9644,17.9644,0,0,1-12.9672-1.3883,24.1838,24.1838,0,0,1-3.0044-2.0865c-1.1659-.8781.8922-2.8421,1.5164-3.2925,2.97-2.1293,7.0039-1.2513,10.1395,0,1.545.6186,3.9508,1.6049,5.9348.8324a1.8454,1.8454,0,0,1-1.2,1.85,3.6122,3.6122,0,0,0,2.8192-.7725A4.2209,4.2209,0,0,1,437.7455,205.5454Z"/><path class="a839b793-a5ac-491f-83f6-84e76d709efc" d="M435.8927,216.8278a1.7823,1.7823,0,0,1-3.5632,0Z"/><path class="e0de059a-ac6b-4a8f-8b1d-87e225ab4219" d="M435.2228,211.9477c.2907.5416.49,1.1231.7468,1.6875a4.69,4.69,0,0,1,.5217,1.2286c.1026.6129-1.0377,1.1687-1.4966,1.2543-.4133.0826-.8181-.3279-.228-.4134a2.1361,2.1361,0,0,0,.8124-.5046c.5074-.41.2679-.7924.0484-1.2656a3.6481,3.6481,0,0,1-.5017-1.9783c0-.04.0913-.04.097-.0085Z"/><path class="b9937af2-8e9b-4b0e-8e69-629032a15ca3" d="M437.8624,210.4568a.2236.2236,0,0,0,.1653-.0684.24.24,0,0,0,.0086-.3421,1.9489,1.9489,0,0,0-1.4652-.5131,1.5331,1.5331,0,0,0-1.1089.4733.2392.2392,0,1,0,.3734.2992,1.0939,1.0939,0,0,1,.7583-.2907,1.4516,1.4516,0,0,1,1.0974.3677A.2294.2294,0,0,0,437.8624,210.4568Z"/><path class="b9937af2-8e9b-4b0e-8e69-629032a15ca3" d="M430.3112,210.8787a.2757.2757,0,0,0,.1768-.0769,1.7506,1.7506,0,0,1,2.2206-.2.2443.2443,0,0,0,.3278-.0826.2364.2364,0,0,0-.0912-.3278,2.2206,2.2206,0,0,0-2.8079.2822.2384.2384,0,0,0,.0087.3363A.2905.2905,0,0,0,430.3112,210.8787Z"/><path class="a97ab80e-5e36-4c9c-b9d5-fd49ab03c1a1" d="M410.443,251.65c-.1084,1.4595-.2252,2.91-.3307,4.37q-.2779,3.7671-.5787,7.5226h36.5783c-.0884-1.0148-.1711-2.0324-.2623-3.0558l5.8122-3.3152-3.7883-22.0262a7.9119,7.9119,0,0,0-3.5945-4.8146l-11.3452-4.6349s-1.9384,5.7808-9.2444,0l-12.1974,5.1167s-6.5079,2.078-7.6224,5.5927l-7.3545,20.6608,13.3263,2.4886Z"/><path class="a3e426d0-6899-4bea-9308-d71869f5f075" d="M409.7132,259.777a.2432.2432,0,0,0,.1938-.1c1.0918-1.5194,1.5735-3.7942,1.9983-5.798.1283-.5873.2451-1.1517.3734-1.6648a73.8413,73.8413,0,0,0,1.75-11.8611c.2281-2.7793.573-6.9725-1.6362-9.6862a.2371.2371,0,0,0-.3363-.037.2479.2479,0,0,0-.0343.3363c2.0838,2.5655,1.75,6.6447,1.5336,9.35a73.6216,73.6216,0,0,1-1.7416,11.7756q-.1925.7825-.3763,1.69c-.4191,1.9555-.8922,4.1761-1.9213,5.6127a.2458.2458,0,0,0,.06.3364A.2892.2892,0,0,0,409.7132,259.777Z"/><path class="a3e426d0-6899-4bea-9308-d71869f5f075" d="M444.9631,257.1346h0a.2417.2417,0,0,0,.2366-.2366v-1.46c0-1.71.0028-3.4663-.0342-5.1937-.1682-7.7677-.71-15.812-5.2963-21.3107a.2389.2389,0,1,0-.3678.305c4.4868,5.3847,5.0227,13.3292,5.1794,21.0057.04,1.7331.0371,3.4919.0371,5.1937v1.46A.2417.2417,0,0,0,444.9631,257.1346Z"/><path class="a86e67bb-ee08-4859-b69b-23a4c50da366" d="M462.3457,231.7846c1.8871.1511-.6072,4.94-.6413,5.9577.4988-1.1317,2.0495-5.5757,3.2923-5.4246.7355.16-1.1972,3.9195-1.411,4.6892.4219-.61,1.6989-3.29,2.5256-2.9789.5274.3535-.8694,2.8819-1.1659,3.7285.1739-.1539,1.4737-2.5056,1.8244-2.0552.3734.4048-.2708,2.1778-.6614,3.0329-1.7473,3.8483-3.566,8.1583-5.8037,6.3027-1.6647-1.3911-2.5484-2.2007-3.0244-8.4348-.0884-1.0747,1.6533-.16,2.2718,1.95C460.04,238.3152,462.1177,231.7619,462.3457,231.7846Z"/><path class="e0de059a-ac6b-4a8f-8b1d-87e225ab4219" d="M459.9028,239.789a1.1793,1.1793,0,0,0-.1055-.1311c-.0541-.0827.2195-.1226.2822-.0456a1.32,1.32,0,0,1,.0969.1368c-.0912-.0143-.1824-.0285-.2736-.0371a.4.4,0,0,1,.43-.0228,1.4139,1.4139,0,0,1,.1966.2908c.0912.151.2623.1681.3649.2964a2.2554,2.2554,0,0,1-.1568,2.36c-.0713.1226-.4989.1083-.4333-.0542a4.364,4.364,0,0,0,.4077-1.6191.9082.9082,0,0,0-.4077-.7241c-.1026-.0912-.3335-.3363-.1682-.4047-.0655.0228-.2337.0456-.2765-.0456-.0227-.0456-.0456-.0912-.0627-.1311-.037-.1141.2508-.1369.2822-.0456.0143.0456.0343.1.0513.1453.0314.0912-.1853.0855-.228.0314Z"/><path class="a3e426d0-6899-4bea-9308-d71869f5f075" d="M427.7571,230.3565a5.4224,5.4224,0,0,1-1.8585-.6214c-.114-.0513-.2537-.1055-.399-.1653a3.3785,3.3785,0,0,1-.4077-.1767,2.2537,2.2537,0,0,1-.9036-.6272c-.0485-.0228-.0941-.0456-.1425-.0684a2.2562,2.2562,0,0,1-.7269-.4418c-.2765-.2765-.4276-.4676-.4276-.6414a.2512.2512,0,0,1,.2337-.2623.2227.2227,0,0,1,.2366.2224,1.371,1.371,0,0,0,.2993.3363,1.8718,1.8718,0,0,0,.5787.3507c.0684.0313.1368.0627.1966.0912a.6049.6049,0,0,1,.0628.0484,2.128,2.128,0,0,0,.7725.5559c.12.0541.2623.1083.4048.1682a4.3861,4.3861,0,0,1,.4589.191,4.9657,4.9657,0,0,0,1.7246.573,3.2414,3.2414,0,0,0,.9891.0227c.1768-.0142.3563-.0227.5131-.0227a4.9322,4.9322,0,0,0,1.8586-.4733,2.7986,2.7986,0,0,0,.7867-.4418,3.8966,3.8966,0,0,1,.6044-.382,2.0254,2.0254,0,0,0,.8409-.7126.6954.6954,0,0,1,.1738-.3193.3838.3838,0,0,1,.2509-.1311.2483.2483,0,0,1,.3307.0086.2308.2308,0,0,1,0,.3363.39.39,0,0,1-.2509.1368c-.0171.0229-.0342.0542-.04.0542a.2353.2353,0,0,1-.04.1368,2.4959,2.4959,0,0,1-1.0519.9179,4.5366,4.5366,0,0,0-.5415.3506,2.9645,2.9645,0,0,1-.918.496,5.1613,5.1613,0,0,1-2.0039.496c-.1482,0-.3107.0171-.4789.0314-.1909.0085-.3877.0228-.5758.0228A2.2012,2.2012,0,0,1,427.7571,230.3565Zm6.1-2.9047.1825.1625-.1682-.1682C433.8687,227.4461,433.8573,227.4461,433.8573,227.4518Z"/><rect class="a4044298-362d-4ce8-9568-b9d40efb4cd2" x="226.8905" y="108.0225" width="88.7575" height="155.2464"/><rect class="af32108d-2374-4b50-9b11-1608d84966be" x="226.8905" y="108.0225" width="88.7575" height="12.3058"/><path class="e8d344bf-7e06-4baf-a1cf-f78668d36287" d="M303.516,114.18a4.9857,4.9857,0,1,0,4.9828-4.9885A4.9818,4.9818,0,0,0,303.516,114.18Z"/><path class="a839b793-a5ac-491f-83f6-84e76d709efc" d="M229.2165,111.597a.9136.9136,0,1,0,.9151-.9093A.9167.9167,0,0,0,229.2165,111.597Z"/><path class="a839b793-a5ac-491f-83f6-84e76d709efc" d="M229.2165,114.18a.9136.9136,0,1,0,.9151-.9179A.9149.9149,0,0,0,229.2165,114.18Z"/><path class="a839b793-a5ac-491f-83f6-84e76d709efc" d="M229.2165,116.7451a.9136.9136,0,1,0,.9151-.9093A.9113.9113,0,0,0,229.2165,116.7451Z"/><path class="a839b793-a5ac-491f-83f6-84e76d709efc" d="M241.4511,124.1h58.75a3.525,3.525,0,0,1,3.529,3.5233v6.4393a3.5263,3.5263,0,0,1-3.529,3.5291h-58.75a3.5233,3.5233,0,0,1-3.5318-3.5291v-4.9656a.0267.0267,0,0,0-.02.0086s.0855-3.4235-2.3431-4.1789a.9717.9717,0,0,1-.6728-.8267Z"/><path class="e8d35280-62a1-44d7-a8e8-1b804d4eb632" d="M303.3279,140.47H244.5838a3.5243,3.5243,0,0,0-3.5289,3.529v6.4451a3.5261,3.5261,0,0,0,3.5289,3.5289h58.7441a3.5316,3.5316,0,0,0,3.529-3.5289v-4.9714a.0272.0272,0,0,1,.02.0057s-.08-3.4206,2.34-4.1761a.9893.9893,0,0,0,.6756-.8323Z"/><path class="a839b793-a5ac-491f-83f6-84e76d709efc" d="M241.4511,158.93h58.75a3.5316,3.5316,0,0,1,3.529,3.5289v6.4394a3.5317,3.5317,0,0,1-3.529,3.529h-58.75a3.5287,3.5287,0,0,1-3.5318-3.529v-4.9714l-.0114.0057s.0769-3.4206-2.3517-4.17a.9832.9832,0,0,1-.6728-.8323Z"/><path class="e8d35280-62a1-44d7-a8e8-1b804d4eb632" d="M303.3279,175.3068H244.5838a3.5206,3.5206,0,0,0-3.5289,3.5289v6.4394a3.5262,3.5262,0,0,0,3.5289,3.529h58.7441a3.5316,3.5316,0,0,0,3.529-3.529v-4.9657a.0212.0212,0,0,1,.02.0086s-.08-3.4235,2.34-4.1789a.9893.9893,0,0,0,.6756-.8323Z"/><path class="a839b793-a5ac-491f-83f6-84e76d709efc" d="M241.4511,194.012h58.75a3.5317,3.5317,0,0,1,3.529,3.529v6.448a3.5317,3.5317,0,0,1-3.529,3.5289h-58.75a3.5286,3.5286,0,0,1-3.5318-3.5289v-4.9742a.0125.0125,0,0,1-.0114.0085s.0769-3.415-2.3517-4.17a1.0007,1.0007,0,0,1-.6728-.8409Z"/><path class="e8d35280-62a1-44d7-a8e8-1b804d4eb632" d="M303.3279,210.397H244.5838a3.5189,3.5189,0,0,0-3.5289,3.52v6.448a3.5207,3.5207,0,0,0,3.5289,3.5289h58.7441a3.5261,3.5261,0,0,0,3.529-3.5289v-4.9742a.0214.0214,0,0,0,.02.0085s-.08-3.415,2.34-4.17a.9893.9893,0,0,0,.6756-.8323Z"/><path class="a839b793-a5ac-491f-83f6-84e76d709efc" d="M241.4511,229.1022h58.75a3.5335,3.5335,0,0,1,3.529,3.5376v6.4394a3.5244,3.5244,0,0,1-3.529,3.52h-58.75a3.5213,3.5213,0,0,1-3.5318-3.52V234.105a.0269.0269,0,0,0-.02.0085s.0855-3.4235-2.3431-4.17a1.0059,1.0059,0,0,1-.6728-.841Z"/><path class="e8d35280-62a1-44d7-a8e8-1b804d4eb632" d="M303.3279,245.4872H244.5838a3.5189,3.5189,0,0,0-3.5289,3.52v6.4393a3.5256,3.5256,0,0,0,3.5289,3.5347h58.7441a3.531,3.531,0,0,0,3.529-3.5347v-4.9656c.0086,0,.0114.0085.02.0085,0,0-.08-3.415,2.34-4.17a.99.99,0,0,0,.6756-.8324Z"/><path class="afa20506-12a0-41b8-83f7-964d9de675b2" d="M444.9545,304.8869h-9.6434s-6.237,1.2913-6.1914,7.5711h80.5166s-.5444-7.9274-8.1041-7.5711Z"/><path class="a8974523-2899-474a-8681-b3e1fd19b764" d="M508.0685,304.8869h-9.6462s-6.2285,1.2913-6.1857,7.5711H549.45s-.5387-7.9274-8.1012-7.5711Z"/><rect class="ba94a2dd-8390-4740-9c2b-0e39841a725b" x="643.2614" y="335.4334" width="21.6585" height="321.2994"/><rect class="ba94a2dd-8390-4740-9c2b-0e39841a725b" x="843.6577" y="335.4334" width="21.6585" height="321.2994"/><rect class="a86c3778-a8a1-4c64-865a-cabaac7eea94" x="136.1661" y="312.4665" width="729.1501" height="22.9669"/><rect class="ba94a2dd-8390-4740-9c2b-0e39841a725b" x="134.6781" y="335.4334" width="21.6613" height="321.2994"/><rect class="ba94a2dd-8390-4740-9c2b-0e39841a725b" x="302.5839" y="335.4334" width="21.6585" height="321.2994"/><rect class="b15019d5-0639-4ac5-9f0c-e2e04b5fa6b9" x="134.6781" y="312.4665" width="189.5643" height="22.9669"/><polygon class="abf9f6c8-e91f-4d76-af48-335939160148" points="518.08 573.819 502.319 578.471 489.061 550.53 511.632 543.007 518.08 573.819"/><path class="b8bc78bc-3de3-4185-8c4f-51f5e917fcea" d="M517.3043,565.9914l10.8862,22.6475-80.5394,25.8232c-1.93-9.5322,4.5752-13.8794,4.5752-13.8794l23.2205-13.8707,16.2225-14.954s.687-4.2388,2.7109-4.92c0,0,11.02.9864,7.8761,5.47C502.2563,572.3081,513.6755,568.7165,517.3043,565.9914Z"/><polygon class="e2363b71-89f5-4948-a2dc-dbf6a1dc297b" points="529.633 592.082 448.823 618.122 447.651 614.462 527.937 588.057 529.633 592.082"/><polygon class="abf9f6c8-e91f-4d76-af48-335939160148" points="592.376 528.51 586.39 543.817 556.189 537.164 564.085 514.724 592.376 528.51"/><path class="b8bc78bc-3de3-4185-8c4f-51f5e917fcea" d="M585.7174,524.3334l24.56,5.2764-28.97,79.459c-8.72-4.3214-8.1611-12.12-8.1611-12.12l3.281-26.8493-1.8728-21.9806s-2.9218-3.147-2.2235-5.1651c0,0,7.5369-8.1042,9.156-2.8649C581.4872,540.0884,585.6461,528.8687,585.7174,524.3334Z"/><polygon class="e2363b71-89f5-4948-a2dc-dbf6a1dc297b" points="613.895 530.588 584.916 610.391 581.308 609.069 609.665 529.459 613.895 530.588"/><path class="f9efe62e-9329-487d-8d47-1fb5f80f3a46" d="M475.6635,418.33c14.3268,17.1945,16.479,21.4931,34.389,35.8229,0,0,46.8117,35.877,70.0608,65.3517,0,0-3.64,16.8181-13.3691,26.7723-34.8394-12.9928-78.5954-40.5063-88.9342-49.8533-30.0848-27.2226-40.837-35.1073-55.161-52.3075,0,0-20.0622-27.9325-7.1663-55.1638,10.5185-22.2628,35.5663-26.5557,57.3644-33.4,11.2882-3.5433,22.5821-7.1435,33.7819-11.006A445.7347,445.7347,0,0,0,554.5923,325.22c15.9117-7.6537,38.6962-8.5545,53.2425,2.6595,19.23,14.8172,25.1133,47.4161,1.5593,61.2725-14.9455,8.7911-36.1222,8.4491-52.8178,11.26-19.9567,3.3665-39.8308,7.2546-59.7475,10.8463-10.8948,1.9612-11.6132.9008-21.1653,7.0722"/><path class="bf8e6cd3-afd9-4984-ac17-032e6c33ff64" d="M559.0905,109.55s10.0253,8.241,11.8212,19.7058L569.84,146.81h36.1763L596.3471,109.55Z"/><path class="e909ce62-48e9-4816-ab90-a385a115a03d" d="M596.3471,109.55l1.8585,7.172c-7.38,2.0153-13.3206,3.1327-20.0421,6.0888-4.9885,2.192-6.2028,13.0212-7.9616,18.0867l.71-11.6417c-1.7959-11.4648-11.8212-19.7058-11.8212-19.7058Z"/><path class="bf8e6cd3-afd9-4984-ac17-032e6c33ff64" d="M553.8939,114.744s-3.224-.1767-4.1162-2.8648c-6.599-13.1895-4.9457-16.8582-4.1219-23.9987,1.6106-13.9763,5.9662-24.7856,8.6-33.8531,4.8346-16.6587,8.3179-16.8781,19.98-19.7145,0,0,14.6832-3.5888,25.9828,5.5472,15.6523,12.6479,11.3479,37.6472,8.4233,55.3691-1.81,10.929-6.9211,12.893-18.6511,17.1688C589.99,112.398,570.9117,119.9377,553.8939,114.744Z"/><path class="e909ce62-48e9-4816-ab90-a385a115a03d" d="M578.4884,110.796c.0114-.0228.0228-.04.0314-.0542,1.69-3.27.2594-7.6451-.4732-10.9917-.5559-2.5113-.8894-5.2934.4732-7.6309,2.3147-3.9793,7.8447-8.4917,12.6906-7.2318,4.8146,1.2429,8.0956,6.3453,9.6035,10.7693a21.52,21.52,0,0,1,1.4139,7.363,29.3074,29.3074,0,0,1-.573,4.2759c-2.8591,1.8642-6.6532,3.278-11.6644,5.1024a70.4774,70.4774,0,0,1-19.8,4.0792C573.004,114.8808,576.8607,113.8575,578.4884,110.796Z"/><path class="abf9f6c8-e91f-4d76-af48-335939160148" d="M415.5483,300.8563l-24.4491-2.3917-27.6276,8.6771s-5.37,2.4885-2.4857,5.2393l49.6708.0912S418.7722,310.9158,415.5483,300.8563Z"/><path class="abf9f6c8-e91f-4d76-af48-335939160148" d="M522.3612,289.246c20.7747-38.146,33.85-72.5322,40.29-105.6214-5.1909-5.607-32.8127-17.9641-42.0855,2.2776-9.96,24.25-16.12,48.7159-21.1339,80.2372,0,0-9.4867,13.62-83.8831,34.7169l-2.9789,8.9963S503.73,308.7751,522.3612,289.246Z"/><path class="abf9f6c8-e91f-4d76-af48-335939160148" d="M524.767,219.761c41.9857-11.1371,75.95-25.2815,104.4041-43.3539.5046-7.6224-9.5151-36.182-30.5863-28.9958-24.4606,9.4353-46.4582,21.7839-72.803,39.8193,0,0-13.6826.1283-80.1546-39.3917l-8.58,4.0193S497.7809,219.6612,524.767,219.761Z"/><path class="abf9f6c8-e91f-4d76-af48-335939160148" d="M414.8214,112.7572c-5.5671,4.11,11.368,14.2242,13.3947,17.3085-3.7057-2.5655-17.0206-13.3976-20.6037-10.5328-1.9584,1.8956,11.22,9.8686,13.3747,11.8612-2.4914-1.0918-11.5874-6.981-13.5658-4.4355-.9634,2.1151,8.2325,7.2946,10.7552,9.3413-.8267-.1084-9.3584-4.9571-9.6006-2.882-.3821,1.9812,5.0084,6.2427,7.85,8.1526,12.8132,8.6229,26.7181,18.5372,30.1046,8.4861,2.5284-7.5026,3.72-11.71-6.7245-31.9974-1.7958-3.4919-5.4417,2.6738-3.3294,10.4017C434.49,128.6832,415.4827,112.27,414.8214,112.7572Z"/><path class="e909ce62-48e9-4816-ab90-a385a115a03d" d="M436.7905,133.23c-.0541-.1853-.1111-.3763-.1681-.5672-.1654-.5559,1.2913-.6329,1.42-.191a4.9061,4.9061,0,0,1,.1539.6813c.0456.265-.459.3734-.6157.3962.43-.0684.2166,1.6647.18,1.8186a3.5248,3.5248,0,0,0,.1225,3.1071c.8922,1.8813,2.7651,2.95,4.3271,4.1789.821.6414-1.3482.8951-1.7844.6728-2.0552-1.0633-4.6749-3.301-5.1538-5.684-.2964-1.4738.4846-2.4515.5473-3.88.04-.9236.764-.992,1.5365-1.0234-.2737.1368-.5616.2822-.8438.4134.0228-.2.0456-.3906.0827-.5816.12-.533,1.5706-.4418,1.4765,0-.0427.191-.0826.3905-.1282.5816-.0741.3591-1.0462.4332-1.1517.0769Z"/><path class="f4b1ca1d-482b-4463-9c8d-668e7356d8fd" d="M596.7433,142.4941s18.6255-7.172,31.5243,12.893c0,0,15.0451,25.7946-13.6114,38.6933L557.34,223.45s-21.496-24.3579-25.0734-51.5863Z"/><path class="f9efe62e-9329-487d-8d47-1fb5f80f3a46" d="M502.1422,399.5393c-9.7033.4277-20.96.536-21.77,10.128,0,0,25.8858,84.9834,36.0936,149.2889,0,0-7.1606,5.73-27.2228,9.31-35.8228-53.0145-63.9406-158.881-63.9406-158.881-7.8845-36.5326,24.1784-51.2215,24.1784-51.2215l96.8958-31.1707c26.51,14.3383,96.7219,15.7664,96.7219,15.7664,5.1823,10.51,3.6715,27.9154,0,38.6563-4.1988,12.3115-12.3885,18.0639-25.0762,18.66Z"/><path class="fb9adcba-6e5b-4711-a8e5-b7e50d715c47" d="M548.1529,231.035c-3.2753,25.35-15.3815,102.4115-15.3815,102.4115,48.8954,45.6773,130.575,13.4376,130.575,13.4376,6.2626-62.8718-5.3648-161.6774-5.3762-161.7458-3.3608-17.4625-17.9014-41.4613-36.3644-45.8539-14.6575-3.4805-40.1414-1.565-60.56-2.6425-7.56-.3962-14.9511,14.5834-15.7607,19.8826-1.562,10.1736,4.5951,23.54,3.5832,33.6706C545.4421,224.49,550,216.728,548.1529,231.035Z"/><path class="fb9adcba-6e5b-4711-a8e5-b7e50d715c47" d="M537.7826,275.0531c-40.8341-9.669-45.1384-33.8531-45.1384-33.8531,10.7494-30.6263,35.0845-78.2219,35.0845-78.2276,7.5283-15.5839,15.0481-22.029,31.7066-25.7946,0,0,24.0188,7.7592,15.96,47.2878C575.3956,184.4656,558.4662,249.535,537.7826,275.0531Z"/><path class="b9db352e-ecf0-4d44-8c0f-8c3bffe48dfc" d="M611.9624,38.9593c16.4876,11.4478,20.9857,19.9568,17.699,37.6387-1.3682,7.3573-5.94,15.1706-10.088,21.6556-3.7143,5.8123-10.9832,14.29-17.1917,17.1945-5.3733,2.5028-10.7893,5.8863-16.3935-4.3015-6.9809-12.7163-7.1064-13.084-4.8345-19.3466,3.586-9.8544,2.1522-4.8346,3.5517-10.1908.8325-3.1926-2.1521-10.7465-9.3184-8.2409-1.679.5958-4.1162,4.8431-5.0113,8.9593-.2365,1.069-4.0021-2.3061-5.2164-2.46,2.5113-8.6,5.37-15.4043,1.63-20.82-4.8916-7.0894-21.4533-11.4877-20.3814-21.1653,0,0-1.0719-4.2929,7.5226-15.3987,0,0-.3592,4.6521,5.0141,6.0859,0,0-1.79-11.1057,14.33-14.3269,0,0-7.8789,6.8044,1.793,11.8242A292.063,292.063,0,0,1,611.9624,38.9593Z"/><path class="bf8e6cd3-afd9-4984-ac17-032e6c33ff64" d="M570.7292,80.1726c0,4.7062,2.5057,12.5195,7.2005,12.5195,4.6977,0,9.823-7.8133,9.823-12.5195a8.5118,8.5118,0,0,0-17.0235,0Z"/><path class="bf8e6cd3-afd9-4984-ac17-032e6c33ff64" d="M551.565,62.2711c-2.95,9.0876-7.9673,8.9508-9.6719,11.502-2.1464,3.2239,2.6083,5.1395,5.5529,11.71,4.6236-8.3635,11.4734-12.5338,8.6029-22.7616Z"/><path class="fad17871-f550-42bf-9a8f-38b5a0b38a81" d="M450.8893,489.6794a1.2756,1.2756,0,0,0,.3678-.0628,1.0831,1.0831,0,0,0,.65-1.3739c-4.5466-12.5795-7.6965-22.22-10.7437-31.5471-1.6134-4.94-3.17-9.706-4.8516-14.6489-4.8915-14.3668-10.9718-32.24-10.1423-49.038.8124-16.459,10.6667-28.9017,27.02-34.1352a1.0776,1.0776,0,0,0,.6983-1.3512,1.0916,1.0916,0,0,0-1.3569-.6955c-17.2486,5.5243-27.65,18.6682-28.5083,36.0765-.8522,17.2087,5.3078,35.2955,10.2535,49.8389,1.6818,4.9258,3.2325,9.6919,4.843,14.6262,3.0558,9.3412,6.2086,18.9961,10.7608,31.5983A1.0774,1.0774,0,0,0,450.8893,489.6794Z"/><path class="fad17871-f550-42bf-9a8f-38b5a0b38a81" d="M510.5314,531.5881a.9245.9245,0,0,0,.1539-.0086,1.069,1.069,0,0,0,.9122-1.2057c-1.3654-9.9143-3.7656-23.2576-6.5763-36.6182-2.0238-9.6319-4.9428-19.27-7.7591-28.58-1.91-6.3111-3.8853-12.8246-5.57-19.2953-5.1281-19.7144-12.2915-39.2834-19.1642-52.3532a1.075,1.075,0,0,0-1.9014,1.0034c6.7986,12.9216,13.8936,32.3224,18.9847,51.8914,1.699,6.5078,3.6772,13.0469,5.5871,19.3723,2.8078,9.2728,5.7125,18.865,7.7221,28.4057,2.7964,13.3121,5.188,26.6042,6.5506,36.4642A1.0711,1.0711,0,0,0,510.5314,531.5881Z"/><path class="fad17871-f550-42bf-9a8f-38b5a0b38a81" d="M479.64,412.0361a1.0491,1.0491,0,0,0,.3278-.06,1.0722,1.0722,0,0,0,.6955-1.354,3.222,3.222,0,0,1,.3592-2.9618c3.4149-5.12,20.3757-6.4793,26.761-6.99.9492-.077,1.7445-.1368,2.32-.2,10.1365-1.0091,25.3528-.7184,38.79-.4589,5.37.1,10.3874.2,14.5749.2a1.0775,1.0775,0,0,0,0-2.155c-4.17,0-9.1787-.0912-14.5321-.191-13.4917-.2594-28.7763-.5559-39.0411.4675-.5786.06-1.354.1225-2.2861.2-12.0607.9606-24.86,2.6567-28.3772,7.9359a5.329,5.329,0,0,0-.6158,4.8175A1.075,1.075,0,0,0,479.64,412.0361Z"/><path class="fad17871-f550-42bf-9a8f-38b5a0b38a81" d="M479.1126,411.4176a1.0293,1.0293,0,0,0,.305-.0456,1.0688,1.0688,0,0,0,.7725-1.0547c-.1-5.7752,2.3973-13.3121,7.2091-15.8718a1.0776,1.0776,0,0,0-1.0148-1.9014c-5.7211,3.0615-8.0129,10.9147-8.3093,16.308a1.0844,1.0844,0,0,0-.2338,1.1829,4.0379,4.0379,0,0,0,.3591.8694A1.0879,1.0879,0,0,0,479.1126,411.4176Z"/><rect class="a3eb7858-0536-4bb9-aa13-41caa306ef49" x="598.7416" y="461.2651" width="36.3587" height="34.2778" rx="4.5794"/><path class="a86c3778-a8a1-4c64-865a-cabaac7eea94" d="M719.2171,420.4766c0,11.4962-8.1839,20.82-18.2692,20.82H554.9971c-10.0881,0-18.2749-9.3242-18.2749-20.82h0c0-11.5019,8.1868-20.8289,18.2749-20.8289H700.9479c10.0853,0,18.2692,9.327,18.2692,20.8289Z"/><path class="b15019d5-0639-4ac5-9f0c-e2e04b5fa6b9" d="M501.7631,441.297h67.8288c10.0852,0,18.272-9.3242,18.272-20.82,0-11.5019-8.1868-20.8289-18.272-20.8289H501.7631s-24.11-.5588-22.6818,23.7992C479.0813,423.4469,480.0248,441.297,501.7631,441.297Z"/><rect class="a6d7e63a-2dcd-4b8f-a391-ea791796ce62" x="606.5863" y="495.5429" width="20.6751" height="75.5196"/><rect class="f52277b9-3bcf-46cf-965a-8d2685fd312c" x="618.4018" y="495.5429" width="8.8596" height="75.5196"/><rect class="a3eb7858-0536-4bb9-aa13-41caa306ef49" x="598.7416" y="571.0625" width="36.3587" height="44.172" rx="5.3538"/><path class="a3eb7858-0536-4bb9-aa13-41caa306ef49" d="M511.6664,630.1372h.7458a3.9257,3.9257,0,0,0,3.9257-3.9257V613.2254a3.9257,3.9257,0,0,1,3.9257-3.9257h193.32a3.9257,3.9257,0,0,1,3.9257,3.9257v12.9861a3.9257,3.9257,0,0,0,3.9257,3.9257h.743a3.9257,3.9257,0,0,0,3.9257-3.9257V604.631a3.9257,3.9257,0,0,0-3.9257-3.9257H511.6664a3.9257,3.9257,0,0,0-3.9257,3.9257v21.5805A3.9257,3.9257,0,0,0,511.6664,630.1372Z"/><rect class="a3eb7858-0536-4bb9-aa13-41caa306ef49" x="662.055" y="604.8016" width="8.5973" height="25.3356"/><rect class="a3eb7858-0536-4bb9-aa13-41caa306ef49" x="556.6846" y="605.6567" width="8.5973" height="25.3272"/><path class="f5866800-1d13-41dd-a7a3-71531c0dbb1b" d="M705.7454,639.6068a16.4078,16.4078,0,1,0,16.4106-16.3993A16.4082,16.4082,0,0,0,705.7454,639.6068Z"/><path class="eadef466-c085-4c45-a7ec-c60d590bb196" d="M713.9521,639.6068a8.2011,8.2011,0,1,0,8.2039-8.2039A8.2,8.2,0,0,0,713.9521,639.6068Z"/><path class="f5866800-1d13-41dd-a7a3-71531c0dbb1b" d="M649.9488,639.6068a16.4021,16.4021,0,1,0,16.4021-16.3993A16.399,16.399,0,0,0,649.9488,639.6068Z"/><path class="eadef466-c085-4c45-a7ec-c60d590bb196" d="M658.1441,639.6068a8.2053,8.2053,0,1,0,8.2068-8.2039A8.208,8.208,0,0,0,658.1441,639.6068Z"/><path class="f5866800-1d13-41dd-a7a3-71531c0dbb1b" d="M544.5783,639.6068a16.4078,16.4078,0,1,0,16.4077-16.3993A16.4,16.4,0,0,0,544.5783,639.6068Z"/><path class="eadef466-c085-4c45-a7ec-c60d590bb196" d="M552.7793,639.6068a8.2053,8.2053,0,1,0,8.2067-8.2039A8.2062,8.2062,0,0,0,552.7793,639.6068Z"/><path class="f5866800-1d13-41dd-a7a3-71531c0dbb1b" d="M495.6345,639.6068a16.4063,16.4063,0,1,0,16.41-16.3993A16.4026,16.4026,0,0,0,495.6345,639.6068Z"/><path class="eadef466-c085-4c45-a7ec-c60d590bb196" d="M503.8383,639.6068a8.2025,8.2025,0,1,0,8.2067-8.2039A8.2025,8.2025,0,0,0,503.8383,639.6068Z"/><path class="a86c3778-a8a1-4c64-865a-cabaac7eea94" d="M552.6824,433.37a7.9239,7.9239,0,0,0,7.93,7.9274h143.93a7.9246,7.9246,0,0,0,7.9245-7.9274l37.402-256.78a7.927,7.927,0,0,0-7.9359-7.9274H598.0147a7.9259,7.9259,0,0,0-7.93,7.9274Z"/><path class="a86c3778-a8a1-4c64-865a-cabaac7eea94" d="M561.2854,433.37a7.9191,7.9191,0,0,0,7.9245,7.9274H713.134a7.9264,7.9264,0,0,0,7.9331-7.9274l37.3963-256.78a7.9259,7.9259,0,0,0-7.93-7.9274H606.6119a7.9234,7.9234,0,0,0-7.9273,7.9274Z"/><path class="a445b9ab-e6ed-41e1-8a86-7efcb5fbc72f" d="M550.1025,461.2794H692.62a4.745,4.745,0,0,0,4.548-3.3925l3.1244-10.5069a4.7448,4.7448,0,0,0-4.548-6.0973H546.9811a4.7448,4.7448,0,0,0-4.5483,6.0961l3.1213,10.5069A4.745,4.745,0,0,0,550.1025,461.2794Z"/><path class="af3dfa9a-d920-479e-82e0-e56b9db82171" d="M607.9967,441.2827h87.6455a4.2766,4.2766,0,0,1,4.0992,5.4955l-3.4029,11.4435a4.2767,4.2767,0,0,1-4.0992,3.0577H611a4.2766,4.2766,0,0,1-4.1365-3.191L603.86,446.6448A4.2766,4.2766,0,0,1,607.9967,441.2827Z"/></svg>