<svg id="b01ced5c-62cd-423e-8e07-7003d185ceb8" data-name="Capa 1" xmlns="http://www.w3.org/2000/svg" viewBox="0 0 1000 740"><defs><style>.ab0ebab4-046b-46f6-9d80-8a677703ecfa{fill:#fbd7cc;}.afbb5d51-cba5-45ed-a19d-85a9c25d1a2b{fill:#09282f;}.ba082b2f-f643-4a44-88f8-b90cf77063d2{fill:#001b21;}.afebf30d-3692-472e-a487-48eede480b7f{fill:#c6e7f0;}.fd1cee44-0e0c-4a57-bf31-ec22a13e9044{fill:#bd8c7a;}.a801cf2a-1376-4db6-b5ee-1d9a6c1da93e{fill:#80c4d1;}.bafb1fed-55d2-4e37-b8f8-107c539b5fc8{fill:#d69175;}.b321fd63-b64d-4d8e-a8b8-c82e695e1861{fill:#e9a580;}.a2878a05-e72c-4893-9e13-1bddaba9733b{fill:#da9476;}.bdcbce94-3c67-49c6-b51f-c8856b19c48b{fill:#ececec;}.baf2b0c6-3b6e-4223-8a1b-72975b4544e4{fill:#9a655e;}.ffbaea9e-9002-4fa5-88d1-201647d1a6bb{fill:#00161d;}.b77bf46b-ac29-47ff-9eaa-6fa4c5a683d2{fill:#00b8ac;}.f7a8303f-f87d-4d40-ae01-e1c6b8ab7dec{fill:#001820;}.eed781ec-38eb-4ad7-90e9-474cd814f71f{fill:#0e2d35;}.ec9e5971-ba35-4365-8252-480049aa26a5{fill:#00070c;}.b7ee3472-f16d-4e2d-be39-7ac8da1a5146{fill:#266ba2;}.f49877fc-52c6-4ef9-b525-0332a5fb33bf{fill:#242a6d;}.a6005289-bcff-4c96-9833-96f89fcdda46{fill:#63371a;}.a1ec3a45-0775-4481-8b5c-2f803ba58260{fill:#f6afa0;}.ba49f232-9c21-4f4f-ab41-d586eb7362b7{fill:#f3978d;}.a78ee14d-31e8-4722-b45a-185856dd4677{fill:#f6b0a3;}.e0c82f4c-a339-41f6-8312-ddac11e84fcf{fill:#12c8c8;}.a1eeb8da-8034-4a86-a982-9d7dfe827dc6{fill:#268ea7;}.a6c121e9-0913-40bc-938f-b77acfbd7ae1{fill:#f18a7c;}.ad8eadbd-16a4-4617-b7e8-ccfbcc876cec{fill:#f29694;}.b8cbb1f1-7cfe-4937-b826-0e9c27b2b986{fill:#7f432e;}.ebe4d7b0-fa2a-4fb8-932b-b66e3354645d{fill:#ed6d6e;}.ff62248d-7355-479c-bc77-5ae8f7a8ae53{fill:#fff;}.bbe4dc2e-ffb4-4b22-bef5-a8781f3336c5{fill:#aac01f;}.a20075cc-c3dc-4124-87b2-ae0e1737d298{fill:#e6455d;}.eda82eac-7942-4c17-872c-fbcf2de12a80{fill:#fdefe5;}.a03057cf-e561-4f82-b260-7559a2c1e571{fill:#f49d83;}.b8e91e2b-9301-424a-bf09-f257274d88be{fill:#6cd2e9;}.b38a30d2-919a-4792-af3f-ca6d9403f27e{fill:#f5a78c;}.e98f9d7a-0564-4b01-b012-3afe0c22afe3{fill:#f08065;}.a5dc49e0-f172-4d07-941c-20bfef0568d4{fill:#481d0e;}.a9223637-a5b0-48f6-853c-6afaa5cbf6df{fill:#f39380;}.f1cfc101-f090-4950-945d-e920b2a928ff{fill:#3f1808;}.fdab8e56-4786-45ed-b3b6-01163abc922b{fill:#632c1d;}.be354f96-e6ed-44d5-a577-c3672fdfdbb8{fill:#39bfdb;}.ada18d16-5fb4-427a-bfab-6a91906b0a36{fill:#fffffb;}.b16337f7-ff34-44cf-84b1-632bfdc60023{fill:#e74a33;}.b28ba182-7843-43ba-a834-7a1d1e4819c3{fill:#202155;}.b41d7c4a-0ea7-4f43-81d0-e0a230d489b5{fill:#bf624a;}.f21f1880-dc55-4313-89c1-c28f61d3fd28{fill:#ae493f;}.b733d953-7fa9-445a-ba1d-dd126bde7e3f{fill:#151138;}.a09d3155-e2e7-477d-97be-52a83788b8c6{fill:#64cfd9;}.a1fdd4da-ec62-45f8-a1fb-a5be2639dff5{fill:#03597f;}.e404c36c-9df8-48ff-9431-8679c2445cee{fill:#02648c;}.bbd2cc88-d8c8-494c-bd82-1a057dcce91a{fill:#c04739;}.a4fc2d53-07ff-4c3b-854d-13f69a8f8446{fill:#585b80;}.b1e580b1-3955-4996-983a-b28b9538c32c{fill:#45476f;}.f834ebcb-d163-4796-998a-74ae2f1e48bf{fill:#f5a795;}.bc00a848-5237-4e62-aaec-eb33264c737e{fill:#006b80;}.e97f2e71-41f6-4d29-b317-6c81fe074823{fill:#00586a;}.a618a4b7-ca47-4b5a-b7e0-5b77f041e7ac{fill:#57d4eb;}.b0cbc70c-9969-4cde-8b6c-c8a8dc730ac6{fill:#ba5f9c;}.bd3728d1-95bb-401e-9bc3-bb63726e12d9{fill:#833a2f;}.a847602f-e615-4762-b3c4-ed4a979a23d7{fill:#00778e;}.bd26886f-db9b-4854-a6bc-765e33fb2cc7{fill:#00b2c4;}.bf4f74f2-b2ad-4e0b-a525-297c87bc6c71{fill:#9d5388;}.ef9bac48-0ca1-4fb1-b859-f716d747ff87{fill:#042731;}.e1dc88f3-04e7-42e3-8760-f9e7ef7170d2{fill:#262944;}.ad51c6ad-e3b4-4ec4-993c-b4a56f475936{fill:#22253d;}.e2cd8bab-2438-4c42-a1ef-eced362be5e9{fill:#303657;}.b996c8d5-f209-45e3-b09c-4b4a167b9ec0{fill:#9fcad5;}.a421fe53-5409-498d-a494-045ba74a554c{fill:#232f39;}.abdab930-21aa-452b-a168-3936770a7cb0{fill:#100f23;}.a1e3aecd-118d-4e1a-a683-10535df2e06f{fill:#0c4453;}</style></defs><ellipse class="ab0ebab4-046b-46f6-9d80-8a677703ecfa" cx="502.0935" cy="653.3756" rx="489.9307" ry="74.8268"/><path class="afbb5d51-cba5-45ed-a19d-85a9c25d1a2b" d="M445.9585,297.7887h-9.5022s-6.14,1.2731-6.1034,7.4668h79.3352s-.5364-7.8141-7.9807-7.4668Z"/><path class="ba082b2f-f643-4a44-88f8-b90cf77063d2" d="M508.1439,297.7887H498.653s-6.1515,1.2731-6.1063,7.4668h56.37s-.5363-7.8141-7.9806-7.4668Z"/><polygon class="afebf30d-3692-472e-a487-48eede480b7f" points="645.213 660.027 654.167 660.027 657.337 328.924 639.425 328.924 645.213 660.027"/><rect class="fd1cee44-0e0c-4a57-bf31-ec22a13e9044" x="145.2144" y="305.2555" width="709.3784" height="23.6682"/><polygon class="a801cf2a-1376-4db6-b5ee-1d9a6c1da93e" points="858.98 660.1 850.197 660.1 836.969 328.924 854.533 328.924 858.98 660.1"/><rect class="bafb1fed-55d2-4e37-b8f8-107c539b5fc8" x="145.2144" y="328.9237" width="76.6787" height="331.1764"/><rect class="b321fd63-b64d-4d8e-a8b8-c82e695e1861" x="221.893" y="328.9237" width="173.7706" height="331.1764"/><rect class="a2878a05-e72c-4893-9e13-1bddaba9733b" x="233.3009" y="342.381" width="150.9551" height="66.4679"/><rect class="bdcbce94-3c67-49c6-b51f-c8856b19c48b" x="292.3865" y="372.0199" width="32.7837" height="7.2015"/><rect class="a2878a05-e72c-4893-9e13-1bddaba9733b" x="233.3009" y="419.9179" width="150.9551" height="66.4735"/><rect class="bdcbce94-3c67-49c6-b51f-c8856b19c48b" x="292.3865" y="449.5624" width="32.7837" height="7.1931"/><rect class="a2878a05-e72c-4893-9e13-1bddaba9733b" x="233.3009" y="498.9426" width="150.9551" height="66.4678"/><rect class="bdcbce94-3c67-49c6-b51f-c8856b19c48b" x="292.3865" y="528.573" width="32.7837" height="7.1987"/><rect class="a2878a05-e72c-4893-9e13-1bddaba9733b" x="233.3009" y="577.9587" width="150.9551" height="66.4679"/><rect class="bdcbce94-3c67-49c6-b51f-c8856b19c48b" x="292.3865" y="607.5976" width="32.7837" height="7.193"/><rect class="baf2b0c6-3b6e-4223-8a1b-72975b4544e4" x="145.2144" y="305.7185" width="78.11" height="22.7365"/><path class="ba082b2f-f643-4a44-88f8-b90cf77063d2" d="M327.5077,297.67l-.1666-128.3992c-.5307-13.652,7.3145-11.8679,7.3145-11.8679s7.1253-2.504,8.5565,12.8362L361.652,297.67Z"/><path class="ba082b2f-f643-4a44-88f8-b90cf77063d2" d="M327.5077,297.67h-9.539s-6.18,1.2845-6.1344,7.5036H391.57s-.5363-7.8536-8.0258-7.5036Z"/><rect class="ffbaea9e-9002-4fa5-88d1-201647d1a6bb" x="203.0353" y="85.8819" width="5.4766" height="187.6938"/><rect class="afbb5d51-cba5-45ed-a19d-85a9c25d1a2b" x="208.512" y="85.8819" width="267.2661" height="187.6797"/><rect class="b77bf46b-ac29-47ff-9eaa-6fa4c5a683d2" x="217.2859" y="93.3544" width="249.7098" height="172.7346"/><path class="f7a8303f-f87d-4d40-ae01-e1c6b8ab7dec" d="M321.3817,76.4869a11.6491,11.6491,0,0,0,11.5348,11.5348c13.6607.3473,17.0341-5.5218,17.0341-11.89,0-6.3631-.8836-13.1242-17.0341-11.1735C326.593,65.7227,321.3817,70.1238,321.3817,76.4869Z"/><path class="eed781ec-38eb-4ad7-90e9-474cd814f71f" d="M330.6158,76.501A11.5292,11.5292,0,1,0,342.145,64.9747,11.5221,11.5221,0,0,0,330.6158,76.501Z"/><path class="ec9e5971-ba35-4365-8252-480049aa26a5" d="M336.6458,76.501a5.4992,5.4992,0,1,0,5.4992-5.4992A5.5023,5.5023,0,0,0,336.6458,76.501Z"/><rect class="b7ee3472-f16d-4e2d-be39-7ac8da1a5146" x="264.5714" y="100.3216" width="74.8438" height="79.2901"/><rect class="f49877fc-52c6-4ef9-b525-0332a5fb33bf" x="264.5714" y="100.3216" width="74.8438" height="6.4901"/><path class="a6005289-bcff-4c96-9833-96f89fcdda46" d="M294.0578,130.02a16.1572,16.1572,0,0,0,.8864,11.1566c1.2845,3.08,3.0093,5.6827,3.7123,9.0788.6888,3.3114-.37,5.8013-1.4821,8.8417-.9542,2.617-1.4285,6.1881.9457,8.2827,2.648,2.3233,8.534,1.5273,11.7409,1.2873,3.7207-.2739,7.7435-.0762,11.3542-1.1574,3.1307-.9373,5.0588-3.9127,5.7787-6.9983a13.2246,13.2246,0,0,0-2.617-11.2243c-2.1342-2.823-5.2282-4.76-3.2464-8.5848,1.09-2.0975,2.806-3.3283,3.08-5.8041a15.1717,15.1717,0,0,0-1.4369-7.7689c-2.8231-6.5042-9.2679-11.693-16.2578-11.0493a14.4839,14.4839,0,0,0-7.82,3.9324C296.2428,122.5839,295.0176,126.7,294.0578,130.02Z"/><path class="a1ec3a45-0775-4481-8b5c-2f803ba58260" d="M295.1249,179.6116c1.8829-6.58,3.3509-13.4347,3.3509-13.4347,2.9585-12.1107-2.3685-14.57-2.3685-14.57a17.8779,17.8779,0,0,0-6.2784,5.3863c-1.09,4.675-2.6762,16.4836-3.4723,22.618Z"/><path class="a1ec3a45-0775-4481-8b5c-2f803ba58260" d="M288.3778,179.6116c-1.2477-2.5406-2.4672-4.4632-2.4672-4.4632-3.4413-5.5359-8.3053-17.353-8.3053-17.353l-2.58.4545a127.5668,127.5668,0,0,0,5.22,21.3617Z"/><polygon class="a1ec3a45-0775-4481-8b5c-2f803ba58260" points="321.373 179.612 325.769 152.319 311.668 147.093 304.3 147.093 296.669 150.67 297.53 179.612 321.373 179.612"/><path class="a1ec3a45-0775-4481-8b5c-2f803ba58260" d="M303.3624,147.5535h9.3188V136.428h-9.3188S304.3533,145.1935,303.3624,147.5535Z"/><path class="ba49f232-9c21-4f4f-ab41-d586eb7362b7" d="M303.8,144.1207a14.3787,14.3787,0,0,0,8.8812-.5759V136.428h-9.3188A74.2927,74.2927,0,0,1,303.8,144.1207Z"/><path class="a78ee14d-31e8-4722-b45a-185856dd4677" d="M298.4532,130.48c-.0141,3.2465.5223,8.9348,2.7694,10.9985,2.7157,2.504,11.4586-.271,12.3733-4.13.9852-4.1132,3.08-9.0083,2.3148-13.048a8.1144,8.1144,0,0,0-10.0217-6.4139C301.2141,119.0523,298.4616,126.2312,298.4532,130.48Z"/><path class="a78ee14d-31e8-4722-b45a-185856dd4677" d="M317.3787,129.952c1.09,1.4453-.6493,5.0136-3.3735,5.8634-.5223-.7961-.4771-2.823-.4235-3.7687a4.0383,4.0383,0,0,1,1.499-2.329A1.6291,1.6291,0,0,1,317.3787,129.952Z"/><path class="a6005289-bcff-4c96-9833-96f89fcdda46" d="M310.7757,127.0556c1.05.559.9372,2.0325,1.211,2.7524a2.42,2.42,0,0,0,2.456,1.8689,2.4418,2.4418,0,0,1,1.9225-2.1173c.878-.017,1.0982.5589,1.3381,1.1405a18.1543,18.1543,0,0,0,.5082-4.9544,20.3731,20.3731,0,0,0-.9232-3.63c-.37-1.2873-.9908-1.5809-1.945-2.5181-.8921-.878-1.9648-.9683-2.8653-1.6741a2.5958,2.5958,0,0,0-.7425.8865c-.621.7255-2.4871,3.7658-2.8287,4.2288C308.9068,123.0384,307.2723,125.1641,310.7757,127.0556Z"/><path class="a6005289-bcff-4c96-9833-96f89fcdda46" d="M308.56,123.53l3.9184-5.6065c-1.3015-1.883-6.174-1.64-6.18-1.64-5.0928.1524-9.6068,5.0983-9.0252,10.1741a9.3457,9.3457,0,0,0,1.18,4.0228c.4319-5.2028,1.3777-5.46,1.77-5.7025a10.29,10.29,0,0,0,5.1577-.1976,19.9334,19.9334,0,0,0,3.5259-1.5414"/><path class="e0c82f4c-a339-41f6-8312-ddac11e84fcf" d="M294.549,171.9951a34.26,34.26,0,0,1,1.0134,7.6165H321.85l-.0225-1.68,2.4334-8.7655c-4.22-6.0384-8.3195-13.3444-1.1631-17.8669-.0847-.0311-.175-.0536-.2569-.0931-2.2386-.8244-6.4844-2.456-8.7231-3.2832-5.8831,6.3772-12.3761.3641-12.3761.3641l-5.0729,2.3827-2.12,5.0984c-.8554,2.216-3.0489,7.4753-2.617,9.7055C292.4233,168.06,293.5214,169.573,294.549,171.9951Z"/><path class="a1eeb8da-8034-4a86-a982-9d7dfe827dc6" d="M308.2575,151.1161c-1.9366,0-4.9177-.7791-5.8633-2.041a.2828.2828,0,0,1,.0592-.4009.289.289,0,0,1,.3953.0593c.9062,1.2111,4.5591,2.0805,6.2557,1.739a8.3192,8.3192,0,0,0,4.4773-2.1935.28.28,0,0,1,.4009,0,.2727.2727,0,0,1,0,.3952,8.8362,8.8362,0,0,1-4.7878,2.36A4.86,4.86,0,0,1,308.2575,151.1161Z"/><path class="a6c121e9-0913-40bc-938f-b77acfbd7ae1" d="M315.428,133.8619a.3174.3174,0,0,1-.2795-.1666.3216.3216,0,0,1,.1271-.4375,2.0466,2.0466,0,0,0,.796-1.197,1.7011,1.7011,0,0,0-.07-1.276.323.323,0,1,1,.5617-.319,2.3416,2.3416,0,0,1,.1271,1.7616,2.6861,2.6861,0,0,1-1.0953,1.5893A.3612.3612,0,0,1,315.428,133.8619Z"/><path class="a6c121e9-0913-40bc-938f-b77acfbd7ae1" d="M316.2071,132.439a.3028.3028,0,0,1-.2117-.09.7843.7843,0,0,0-.6126-.1948.3188.3188,0,0,1-.3415-.3049.3076.3076,0,0,1,.2963-.33,1.3957,1.3957,0,0,1,1.0869.3613.3168.3168,0,0,1,.0255.4545A.3311.3311,0,0,1,316.2071,132.439Z"/><path class="a1ec3a45-0775-4481-8b5c-2f803ba58260" d="M274.9968,146.4723c-1.7785.0677.37,4.6607.3557,5.6121-.4178-1.0812-1.6967-5.31-2.8682-5.2113-.6888.1214.9683,3.7207,1.1433,4.4548-.3783-.59-1.468-3.1618-2.2555-2.905-.5054.319.7113,2.7469.9541,3.5486-.1666-.144-1.2873-2.4052-1.6345-2.0044-.37.37.1665,2.058.4912,2.8739,1.4906,3.6755,3.0263,7.8,5.1972,6.1429,1.6175-1.2337,2.4814-1.9592,3.17-7.7831.1271-1.0078-1.5442-.22-2.202,1.7249C276.8938,152.697,275.2085,146.4638,274.9968,146.4723Z"/><path class="a6c121e9-0913-40bc-938f-b77acfbd7ae1" d="M276.9926,154.0972l.113-.1129c.1213-.13-.2569-.1892-.3332-.0988-.0508.0452-.0818.0988-.127.1439.1355-.0084.271-.0169.4065-.0225a.4867.4867,0,0,0-.5138-.0678c-.1044.0452-.1806.2033-.2484.2936-.0847.1214-.2653.1524-.3641.2738a2.1013,2.1013,0,0,0,.0536,2.23c.1044.1581.6493.1581.59-.0762a4.391,4.391,0,0,1-.319-1.5188c.0169-.3331.1751-.446.3952-.6352a.7592.7592,0,0,0,.1722-.206c.1214-.2174.0932-.0734-.1185-.1581.09.0311.3162.0593.3782-.0536a.5623.5623,0,0,0,.0508-.1271c.0452-.1524-.3387-.175-.3782-.0536-.0142.0452-.0283.09-.0367.13-.04.1185.2258.1185.2794.0592Z"/><path class="ad8eadbd-16a4-4617-b7e8-ccfbcc876cec" d="M305.4345,132.871c0,.4319.8243.7791,1.8321.7791,1.0135,0,1.8294-.3472,1.8294-.7791,0-.4234-.8159-.7707-1.8294-.7707C306.2588,132.1,305.4345,132.4476,305.4345,132.871Z"/><path class="ad8eadbd-16a4-4617-b7e8-ccfbcc876cec" d="M298.7412,132.871c0,.4319.6577.7791,1.4679.7791.8159,0,1.4821-.3472,1.4821-.7791,0-.4234-.6662-.7707-1.4821-.7707C299.3989,132.1,298.7412,132.4476,298.7412,132.871Z"/><path class="b8cbb1f1-7cfe-4937-b826-0e9c27b2b986" d="M300.5479,129.9124c.3472.0255.6295.5308.6041,1.1434-.0225.6041-.33,1.067-.686,1.0445s-.63-.5307-.607-1.1348S300.1922,129.89,300.5479,129.9124Z"/><path class="b8cbb1f1-7cfe-4937-b826-0e9c27b2b986" d="M306.79,129.9124c.3557.0255.6267.5308.6041,1.1434-.0226.5985-.3247,1.067-.6888,1.0445-.3557-.0226-.6267-.5364-.6041-1.1348C306.1149,130.3613,306.4254,129.89,306.79,129.9124Z"/><path class="a6c121e9-0913-40bc-938f-b77acfbd7ae1" d="M303.0886,130.1016c.2823.8187-.46,1.6741-.974,2.1963-.2512.24-.5674.6182-.4178.9965.3106.7735,1.3551,1.1038,2.0976,1.2647.0733.0142.5815.0283.46-.175a.3506.3506,0,0,0-.6041,0c.127-.0367.2569-.0677.3839-.1044-.8977-.1751-2.5266-.7792-1.5413-1.8773.5-.559,1.338-1.5357.8243-2.329-.04-.0537-.257-.0537-.2287.0282Z"/><path class="ebe4d7b0-fa2a-4fb8-932b-b66e3354645d" d="M303.3935,137.2664a2.1851,2.1851,0,0,1-1.6035-.6973.29.29,0,0,1,0-.4009.28.28,0,0,1,.4009,0,1.88,1.88,0,0,0,2.51.0707.2725.2725,0,0,1,.3951.0451.2755.2755,0,0,1-.048.4008A2.8053,2.8053,0,0,1,303.3935,137.2664Z"/><path class="a6005289-bcff-4c96-9833-96f89fcdda46" d="M305.1014,129.7854a.2992.2992,0,0,1-.22-.0988.2827.2827,0,0,1,.048-.4008,2.7331,2.7331,0,0,1,3.78-.0537.2852.2852,0,1,1-.3557.446,2.174,2.174,0,0,0-3.0686.0452A.26.26,0,0,1,305.1014,129.7854Z"/><path class="a6005289-bcff-4c96-9833-96f89fcdda46" d="M301.9791,129.7628a.2735.2735,0,0,1-.1835-.0677,2.1122,2.1122,0,0,0-2.6254-.3021.3094.3094,0,0,1-.4008-.1072.2979.2979,0,0,1,.0988-.3868,2.7075,2.7075,0,0,1,3.2831.3557.2868.2868,0,0,1,.0452.4009A.29.29,0,0,1,301.9791,129.7628Z"/><path class="a1ec3a45-0775-4481-8b5c-2f803ba58260" d="M321.8419,179.6116h8.7287l.4093-17.9572s.3784-8.8134-7.8818-10.3548c0,0-5.5839,2.4871-2.919,11.9583Z"/><path class="ff62248d-7355-479c-bc77-5ae8f7a8ae53" d="M315.0638,134.6946a.6422.6422,0,1,1-.6436-.6436A.6415.6415,0,0,1,315.0638,134.6946Z"/><polygon class="e0c82f4c-a339-41f6-8312-ddac11e84fcf" points="321.252 179.612 320.555 167.334 293.643 169.415 292.658 179.612 321.252 179.612"/><path class="e0c82f4c-a339-41f6-8312-ddac11e84fcf" d="M322.0225,150.89s-4.5083,1.6628-3.9324,9.4317l1.1433,18.1943a22.5848,22.5848,0,0,0,14.0163-.9457L331.2143,158.38S330.3138,152.7422,322.0225,150.89Z"/><path class="e0c82f4c-a339-41f6-8312-ddac11e84fcf" d="M297.1518,150.3314s-6.3236,1.626-8.3138,6.459l-5.1125,10.8009s3.4046,7.6108,9.59,8.8811l7.0348-14.6373S303.831,153.6653,297.1518,150.3314Z"/><path class="a1eeb8da-8034-4a86-a982-9d7dfe827dc6" d="M319.3237,177.0483a.3.3,0,0,1-.2879-.2653c-.1072-1.2788-.2654-2.919-.4319-4.6834-.3388-3.4638-.717-7.4047-.8469-9.9624-.1355-2.919-.4093-8.3505,2.9641-10.7642a.2841.2841,0,0,1,.3953.0678.29.29,0,0,1-.0621.3952c-3.1223,2.23-2.8654,7.4584-2.73,10.2729.13,2.5408.5138,6.4732.8469,9.94.1666,1.7616.3331,3.4018.44,4.6891a.2977.2977,0,0,1-.2654.3105Z"/><path class="ff62248d-7355-479c-bc77-5ae8f7a8ae53" d="M327.6742,103.4608a1.7517,1.7517,0,1,1-1.7559-1.7474A1.7578,1.7578,0,0,1,327.6742,103.4608Z"/><path class="bbe4dc2e-ffb4-4b22-bef5-a8781f3336c5" d="M332.5157,103.4608a1.7545,1.7545,0,1,1-1.7559-1.7474A1.7578,1.7578,0,0,1,332.5157,103.4608Z"/><path class="a20075cc-c3dc-4124-87b2-ae0e1737d298" d="M337.3487,103.4608a1.7475,1.7475,0,1,1-1.7474-1.7474A1.7506,1.7506,0,0,1,337.3487,103.4608Z"/><rect class="eda82eac-7942-4c17-872c-fbcf2de12a80" x="339.4151" y="100.3216" width="74.8269" height="79.2901"/><rect class="f49877fc-52c6-4ef9-b525-0332a5fb33bf" x="339.4151" y="100.3216" width="74.8269" height="6.4901"/><path class="ff62248d-7355-479c-bc77-5ae8f7a8ae53" d="M402.5011,103.4608a1.7475,1.7475,0,1,1-1.7475-1.7474A1.7506,1.7506,0,0,1,402.5011,103.4608Z"/><path class="bbe4dc2e-ffb4-4b22-bef5-a8781f3336c5" d="M407.3425,103.4608a1.7517,1.7517,0,1,1-1.7474-1.7474A1.7505,1.7505,0,0,1,407.3425,103.4608Z"/><path class="a20075cc-c3dc-4124-87b2-ae0e1737d298" d="M412.19,103.4608a1.75,1.75,0,1,1-1.753-1.7474A1.7608,1.7608,0,0,1,412.19,103.4608Z"/><path class="a03057cf-e561-4f82-b260-7559a2c1e571" d="M361.1551,179.6116a75.3066,75.3066,0,0,1,2.7158-8.6469s-4.26-14.0162-11.6872-2.504c0,0-.5223,4.4491-.8639,11.1509Z"/><path class="b8e91e2b-9301-424a-bf09-f257274d88be" d="M357.4316,179.6116l6.5071-17.0651s4.0849-11.1961-.9542-17.6862c0,0-6.2021,1.4595-12.7092,15.8569l-4.6043,9.0393,9.4853,9.8551Z"/><polygon class="b38a30d2-919a-4792-af3f-ca6d9403f27e" points="365.028 144.891 369.619 141.54 379.474 141.54 384.936 144.891 365.028 144.891"/><path class="a03057cf-e561-4f82-b260-7559a2c1e571" d="M369.1725,143.4093h10.3012V132.16H369.1725S370.2679,141.0267,369.1725,143.4093Z"/><path class="e98f9d7a-0564-4b01-b012-3afe0c22afe3" d="M379.4737,137.2579V132.16H369.1725s.3106,2.504.4376,5.2056A12.5425,12.5425,0,0,0,379.4737,137.2579Z"/><path class="a5dc49e0-f172-4d07-941c-20bfef0568d4" d="M363.2272,123.2332a19.84,19.84,0,0,0,2.0721,5.1379c1.1575,1.73,3.0489,1.99,4.0765.0141a11.3585,11.3585,0,0,0,.9147-6.2247c-.113-1.09,1.6062-4.9714.6605-5.7787-1.49-1.2648-6.2276-1.437-7.5064-.1751C362.259,117.3952,362.7643,121.7511,363.2272,123.2332Z"/><path class="b38a30d2-919a-4792-af3f-ca6d9403f27e" d="M363.9443,126.1014a27.7927,27.7927,0,0,0,.4687,5.869c.3782,1.9592.8186,5.615,2.9217,6.5833a4.4458,4.4458,0,0,0,1.9733.3387,12.5589,12.5589,0,0,0,8.3054-3.7291c3.82-3.82,4.562-13.7368,1.355-17.8443-2.9359-3.7518-13.2541-2.7242-14.3663,2.823A34.1985,34.1985,0,0,0,363.9443,126.1014Z"/><path class="a03057cf-e561-4f82-b260-7559a2c1e571" d="M363.9443,126.1014a27.7927,27.7927,0,0,0,.4687,5.869c.3782,1.9592.8186,5.615,2.9217,6.5833a4.4458,4.4458,0,0,0,1.9733.3387,12.5589,12.5589,0,0,0,8.3054-3.7291c3.82-3.82,4.562-13.7368,1.355-17.8443-2.9359-3.7518-13.2541-2.7242-14.3663,2.823A34.1985,34.1985,0,0,0,363.9443,126.1014Z"/><path class="e98f9d7a-0564-4b01-b012-3afe0c22afe3" d="M378.4151,134.2091c3.1025-4.3108,3.526-13.0847.5533-16.89a5.9,5.9,0,0,0-.5533-.5759l.6436,7.9213-.6436,2.3742Z"/><path class="b8cbb1f1-7cfe-4937-b826-0e9c27b2b986" d="M366.0023,126.4345a.4984.4984,0,1,1-.4912-.6041A.557.557,0,0,1,366.0023,126.4345Z"/><path class="b8cbb1f1-7cfe-4937-b826-0e9c27b2b986" d="M371.6822,126.6688a.4965.4965,0,1,1-.4827-.6126A.5549.5549,0,0,1,371.6822,126.6688Z"/><path class="a9223637-a5b0-48f6-853c-6afaa5cbf6df" d="M379.77,126.2c.46-.44.8694-1.6571,1.6937-1.2252a2.181,2.181,0,0,0,.2513.0819c.3162.1355.37.4545.4827.7339a7.1174,7.1174,0,0,1,.3247,1.5273c.0085.0311.0762.0311.0762,0,.13-.9146-.0452-2.3827-.9994-2.8117a1.866,1.866,0,0,0-2.3374,1.6261c0,.1806.4178.15.5082.0677Z"/><path class="e98f9d7a-0564-4b01-b012-3afe0c22afe3" d="M367.2586,132.8879c.5307.5731,1.3917.4235,2.0946.4235a3.2376,3.2376,0,0,0,1.7023-.5308.12.12,0,0,0,.0452-.1524c-.0085-.0226-.0142-.0508-.0226-.0734-.0452-.1666-.4009-.1158-.5-.0678a3.9186,3.9186,0,0,1-2.9867.28c-.0678-.031-.4772-.04-.3331.1214Z"/><path class="a5dc49e0-f172-4d07-941c-20bfef0568d4" d="M378.113,123.8853c.0311.5053.1525,2.9868.2739,3.4328.1186.4461.55.5844.6944.2287.7566-.68.6437-2.504,1.883-2.6791,1.3409-.1891,1.5978,1.7785,1.5583,2.6791a9.5582,9.5582,0,0,0,1.3324-3.9494c0-.7171.0085-2.4419,0-3.7292a4.7266,4.7266,0,0,0-5.0305-4.8415,4.1153,4.1153,0,0,0-3.4865,2.1031c-.6352,1.3833.2484,2.5492,1.1574,3.5316C377.63,121.912,378.0227,122.1238,378.113,123.8853Z"/><path class="a03057cf-e561-4f82-b260-7559a2c1e571" d="M382.1076,124.9806c1.2845,1.3015.4771,5.07-2.1258,6.2954-.6436-.72-.6125-2.648-.68-3.5937a3.62,3.62,0,0,1,.4687-2.6085A1.6632,1.6632,0,0,1,382.1076,124.9806Z"/><path class="e98f9d7a-0564-4b01-b012-3afe0c22afe3" d="M379.99,127.5609c-.0225.175-.175.559-.031.7114a1.036,1.036,0,0,0,.3923.271.6382.6382,0,0,0,.7736-.3021,2.3347,2.3347,0,0,0,.24-.9683.8.8,0,0,0-.127-.68.2778.2778,0,0,0-.2879,0c-.2654.2654-.1892.7481-.2343,1.0812a1.3279,1.3279,0,0,1-.2033.6126c-.048.0451-.0536.0226.0452.017.0959,0-.0226-.0311-.0763-.0678-.1665-.1384-.1072-.4855-.1213-.6747-.0086-.1355-.3473-.127-.37,0Z"/><path class="e98f9d7a-0564-4b01-b012-3afe0c22afe3" d="M380.7384,126.6829c.3473-.446.6945,0,.7792.3416a1.6572,1.6572,0,0,1,.0141.6126,5.0411,5.0411,0,0,1-.4827,1.149c-.0311.1073.1891.0988.2427.0677a1.6959,1.6959,0,0,0,.5816-2.2387c-.2964-.46-1.2026-.5222-1.4313.0311-.0452.1214.2428.113.2964.0367Z"/><path class="e98f9d7a-0564-4b01-b012-3afe0c22afe3" d="M366.5331,124.5516c-.0989.6719.1806,1.4058.09,2.1172a15.3209,15.3209,0,0,1-.96,3.1025c-.477,1.3155,2.2839,1.2478,2.9275,1.1405.46-.0818.127-.37-.1891-.3331a2.4528,2.4528,0,0,1-.6747.031c-2.0185-.09-1.3692-.7932-1.118-1.482a9.9988,9.9988,0,0,0,.6635-2.0947c.1214-.9316-.3783-1.612-.4517-2.4814-.0169-.0988-.2654-.09-.2879,0Z"/><path class="f1cfc101-f090-4950-945d-e920b2a928ff" d="M361.57,114.4536a12.5959,12.5959,0,0,0,.3783,1.5865,6.1143,6.1143,0,0,0,4.6523,3.9579c1.7164.3473,2.8371-.8779,4.418-1.09,1.4369-.1892,2.5859.74,3.9184,1.09,1.2844.3388,1.7615.415,2.7524-.4714a11.1408,11.1408,0,0,1,1.5667-.9429c.559-.3727.9232-.9768,1.5132-1.3014,1.005-.5618.7565-.5081,1.2619-1.674a3.23,3.23,0,0,0,.0085-2.744c-.463-.9542-1.7249-1.1264-2.1342-1.9451-.4094-.81-3.0546-.2258-3.95-.4093a22.7374,22.7374,0,0,0-8.5-.1891S361.5786,111.6,361.57,114.4536Z"/><path class="fdab8e56-4786-45ed-b3b6-01163abc922b" d="M369.4605,125.2008a.2387.2387,0,0,1-.2061-.1044.2575.2575,0,0,1,.0536-.3557,3.004,3.004,0,0,1,3.526.0225.2524.2524,0,0,1,.0056.3614.2573.2573,0,0,1-.3613.0085,2.5365,2.5365,0,0,0-2.8682.0141A.2223.2223,0,0,1,369.4605,125.2008Z"/><path class="fdab8e56-4786-45ed-b3b6-01163abc922b" d="M366.5161,125.2008a.3092.3092,0,0,1-.1722-.0592,1.7123,1.7123,0,0,0-1.9536-.0622.2472.2472,0,0,1-.3472-.0818.258.258,0,0,1,.0847-.3557,2.2348,2.2348,0,0,1,2.5633.1129.2535.2535,0,0,1,.0141.3642A.2351.2351,0,0,1,366.5161,125.2008Z"/><path class="b8e91e2b-9301-424a-bf09-f257274d88be" d="M394.43,179.6116c-.1072-1.3833-.175-2.2471-.175-2.2471l-1.7616-30.6664-13.02-5.46c-7.7915,6.18-9.8551,0-9.8551,0l-7.21,3.6163c-4.8246,2.9415-5.5952,22.7366-5.5952,22.7366-.3558,4.0029-.7284,8.0116-1.0841,12.02Z"/><path class="be354f96-e6ed-44d5-a577-c3672fdfdbb8" d="M356.7824,175.0807a.2549.2549,0,0,1-.2513-.2569c0-7.9214.3105-16.3932,2.5661-24.6223a.2577.2577,0,0,1,.3162-.1807.2622.2622,0,0,1,.1835.3162c-2.2415,8.1783-2.5577,16.6049-2.5577,24.4868A.2542.2542,0,0,1,356.7824,175.0807Z"/><path class="be354f96-e6ed-44d5-a577-c3672fdfdbb8" d="M373.537,146.8139a6.6014,6.6014,0,0,1-1.6713-.1977c-.87-.2427-3.2973-1.2111-3.941-2.8371a.2458.2458,0,0,1,.1356-.3331.2488.2488,0,0,1,.3331.1439c.5759,1.4144,2.8512,2.3291,3.6078,2.5266,2.2161.6127,6.5889-.2568,7.8451-2.6621a.2691.2691,0,0,1,.3473-.1072.2512.2512,0,0,1,.1044.35C379.2112,145.775,375.9958,146.8139,373.537,146.8139Z"/><path class="a03057cf-e561-4f82-b260-7559a2c1e571" d="M403.3846,179.6116c.5392-10.7331-1.4877-19.1993-3.6529-22.1324-1.7079,0-4.4774,1.0586-8.0174,0-.6747,3.2437,2.9642,17.85,3.0941,22.1324Z"/><path class="b8e91e2b-9301-424a-bf09-f257274d88be" d="M390.8589,179.6116h10.12a18.5521,18.5521,0,0,0,5.9086-2.0184l-5.6291-21.5678a17.5109,17.5109,0,0,0-8.7655-9.3273c-5.5387,1.2873-4.9769,7.7012-4.9769,7.7012Z"/><path class="be354f96-e6ed-44d5-a577-c3672fdfdbb8" d="M390.9888,177.0032a.25.25,0,0,1-.2428-.1892,128.1351,128.1351,0,0,1-2.9133-14.5611l-.2174-1.3635c-.7057-4.3644-1.2111-9.3188,1.6854-12.7826a.2565.2565,0,0,1,.3641-.04.2612.2612,0,0,1,.0282.3642c-2.7524,3.3058-2.2528,8.1246-1.5724,12.3818l.22,1.3551a125.7318,125.7318,0,0,0,2.8964,14.5074.2706.2706,0,0,1-.1807.319C391.034,176.9947,391.0113,177.0032,390.9888,177.0032Z"/><rect class="ada18d16-5fb4-427a-bfab-6a91906b0a36" x="339.4151" y="179.6116" width="74.8269" height="79.2984"/><rect class="f49877fc-52c6-4ef9-b525-0332a5fb33bf" x="339.4151" y="179.6116" width="74.8269" height="6.4901"/><path class="ff62248d-7355-479c-bc77-5ae8f7a8ae53" d="M402.5011,182.7508a1.7475,1.7475,0,1,1-1.7475-1.7474A1.7506,1.7506,0,0,1,402.5011,182.7508Z"/><path class="bbe4dc2e-ffb4-4b22-bef5-a8781f3336c5" d="M407.3425,182.7508a1.7517,1.7517,0,1,1-1.7474-1.7474A1.7505,1.7505,0,0,1,407.3425,182.7508Z"/><path class="a20075cc-c3dc-4124-87b2-ae0e1737d298" d="M412.19,182.7508a1.75,1.75,0,1,1-1.753-1.7474A1.7608,1.7608,0,0,1,412.19,182.7508Z"/><path class="b16337f7-ff34-44cf-84b1-632bfdc60023" d="M365.3981,208.8552c-.2116.8639-.9767,1.5725-1.2872,2.4052a5.2588,5.2588,0,0,0-.1948,3.2239c.3247,1.0671,1.2082,1.3523,1.8067,1.9733a3.5322,3.5322,0,0,0,2.0044.0678,24.6449,24.6449,0,0,1,2.4-.8611,3.3167,3.3167,0,0,1,3.1138,1.64c.44.5675.9231,1.4,1.68,1.5893a3.4666,3.4666,0,0,0,3.0347-.9,6.206,6.206,0,0,1,3.6445-1.77,3.312,3.312,0,0,0,2.4815-1.005,6.5138,6.5138,0,0,0,1.1659-2.9444,3.0105,3.0105,0,0,1,.9457-1.7756c.4234-.3727,1.09-.5534,1.4906-.9684v-.2879a21.5111,21.5111,0,0,0-2.0213-8.0879c-1.0728-2.298-2.5182-4.6128-5.2791-4.5762-1.27.0085-1.9055.2965-2.9359-.6662-1.914-1.7757-3.653-4.1752-6.716-3.1984-2.4052.765-4.57,3.4807-5.8182,5.53a7.5124,7.5124,0,0,0-.6041,7.5487C364.8392,206.7831,365.6861,207.6441,365.3981,208.8552Z"/><path class="a1ec3a45-0775-4481-8b5c-2f803ba58260" d="M368.4922,232.0859c.7566-7.3682-2.9359-7.5347-2.9359-7.5347-4.1894-.8017-5.7336,5.59-5.7336,5.59s-2.14,14.0643-1.7248,20.2891c0,0,4.5393,2.45,6.3631-1.55Z"/><path class="a1ec3a45-0775-4481-8b5c-2f803ba58260" d="M360.489,258.91a70.8529,70.8529,0,0,0,3.924-9.6151s-1.7983-9.5475-6.27-3.8817a88.0422,88.0422,0,0,1-3.5259,13.4968Z"/><polygon class="a1ec3a45-0775-4481-8b5c-2f803ba58260" points="385.3 258.91 392.705 225.726 378.87 220.633 372.394 220.633 363.831 224.642 366.767 258.91 385.3 258.91"/><path class="a1ec3a45-0775-4481-8b5c-2f803ba58260" d="M371.5693,221.0422h8.1923V211.26h-8.1923S372.4472,218.9616,371.5693,221.0422Z"/><path class="a6c121e9-0913-40bc-938f-b77acfbd7ae1" d="M376.645,216.435a10.797,10.797,0,0,0,3.1166-.9768V211.26h-8.1923s.319,2.7158.3782,5.3638A16.2717,16.2717,0,0,0,376.645,216.435Z"/><path class="b28ba182-7843-43ba-a834-7a1d1e4819c3" d="M385.9412,258.91c.5759-1.2732,1.6345-3.3142,1.5979-4.4123-.04-1.2309,1.3155-3.2437,1.4143-4.4773a8.5693,8.5693,0,0,1,.6888-3.5627c1.1179-2.0721,1.1038-5.1294,1.6176-7.4443a23.302,23.302,0,0,0,.87-5.9453c0-1.2844,1.1067-2.7214,1.4228-3.9776.3331-1.324.144-2.9275-1.1659-3.526-1.1716-.5363-2.4955-.8694-3.7066-1.3155-1.9649-.7255-5.694-2.1624-7.6533-2.8907-7.0292,6.0441-10.8713.319-10.8713.319l-4.4632,2.0946L365.641,258.91Z"/><path class="b28ba182-7843-43ba-a834-7a1d1e4819c3" d="M363.8314,242.5084c.909,2.1342-.1807,3.3452-.7792,8.534-.3387,3.0488-.6577,5.6573-1.05,7.8677H391.11a18.8954,18.8954,0,0,1-.9457-4.387c-.5392-5.3185.4234-10.7049,1.1574-15.8484.3473-2.4814,1.64-5.68,1.3692-8.1556-.2513-2.3431-3.1477-4.2967-5.3412-4.2967-3.1251,0-6.0835,1.6486-9.2228,1.9536-3.5541.3557-5.4145-.9231-8.1161-2.9586-1.09-.8243-2.8513-2.662-4.1132-1.4764-1.3409,1.2336-1.4143,2.8314-2.0664,4.5084-.7481,1.945-2.6763,6.5663-2.2979,8.5254C361.9625,239.053,362.9167,240.377,363.8314,242.5084Z"/><path class="a1ec3a45-0775-4481-8b5c-2f803ba58260" d="M392.7052,258.91h5.7335a94.025,94.025,0,0,0,.5816-10.4311c-6.6934-.2512-6.6256,3.78-6.6256,3.78A62.9136,62.9136,0,0,1,392.7052,258.91Z"/><path class="a1ec3a45-0775-4481-8b5c-2f803ba58260" d="M397.5918,254.2493a15.0823,15.0823,0,0,0,1.4285-5.77c.3415-9.9341-3.5627-19.5691-5.6432-22.059-.2118-.6436-4.9375-3.54-6.013,2.23-.415,2.9275,4.9938,21.4239,5.0306,23.6089C392.3947,252.2591,393.9445,255.8923,397.5918,254.2493Z"/><path class="a1ec3a45-0775-4481-8b5c-2f803ba58260" d="M368.3313,203.6129c.0169,2.9048.5448,8.0117,2.58,9.85,2.4589,2.2245,9.093-1.5047,11.0747-3.8139,2.4815-2.88,2.6847-8.1077,1.9676-11.73a7.2963,7.2963,0,0,0-9.0562-5.6828C370.7167,193.3258,368.3031,199.7934,368.3313,203.6129Z"/><path class="a6c121e9-0913-40bc-938f-b77acfbd7ae1" d="M383.8325,197.7354a7.4155,7.4155,0,0,0-.8469-2.1625l-1.3325,9.4543-.0593,3.6248.3021,1.1489c.09-.0988.1807-.1975.2569-.2879C384.5665,206.5714,384.6342,201.3376,383.8325,197.7354Z"/><path class="a1ec3a45-0775-4481-8b5c-2f803ba58260" d="M385.323,202.7519c1.0135,1.27-.0621,4.5224-2.4757,5.3552-.4969-.6888-.2852-2.391-.2626-3.23a3.2333,3.2333,0,0,1,.6577-2.2612A1.4822,1.4822,0,0,1,385.323,202.7519Z"/><path class="a6c121e9-0913-40bc-938f-b77acfbd7ae1" d="M383.1888,204.8465c-.0452.1807-.2117.4828-.09.6494a.675.675,0,0,0,.3557.2653.6337.6337,0,0,0,.7481-.2653,2.3876,2.3876,0,0,0,.2879-.8159.6049.6049,0,0,0-.0847-.5984.25.25,0,0,0-.2851,0c-.2738.2116-.2427.6661-.3274.9767a.9322.9322,0,0,1-.257.4912c.13-.0988.2428.0311.161-.0226a1.7477,1.7477,0,0,1-.1384-.1214c-.09-.09-.0056-.4376-.0056-.559.0056-.13-.3331-.1213-.3642,0Z"/><path class="a6c121e9-0913-40bc-938f-b77acfbd7ae1" d="M383.9538,204.1352c.5364-.55.6352.5137.6127.8017-.0622.4235-.4009.7114-.5533,1.09-.0452.1073.1891.09.2286.0677a1.5262,1.5262,0,0,0,.7622-1.914.8.8,0,0,0-1.33-.1045c-.0537.113.2258.113.2794.0594Z"/><path class="b41d7c4a-0ea7-4f43-81d0-e0a230d489b5" d="M380.5578,192.1091a2.2939,2.2939,0,0,0-.6352.8244c-.5392.6718-2.12,3.45-2.4222,3.8731-.7932,1.1574.1214,2.1088.9316,2.9049.2569.24.5138.4912.7792.74a7.5606,7.5606,0,0,1,1.8745,2.5887c.2568.6719.4545,2.5492,1.4312,2.6226.0678-.9739.4291-2.9726,1.8745-3.23.1807-.0677.8018-.0141,1.31,1.0812,0,0,2.919-9.5136-5.1435-11.405"/><path class="b16337f7-ff34-44cf-84b1-632bfdc60023" d="M377.2125,197.2583l3.3453-5.1492c-1.2252-1.6486-5.5924-1.2873-5.5924-1.2873-1.51.13-7.4358,2.919-9.3329,7.2608,0,0-2.7016,6.3857,3.1166,10.4564-.6973-4.2966-.6747-7.097,1.0219-9.9115a9.1835,9.1835,0,0,0,4.6213-.33,17.4985,17.4985,0,0,0,3.1081-1.49"/><path class="ad8eadbd-16a4-4617-b7e8-ccfbcc876cec" d="M374.4064,205.6624c0,.3868.7424.6973,1.6572.6973.9,0,1.64-.31,1.64-.6973,0-.3839-.74-.6945-1.64-.6945C375.1488,204.9679,374.4064,205.2785,374.4064,205.6624Z"/><path class="ad8eadbd-16a4-4617-b7e8-ccfbcc876cec" d="M368.385,205.6624c0,.3868.59.6973,1.3155.6973.7339,0,1.3324-.31,1.3324-.6973,0-.3839-.5985-.6945-1.3324-.6945C368.975,204.9679,368.385,205.2785,368.385,205.6624Z"/><path class="b8cbb1f1-7cfe-4937-b826-0e9c27b2b986" d="M370.0053,203c.3247.0226.5675.4771.55,1.0219-.0226.5449-.302.9684-.6182.9457-.3275-.0225-.5675-.4855-.5533-1.0219C369.4068,203.4011,369.6778,202.9777,370.0053,203Z"/><path class="b8cbb1f1-7cfe-4937-b826-0e9c27b2b986" d="M375.626,203c.3161.0226.5673.4771.542,1.0219-.0226.5449-.2936.96-.6183.9457-.319-.031-.5674-.4855-.5448-1.0219C375.0275,203.3955,375.2985,202.9777,375.626,203Z"/><path class="a6c121e9-0913-40bc-938f-b77acfbd7ae1" d="M372.3032,203.1753c.2429.7256-.4149,1.4963-.8835,1.9592-.22.2259-.5139.5674-.3727.9062.2739.6888,1.2195.9909,1.8858,1.1348.0678.017.5223.0227.415-.158a.3185.3185,0,0,0-.5449,0c.1214-.0311.2259-.0593.3416-.0989-.81-.15-2.27-.6944-1.3861-1.6853.4461-.5,1.2026-1.3776.7425-2.089-.0395-.0536-.2258-.0536-.1977.031Z"/><path class="ebe4d7b0-fa2a-4fb8-932b-b66e3354645d" d="M372.5686,209.62a1.9953,1.9953,0,0,1-1.4454-.63.2572.2572,0,0,1,0-.3613.2608.2608,0,0,1,.3642,0,1.7083,1.7083,0,0,0,2.2612.0593.2514.2514,0,1,1,.3106.3952A2.4735,2.4735,0,0,1,372.5686,209.62Z"/><path class="f21f1880-dc55-4313-89c1-c28f61d3fd28" d="M377.3875,202.5232a2.5674,2.5674,0,0,0-3.5937.0678c-.1524.1891.463.206.5448.1524a8.1178,8.1178,0,0,1,.9232-.5223,1.9806,1.9806,0,0,1,1.7389.4235c.0988.0536.5449.031.3868-.1214Z"/><path class="f21f1880-dc55-4313-89c1-c28f61d3fd28" d="M368.7943,202.3793a1.9663,1.9663,0,0,1,1.27-.1892,4.79,4.79,0,0,1,.9994.5307c.0819.0367.7029.0311.5448-.1581a2.489,2.489,0,0,0-3.17-.3105c-.1666.113.271.1666.3557.1271Z"/><path class="b16337f7-ff34-44cf-84b1-632bfdc60023" d="M379.7786,207.8333c-.81,1.9987-1.8237,4.2967-.765,6.4.8017,1.5978,2.0579,2.967,3.972,2.504,1.9422-.4771,2.9952-2.3375,4.6579-3.238,1.3551-.734,4.0031-.7622,4.8641-2.4278.5448-1.0586.1213-2.7073-.2569-3.7574-.0367-.0932-.0678-.1835-.113-.2823a10.4115,10.4115,0,0,1-1.3917-1.2394c-1.6119-1.7784-.9542-4.3107-2.1708-6.3912-.4856-.8413-1.3241-1.4-1.8238-2.1484a25.7949,25.7949,0,0,0-1.2844-2.4588,4.1744,4.1744,0,0,0-4.6919-1.7842c-2.041.384-3.04.7622-3.5457,2.8654a6.7869,6.7869,0,0,0,1.3748,6.4591C380.27,204.2424,380.7836,205.36,379.7786,207.8333Z"/><path class="b733d953-7fa9-445a-ba1d-dd126bde7e3f" d="M390.1419,242.4039a.26.26,0,0,1-.2428-.1806c-.6888-2.2641-1.1743-4.1781-1.626-5.94-.113-.477-.2513-.9456-.3727-1.4284-.2343-.8469-.4743-1.7192-.6493-2.5887-.2568-1.2929-.861-5.6432,2.1851-7.4358a.2692.2692,0,0,1,.3556.09.259.259,0,0,1-.0988.35c-2.7524,1.626-2.1765,5.6884-1.9338,6.8909.1638.8554.4009,1.7249.6268,2.5549q.2032.7284.3924,1.4454c.44,1.7559.9146,3.6614,1.6119,5.9086a.2671.2671,0,0,1-.175.3246A.2038.2038,0,0,1,390.1419,242.4039Z"/><path class="b733d953-7fa9-445a-ba1d-dd126bde7e3f" d="M374.9513,224.3479a8.3047,8.3047,0,0,1-2.6706-.4009,3.5963,3.5963,0,0,1-2.2528-1.832.2545.2545,0,1,1,.46-.2174,3.0952,3.0952,0,0,0,1.9591,1.5639,8.7657,8.7657,0,0,0,5.8183-.271,7.5936,7.5936,0,0,0,2.2838-1.6712.2546.2546,0,1,1,.3924.3246,8.0231,8.0231,0,0,1-2.45,1.8011A8.2766,8.2766,0,0,1,374.9513,224.3479Z"/><path class="b733d953-7fa9-445a-ba1d-dd126bde7e3f" d="M369.61,245.8988a5.2081,5.2081,0,0,1-2.2979-.4629,2.2968,2.2968,0,0,1-1.2647-1.4285.254.254,0,0,1,.175-.319.2482.2482,0,0,1,.3106.175,1.8092,1.8092,0,0,0,1.0049,1.1123,5.6837,5.6837,0,0,0,4.0087.0988,5.8652,5.8652,0,0,0,.765-.3952,4.0949,4.0949,0,0,1,1.6035-.6408,2.1828,2.1828,0,0,1,1.3776.46,1.33,1.33,0,0,0,.9232.3416.2544.2544,0,1,1,.096.5,1.8077,1.8077,0,0,1-1.3015-.4009,1.7293,1.7293,0,0,0-1.05-.3952,3.8722,3.8722,0,0,0-1.3918.5843,7.642,7.642,0,0,1-.8384.4292A6.1474,6.1474,0,0,1,369.61,245.8988Z"/><path class="b733d953-7fa9-445a-ba1d-dd126bde7e3f" d="M379.8605,256.6545a.2292.2292,0,0,1-.1666-.0593.2468.2468,0,0,1-.0451-.3331c.0677-.1214.1355-.2569.2117-.3952.0452-.096.0988-.1948.144-.2851a.26.26,0,0,1,.3471-.0988c.017.0056.0227.0056.0311.0141a6.8381,6.8381,0,0,1,2.45-1.8011,4.0969,4.0969,0,0,1,2.3149.04,6.9377,6.9377,0,0,0,1.2252.1807,2.3371,2.3371,0,0,0,1.8011-.6493c1.27-1.2421,1.27-3.9805,1.27-5.615a.2556.2556,0,0,1,.2484-.2625.2633.2633,0,0,1,.26.2625c0,1.7192,0,4.5931-1.4143,5.9763a2.8977,2.8977,0,0,1-2.1738.7961,6.8973,6.8973,0,0,1-1.3212-.1891A3.6008,3.6008,0,0,0,383,254.1816a7.2773,7.2773,0,0,0-2.5126,1.945c-.1495.15-.302.3078-.4516.4517A.22.22,0,0,1,379.8605,256.6545Z"/><rect class="a09d3155-e2e7-477d-97be-52a83788b8c6" x="264.5657" y="179.6116" width="74.8409" height="79.2984"/><rect class="f49877fc-52c6-4ef9-b525-0332a5fb33bf" x="264.5657" y="179.6116" width="74.8409" height="6.4901"/><path class="ff62248d-7355-479c-bc77-5ae8f7a8ae53" d="M327.66,182.7508a1.7517,1.7517,0,1,1-1.7474-1.7474A1.7505,1.7505,0,0,1,327.66,182.7508Z"/><path class="bbe4dc2e-ffb4-4b22-bef5-a8781f3336c5" d="M332.5072,182.7508a1.7545,1.7545,0,1,1-1.7474-1.7474A1.76,1.76,0,0,1,332.5072,182.7508Z"/><path class="a20075cc-c3dc-4124-87b2-ae0e1737d298" d="M337.34,182.7508a1.75,1.75,0,1,1-1.7474-1.7474A1.7505,1.7505,0,0,1,337.34,182.7508Z"/><path class="b38a30d2-919a-4792-af3f-ca6d9403f27e" d="M327.7335,258.91c-.68-3.9635-1.2252-6.4308-1.2252-6.4308l8.6243-.4234a58.3621,58.3621,0,0,1,1.022,6.8542Z"/><polygon class="b38a30d2-919a-4792-af3f-ca6d9403f27e" points="296.327 223.439 300.723 220.224 310.169 220.224 315.397 223.439 296.327 223.439"/><polygon class="b38a30d2-919a-4792-af3f-ca6d9403f27e" points="281.645 258.91 285.428 240.148 295.269 244.264 291.116 258.91 281.645 258.91"/><path class="b38a30d2-919a-4792-af3f-ca6d9403f27e" d="M285.88,258.91H276.84a77.0316,77.0316,0,0,1-6.3235-19.2134c-1.6487-2.7017,3.3-5.3948,4.13-5.8634l-.2258,5.2338C276.75,246.8812,282.1588,254.3792,285.88,258.91Z"/><path class="b38a30d2-919a-4792-af3f-ca6d9403f27e" d="M300.2994,222.019h9.8693V211.2378h-9.8693S301.35,219.7323,300.2994,222.019Z"/><path class="e98f9d7a-0564-4b01-b012-3afe0c22afe3" d="M310.1687,216.1245v-4.8867h-9.8693s.2937,2.4.4235,4.994A12.0545,12.0545,0,0,0,310.1687,216.1245Z"/><path class="a1fdd4da-ec62-45f8-a1fb-a5be2639dff5" d="M294.6026,202.69a18.9221,18.9221,0,0,0,1.9818,4.9261c1.1207,1.6571,2.9275,1.9056,3.9042.0141a10.958,10.958,0,0,0,.8836-5.9593,4.4432,4.4432,0,0,0-1.2788-3.0207,3.8144,3.8144,0,0,0-4.9375-.0225C295.314,198.4693,294.165,201.27,294.6026,202.69Z"/><path class="b38a30d2-919a-4792-af3f-ca6d9403f27e" d="M295.2914,205.4366a25.984,25.984,0,0,0,.4545,5.629c.3557,1.8746.7792,5.3779,2.7976,6.3067a4.2,4.2,0,0,0,1.8914.319,11.9782,11.9782,0,0,0,7.95-3.58c3.6529-3.653,4.3728-13.1468,1.2929-17.0793-2.806-3.5993-12.6922-2.6168-13.7594,2.6932A33.6579,33.6579,0,0,0,295.2914,205.4366Z"/><path class="b38a30d2-919a-4792-af3f-ca6d9403f27e" d="M295.2914,205.4366a25.984,25.984,0,0,0,.4545,5.629c.3557,1.8746.7792,5.3779,2.7976,6.3067a4.2,4.2,0,0,0,1.8914.319,11.9782,11.9782,0,0,0,7.95-3.58c3.6529-3.653,4.3728-13.1468,1.2929-17.0793-2.806-3.5993-12.6922-2.6168-13.7594,2.6932A33.6579,33.6579,0,0,0,295.2914,205.4366Z"/><path class="e98f9d7a-0564-4b01-b012-3afe0c22afe3" d="M309.15,213.2055c2.9726-4.13,3.382-12.5342.5279-16.1731a3.3737,3.3737,0,0,0-.5279-.5533l.6183,7.5883-.6183,2.27Z"/><path class="b8cbb1f1-7cfe-4937-b826-0e9c27b2b986" d="M297.2647,205.7556a.48.48,0,1,1-.9372,0,.48.48,0,1,1,.9372,0Z"/><path class="b8cbb1f1-7cfe-4937-b826-0e9c27b2b986" d="M302.7046,205.9814a.4773.4773,0,1,1-.4685-.5815A.5331.5331,0,0,1,302.7046,205.9814Z"/><path class="a9223637-a5b0-48f6-853c-6afaa5cbf6df" d="M310.451,205.5354c.4461-.4235.83-1.5894,1.6176-1.18a2.3372,2.3372,0,0,0,.2484.0818c.3049.13.35.44.4545.703a6.2412,6.2412,0,0,1,.319,1.4679c0,.017.0678.017.0763,0,.1129-.8779-.0537-2.2838-.9542-2.6988a1.8078,1.8078,0,0,0-2.2556,1.5583c.0084.1807.4093.144.494.0678Z"/><path class="a1fdd4da-ec62-45f8-a1fb-a5be2639dff5" d="M309.4291,204.3328a19.3081,19.3081,0,0,0-.302,2.2753c.1213.4235.5278.5533.6661.2117.7171-.6492.6183-2.3967,1.7983-2.5633,1.2873-.1807,1.53,1.7023,1.499,2.5633a9.119,9.119,0,0,0,1.27-3.78c.0085-.6832.0085-2.3459,0-3.5711-.0226-3.7518-.6437-4.9092-4.8189-4.6438a3.9674,3.9674,0,0,0-3.3368,2.0184c-.6041,1.3325.2428,2.4447,1.1066,3.3876A6.6026,6.6026,0,0,1,309.4291,204.3328Z"/><path class="b38a30d2-919a-4792-af3f-ca6d9403f27e" d="M312.69,204.361c1.2337,1.2506.4546,4.8584-2.0354,6.03-.6125-.6888-.59-2.5266-.6577-3.4327a3.55,3.55,0,0,1,.4545-2.504A1.5865,1.5865,0,0,1,312.69,204.361Z"/><path class="e98f9d7a-0564-4b01-b012-3afe0c22afe3" d="M310.6684,206.8283c-.0282.1807-.1666.5448-.0367.6889a.9326.9326,0,0,0,.3867.2568.6161.6161,0,0,0,.7341-.28,2.5483,2.5483,0,0,0,.2342-.9372.7738.7738,0,0,0-.13-.6437.2484.2484,0,0,0-.271,0c-.26.2485-.1835.7115-.2287,1.0361a1.1548,1.1548,0,0,1-.2033.5816c-.0394.0451-.0452.0225.0537.0169.09-.0085-.0226-.031-.0762-.0706-.1582-.1186-.0988-.46-.113-.6493-.0084-.1214-.3331-.1129-.35,0Z"/><path class="e98f9d7a-0564-4b01-b012-3afe0c22afe3" d="M311.38,205.9955c.3331-.4291.6662,0,.7424.3247a1.8747,1.8747,0,0,1,.0226.59,5.92,5.92,0,0,1-.463,1.0981c-.0367.0988.1751.0988.22.0678a1.62,1.62,0,0,0,.5589-2.1484c-.2795-.4375-1.149-.4911-1.3607.0311-.0452.113.2258.1044.2795.0367Z"/><path class="e404c36c-9df8-48ff-9431-8679c2445cee" d="M295.8052,199.6268a18.3541,18.3541,0,0,0,13.2541-1.4058,26.0292,26.0292,0,0,0,3.0686-2.1342c1.1885-.9006-.9147-2.9134-1.55-3.3651-3.0319-2.1793-7.1564-1.2873-10.3634-.0084-1.5724.6351-4.04,1.6486-6.0581.8469a1.8828,1.8828,0,0,0,1.2251,1.9,3.7044,3.7044,0,0,1-2.8737-.7961A4.3017,4.3017,0,0,0,295.8052,199.6268Z"/><path class="ff62248d-7355-479c-bc77-5ae8f7a8ae53" d="M297.7051,211.1616a1.8187,1.8187,0,0,0,3.636,0Z"/><path class="e98f9d7a-0564-4b01-b012-3afe0c22afe3" d="M298.377,206.1706c-.288.5589-.4912,1.1574-.765,1.7248a5.2937,5.2937,0,0,0-.528,1.2619c-.0987.6211,1.0586,1.1885,1.5358,1.2788.4149.0847.8327-.3387.2427-.4234a1.9567,1.9567,0,0,1-.8412-.5223c-.5223-.415-.2795-.7932-.0536-1.2844a3.7365,3.7365,0,0,0,.5166-2.027c-.0085-.04-.0932-.04-.1073-.0084Z"/><path class="bbd2cc88-d8c8-494c-bd82-1a057dcce91a" d="M295.6838,204.6489a.2441.2441,0,0,1-.1722-.4149,1.9485,1.9485,0,0,1,1.4962-.5223,1.5517,1.5517,0,0,1,1.1348.4771.2419.2419,0,0,1-.0451.3473.2492.2492,0,0,1-.3416-.0368,1.0934,1.0934,0,0,0-.7791-.302,1.4747,1.4747,0,0,0-1.1179.3782A.2264.2264,0,0,1,295.6838,204.6489Z"/><path class="bbd2cc88-d8c8-494c-bd82-1a057dcce91a" d="M303.3991,205.0809a.3139.3139,0,0,1-.1806-.0763,1.7833,1.7833,0,0,0-2.27-.2032.2441.2441,0,1,1-.2428-.4235,2.2962,2.2962,0,0,1,2.8766.2879.2479.2479,0,0,1-.0084.3473A.2683.2683,0,0,1,303.3991,205.0809Z"/><path class="a4fc2d53-07ff-4c3b-854d-13f69a8f8446" d="M323.7107,246.7542c.1129,1.4821.2258,2.9726.3388,4.4547.1891,2.5633.3868,5.1351.59,7.7012H287.2571c.0847-1.0445.1666-2.089.2654-3.1335l-5.9312-3.3877,3.8648-22.505a8.0748,8.0748,0,0,1,3.6783-4.9233l11.5885-4.7371s1.9817,5.9171,9.4458,0l12.4665,5.2282s6.651,2.1258,7.7915,5.7194l7.512,21.1106-13.6154,2.5435Z"/><path class="b1e580b1-3955-4996-983a-b28b9538c32c" d="M324.45,255.051a.2365.2365,0,0,1-.1948-.1044c-1.1123-1.5442-1.6035-3.8675-2.0439-5.917-.1271-.6042-.2569-1.18-.3839-1.708a75.4983,75.4983,0,0,1-1.787-12.1191c-.2259-2.8372-.573-7.1253,1.6712-9.9032a.2447.2447,0,1,1,.3783.3105c-2.1257,2.6254-1.7841,6.7951-1.5583,9.556A75.06,75.06,0,0,0,322.3105,247.2c.13.528.2513,1.118.3868,1.7249.4149,1.9959.9005,4.2741,1.9506,5.7392a.2421.2421,0,0,1-.0536.3416A.32.32,0,0,1,324.45,255.051Z"/><path class="b1e580b1-3955-4996-983a-b28b9538c32c" d="M288.4372,252.3579h0a.2453.2453,0,0,1-.2485-.2484v-1.499c0-1.7306,0-3.5317.0367-5.3017.1666-7.9354.72-16.15,5.4089-21.7795a.2437.2437,0,0,1,.3472-.0283.2483.2483,0,0,1,.0311.3473c-4.5846,5.4992-5.1294,13.6239-5.2959,21.469-.0452,1.7615-.0452,3.5626-.0368,5.2932v1.499A.25.25,0,0,1,288.4372,252.3579Z"/><path class="b38a30d2-919a-4792-af3f-ca6d9403f27e" d="M270.6606,226.4341c-1.9281.1666.6211,5.0617.6578,6.0977-.5054-1.1574-2.0862-5.6968-3.365-5.5359-.7482.1581,1.2251,4,1.4453,4.7879-.4319-.6211-1.7333-3.3679-2.58-3.0489-.5364.37.8921,2.95,1.1885,3.8111-.1751-.15-1.5047-2.5549-1.86-2.1-.3868.415.28,2.2217.6719,3.1,1.7841,3.9353,3.6474,8.3364,5.9311,6.4365,1.7023-1.4143,2.6029-2.2443,3.1-8.6074.0763-1.1038-1.6938-.1665-2.3205,1.99C273.0207,233.1218,270.8949,226.42,270.6606,226.4341Z"/><path class="e98f9d7a-0564-4b01-b012-3afe0c22afe3" d="M273.159,234.6266a1.0291,1.0291,0,0,1,.1129-.1356c.0593-.0762-.2286-.1214-.2964-.0451-.031.0451-.0677.09-.0988.1439.0988-.0141.1891-.0226.2879-.0367a.3884.3884,0,0,0-.4375-.0253,1.1118,1.1118,0,0,0-.2061.2963c-.09.1525-.271.1751-.3783.3021a2.3078,2.3078,0,0,0,.1665,2.4137c.0763.1214.5082.1129.4461-.0593a4.3289,4.3289,0,0,1-.4234-1.6515.8877.8877,0,0,1,.4177-.734c.1045-.0959.3389-.3528.1723-.429.0706.0282.2427.0508.2879-.0311a.9689.9689,0,0,1,.0621-.144c.0367-.1129-.2569-.1355-.2964-.0451-.0141.0536-.031.0988-.0452.1439-.031.0988.1807.09.2287.0368Z"/><path class="b1e580b1-3955-4996-983a-b28b9538c32c" d="M305.4486,225.0509c-.1891,0-.3924-.0142-.59-.0311-.1637-.0141-.3387-.0225-.4912-.0225a5.41,5.41,0,0,1-2.0495-.5054,3.1134,3.1134,0,0,1-.9231-.5138,4.9663,4.9663,0,0,0-.5674-.3557,2.5711,2.5711,0,0,1-1.0728-.94.2811.2811,0,0,1-.0395-.1355.1873.1873,0,0,0-.0452-.0592.4748.4748,0,0,1-.2484-.1384.24.24,0,0,1,0-.3472.2456.2456,0,0,1,.3387,0,.3448.3448,0,0,1,.2513.13.6438.6438,0,0,1,.1892.3246,1.9915,1.9915,0,0,0,.8553.7255,4.6139,4.6139,0,0,1,.6126.3952,2.7736,2.7736,0,0,0,.8017.4461,4.9856,4.9856,0,0,0,1.8971.4828c.1666,0,.35.014.5307.0225a3.129,3.129,0,0,0,1.005-.0141,4.93,4.93,0,0,0,1.77-.59c.1525-.0678.3021-.13.4687-.1977.144-.0592.2879-.1129.4093-.1749a2.0487,2.0487,0,0,0,.7933-.5647.2076.2076,0,0,1,.0706-.0479,1.8809,1.8809,0,0,1,.1947-.09,2.088,2.088,0,0,0,.5986-.3557,1.1864,1.1864,0,0,0,.2935-.3557.2259.2259,0,0,1,.2428-.2174.2533.2533,0,0,1,.2428.2569c0,.1892-.1525.3784-.44.6663a2.3969,2.3969,0,0,1-.74.4517c-.0537.0225-.0989.0451-.144.0677a2.3492,2.3492,0,0,1-.9231.6437c-.0988.0451-.257.1129-.415.175-.1525.0593-.2965.1214-.4093.175a5.6367,5.6367,0,0,1-1.9056.6409A2.6233,2.6233,0,0,1,305.4486,225.0509Zm-5.6884-3.04-.1665.1665.1835-.158C299.7772,222.0105,299.7772,222.0105,299.76,222.0105Z"/><polygon class="f834ebcb-d163-4796-998a-74ae2f1e48bf" points="562.676 552.907 548.651 561.151 529.226 537.468 549.12 524.841 562.676 552.907"/><path class="bc00a848-5237-4e62-aaec-eb33264c737e" d="M560.0676,545.5675l15.8767,19.1541L504.72,608.8143c-4.1386-8.7062,1.0812-14.44,1.0812-14.44L524.8026,575.5l12.0118-18.2677s-.3641-4.2289,1.4229-5.3638c0,0,10.8234-1.6938,8.8784,3.3764C547.1157,555.2448,557.222,549.0623,560.0676,545.5675Z"/><polygon class="e97f2e71-41f6-4d29-b317-6c81fe074823" points="578.152 567.703 506.715 612.044 504.72 608.814 575.557 564.239 578.152 567.703"/><path class="ff62248d-7355-479c-bc77-5ae8f7a8ae53" d="M542.17,567.6576a1.1459,1.1459,0,0,0,.6944-.5c.81-1.5809-4.0368-5.1972-4.0905-5.2282a9.6921,9.6921,0,0,0-4.576-1.6854,1.063,1.063,0,1,0-.0311,2.1258,7.6645,7.6645,0,0,1,3.3876,1.3155,21.6185,21.6185,0,0,1,3.0714,2.9048,1.0451,1.0451,0,0,0,.5985,1.0135A1.451,1.451,0,0,0,542.17,567.6576Z"/><path class="ff62248d-7355-479c-bc77-5ae8f7a8ae53" d="M536.8511,571.2428a1.037,1.037,0,0,0,.4631-.2739,1.0573,1.0573,0,0,0,.0141-1.5046,29.4847,29.4847,0,0,0-5.2875-3.9551,1.0559,1.0559,0,0,0-1.4511.3924,1.0681,1.0681,0,0,0,.3924,1.4511,27.9766,27.9766,0,0,1,4.833,3.6106A1.0816,1.0816,0,0,0,536.8511,571.2428Z"/><path class="ff62248d-7355-479c-bc77-5ae8f7a8ae53" d="M533.91,575.3334a1.05,1.05,0,0,0,.7565-.8018c.2654-1.2026-3.63-4.226-4.864-4.81a1.0632,1.0632,0,0,0-.909,1.9224,14.4784,14.4784,0,0,1,3.8505,3.2437,1.0112,1.0112,0,0,0,.6578.463A1.0659,1.0659,0,0,0,533.91,575.3334Z"/><path class="ff62248d-7355-479c-bc77-5ae8f7a8ae53" d="M529.8388,579.0033a1.0834,1.0834,0,0,0,.3782-.1892,1.0686,1.0686,0,0,0,.1892-1.499,9.5455,9.5455,0,0,0-3.4779-3.1674,1.0633,1.0633,0,1,0-.8469,1.9507,8.1206,8.1206,0,0,1,2.6395,2.5266A1.0769,1.0769,0,0,0,529.8388,579.0033Z"/><path class="ff62248d-7355-479c-bc77-5ae8f7a8ae53" d="M525.5055,582.49a1.1785,1.1785,0,0,0,.1975-.0678,1.0863,1.0863,0,0,0,.257-1.7926,10.4894,10.4894,0,0,0-2.7017-2.82,1.0768,1.0768,0,0,0-1.4679.3388,1.0637,1.0637,0,0,0,.3415,1.4764,8.3929,8.3929,0,0,1,2.0637,2.185A1.24,1.24,0,0,0,525.5055,582.49Z"/><path class="a618a4b7-ca47-4b5a-b7e0-5b77f041e7ac" d="M601.12,315.9971c17.0256-2.1257,36.0273-10.8912,50.3767,12.0571,7.0971,11.3542,5.6743,26.9682,0,41.1511-7.4414,18.6149-26.2541,22.7168-64.568,24.1311-10.9533.4066-58.7384-5.008-62.702,5.5359-6.1118,16.2634,12.7911,38.0881,17.4575,53.307,0,0,21.8615,50.9216,18.3977,87.9426,0,0-14.0925,9.57-27.866,10.0612-15.16-31.1576-34.0033-72.224-38.7685-85.8874-6.77-19.4082-21.5819-48.7958-25.7261-69.5449-4.76-23.911-2.8287-29.797,17.034-42.574,9.858-6.3291,50.2723-18.2056,39.0254-14.9Z"/><path class="a1ec3a45-0775-4481-8b5c-2f803ba58260" d="M580.9156,111.2523s9.937,8.1557,11.707,19.5155l-1.0643,17.3757h35.8326l-9.5785-36.8912Z"/><path class="a6c121e9-0913-40bc-938f-b77acfbd7ae1" d="M617.8124,111.2523l1.8463,7.0942c-7.3145,1.9988-13.2,3.1026-19.8487,6.03-4.9459,2.1709-6.1485,12.8983-7.89,17.9205l.7029-11.5292c-1.77-11.36-11.707-19.5155-11.707-19.5155Z"/><path class="a1ec3a45-0775-4481-8b5c-2f803ba58260" d="M581.1782,120.2916s-3.1844.3191-4.4689-2.1709c-8.4888-11.899-6.6284-10.3774-7.7237-22.8438-1.22-13.8808,2.0269-25.1672,3.1984-34.4408,2.1709-17.0425,5.5444-17.7991,16.5146-22.3667.0057,0,13.8187-5.7647,26.2767,1.4284,17.2486,9.9765,16.8929,35.0844,16.7574,52.8751-.09,10.9674-4.7822,13.6775-15.6,19.6679C616.1327,112.4408,598.6215,122.7589,581.1782,120.2916Z"/><path class="b0cbc70c-9969-4cde-8b6c-c8a8dc730ac6" d="M539.3862,188.2811c1.4228-21.2856,2.7073-35.3413,4.2572-45.4082.81-5.2593,5.5838-4.4265,31.9311-5.6827,14.9-.7114,44.1067.96,61.0223,2.8371,12.7684,1.4228,28.933,17.912,27.6683,35.4769-1.7927,24.8792-19.3348,61.7337-22.8749,84.4419l7.2693,28.38s-44.7053,15.6056-85.8535.7058l.7114-44.7Z"/><path class="bd3728d1-95bb-401e-9bc3-bb63726e12d9" d="M569.0081,39.1045c.7707,11.7918,10.3407,18.5246,16.2182,24.7042,4.4943,4.7286,5.1436,6.9362,4.0087,15.7327,1.2111-.0282,3.6615,2.6875,3.7207,1.5978.2428-4.17,1.3325-3.7969,2.8908-4.63,6.62-3.5542,9.6745,3.4327,10.3718,6.6256,1.9055,8.6779-9.4176,7.0744-9.66,15.2047-.206,7.1423,6.6172,12.6556,11.2639,19.0639,5.2112,7.193,14.7417,5.2028,21.0737-.8413,4.9008-4.689,10.62-13.7961,13.367-20.06,3.0545-6.9757,6.9644-17.785,7.162-25.19.5082-17.8076-5.1971-29.7263-23.0866-38.39-10.1064-4.8866-24.3344-7.1394-35.5079-5C590.83,27.9225,573.7592,30.4577,569.0081,39.1045Z"/><path class="a1ec3a45-0775-4481-8b5c-2f803ba58260" d="M592.3291,83.8775a8.4268,8.4268,0,1,0,7.0208-9.6293A8.4348,8.4348,0,0,0,592.3291,83.8775Z"/><path class="a1ec3a45-0775-4481-8b5c-2f803ba58260" d="M570.8233,69.308c-1.4906,9.35-6.4224,9.9934-7.6843,12.7459-1.6118,3.4864,3.334,4.6212,7.23,10.5976,3.23-8.8953,9.2905-14.0248,4.9092-23.6Z"/><path class="f834ebcb-d163-4796-998a-74ae2f1e48bf" d="M432.0016,297.1535l-24.2046-2.3741-27.3606,8.6073s-5.3271,2.4532-2.4673,5.1746l49.191.0988S435.1944,307.1159,432.0016,297.1535Z"/><path class="f834ebcb-d163-4796-998a-74ae2f1e48bf" d="M540.809,275.9075c19.16-46.1224,26.0734-75.6144,32.4647-108.384,2.6564-20.2184-4.7427-29.0319-11.1792-29.9776-18.0954-2.6621-22.1719,3.5485-25.5454,22.3526-7.45,30.3333-10.9985,59.7745-15.9613,91,0,0-14.9,25.3648-88.5862,46.2551l-2.9416,8.9038S522.3578,295.24,540.809,275.9075Z"/><polygon class="f834ebcb-d163-4796-998a-74ae2f1e48bf" points="530.189 571.031 514.575 575.644 501.451 547.975 523.795 540.523 530.189 571.031"/><path class="a847602f-e615-4762-b3c4-ed4a979a23d7" d="M529.4154,563.2847l10.781,22.42-79.7586,25.5765c-1.914-9.44,4.5309-13.7453,4.5309-13.7453L487.9706,583.8l16.06-14.8038s.68-4.2063,2.6846-4.8782c0,0,10.9167.9739,7.8,5.423C514.5155,569.5405,525.8216,565.9779,529.4154,563.2847Z"/><polygon class="e97f2e71-41f6-4d29-b317-6c81fe074823" points="541.625 589.124 461.601 614.904 460.438 611.282 539.945 585.138 541.625 589.124"/><path class="ff62248d-7355-479c-bc77-5ae8f7a8ae53" d="M505.3689,581.4084a1.0926,1.0926,0,0,0,.8017-.302c1.1941-1.3155-2.5491-6.0667-2.5859-6.1033A9.7717,9.7717,0,0,0,499.59,572.18a1.0644,1.0644,0,0,0-.5759,2.05,7.4538,7.4538,0,0,1,2.9274,2.1484,21.46,21.46,0,0,1,2.2161,3.6021,1.0333,1.0333,0,0,0,.31,1.1349A1.46,1.46,0,0,0,505.3689,581.4084Z"/><path class="ff62248d-7355-479c-bc77-5ae8f7a8ae53" d="M499.3022,583.4975a1.02,1.02,0,0,0,.5223-.144,1.0537,1.0537,0,0,0,.4008-1.4454,29.2194,29.2194,0,0,0-4.0764-5.1972,1.062,1.062,0,1,0-1.499,1.5048,27.6812,27.6812,0,0,1,3.7207,4.737A1.0764,1.0764,0,0,0,499.3022,583.4975Z"/><path class="ff62248d-7355-479c-bc77-5ae8f7a8ae53" d="M495.398,586.6875a1.06,1.06,0,0,0,.9457-.5816c.5674-1.09-2.4052-5.0221-3.45-5.9085a1.0625,1.0625,0,1,0-1.3748,1.62,14.22,14.22,0,0,1,2.8653,4.13,1.0937,1.0937,0,0,0,.5223.6211A1.24,1.24,0,0,0,495.398,586.6875Z"/><path class="ff62248d-7355-479c-bc77-5ae8f7a8ae53" d="M490.52,589.1689a.99.99,0,0,0,.4093-.0819,1.063,1.063,0,0,0,.573-1.3916,9.6048,9.6048,0,0,0-2.5322-3.972,1.0664,1.0664,0,1,0-1.3324,1.6655,8.0428,8.0428,0,0,1,1.9,3.1308A1.0613,1.0613,0,0,0,490.52,589.1689Z"/><path class="ff62248d-7355-479c-bc77-5ae8f7a8ae53" d="M485.43,591.4161a1.0689,1.0689,0,0,0,1.1038-1.0954,1.05,1.05,0,0,0-.1807-.5843,10.2218,10.2218,0,0,0-1.8857-3.4272,1.0685,1.0685,0,0,0-1.5583,1.4623,8.2194,8.2194,0,0,1,1.4313,2.6537C484.4447,590.699,484.7016,591.4161,485.43,591.4161Z"/><path class="a618a4b7-ca47-4b5a-b7e0-5b77f041e7ac" d="M551.3615,330.3634,462.253,357.4587s-31.7561,14.5442-23.95,50.7409c0,0,27.8462,104.827,63.323,157.3322,19.8713-3.5485,26.9655-9.2227,26.9655-9.2227-10.112-63.6844-35.7422-147.8442-35.7422-147.8442.7961-9.4938,11.9385-9.601,21.5509-10.0244l98.7829.5306c12.5653-.5984,33.1874-8.102,40.818-18.4879,6.7188-9.1437,18.073-27.5865,6.7188-56.6861l-12.06-35.4712s-55.1646,8.8671-85.7632-.1806Z"/><path class="bd3728d1-95bb-401e-9bc3-bb63726e12d9" d="M595.3694,231.253a15.2535,15.2535,0,0,0,4.0849,1.5527c17.2006,3.9325,44.29.7481,58.9644-9.5842,14.3663-10.1148,12.8587-14.1856,11.7013-26.0761-1.6938-17.435-6.2106-44.16-7.9637-61.7253-1.7474-17.3671-2.7468-34.819-5.327-52.1495-2.2979-15.4306-4.5677-35.0224-20.2325-44.0531-11.93-6.8769-28.0129-10.7191-41.727-9.7507-6.4281.4545-13.48,2.1567-17.61,7.5261-5.2931,6.891.4178,16.3085,3.6163,22.8382,0,0,8.89,8.0089,9.426,99.531C590.4009,176.526,575.5745,220.1557,595.3694,231.253Z"/><path class="bd26886f-db9b-4854-a6bc-765e33fb2cc7" d="M456.02,467.4829a1.07,1.07,0,0,1-1.0079-.72c-5.4371-15.9924-10.31-32.1343-13.0169-43.1921l-.5222-2.1173c-2.1568-8.6864-4.3729-17.6636-3.8958-26.9315.878-17.17,9.1691-28.5322,27.7164-38.0176a121.0149,121.0149,0,0,1,19.3263-7.45c2.45-.7791,4.9629-1.5809,7.5939-2.49,4.5846-1.5809,16.7772-4.7794,29.6756-8.1614,7.1478-1.8772,14.4849-3.8054,20.7633-5.5217a1.0674,1.0674,0,0,1,1.31.7481,1.056,1.056,0,0,1-.7481,1.31c-6.2868,1.7164-13.6238,3.6389-20.78,5.5219-12.8673,3.3735-25.0148,6.5578-29.5231,8.1161-2.6564.9147-5.183,1.7164-7.6475,2.504a118.7729,118.7729,0,0,0-19.0018,7.3229c-17.7849,9.0845-25.72,19.9164-26.5674,36.2249-.4545,8.9546,1.7334,17.7766,3.8422,26.3078l.5223,2.12c2.7016,11.0041,7.543,27.0868,12.9661,43.0171a1.0673,1.0673,0,0,1-.6663,1.3551A1.088,1.088,0,0,1,456.02,467.4829Z"/><path class="bd26886f-db9b-4854-a6bc-765e33fb2cc7" d="M520.2264,511.121a1.0617,1.0617,0,0,1-1.0134-.7424c-.751-2.36-1.7786-7.9355-2.7017-12.8588-.5-2.6791-.9457-5.0758-1.2478-6.3913l-1.2336-5.44c-7.0491-31.0955-14.3409-63.244-31.0729-91.6351a1.06,1.06,0,1,1,1.8293-1.0727c16.907,28.6621,24.23,60.9828,31.3157,92.2392l1.2421,5.4315c.3021,1.3325.7481,3.76,1.2534,6.4759.8639,4.63,1.9366,10.369,2.6424,12.6077a1.0711,1.0711,0,0,1-.6889,1.3409A1.2514,1.2514,0,0,1,520.2264,511.121Z"/><path class="bd26886f-db9b-4854-a6bc-765e33fb2cc7" d="M492.9109,409.2977a1.0545,1.0545,0,0,1-1.053-.9541c-.4517-4.5,4.9036-8.3364,8.39-9.6971,7.0491-2.7609,22.8213-2.1483,29.2747-1.7475,1.595.0989,8.4267.1045,16.34.113,17.9939.0311,33.0942.0819,35.6039.6041a1.0693,1.0693,0,0,1,.8327,1.2562,1.0907,1.0907,0,0,1-1.2561.8329c-2.5041-.5223-21.3929-.5449-35.18-.559-8.277-.0169-14.8123-.0226-16.47-.1214-4.9233-.3021-21.5282-1.0812-28.3741,1.6035-3.1448,1.2251-7.3455,4.5224-7.0406,7.5035a1.059,1.059,0,0,1-.9542,1.1575A.5116.5116,0,0,1,492.9109,409.2977Z"/><path class="bd26886f-db9b-4854-a6bc-765e33fb2cc7" d="M492.5637,410.0063a1.0712,1.0712,0,0,1-1.0163-.7312,21.5628,21.5628,0,0,1,4.8584-20.5854,1.0651,1.0651,0,1,1,1.5273,1.485,19.5772,19.5772,0,0,0-4.356,18.44,1.0761,1.0761,0,0,1-.6888,1.3466A1.1861,1.1861,0,0,1,492.5637,410.0063Z"/><path class="bd26886f-db9b-4854-a6bc-765e33fb2cc7" d="M606.2917,306.732a190.35,190.35,0,0,1-27.5781-2.0128c-4.9854-.7425-11.21-1.6656-15.5011-5a1.0709,1.0709,0,0,1-.1807-1.499,1.0461,1.0461,0,0,1,1.4821-.1807c3.859,2.9952,9.7676,3.8647,14.5159,4.5677a185.06,185.06,0,0,0,69.4659-2.9049,1.0586,1.0586,0,0,1,1.2845.7876,1.079,1.079,0,0,1-.7876,1.2873A184.3053,184.3053,0,0,1,606.2917,306.732Z"/><path class="bd26886f-db9b-4854-a6bc-765e33fb2cc7" d="M604.5386,293.9776a200.6441,200.6441,0,0,1-28.0947-1.9733l-.4008-.0536c-4.0313-.5759-8.6017-1.22-12.3761-3.0263a1.0682,1.0682,0,0,1,.9316-1.9225c3.4638,1.674,7.8593,2.2923,11.738,2.8371l.4094.0622a201.4636,201.4636,0,0,0,70.9762-2.71,1.0639,1.0639,0,1,1,.4461,2.0806A206.0317,206.0317,0,0,1,604.5386,293.9776Z"/><path class="bd26886f-db9b-4854-a6bc-765e33fb2cc7" d="M514.3772,559.9027a1.0587,1.0587,0,0,1-1.0361-.8327c-2.8061-12.3225-34.3646-106.6112-35.8608-109.8859-1.68-3.6841-3.2691-7.481-4.8132-11.1509-.8017-1.914-1.6091-3.8421-2.4335-5.7476-4.9176-11.4756-7.5205-20.8649-8.2093-29.5542-.8695-11.0832,2.36-19.88,9.6237-26.1581,10.8234-9.3723,26.9513-12.3761,38.122-13.8215,8.5424-1.1037,17.2316-1.8519,25.6358-2.5774l.9626-.0847c8.8728-.7621,17.3447-.6718,26.2992-.5814l4.9714.0536c10.702.1129,26.892.2794,32.5493-9.8495,2.8428-5.0984,2.82-11.165,2.7976-17.0284l-.0057-2.0862c.0057-1.9536.0763-4.0115.1441-6.0977a93.5957,93.5957,0,0,0-.1384-13.0029,1.07,1.07,0,0,1,.94-1.1743,1.0827,1.0827,0,0,1,1.18.9457,97.0756,97.0756,0,0,1,.15,13.2992c-.0762,2.0664-.1439,4.1075-.15,6.0356l.0057,2.0664c.0225,6.1429.0536,12.4947-3.0715,18.0786-6.2783,11.2328-23.2278,11.0521-34.4239,10.9392l-4.9628-.048c-8.9094-.09-17.3305-.1891-26.1044.5759l-.9542.0762c-8.3871.7255-17.0482,1.4736-25.5426,2.58-10.9167,1.3974-26.621,4.3108-37.0126,13.3134-6.7187,5.807-9.714,14.0078-8.8981,24.38.6662,8.4492,3.2239,17.6325,8.0512,28.8794q1.2365,2.871,2.4335,5.7646c1.5357,3.6614,3.125,7.4358,4.7963,11.0888,1.5046,3.2916,33.1845,97.9445,35.9906,110.3036a1.05,1.05,0,0,1-.8017,1.27A1.0924,1.0924,0,0,1,514.3772,559.9027Z"/><path class="bd26886f-db9b-4854-a6bc-765e33fb2cc7" d="M597.8367,352.6229c-4.2232,0-12.9661-4.1583-14.3663-5.104-4.6805-3.1618-7.5939-8.1924-9.378-11.71-4.7286-9.3131-5.3863-22.2764-1.6431-32.2557a1.0646,1.0646,0,0,1,1.99.7566c-3.5485,9.44-2.9274,21.7174,1.55,30.5393,1.68,3.2973,4.3955,8.0173,8.678,10.9053,3.0178,2.0438,12.0035,5.2056,13.57,4.7822a1.0736,1.0736,0,0,1,1.3522-.1214,1.0585,1.0585,0,0,1,.2795,1.4764A2.3264,2.3264,0,0,1,597.8367,352.6229Z"/><path class="bf4f74f2-b2ad-4e0b-a525-297c87bc6c71" d="M567.5938,200.1575a1.0338,1.0338,0,0,1-.4009-.0762,1.0525,1.0525,0,0,1-.5815-1.3917c3.5626-8.7147,6.2473-21.9434,6.8374-33.7068.6887-13.7594-.63-21.4973-9.7508-25.5822a1.0614,1.0614,0,1,1,.87-1.9366c11.21,5.0137,11.6111,15.4842,11.007,27.6317-.5986,11.9753-3.3453,25.4777-6.9983,34.4041A1.055,1.055,0,0,1,567.5938,200.1575Z"/><path class="bf4f74f2-b2ad-4e0b-a525-297c87bc6c71" d="M574.832,260.8918a1.0454,1.0454,0,0,1-.8243-.3867c-8.17-10.03-13.2512-18.7363-16.9974-29.1166a1.0658,1.0658,0,0,1,2.0043-.7255,90.6568,90.6568,0,0,0,14.5922,25.9238,1.0387,1.0387,0,0,1,.7424.4855l.46.7312c.302.4856.5985.9683.909,1.4454a1.0625,1.0625,0,0,1-.2569,1.4369A1.0814,1.0814,0,0,1,574.832,260.8918Z"/><path class="ef9bac48-0ca1-4fb1-b859-f716d747ff87" d="M568.8557,335.4138a7.8462,7.8462,0,0,0,7.8536,7.8536h142.534a7.85,7.85,0,0,0,7.8536-7.8536l20.2185-157.7755a7.8474,7.8474,0,0,0-7.8508-7.8451H596.9362a7.8492,7.8492,0,0,0-7.8592,7.8451Z"/><polygon class="e1dc88f3-04e7-42e3-8760-f9e7ef7170d2" points="625.55 406.89 653.806 406.89 678.343 283.425 650.099 283.425 625.55 406.89"/><rect class="ad51c6ad-e3b4-4ec4-993c-b4a56f475936" x="597.6476" y="459.9934" width="36.0047" height="33.5177"/><polygon class="e2cd8bab-2438-4c42-a1ef-eced362be5e9" points="545.385 459.985 693.54 459.985 699.426 440.173 539.499 440.173 545.385 459.985"/><polygon class="e1dc88f3-04e7-42e3-8760-f9e7ef7170d2" points="601.459 440.173 699.426 440.173 693.54 459.985 606.647 459.985 601.459 440.173"/><rect class="b996c8d5-f209-45e3-b09c-4b4a167b9ec0" x="605.4165" y="493.5111" width="20.4754" height="74.7958"/><rect class="afebf30d-3692-472e-a487-48eede480b7f" x="617.1235" y="493.5111" width="8.7683" height="74.7958"/><rect class="ad51c6ad-e3b4-4ec4-993c-b4a56f475936" x="597.6476" y="568.3068" width="36.0047" height="43.737"/><polygon class="ad51c6ad-e3b4-4ec4-993c-b4a56f475936" points="723.783 626.811 715.271 626.811 715.271 606.175 516.043 606.175 516.043 626.811 507.531 626.811 507.531 597.658 723.783 597.658 723.783 626.811"/><rect class="ad51c6ad-e3b4-4ec4-993c-b4a56f475936" x="660.3467" y="601.7201" width="8.5199" height="25.091"/><rect class="ad51c6ad-e3b4-4ec4-993c-b4a56f475936" x="556.0053" y="602.5585" width="8.5086" height="25.0909"/><path class="a421fe53-5409-498d-a494-045ba74a554c" d="M703.6151,636.1891a16.2521,16.2521,0,1,0,16.2577-16.2465A16.2473,16.2473,0,0,0,703.6151,636.1891Z"/><path class="abdab930-21aa-452b-a168-3936770a7cb0" d="M711.7482,636.1834a8.12,8.12,0,1,0,8.1246-8.119A8.1222,8.1222,0,0,0,711.7482,636.1834Z"/><path class="a421fe53-5409-498d-a494-045ba74a554c" d="M648.3574,636.1891a16.2451,16.2451,0,1,0,16.2493-16.2465A16.24,16.24,0,0,0,648.3574,636.1891Z"/><path class="abdab930-21aa-452b-a168-3936770a7cb0" d="M656.4736,636.1834a8.1289,8.1289,0,1,0,8.1331-8.119A8.1294,8.1294,0,0,0,656.4736,636.1834Z"/><path class="a421fe53-5409-498d-a494-045ba74a554c" d="M544.0075,636.1891a16.2479,16.2479,0,1,0,16.2492-16.2465A16.24,16.24,0,0,0,544.0075,636.1891Z"/><path class="abdab930-21aa-452b-a168-3936770a7cb0" d="M552.1322,636.1834a8.1246,8.1246,0,1,0,8.1245-8.119A8.1275,8.1275,0,0,0,552.1322,636.1834Z"/><path class="a421fe53-5409-498d-a494-045ba74a554c" d="M495.5363,636.1891a16.2479,16.2479,0,1,0,16.2549-16.2465A16.245,16.245,0,0,0,495.5363,636.1891Z"/><path class="abdab930-21aa-452b-a168-3936770a7cb0" d="M503.6581,636.1834a8.1247,8.1247,0,1,0,8.1331-8.119A8.1294,8.1294,0,0,0,503.6581,636.1834Z"/><path class="a1e3aecd-118d-4e1a-a683-10535df2e06f" d="M577.3755,335.4138a7.8438,7.8438,0,0,0,7.8508,7.8536H727.7547a7.8511,7.8511,0,0,0,7.8593-7.8536l20.2184-157.7755a7.8474,7.8474,0,0,0-7.8508-7.8451H605.4448a7.842,7.842,0,0,0-7.8508,7.8451Z"/><path class="a1e3aecd-118d-4e1a-a683-10535df2e06f" d="M721.7473,419.5537c0,11.3909-8.1021,20.6193-18.0927,20.6193H559.1219c-9.9935,0-18.1011-9.2284-18.1011-20.6193h0c0-11.3908,8.1076-20.6277,18.1011-20.6277H703.6546c9.9906,0,18.0927,9.2369,18.0927,20.6277Z"/><path class="ef9bac48-0ca1-4fb1-b859-f716d747ff87" d="M506.3965,440.173H573.57c9.9906,0,18.0927-9.2284,18.0927-20.6193S583.5607,398.926,573.57,398.926H506.3965s-23.88-.5533-22.4571,23.5693C483.9394,422.4953,484.8681,440.173,506.3965,440.173Z"/></svg>