<svg id="b988eade-05f7-4864-96a3-63d81ee04c87" data-name="Capa 1" xmlns="http://www.w3.org/2000/svg" viewBox="0 0 670 570"><defs><style>.b7bd5469-577d-4f31-926d-6b1f741a1c20{fill:#00a99d;stroke:#006837;stroke-miterlimit:10;stroke-width:7px;}.a9446fab-e4c1-4d84-9562-0de90d5579e8,.b400478b-6215-4fed-b798-2a4160dcf30b,.bbe89bf3-c313-411a-bb39-4c66e0df4bfa,.bf1a23aa-df94-4e76-8332-7ce482348870,.e63fcc83-af2e-4e92-89c7-54bfb61ff5f4{fill:none;stroke:#fff;stroke-linecap:round;stroke-linejoin:round;stroke-width:2px;}.a9446fab-e4c1-4d84-9562-0de90d5579e8{stroke-dasharray:3 4;}.e886144a-041e-4465-89f1-bbd8ceb4e4bf{font-size:23.5421px;}.a235fab9-b9a5-4efa-ba22-2e5c4b821885,.ba4d5016-9dc8-4e76-ba75-3911bd0e1026,.e886144a-041e-4465-89f1-bbd8ceb4e4bf,.f0cfcc2f-cd09-4bc7-bc55-73c59c6036b1{fill:#fff;}.a235fab9-b9a5-4efa-ba22-2e5c4b821885,.ba4d5016-9dc8-4e76-ba75-3911bd0e1026,.e886144a-041e-4465-89f1-bbd8ceb4e4bf{font-family:Gaegu-Regular, Gaegu Regular;}.bbe89bf3-c313-411a-bb39-4c66e0df4bfa{stroke-dasharray:2.8082 3.7443;}.bf1a23aa-df94-4e76-8332-7ce482348870{stroke-dasharray:2.8662 3.8216;}.b400478b-6215-4fed-b798-2a4160dcf30b{stroke-dasharray:2.9158 3.8877;}.ba4d5016-9dc8-4e76-ba75-3911bd0e1026{font-size:32.8947px;}.a235fab9-b9a5-4efa-ba22-2e5c4b821885{font-size:30.8839px;}.ff9bf7a1-289e-4cbe-b709-ed74ee935cd7{letter-spacing:-0.2em;}.e6a12da1-b838-4976-afb9-c7ae048101b2{letter-spacing:0em;}.b68cff98-6ebe-4b65-beca-e1c835761752{letter-spacing:0em;}.fe083997-0d15-42c7-8ff5-8a913104af5b{letter-spacing:-0.2em;}.b8022907-9fe8-459f-b90c-23561729b6d8{fill:#77d4af;}.e58548f2-2b03-48db-bf4a-6ec38e72c903{fill:#eaaca4;}.f7e9ac81-bb27-4114-89ee-e26b96b2716f{fill:#203833;}.e53d9b2d-a149-4dcc-8e63-71747592b54f{fill:#3b5a57;}.e59485ad-e531-49d2-bc1e-bf945427edfa{fill:#3dc961;}.e72c13c7-d04b-414c-a043-39396df2464f{fill:#7ddbba;}</style></defs><rect class="b7bd5469-577d-4f31-926d-6b1f741a1c20" x="17.4163" y="16.3619" width="629.3947" height="281.8663"/><path class="e63fcc83-af2e-4e92-89c7-54bfb61ff5f4" d="M449.8945,50.2751c0,3.2512-15.5034,5.8867-34.6278,5.8867s-34.6277-2.6355-34.6277-5.8867"/><path class="e63fcc83-af2e-4e92-89c7-54bfb61ff5f4" d="M380.639,50.2751c0-3.2511,15.5033-5.8867,34.6277-5.8867s34.6278,2.6356,34.6278,5.8867"/><path class="e63fcc83-af2e-4e92-89c7-54bfb61ff5f4" d="M449.8945,120.2232c0,3.2511-15.5034,5.8867-34.6278,5.8867s-34.6277-2.6356-34.6277-5.8867"/><path class="a9446fab-e4c1-4d84-9562-0de90d5579e8" d="M380.639,120.2232c0-3.2511,15.5033-5.8867,34.6277-5.8867s34.6278,2.6356,34.6278,5.8867"/><line class="e63fcc83-af2e-4e92-89c7-54bfb61ff5f4" x1="380.639" y1="50.6214" x2="380.639" y2="120.2232"/><line class="e63fcc83-af2e-4e92-89c7-54bfb61ff5f4" x1="449.8945" y1="50.6214" x2="449.8945" y2="120.2232"/><line class="e63fcc83-af2e-4e92-89c7-54bfb61ff5f4" x1="371.6412" y1="46.4452" x2="371.6412" y2="124.2374"/><line class="e63fcc83-af2e-4e92-89c7-54bfb61ff5f4" x1="369.1873" y1="46.261" x2="374.0952" y2="46.261"/><line class="e63fcc83-af2e-4e92-89c7-54bfb61ff5f4" x1="369.1873" y1="124.2374" x2="374.0952" y2="124.2374"/><text class="e886144a-041e-4465-89f1-bbd8ceb4e4bf" transform="translate(359.735 91.3702) scale(0.759 1)">b</text><polygon class="e63fcc83-af2e-4e92-89c7-54bfb61ff5f4" points="486.879 117.763 524.605 38.895 519.954 127.667 486.879 117.763"/><polyline class="e63fcc83-af2e-4e92-89c7-54bfb61ff5f4" points="524.605 38.895 564.914 119.964 519.954 127.667"/><line class="e63fcc83-af2e-4e92-89c7-54bfb61ff5f4" x1="486.8794" y1="117.7628" x2="488.3675" y2="117.5745"/><line class="bbe89bf3-c313-411a-bb39-4c66e0df4bfa" x1="492.0821" y1="117.1046" x2="535.7293" y2="111.5831"/><polyline class="e63fcc83-af2e-4e92-89c7-54bfb61ff5f4" points="537.587 111.348 539.075 111.16 538.78 109.689"/><line class="bf1a23aa-df94-4e76-8332-7ce482348870" x1="538.03" y1="105.9419" x2="525.2745" y2="42.2396"/><line class="e63fcc83-af2e-4e92-89c7-54bfb61ff5f4" x1="524.8993" y1="40.366" x2="524.6048" y2="38.8952"/><line class="e63fcc83-af2e-4e92-89c7-54bfb61ff5f4" x1="564.9142" y1="119.9638" x2="563.4944" y2="119.48"/><line class="b400478b-6215-4fed-b798-2a4160dcf30b" x1="559.8144" y1="118.2262" x2="542.3347" y2="112.2706"/><line class="e63fcc83-af2e-4e92-89c7-54bfb61ff5f4" x1="540.4947" y1="111.6437" x2="539.0748" y2="111.1599"/><line class="e63fcc83-af2e-4e92-89c7-54bfb61ff5f4" x1="336.9182" y1="175.2802" x2="138.2377" y2="175.2802"/><path class="e63fcc83-af2e-4e92-89c7-54bfb61ff5f4" d="M298.1536,190.3289s-.1838-38.86-10.6675-39.4314-7.8008,49.1463-22.0967,52.0037,5.164-90.8635-27.24-90.8635S233.9978,218.14,203.9765,218.14s-14.296-70.2907-30.9745-72.0051-.4643,57.3374-19.049,57.3374"/><line class="e63fcc83-af2e-4e92-89c7-54bfb61ff5f4" x1="237.5779" y1="77.1781" x2="237.5779" y2="240.6181"/><text class="ba4d5016-9dc8-4e76-ba75-3911bd0e1026" transform="translate(123.6656 181.399) scale(0.759 1)">x</text><text class="ba4d5016-9dc8-4e76-ba75-3911bd0e1026" transform="translate(229.3863 68.8189) scale(0.759 1)">y</text><path class="e63fcc83-af2e-4e92-89c7-54bfb61ff5f4" d="M397.0082,153.6637s-7.9189-2.9231-9.1067,2.5578,1.98,49.3279.7918,50.4241-8.3149,2.5577-8.3149,2.5577l7.9189,1.827s1.1879,46.77,3.1676,51.8856,9.1069,3.2885,9.1069,3.2885"/><text class="a235fab9-b9a5-4efa-ba22-2e5c4b821885" transform="translate(351.8404 217.6216) scale(0.759 1)">y=</text><text class="a235fab9-b9a5-4efa-ba22-2e5c4b821885" transform="translate(403.2154 180.0191) scale(0.759 1)">x<tspan class="ff9bf7a1-289e-4cbe-b709-ed74ee935cd7" x="19.302" y="0"> </tspan><tspan x="23.4091" y="0">+</tspan><tspan class="ff9bf7a1-289e-4cbe-b709-ed74ee935cd7" x="49.1356" y="0"> </tspan><tspan class="e6a12da1-b838-4976-afb9-c7ae048101b2" x="53.2428" y="0">3y</tspan><tspan class="ff9bf7a1-289e-4cbe-b709-ed74ee935cd7" x="91.848" y="0"> </tspan><tspan x="95.9552" y="0">+</tspan><tspan class="ff9bf7a1-289e-4cbe-b709-ed74ee935cd7" x="121.6817" y="0"> </tspan><tspan x="125.7889" y="0">2c</tspan><tspan class="ff9bf7a1-289e-4cbe-b709-ed74ee935cd7" x="161.7988" y="0"> </tspan><tspan x="165.906" y="0">=</tspan><tspan class="ff9bf7a1-289e-4cbe-b709-ed74ee935cd7" x="191.6325" y="0"> </tspan><tspan x="195.7397" y="0">1</tspan></text><text class="a235fab9-b9a5-4efa-ba22-2e5c4b821885" transform="translate(403.2154 213.2789) scale(0.759 1)">2x<tspan class="ff9bf7a1-289e-4cbe-b709-ed74ee935cd7" x="38.6052" y="0"> </tspan><tspan class="b68cff98-6ebe-4b65-beca-e1c835761752" x="42.7124" y="0">+</tspan><tspan class="fe083997-0d15-42c7-8ff5-8a913104af5b" x="68.4376" y="0"> </tspan><tspan x="72.5461" y="0">6y</tspan><tspan class="ff9bf7a1-289e-4cbe-b709-ed74ee935cd7" x="111.15" y="0"> </tspan><tspan x="115.2572" y="0">+</tspan><tspan class="ff9bf7a1-289e-4cbe-b709-ed74ee935cd7" x="140.9837" y="0"> </tspan><tspan class="e6a12da1-b838-4976-afb9-c7ae048101b2" x="145.0909" y="0">5z</tspan><tspan class="ff9bf7a1-289e-4cbe-b709-ed74ee935cd7" x="179.8359" y="0"> </tspan><tspan class="b68cff98-6ebe-4b65-beca-e1c835761752" x="183.9431" y="0">=</tspan><tspan class="ff9bf7a1-289e-4cbe-b709-ed74ee935cd7" x="209.6683" y="0"> </tspan><tspan class="e6a12da1-b838-4976-afb9-c7ae048101b2" x="213.7755" y="0">38</tspan></text><text class="a235fab9-b9a5-4efa-ba22-2e5c4b821885" transform="translate(403.2154 250.6958) scale(0.759 1)">x<tspan class="ff9bf7a1-289e-4cbe-b709-ed74ee935cd7" x="19.302" y="0"> </tspan><tspan x="23.4091" y="0">+</tspan><tspan class="ff9bf7a1-289e-4cbe-b709-ed74ee935cd7" x="49.1356" y="0"> </tspan><tspan class="e6a12da1-b838-4976-afb9-c7ae048101b2" x="53.2428" y="0">2y</tspan><tspan class="ff9bf7a1-289e-4cbe-b709-ed74ee935cd7" x="91.848" y="0"> </tspan><tspan x="95.9552" y="0">+</tspan><tspan class="ff9bf7a1-289e-4cbe-b709-ed74ee935cd7" x="121.6817" y="0"> </tspan><tspan x="125.7889" y="0">10z</tspan><tspan class="ff9bf7a1-289e-4cbe-b709-ed74ee935cd7" x="179.8359" y="0"> </tspan><tspan class="b68cff98-6ebe-4b65-beca-e1c835761752" x="183.9431" y="0">=</tspan><tspan class="ff9bf7a1-289e-4cbe-b709-ed74ee935cd7" x="209.6683" y="0"> </tspan><tspan class="e6a12da1-b838-4976-afb9-c7ae048101b2" x="213.7755" y="0">2</tspan></text><ellipse class="b8022907-9fe8-459f-b90c-23561729b6d8" cx="475.1486" cy="546.8285" rx="91.5265" ry="14.4136"/><path class="e58548f2-2b03-48db-bf4a-6ec38e72c903" d="M391.3385,329.0468l-4.8913,1.3c-1.7854.4746-7.7117,8.0749-8.9439,9.788-.7039.9784,7.4372,1.8671,8.2155,1.7043,1.3279-.2779,3.7032-3.2046,4.9466-4.1656l2.65,1.2327,2.2468-3.3386Z"/><polygon class="f7e9ac81-bb27-4114-89ee-e26b96b2716f" points="510.732 537.441 511.423 543.625 501.369 551.401 495.306 546.011 499.987 539.031 510.041 531.256 510.732 537.441"/><polygon class="e53d9b2d-a149-4dcc-8e63-71747592b54f" points="511.072 535.364 503.318 456.487 512.647 368.183 510.549 349.399 468.881 347.577 467.378 378.15 474.373 456.608 500.689 539.395 511.072 535.364"/><polygon class="e59485ad-e531-49d2-bc1e-bf945427edfa" points="462.246 262.017 443.518 274.687 431.663 298.428 389.535 327.803 395.733 339.137 432.049 325.206 450.617 314.176 462.246 262.017"/><polygon class="e53d9b2d-a149-4dcc-8e63-71747592b54f" points="438.307 356.416 438.197 436.014 452.115 538.483 462.132 538.368 467.638 443.608 480.525 348.764 438.307 356.416"/><polygon class="e53d9b2d-a149-4dcc-8e63-71747592b54f" points="462.116 543.231 451.338 549.591 445.867 543.418 451.23 537.12 462.062 536.996 462.116 543.231"/><path class="e59485ad-e531-49d2-bc1e-bf945427edfa" d="M516.9593,383.488c-.0956-3.4493-.2621-6.328-.286-7.3559-.2145-9.253-.9307-18.4853-1.9369-27.6727-.9016-8.233-2.04-28.6718-3.2636-36.8541-1.0106-6.7557-4.5317-23.6184-7.076-29.8846-6.327-15.5832-4.3721-17.0228-32.1648-21.65-12.1806-2.028-15.06,6.7111-25.0178,16.7609-.9821.991-.928,6.8927-1.1559,8.4554-.4013,2.7522-.8311,5.5-1.3241,8.2341q-.5812,3.2239-1.2945,6.42l.001-.0007s-8.36,43.7977-13.8884,53.1-16.95,22.3062,2.1556,30.2464a61.2315,61.2315,0,0,0,10.3169,3.1s15.625-1.999,23.66-1.93a119.1354,119.1354,0,0,1,22.1075,2.37,43.0834,43.0834,0,0,1,14.1822,4.9137c4.1522,2.4969,7.1489,6.17,11.3618,8.7555a1.9939,1.9939,0,0,0,1.29.426C517.0467,400.5361,517.16,390.7479,516.9593,383.488Z"/><path class="e58548f2-2b03-48db-bf4a-6ec38e72c903" d="M473.2728,261.7981c1.3433.922,4.6233,1.5072,8.1718.2684a2.0359,2.0359,0,0,0,1.2851-1.8354,61.98,61.98,0,0,0-.0093-7.2381c2.6533-.81,5.7439-2.1057,6.407-5.1723a10.2319,10.2319,0,0,0,.051-2.9706q-.4939-6.1461-.9876-12.2922a12.2668,12.2668,0,0,0-.8166-4.1344c-1.0146-2.2074-3.2-3.3315-5.3019-3.9511a17.206,17.206,0,0,0-15.8775,2.9517,9.4228,9.4228,0,0,0-2.9054,3.7554c-.9312,2.3853-.5465,5.1447-.1447,7.7185q.5568,3.5635,1.1133,7.1272c.4268,2.7325,1.0993,5.8557,3.2708,7.0633,1.1531.6412,2.568.6133,3.591,1.5C472.9236,256.152,472.4445,259.38,473.2728,261.7981Z"/><path class="e53d9b2d-a149-4dcc-8e63-71747592b54f" d="M448.9688,223.2439a23.31,23.31,0,0,0-1.3581-2.6263c-1.1006-1.8088-2.5031-3.3992-3.3508-5.3745s-1.0079-4.5678.3008-6.206a5.8272,5.8272,0,0,1,3.356-1.8071,20.8327,20.8327,0,0,1,12.2686.8044c3.7354,1.4257,7.018,3.5352,10.9762,2.2495,3.7192-1.2081,6.28-.3633,9.9413,1.481,3.9616,1.9959,9.4124,2.8573,12.9379,5.4962a11.9406,11.9406,0,0,1,3.431,4.4767,20.5988,20.5988,0,0,1-1.38,19.5942,25.8,25.8,0,0,1-2.82,3.4127c-2.0968,2.189-4.6116,4.8993-7.3238,5.5431.1315-2.6785,2.903-10.92,1.2427-13.2686-2.6349-3.7264-9.2524-3.0784-12.897-2.5324-3.9755.5957-7.6856,3.4161-11.6081,3.748-2.8227.2388-6.2682-1.6112-8.5206-3.4419C451.3858,232.5325,450.45,226.5629,448.9688,223.2439Z"/><polygon class="e59485ad-e531-49d2-bc1e-bf945427edfa" points="495.915 267.393 513.389 278.208 508.424 238.831 517.347 227.258 531.902 286.979 522.876 306.268 486.251 303.76 495.915 267.393"/><ellipse class="b8022907-9fe8-459f-b90c-23561729b6d8" cx="118.624" cy="507.2258" rx="79.5873" ry="19.2182"/><polygon class="f7e9ac81-bb27-4114-89ee-e26b96b2716f" points="96.714 492.282 96.207 498.685 105.311 506.67 110.625 501.057 106.327 493.863 97.222 485.878 96.714 492.282"/><polygon class="e53d9b2d-a149-4dcc-8e63-71747592b54f" points="96.941 296.499 95.399 315.947 109.053 382.764 96.375 490.136 105.707 494.244 130.315 389.418 134.22 358.923 134.078 294.364 96.941 296.499"/><polygon class="e53d9b2d-a149-4dcc-8e63-71747592b54f" points="168.717 318.174 149.088 498.09 140.165 498.09 138.559 382.764 122.32 301.818 168.717 318.174"/><polygon class="f7e9ac81-bb27-4114-89ee-e26b96b2716f" points="149.865 496.668 154.69 503.13 149.865 509.593 140.217 503.13 140.217 496.668 149.865 496.668"/><path class="e72c13c7-d04b-414c-a043-39396df2464f" d="M146.2472,178.0781c-7.1-7.51-24.2171-3.1924-33.2226-3.1924a735.4807,735.4807,0,0,1-9.9323,75.1636c-3.8311,21.3416-11.1339,42.1469-14.3846,63.4588-2.8992,19.007-9.2164,32.6715-21.0949,45.6908-1.851,2.0287-3.9827,4.6622-3.4313,7.6974a7.5135,7.5135,0,0,0,2.7892,4.1933c11.9762,10.4959,27.3724,11.5891,41.8927,11.9022q16.5383.3565,33.08-.0253c14.3639-.3317,30.3449-2.4906,42.5919-13.1076a4.0153,4.0153,0,0,0,1.6576-2.7273,5.1889,5.1889,0,0,0-.9549-2.7464c-8.5548-15.1038-7.5647-40.0835-9.2323-57.767-1.882-19.9572-3.7719-39.9708-7.5-59.5a304.8127,304.8127,0,0,0-9.5278-37.1338c-2.9829-9.1659-6.5423-24.1779-12.1464-31.2335Q146.5517,178.4,146.2472,178.0781Z"/><path class="e53d9b2d-a149-4dcc-8e63-71747592b54f" d="M125.2366,143.6191a20.7112,20.7112,0,0,1,6.2235-12.47c3.9473,1.8821,7.0891,6.3174,8.1628,11.5232a20.9287,20.9287,0,0,1-2.6578,15.1675c-1.3249-7.2784-6.37-13.2054-12.1576-14.281Z"/><path class="e58548f2-2b03-48db-bf4a-6ec38e72c903" d="M131.4786,180.2875c4.2588-2.5606,6.967-8.3165,7.7446-14.2481s-.14-12.0277-1.5741-17.7553c-4.774-19.06-23.5306-12.685-27.4811,3.98C106.7252,166.7879,119.0957,187.7321,131.4786,180.2875Z"/><path class="e53d9b2d-a149-4dcc-8e63-71747592b54f" d="M126.2663,313.471c2.708-2.6306,2.3941-7.8044,3.0945-12.0578s4.8959-8.4834,7.1085-5.182c4.7042-2.472,7.1778-9.4308,7.1626-15.93s-2.0173-12.689-3.9866-18.6814c-7.0087-21.3279-15.068-41.7074-15.1681-65.2849a199.56,199.56,0,0,1,1.7917-23.7621c.8112-7.01,1.4886-14.0713,2.4362-21.0532.6282-4.6284,3.1571-8.7459,3.4489-13.142a11.8233,11.8233,0,0,0-2.812-8.1875c-2.728-3.2256-5.726-4.5721-9.3321-4.1158-12.6578,1.6013-21.2259,12.6343-23.288,28.9455-1.7434,13.791,1.049,27.7589,3.06,41.49,3.0234,20.648,2.0024,45.227-5.8943,63.88-3.2178,7.6009-6.7935,15.2819-7.5729,23.8661s2.1556,18.4458,8.499,21.4427c2.4781,1.1708,5.2934,1.2358,7.5268,3.04a6.5894,6.5894,0,0,1,1.1833,8.3893c3.3469,5.6968,5.9823.7477,9.353-.9722C116.9874,314.0592,122.8018,316.8367,126.2663,313.471Z"/><polygon class="e72c13c7-d04b-414c-a043-39396df2464f" points="135.007 177.151 178.259 173.2 200.063 141.838 210.884 150.081 186.982 192.953 140.294 205.462 135.007 177.151"/><polygon class="e58548f2-2b03-48db-bf4a-6ec38e72c903" points="202.73 143.87 204.953 134.014 207.702 134.014 208.56 131.149 212.854 131.149 216.805 138.623 208.929 148.593 202.73 143.87"/><polygon class="f0cfcc2f-cd09-4bc7-bc55-73c59c6036b1" points="204.953 134.014 202.73 118.432 206.671 116.457 209.767 134.014 204.953 134.014"/></svg>