<svg id="e6d20164-a383-4936-8b6d-99d8081cd9c7" data-name="Capa 1" xmlns="http://www.w3.org/2000/svg" viewBox="0 0 200 200"><defs><style>.a3722bc2-0682-41ad-af95-cc86236692ab{fill:#373644;}.a24b7d70-f25f-4eb0-897a-83a2981eff2b{fill:#eff1f4;}.a4ba20fc-85a0-43e1-9763-17c62536a005{fill:#b8becb;}.e0399166-99ec-4368-901c-7095b4c3de1d{fill:#383745;}.f03daf97-d218-4f4f-bc5b-819f4d64db9f{fill:#b7becb;}.b05cc7f9-ee8b-4741-969f-1a650fc69738{fill:#f7536c;}.b0a9f6fd-737e-4d10-b1eb-dfaed218a2c5{fill:#b8daf3;}.bd53bfe0-39fd-45a5-8566-fad315b87a00{fill:#b8daf2;}.e0622a23-eaf2-41c6-8264-4906ef8cb70b{fill:#ccd0da;}.a98f82e5-53c9-4398-b531-9b79ae508e64{fill:#7a8190;}.ae9ad50b-7dc1-4d95-8701-1868a9b1f9b3{fill:#fec35c;}.ff533d3a-ea67-4f46-8b35-a0249272d230{fill:#ccd0d9;}.e5d2f534-6e48-422b-b203-0fa2d359c749{fill:#282733;}.b703e060-7857-466b-86cc-3ae8a06def31{fill:#8eadc1;}.f3bbd46d-4dd0-431c-8746-7b530b77f7a8{fill:#fcfdfe;}</style></defs><path class="a3722bc2-0682-41ad-af95-cc86236692ab" d="M53.1606,199.971c-.1456-.4868-.6075-.3978-.95-.5062-8.1184-2.5722-12.4618-8.4476-12.492-16.98-.026-7.35-.0089-14.7-.0109-22.05a44.1824,44.1824,0,0,1,6.6359-.0459c-.0046,7.4257-.046,14.8517-.0028,22.2772.0386,6.6268,4.1875,10.6944,10.8336,10.6959q42.13.01,84.26,0c6.6416-.0016,10.7956-4.0717,10.836-10.6959.0452-7.4254.0022-14.8514-.0024-22.2771a44.2355,44.2355,0,0,1,6.6359.0455q-.0028,10.6352-.0057,21.2705c-.0044,9.7383-4.2345,15.3171-13.62,17.9806-.0911.0259-.1438.1872-.2145.2853Z"/><path class="a24b7d70-f25f-4eb0-897a-83a2981eff2b" d="M158.8984,64.1912c9.6272.0157,19.2552.1066,28.8813.0122,4.1853-.041,7.4019,2.75,7.3748,7.251-.14,23.3271-.0435,46.6555-.1156,69.9832-.0047,1.51,1.0391,3.0089.0718,4.5214-1.8511,3.55-4.8783,4.43-8.7039,4.4235q-65.7981-.1172-131.5966-.0606a4.1613,4.1613,0,0,1-2.4579-.27c5.88-1.1723,11.683-6.7559,10.3566-15.8614.0511-.8993.1462-1.7985.1469-2.6978q.0259-33.6124.0334-67.2254,43.21-.0143,86.4207-.0313c.9678,0,1.9355-.048,2.9033-.0736Zm-29.914,76.0694q14.7248,0,29.4493,0c7.879,0,15.758.0122,23.6369-.0119a2.9908,2.9908,0,0,0,3.2667-2.8906,3.12,3.12,0,0,0-2.2929-3.3859,6.54,6.54,0,0,0-2.4751-.3073q-15.984.0012-31.968,0-35.6492,0-71.2983.0013c-2.7412,0-4.3518,1.2173-4.3693,3.28-.02,2.3674,1.2108,3.3133,4.3207,3.3134Q103.1194,140.2611,128.9844,140.2606Zm30.6172-13.1428v-.0147c4.3288,0,8.6588.0662,12.9861-.0153a13.1769,13.1769,0,0,0,12.7456-12.0222c.2091-2.4862-.8275-4.0893-2.8035-4.3358-2.2159-.2764-3.44.8726-3.7859,3.5528a6.9238,6.9238,0,0,1-5.5454,6.1724c-1.0578.145-1.6679-.0839-1.332-1.306a17.8769,17.8769,0,0,0,.272-5.2059,9.92,9.92,0,0,0-19.7954-1,15.3378,15.3378,0,0,0,.1061,5.7773c.4439,1.7307-.2911,1.8907-1.6792,1.806-1.4805-.09-2.971-.0362-4.4568-.0162-2.4253.0328-3.949,1.3125-3.9629,3.2986-.0146,2.0932,1.362,3.2929,3.8771,3.3038C150.6854,127.1317,155.1435,127.1178,159.6016,127.1178ZM91.7758,83.9641c-.2962-2.1979-1.84-3.6649-3.7-4.7676a3.9974,3.9974,0,0,1-2.2978-2.748c-.3356-1.57-1.6076-2.2522-3.2335-2.1565a2.805,2.805,0,0,0-2.8978,2.3734,2.7371,2.7371,0,0,1-1.7686,2.21,9.8434,9.8434,0,0,0-2.1554,15.56c2.08,2.1205,4.673,2.8211,7.5007,3.1141a3.1846,3.1846,0,1,1-.765,6.3227,4.0479,4.0479,0,0,1-2.8279-1.812,3.0978,3.0978,0,0,0-4.4644-.6473,3.1557,3.1557,0,0,0-.8289,4.448,9.2069,9.2069,0,0,0,3.95,3.6034c.67.3358,1.1774.5879,1.2541,1.4807a2.9772,2.9772,0,0,0,3.0213,2.9285,3.0758,3.0758,0,0,0,3.4322-2.727,2.3288,2.3288,0,0,1,1.4854-1.76,9.9074,9.9074,0,0,0,1.64-16.33,11.0434,11.0434,0,0,0-6.6065-2.3909,3.0144,3.0144,0,0,1-2.8632-2.2223,3.138,3.138,0,0,1,.8949-3.3648,3.3407,3.3407,0,0,1,3.4455-.5989c.8485.2254,1.308.9758,1.87,1.6069a3.1071,3.1071,0,0,0,3.62,1.0934A3.4742,3.4742,0,0,0,91.7758,83.9641ZM102.5791,127.07q13.0715,0,26.1429-.0068c2.5839-.0052,4.017-1.73,3.51-4.127-.3247-1.5334-1.7407-2.4556-3.9052-2.4567q-25.7556-.0126-51.5112.0016c-2.3344.0015-3.9067,1.4091-3.8811,3.3718.0284,2.18,1.262,3.2133,3.8894,3.2152Q89.7013,127.0778,102.5791,127.07Zm18.0434-29.8562c5.0337,0,10.0675.0148,15.1012-.0071a2.87,2.87,0,0,0,3.1443-3.2624,3.46,3.46,0,0,0-3.7432-3.3146q-14.3268-.0318-28.6537-.0088c-.129,0-.2589-.0063-.387.0054-2.3024.2107-3.3775,1.4124-3.2982,3.6835.0668,1.9128,1.2445,2.8988,3.51,2.9025Q113.459,97.2243,120.6225,97.2142Zm-9.9006-13.19c1.6786,0,3.3579.0281,5.0358-.0072,2.0379-.0429,3.2138-1.1295,3.3243-2.9981a3.39,3.39,0,0,0-2.8978-3.5164c-3.48-.141-6.9765-.1751-10.4531.0033-2.1533.11-3.0878,1.552-2.9434,3.7775.1154,1.7794,1.3124,2.7275,3.4793,2.74C107.7519,84.0326,109.2369,84.0256,110.7219,84.0246Z"/><path class="a4ba20fc-85a0-43e1-9763-17c62536a005" d="M62.89,64.268q-.0136,33.6126-.0337,67.2251c-.0007.8993-.0958,1.7985-.1462,2.6969-.1775-.4146-.3768-.8206-.5306-1.2432-2.0994-5.7655-6.5865-9.0011-12.6427-9.0108-9.8871-.0158-19.7742.0151-29.6614.0262-3.0987-.0094-6.1977.0011-9.2963-.0331-4.4971-.05-7.0936-2.6421-7.0951-7.0989q-.0108-32.7359.0009-65.4716c.0018-4.4043,2.548-6.8932,7.0065-6.8994q14.6232-.02,29.2463-.03l6.4977.0367c1.0939-.002,2.1882.0118,3.2817-.0085A13.1539,13.1539,0,0,1,62.8638,57.7039C62.8207,59.8909,62.8781,62.08,62.89,64.268Z"/><path class="e0399166-99ec-4368-901c-7095b4c3de1d" d="M46.2349,44.4658l-6.4977-.0367c-.0078-8.6606-.09-17.3219-.0038-25.9815.1-10.009,7.2346-17.0265,17.202-17.0311q42.3628-.02,84.726,0c10.1336.0047,17.2027,7.1255,17.2281,17.403.0373,15.1238.0092,30.2478.0089,45.3718l-6.6854-.0284q.008-5.1375.0152-10.2749.0027-17.4483-.004-34.8966c-.0093-6.9762-3.9925-10.96-10.92-10.9709-3.554-.0054-7.1088.0428-10.6615-.026-1.1523-.0223-1.6278.24-1.5487,1.4873.1062,1.6734.0644,3.36.0154,5.0387a6.5551,6.5551,0,0,1-6.78,6.7038q-23.0685.0426-46.1372-.0036a6.5315,6.5315,0,0,1-6.6865-6.5961c-.0589-1.7429-.0766-3.4925.0091-5.233.0559-1.1346-.3686-1.4093-1.44-1.3939-4.0055.0577-8.0136-.0361-12.0183.047A9.8544,9.8544,0,0,0,46.7,15.42a19.7887,19.7887,0,0,0-.3712,4.82Q46.2842,32.3527,46.2349,44.4658ZM105.73,14.5991c2.1248,0,4.25.0166,6.3746-.0046,2.1426-.0214,3.3877-1.0216,3.4919-2.7543.1425-2.3715-.7508-3.7017-3.0291-3.775q-6.657-.2141-13.3251-.0021c-2.2517.07-3.1935,1.4671-3.04,3.8253.1067,1.64,1.3525,2.674,3.3462,2.7037C101.6086,14.6227,103.67,14.5989,105.73,14.5991Zm-22.7155-3.252a3.11,3.11,0,1,0,6.21-.0583,3.1106,3.1106,0,1,0-6.21.0583Z"/><path class="f03daf97-d218-4f4f-bc5b-819f4d64db9f" d="M52.3523,150.0523a4.1613,4.1613,0,0,0,2.4579.27q65.7984.0182,131.5966.0606c3.8256.0068,6.8528-.8739,8.7039-4.4235.0072,2.3244-.1265,4.6609.0506,6.9735.37,4.8295-3.2214,7.5018-7.5783,7.4639-8.7847-.0766-17.5706-.0243-26.3561-.02-.7743,0-1.5485.038-2.3228.0583a44.2343,44.2343,0,0,0-6.6358-.0455l-105.9242,0a44.1824,44.1824,0,0,0-6.6359.0459q-6.0756-.0307-12.1512-.0616c-5.0021-.026-7.7246-2.761-7.7223-7.7789.0012-2.5714.0322-5.1426.0495-7.7142,1.7554,4.3608,3.39,5.451,8.1744,5.4513,4.8267,0,9.6537.0374,14.48-.013C45.81,150.2844,49.0935,150.582,52.3523,150.0523Z"/><path class="b05cc7f9-ee8b-4741-969f-1a650fc69738" d="M52.3523,150.0523c-3.2588.53-6.5422.2321-9.8139.2662-4.8261.05-9.6531.0132-14.48.013-4.7845,0-6.419-1.09-8.1744-5.4513q-.0045-10.4586-.0093-20.9179c9.8872-.0112,19.7743-.0421,29.6614-.0263,6.0562.01,10.5433,3.2453,12.6427,9.0108.1538.4226.3531.8286.5306,1.2432C64.0353,143.2964,58.2325,148.88,52.3523,150.0523Z"/><path class="b0a9f6fd-737e-4d10-b1eb-dfaed218a2c5" d="M46.3441,160.389l105.9242,0c.0045,7.4257.0475,14.8517.0023,22.2771-.04,6.6242-4.1944,10.6943-10.836,10.6959q-42.13.01-84.26,0c-6.6461-.0015-10.795-4.0691-10.8336-10.6959C46.2981,175.2407,46.34,167.8147,46.3441,160.389Zm52.94,19.7928q-9.5944,0-19.1887.0018c-2.2508.0018-4.077,1.48-4.018,3.229.0661,1.96,1.68,3.3593,3.9641,3.361q19.2857.0147,38.5712-.0007c2.2648-.0019,3.8925-1.4494,3.9214-3.4036.0251-1.6974-1.7594-3.1823-3.8675-3.1846Q108.9757,180.1738,99.2845,180.1818Z"/><path class="bd53bfe0-39fd-45a5-8566-fad315b87a00" d="M46.2349,44.4658q.0475-12.1131.0943-24.2262A19.7887,19.7887,0,0,1,46.7,15.42a9.8544,9.8544,0,0,1,9.3557-7.3749c4.0047-.0831,8.0128.0107,12.0183-.047,1.0718-.0154,1.4963.2593,1.44,1.3939-.0857,1.74-.068,3.49-.0091,5.233a6.5315,6.5315,0,0,0,6.6865,6.5961q23.0685.05,46.1372.0036a6.5551,6.5551,0,0,0,6.78-6.7038c.049-1.6788.0908-3.3653-.0154-5.0387-.0791-1.2469.3964-1.51,1.5487-1.4873,3.5527.0688,7.1075.0206,10.6615.026,6.9279.0108,10.9111,3.9947,10.92,10.9709q.0234,17.4483.004,34.8966-.0007,5.1375-.0152,10.2749c-.9676.0256-1.9353.0732-2.9031.0736q-43.21.02-86.4207.0313c-.0111-2.1878-.0685-4.3768-.0254-6.5638A13.1539,13.1539,0,0,0,49.5166,44.4573C48.4231,44.4776,47.3288,44.4638,46.2349,44.4658Zm13.4607-24.71a13.2433,13.2433,0,0,0-.0149-1.9333,3.5282,3.5282,0,0,0-3.3093-3.2078c-1.8838.0291-2.7833,1.02-3.2853,3.12a9.5774,9.5774,0,0,0,.0659,4.1919,3.0487,3.0487,0,0,0,4.538,2.2594C59.5579,23.251,59.789,21.5723,59.6956,19.7557Zm79.1871-.2122c0,.452-.0248.9056.0043,1.3557a3.8661,3.8661,0,0,0,3.2836,3.7425c1.58.1278,2.8545-1.2691,3.3741-3.2653a9.9909,9.9909,0,0,0-.0749-4.0017,2.9774,2.9774,0,0,0-3.02-2.7225,3.08,3.08,0,0,0-3.2485,2.2242A6.6363,6.6363,0,0,0,138.8827,19.5435Z"/><path class="e0622a23-eaf2-41c6-8264-4906ef8cb70b" d="M128.9844,140.2605q-25.8649,0-51.73,0c-3.11,0-4.3408-.946-4.3207-3.3134.0175-2.0628,1.6281-3.28,4.3693-3.28q35.6492-.0031,71.2983-.0013,15.984,0,31.968,0a6.54,6.54,0,0,1,2.4751.3073,3.12,3.12,0,0,1,2.2929,3.3859,2.9908,2.9908,0,0,1-3.2667,2.8906c-7.8789.0241-15.7579.0116-23.6369.0119Q143.7091,140.2609,128.9844,140.2605Z"/><path class="a98f82e5-53c9-4398-b531-9b79ae508e64" d="M159.6016,127.1178c-4.4581,0-8.9162.0139-13.3742-.0054-2.5151-.0109-3.8917-1.2106-3.8771-3.3038.0139-1.9861,1.5376-3.2658,3.9629-3.2986,1.4858-.02,2.9763-.0742,4.4568.0162,1.3881.0847,2.1231-.0753,1.6792-1.806a15.3378,15.3378,0,0,1-.1061-5.7773,9.92,9.92,0,0,1,19.7954,1,17.8769,17.8769,0,0,1-.272,5.2059c-.3359,1.2221.2742,1.451,1.332,1.306a6.9238,6.9238,0,0,0,5.5454-6.1724c.3456-2.68,1.57-3.8292,3.7859-3.5528,1.976.2465,3.0126,1.85,2.8035,4.3358a13.1769,13.1769,0,0,1-12.7456,12.0222c-4.3273.0815-8.6573.0153-12.9861.0153Zm-.6542-11.6489c0,.5788-.027,1.1591.005,1.7362a3.1474,3.1474,0,0,0,2.8814,3.2745,3.211,3.211,0,0,0,3.5792-2.77,12.1125,12.1125,0,0,0,.0314-4.2229,3.1932,3.1932,0,0,0-3.5791-2.77,3.0568,3.0568,0,0,0-2.9136,3.2089C158.9239,114.4385,158.9475,114.9543,158.9474,115.4689Z"/><path class="ae9ad50b-7dc1-4d95-8701-1868a9b1f9b3" d="M91.7758,83.9641a3.4742,3.4742,0,0,1-2.2946,3.2153,3.1071,3.1071,0,0,1-3.62-1.0934c-.5621-.6311-1.0216-1.3815-1.87-1.6069a3.3407,3.3407,0,0,0-3.4455.5989,3.138,3.138,0,0,0-.8949,3.3648,3.0144,3.0144,0,0,0,2.8632,2.2223A11.0434,11.0434,0,0,1,89.12,93.056a9.9074,9.9074,0,0,1-1.64,16.33,2.3288,2.3288,0,0,0-1.4854,1.76,3.0758,3.0758,0,0,1-3.4322,2.727,2.9772,2.9772,0,0,1-3.0213-2.9285c-.0767-.8928-.5839-1.1449-1.2541-1.4807a9.2069,9.2069,0,0,1-3.95-3.6034,3.1557,3.1557,0,0,1,.8289-4.448,3.0978,3.0978,0,0,1,4.4644.6473,4.0479,4.0479,0,0,0,2.8279,1.812,3.1846,3.1846,0,1,0,.765-6.3227c-2.8277-.293-5.42-.9936-7.5007-3.1141a9.8434,9.8434,0,0,1,2.1554-15.56,2.7371,2.7371,0,0,0,1.7686-2.21,2.805,2.805,0,0,1,2.8978-2.3734c1.6259-.0957,2.8979.5869,3.2335,2.1565a3.9974,3.9974,0,0,0,2.2978,2.748C89.9357,80.2992,91.48,81.7662,91.7758,83.9641Z"/><path class="ff533d3a-ea67-4f46-8b35-a0249272d230" d="M102.5791,127.0706q-12.8778,0-25.7556-.0021c-2.6274-.0019-3.861-1.0351-3.8894-3.2152-.0256-1.9627,1.5467-3.37,3.8811-3.3718q25.7556-.0174,51.5112-.0016c2.1645.0011,3.5805.9233,3.9052,2.4567.5074,2.3968-.9257,4.1218-3.51,4.127Q115.6506,127.09,102.5791,127.0706Z"/><path class="e0622a23-eaf2-41c6-8264-4906ef8cb70b" d="M120.6225,97.2146q-7.1636.0006-14.3269-.0019c-2.2652-.0037-3.4429-.99-3.51-2.9025-.0793-2.2711.9958-3.4728,3.2982-3.6835.1281-.0117.258-.0054.387-.0054q14.3269,0,28.6537.0088a3.46,3.46,0,0,1,3.7432,3.3146,2.87,2.87,0,0,1-3.1443,3.2624C130.69,97.229,125.6562,97.2142,120.6225,97.2146Z"/><path class="e0622a23-eaf2-41c6-8264-4906ef8cb70b" d="M110.7219,84.0251c-1.485.0005-2.97.0075-4.4549-.0012-2.1669-.0127-3.3639-.9608-3.4793-2.74-.1444-2.2255.79-3.667,2.9434-3.7775,3.4766-.1784,6.973-.1443,10.4531-.0033a3.39,3.39,0,0,1,2.8978,3.5164c-.11,1.8686-1.2864,2.9552-3.3243,2.9981C114.08,84.0527,112.4005,84.0246,110.7219,84.0251Z"/><path class="e5d2f534-6e48-422b-b203-0fa2d359c749" d="M105.73,14.599c-2.0605,0-4.1214.0237-6.1814-.0069-1.9937-.03-3.2395-1.0637-3.3462-2.7037-.1536-2.3582.7882-3.7556,3.04-3.8253q6.6574-.2064,13.3251.0021c2.2783.0733,3.1716,1.4035,3.0291,3.775-.1042,1.7327-1.3493,2.7329-3.4919,2.7543C109.98,14.6157,107.8548,14.5991,105.73,14.599Z"/><path class="e5d2f534-6e48-422b-b203-0fa2d359c749" d="M83.0145,11.3471a3.1106,3.1106,0,1,1,6.21-.0583,3.11,3.11,0,1,1-6.21.0583Z"/><path class="b703e060-7857-466b-86cc-3ae8a06def31" d="M99.2845,180.1819q9.6912,0,19.3825.0028c2.1081.0023,3.8926,1.4872,3.8675,3.1846-.0289,1.9542-1.6566,3.4017-3.9214,3.4036q-19.2857.0166-38.5712.0007c-2.2841-.0017-3.898-1.4006-3.9641-3.361-.059-1.7493,1.7672-3.2272,4.018-3.229Q89.69,180.176,99.2845,180.1819Z"/><path class="f3bbd46d-4dd0-431c-8746-7b530b77f7a8" d="M59.6956,19.7557c.0934,1.8166-.1377,3.4953-2.0056,4.43a3.0487,3.0487,0,0,1-4.538-2.2594,9.5774,9.5774,0,0,1-.0659-4.1919c.502-2.1,1.4015-3.0909,3.2853-3.12a3.5282,3.5282,0,0,1,3.3093,3.2078A13.2433,13.2433,0,0,1,59.6956,19.7557Z"/><path class="f3bbd46d-4dd0-431c-8746-7b530b77f7a8" d="M138.8841,19.5439a6.6119,6.6119,0,0,1,.3171-2.6675,3.08,3.08,0,0,1,3.2485-2.2242,2.9774,2.9774,0,0,1,3.02,2.7225,9.9909,9.9909,0,0,1,.0749,4.0017c-.52,1.9962-1.7937,3.3931-3.3741,3.2653a3.8661,3.8661,0,0,1-3.2836-3.7425C138.8579,20.4491,138.8827,19.9955,138.8841,19.5439Z"/><path class="a24b7d70-f25f-4eb0-897a-83a2981eff2b" d="M158.9474,115.4689c0-.5146-.0235-1.03.0043-1.5434a3.0568,3.0568,0,0,1,2.9136-3.2089,3.1932,3.1932,0,0,1,3.5791,2.77,12.1125,12.1125,0,0,1-.0314,4.2229,3.211,3.211,0,0,1-3.5792,2.77,3.1474,3.1474,0,0,1-2.8814-3.2745C158.92,116.628,158.9474,116.0477,158.9474,115.4689Z"/></svg>