<svg id="a1bd6710-8fd8-4a3b-8e57-0325c2af8b32" data-name="Capa 1" xmlns="http://www.w3.org/2000/svg" viewBox="0 0 200 200"><defs><style>.ad737859-ec8b-4b66-9656-9a2e9d9631d0{fill:#ed5651;}.e8868873-b78d-4647-a47a-83d1d08f3d12{fill:#cb4a46;}.a1de736b-d48c-4998-8bea-504b491282ab{fill:#e1ac2f;}.e2cfe3c2-c510-4007-8f7a-7ad0e8e7d221{fill:#f0ba34;}.a55542c7-a995-487a-88a6-8201770ab9ee{fill:#f0bb34;}.f73ffb0d-5f65-4c66-862e-e0f1d1102967{fill:#fdd34d;}.ab2d8924-dd1c-4167-a0b4-7988101c9f54{fill:#fcd048;}.ae722e0e-f7f9-4646-bc9f-dff49c836905{fill:#fdd34c;}.ab32c9e7-e384-4677-a92a-48cb3c6f1e3d{fill:#cb4844;}.a4f35348-a6e5-4384-9347-1da4554865ed{fill:#fada80;}.a410f6d0-dbff-438c-ae25-806717f50b8f{fill:#746c68;}.ae900063-34c2-4581-9612-ed5b06b3e8f2{fill:#fceceb;}.a6e7bc8e-e797-4f6b-8072-73a3a1c5feb5{fill:#f8c73a;}.e287f50a-b7e5-4cb9-a5dd-200b1afbb989{fill:#fefcf6;}.bb9005ff-7522-4c9b-bb4e-ed2feea5182a{fill:#ee605b;}</style></defs><path class="ad737859-ec8b-4b66-9656-9a2e9d9631d0" d="M4.96,107.1673c-.387-1.7583.7177-2.5728,2.0268-3.3322Q27.8822,91.7132,48.7607,79.5613c7.1015-4.1286,14.2172-8.2328,21.2947-12.402a8.18,8.18,0,0,1,8.9612.0259c6.4695,3.7938,12.9919,7.4974,19.4924,11.2379a25.6376,25.6376,0,0,0-.3217,6.9527q-.0744,4.2782-.1489,8.5564c-3.5534-1.3971-7.0328-3.0209-10.87-3.55q.0912-.2083.1822-.4169c.2413.0081.4879.028.59-.269,1.6986-.9286,3.4032-1.8465,5.0935-2.79.9819-.548,1.1791-1.32.1556-1.92A66.7556,66.7556,0,0,0,84.5552,80.21q-.2621-.1993-.523-.4c-2.6614-1.5608-5.3276-3.1134-7.9822-4.6856-1.4411-.8535-2.7845-.911-4.0113.38l-.5354.4554a8.8987,8.8987,0,0,0-3.6951,1.9314l-.4993.3887A9.8364,9.8364,0,0,0,63.57,80.2814q-.2368.1919-.4728.3837c-2.3168.97-2.3388,1.1491-.3357,2.73-.3907,1.24-1.4138.6259-2.1634.59-.1427.6809.9025.6659.6,1.29-.5539.1747-.9617-.106-1.3945-.1495-.6292-.0632-1.1781.447-.7146.9162,1.649,1.6695-.2517,1.5117-1.3782,2.0443,1.6771,0,2.9043-.0323,4.1292.0074,1.9015.0618,4.2393,1.6264,4.4871,3.1551.2116,1.3048-.4939,2.5819-.366,3.9557.0334.3595-.9986.9291-1.626,1.2187-2.0116.9283-1.7236,2.9735-2.3252,4.5839-.0583.1562-.0238.4754.2469.39,1.6058-.5079.7122.351.49.8648-.92,2.1248-.4327,3.4237,1.5323,4.1029.3034,1.0479.6066,2.0958.9038,3.1226,1.898-.0417.3232-2.0478,1.4346-2.5552-.5815-.1848-1.16-.3808-1.7463-.5477a2.5887,2.5887,0,0,0-.58-.0326c.2273-1.9476,1.6652-2.2917,3.2208-2.3025a4.2665,4.2665,0,0,1,3.8646,2.9478c.6818-.2,1-1.0546,1.81-1.0139,2.9864.15,6.0141-1.18,8.97.2488.1385.0669.4892.017.521-.0644.8146-2.0866,2.1987-.57,3.3336-.5269.5718.0217,1.7432.4973,1.5824.023-.3314-.977,1.3346-2.2043-.3859-2.8635a1.2756,1.2756,0,0,1-.7583-1.0247c-.4729-1.8163-1.8194-2.3117-3.0884-.8873-.8579.963-2.0558.5817-2.8868,1.35-.3947.3648-.7643-.3075-.5363-.5851.906-1.1031-.0765-1.7394-.51-2.5069-.3749-.6636-.7347-1.498.3061-1.634,1.2336-.1613,2.6027-.4873,3.7659.3,1.3331.9027,2.1633.2177,2.954-.7747a2.2734,2.2734,0,0,1,2.4508,1.1865c.3533.5913.5368,1.3042-.4465,1.4776-.6209.11-1.1033.0394-.8869.9746a1.1747,1.1747,0,0,0,1.5868.858c.8588-1.1639,1.7649-.1838,2.6175-.0984a10.39,10.39,0,0,0-.6961-4.1325c-.6221-1.6077-2.7-.7771-3.34-2.3237-.1936-.4676-.9921.05-1.1755.5094a5.12,5.12,0,0,0-.128,1.53c-.992.1723-1.6339-.2077-1.74-1.23-.0949-.9154.758-1.1851,1.3283-1.37a2.4875,2.4875,0,0,1,2.6751.1832,3.1616,3.1616,0,0,0,2.86.8347c2.1485-.6138,4.3284-.2409,6.4911-.349l.0228,1.9585c-.8449,1.0953-1.6865.4227-2.4969-.0341-.478-.2694-.9062-.5689-1.3244.0431-.4253.6225-.1512,1.1078.3631,1.4866a4.8614,4.8614,0,0,0,.872.4074c1.6187.7451,1.7751,1.4659.4836,2.7a33.2666,33.2666,0,0,1-3.0711,2.6114,1.3993,1.3993,0,0,0-.4749,1.8662,1.3832,1.3832,0,0,0,1.8872.8936c1.4551-.6888,2.8255-.2229,4.2813-.143,1.5987.0877,3.09.7434,4.6877.6241l1.8511,1.6515c-.4087,1.8046-.01,2.1292,2.746,2.2361l5.4376,3.0932a11.5351,11.5351,0,0,1-3.2534-.3071c-.5681-.0657-1.8678.1116-1.3348.8162,1.01,1.3355-.0292.852-.6015,1.1328-2.7213,1.3352-5.9424-1.7228-8.4735,1.0009-1.7193-1.2749-2.6684-.5811-4.3345.6685-1.4846,1.1135-4.24.6258-6.4376.6633a3.525,3.525,0,0,0-3.25,2.7256c-.6045,1.7463.444,2.1507,1.6941,2.54.551.1715,1.0847.4154,1.6458.5333,1.1182.2349.969,1.4011,1.5567,2.0167-1.4515.9991-1.8077,3.378-3.6356,3.6136-1.9064.2457-2.4706,1.723-3.4954,2.7411-1.4428,1.4332-1.1436,2.0243.67,2.8632,1.9475.901,3.6529-.2583,5.4736-.3616,1.5432,2.0046,4.3347,2.1649,6.7529.4231,1.17-.843,1.4984-1.7082.2478-2.7437,1.54-.7754,3.1872-.2679,4.7817-.3886,1.1486-.087,2.3625.2,3.41-.6462-2.5071-1.1369-2.2361-3.6081.6454-5.78a4.7134,4.7134,0,0,1-.0148,1.1647c-.3046,1.1045-1.6169,2.21-.9185,3.2249.6534.95,2.2371.7812,3.4227,1.0623a3.613,3.613,0,0,0,1.14.1639c.65-.0629,1.5682.3906,1.8435-.5664.2829-.9831-.6654-.8637-1.21-1.0979-.3826-.1645-.6646-.48-.4258-.9154a1.5159,1.5159,0,0,1,.67-.6618c.5629-.2288.5122.3112.6971.6224a6.0736,6.0736,0,0,0,2.4467,2.34,2.0273,2.0273,0,0,1,.4219,3.4392,12.9962,12.9962,0,0,0-.9583.9644c-.2749.2966-.4919.6583-.2213,1.036.2443.3411.6072.1288.8766-.0053,1.6229-.8077,3.3481-.489,5.0381-.4588,1.95.0349,2.0887.3427,1.6254,2.2741a2.7027,2.7027,0,0,0,1.3323,2.9169c1.0587.6737,1.8292-.038,2.2307-1.078.3388-.8774,1.036-.6633,1.6321-.5272.8155.1863,1.588.5576,2.4016.7563,2.1456.5242,4.1953.6586,5.62-1.5451.3254-.5031,1.0206-.9488,1.4543-.431,1.4379,1.7168,3.4939.8577,5.2051,1.396,1.7366.5462,3.4224-.3127,5.1162-.67,1.2323-.26-.1131-.9118.215-1.2951.0765-.0894.2023-.2036.2993-.1981.9973.0563,1.8881-.5692,3.01-.0866,1.7426.7494,3.22,2.1757,5.3434,2.0845.6531-.028,1.83.4813,1.9123.9091.3,1.5615,1.4609,1.38,2.4983,1.7414,1.9265.67,4.3431-.8371,5.9143,1.3533.0784.1093.5111.0814.6923-.0272.283-.17.104-.44-.0208-.6678-.829-1.5161-1.5283-3.0883-3.5326-3.5132a4.0088,4.0088,0,0,1-2.3081-1.3371,14.4289,14.4289,0,0,0-7.5788-5.4251c-.5068-.1671-.9258-.1593-.57-.979.27-.623-.4764-.9962-1.0614-1.0727-1.6218-.2119-2.0759-1.9247-3.5359-2.3588.65-.739,1.6012.022,2.0093-.8252-1.9122-2.3207-4.7356-2.8707-7.3606-3.3182-1.7585-.3-3.5147-.76-5.3066-.9549-.6529-.0709-1.0542-1.0635-1.93-.7342l-.0115-.0111c-.0412-.2563.9822-.878-.0465-.7094a5.5709,5.5709,0,0,1-4.51-.8758.4.4,0,0,0-.1862-.043c-3.02-.3322-5.621-2.26-8.7242-2.2929-.2991-.0032-.7211-.1624-.6428-.5529.1224-.611.5742-.3512.89-.1775.6583.3614,1.21.4333,1.5624-.3846a77.2229,77.2229,0,0,0,21.79,2.291c.7179-.0325,1.3525.65,2.0441.2326,1.63-.9844,3.4848-.5366,5.2092-.8955l-3.4955,2.2636c.8348.4383,1.2713,1.0815,2.0695.7721l-.0236-.0176c1.4207,1.1363,3.7792,1.0777,4.6708-.311,1.181-1.84-1.0537-1.8725-1.67-2.7732l11.2885-3.1377q15.0432,8.708,30.0846,17.4194c1.3694.7938,2.8092,1.5839,1.8573,3.5928a16.322,16.322,0,0,1-1.5461,1.154q-12.1345,7.062-24.285,14.0967-18.8323,10.9523-37.6472,21.9345c-3.3448,1.9568-6.5695,3.0189-10.33.7725-7.8693-4.7-15.8689-9.1825-23.8069-13.7683Q83.6094,152.94,69.2,144.5876,56.0333,136.9851,42.85,129.4119c-9.7865-5.6438-19.5912-11.2568-29.3359-16.972C10.6277,110.747,7.5457,109.353,4.96,107.1673Zm170.1029,25.6159.0252.02c-.1093-.6387-.6408-.9444-1.099-.7228-1.3711.663-2.6721,1.4709-4,2.2222l.0836.6125c1.9671-1.2435,2.9968-.8416,2.9756,1.7.5875-.9828,1.1071-1.5873,2.147-1.5192.6772.0444,1.6442-.3056,1.6437-1.0285C176.8376,133.1755,176.0211,132.7175,175.0624,132.7832ZM74.3362,119.988l-.0069.0546c.2321-.7811-.3184-1.1312-.7854-1.6-.5553-.557-1.44-1.2984-1.3765-1.87.2676-2.4111-.1539-3.6989-2.1657-4.8107a5.5771,5.5771,0,0,0-5.2761-.1165c-3.1206,1.2512-3.6019,1.23-3.9786,4.592-.0808.7217-.5941.9694-1.1289,1.1856-3.0952,1.2516-6.1988,2.4823-9.3,3.72-1.3786-.5908-5.82.173-7.5249,1.3157a1.5856,1.5856,0,0,0,.5317.2009c1.66-.0688,3.3367-.35,3.6862,2.0923.0984.687.8174.1442,1.2077-.1618l.98.4691c-.1464.2-.4486.4421-.4086.593.1018.3834.4522.3855.7738.2143.8485-.4517,1.6922-.9123,2.5378-1.3694l.3762.315c-.1617.74-.9,1.2526-.8554,2.0985,1.4185.4166,2.7456-.7109,4.3482-.1453l-2.4775,1.5813.3213.49a28.3767,28.3767,0,0,0,4.8972-2.8357c-1.9632-1.3414-3.7142.393-5.533.0393.1034-.2559.18-.4985.2965-.7207.149-.2853.3533-.5428.4921-.8323.5985-1.2482.1924-1.5683-1.5453-1.2258a2.2566,2.2566,0,0,1,2.8639-1.549c2.3976.9109,4.7126-.1483,7.0369.1833a4.707,4.707,0,0,0,3.12-.6653l1.8185-.3368.6294,1.2249c-.0081,1.8291,1.4486,1.94,2.6686,2.099,1.0975.1429,2.4068-.0792,2.7344-1.2941.36-1.3348-1.0826-1.312-1.864-1.75-.0877-.0491-.1306-.1784-.23-.3227a2.9025,2.9025,0,0,1,3.0685.2452c.3492.2779.79.7829,1.1357.3318.4569-.5967-.3681-.7883-.6486-1.15Zm48.9064,31.2007-2.2637-.5542c.2317-.9013-.2976-.8718-.8394-.614-.6455.307-1.0786.2518-1.3731-.5177,1.4-.6082,3.0069-.2663,4.7691-1.1557a20.8444,20.8444,0,0,0-6.61.6648c-.7.1466-.2131.5491-.07.85-1.7585.2073-2.5272,1.7237-4.0012,2.819,1.38.43,2.4763.742,3.5518,1.1138,1.6515.5711,3.43,1.0634,2.7787,3.4921-.0923.3439.1188.5573.4459.7372,1.6105.8857,5.2309.4553,6.9152-.8538a7.3749,7.3749,0,0,0,2.2382.5368c1.09-.0612,2.25-.2584,2.5165-1.3817.28-1.1792-1.0268-1.2395-1.7625-1.6612-.0759-.0435-.0835-.2061-.1362-.35a2.563,2.563,0,0,1,3.1427.5331c.3048.3213.7288.48.997.1217.3026-.4046-.1475-.6908-.4444-.8907-1.7592-1.1842-3.5467-.8229-5.333-.0547-.4211-.9977-1.1088-.1431-1.66-.239.2948-1.1976-.7446-1.5961-1.41-2.1777,1.4055-1.7886,2.629,1.1305,4.15.15C125.94,149.8766,125.94,149.8766,123.2426,151.1887ZM40.2368,106.79a6.2964,6.2964,0,0,0,4.3218-1.4065c1.2525-.9816,1.1625-1.9385-.2187-2.7059-2.0156-1.12-3.87-.4343-5.647.6288-.6643.3974-1.3533.89-1.2187,1.8052.1315.8933.9312,1.1894,1.6476,1.46A4.7018,4.7018,0,0,0,40.2368,106.79ZM98.18,140.2316a7.5894,7.5894,0,0,0,4.1979-1.6484c1.1289-.9638,1.0214-1.809-.315-2.5151-2.1028-1.111-4.001-.3749-5.7636.8055-1.5811,1.0589-1.418,2.1379.3694,2.8985A13.0539,13.0539,0,0,0,98.18,140.2316ZM80.7226,130.0809a2.6415,2.6415,0,0,0,2.283-1.004c.2761-.44.4423-.9144,1.0983-.9157.6322-.0012,1.19-.27,1.2508-.9618.0686-.7757-.55-1.15-1.1549-1.3785-1.2988-.49-2.632-.8928-3.6416.559-.31.4456-.7858.397-1.213.4658-.7981.1286-1.6783.33-1.7326,1.2285-.0521.8607.7971,1.2654,1.5158,1.5627A12.4392,12.4392,0,0,0,80.7226,130.0809ZM114.09,146.4187c.2066.6425,1.3166.8636.6872,1.6317-.453.5528-1.2239.3895-1.8126.167a4.456,4.456,0,0,1-1.2141-.91c-.4332-.3789-.7757-.326-1.1221.149a3.8537,3.8537,0,0,0,3.51,1.66c.8975-.045,2.2056-.3121,2.109-1.2487-.1524-1.4776.6814-1.0914,1.3977-1.1806.4751-.0592,1.0279.0582,1.4248-.6336-1.1021-.58-2.006-1.4939-3.3475-1.5957-.2116.8579.9217.7242.8353,1.4121C115.8129,146.2216,114.8954,145.7408,114.09,146.4187Zm-64.1676-39.058c.2226.2343.2908.3607.3947.4067.6872.304,2.06-.1576,1.9081,1.0363-.1331,1.0482-1.3935.5186-2.1622.6551-.2509.0445-.5186-.0134-.7733.0185-1.2724.1592-2.6456-.3916-4.05.5656,1.4687.7819,2.6062,1.7968,4.3455,2.2268-.2991-1.3033-1.4951-1.1057-1.6733-2.0642a23.4557,23.4557,0,0,0,2.7557-.0214c1.16-.14,3.0229.0257,2.9518-1.4261-.0748-1.529-1.8689-1.6382-3.2657-1.6048C50.2424,107.1559,50.1339,107.2554,49.9219,107.3607Zm57.57,38.0647c-.4607-1.0136-1.5456-.8954-1.7067-1.7535,1.2626-.0971,2.48-.1705,3.6925-.2912.829-.0825,1.8475-.1345,1.922-1.1961.0827-1.1775-1.0483-1.3336-1.8756-1.568a1.6016,1.6016,0,0,0-1.5786.1516c.0322.4146.3469.3484.5718.4189.6166.1932,1.6943-.0162,1.5169,1-.1424.8156-1.1206.673-1.8106.6842-1.3511.0219-2.703-.002-4.0541.0224-.4241.0076-1.2283.2973-.7626.627C104.54,144.3223,105.6711,145.4169,107.4923,145.4254Zm-66.2692-27.619c.2868.9233-.233,1.6242-.2747,2.391-.0238.4357-.2085.9532.2548,1.25.4358.2794.8651.04,1.2667-.1972,1.2492-.7379,2.503-1.468,4.17-2.444-2.0836-.2557-2.9573,1.2852-4.3611,1.46-.3561-1.01.3578-1.8818.3146-2.8465-.0338-.7557-.2956-1.2406-1.023-.8373a17.2233,17.2233,0,0,0-4.4135,2.8636C38.9875,119.3744,39.8628,118.103,41.2231,117.8064Zm12.7937-6.3138c.1529.8868,1.3684,1.072.7419,1.84-.5775.708-1.4179.4794-2.1157.08a12.0721,12.0721,0,0,1-1.1872-.9665.4424.4424,0,0,0-.6667.1224.56.56,0,0,0,.01.5214,3.7179,3.7179,0,0,0,3.2668,1.3348c.9545-.0874,2.2041-.1852,2.09-1.7-.054-.7142.4313-.6685.8613-.7246.6519-.0851,1.3068-.1481,2.18-.2448-1.9784-1.6346-2.3217-1.7917-3.6809-1.7881-.0288.742,1.1925.5147,1.084,1.3585Zm-33.5663-2.3688a2.0456,2.0456,0,0,0,1.9051-.6959c.3515-.4851-.0058-.8229-.2423-1.2033-.2317-.3728-1.0075-.6921-.3408-1.2179.4388-.346.968-.0536,1.4179.2493.4551.3065.9,1.3675,1.4534.496.3628-.5716-.5842-.9967-1.1378-1.2934a3.1252,3.1252,0,0,0-2.4324-.2769c-.9572.29-1.5054.7821-.6852,1.8054.2744.3425,1.0579.6914.4685,1.1933-.5374.4576-1.2092.1177-1.7309-.3519-.3814-.3433-.46-1.1963-1.28-.8188a.5358.5358,0,0,0-.2132.4656,1.98,1.98,0,0,0,1.1581,1.2156A3.1207,3.1207,0,0,0,20.4505,109.1238Zm154.056,28.03c1.74,1.3558,3.39,2.22,5.4281,1.4811.9375-.34,2.1-.675,1.6644-2.1-.2976-.975-2.4846-2.0013-3.3247-1.563C177.0392,135.6164,175.858,136.3641,174.5065,137.154ZM27.4579,113.57c1.1661.2734,1.6487-.8106,2.4994-.4662,1.0777.4363.3048,1.3749.5738,2.0169.1458.348.66.7091.814.1406.3236-1.1923,1.1811-1.0349,2.0558-1.1751.7106-.1138,1.62-.3078,1.6656-1.3043.029-.6393-2.6673-2.3139-3.2769-1.9748A16.8626,16.8626,0,0,0,27.4579,113.57Zm13.0047,2.0966c-3.0287-2.43-4.7519-2.2043-7.7306,1.0047l3.5293,1.8405c-.1208-.91-.6345-.9012-.8694-1.1838-.3115-.3748-1.3716-.2859-.8979-1.1094.4015-.698,1.0671-.3963,1.6874-.0657.5656.3015,1.0587,1.0067,1.9758.5028a6.682,6.682,0,0,1-.8074-.5956c-.32-.3212-1.237-.3128-.8861-.9725.3234-.6081.9949-.6206,1.68-.2013A2.8268,2.8268,0,0,0,40.4626,115.6668Zm15.1766,14.19c1.28.6233,2.2218,1.5263,3.6779,1.7835-.3917-1.1132-1.6455-1.0234-1.9794-1.914,1.2915-1.68,2.3928.8783,3.8622.1673l-1.9742-1.2554c1.6583-1.799,2.7067.7758,4.1216.44C61.14,126.5207,59.6918,126.65,55.6392,129.8563Zm17.2991-4.2569.0829.5862a32.887,32.887,0,0,0,8.1472-1.8889c-1.691-.51-2.7589-3.0983-5.0642-1.2275,1.1329.0386,2.2949-.0221,3.135,1.1583Zm92.625,5.4807c1.5984.4725,2.9072,1.0541,3.292,3.1694.78-1.1533,1.3611-1.9846,1.9093-2.8372.2306-.3586.67-.7793.2977-1.184a1.3716,1.3716,0,0,0-1.0835-.1571C168.5,130.3717,167.034,130.7379,165.5633,131.08ZM27.1073,107.5146c-1.4715.06-2.2733.88-3.1976,1.385-.6063.3313-1.3572.7331-1.1291,1.5945a2.0733,2.0733,0,0,0,1.6118,1.27,5.8015,5.8015,0,0,0,5.7939-2.2189c-.5964-.2617-.9842.201-1.4146.425a9.13,9.13,0,0,1-2.9631,1.3723,1.6362,1.6362,0,0,1-1.8178-.8249c-.3255-.7231.44-.958.8784-1.2907C25.5205,108.7326,26.3969,108.551,27.1073,107.5146Zm137.4265,22.7219c-.8831-.3273-2.0805-.1018-2.307-1.3174a.9928.9928,0,0,1,.63-1.08,3.0119,3.0119,0,0,1,3.1156.0275,2.9561,2.9561,0,0,1,.6813.6591c.2806.3149.56.54.9634.1871a3.72,3.72,0,0,0-4.7274-1.6167c-.8385.2848-1.8464.612-1.7744,1.7382.0679,1.0609,1.0127,1.4246,1.8983,1.6185C163.4392,130.5464,163.9766,130.869,164.5338,130.2365ZM43.1968,108.5089l.3861.7619,5.804-3.37a17.8894,17.8894,0,0,0-1.6633-1.03c-.2318-.11-.87-.0921-.6585.28.8153,1.4343-.6381,1.3334-1.1543,1.7364A23.4143,23.4143,0,0,1,43.1968,108.5089ZM107.25,139.2016a20.0733,20.0733,0,0,0-1.8244-.963c-.2421-.0966-.8571.0052-.535.381.8416.982-.1877,1.0163-.58,1.28-.7995.5368-1.694.9341-2.481,1.4863-.2662.1868-1.0857.15-.6747.8422.28.4724.684.1261,1.0009-.0569C103.7657,141.2411,105.37,140.2992,107.25,139.2016Zm48.4979-12.7311a27.8183,27.8183,0,0,0,4.5731-2.409,3.4,3.4,0,0,0-2.0771-1.0944C159.2151,125.4673,155.9149,124.679,155.7475,126.4705Zm-1.2088,14.853a6.7334,6.7334,0,0,0-3.1023-.3514.7943.7943,0,0,0-.9273.7592c-.0289.539.5394.4627.8467.5567C152.5009,142.6384,153.4193,142.103,154.5387,141.3235Zm2.4642-19.2225a9.8916,9.8916,0,0,0-4.2734,2.4579A8.8736,8.8736,0,0,0,157.0029,122.101Z"/><path class="e8868873-b78d-4647-a47a-83d1d08f3d12" d="M4.96,107.1673c2.5862,2.1857,5.6682,3.58,8.5547,5.2726,9.7447,5.7152,19.5494,11.3282,29.3359,16.972q13.17,7.5953,26.3494,15.1757,14.4236,8.3286,28.8318,16.6834c7.938,4.5858,15.9376,9.0679,23.8069,13.7683,3.7609,2.2464,6.9856,1.1843,10.33-.7725q18.8037-11.0011,37.6472-21.9345,12.1367-7.0583,24.285-14.0967a16.322,16.322,0,0,0,1.5461-1.154c.7076,3.9964-.5841,6.4627-4.4159,8.6287-20.3236,11.4884-40.4469,23.3317-60.6149,35.0943a8.0117,8.0117,0,0,1-8.7627-.0125Q65.0033,147.9,8.084,115.1269c-2.3685-1.3621-3.7146-2.8426-3.24-5.64A18.8216,18.8216,0,0,0,4.96,107.1673Z"/><path class="a1de736b-d48c-4998-8bea-504b491282ab" d="M190.5765,67.4967c.0107,3.6857.2362,7.3864-.02,11.0534-.354,5.0625-3.1722,8.91-6.8512,12.1921a6.5,6.5,0,0,0-1.6507,1.6161q-4.0738,2.3-8.1477,4.6c-.8047.2307-1.6281.41-2.4113.6984a67.9073,67.9073,0,0,1-24.2577,4.0289,59.2824,59.2824,0,0,1-9.0266-.7748c-8.3532-1.3582-16.2963-3.76-23.1679-8.9952-4.3153-3.2873-7.4028-7.3111-8.398-12.75l-.0141-3.5459.032-4.6376,3.0786,1.94.416.4-.01-.0052c1.313,3.3518,4.2751,5.1251,7.03,6.9412,8.0145,5.2826,17.0916,7.5371,26.5091,8.1427,10.3267.664,20.5087-.4488,30.1276-4.6352C181.4161,80.4574,187.9079,75.9252,190.5765,67.4967Z"/><path class="e2cfe3c2-c510-4007-8f7a-7ad0e8e7d221" d="M173.9067,96.9575l8.1478-4.5992c.8945,7.4542-2.2212,13.0864-7.886,17.6344-3.1917,2.5625-6.8872,4.2044-10.4632,6.077q-5.6448,1.5684-11.288,3.1379-.7751.0333-1.5516.0656c-1.7244.3589-3.58-.0889-5.2092.8955-.6916.4178-1.3262-.2651-2.0441-.2326a77.22,77.22,0,0,1-21.79-2.2911q-4.2537-1.5815-8.5075-3.1626-2.7187-1.5466-5.438-3.093a14.2312,14.2312,0,0,0-2.7456-2.2363q-.9255-.8257-1.8521-1.6515c-2.5666-3.0715-4.6166-6.4-5.2066-10.4548q-.0114-.9792-.0224-1.9587-.0055-.5781-.0116-1.1559.0744-4.2781.1484-8.5566c1.0741,1.4781,1.2219,3.3581,2.2445,4.8964a30.5373,30.5373,0,0,0,11.6449,10.2325c11.3569,5.9049,23.6386,6.8885,36.0673,6.0965a48.5867,48.5867,0,0,0,20.7818-6.1315C170.6874,99.48,172.7124,98.784,173.9067,96.9575Z"/><path class="a55542c7-a995-487a-88a6-8201770ab9ee" d="M109.7418,72.9218l-3.0786-1.94c-.4594-.7991-1.3264-1.0778-2.0177-1.5807-.9237-.9821-1.8739-1.9407-2.766-2.9507A16.9177,16.9177,0,0,1,97.394,54.6374c.0434-2.706.0721-5.4121.1072-8.1181.6159.0622.5728.6072.734,1.0025a23.2849,23.2849,0,0,0,9.7474,11.1362,53.725,53.725,0,0,0,16.6095,6.6,64.8513,64.8513,0,0,0,25.4383.8754c.6371.1338.6977.4773.3561.9714-.4124.5964-.8222,1.1945-1.3318,1.9355,1.3742-.0254,1.93-1.1738,3.1344-1.3872.546,2.9013,1.0923,5.8041,1.7476,9.2859.6635-3.4659,1.2231-6.3893,1.78-9.2977,1.195.1716,1.7155,1.4021,2.9842,1.2957a8.6743,8.6743,0,0,0-.6752-1.09c-1.2022-1.3916-.7606-1.82.9331-2.0156,2.2778-.2632,4.5227-.8108,6.7817-1.2363l.0339-.2937-3.9017-.7807c.68-.3574,1.3393-.7634,2.0434-1.0646,7.4233-3.1748,13.9105-7.3887,17.1294-15.2794.0544-.1335.3152-.1827.48-.2712l.1768,2.2811c-.005,1.9912-.0041,3.9824-.0184,5.9734a2.274,2.274,0,0,0,.5449,1.7758,10.1175,10.1175,0,0,1,2.9565,8.5953c-.8779-1.6324-1.5574-3.38-2.9425-4.7068-.8213-.7865-1.3358-.904-1.7661.36a15.8065,15.8065,0,0,1-2.488,4.3447c-3.7,4.9065-8.8652,7.7855-14.3754,10.0934a55.1216,55.1216,0,0,1-16.8261,3.9651,87.7,87.7,0,0,1-14.4619.044c-1.39-.1122-2.8468-1.0791-4.2828-.1081-3.4849-1.0453-7.0023-1.9956-10.4442-3.1674-2.5343-.8629-4.97-2.0155-7.45-3.039l.01.0051Z"/><path class="f73ffb0d-5f65-4c66-862e-e0f1d1102967" d="M181.525,46.9056c-.1645.0885-.4253.1377-.48.2712-3.2189,7.8907-9.7061,12.1046-17.1294,15.2794-.7041.3012-1.3634.7072-2.0434,1.0647-.5049-.091-1.01-.1842-1.5148-.2729-3.3215-.5833-3.32-.5822-1.5415-3.4179.044-.07-.0187-.207-.0435-.41-.6142.4139-1.2258.76-1.7606,1.2-1.1579.9519-1.5312.56-1.4279-.77.2659-.5907.854-.4773,1.3311-.6164a36.8911,36.8911,0,0,0,12.1823-5.7145c3.4195-2.5918,6.4938-5.5471,7.146-10.1442a9.39,9.39,0,0,0-1.12-5.0328,17.8594,17.8594,0,0,0-6.0324-6.6764c-7.6946-5.5741-16.6215-7.4564-25.8512-8.0588a60.6516,60.6516,0,0,0-14.09.6726c-7.4866,1.2654-14.5632,3.4623-20.5969,8.2552-3.3492,2.6606-5.7989,5.8911-5.7756,10.4507a9.974,9.974,0,0,0,.181,1.137c1.7474,6.3242,6.6671,9.6848,12.0689,12.295,8.4463,4.0812,17.5473,5.44,26.85,5.1524,2.4948-.0771,5.1566.1653,7.5382-1.0715.5289.6668,1.2332,1.2395,1.29,2.1983l-9.17,1.7363,8.4942,1.7011a64.8513,64.8513,0,0,1-25.4383-.8754,53.725,53.725,0,0,1-16.6095-6.6,23.2849,23.2849,0,0,1-9.7474-11.1362c-.1612-.3953-.1181-.94-.734-1.0025C96.37,37.25,100.8454,30.8937,108.24,26.1635c7.2951-4.6665,15.4332-6.8194,23.9718-7.6756a67.3669,67.3669,0,0,1,28.8893,3.1129,39.6748,39.6748,0,0,1,14.2035,8.1552C180.3788,34.4,182.3078,40.1532,181.525,46.9056Z"/><path class="ab2d8924-dd1c-4167-a0b4-7988101c9f54" d="M104.6455,69.4015c.6913.5029,1.5583.7816,2.0177,1.5807q-.016,2.3187-.0316,4.6378c-2.1667,1.23-3.4305,4.6735-2.8443,7.7532.788-1.5144,1.355-3.179,2.858-4.2075.9952,5.4389,4.0827,9.4627,8.398,12.75,6.8716,5.2348,14.8147,7.637,23.1679,8.9952a59.2824,59.2824,0,0,0,9.0266.7748,67.9073,67.9073,0,0,0,24.2577-4.0289c.7832-.2884,1.6066-.4677,2.4113-.6984-1.1944,1.8256-3.2194,2.5218-4.9815,3.5111a48.5867,48.5867,0,0,1-20.7818,6.1315c-12.4287.792-24.71-.1916-36.0673-6.0965A30.5373,30.5373,0,0,1,100.4313,90.272c-1.0226-1.5383-1.17-3.4183-2.2445-4.8964a25.6567,25.6567,0,0,1,.3222-6.9525A21.8044,21.8044,0,0,1,104.6455,69.4015Z"/><path class="ae722e0e-f7f9-4646-bc9f-dff49c836905" d="M110.1481,73.3167c2.48,1.0235,4.9154,2.1761,7.45,3.039,3.4419,1.1718,6.9593,2.1221,10.4442,3.1675a7.9317,7.9317,0,0,0,3.03,1.16,65.3511,65.3511,0,0,0,24.8789,1.9922c8.1351-.88,15.8936-2.82,22.5293-7.8153,3.1348-2.36,6.151-5.0153,6.7045-9.3286a10.1175,10.1175,0,0,0-2.9565-8.5953,2.274,2.274,0,0,1-.5449-1.7758c.0143-1.991.0134-3.9822.0184-5.9734,6.3238,4.4722,9.7756,10.3364,8.8748,18.31-2.6687,8.4284-9.1605,12.9606-16.7615,16.2686-9.6189,4.1864-19.8009,5.2992-30.1276,4.6352-9.4175-.6056-18.4946-2.86-26.5091-8.1427C114.4232,78.4418,111.4611,76.6685,110.1481,73.3167Z"/><path class="ab32c9e7-e384-4677-a92a-48cb3c6f1e3d" d="M113.3147,114.4824q4.2537,1.5813,8.5075,3.1626c-.3519.818-.904.7461-1.5623.3847-.3162-.1737-.768-.4335-.89.1775-.0783.3905.3437.55.6428.5529,3.1032.0331,5.7042,1.9607,8.7242,2.2929a.4.4,0,0,1,.1862.043,5.5709,5.5709,0,0,0,4.51.8758c1.0287-.1686.0053.4531.0466.7095-1.1092.1-1.5877,1.4106-3.2351,1.2182,2.2182.9385,2.8238.6267,3.2465-1.2072.876-.3293,1.2773.6633,1.93.7342,1.7919.1946,3.5481.655,5.3066.9549,2.625.4475,5.4484.9975,7.3606,3.3182-.4081.8472-1.3589.0862-2.0093.8252,1.46.4341,1.9141,2.1469,3.5359,2.3588.585.0765,1.3318.45,1.0614,1.0727-.3558.82.0632.8119.57.979a14.4289,14.4289,0,0,1,7.5788,5.4251,4.0088,4.0088,0,0,0,2.3081,1.3371c2.0043.4249,2.7036,1.9971,3.5326,3.5132.1248.2283.3038.4982.0208.6678-.1812.1086-.6139.1365-.6923.0272-1.5712-2.19-3.9878-.6831-5.9143-1.3533-1.0374-.3609-2.1979-.18-2.4983-1.7414-.0823-.4278-1.2592-.9371-1.9123-.9091-2.1235.0912-3.6008-1.3351-5.3434-2.0845-1.1222-.4826-2.013.1429-3.01.0866-.097-.0055-.2228.1087-.2993.1981-.3281.3833,1.0173,1.0348-.215,1.2951-1.6938.3577-3.38,1.2166-5.1162.67-1.7112-.5383-3.7672.3208-5.2051-1.396-.4337-.5178-1.1289-.0721-1.4543.431-1.4251,2.2037-3.4748,2.0693-5.62,1.5451-.8136-.1987-1.5861-.57-2.4016-.7563-.5961-.1361-1.2933-.35-1.6321.5272-.4015,1.04-1.172,1.7517-2.2307,1.078a2.7027,2.7027,0,0,1-1.3323-2.9169c.4633-1.9314.3242-2.2392-1.6254-2.2741-1.69-.03-3.4152-.3489-5.0381.4588-.2694.1341-.6323.3464-.8766.0053-.2706-.3777-.0536-.7394.2213-1.036a12.9962,12.9962,0,0,1,.9583-.9644,2.0273,2.0273,0,0,0-.4219-3.4392,6.0736,6.0736,0,0,1-2.4467-2.34c-.1849-.3112-.1342-.8512-.6971-.6224a1.5159,1.5159,0,0,0-.67.6618c-.2388.4359.0432.7509.4258.9154.545.2342,1.4933.1148,1.21,1.0979-.2753.957-1.1939.5035-1.8435.5664a3.613,3.613,0,0,1-1.14-.1639c-1.1856-.2811-2.7693-.1125-3.4227-1.0623-.6984-1.0153.6139-2.12.9185-3.2249a4.7134,4.7134,0,0,0,.0148-1.1647c-2.8815,2.1721-3.1525,4.6433-.6454,5.78-1.0473.8463-2.2612.5592-3.41.6462-1.5945.1207-3.2414-.3868-4.7818.3886a8.7841,8.7841,0,0,0-2.0113-.3917c-1.266.045-2.6035.1569-2.64,1.9427l-1.1594.7251-1.19.0446c-1.8206.1032-3.526,1.2625-5.4735.3615-1.8133-.8389-2.1125-1.43-.67-2.8632,1.0248-1.0181,1.589-2.4954,3.4954-2.7411,1.8279-.2356,2.1841-2.6145,3.6356-3.6136-.5877-.6156-.4385-1.7818-1.5567-2.0167-.5611-.1179-1.0948-.3618-1.6458-.5333-1.25-.389-2.2986-.7934-1.6941-2.54a3.525,3.525,0,0,1,3.25-2.7256c2.1977-.0375,4.953.45,6.4376-.6633,1.6661-1.25,2.6152-1.9434,4.3345-.6685,2.5311-2.7237,5.7522.3343,8.4735-1.0009.5723-.2808,1.6119.2027.6015-1.1328-.533-.7046.7667-.8819,1.3348-.8162A11.5351,11.5351,0,0,0,113.3147,114.4824Z"/><path class="ab32c9e7-e384-4677-a92a-48cb3c6f1e3d" d="M98.0384,93.9322q.006.578.0116,1.1559c-2.1631.1083-4.343-.2646-6.4915.3492a3.1616,3.1616,0,0,1-2.86-.8347,2.4875,2.4875,0,0,0-2.6751-.1832c-.57.1846-1.4232.4543-1.3283,1.37.1061,1.0222.748,1.4022,1.74,1.23l.0185.0186c-.7909.9922-1.6211,1.6772-2.9542.7745-1.1632-.7877-2.5323-.4617-3.7659-.3-1.0408.136-.681.97-.3061,1.634.4335.7675,1.416,1.4038.51,2.5069-.228.2776.1416.95.5363.5851.831-.7681,2.0289-.3868,2.8868-1.35,1.269-1.4244,2.6155-.929,3.0884.8873a1.2756,1.2756,0,0,0,.7583,1.0247c1.7205.6592.0545,1.8865.3859,2.8635.1608.4743-1.0106-.0013-1.5824-.023-1.1349-.0433-2.519-1.56-3.3336.5269-.0318.0814-.3825.1313-.521.0644-2.956-1.4293-5.9837-.0986-8.97-.2488-.81-.0407-1.1278.8135-1.81,1.0139a4.2665,4.2665,0,0,0-3.8646-2.9478c-1.5556.0108-2.9935.3549-3.2208,2.3025l-.0126.013c-1.9649-.6793-2.4525-1.9782-1.5322-4.103.2226-.5138,1.1162-1.3727-.49-.8648-.2707.0856-.3052-.2336-.2469-.39.6016-1.61.3136-3.6556,2.3252-4.5839.6274-.29,1.6594-.8592,1.626-1.2187-.1279-1.3738.5776-2.6509.366-3.9557-.2478-1.5287-2.5856-3.0933-4.4871-3.1551-1.2249-.04-2.4521-.0074-4.1292-.0074,1.1265-.5326,3.0272-.3748,1.3782-2.0443-.4635-.4692.0854-.9794.7146-.9162.4328.0435.8406.3242,1.3945.1495.3028-.6244-.7424-.6094-.6-1.29.75.0363,1.7727.65,2.1633-.59q4.0227,2.13,8.0454,4.2606l.4186.4066c2.501,1.7935,5.2667,3.1455,7.8873,4.7388a3.1462,3.1462,0,0,0,4.1817-.39l.4774-.39c1.2835-.2331,2.1729-1.2831,3.3972-1.6389C91.0056,90.9113,94.485,92.5351,98.0384,93.9322Z"/><path class="e8868873-b78d-4647-a47a-83d1d08f3d12" d="M49.1994,125.0592l-.98-.469q1.05-1.7235,2.0992-3.4472c3.1008-1.2379,6.2044-2.4686,9.3-3.72.5348-.2162,1.0481-.4639,1.1289-1.1856.3767-3.3617.858-3.3408,3.9786-4.592a5.5771,5.5771,0,0,1,5.2761.1165c2.0118,1.1118,2.4333,2.4,2.1657,4.8107-.0635.5721.8212,1.3135,1.3765,1.87.467.4685,1.0175.8186.7854,1.5994a6.4352,6.4352,0,0,0-6.4383,2.0761q-.3147-.6124-.6292-1.2248c2.1528-1.3687.1754-1.9607-.5509-2.7593,1.4215-1.8664,2.6342,1.2245,4.0841.1711-3.2087-2.249-3.4139-2.25-5.7195-.037.226.1424.4405.2746.652.4114.4955.32,1.4307.4388.9966,1.3-.3284.6515-1.1111.4937-1.7609.3875a2.103,2.103,0,0,1-1.2582-.8387.8114.8114,0,0,0-1.2978-.0891c.6156,1.3637,1.8,1.6217,3.0359,1.7907a4.707,4.707,0,0,1-3.12.6653c-2.3243-.3316-4.6393.7276-7.0369-.1833a2.2576,2.2576,0,0,0-2.8646,1.5482l-.1-.0487c-.9937.1628-2.9068-1.2015-2.4038,1.4472Z"/><path class="a4f35348-a6e5-4384-9347-1da4554865ed" d="M84.5558,80.21A66.8641,66.8641,0,0,1,93.19,84.9867c1.0235.6.8263,1.3721-.1556,1.92-1.69.9434-3.3949,1.8613-5.0933,2.79-.4827-.3149-.808-.9107-1.505-.8434l.0193.0167-4.277-2.854c.4177-.606.99-1.0941,1.1074-1.6743.2881-1.4187.8629-1.2079,1.8345-.6336a13.18,13.18,0,0,0,4.1967,2.0409,52.6275,52.6275,0,0,0-5.7236-3.4967c-.7832-.4089-.956-.824-.6384-1.5635l-.0223.0165C83.62,81.0185,84.0306,80.4264,84.5558,80.21Z"/><path class="e8868873-b78d-4647-a47a-83d1d08f3d12" d="M120.9789,150.6345q1.1319.277,2.2635.5539c-.4562.5943.042.748.4363.964.5244.2873,1.4533.4383,1.0028,1.2773-.3739.6963-1.2133.5547-1.9285.3548a2.06,2.06,0,0,1-1.0536-.7967c-.3259-.4087-.8627-.592-1.1511-.1856-.28.3944.18.7866.53,1.0764a4.3591,4.3591,0,0,0,5.026-.0941c.551.0959,1.2387-.7587,1.66.2388-.9536.8369-2.9126,1.2848-1.2183,3.147-1.6843,1.3091-5.3047,1.7395-6.9152.8538-.3271-.18-.5382-.3933-.4459-.7372.6518-2.4287-1.1272-2.921-2.7787-3.4921-1.0755-.3718-2.1717-.6837-3.5518-1.1138,1.474-1.0953,2.2427-2.6117,4.0011-2.819.5426.4392,2.3153.2427.8752,1.7173-.1631.1669.2055.4032.2676.3515C118.8687,151.2047,120.5056,152.2381,120.9789,150.6345Z"/><path class="ab32c9e7-e384-4677-a92a-48cb3c6f1e3d" d="M98.0724,97.0468c.59,4.0551,2.64,7.3833,5.2066,10.4548-1.5965.1193-3.088-.5364-4.6867-.6241-1.4558-.08-2.8262-.5458-4.2813.143a1.3832,1.3832,0,0,1-1.8872-.8936,1.3993,1.3993,0,0,1,.4749-1.8662,33.2666,33.2666,0,0,0,3.0711-2.6114c1.2915-1.2336,1.1351-1.9544-.4836-2.7a4.8614,4.8614,0,0,1-.872-.4074c-.5143-.3788-.7884-.8641-.3631-1.4866.4182-.612.8464-.3125,1.3244-.0431C96.3859,97.47,97.2275,98.1421,98.0724,97.0468Z"/><path class="a410f6d0-dbff-438c-ae25-806717f50b8f" d="M82.9551,80.6887c-.3176.74-.1448,1.1546.6384,1.5635a52.6275,52.6275,0,0,1,5.7236,3.4967A13.18,13.18,0,0,1,85.12,83.708c-.9716-.5743-1.5464-.7851-1.8345.6336-.1179.58-.69,1.0683-1.1074,1.6743l4.277,2.8541a1.3832,1.3832,0,0,1-1.5636-.4543c-2.8095-2.6-5.8821-1.45-8.9349-.7117-1.6228-.482-3.28-1.4142-4.7319.3585q-.2092-.2034-.418-.4068c.5964-.4415,1.1923-.8829,1.8761-1.3894-.7435-.4405-1.4049-.82-2.0541-1.2193-2.3753-1.4612-4.9548-2.588-7.1406-4.3595.7321-.1944,1.2006.3413,1.7426.6468,2.0671,1.1649,4.1239,2.3481,6.2343,3.5529.0831-.27.1349-.4416.1884-.6122a7.9648,7.9648,0,0,0-.7706-4.3632c2.47,1.6725,4.9853,1.2135,7.6591.1048l-7.039-4.0561q.2678-.2277.5361-.4548c2.7687,1.5875,5.5592,3.1369,8.2916,4.7827A2.5536,2.5536,0,0,0,82.9551,80.6887ZM77.15,86.8856a8.8,8.8,0,0,0,4.471-1.5692c1.4687-1.2459,1.3-2.9134-.4389-3.7151a7.2492,7.2492,0,0,0-5.12-.2364c-2.3457.66-3.77,2.0154-3.527,3.2984C72.7659,85.8764,74.83,86.9235,77.15,86.8856Z"/><path class="a4f35348-a6e5-4384-9347-1da4554865ed" d="M70.8832,79.9118a7.9648,7.9648,0,0,1,.7706,4.3632c-.0535.1706-.1053.3418-.1884.6122-2.11-1.2048-4.1672-2.388-6.2343-3.5529-.542-.3055-1.01-.8412-1.7426-.6468l.0255.0232.0561-.4293a9.82,9.82,0,0,1,3.74-2c1.2221.4988,2.1251,1.692,3.5954,1.6467Z"/><path class="a4f35348-a6e5-4384-9347-1da4554865ed" d="M75.957,87.704c3.0528-.738,6.1254-1.8883,8.9349.7117a1.3832,1.3832,0,0,0,1.5636.4543l-.0193-.0168c-.1385.7355.6565.7033.9148,1.1125q-.091.2085-.1822.4169c-1.2244.3556-2.1138,1.4056-3.3977,1.6384q-.2221-.028-.4432-.0555l.0168.0143A2.5568,2.5568,0,0,0,81.38,90.7976l.0219.0154a4.7956,4.7956,0,0,0-2.7435-1.57l.0219.0154a4.6391,4.6391,0,0,0-2.7434-1.57Z"/><path class="a4f35348-a6e5-4384-9347-1da4554865ed" d="M71.5033,75.9605l7.039,4.0561c-2.6738,1.1087-5.1894,1.5677-7.6591-.1048l.0217.0161c-.7829-1.0578-2.1044-1.2966-3.0967-2.036A8.8987,8.8987,0,0,1,71.5033,75.9605Z"/><path class="a4f35348-a6e5-4384-9347-1da4554865ed" d="M63.4885,80.6875c2.1858,1.7715,4.7653,2.8983,7.1406,4.3595.6492.3993,1.3106.7788,2.0541,1.2193-.6838.5065-1.28.9479-1.8761,1.3894q-4.0236-2.13-8.046-4.26c-2.003-1.5811-1.981-1.7605.336-2.73l.4169.0454Z"/><path class="a4f35348-a6e5-4384-9347-1da4554865ed" d="M82.9551,80.6887a2.5536,2.5536,0,0,1-2.6241-.4c-2.7324-1.6458-5.5229-3.1952-8.2916-4.7827,1.2261-1.292,2.57-1.2345,4.0106-.381,2.6546,1.5722,5.3208,3.1248,7.9826,4.6858-.4138.24-.9207.3659-1.1.8947Z"/><path class="ab32c9e7-e384-4677-a92a-48cb3c6f1e3d" d="M86.4347,97.019a5.12,5.12,0,0,1,.128-1.53c.1834-.4589.9819-.977,1.1755-.5094.64,1.5466,2.7183.716,3.34,2.3237a10.39,10.39,0,0,1,.6961,4.1325c-.8526-.0854-1.7587-1.0655-2.6175.0984a1.1747,1.1747,0,0,1-1.5868-.858c-.2164-.9352.266-.865.8869-.9746.9833-.1734.8-.8863.4465-1.4776a2.2734,2.2734,0,0,0-2.4508-1.1865Z"/><path class="ae900063-34c2-4581-9612-ed5b06b3e8f2" d="M49.1994,125.0592l.7191-.4a6.9173,6.9173,0,0,0,2.4038-1.4473l.1.0487c1.7384-.3417,2.1445-.0216,1.546,1.2266-.1388.29-.3431.547-.4921.8323-.1161.2222-.1931.4648-.2965.7207,1.8188.3537,3.57-1.3807,5.533-.0393a28.3767,28.3767,0,0,1-4.8972,2.8357l-.3213-.49,2.4775-1.5813c-1.6026-.5656-2.93.5619-4.3482.1453-.045-.8459.6937-1.3581.8539-2.0988.0208-.1474.0431-.2945.0654-.4417l-.44.127c-.8456.4571-1.6893.9177-2.5378,1.3694-.3216.1712-.672.1691-.7738-.2143C48.7508,125.5013,49.053,125.26,49.1994,125.0592Z"/><path class="ae900063-34c2-4581-9612-ed5b06b3e8f2" d="M40.2368,106.79a4.7018,4.7018,0,0,1-1.115-.2182c-.7164-.2708-1.5161-.5669-1.6476-1.46-.1346-.9148.5544-1.4078,1.2187-1.8052,1.777-1.0631,3.6314-1.7486,5.647-.6288,1.3812.7674,1.4712,1.7243.2187,2.7059A6.2964,6.2964,0,0,1,40.2368,106.79Zm.5-.7962a4.665,4.665,0,0,0,3.1719-1.6866c.2927-.369.0608-.74-.3045-.9718-1.3184-.8377-2.4722-.1489-3.6374.4089a.8465.8465,0,0,0-.1633.1041c-.4436.3567-1.0794.662-.86,1.3559C39.179,105.95,39.8924,105.9764,40.7371,105.9937Z"/><path class="ae900063-34c2-4581-9612-ed5b06b3e8f2" d="M126.5454,157.17c-1.6943-1.8622.2647-2.31,1.2183-3.147,1.7863-.768,3.5738-1.1293,5.333.0549.2969.2.747.4861.4444.8907-.2682.3586-.6922.2-.997-.1217a2.563,2.563,0,0,0-3.1427-.5331c.0527.144.06.3066.1362.35.7357.4217,2.0424.482,1.7625,1.6612-.2667,1.1233-1.4267,1.3205-2.5165,1.3817A7.3749,7.3749,0,0,1,126.5454,157.17Zm1.9649-1.9039c-.4538.1119-1.2243-.0584-1.2387.7671-.013.7444.6664.8585,1.2579.8976.5855.0386,1.3354.04,1.4186-.6577C130.0532,155.3925,129.2208,155.39,128.51,155.2664Z"/><path class="ae900063-34c2-4581-9612-ed5b06b3e8f2" d="M67.891,122.1184a6.4352,6.4352,0,0,1,6.4383-2.0761l.0071-.0542.4188.29c.2805.362,1.1055.5536.6486,1.15-.3454.4511-.7865-.0539-1.1357-.3318A2.9025,2.9025,0,0,0,71.2,120.851c.1.1443.1427.2736.23.3227.7814.4376,2.2239.4148,1.864,1.75-.3276,1.2149-1.6369,1.437-2.7344,1.2941C69.34,124.0586,67.8829,123.9475,67.891,122.1184Zm2.6575-.3266c-.4341.1415-1.2311-.0879-1.2412.76-.0087.7282.65.8835,1.2554.9231.5921.0387,1.3407.029,1.43-.659C72.1081,121.9257,71.2522,121.9448,70.5485,121.7918Z"/><path class="ae900063-34c2-4581-9612-ed5b06b3e8f2" d="M98.18,140.2316a13.0539,13.0539,0,0,1-1.5113-.4595c-1.7874-.7606-1.95-1.84-.3694-2.8985,1.7626-1.18,3.6608-1.9165,5.7636-.8055,1.3364.7061,1.4439,1.5513.315,2.5151A7.5894,7.5894,0,0,1,98.18,140.2316ZM96.65,138.6178c.3254.8741,1.0818.8051,1.7819.7718a4.4526,4.4526,0,0,0,3.3375-1.6806.6266.6266,0,0,0-.23-.9859,3.0391,3.0391,0,0,0-3.5861.2591C97.3336,137.38,96.5077,137.6135,96.65,138.6178Z"/><path class="ae900063-34c2-4581-9612-ed5b06b3e8f2" d="M80.7226,130.0809a12.4392,12.4392,0,0,1-1.5942-.444c-.7187-.2973-1.5679-.702-1.5158-1.5627.0543-.8981.9345-1.1,1.7326-1.2285.4272-.0688.9032-.02,1.213-.4658,1.01-1.4518,2.3428-1.049,3.6416-.559.6045.228,1.2235.6028,1.1549,1.3785-.0613.6921-.6186.9606-1.2508.9618-.656.0013-.8222.4758-1.0983.9157A2.6415,2.6415,0,0,1,80.7226,130.0809Zm1.0621-2.3319c-.7219.1536-1.3217-.6072-2.0423-.3026-.4745.2005-1.3007.3154-.7112,1.1465a2.0039,2.0039,0,0,0,2.0955.6632c.9923-.1477.6132-.9332.6443-1.52.3031-.013.6066-.0422.9092-.0356.57.0123,1.2087.1632,1.4834-.5318a.81.81,0,0,0-.2658-.6593,1.7306,1.7306,0,0,0-1.813-.2542C81.2488,126.5482,82.0449,127.2765,81.7847,127.749Z"/><path class="ae900063-34c2-4581-9612-ed5b06b3e8f2" d="M91.8876,134.359c.0361-1.7858,1.3736-1.8977,2.64-1.9427a8.7841,8.7841,0,0,1,2.0113.3917c1.2507,1.0355.9228,1.9007-.2477,2.7437-2.4182,1.7418-5.21,1.5815-6.7529-.4231l1.19-.0445c1.3555,1.3406,1.5306,1.3658,3.4993.3641A4.9446,4.9446,0,0,1,91.8876,134.359Zm2.8087.4251c.5595-.0581,1.3088-.0118,1.3252-.7544.0189-.8549-.7766-.89-1.4106-.8957-.6283-.0061-1.4676.0032-1.4246.8466C93.2269,134.7761,94.0629,134.7342,94.6963,134.7841Z"/><path class="ae900063-34c2-4581-9612-ed5b06b3e8f2" d="M114.09,146.4187c.8059-.6779,1.7234-.1971,2.4679-.5492.0864-.6879-1.0469-.5542-.8353-1.4121,1.3415.1018,2.2454,1.0159,3.3475,1.5957-.3969.6918-.95.5744-1.4248.6336-.7163.0892-1.55-.297-1.3977,1.1806.0966.9366-1.2115,1.2037-2.109,1.2487a3.8537,3.8537,0,0,1-3.51-1.66c.3464-.475.6889-.5279,1.1221-.149a4.456,4.456,0,0,0,1.2141.91c.5887.2225,1.36.3858,1.8126-.167C115.4061,147.2823,114.2961,147.0612,114.09,146.4187Z"/><path class="ae900063-34c2-4581-9612-ed5b06b3e8f2" d="M126.1039,153.7845a4.3591,4.3591,0,0,1-5.026.0941c-.3494-.29-.8095-.682-.53-1.0764.2884-.4064.8252-.2231,1.1511.1856a2.06,2.06,0,0,0,1.0536.7967c.7152.2,1.5546.3415,1.9285-.3548.4505-.839-.4784-.99-1.0028-1.2773-.3943-.216-.8925-.37-.4363-.964,2.6979-1.3118,2.6979-1.3118,5.6021.5689-1.5213.98-2.7448-1.9391-4.15-.15C125.3593,152.1884,126.3987,152.5869,126.1039,153.7845Z"/><path class="ae900063-34c2-4581-9612-ed5b06b3e8f2" d="M49.9219,107.3607c.212-.1053.3205-.2048.4314-.2075,1.3968-.0334,3.1909.0758,3.2657,1.6048.0711,1.4518-1.7918,1.286-2.9518,1.4261a23.4557,23.4557,0,0,1-2.7557.0214c.1782.9585,1.3742.7609,1.6733,2.0642-1.7393-.43-2.8768-1.4449-4.3455-2.2268,1.4043-.9572,2.7775-.4064,4.05-.5656.2547-.0319.5224.026.7733-.0185.7687-.1365,2.0291.3931,2.1622-.6551.1515-1.1939-1.2209-.7323-1.9081-1.0363C50.2127,107.7214,50.1445,107.595,49.9219,107.3607Z"/><path class="ae900063-34c2-4581-9612-ed5b06b3e8f2" d="M65.4431,121.23c-1.2363-.169-2.42-.427-3.0359-1.7907a.8114.8114,0,0,1,1.2978.0891,2.103,2.103,0,0,0,1.2582.8387c.65.1062,1.4325.264,1.7609-.3875.4341-.8613-.5011-.98-.9966-1.3-.2115-.1368-.426-.269-.652-.4114,2.3056-2.2128,2.5108-2.212,5.7195.037-1.45,1.0534-2.6626-2.0375-4.0841-.1711.7263.7986,2.7037,1.3906.5509,2.7593Q66.3524,121.0618,65.4431,121.23Z"/><path class="ae900063-34c2-4581-9612-ed5b06b3e8f2" d="M107.4923,145.4254c-1.8212-.0085-2.9526-1.1031-4.085-1.9046-.4657-.33.3385-.6194.7626-.627,1.3511-.0244,2.703,0,4.0541-.0224.69-.0112,1.6682.1314,1.8106-.6842.1774-1.0163-.9-.8069-1.5169-1-.2249-.07-.54-.0043-.5718-.4189a1.6016,1.6016,0,0,1,1.5786-.1516c.8273.2344,1.9583.3905,1.8756,1.568-.0745,1.0616-1.093,1.1136-1.922,1.1961-1.2126.1207-2.43.1941-3.6925.2912C105.9467,144.53,107.0316,144.4118,107.4923,145.4254Z"/><path class="ae900063-34c2-4581-9612-ed5b06b3e8f2" d="M41.2231,117.8064c-1.36.2966-2.2356,1.568-4.0664,1.64a17.2233,17.2233,0,0,1,4.4135-2.8636c.7274-.4033.9892.0816,1.023.8373.0432.9647-.6707,1.8368-.3146,2.8465,1.4038-.1752,2.2775-1.7161,4.3611-1.46-1.6668.976-2.9206,1.7061-4.17,2.444-.4016.2372-.8309.4766-1.2667.1972-.4633-.2971-.2786-.8146-.2548-1.25C40.99,119.4306,41.51,118.73,41.2231,117.8064Z"/><path class="ae900063-34c2-4581-9612-ed5b06b3e8f2" d="M54.0168,111.4926l2.5836-.1664c.1085-.8438-1.1128-.6165-1.084-1.3585,1.3592-.0036,1.7025.1535,3.6809,1.7881-.8735.0967-1.5284.16-2.18.2448-.43.0561-.9153.01-.8613.7246.1143,1.5147-1.1353,1.6125-2.09,1.7a3.7179,3.7179,0,0,1-3.2668-1.3348.56.56,0,0,1-.01-.5214.4424.4424,0,0,1,.6667-.1224,12.0721,12.0721,0,0,0,1.1872.9665c.6978.399,1.5382.6276,2.1157-.08C55.3852,112.5646,54.17,112.3794,54.0168,111.4926Z"/><path class="ae900063-34c2-4581-9612-ed5b06b3e8f2" d="M20.452,109.1227a3.1115,3.1115,0,0,1-1.6608-.4318,1.98,1.98,0,0,1-1.1581-1.2156.5358.5358,0,0,1,.2132-.4656c.8194-.3775.8983.4755,1.28.8188.5217.47,1.1935.8095,1.7309.3519.5894-.5019-.1941-.8508-.4685-1.1933-.82-1.0233-.272-1.5158.6852-1.8054a3.1252,3.1252,0,0,1,2.4324.2769c.5536.2967,1.5006.7218,1.1378,1.2934-.5531.8715-.9983-.1895-1.4534-.496-.45-.3029-.9791-.5953-1.4179-.2493-.6667.5258.1091.8451.3408,1.2179.2365.38.5938.7182.2423,1.2033A2.0409,2.0409,0,0,1,20.452,109.1227Z"/><path class="ae900063-34c2-4581-9612-ed5b06b3e8f2" d="M50.3185,121.143q-1.05,1.7237-2.0992,3.4472c-.39.3059-1.1094.8487-1.2078.1617-.3495-2.4421-2.0265-2.1611-3.6862-2.0923a1.5856,1.5856,0,0,1-.5317-.2009C44.4985,121.316,48.94,120.5522,50.3185,121.143Zm-4.1509.9308c1.6821,1.0911,1.6821,1.0911,2.2905-.5245Z"/><path class="ae900063-34c2-4581-9612-ed5b06b3e8f2" d="M174.5065,137.154c1.3515-.79,2.5327-1.5376,3.7678-2.1821.84-.4383,3.0271.588,3.3247,1.563.4351,1.4252-.7269,1.76-1.6644,2.1C177.8967,139.3735,176.2465,138.51,174.5065,137.154Zm1.7269.1851a3.1227,3.1227,0,0,0,3.0534.7336c.62-.2335,1.5736-.485,1.17-1.4043a1.3952,1.3952,0,0,0-2.0038-.8767A5.5355,5.5355,0,0,0,176.2334,137.3391Z"/><path class="ae900063-34c2-4581-9612-ed5b06b3e8f2" d="M27.4579,113.57a16.8626,16.8626,0,0,1,4.3317-2.7629c.61-.3391,3.3059,1.3355,3.2769,1.9748-.0454.9965-.955,1.1905-1.6656,1.3043-.8747.14-1.7322-.0172-2.0558,1.1751-.1542.5685-.6682.2074-.814-.1406-.269-.642.5039-1.5806-.5738-2.0169C29.1066,112.76,28.624,113.8436,27.4579,113.57Zm3.0728-1.0254c.9847.72,1.8852,1.46,3.1168.7088.4273-.2606.3164-.6487-.0228-.9473A1.8841,1.8841,0,0,0,30.5307,112.5448Z"/><path class="ae900063-34c2-4581-9612-ed5b06b3e8f2" d="M40.4626,115.6668a2.8268,2.8268,0,0,1-2.3187-.78c-.6853-.4193-1.3568-.4068-1.68.2013-.3509.66.5664.6513.8861.9725a6.682,6.682,0,0,0,.8074.5956c-.9171.5039-1.41-.2013-1.9758-.5028-.62-.3306-1.2859-.6323-1.6874.0657-.4737.8235.5864.7346.8979,1.1094.2349.2826.7486.2733.8694,1.1838l-3.5293-1.8405C35.7107,113.4625,37.4339,113.2365,40.4626,115.6668Z"/><path class="ae900063-34c2-4581-9612-ed5b06b3e8f2" d="M55.6392,129.8563c4.0526-3.2061,5.5-3.3356,7.7081-.779-1.4149.3362-2.4633-2.2386-4.1216-.44L61.2,129.8931c-1.4694.711-2.5707-1.8469-3.8622-.1673.3339.8906,1.5877.8008,1.9794,1.914C57.861,131.3826,56.9189,130.48,55.6392,129.8563Z"/><path class="ae900063-34c2-4581-9612-ed5b06b3e8f2" d="M72.9383,125.5994l6.3009-1.3719c-.84-1.18-2.0021-1.12-3.135-1.1583,2.3053-1.8708,3.3732.7178,5.0642,1.2275a32.887,32.887,0,0,1-8.1472,1.8889Z"/><path class="ae900063-34c2-4581-9612-ed5b06b3e8f2" d="M165.5633,131.08c1.4707-.3422,2.9364-.7084,4.4155-1.0089a1.3716,1.3716,0,0,1,1.0835.1571c.372.4047-.0671.8254-.2977,1.184-.5482.8526-1.1294,1.6839-1.9093,2.8372C168.4705,132.1342,167.1617,131.5526,165.5633,131.08Z"/><path class="ae900063-34c2-4581-9612-ed5b06b3e8f2" d="M120.9789,150.6345c-.4733,1.6036-2.11.57-2.9812,1.2963-.0621.0517-.4307-.1846-.2676-.3515,1.44-1.4746-.3326-1.2781-.8752-1.7173-.1427-.301-.63-.7035.07-.85a20.8444,20.8444,0,0,1,6.61-.6648c-1.7622.8894-3.3687.5475-4.7691,1.1557.2945.7695.7276.8247,1.3731.5177C120.6813,149.7627,121.2106,149.7332,120.9789,150.6345Z"/><path class="ae900063-34c2-4581-9612-ed5b06b3e8f2" d="M175.0624,132.7832c.9587-.0657,1.7752.3923,1.7757,1.284.0005.7229-.9665,1.0729-1.6437,1.0285-1.04-.0681-1.56.5364-2.147,1.5192.0212-2.5411-1.0085-2.943-2.9756-1.7l-.0836-.6125c1.3283-.7513,2.6293-1.5592,4-2.2222.4582-.2216.99.0841,1.0992.7227-.8734-.0116-1.7521-.0342-2.2073.9594,1.6076.9418,2.1893,1.0658,2.6826.5639C176.37,133.5052,174.9771,133.3808,175.0624,132.7832Z"/><path class="ae900063-34c2-4581-9612-ed5b06b3e8f2" d="M27.1073,107.5146c-.71,1.0364-1.5868,1.218-2.2381,1.7124-.4384.3327-1.2039.5676-.8784,1.2907a1.6362,1.6362,0,0,0,1.8178.8249,9.13,9.13,0,0,0,2.9631-1.3723c.43-.224.8182-.6867,1.4146-.425a5.8015,5.8015,0,0,1-5.7939,2.2189,2.0733,2.0733,0,0,1-1.6118-1.27c-.2281-.8614.5228-1.2632,1.1291-1.5945C24.834,108.3945,25.6358,107.5747,27.1073,107.5146Z"/><path class="ae900063-34c2-4581-9612-ed5b06b3e8f2" d="M150.8657,119.2732q.7762-.0326,1.5516-.0656c.6159.9,2.8506.9329,1.67,2.7727-.8916,1.3887-3.25,1.4473-4.671.3111a5.9612,5.9612,0,0,0,1.8723.2684c.876-.1575,2.2193-.1971,1.9783-1.5324a1.3436,1.3436,0,0,0-2.0767-.9629c-.7.5372-2.8993.2086-1.75,2.2444-.7982.3094-1.2347-.3338-2.0695-.7721Z"/><path class="ae900063-34c2-4581-9612-ed5b06b3e8f2" d="M164.5338,130.2365c-.5572.6325-1.0946.31-1.5205.2166-.8856-.1939-1.83-.5576-1.8983-1.6185-.072-1.1262.9359-1.4534,1.7744-1.7382a3.72,3.72,0,0,1,4.7274,1.6167c-.4029.353-.6828.1278-.9634-.1871a2.9561,2.9561,0,0,0-.6813-.6591,3.0119,3.0119,0,0,0-3.1156-.0275.9928.9928,0,0,0-.63,1.08C162.4533,130.1347,163.6507,129.9092,164.5338,130.2365Z"/><path class="ae900063-34c2-4581-9612-ed5b06b3e8f2" d="M43.1968,108.5089a23.4143,23.4143,0,0,0,2.714-1.6218c.5162-.403,1.97-.3021,1.1543-1.7364-.2113-.3717.4267-.3895.6585-.28a17.8894,17.8894,0,0,1,1.6633,1.03l-5.804,3.37Z"/><path class="ae900063-34c2-4581-9612-ed5b06b3e8f2" d="M107.25,139.2016c-1.88,1.0976-3.4839,2.0395-5.0946,2.9695-.3169.183-.7206.5293-1.0009.0569-.411-.6925.4085-.6554.6747-.8422.787-.5522,1.6815-.95,2.481-1.4863.3927-.2636,1.422-.2979.58-1.28-.3221-.3758.2929-.4776.535-.381A20.0733,20.0733,0,0,1,107.25,139.2016Z"/><path class="ae900063-34c2-4581-9612-ed5b06b3e8f2" d="M155.7475,126.4705c.1674-1.7915,3.4676-1.0032,2.496-3.5034a3.4,3.4,0,0,1,2.0771,1.0944A27.8183,27.8183,0,0,1,155.7475,126.4705Z"/><path class="ab32c9e7-e384-4677-a92a-48cb3c6f1e3d" d="M154.5387,141.3235c-1.1194.78-2.0378,1.3149-3.1829.9645-.3073-.094-.8756-.0177-.8467-.5567a.7943.7943,0,0,1,.9273-.7592A6.7334,6.7334,0,0,1,154.5387,141.3235Z"/><path class="ab32c9e7-e384-4677-a92a-48cb3c6f1e3d" d="M64.2906,106.3515a2.5887,2.5887,0,0,1,.58.0326c.5866.1669,1.1648.3629,1.7463.5477-1.1114.5074.4634,2.5135-1.4346,2.5552-.2972-1.0268-.6-2.0747-.9038-3.1226Z"/><path class="ae900063-34c2-4581-9612-ed5b06b3e8f2" d="M157.0029,122.101a8.8736,8.8736,0,0,1-4.2734,2.4579A9.8916,9.8916,0,0,1,157.0029,122.101Z"/><path class="e8868873-b78d-4647-a47a-83d1d08f3d12" d="M105.1311,109.1531a14.2312,14.2312,0,0,1,2.7456,2.2363C105.121,111.2823,104.7224,110.9577,105.1311,109.1531Z"/><path class="a410f6d0-dbff-438c-ae25-806717f50b8f" d="M67.8082,77.8919c.9923.7394,2.3138.9782,3.0967,2.036-1.47.0453-2.3732-1.1479-3.5953-1.6467Q67.5582,78.0859,67.8082,77.8919Z"/><path class="a410f6d0-dbff-438c-ae25-806717f50b8f" d="M87.351,89.9657c-.2583-.4092-1.0533-.377-.9148-1.1125.697-.0673,1.0223.5285,1.505.8434C87.8389,89.9937,87.5923,89.9738,87.351,89.9657Z"/><path class="a410f6d0-dbff-438c-ae25-806717f50b8f" d="M82.9328,80.7052c.1791-.5288.686-.6547,1.1-.8947q.2605.2.5226.4C84.0306,80.4264,83.62,81.0185,82.9328,80.7052Z"/><path class="e8868873-b78d-4647-a47a-83d1d08f3d12" d="M74.7552,120.2777l-.4188-.29Z"/><path class="a410f6d0-dbff-438c-ae25-806717f50b8f" d="M63.514,80.7107l-.4169-.0454q.2358-.1921.4726-.3839Q63.5423,80.4961,63.514,80.7107Z"/><path class="a55542c7-a995-487a-88a6-8201770ab9ee" d="M106.6453,79.1657c-1.503,1.0285-2.07,2.6931-2.858,4.2075-.5862-3.08.6776-6.523,2.8443-7.7532Q106.6381,77.3927,106.6453,79.1657Z"/><path class="ae722e0e-f7f9-4646-bc9f-dff49c836905" d="M109.7418,72.9218l.416.4Z"/><path class="a6e7bc8e-e797-4f6b-8072-73a3a1c5feb5" d="M185.1848,65.5312c-.5535,4.3133-3.57,6.9688-6.7045,9.3286-6.6357,4.9951-14.3942,6.935-22.5293,7.8153a65.3511,65.3511,0,0,1-24.8789-1.9922,7.9317,7.9317,0,0,1-3.03-1.16c1.436-.9711,2.8928-.0042,4.2828.108a87.7,87.7,0,0,0,14.4619-.044,55.1216,55.1216,0,0,0,16.8261-3.9651c5.51-2.3079,10.6753-5.1869,14.3754-10.0934a15.8065,15.8065,0,0,0,2.488-4.3447c.43-1.2636.9448-1.1461,1.7661-.36C183.6274,62.1509,184.3069,63.8988,185.1848,65.5312Z"/><path class="e287f50a-b7e5-4cb9-a5dd-200b1afbb989" d="M150.03,66.1339l-8.4942-1.7011,9.17-1.7363c-.0567-.9588-.761-1.5315-1.29-2.1983.0071-.2841-.64-1.0493.3721-.6122a19.7266,19.7266,0,0,1,2.3506,1.4488l1.6693-8.6441.2468.0227q.7645,3.5684,1.5292,7.1365c-.1033,1.33.27,1.7219,1.4279.77.5348-.44,1.1464-.7861,1.7606-1.2.0248.2032.0875.34.0435.41-1.7788,2.8357-1.78,2.8346,1.5415,3.4179.5053.0887,1.01.1819,1.5148.2729l3.9017.7806-.0339.2937c-2.259.4255-4.5039.9731-6.7817,1.2363-1.6937.1958-2.1353.624-.9331,2.0156a8.6743,8.6743,0,0,1,.6752,1.09c-1.2687.1064-1.7892-1.1241-2.9842-1.2957-.5567,2.9084-1.1163,5.8318-1.78,9.2977-.6553-3.4818-1.2016-6.3846-1.7476-9.2859-1.2047.2134-1.76,1.3618-3.1344,1.3872.51-.741.9194-1.3391,1.3318-1.9355C150.7281,66.6112,150.6675,66.2677,150.03,66.1339Z"/><path class="a6e7bc8e-e797-4f6b-8072-73a3a1c5feb5" d="M155.5842,59.85q-.7647-3.5682-1.5292-7.1365l-.2468-.0227-1.6693,8.6441a19.7266,19.7266,0,0,0-2.3506-1.4488c-1.0124-.4371-.365.3281-.3721.6122-2.3816,1.2368-5.0434.9944-7.5382,1.0715-9.3031.2876-18.4041-1.0712-26.85-5.1524-5.4018-2.61-10.3215-5.9708-12.0689-12.295a9.9964,9.9964,0,0,1-.1811-1.137.9727.9727,0,0,0,.8867-.6344c2.1424-4.6,6.1205-7.247,10.3973-9.4379a51.1475,51.1475,0,0,1,18.4632-5.1474,69.941,69.941,0,0,1,15.7985.1879,48.5961,48.5961,0,0,1,15.8572,4.6194c3.502,1.7619,6.8271,3.816,9.3363,7.0039.9706,1.2332,1.3967,2.8425,2.7268,3.798-.6522,4.5971-3.7265,7.5524-7.146,10.1442a36.8911,36.8911,0,0,1-12.1823,5.7145C156.4382,59.3726,155.85,59.2592,155.5842,59.85ZM115.9984,44.5323c-.66.5027-.1733,1-.035,1.5389.5931,2.309,2.703,3.6912,3.5258,5.8517-.2267.41-.8414.5627-.7732,1.1677a1.252,1.252,0,0,0-.03,1.8775,3.0616,3.0616,0,0,0,4.3312.5614,2.296,2.296,0,0,1,2.62-.3712A21.1237,21.1237,0,0,0,136.855,57.34c3.5739-.3246,6.9686-1.3093,9.4975-4.112.8118-.9,1.5791-1.9089.7439-3.2338a3.19,3.19,0,0,0,.1274-2.5625c-.5065-1.7964-1.8025-3.0271-2.8589-4.4364,1.5195-.8326,3.0666-1.6191,4.5524-2.5079,2.7582-1.65,2.8214-1.6651,4.8111.8081a3.3515,3.3515,0,0,1,.6181.9708c.7381,2.2124,2.3322,2.1665,4.1553,1.6611a3.9757,3.9757,0,0,1,1.5214-.143c1.8547.2365,2.4711-.633,2.2293-2.35a13.8026,13.8026,0,0,0-5.691-7.3052c.3186-.8945,1.9943-.8314,1.37-1.6279-.5757-.7351-1.5854-2.1428-3.0514-1.0266-1.0889.8291-2.0681.5162-3.2327.0292-5.2563-2.1982-10.61-2.5637-15.9435-.2835-2.8964,1.2384-5.1774,3.0234-4.55,6.7121-.6318.8568.1277,1.51.35,2.2272.4123,1.3288,1.6595,2.2115,1.98,3.6005-1.5153.9525-2.999,1.9606-4.553,2.8451-2.487,1.4155-3.88,1.2588-4.7448-1.5052-1.1433-3.6543-3.2243-4.2562-6.5571-3.7279-2.1788.3454-2.2519.1222-1.7054,2.3939A5.3408,5.3408,0,0,1,115.9984,44.5323Z"/><path class="a55542c7-a995-487a-88a6-8201770ab9ee" d="M176.2436,43.3748c-1.33-.9555-1.7562-2.5648-2.7268-3.798-2.5092-3.1879-5.8343-5.242-9.3363-7.0039a48.5961,48.5961,0,0,0-15.8572-4.6194,69.941,69.941,0,0,0-15.7985-.1879,51.1475,51.1475,0,0,0-18.4632,5.1474c-4.2768,2.1909-8.2549,4.8379-10.3973,9.4379a.9727.9727,0,0,1-.8867.6344c-.0232-4.56,2.4265-7.79,5.7757-10.4507,6.0337-4.7929,13.11-6.99,20.5969-8.2552a60.6516,60.6516,0,0,1,14.09-.6726c9.23.6024,18.1566,2.4847,25.8512,8.0588a17.8594,17.8594,0,0,1,6.0324,6.6764A9.39,9.39,0,0,1,176.2436,43.3748Z"/><path class="bb9005ff-7522-4c9b-bb4e-ed2feea5182a" d="M91.8876,134.359a4.9446,4.9446,0,0,0,2.34,1.0892c-1.9687,1.0017-2.1438.9765-3.4993-.3641Z"/><path class="ad737859-ec8b-4b66-9656-9a2e9d9631d0" d="M133.49,122.6923c-.4227,1.8339-1.0283,2.1457-3.2465,1.2072,1.6474.1924,2.1259-1.1183,3.2351-1.2182Z"/><path class="a4f35348-a6e5-4384-9347-1da4554865ed" d="M71.2251,88.0625c1.4521-1.7727,3.1091-.8405,4.7319-.3585l-.02-.0158a3.07,3.07,0,0,0,2.7434,1.57l-.0219-.0154a2.985,2.985,0,0,0,2.7435,1.57l-.0219-.0153A1.7214,1.7214,0,0,0,83.3447,91.98l-.0169-.0143-.0337.446a3.1462,3.1462,0,0,1-4.1817.39C76.4918,91.208,73.7261,89.856,71.2251,88.0625Z"/><path class="a410f6d0-dbff-438c-ae25-806717f50b8f" d="M83.2941,92.4115l.0337-.446q.2214.0276.4433.0555Q83.533,92.2166,83.2941,92.4115Z"/><path class="ad737859-ec8b-4b66-9656-9a2e9d9631d0" d="M52.3223,123.2118a6.9173,6.9173,0,0,1-2.4038,1.4473C49.4155,122.01,51.3286,123.3746,52.3223,123.2118Z"/><path class="a4f35348-a6e5-4384-9347-1da4554865ed" d="M77.15,86.8856c-2.3206.0379-4.3845-1.0092-4.6146-2.2223-.2433-1.283,1.1813-2.6379,3.527-3.2984a7.2492,7.2492,0,0,1,5.12.2364c1.7394.8017,1.9076,2.4692.4389,3.7151A8.8,8.8,0,0,1,77.15,86.8856Z"/><path class="a410f6d0-dbff-438c-ae25-806717f50b8f" d="M81.4023,90.813a2.985,2.985,0,0,1-2.7435-1.57A4.7956,4.7956,0,0,1,81.4023,90.813Z"/><path class="a410f6d0-dbff-438c-ae25-806717f50b8f" d="M78.6807,89.2583a3.07,3.07,0,0,1-2.7434-1.57A4.6391,4.6391,0,0,1,78.6807,89.2583Z"/><path class="a410f6d0-dbff-438c-ae25-806717f50b8f" d="M83.3447,91.98A1.7214,1.7214,0,0,1,81.38,90.7977,2.5564,2.5564,0,0,1,83.3447,91.98Z"/><path class="ad737859-ec8b-4b66-9656-9a2e9d9631d0" d="M52.1024,124.4971l.44-.127c-.0223.1472-.0446.2943-.0654.4417C52.3532,124.7071,52.2278,124.6021,52.1024,124.4971Z"/><path class="ad737859-ec8b-4b66-9656-9a2e9d9631d0" d="M40.7371,105.9937c-.8447-.0173-1.5581-.0436-1.7936-.79-.2191-.6939.4167-.9992.86-1.3559a.8465.8465,0,0,1,.1633-.1041c1.1652-.5578,2.319-1.2466,3.6374-.4089.3653.2321.5972.6028.3045.9718A4.665,4.665,0,0,1,40.7371,105.9937Z"/><path class="bb9005ff-7522-4c9b-bb4e-ed2feea5182a" d="M128.51,155.2664c.71.1231,1.5429.1261,1.4378,1.007-.0832.6976-.8331.6963-1.4186.6577-.5915-.0391-1.2709-.1532-1.2579-.8976C127.286,155.208,128.0565,155.3783,128.51,155.2664Z"/><path class="bb9005ff-7522-4c9b-bb4e-ed2feea5182a" d="M70.5485,121.7918c.7037.153,1.56.1339,1.4441,1.0245-.0892.688-.8378.6977-1.43.659-.6055-.04-1.2641-.1949-1.2554-.9231C69.3174,121.7039,70.1144,121.9333,70.5485,121.7918Z"/><path class="bb9005ff-7522-4c9b-bb4e-ed2feea5182a" d="M97.9527,136.9822a3.0391,3.0391,0,0,1,3.5861-.2591.6266.6266,0,0,1,.23.9859,4.4526,4.4526,0,0,1-3.3375,1.6806c-.7.0333-1.4565.1023-1.7819-.7719,1.2978-.1163,2.6431-.1085,3.8635-1.4007Z"/><path class="e8868873-b78d-4647-a47a-83d1d08f3d12" d="M97.9527,136.9822l2.56.2348c-1.22,1.2922-2.5657,1.2844-3.8635,1.4007C96.5077,137.6135,97.3336,137.38,97.9527,136.9822Z"/><path class="bb9005ff-7522-4c9b-bb4e-ed2feea5182a" d="M81.7711,127.7363c-.0312.5866.3479,1.3721-.6444,1.52a2.0039,2.0039,0,0,1-2.0955-.6632c-.59-.8311.2367-.946.7112-1.1465.7206-.3046,1.32.4562,2.0423.3026Z"/><path class="bb9005ff-7522-4c9b-bb4e-ed2feea5182a" d="M81.7847,127.749c.26-.4725-.5359-1.2008.3-1.4937a1.7306,1.7306,0,0,1,1.813.2542.81.81,0,0,1,.2658.6593c-.2747.695-.9129.5441-1.4834.5318-.3026-.0066-.6061.0226-.9092.0356Z"/><path class="e8868873-b78d-4647-a47a-83d1d08f3d12" d="M94.6937,134.7838c-.6308-.05-1.4668-.0077-1.5074-.8032-.043-.8434.7963-.8527,1.4246-.8466.634.0061,1.43.0408,1.4106.8957C96.0051,134.7723,95.2558,134.726,94.6937,134.7838Z"/><path class="bb9005ff-7522-4c9b-bb4e-ed2feea5182a" d="M46.1676,122.0738l2.2905-.5245C47.85,123.1649,47.85,123.1649,46.1676,122.0738Z"/><path class="bb9005ff-7522-4c9b-bb4e-ed2feea5182a" d="M176.2334,137.3391a5.5355,5.5355,0,0,1,2.22-1.5474,1.3952,1.3952,0,0,1,2.0038.8767c.4037.9193-.55,1.1708-1.17,1.4043A3.1227,3.1227,0,0,1,176.2334,137.3391Z"/><path class="bb9005ff-7522-4c9b-bb4e-ed2feea5182a" d="M30.5307,112.5448a1.8841,1.8841,0,0,1,3.094-.2385c.3392.2986.45.6867.0228.9473C32.4159,114.0046,31.5154,113.2648,30.5307,112.5448Z"/><path class="bb9005ff-7522-4c9b-bb4e-ed2feea5182a" d="M175.0624,132.7832c-.0853.5976,1.308.722.5007,1.5435-.4933.5019-1.075.3779-2.6826-.5639.4552-.9936,1.3339-.971,2.2073-.9594Z"/><path class="bb9005ff-7522-4c9b-bb4e-ed2feea5182a" d="M149.44,122.3089c-1.1492-2.0358,1.05-1.7072,1.75-2.2444a1.3436,1.3436,0,0,1,2.0767.9629c.241,1.3353-1.1023,1.3749-1.9783,1.5324a5.9612,5.9612,0,0,1-1.8723-.2684Z"/><path class="ae722e0e-f7f9-4646-bc9f-dff49c836905" d="M118.716,53.0906c-.0682-.605.5465-.7579.7732-1.1676,2.0908-.8884,2.1251-.9268.6-2.2889a23.05,23.05,0,0,1-4.09-5.1018,5.3408,5.3408,0,0,0-.0739-.7667c-.5465-2.2717-.4734-2.0485,1.7054-2.3939,3.3328-.5283,5.4138.0736,6.5571,3.7279.8648,2.764,2.2578,2.9207,4.7448,1.5052,1.554-.8845,3.0377-1.8926,4.553-2.8451,1.1524-.2754,1.8514-.61.7042-1.87-1.1148-1.2251-2.0311-2.6309-3.0345-3.9574-.6275-3.6887,1.6535-5.4737,4.55-6.7121,5.3334-2.28,10.6872-1.9147,15.9435.2835,1.1646.487,2.1438.8,3.2327-.0292,1.466-1.1162,2.4757.2915,3.0514,1.0266.6238.7965-1.0519.7334-1.37,1.6279a13.8026,13.8026,0,0,1,5.691,7.3052c-.57.0825-1.1364.201-1.7088.2415-2.616.1853-5.6016,1.4395-6.8541-2.3785a4.8162,4.8162,0,0,0-.8794-1.26,1.8248,1.8248,0,0,0-2.7117-.4381c-1.8646,1.1435-3.6982,2.3517-5.6361,3.3567-1.43.7418-1.4078,1.2938-.0975,2.0395,1.0564,1.4093,2.3524,2.64,2.8589,4.4364a3.1892,3.1892,0,0,1-.1274,2.5624c-.6056,1.6418-1.9918,2.4839-3.4173,3.24-5.8493,3.1023-11.7265,2.5388-17.5952.046-.8253-.3506-1.6342-.9613-2.4932-.1823C121.946,54.5887,120.3389,54.2006,118.716,53.0906Zm27.2126-16.704a3.6787,3.6787,0,0,0,2.3339-1.33,9.1437,9.1437,0,0,0-6.6493-.6819c-1.6486.4672-2.5824,1.3466-2.2933,3.1662.7257.5249.6012,2.2811,2.0953,1.6366A13.3324,13.3324,0,0,0,145.9286,36.3866Zm-6.6175,12.43a2.8284,2.8284,0,0,0-.4561-2.0364c-.5283-.6832-1.0441-1.8454-2.083-1.2819a42.52,42.52,0,0,0-7.01,4.2362,3.3531,3.3531,0,0,0,2.5548.652Q136.6484,51.9847,139.3111,48.8167Z"/><path class="a55542c7-a995-487a-88a6-8201770ab9ee" d="M118.716,53.0906c1.6229,1.11,3.23,1.4981,4.8747.0068.859-.779,1.6679-.1683,2.4932.1823,5.8687,2.4928,11.7459,3.0563,17.5952-.046,1.4255-.756,2.8117-1.5981,3.4173-3.24.8352,1.325.0679,2.3342-.7439,3.2339-2.5289,2.8027-5.9236,3.7874-9.4975,4.112a21.1237,21.1237,0,0,1-11.218-2.1814,2.296,2.296,0,0,0-2.62.3712,3.0616,3.0616,0,0,1-4.3312-.5614A1.252,1.252,0,0,1,118.716,53.0906Z"/><path class="a55542c7-a995-487a-88a6-8201770ab9ee" d="M144.3649,42.995c-1.31-.7457-1.333-1.2977.0975-2.0395,1.9379-1.005,3.7715-2.2132,5.6361-3.3567a1.8248,1.8248,0,0,1,2.7117.4381,4.8162,4.8162,0,0,1,.8794,1.26c1.2525,3.818,4.2381,2.5638,6.8541,2.3785.5724-.0405,1.1393-.159,1.7088-.2415.2418,1.7172-.3746,2.5867-2.2293,2.35a3.9757,3.9757,0,0,0-1.5214.143c-1.8231.5054-3.4172.5513-4.1553-1.6611a3.3515,3.3515,0,0,0-.6181-.9708c-1.99-2.4732-2.0529-2.4581-4.8111-.8081C147.4315,41.3759,145.8844,42.1624,144.3649,42.995Z"/><path class="a55542c7-a995-487a-88a6-8201770ab9ee" d="M115.9984,44.5323a23.05,23.05,0,0,0,4.09,5.1018c1.5256,1.3621,1.4913,1.4005-.6,2.2889-.8228-2.1606-2.9327-3.5428-3.5258-5.8518C115.8251,45.5327,115.3381,45.035,115.9984,44.5323Z"/><path class="a55542c7-a995-487a-88a6-8201770ab9ee" d="M131.1545,37.932c1.0034,1.3265,1.92,2.7323,3.0345,3.9574,1.1472,1.2608.4482,1.5949-.7042,1.87-.3207-1.389-1.5679-2.2717-1.98-3.6005C131.2822,39.4422,130.5227,38.7888,131.1545,37.932Z"/><path class="a55542c7-a995-487a-88a6-8201770ab9ee" d="M132.3171,50.3866a3.3531,3.3531,0,0,1-2.5548-.652,42.52,42.52,0,0,1,7.01-4.2362c1.0389-.5635,1.5547.5987,2.083,1.2819a2.829,2.829,0,0,1,.4562,2.0364c-1.0726.0563-1.0672-1.9818-2.4758-1.2737A15.2359,15.2359,0,0,0,132.3171,50.3866Z"/><path class="a55542c7-a995-487a-88a6-8201770ab9ee" d="M139.32,37.5413c-.2891-1.82.6447-2.699,2.2933-3.1662a9.1437,9.1437,0,0,1,6.6493.6819,3.6787,3.6787,0,0,1-2.3339,1.33C143.4662,35.2862,141.41,36.5083,139.32,37.5413Z"/><path class="a6e7bc8e-e797-4f6b-8072-73a3a1c5feb5" d="M132.3171,50.3866a15.2359,15.2359,0,0,1,4.5183-2.8436c1.4086-.7081,1.4032,1.33,2.4758,1.2737Q136.6544,51.9834,132.3171,50.3866Z"/><path class="a6e7bc8e-e797-4f6b-8072-73a3a1c5feb5" d="M139.32,37.5413c2.09-1.033,4.1463-2.2551,6.6087-1.1547a13.3324,13.3324,0,0,1-4.5134,2.7913C139.9211,39.8224,140.0456,38.0662,139.32,37.5413Z"/></svg>