<svg id="bd162573-78cd-4046-946e-495b18249d14" data-name="Capa 1" xmlns="http://www.w3.org/2000/svg" viewBox="0 0 200 200"><defs><style>.a4e65045-7d39-4a03-85df-126d7b536502{fill:#abe133;}.f284b533-4df6-4322-8c94-9b34d2507fa4{fill:#65cb3a;}.e2c739a9-fc52-4faf-8d5f-8ef3aec0b665{fill:#6ba6fe;}.ef2a4650-c51e-4bfb-b03c-8f6c81b0ce50{fill:#5e69e1;}.b459489a-4a38-4063-bc16-ac6527248937{fill:#006ac0;}.ed31fbcd-4688-480c-84f2-3cd6b74da0b3{fill:#f0f1f8;}.b1905a0c-cf9e-48a1-8736-78f592d14f23{fill:#f0f1fb;}.ea8b2a06-3a4c-4ff6-bc93-b7994c553692{fill:#d5d5f0;}.a06fd5c3-f9e6-48c8-906b-a0877d0fb12a{fill:#00e3ee;}.bc2b3fe9-1a28-452b-a88c-0061cb1968aa{fill:#fede40;}</style></defs><path class="a4e65045-7d39-4a03-85df-126d7b536502" d="M148.966,199.5613c-3.4091-1.5119-7.0268-2.48-10.3878-4.1385-16.872-8.3257-28.2332-21.45-34.3361-39.1965-.1247-.3628-.29-.7116-.4357-1.067q-.5791-2.44-1.1589-4.88c-1.5469-6.4579-1.6037-13.0393-1.6293-19.6234V118.9737c.0217-5.1.0247-10.2.0715-15.2991a5.8719,5.8719,0,0,1,6.09-6.1114,26.7913,26.7913,0,0,0,5.9746-.3952,20.83,20.83,0,0,0,2.1327-.0846A61.6791,61.6791,0,0,0,146.1464,83.858c1.2743-1.03,2.6054-1.9466,4.3691-1.8q.0068,29.925.0137,59.85c-2.9029-2.1706-5.1719-5.0019-7.7794-7.4809-2.8418-2.7018-6.3464-2.9527-8.7969-.5336s-2.28,6.0214.46,8.7825c3.78,3.8086,7.6041,7.5728,11.3686,11.3961a7.2284,7.2284,0,0,0,4.7464,2.3328l-.0049,43.156Z"/><path class="f284b533-4df6-4322-8c94-9b34d2507fa4" d="M150.5231,199.5613l.0049-43.156-.01-.1122a4.7677,4.7677,0,0,0,4.041-1.4977q12.1968-12.124,24.3239-24.3181a5.5121,5.5121,0,0,0,1.3379-5.9192c-1.4477-4.395-6.5758-5.4773-10.0061-2.09q-9.8838,9.7595-19.7046,19.5827l.0192-.1422q-.0069-29.925-.0136-59.85a5.3862,5.3862,0,0,1,4.2178,1.5806A61.3126,61.3126,0,0,0,192.97,97.495c3.3935.0722,5.6922,1.241,6.9933,4.3509v40.4876c-.7753,1.0583-.4958,2.3505-.6965,3.5169-3.87,22.4977-16.0471,38.8695-36.2326,49.3742-3.5,1.8213-7.2869,2.93-10.9539,4.3367Z"/><path class="e2c739a9-fc52-4faf-8d5f-8ef3aec0b665" d="M174.2764,25.5331c3.87.1935,7.7879-.4888,11.61.3447,7.327,1.5979,11.8631,6.165,13.7161,13.4213a2.8841,2.8841,0,0,0,.361.6474V65.6406l-86.7807.03-.064-.0627q.0266-20.019.0529-40.0382l-.036-.0494Z"/><path class="ef2a4650-c51e-4bfb-b03c-8f6c81b0ce50" d="M113.1826,65.6708l86.7807-.03v36.2053c-1.3011-3.11-3.6-4.2787-6.9933-4.3509a61.3126,61.3126,0,0,1-38.2367-13.8561,5.3862,5.3862,0,0,0-4.2178-1.5806c-1.7637-.1469-3.0948.77-4.3691,1.8a61.6791,61.6791,0,0,1-30.8592,13.2254,20.83,20.83,0,0,1-2.1327.0846Q113.1686,81.4193,113.1826,65.6708Z"/><path class="e2c739a9-fc52-4faf-8d5f-8ef3aec0b665" d="M113.1826,65.6708q-.0141,15.7486-.0281,31.4972a26.7913,26.7913,0,0,1-5.9746.3952,5.8719,5.8719,0,0,0-6.09,6.1114c-.0468,5.1-.05,10.1994-.0715,15.299-2.2018.0009-4.4047-.0407-6.6053.0127a5.8286,5.8286,0,0,0,0,11.6569c2.2005.0543,4.4034.0119,6.6053.0128.0256,6.5841.0824,13.1655,1.6293,19.6234q.5843,2.4389,1.1589,4.88c-20.0835.0056-40.1671.0622-60.25-.0057a17.5,17.5,0,0,1-17.21-17.2855c-.0344-2.6558-.017-5.3124-.0232-7.9685q.0081-3.4959.0155-6.992.02-28.6482.0378-57.2964L50.8,65.6348q.0319,5.924.0646,11.8478c.0247,4.0211,2.39,6.4462,6.3641,6.45q21.2744.02,42.5487,0c3.9754-.0037,6.34-2.4272,6.3652-6.45q.0375-5.9238.0648-11.8478l6.9108-.0268Zm-49.8759,64.98c2.1391,0,4.28.056,6.417-.0131a5.8235,5.8235,0,0,0-.0684-11.6441q-6.3187-.1005-12.64-.0016a5.8265,5.8265,0,0,0,.0686,11.6527C59.1571,130.6924,61.2323,130.6536,63.3067,130.6508Z"/><path class="ef2a4650-c51e-4bfb-b03c-8f6c81b0ce50" d="M26.3762,65.6112q-.0186,28.6482-.0378,57.2964-.0024,3.496-.0155,6.992c-3.815-.2014-7.6539.3341-11.4523-.3775A17.4234,17.4234,0,0,1,.6751,112.81C.577,105.286.6463,97.76.646,90.234Q.6442,54.6171.6463,19C.6475,7.6209,8.01.2394,19.3634.2384Q65.1968.2345,111.03.24c.7124,0,1.4249.0382,2.1374.0586l-.0321,25.2218.0359.0493c-23.2728-.0075-46.5456-.0675-69.818.0042a17.3527,17.3527,0,0,0-16.971,16.7007C26.2458,50.0511,26.3683,57.8322,26.3762,65.6112Z"/><path class="b459489a-4a38-4063-bc16-ac6527248937" d="M113.1355,25.5205,113.1676.2987C128.212.2846,143.2585.1154,158.3.3175c8.3143.1117,15.7907,8.12,15.9522,16.4607.0565,2.9175.0188,5.8367.0241,8.7551Q143.7059,25.5267,113.1355,25.5205Z"/><path class="ed31fbcd-4688-480c-84f2-3cd6b74da0b3" d="M150.528,156.4053a7.2284,7.2284,0,0,1-4.7464-2.3328c-3.7645-3.8233-7.5889-7.5875-11.3686-11.3961-2.74-2.7611-2.9114-6.3626-.46-8.7825s5.9551-2.1682,8.7969.5336c2.6075,2.479,4.8765,5.31,7.7794,7.4809l-.02.1422q.0039,7.1213.0082,14.2425Z"/><path class="b1905a0c-cf9e-48a1-8736-78f592d14f23" d="M101.0182,130.656c-2.2019-.0009-4.4048.0415-6.6053-.0128a5.8286,5.8286,0,0,1,0-11.6569c2.2006-.0534,4.4035-.0118,6.6053-.0127Z"/><path class="ea8b2a06-3a4c-4ff6-bc93-b7994c553692" d="M150.5178,156.2931q-.0042-7.1213-.0082-14.2425,9.8493-9.7948,19.7049-19.5827c3.43-3.3871,8.5584-2.3048,10.0061,2.09a5.5121,5.5121,0,0,1-1.3379,5.9192q-12.1211,12.2-24.3239,24.3181A4.7677,4.7677,0,0,1,150.5178,156.2931Z"/><path class="a06fd5c3-f9e6-48c8-906b-a0877d0fb12a" d="M26.3762,65.6112c-.0079-7.779-.13-15.56.0062-23.3365A17.3527,17.3527,0,0,1,43.3534,25.574c23.2724-.0717,46.5452-.0117,69.818-.0042q-.0263,20.0193-.0528,40.0383l-6.911.0266q-.0319-5.9233-.0647-11.8463c-.0259-4.0244-2.3855-6.4366-6.3679-6.44q-21.2721-.0191-42.5443,0c-3.9862.0036-6.3409,2.4126-6.3658,6.44q-.0366,5.9231-.0646,11.8463Z"/><path class="bc2b3fe9-1a28-452b-a88c-0061cb1968aa" d="M50.8,65.6348q.0319-5.9232.0646-11.8463c.0249-4.0276,2.38-6.4366,6.3658-6.44q21.2721-.0191,42.5443,0c3.9824.0035,6.342,2.4157,6.3679,6.44q.0379,5.923.0647,11.8463-.0318,5.9241-.0647,11.8479c-.0254,4.0227-2.39,6.4462-6.3652,6.45q-21.2743.02-42.5487,0c-3.9743-.0037-6.3394-2.4288-6.3641-6.45Q50.8286,71.5588,50.8,65.6348Z"/><path class="b1905a0c-cf9e-48a1-8736-78f592d14f23" d="M63.3067,130.6522c-2.0744.0014-4.15.04-6.2229-.0075a5.8265,5.8265,0,0,1-.0686-11.6527q6.3189-.0942,12.64.0016a5.8235,5.8235,0,0,1,.0684,11.6441C67.5868,130.7068,65.4458,130.6508,63.3067,130.6522Z"/></svg>