<svg id="ae987f95-7142-4ee1-a4b9-1911056c667e" data-name="Capa 1" xmlns="http://www.w3.org/2000/svg" viewBox="0 0 200 200"><defs><style>.b4efb8df-6166-4163-97df-df131749287a{fill:#fecbbe;}.ece1b838-db11-4085-a6ce-da9095b54652{fill:#fedccd;}.f6fb8b7a-152d-41f9-a0e1-2ea0a6331b9d{fill:#fecabd;}.acecac3d-04c7-4e35-8801-214de2d5f0d1{fill:#81b4fa;}.afbb08dc-d435-465e-9533-2c9616448b25{fill:#da5d6e;}.f0c9c792-75be-4c43-accb-7ea63c3c3a0b{fill:#fec252;}.b706bdaf-2052-4074-ac92-a157dd36bb99{fill:#fec251;}.ec65b361-43aa-4fb0-9505-85d8023559a2{fill:#61a2f8;}.ac01a88b-9756-437a-a963-b70a355068a7{fill:#d54553;}.b8139711-d96e-40f7-94ed-e238d7585aa6{fill:#fecabe;}.e1d9e5a6-7657-4fe3-b78a-2fa23e31e405{fill:#e9ac9d;}.a4fcc490-4239-404b-ab54-3c38af661b35{fill:#fecf63;}.e9907e92-aa1a-4146-9f36-ddee232ba6d4{fill:#fefefe;}.a4549754-4e7e-4321-8794-bbd0801c2ad5{fill:#e39542;}</style></defs><path class="b4efb8df-6166-4163-97df-df131749287a" d="M25.6948,25.4437c4.9674-2.0636,9.9442-4.1049,14.9-6.1956Q56.5448,12.52,72.4779,5.7522c3.6421-1.5412,7.3086-3.0268,10.92-4.6355.8344-.3716,1.82-.1785,2.5365-.83h5.0757q9.7446,3.1374,19.49,6.2748c-.3235.4426-.8057.3875-1.2488.3513A52.18,52.18,0,0,0,94.852,8.2277a153.9688,153.9688,0,0,0-27.55,8.0754C55.4133,21.0781,44.2,26.8636,35.2046,36.3155a36.0765,36.0765,0,0,0-8.4309,14.2657c-.2113.67.2564,1.6668-.7871,2.0214l-.1636-4.6808c.542-1.0646.0451-2.158.0443-3.23C25.8624,38.2758,25.7627,31.86,25.6948,25.4437Z"/><path class="ece1b838-db11-4085-a6ce-da9095b54652" d="M25.9866,52.6026c1.0435-.3546.5758-1.3513.7871-2.0214a36.0765,36.0765,0,0,1,8.4309-14.2657C44.2,26.8636,55.4133,21.0781,67.3021,16.3031a153.9688,153.9688,0,0,1,27.55-8.0754,52.18,52.18,0,0,1,14.3994-1.3154c.4431.0362.9253.0913,1.2488-.3513,3.39,1.0971,6.7884,2.1718,10.17,3.2962,4.5889,1.526,7.3233,4.7529,7.44,8.711.1505,5.1-1.85,8.1187-6.75,10.2a5.1925,5.1925,0,0,0-.6493.3926c-3.8851-.0716-7.762-.0349-11.655-.2867-5.2424-.3392-10.5231-.08-15.7873-.0938a2.8,2.8,0,0,0-1.9572.6508c-1.3874,1.1584-2.9144,2.1511-4.2884,3.3239-1.9352,1.652-4.3266,2.7772-5.79,4.9763a3.0242,3.0242,0,0,0-1.1025.2826c-3.4094,2.6263-6.7928,5.2864-10.1828,7.9377L58.185,54.6673a26.4217,26.4217,0,0,0,4.7644.5877c4.6692.57,9.37.89,14.0628,1.2537a9.9493,9.9493,0,0,1,8.9688,6.9076c.2486.71.1176,1.5756.789,2.1289-.542,2.7959-1.0828,5.5924-3.1836,7.748l-1.9153,1.529-.8328.4183.0074-.0142c-3.74,1.17-7.3909,2.6222-11.2093,3.5444l-.4836.4072.0536-.0036q-5.4727.6649-10.9452,1.3315a43.9448,43.9448,0,0,1-9.5183.0732c-5.1367-.4852-10.2522-1.1971-15.376-1.818-2.4362-.2951-4.8711-.6009-7.3059-.901.0281-2.5912.09-5.1835.0762-7.7755C26.1068,64.2571,26.0391,58.43,25.9866,52.6026Z"/><path class="ece1b838-db11-4085-a6ce-da9095b54652" d="M130.0375,154.5208l11.9707-8.8252c-3.546-.3505-6.5619-.6695-9.5821-.9415-3.3412-.301-6.7065-.4124-10.0246-.8713a9.7475,9.7475,0,0,1-8.6867-7.7468c-.1115-.428-.0329-.9273-.5021-1.2029.5146-2.8077,1.0888-5.5911,3.1812-7.7515l1.92-1.5318.8279-.4152-.0076.0133,11.206-3.5545a69.2618,69.2618,0,0,1,19.9784-1.8748c4.8108.3131,9.5925,1.0819,14.3852,1.6643,2.6186.3183,5.2322.6776,7.85,1.0038.4434.0552.9209-.0413,1.2328.4q.0993,12.2921.1987,24.584c-.5768.151-.52.6254-.6079,1.0772a30.5059,30.5059,0,0,1-7.528,14.4723c-6.1515,6.96-13.7524,11.9852-21.9444,16.1608a134.9409,134.9409,0,0,1-25.5348,9.8424c-8.9771,2.4707-17.9979,4.7944-27.4359,4.5369-.5038-.0137-1.0552-.1291-1.4518.3476-3.6378-1.1763-7.2664-2.382-10.9159-3.52a9.9655,9.9655,0,0,1-6.6828-7.8963c-.4475-4.4545,1.4691-8.2025,5.1446-10.0568.7459-.3764,1.4946-.747,2.2423-1.12,4.017.0253,8.0249.0517,12.0458.2985,4.9862.3061,10.0055.0569,15.01.09a3.85,3.85,0,0,0,2.6486-.9076c2.6142-2.1105,5.3332-4.091,8.0028-6.1333.6977-.5338,1.6853-.8134,1.77-1.918a2.9542,2.9542,0,0,0,1.1026-.2824C123.2277,159.7908,126.8438,157.426,130.0375,154.5208Z"/><path class="f6fb8b7a-152d-41f9-a0e1-2ea0a6331b9d" d="M89.4826,193.9082c.3966-.4767.948-.3613,1.4518-.3476,9.438.2575,18.4588-2.0662,27.4359-4.5369a134.9409,134.9409,0,0,0,25.5348-9.8424c8.192-4.1756,15.7929-9.2006,21.9444-16.1608a30.5059,30.5059,0,0,0,7.528-14.4723c.0877-.4518.0311-.9262.6082-1.0773q.0648,2.7252.1286,5.45c.0037,3.8775-.0383,7.7557.0249,11.6321a103.5345,103.5345,0,0,0,.2049,10.446q-16.8507,7.11-33.7021,14.2181c-8.1291,3.4232-16.2485,6.87-24.4072,10.2218-3.989,1.6385-7.89.5516-11.7568-.7148C99.4889,197.0905,94.4819,195.5111,89.4826,193.9082Z"/><path class="acecac3d-04c7-4e35-8801-214de2d5f0d1" d="M25.9866,52.6026c.0525,5.8273.12,11.6545.1506,17.4819.0135,2.592-.0481,5.1843-.0762,7.7755-7.4533-.3411-14.9051-.7-22.3593-1-1.0856-.0437-1.2717-.5361-1.27-1.459q.0231-13.1622,0-26.3244a7.7538,7.7538,0,0,0,1.2649-.4622c7.256-4.1548,14.6345-4.1866,22.1265-.6925Z"/><path class="afbb08dc-d435-465e-9533-2c9616448b25" d="M174.1143,152.9213q-.064-2.7252-.1286-5.45-.1-12.2919-.199-24.5839c6.8142-.2392,13.6046.3606,20.4028.63,3.3123.1311,3.3129.2849,3.319,3.55q.0226,12.1646.0348,24.3292a3.9451,3.9451,0,0,0-.9094.2965c-5.8523,3.6474-12.1211,3.9789-18.6576,2.4345C176.6532,153.8138,175.5175,152.9442,174.1143,152.9213Z"/><path class="f0c9c792-75be-4c43-accb-7ea63c3c3a0b" d="M116.3939,127.1816c-2.0924,2.16-2.6666,4.9438-3.1812,7.7515-10.7428,3.7769-21.1681,3.171-31.2159-2.3152A37.0732,37.0732,0,0,1,68.27,81.0608c.3665-.5975.9185-1.1123.9362-1.8864l-.0534.0036.4835-.4073c3.8184-.9222,7.4691-2.3748,11.2093-3.5442-.05,1.4683-1.506,1.6693-2.28,2.4735-6.0977,6.338-9.5577,13.6979-9.4527,22.6647.1134,9.6764,3.73,17.6589,11.2247,23.7164,9.6794,7.8232,20.4055,9.0314,31.9545,4.6418C113.65,128.2071,114.6647,126.6872,116.3939,127.1816Z"/><path class="b706bdaf-2052-4074-ac92-a157dd36bb99" d="M130.34,121.6934q-5.6029,1.7772-11.206,3.5543a1.54,1.54,0,0,1,.7274-1.3064A28.8686,28.8686,0,0,0,129.92,108.1781a30.3168,30.3168,0,0,0-2.1589-21.7592,29.5048,29.5048,0,0,0-13.4269-13.5876c-9.8112-4.9134-19.5265-4.7508-29.2319.2507-.4526.2332-.9094.9-1.5161.2112,2.1008-2.1556,2.6416-4.9521,3.1836-7.748,12.5254-4.33,24.292-2.9068,35.1228,4.8336a36.9816,36.9816,0,0,1,9.2081,49.9827C130.82,120.7871,130.5927,121.2487,130.34,121.6934Z"/><path class="ec65b361-43aa-4fb0-9505-85d8023559a2" d="M25.823,47.9218c-7.492-3.4941-14.87-3.4623-22.1265.6925a7.7538,7.7538,0,0,1-1.2649.4622c-.046-7.6515-.0552-15.3035-.1695-22.9539-.0228-1.5288.6653-1.6541,1.88-1.598,7.1831.3319,14.3683.6165,21.553.9181.068,6.4171.1677,12.8331.1726,19.2492C25.8681,45.7638,26.365,46.8572,25.823,47.9218Z"/><path class="ac01a88b-9756-437a-a963-b70a355068a7" d="M174.1143,152.9213c1.4032.0229,2.5389.8925,3.862,1.2051,6.5365,1.5444,12.8053,1.2129,18.6576-2.4345a3.9451,3.9451,0,0,1,.9094-.2965c.0656,7.7259.0941,15.4525.2308,23.1772.0248,1.4031-.6209,1.42-1.6446,1.3735Q185.2377,175.45,174.344,175a103.569,103.569,0,0,1-.2048-10.4462C174.076,160.677,174.118,156.7988,174.1143,152.9213Z"/><path class="b8139711-d96e-40f7-94ed-e238d7585aa6" d="M118.7479,162.7441c-.0843,1.1046-1.0719,1.3842-1.77,1.918-2.67,2.0423-5.3886,4.0228-8.0028,6.1333a3.85,3.85,0,0,1-2.6486.9076c-5.0048-.0335-10.0241.2157-15.01-.09-4.0209-.2468-8.0288-.2732-12.0458-.2985-.23-3.9518,4.4389-8.5051,8.9189-8.6011,1.1637-.025,2.3281-.0142,3.4931-.02Z"/><path class="b8139711-d96e-40f7-94ed-e238d7585aa6" d="M81.2334,37.7317c1.4633-2.1991,3.8547-3.3243,5.79-4.9763,1.374-1.1728,2.901-2.1655,4.2884-3.3239a2.8,2.8,0,0,1,1.9572-.6508c5.2642.0139,10.5449-.2454,15.7873.0938,3.893.2518,7.77.2151,11.655.2867.0649,4.226-4.3654,8.4308-8.9184,8.5987-1.164.0429-2.3306.0167-3.4969.0222Z"/><path class="e1d9e5a6-7657-4fe3-b78a-2fa23e31e405" d="M118.7479,162.7441l-27.0651-.0508a9.2394,9.2394,0,0,1,8.9649-8.1641c9.7962-.0676,19.5933-.0131,29.39-.0085-3.1938,2.9053-6.81,5.27-10.1871,7.941A2.9542,2.9542,0,0,1,118.7479,162.7441Z"/><path class="e1d9e5a6-7657-4fe3-b78a-2fa23e31e405" d="M81.2334,37.7317l27.0625.05a9.23,9.23,0,0,1-8.9628,8.1635c-9.7946.0689-19.59.012-29.3852.0065,3.39-2.6514,6.7736-5.3115,10.183-7.9378A3.0242,3.0242,0,0,1,81.2334,37.7317Z"/><path class="a4fcc490-4239-404b-ab54-3c38af661b35" d="M83.5864,73.2932c.6067.6886,1.0635.022,1.5161-.2112,9.7054-5.0015,19.4207-5.1641,29.2319-.2507a29.5048,29.5048,0,0,1,13.4269,13.5876,30.3168,30.3168,0,0,1,2.1589,21.7592,28.8686,28.8686,0,0,1-10.0584,15.7632,1.54,1.54,0,0,0-.7274,1.3064l.0075-.0132a.8159.8159,0,0,0-.8278.4153l-1.92,1.5318c-1.7292-.4944-2.7442,1.0255-4.1014,1.5413-11.549,4.39-22.2751,3.1814-31.9545-4.6418-7.4945-6.0575-11.1113-14.04-11.2247-23.7164-.105-8.9668,3.355-16.3267,9.4527-22.6647.7737-.8042,2.23-1.0052,2.28-2.4735l-.0072.014a.8213.8213,0,0,0,.8326-.4183Zm31.6358,35.1991a8.8673,8.8673,0,0,0-1.7954-6.0679c-2.2023-3.2069-5.4461-4.6945-9.0228-5.6852a53.1974,53.1974,0,0,1-10.5285-4.025A2.9113,2.9113,0,0,1,92.15,89.9237,4.7365,4.7365,0,0,1,95.3655,85.08c3.9584-1.37,7.8917-1.3805,11.6258.8331,1.838,1.09,3.6515.8055,4.6264-.74.9762-1.5475.4263-3.3207-1.4506-4.4292a15.5818,15.5818,0,0,0-5.7806-2.2321c-1.3014-.1751-1.7368-.6166-1.6978-1.9449.0636-2.1723-1.15-3.5289-2.96-3.6254-1.4862-.0791-2.61,1.1521-2.8958,3.2224-.2053,1.49-.6054,2.5353-2.4343,2.9217a10.704,10.704,0,0,0-6.5331,4.5925c-2.6953,3.8328-2.7279,9.4243,1.0369,12.7548,2.5081,2.2188,5.5479,3.3084,8.576,4.4729,2.9037,1.1167,6.049,1.5392,8.8117,3.0587,2.9035,1.597,3.78,4.3347,2.296,7.2235-1.5914,3.0985-4.3994,4.3624-7.6316,4.6279-4.1139.3379-8.1565.0456-11.8593-2.1941a3.0492,3.0492,0,0,0-4.0812,1.0987,3.1739,3.1739,0,0,0,1.2495,4.2115c2.3807,1.3712,4.93,2.6651,7.6494,2.665,2.3855,0,2.7753,1.1,2.9413,2.945a2.9206,2.9206,0,1,0,5.82-.2762c-.1637-1.942.5356-2.8852,2.4045-3.1541a7.7267,7.7267,0,0,0,1.66-.5524C111.506,118.69,115.6936,113.5476,115.2222,108.4923Z"/><path class="f0c9c792-75be-4c43-accb-7ea63c3c3a0b" d="M81.6711,74.8222a.8213.8213,0,0,1-.8326.4183Q81.2546,75.0313,81.6711,74.8222Z"/><path class="e9907e92-aa1a-4146-9f36-ddee232ba6d4" d="M69.6364,78.7707l-.4835.4073Z"/><path class="b706bdaf-2052-4074-ac92-a157dd36bb99" d="M118.3141,125.65a.8159.8159,0,0,1,.8278-.4153Q118.7282,125.4423,118.3141,125.65Z"/><path class="a4549754-4e7e-4321-8794-bbd0801c2ad5" d="M115.2222,108.4923c.4714,5.0553-3.7162,10.1974-8.4841,12.067a7.7267,7.7267,0,0,1-1.66.5524c-1.8689.2689-2.5682,1.2121-2.4045,3.1541a2.9206,2.9206,0,1,1-5.82.2762c-.166-1.845-.5558-2.945-2.9413-2.945-2.719,0-5.2687-1.2938-7.6494-2.665a3.1739,3.1739,0,0,1-1.2495-4.2115,3.0492,3.0492,0,0,1,4.0812-1.0987c3.7028,2.24,7.7454,2.532,11.8593,2.1941,3.2322-.2655,6.04-1.5294,7.6316-4.6279,1.4837-2.8888.6075-5.6265-2.296-7.2235-2.7627-1.52-5.908-1.942-8.8117-3.0587-3.0281-1.1645-6.0679-2.2541-8.576-4.4729-3.7648-3.3305-3.7322-8.922-1.0369-12.7548a10.704,10.704,0,0,1,6.5331-4.5925c1.8289-.3864,2.229-1.4313,2.4343-2.9217.2853-2.07,1.41-3.3015,2.8958-3.2224,1.8108.0965,3.0239,1.4531,2.96,3.6254-.039,1.3283.3964,1.77,1.6978,1.9449a15.5818,15.5818,0,0,1,5.7806,2.2321c1.8769,1.1085,2.4268,2.8817,1.4506,4.4292-.9749,1.5453-2.7884,1.8293-4.6264.74-3.7341-2.2136-7.6674-2.2033-11.6258-.8331A4.7365,4.7365,0,0,0,92.15,89.9237a2.9113,2.9113,0,0,0,1.7256,2.7905,53.1974,53.1974,0,0,0,10.5285,4.025c3.5767.9907,6.8205,2.4783,9.0228,5.6852A8.8673,8.8673,0,0,1,115.2222,108.4923Z"/></svg>