<svg id="f33c646f-4b22-45fb-8a84-989163f9ff07" data-name="Capa 1" xmlns="http://www.w3.org/2000/svg" viewBox="0 0 200 200"><defs><style>.bac2b1e4-39da-40cc-b3fd-d5d121b5a399{fill:#4ead4e;}.a9d3a490-5815-4552-b543-70e6a360c936{fill:#fbd6c2;}.e8e3fe17-b439-4cd9-9b8a-bf3211473c07{fill:#feccab;}.be8e8841-6fd5-4753-977d-99f9d5a83cee{fill:#5dc45c;}.b8c8c5b6-4ef2-4c1f-930e-88f231bebb77{fill:#48b592;}.b48692b7-f54a-4861-878e-00fe24b549ea{fill:#056766;}.bfbc7bee-c4fb-41c9-97a3-37811176aeca{fill:#93cb4a;}.fa5fcc2c-e165-4410-b8d1-e7b15fdb476e{fill:#9fe457;}.b1a6e841-cea4-42d0-a6e4-41a26e4de251{fill:#f2e7d5;}.f40f9b4d-36ec-4b10-9a64-48f27e5f1a2d{fill:#eeeeed;}</style></defs><path class="bac2b1e4-39da-40cc-b3fd-d5d121b5a399" d="M201.6429,68.4459c-.61.56-1.242,1.0976-1.827,1.6824q-44.7057,44.696-89.4043,89.3988c-2.6089,2.6088-3.0882,2.6028-5.6923.0121q-5.808-5.7782-11.6249-11.5458c1.6889-2.9175,4.1278-5.242,6.21-7.8481a2.6841,2.6841,0,0,0,3.3612.4621,11.5063,11.5063,0,0,1,9.9586.0487,2.5486,2.5486,0,0,0,3.2759-.6723q32.1786-32.2427,64.4221-64.42a2.5269,2.5269,0,0,0,.6193-3.2828,10.9347,10.9347,0,0,1-.1671-9.5921c.7456-1.6161.6649-2.8213-.5979-3.9969l7.0874-6.6751q6.7575,6.69,13.5181,13.3771c.2636.26.5726.4748.8605.7106Z"/><path class="a9d3a490-5815-4552-b543-70e6a360c936" d="M17.1017,137.1447c.81-.058,1.2085-.714,1.7038-1.206,2.9049-2.8855,5.6033-6.016,8.7362-8.6261,4.5017-3.7505,6.7453-8.7121,8.7054-13.9817,3.1418-8.447,6.09-16.9593,8.3993-25.6676,1.7022-6.4205,5.5305-11.0823,10.7181-15.0247q11.8262-8.9874,23.2868-18.4517c3.67-3.024,7.6888-3.7275,12.1806-3.2325,3.7871.4174,7.5841.7467,11.3787,1.0934,1.9323.1765,3.869.3056,5.8039.4558-.4711.5279-.9179,1.0806-1.4174,1.5806Q92.8484,67.85,79.0852,81.6a2.9961,2.9961,0,0,0-1.2035,2.2951c.08,4.2132.063,8.4283.0819,12.6426-.0167,3.8273-.01,7.655-.0649,11.4819a4.8233,4.8233,0,0,0,.8949,2.7232c3.0767,4.8145,8.2323,5.462,12.37,1.5287,1.7864-1.6982,3.4922-3.4811,5.2384-5.2218,4.4023-4.3884,8.5331-9.0947,14.1324-12.0832,1.0344-.0195,1.7031-1.3963,2.9079-.7836-3.1007,2.5317-6.1115,5.15-8.9705,7.9687-8.4511,8.3316-16.7109,16.8-23.7635,26.41A29.0271,29.0271,0,0,1,67.0969,138.824q-8.9531,3.2439-18.0353,6.1271c-4.235,1.3443-7.9849,3.2837-10.9195,6.7294-.9754,1.1453-1.8865,2.5011-3.47,3.0017Q25.8868,145.9133,17.1017,137.1447Z"/><path class="e8e3fe17-b439-4cd9-9b8a-bf3211473c07" d="M34.6717,154.6822c1.5839-.5006,2.495-1.8564,3.47-3.0017,2.9346-3.4457,6.6845-5.3851,10.92-6.7294q9.0762-2.8811,18.0353-6.1271a29.0271,29.0271,0,0,0,13.6114-10.2617c7.0526-9.61,15.3124-18.0787,23.7635-26.41,2.859-2.8185,5.87-5.437,8.9706-7.9685a24.0665,24.0665,0,0,1,6.6945-2.76c3.9005-1.0121,7.8354-1.6957,11.8131-.3464,2.6274.8912,5.2167,3.9534,5.2656,6.2012.0471,2.1639-1.9578,5.4253-3.8633,6.2844a9.4671,9.4671,0,0,0-12.7115-1.9378c-2.1338,1.4049-3.7208,3.3978-5.5052,5.1715-2.3474,2.3332-2.3175,5.18-.0529,7.5638q1.9344,2.0358,3.8684,4.0721-5.7315,5.8146-11.4642,11.6278a91.1909,91.1909,0,0,0-8.1822,10.0845c-2.0825,2.6064-4.5214,4.9309-6.21,7.8484a2.1885,2.1885,0,0,0-1.547.6957A33.86,33.86,0,0,1,79.4,155.4515q-9.0445,2.9827-18.0683,6.0281a20.2617,20.2617,0,0,0-7.7852,5.3314,18.6927,18.6927,0,0,1-3.4,3.1747c-.53-.4652-1.0807-.9075-1.5845-1.3983q-4.3718-4.2586-8.725-8.5363Z"/><path class="be8e8841-6fd5-4753-977d-99f9d5a83cee" d="M77.9637,96.5383c-.019-4.2145-.0023-8.43-.082-12.6428A2.9961,2.9961,0,0,1,79.0852,81.6q13.7636-13.75,27.5119-27.5162c.4995-.5.9463-1.0527,1.4174-1.5806q11.0418-10.99,22.0826-21.9815,7.8631-7.84,15.7066-15.6988c1.54-1.5349,2.7242-1.6042,4.1706-.1577q18.66,18.66,37.29,37.351l-7.0873,6.675c-.6227-.56-1.2674-1.0977-1.8644-1.6839q-6.0954-5.9848-12.1737-11.9868-5.1233-5.2011-10.243-10.4057c-.8714-.889-1.71-.8-2.787-.2757a10.8426,10.8426,0,0,1-9.55.2537c-2.0687-.969-3.1215-.3956-4.5011.9881Q109.4109,65.3179,79.6912,94.9824C79.1438,95.53,78.5408,96.0209,77.9637,96.5383Z"/><path class="b8c8c5b6-4ef2-4c1f-930e-88f231bebb77" d="M34.6717,154.6822q2.5824,2.6844,5.1645,5.369c-3.9212,3.3981-7.386,7.2615-11.0795,10.8916a3.1474,3.1474,0,0,0-.4523,1.0444Q15.8246,159.53,3.35,147.0678c-2.1059-2.1081-2.0735-3.8831.0562-6.0525q2.7991-2.8511,5.6507-5.6507c2.1928-2.1489,3.9863-2.1184,6.2078.0461.6028.5874,1.2238,1.1561,1.8368,1.7337Q25.8869,145.9135,34.6717,154.6822Z"/><path class="b48692b7-f54a-4861-878e-00fe24b549ea" d="M28.3044,171.9872a3.1474,3.1474,0,0,1,.4523-1.0444c3.6935-3.63,7.1583-7.4935,11.08-10.8916q4.3608,4.27,8.7251,8.5362c.5038.4908,1.0548.9331,1.5845,1.3983.831.9023,1.6736,1.7933,2.49,2.7079a3.697,3.697,0,0,1-.0652,5.5275q-3.1007,3.2244-6.3215,6.3326c-1.7538,1.6854-3.6577,1.77-5.3388.1152C36.6631,180.4874,32.5006,176.22,28.3044,171.9872Z"/><path class="bfbc7bee-c4fb-41c9-97a3-37811176aeca" d="M166.1389,45.0209q6.085,5.9952,12.1737,11.9868c.597.5862,1.2417,1.1238,1.8644,1.6839,1.2627,1.1757,1.3434,2.3809.5978,3.997a10.9347,10.9347,0,0,0,.1671,9.5921,2.5269,2.5269,0,0,1-.6193,3.2828q-32.244,32.1771-64.4221,64.42a2.5486,2.5486,0,0,1-3.2759.6723,11.5063,11.5063,0,0,0-9.9586-.0487,2.6841,2.6841,0,0,1-3.3612-.4621,91.154,91.154,0,0,1,8.1821-10.0848q5.7394-5.8065,11.4638-11.6277c.6235-.5608,1.27-1.0987,1.8675-1.6864q5.6886-5.5954,11.3591-11.2094c7.1612-1.7009,11.542-6.3,13.6385-13.2057,1.2965-4.27.6121-8.4463-.8639-12.5474A1.1762,1.1762,0,0,0,145.3,79.62q10.1253-10.0723,20.2454-20.15a1.28,1.28,0,0,0,.3009-1.728C163.4076,53.4465,164.0541,49.2156,166.1389,45.0209Z"/><path class="fa5fcc2c-e165-4410-b8d1-e7b15fdb476e" d="M166.1389,45.0209c-2.0848,4.1947-2.7313,8.4256-.2926,12.7207a1.28,1.28,0,0,1-.3009,1.728Q155.4182,69.54,145.3,79.62a1.1786,1.1786,0,0,1-.3477.1644c-.4367-.7178-.8628-1.4425-1.3127-2.1522A18.6009,18.6009,0,0,0,113.8875,74.96c-5.25,5.8529-6.0769,12.6931-3.3531,20.0066-5.5993,2.9885-9.73,7.6948-14.1324,12.0832-1.7462,1.7407-3.452,3.5236-5.2384,5.2218-4.1377,3.9333-9.2933,3.2858-12.37-1.5287a4.8233,4.8233,0,0,1-.8949-2.7232c.0547-3.8269.0482-7.6546.0649-11.4819.5772-.5172,1.18-1.0086,1.7276-1.5557Q109.39,65.2968,139.0581,35.5813c1.38-1.3837,2.4324-1.9571,4.5011-.9881a10.8426,10.8426,0,0,0,9.55-.2537c1.0774-.5243,1.9156-.6133,2.787.2757Q161.0062,39.8289,166.1389,45.0209Z"/><path class="b1a6e841-cea4-42d0-a6e4-41a26e4de251" d="M110.5344,94.9669c-2.7238-7.3135-1.8971-14.1537,3.3531-20.0066A18.6009,18.6009,0,0,1,143.64,77.6317c.45.71.876,1.4344,1.3127,2.1522,1.4756,4.1011,2.16,8.2769.8635,12.5474-2.0965,6.9053-6.4773,11.5048-13.6385,13.2056.2588-.7371,1.2135-1.06,1.175-1.9738,1.9055-.8591,3.91-4.1205,3.8633-6.2844-.0489-2.2478-2.6382-5.31-5.2656-6.2012-3.9777-1.3493-7.9126-.6657-11.8131.3464a24.0665,24.0665,0,0,0-6.6945,2.76C112.2375,93.5706,111.5688,94.9474,110.5344,94.9669Z"/><path class="f40f9b4d-36ec-4b10-9a64-48f27e5f1a2d" d="M133.3523,103.5631c.0385.914-.9162,1.2367-1.175,1.9738q-5.6778,5.6067-11.3591,11.2095c-.5975.5877-1.244,1.1256-1.8675,1.6864q-1.9336-2.0363-3.868-4.0722c-2.2646-2.3833-2.2945-5.2306.0529-7.5638,1.7844-1.7737,3.3714-3.7666,5.5052-5.1715A9.4671,9.4671,0,0,1,133.3523,103.5631Z"/></svg>