<svg id="b1143f66-5d58-4b64-90c1-f975699cd576" data-name="Capa 1" xmlns="http://www.w3.org/2000/svg" viewBox="0 0 200 200"><defs><style>.bf75e27d-05c8-4c74-9951-0cdcd8ed2de4{fill:#373644;}.e14ab750-7fa3-4b51-8285-ad28c6b5bd06{fill:#2883eb;}.e70bdef1-b185-44b3-ae86-c84af4ed449e{fill:#b8daf3;}.a5191d5c-f6db-4960-a818-f16f22505b38{fill:#1066b6;}.a48a2573-cfbc-468d-979a-108b0f1bc0e2{fill:#d0a23c;}.b611f916-8110-4866-b183-37411a306da3{fill:#f9c955;}.eb842086-6e31-461f-aea0-60be4b8b8a20{fill:#fbca55;}.e699c35f-cbef-457e-b9c2-9486b46e7e5d{fill:#1067b7;}.bbfb34ba-0f20-4875-9619-604687b9b028{fill:#0f66b5;}.bf562165-8823-4b02-be8a-94632f5468d0{fill:#282733;}.ba478f67-bd86-43ca-b4fe-ea97d483543b{fill:#8eadc1;}.e5d2bd34-b0e1-454c-8e1e-4bce41cc04c3{fill:#fcfdfe;}</style></defs><path class="bf75e27d-05c8-4c74-9951-0cdcd8ed2de4" d="M53.4277,199.6661c-.1851-.57-.7464-.4449-1.1385-.569-7.826-2.4778-12.273-8.3948-12.3629-16.62-.0581-5.3133-.01-10.6276-.01-15.9415l6.6652.0014c-.0062,5.196-.0519,10.3923-.009,15.5879.0567,6.8553,4.1377,10.8976,10.9512,10.899q42.28.0084,84.5593,0c6.8071-.0013,10.8956-4.0494,10.9538-10.8988.0441-5.1956-.0025-10.3919-.0088-15.5879l6.6653-.0016q.0012,7.3851.0018,14.77c-.0052,9.79-4.2514,15.39-13.6874,18.0727-.0915.026-.1443.1884-.2152.2871Z"/><path class="e14ab750-7fa3-4b51-8285-ad28c6b5bd06" d="M159.6937,166.536l-6.6651.0017c-.6478-.0209-1.2958-.06-1.9437-.06q-51.28-.0045-102.5592,0c-.6479,0-1.2959.0391-1.9438.06l-6.6652-.0014c-7.4618-.0289-14.9238-.0439-22.3855-.0908-7.0288-.0441-12.2563-3.9631-13.8021-10.2933a16.973,16.973,0,0,1-.322-4.0632Q3.4,103.2116,3.408,54.3343C3.4112,45.4794,8.8374,40.0514,17.73,39.9832c7.3961-.0568,14.7926-.07,22.189-.1024l6.6619-.0058c.6478.0226,1.2956.0648,1.9434.0649q51.281.0048,102.5619,0c.6479,0,1.2957-.0423,1.9435-.0649l6.6619.0059c7.3964.0324,14.7928.08,22.1893.0915,4.51.0068,8.4186,1.35,11.3567,4.9391a13.4294,13.4294,0,0,1,2.9772,8.8382q-.0222,49.4619-.0261,98.9236c-.01,8.1987-5.6207,13.6834-13.9146,13.7661C174.7477,166.5144,167.2205,166.507,159.6937,166.536ZM49.8527,66.7337c.0221-2.1938.0976-4.3886.0512-6.5809a3.28,3.28,0,0,0-3.5507-3.4968c-4.3884-.0343-8.7774.0232-13.1662.0428l-6.6429-.0032c-2.1211-.018-4.2435-.0911-6.3629-.0387A3.2257,3.2257,0,0,0,16.719,60.18c-.044,2.1848.0114,4.3716.0231,6.5575a20.1258,20.1258,0,0,0,.0155,6.6455c-.0153,2.14-.0834,4.2807-.0313,6.4188a3.109,3.109,0,0,0,3.4056,3.3916c4.3443.0417,8.69-.0148,13.0345-.0307a20.1348,20.1348,0,0,0,6.6443.0183c2.1881.0113,4.3771.0665,6.564.0218,2.248-.0459,3.48-1.247,3.5283-3.4578.0463-2.1219-.0246-4.2463-.0439-6.37Zm-6.552,79.5548q13.1425,0,26.2851.0043c1.2117.0011,2.3011-.1326,3.0186-1.3248a3.0271,3.0271,0,0,0,.1072-3.4518,3.8657,3.8657,0,0,0-3.6039-1.8524q-25.7983-.011-51.5967.003c-2.5021.0022-4.231,1.432-4.2108,3.356.0234,2.2232,1.3215,3.2637,4.1048,3.2649Q30.3528,146.2935,43.3007,146.2885Zm109.8078-92.8q-13.3346,0-26.6691.0052a3.0081,3.0081,0,0,0-3.2407,2.6621,3.15,3.15,0,0,0,2.23,3.6194,6.6684,6.6684,0,0,0,2.6768.3446q24.9173-.0051,49.8344-.0072a9.2125,9.2125,0,0,0,1.932-.122,3.3613,3.3613,0,0,0,2.95-3.8726c-.163-1.7139-1.4074-2.6274-3.6283-2.6286Q166.1512,53.4822,153.1085,53.4886Zm.0606,69.7776c0-1.0384.078-2.0839-.0162-3.1136-.1965-2.1484-1.5481-3.4968-3.4-3.5159a3.374,3.374,0,0,0-3.4969,3.392,47.871,47.871,0,0,0-.0076,6.42,3.6218,3.6218,0,0,0,3.3793,3.4216,3.7148,3.7148,0,0,0,3.525-3.49C153.2513,125.3508,153.17,124.3046,153.1691,123.2662Zm-53.3719-.0873c0-1.2275.0739-2.4606-.0176-3.6812a3.02,3.02,0,0,0-3.274-2.86,2.9841,2.9841,0,0,0-3.2943,2.8282c-.1025,2.3861-.09,4.7821-.0059,7.1695a3.5319,3.5319,0,0,0,3.27,3.2474,3.5782,3.5782,0,0,0,3.3089-3.2166C99.8669,125.51,99.8,124.3418,99.7972,123.1789Zm-79.8785.1294c0-1.0391.0145-2.0784-.003-3.1172-.0373-2.2142-1.0778-3.431-3.013-3.5508a3.1123,3.1123,0,0,0-3.58,3.2226c-.1194,2.2667-.0993,4.5477-.0014,6.8165a3.5242,3.5242,0,0,0,3.342,3.2025,3.6072,3.6072,0,0,0,3.2507-3.4564C19.9364,125.3869,19.9181,124.3474,19.9187,123.3083Zm93.14-.0534c0-1.0387.0157-2.0778-.0033-3.1162-.04-2.1793-1.1167-3.4-3.0626-3.4989a3.0526,3.0526,0,0,0-3.5313,3.2327c-.1112,2.2018-.08,4.4151-.0108,6.62a3.5542,3.5542,0,0,0,3.3588,3.389,3.61,3.61,0,0,0,3.24-3.5108C113.0923,125.3339,113.0574,124.2937,113.0589,123.2549Zm26.5144-.0975c0-1.0347-.0444-2.0717.01-3.1035a2.9093,2.9093,0,0,0-2.4559-3.38,3.3007,3.3007,0,0,0-3.9908,2.4957,22.189,22.189,0,0,0,.1774,8.4564,3.2173,3.2173,0,0,0,6.2628-.9763C139.5441,125.4862,139.5706,124.3214,139.5733,123.1574Zm20.2334-.0424c0,1.0346-.01,2.07.0022,3.104.0263,2.167,1.09,3.4745,2.9481,3.6441a3.3594,3.3594,0,0,0,3.5793-3.1141,48.138,48.138,0,0,0,.03-7.1673,3.4865,3.4865,0,0,0-3.8818-2.94c-1.6592.1379-2.6535,1.3829-2.6753,3.3689C159.7977,121.0455,159.807,122.08,159.8067,123.115ZM86.46,146.2863c1.1627,0,2.3255.0042,3.4882-.001a3.0035,3.0035,0,0,0,3.1813-2.5444,3.107,3.107,0,0,0-2.1279-3.6733,18.3635,18.3635,0,0,0-8.9784.0188,3.0907,3.0907,0,0,0-2.0379,3.7241A2.8849,2.8849,0,0,0,83.166,146.3C84.26,146.232,85.3616,146.2875,86.46,146.2863Zm.089-22.9011c0-1.1031.05-2.2089-.01-3.3088-.1237-2.2645-1.3379-3.4689-3.3822-3.4376-2.0641.0316-3.2007,1.2492-3.229,3.5233q-.0386,3.1142.0005,6.2292A3.6832,3.6832,0,0,0,82.944,129.87a3.5629,3.5629,0,0,0,3.592-3.371C86.5972,125.4646,86.5469,124.4234,86.5488,123.3852Zm19.79,22.9012c1.1677,0,2.3355.007,3.5031-.0017a2.9849,2.9849,0,0,0,3.1748-2.5676,3.093,3.093,0,0,0-2.1695-3.662,18.761,18.761,0,0,0-8.83.0012,3.1038,3.1038,0,0,0-2.1684,3.6642,2.9969,2.9969,0,0,0,3.1811,2.5646C104.1329,146.292,105.2358,146.2864,106.3386,146.2864ZM33.1745,123.2749c0-1.1024-.0019-2.2047,0-3.3071a3.0057,3.0057,0,0,0-2.645-3.2986,3.0772,3.0772,0,0,0-3.72,2.3422,19.7028,19.7028,0,0,0,.1862,8.8363,2.8685,2.8685,0,0,0,3.423,1.9317,2.9146,2.9146,0,0,0,2.755-3.0029C33.1637,125.6094,33.1719,124.4421,33.1745,123.2749Zm13.2576-.062c0-.9738.0042-1.9476-.0009-2.9214-.0116-2.22-.9156-3.48-2.611-3.6483a3.3082,3.3082,0,0,0-3.9077,3.1216,40.0158,40.0158,0,0,0-.0421,6.8031,3.5815,3.5815,0,0,0,3.675,3.2858c1.8887-.2274,2.8625-1.4777,2.885-3.7195C46.44,125.1605,46.432,124.1866,46.4321,123.2129Zm6.9764-.0942c0,1.0386-.0112,2.0775.0023,3.116.0278,2.1376.93,3.403,2.7935,3.5777A3.0165,3.0165,0,0,0,59.7,127.3869a18.3321,18.3321,0,0,0-.087-8.64,3.0854,3.0854,0,0,0-3.8822-2.0635,2.8529,2.8529,0,0,0-2.3294,3.1249C53.4427,120.91,53.41,122.0151,53.4085,123.1187Z"/><path class="bf75e27d-05c8-4c74-9951-0cdcd8ed2de4" d="M46.5808,39.875l-6.6619.0058c-.0014-7.3363-.0173-14.6727-.0009-22.009C39.942,7.1137,46.973.1123,57.7376.1113q42.0671-.004,84.1342,0c10.7766.001,17.7851,6.9759,17.8192,17.7605.0232,7.3363.0018,14.6727,0,22.0091q-3.3309-.0028-6.6617-.006c.0063-1.428.0249-2.856.0165-4.2839-.0388-6.6185.1173-13.2465-.1945-19.8524a9.49,9.49,0,0,0-9.3653-8.95c-4.15-.1328-8.3071-.0012-12.46-.0618-1.0819-.0158-1.3062.4142-1.274,1.3708.0565,1.6856.0476,3.3755.0065,5.0621-.1,4.0891-2.8271,6.8557-6.8844,6.8627q-23.0729.04-46.146,0C72.67,20.0153,69.946,17.244,69.85,13.1561c-.035-1.4921-.0965-2.9925.0177-4.4765.1123-1.46-.2567-2.0361-1.8732-1.972-3.4345.1362-6.8781.0382-10.318.0424-6.961.0085-11.0637,4.0047-11.1031,10.9267C46.5316,25.0759,46.5748,32.4756,46.5808,39.875Zm59.9713-26.5128c2.0707,0,4.1416.0216,6.2119-.006a3.57,3.57,0,0,0,3.7436-3.3785,3.5663,3.5663,0,0,0-3.6948-3.233q-6.4059-.0417-12.8121.0022c-2.18.0183-3.2955,1.2178-3.3162,3.4059-.0187,1.9684,1.1574,3.1586,3.2676,3.2C102.1513,13.395,104.352,13.3618,106.5521,13.3622Zm-16.88-3.2176A3.0557,3.0557,0,0,0,86.5133,6.747a3.563,3.563,0,0,0-3.4177,3.32A3.5792,3.5792,0,0,0,86.5478,13.36,3.03,3.03,0,0,0,89.6725,10.1446Z"/><path class="e70bdef1-b185-44b3-ae86-c84af4ed449e" d="M46.5819,166.5375c.6479-.0208,1.2959-.06,1.9438-.06q51.28-.0045,102.5592,0c.6479,0,1.2959.0392,1.9437.06.0061,5.1959.0527,10.3922.0086,15.5878-.0582,6.8494-4.1467,10.8975-10.9538,10.8988q-42.28.0085-84.5593,0c-6.8135-.0014-10.8945-4.0437-10.9512-10.899C46.53,176.93,46.5757,171.7335,46.5819,166.5375Zm53.3047,13.2412q-9.932,0-19.864.006a3.3156,3.3156,0,1,0-.0788,6.617c.453.0256.9086.0057,1.363.0057q18.014,0,36.0279,0c.779,0,1.5636.0536,2.3358-.0207a3.5574,3.5574,0,0,0,3.48-3.5034c-.0453-1.6469-1.7952-3.0991-3.7894-3.1018Q109.6239,179.7677,99.8866,179.7787Z"/><path class="e70bdef1-b185-44b3-ae86-c84af4ed449e" d="M46.5808,39.875c-.006-7.3994-.0492-14.7991-.0071-22.1983.0394-6.922,4.1421-10.9182,11.1031-10.9267,3.44-.0042,6.8835.0938,10.318-.0424C69.6113,6.6435,69.98,7.22,69.868,8.68c-.1142,1.484-.0527,2.9844-.0177,4.4765.0957,4.0879,2.8194,6.8592,6.8782,6.8663q23.073.04,46.146,0c4.0573-.007,6.7849-2.7736,6.8844-6.8627.0411-1.6866.05-3.3765-.0065-5.0621-.0322-.9566.1921-1.3866,1.274-1.3708,4.1529.0606,8.31-.071,12.46.0618a9.49,9.49,0,0,1,9.3653,8.95c.3118,6.6059.1557,13.2339.1945,19.8524.0084,1.4279-.01,2.8559-.0165,4.2839-.6479.0227-1.2957.0649-1.9436.065q-51.2809.0048-102.5619,0C47.8764,39.94,47.2286,39.8976,46.5808,39.875Zm92.9973-21.6315c0,.3245-.0054.6491.0009.9736.0454,2.3536,1.2981,3.9961,3.22,4.2259,1.6683.1995,3.1419-1.2378,3.5965-3.5585a8.0312,8.0312,0,0,0,.1384-1.7356c-.0812-3.168-1.3514-4.8052-3.6649-4.7715C140.7878,13.4076,139.5828,15.1891,139.5781,18.2435Zm-79.5687.25a14.1976,14.1976,0,0,0-.0111-1.75,3.61,3.61,0,0,0-3.2007-3.3644c-1.9227-.0692-2.9233.9963-3.4507,3.1856a10.8189,10.8189,0,0,0,.0668,4.2147,3.0317,3.0317,0,0,0,2.7714,2.6,3.0926,3.0926,0,0,0,3.13-1.5307A4.8353,4.8353,0,0,0,60.0094,18.4936Z"/><path class="a5191d5c-f6db-4960-a818-f16f22505b38" d="M43.3007,146.2888q-12.9479,0-25.8957-.0011c-2.7833-.0012-4.0814-1.0417-4.1048-3.2649-.02-1.924,1.7087-3.3538,4.2108-3.356q25.7983-.0222,51.5967-.003a3.8657,3.8657,0,0,1,3.6039,1.8524,3.0271,3.0271,0,0,1-.1072,3.4518c-.7175,1.1922-1.8069,1.3259-3.0186,1.3248Q56.4433,146.2808,43.3007,146.2888Z"/><path class="a5191d5c-f6db-4960-a818-f16f22505b38" d="M153.1085,53.4881q13.0426-.0009,26.0852.0014c2.2209.0012,3.4653.9147,3.6283,2.6286a3.3613,3.3613,0,0,1-2.95,3.8726,9.2125,9.2125,0,0,1-1.932.122q-24.9172.009-49.8344.0072a6.6684,6.6684,0,0,1-2.6768-.3446,3.15,3.15,0,0,1-2.23-3.6194,3.0081,3.0081,0,0,1,3.2407-2.6621Q139.774,53.4767,153.1085,53.4881Z"/><path class="a48a2573-cfbc-468d-979a-108b0f1bc0e2" d="M16.7576,73.3834a20.1252,20.1252,0,0,1-.0155-6.6454c2.7272.0028,5.4562-.0507,8.1809.0327,1.3078.04,1.6782-.4519,1.6456-1.6986-.0728-2.7905-.0238-5.5841-.0245-8.3765l6.6427.0032c-.0044,2.6552.0672,5.3136-.0408,7.9646-.0664,1.6322.5377,2.14,2.1368,2.1121,4.8554-.0839,9.7131-.0375,14.57-.0418q.0031,3.321.0064,6.6422c-2.7656,0-5.5329.0551-8.2962-.0253-1.3131-.0382-1.839.3326-1.7885,1.7273.0975,2.6981.0334,5.402.0363,8.1035a20.1354,20.1354,0,0,1-6.6444-.0183c.0025-2.7192-.0491-5.44.0316-8.1567.0383-1.2884-.4265-1.6687-1.6808-1.6537C26.5978,73.4116,21.6775,73.3809,16.7576,73.3834Z"/><path class="b611f916-8110-4866-b183-37411a306da3" d="M49.8527,66.7337c-4.8568.0043-9.7145-.0421-14.57.0418-1.5991.0276-2.2032-.48-2.1368-2.1121.108-2.651.0364-5.3094.0408-7.9646,4.389-.02,8.778-.0771,13.1664-.0428a3.28,3.28,0,0,1,3.5507,3.4968C49.95,62.3451,49.8748,64.54,49.8527,66.7337Z"/><path class="eb842086-6e31-461f-aea0-60be4b8b8a20" d="M16.7576,73.3834c4.92-.0025,9.84.0282,14.76-.0307,1.2543-.015,1.7191.3653,1.6808,1.6537-.0807,2.7168-.0291,5.4375-.0316,8.1567-4.3448.0159-8.69.0724-13.0344.0307a3.109,3.109,0,0,1-3.4056-3.3916C16.6742,77.6641,16.7423,75.5231,16.7576,73.3834Z"/><path class="b611f916-8110-4866-b183-37411a306da3" d="M39.8107,83.1814c-.0029-2.7015.0612-5.4054-.0363-8.1035-.05-1.3947.4754-1.7655,1.7885-1.7273,2.7633.08,5.5306.0251,8.2962.0253.0193,2.1232.09,4.2476.0439,6.37-.0481,2.2108-1.28,3.4119-3.5283,3.4578C44.1878,83.2479,41.9988,83.1927,39.8107,83.1814Z"/><path class="b611f916-8110-4866-b183-37411a306da3" d="M26.5441,56.6956c.0007,2.7924-.0483,5.586.0245,8.3765.0326,1.2467-.3378,1.7386-1.6456,1.6986-2.7247-.0834-5.4537-.03-8.1809-.0327-.0117-2.186-.0671-4.3728-.0231-6.5576a3.2257,3.2257,0,0,1,3.4622-3.5235C22.3006,56.6045,24.423,56.6776,26.5441,56.6956Z"/><path class="e699c35f-cbef-457e-b9c2-9486b46e7e5d" d="M153.1694,123.2662c0,1.0384.0819,2.0846-.017,3.1135a3.7148,3.7148,0,0,1-3.525,3.49,3.6218,3.6218,0,0,1-3.3793-3.4216,47.871,47.871,0,0,1,.0076-6.42,3.374,3.374,0,0,1,3.4969-3.392c1.8522.0191,3.2038,1.3675,3.4,3.5159C153.2471,121.1823,153.1691,122.2278,153.1694,123.2662Z"/><path class="bbfb34ba-0f20-4875-9619-604687b9b028" d="M99.7984,123.1789c.0013,1.1629.0685,2.3307-.0145,3.4877a3.5782,3.5782,0,0,1-3.3089,3.2166,3.5319,3.5319,0,0,1-3.27-3.2474c-.0844-2.3874-.0966-4.7834.0059-7.1695a2.9841,2.9841,0,0,1,3.2943-2.8282,3.02,3.02,0,0,1,3.274,2.86C99.8711,120.7183,99.7972,121.9514,99.7984,123.1789Z"/><path class="bbfb34ba-0f20-4875-9619-604687b9b028" d="M19.9184,123.3083c0,1.0391.018,2.0786-.0044,3.1172a3.6072,3.6072,0,0,1-3.2507,3.4564,3.5242,3.5242,0,0,1-3.342-3.2025c-.0979-2.2688-.118-4.55.0014-6.8165a3.1123,3.1123,0,0,1,3.58-3.2226c1.9352.12,2.9757,1.3366,3.013,3.5508C19.9332,121.23,19.9187,122.2692,19.9184,123.3083Z"/><path class="bbfb34ba-0f20-4875-9619-604687b9b028" d="M113.0581,123.2549c-.0007,1.0388.0342,2.079-.0083,3.116a3.61,3.61,0,0,1-3.24,3.5108,3.5542,3.5542,0,0,1-3.3588-3.389c-.07-2.2051-.1-4.4184.0108-6.62a3.0526,3.0526,0,0,1,3.5313-3.2327c1.9459.0994,3.0227,1.32,3.0626,3.4989C113.0746,121.1771,113.0589,122.2162,113.0581,123.2549Z"/><path class="a5191d5c-f6db-4960-a818-f16f22505b38" d="M139.572,123.1574c-.0014,1.164-.0279,2.3288.0046,3.4919a3.2173,3.2173,0,0,1-6.2628.9763,22.189,22.189,0,0,1-.1774-8.4564,3.3007,3.3007,0,0,1,3.9908-2.4957,2.9093,2.9093,0,0,1,2.4559,3.38C139.5289,121.0857,139.5733,122.1227,139.572,123.1574Z"/><path class="a5191d5c-f6db-4960-a818-f16f22505b38" d="M159.8069,123.115c0-1.0347-.0092-2.0695.0021-3.1041.0218-1.986,1.0161-3.231,2.6753-3.3689a3.4865,3.4865,0,0,1,3.8818,2.94,48.138,48.138,0,0,1-.03,7.1673,3.3594,3.3594,0,0,1-3.5793,3.1141c-1.8582-.17-2.9218-1.4771-2.9481-3.6441C159.7963,125.1845,159.8067,124.15,159.8069,123.115Z"/><path class="a5191d5c-f6db-4960-a818-f16f22505b38" d="M86.46,146.2869c-1.0982.0006-2.2-.0549-3.2938.013a2.8849,2.8849,0,0,1-3.1809-2.4894,3.0907,3.0907,0,0,1,2.0379-3.7241,18.3635,18.3635,0,0,1,8.9784-.0188,3.107,3.107,0,0,1,2.1279,3.6733,3.0035,3.0035,0,0,1-3.1813,2.5444C88.7853,146.2905,87.6225,146.2863,86.46,146.2869Z"/><path class="bbfb34ba-0f20-4875-9619-604687b9b028" d="M86.5478,123.3852c-.0009,1.0382.0494,2.0794-.0118,3.114a3.5629,3.5629,0,0,1-3.592,3.371,3.6832,3.6832,0,0,1-3.0163-3.4789q-.0345-3.1143-.0005-6.2292c.0283-2.2741,1.1649-3.4917,3.229-3.5233,2.0443-.0313,3.2585,1.1731,3.3822,3.4376C86.5985,121.1763,86.5488,122.2821,86.5478,123.3852Z"/><path class="a5191d5c-f6db-4960-a818-f16f22505b38" d="M106.3386,146.2864c-1.1028,0-2.2057.0056-3.3085-.0013a2.9969,2.9969,0,0,1-3.1811-2.5646,3.1038,3.1038,0,0,1,2.1684-3.6642,18.761,18.761,0,0,1,8.83-.0012,3.093,3.093,0,0,1,2.1695,3.662,2.9849,2.9849,0,0,1-3.1748,2.5676C108.6741,146.2934,107.5063,146.2864,106.3386,146.2864Z"/><path class="a5191d5c-f6db-4960-a818-f16f22505b38" d="M33.1732,123.2749c-.0013,1.1672-.01,2.3345.0006,3.5016a2.9146,2.9146,0,0,1-2.755,3.0029,2.8685,2.8685,0,0,1-3.423-1.9317,19.7028,19.7028,0,0,1-.1862-8.8363,3.0772,3.0772,0,0,1,3.72-2.3422,3.0057,3.0057,0,0,1,2.645,3.2986C33.1726,121.07,33.1745,122.1725,33.1732,123.2749Z"/><path class="a5191d5c-f6db-4960-a818-f16f22505b38" d="M46.432,123.2129c0,.9737.0081,1.9476-.0016,2.9213-.0225,2.2418-.9963,3.4921-2.885,3.7195a3.5815,3.5815,0,0,1-3.675-3.2858,40.0158,40.0158,0,0,1,.0421-6.8031,3.3082,3.3082,0,0,1,3.9077-3.1216c1.6954.1685,2.5994,1.4286,2.611,3.6483C46.4363,121.2653,46.4321,122.2391,46.432,123.2129Z"/><path class="a5191d5c-f6db-4960-a818-f16f22505b38" d="M53.409,123.1187c.0005-1.1036.0337-2.2084-.0072-3.3105a2.8529,2.8529,0,0,1,2.3294-3.1249,3.0854,3.0854,0,0,1,3.8822,2.0635,18.3321,18.3321,0,0,1,.087,8.64,3.0165,3.0165,0,0,1-3.4961,2.4255c-1.8636-.1747-2.7657-1.44-2.7935-3.5777C53.3973,125.1962,53.4085,124.1573,53.409,123.1187Z"/><path class="bf562165-8823-4b02-be8a-94632f5468d0" d="M106.5521,13.362c-2.2,0-4.4008.033-6.6-.01-2.11-.0409-3.2863-1.2311-3.2676-3.2.0207-2.1881,1.1365-3.3876,3.3162-3.4059q6.4057-.0538,12.8121-.0022a3.5663,3.5663,0,0,1,3.6948,3.233,3.57,3.57,0,0,1-3.7436,3.3785C110.6937,13.3838,108.6228,13.3622,106.5521,13.362Z"/><path class="bf562165-8823-4b02-be8a-94632f5468d0" d="M89.6725,10.1446A3.03,3.03,0,0,1,86.5478,13.36a3.5792,3.5792,0,0,1-3.4522-3.2929,3.563,3.563,0,0,1,3.4177-3.32A3.0557,3.0557,0,0,1,89.6725,10.1446Z"/><path class="ba478f67-bd86-43ca-b4fe-ea97d483543b" d="M99.8866,179.7783q9.7373-.0007,19.4745.0029c1.9942.0027,3.7441,1.4549,3.7894,3.1018a3.5574,3.5574,0,0,1-3.48,3.5034c-.7722.0743-1.5568.0207-2.3358.0207q-18.0139.0009-36.0279,0c-.4544,0-.91.02-1.363-.0057a3.3156,3.3156,0,1,1,.0788-6.617C86.6439,179.77,93.2653,179.7787,99.8866,179.7783Z"/><path class="e5d2bd34-b0e1-454c-8e1e-4bce41cc04c3" d="M139.5779,18.2435c.0049-3.0544,1.21-4.8359,3.2914-4.8661,2.3135-.0337,3.5837,1.6035,3.6649,4.7715a8.0312,8.0312,0,0,1-.1384,1.7356c-.4546,2.3207-1.9282,3.758-3.5965,3.5585-1.9222-.23-3.1749-1.8723-3.22-4.2259C139.5727,18.8926,139.5781,18.568,139.5779,18.2435Z"/><path class="e5d2bd34-b0e1-454c-8e1e-4bce41cc04c3" d="M60.01,18.4913a4.843,4.843,0,0,1-.6954,3.358,3.0926,3.0926,0,0,1-3.13,1.5307,3.0317,3.0317,0,0,1-2.7714-2.6,10.8189,10.8189,0,0,1-.0668-4.2147c.5274-2.1893,1.528-3.2548,3.4507-3.1856a3.61,3.61,0,0,1,3.2007,3.3644A14.3018,14.3018,0,0,1,60.01,18.4913Z"/></svg>