<svg id="bdacfb42-ec39-4aba-8773-8ed74ecbd092" data-name="Capa 1" xmlns="http://www.w3.org/2000/svg" viewBox="0 0 200 200"><defs><style>.ad4102ed-b2bb-4e29-8df8-53eddc5cff1a{fill:#056766;}.ad382288-ee96-4bd7-adca-69649386143f{fill:#2883eb;}.a2811e88-df33-468a-8322-de64450ef087{fill:#48b592;}.b2377b9b-c2c1-4e9f-8708-5282792d435a{fill:#1066b6;}.a7738c2e-fc36-480e-bc4e-6554249353d1{fill:#d0a23c;}.b1f0da47-f480-4f3e-a4ad-9a9d1c1115b7{fill:#f9c955;}.a7caf3c9-ce7d-4ecd-bfad-35e6ae86434a{fill:#fbca55;}.aa864125-9f31-4d6b-9e40-cf56ce532a74{fill:#1067b7;}.f5c7e6ac-ae59-4d10-9d68-4fc6563d086f{fill:#0f66b5;}.be968fb2-ec46-426a-8b4f-56a6fce7d616{fill:#fcfdfe;}</style></defs><path class="ad4102ed-b2bb-4e29-8df8-53eddc5cff1a" d="M52.8536,200.7784c-.1851-.57-.7464-.4449-1.1385-.569-7.826-2.4778-12.273-8.3948-12.3629-16.6195-.0581-5.3132-.01-10.6276-.01-15.9415l6.6652.0015c-.0062,5.1959-.0519,10.3922-.009,15.5878.0567,6.8553,4.1377,10.8976,10.9512,10.899q42.28.0084,84.5593,0c6.8072-.0013,10.8956-4.0494,10.9538-10.8988.0441-5.1955-.0025-10.3919-.0088-15.5879l6.6653-.0016q.0012,7.3852.0018,14.77c-.0052,9.79-4.2514,15.39-13.6874,18.0727-.0915.026-.1443.1884-.2152.2871Z"/><path class="ad382288-ee96-4bd7-adca-69649386143f" d="M159.12,167.6483l-6.6651.0017c-.6478-.0209-1.2958-.06-1.9437-.06q-51.28-.0045-102.5592,0c-.6479,0-1.2959.0391-1.9438.06l-6.6652-.0015c-7.4618-.0289-14.9238-.0439-22.3855-.0907-7.0288-.0442-12.2563-3.9632-13.8021-10.2934a16.973,16.973,0,0,1-.322-4.0632q-.0071-48.8772.0009-97.7545c.0032-8.8549,5.4294-14.2829,14.3219-14.3511,7.3961-.0568,14.7927-.07,22.189-.1024l6.6619-.0058c.6478.0226,1.2956.0649,1.9434.0649q51.281.0048,102.562,0c.6478,0,1.2956-.0423,1.9434-.0649l6.6619.0059c7.3964.0324,14.7928.08,22.1893.0915,4.51.0068,8.4186,1.35,11.3567,4.9391a13.43,13.43,0,0,1,2.9772,8.8382q-.0222,49.4619-.0261,98.9236c-.01,8.1987-5.6207,13.6834-13.9146,13.7661C174.1736,167.6267,166.6464,167.6194,159.12,167.6483ZM49.2786,67.846c.0221-2.1938.0976-4.3886.0512-6.5809a3.28,3.28,0,0,0-3.5507-3.4968c-4.3884-.0343-8.7774.0232-13.1662.0428L25.97,57.8079c-2.1211-.018-4.2435-.0911-6.3629-.0387a3.2257,3.2257,0,0,0-3.4622,3.5235c-.044,2.1848.0114,4.3716.0231,6.5575a20.1285,20.1285,0,0,0,.0155,6.6455c-.0153,2.14-.0834,4.2807-.0312,6.4188a3.1089,3.1089,0,0,0,3.4055,3.3916c4.3443.0417,8.69-.0148,13.0345-.0307a20.1348,20.1348,0,0,0,6.6443.0183c2.1881.0113,4.3771.0665,6.564.0218,2.248-.0459,3.48-1.247,3.5284-3.4578.0462-2.1219-.0246-4.2463-.044-6.37Zm-6.552,79.5548q13.1426,0,26.2851.0043c1.2117.0011,2.3011-.1326,3.0186-1.3248a3.027,3.027,0,0,0,.1072-3.4518,3.8657,3.8657,0,0,0-3.6039-1.8524q-25.7984-.011-51.5967.003c-2.5021.0022-4.231,1.432-4.2108,3.356.0235,2.2232,1.3215,3.2637,4.1048,3.2649Q29.7788,147.4058,42.7266,147.4008Zm109.8078-92.8q-13.3346,0-26.6691.0052a3.0082,3.0082,0,0,0-3.2407,2.6621,3.15,3.15,0,0,0,2.23,3.6194,6.6684,6.6684,0,0,0,2.6768.3446q24.9172-.0049,49.8344-.0072a9.2125,9.2125,0,0,0,1.932-.122,3.3613,3.3613,0,0,0,2.95-3.8726c-.163-1.7139-1.4074-2.6274-3.6282-2.6286Q165.577,54.5945,152.5344,54.6009Zm.0606,69.7776c0-1.0384.078-2.0839-.0162-3.1136-.1965-2.1484-1.548-3.4968-3.4-3.5159a3.374,3.374,0,0,0-3.4969,3.392,47.871,47.871,0,0,0-.0076,6.42,3.6217,3.6217,0,0,0,3.3793,3.4216,3.7147,3.7147,0,0,0,3.525-3.49C152.6773,126.4631,152.5957,125.4169,152.595,124.3785Zm-53.3719-.0873c0-1.2275.0739-2.4606-.0176-3.6812a3.02,3.02,0,0,0-3.274-2.86,2.9841,2.9841,0,0,0-3.2943,2.8282c-.1025,2.3861-.09,4.7821-.0059,7.1695a3.5318,3.5318,0,0,0,3.27,3.2474,3.5782,3.5782,0,0,0,3.3089-3.2166C99.2928,126.6219,99.2256,125.4541,99.2231,124.2912Zm-79.8785.1294c0-1.0391.0145-2.0784-.003-3.1172-.0373-2.2142-1.0778-3.431-3.013-3.5508a3.1124,3.1124,0,0,0-3.58,3.2226c-.1194,2.2667-.0993,4.5477-.0014,6.8165a3.5241,3.5241,0,0,0,3.342,3.2025,3.6072,3.6072,0,0,0,3.2507-3.4564C19.3623,126.4992,19.344,125.46,19.3446,124.4206Zm93.14-.0534c0-1.0387.0157-2.0778-.0033-3.1162-.04-2.1792-1.1167-3.4-3.0626-3.4989a3.0526,3.0526,0,0,0-3.5313,3.2327c-.1112,2.2018-.08,4.4151-.0108,6.62a3.5544,3.5544,0,0,0,3.3588,3.3891,3.6106,3.6106,0,0,0,3.24-3.5109C112.5182,126.4462,112.4833,125.406,112.4848,124.3672Zm26.5144-.0975c0-1.0346-.0444-2.0717.01-3.1035a2.9092,2.9092,0,0,0-2.4559-3.38,3.3006,3.3006,0,0,0-3.9907,2.4957,22.1869,22.1869,0,0,0,.1773,8.4564,3.2173,3.2173,0,0,0,6.2628-.9763C138.97,126.5985,138.9965,125.4337,138.9992,124.27Zm20.2334-.0424c0,1.0347-.01,2.07.0022,3.104.0263,2.167,1.09,3.4745,2.9481,3.6441a3.3592,3.3592,0,0,0,3.5793-3.1141,48.1367,48.1367,0,0,0,.03-7.1672,3.4863,3.4863,0,0,0-3.8818-2.94c-1.6592.1378-2.6535,1.3828-2.6753,3.3688C159.2236,122.1578,159.2329,123.1926,159.2326,124.2273ZM85.8857,147.3986c1.1627,0,2.3255.0042,3.4882-.001a3.0034,3.0034,0,0,0,3.1813-2.5444,3.107,3.107,0,0,0-2.1279-3.6733,18.3635,18.3635,0,0,0-8.9784.0188,3.0908,3.0908,0,0,0-2.0379,3.7242,2.885,2.885,0,0,0,3.181,2.4893C83.6859,147.3443,84.7875,147.4,85.8857,147.3986Zm.089-22.9011c0-1.1031.05-2.2089-.01-3.3088-.1237-2.2645-1.3379-3.4689-3.3822-3.4376-2.0641.0316-3.2007,1.2492-3.229,3.5233q-.0386,3.1141.0005,6.2292a3.6834,3.6834,0,0,0,3.0163,3.479,3.563,3.563,0,0,0,3.592-3.3711C86.0231,126.5769,85.9728,125.5357,85.9747,124.4975Zm19.79,22.9012c1.1677,0,2.3355.007,3.5031-.0017a2.9848,2.9848,0,0,0,3.1748-2.5676,3.093,3.093,0,0,0-2.1695-3.662,18.7623,18.7623,0,0,0-8.83.0012,3.1038,3.1038,0,0,0-2.1684,3.6642,2.9969,2.9969,0,0,0,3.1811,2.5646C103.5588,147.4043,104.6617,147.3987,105.7645,147.3987ZM32.6,124.3872c0-1.1024-.002-2.2047,0-3.3071a3.0057,3.0057,0,0,0-2.645-3.2986,3.0772,3.0772,0,0,0-3.72,2.3422,19.7033,19.7033,0,0,0,.1862,8.8364,2.8685,2.8685,0,0,0,3.423,1.9316,2.9145,2.9145,0,0,0,2.755-3.0029C32.59,126.7217,32.5978,125.5544,32.6,124.3872Zm13.2575-.062c0-.9738.0042-1.9476-.0009-2.9213-.0116-2.22-.9156-3.48-2.611-3.6483a3.3081,3.3081,0,0,0-3.9077,3.1215,40.0158,40.0158,0,0,0-.0421,6.8031,3.5816,3.5816,0,0,0,3.6751,3.2858c1.8886-.2274,2.8624-1.4777,2.8849-3.72C45.866,126.2728,45.8579,125.2989,45.858,124.3252Zm6.9764-.0942c0,1.0387-.0112,2.0775.0023,3.116.0278,2.1376.93,3.403,2.7935,3.5777a3.0165,3.0165,0,0,0,3.4961-2.4255,18.3321,18.3321,0,0,0-.087-8.64,3.0853,3.0853,0,0,0-3.8821-2.0635,2.8529,2.8529,0,0,0-2.33,3.1249C52.8686,122.0226,52.8354,123.1274,52.8344,124.231Z"/><path class="ad4102ed-b2bb-4e29-8df8-53eddc5cff1a" d="M46.0067,40.9873l-6.6619.0058c-.0014-7.3363-.0173-14.6727-.0009-22.009.024-10.7581,7.055-17.76,17.82-17.76q42.0671-.004,84.1342,0c10.7766.001,17.7851,6.976,17.8192,17.7605.0232,7.3363.0019,14.6727.0005,22.0091q-3.331-.0028-6.6618-.006c.0063-1.428.0249-2.856.0165-4.2838-.0388-6.6186.1173-13.2466-.1945-19.8525a9.49,9.49,0,0,0-9.3653-8.95c-4.15-.1327-8.3071-.0012-12.46-.0618-1.0819-.0158-1.3062.4142-1.274,1.3708.0565,1.6857.0476,3.3755.0065,5.0621-.1,4.0891-2.827,6.8557-6.8844,6.8627q-23.0729.04-46.146,0c-4.0588-.0071-6.7825-2.7783-6.8782-6.8663-.035-1.492-.0965-2.9925.0177-4.4765.1123-1.46-.2566-2.0361-1.8732-1.972-3.4345.1362-6.8781.0382-10.3179.0424C50.1417,7.8708,46.039,11.867,46,18.789,45.9575,26.1882,46.0007,33.5879,46.0067,40.9873ZM105.978,14.4745c2.0707,0,4.1416.0216,6.2119-.006a3.57,3.57,0,0,0,3.7436-3.3785,3.5662,3.5662,0,0,0-3.6948-3.233q-6.4059-.0417-12.8121.0022c-2.18.0183-3.2955,1.2179-3.3162,3.4059-.0187,1.9684,1.1574,3.1586,3.2676,3.2C101.5772,14.5073,103.7779,14.4742,105.978,14.4745ZM89.0985,11.2569a3.0559,3.0559,0,0,0-3.1593-3.3976,3.563,3.563,0,0,0-3.4177,3.32,3.5792,3.5792,0,0,0,3.4522,3.2929A3.03,3.03,0,0,0,89.0985,11.2569Z"/><path class="a2811e88-df33-468a-8322-de64450ef087" d="M46.0078,167.65c.6479-.0209,1.2959-.06,1.9438-.06q51.28-.0045,102.5592,0c.6479,0,1.2959.0392,1.9437.06.0061,5.1959.0527,10.3923.0086,15.5878-.0582,6.8494-4.1466,10.8975-10.9538,10.8988q-42.28.0086-84.5593,0c-6.8135-.0014-10.8945-4.0437-10.9512-10.899C45.9559,178.0421,46.0016,172.8458,46.0078,167.65Zm53.3047,13.2412c-6.6213,0-13.2427-.0091-19.864.0059a3.3156,3.3156,0,1,0-.0788,6.617c.453.0256.9087.0057,1.3631.0057q18.0138,0,36.0278,0c.779,0,1.5637.0536,2.3358-.0207a3.5574,3.5574,0,0,0,3.48-3.5034c-.0453-1.6469-1.7952-3.0991-3.7893-3.1018Q109.05,180.88,99.3125,180.8911Z"/><path class="a2811e88-df33-468a-8322-de64450ef087" d="M46.0067,40.9873c-.006-7.3994-.0492-14.7991-.0071-22.1983.0394-6.922,4.1421-10.9182,11.1032-10.9267,3.44-.0042,6.8834.0938,10.3179-.0424,1.6166-.0641,1.9855.5119,1.8732,1.972-.1142,1.484-.0527,2.9845-.0177,4.4765.0957,4.088,2.8194,6.8592,6.8782,6.8663q23.073.04,46.146,0c4.0574-.007,6.7849-2.7736,6.8844-6.8627.0411-1.6866.05-3.3764-.0065-5.0621-.0322-.9566.1921-1.3866,1.274-1.3708,4.1529.0606,8.31-.0709,12.46.0618a9.49,9.49,0,0,1,9.3653,8.95c.3118,6.6059.1557,13.2339.1945,19.8525.0084,1.4278-.01,2.8558-.0165,4.2838-.6479.0227-1.2957.065-1.9435.065q-51.2811.0048-102.562,0C47.3023,41.0522,46.6545,41.01,46.0067,40.9873ZM139.004,19.3558c0,.3245-.0054.6492.0009.9736.0454,2.3536,1.2981,3.9961,3.22,4.2259,1.6683.2,3.1419-1.2378,3.5965-3.5585a8.0312,8.0312,0,0,0,.1384-1.7356c-.0812-3.168-1.3514-4.8052-3.6649-4.7715C140.2137,14.52,139.0087,16.3014,139.004,19.3558Zm-79.5687.25a14.1976,14.1976,0,0,0-.0111-1.75,3.61,3.61,0,0,0-3.2007-3.3644c-1.9227-.0692-2.9233.9963-3.4507,3.1856A10.8189,10.8189,0,0,0,52.84,21.892a3.0317,3.0317,0,0,0,2.7714,2.6,3.0926,3.0926,0,0,0,3.13-1.5307A4.8352,4.8352,0,0,0,59.4353,19.6059Z"/><path class="b2377b9b-c2c1-4e9f-8708-5282792d435a" d="M42.7266,147.4011q-12.9478,0-25.8957-.0011c-2.7833-.0012-4.0813-1.0417-4.1048-3.2649-.02-1.924,1.7087-3.3538,4.2108-3.356q25.7984-.0222,51.5967-.003a3.8657,3.8657,0,0,1,3.6039,1.8524A3.027,3.027,0,0,1,72.03,146.08c-.7175,1.1922-1.8069,1.3259-3.0186,1.3248Q55.8692,147.3931,42.7266,147.4011Z"/><path class="b2377b9b-c2c1-4e9f-8708-5282792d435a" d="M152.5344,54.6q13.0426-.0009,26.0853.0014c2.2208.0012,3.4652.9147,3.6282,2.6286a3.3613,3.3613,0,0,1-2.95,3.8726,9.2125,9.2125,0,0,1-1.932.122q-24.9171.009-49.8344.0072a6.6684,6.6684,0,0,1-2.6768-.3446,3.15,3.15,0,0,1-2.23-3.6194,3.0082,3.0082,0,0,1,3.2407-2.6621Q139.2,54.589,152.5344,54.6Z"/><path class="a7738c2e-fc36-480e-bc4e-6554249353d1" d="M16.1835,74.4957A20.1279,20.1279,0,0,1,16.168,67.85c2.7273.0028,5.4562-.0507,8.1809.0327,1.3078.04,1.6782-.4519,1.6456-1.6986-.0728-2.79-.0238-5.5841-.0245-8.3765l6.6427.0032c-.0044,2.6553.0672,5.3136-.0408,7.9646-.0664,1.6322.5377,2.14,2.1368,2.1121,4.8555-.0839,9.7131-.0375,14.57-.0418q.0032,3.321.0064,6.6422c-2.7656,0-5.5329.0551-8.2962-.0253-1.3131-.0382-1.839.3326-1.7885,1.7273.0975,2.6981.0334,5.402.0363,8.1035a20.1354,20.1354,0,0,1-6.6444-.0183c.0025-2.7191-.0491-5.44.0316-8.1567.0383-1.2884-.4264-1.6687-1.6808-1.6536C26.0237,74.5239,21.1034,74.4932,16.1835,74.4957Z"/><path class="b1f0da47-f480-4f3e-a4ad-9a9d1c1115b7" d="M49.2786,67.846c-4.8568.0043-9.7144-.0421-14.57.0418-1.5991.0276-2.2032-.48-2.1368-2.1121.108-2.651.0364-5.3093.0408-7.9646,4.389-.02,8.778-.0771,13.1664-.0428A3.28,3.28,0,0,1,49.33,61.2651C49.3762,63.4574,49.3007,65.6522,49.2786,67.846Z"/><path class="a7caf3c9-ce7d-4ecd-bfad-35e6ae86434a" d="M16.1835,74.4957c4.92-.0025,9.84.0282,14.76-.0306,1.2544-.0151,1.7191.3652,1.6808,1.6536-.0807,2.7168-.0291,5.4376-.0316,8.1567-4.3448.0159-8.69.0724-13.0344.0307a3.1089,3.1089,0,0,1-3.4055-3.3916C16.1,78.7764,16.1682,76.6354,16.1835,74.4957Z"/><path class="b1f0da47-f480-4f3e-a4ad-9a9d1c1115b7" d="M39.2366,84.2937c-.0029-2.7015.0612-5.4054-.0363-8.1035-.05-1.3947.4754-1.7655,1.7885-1.7273,2.7633.08,5.5306.0251,8.2962.0253.0194,2.1232.09,4.2476.044,6.3695-.0482,2.2108-1.28,3.4119-3.5284,3.4578C43.6137,84.36,41.4247,84.305,39.2366,84.2937Z"/><path class="b1f0da47-f480-4f3e-a4ad-9a9d1c1115b7" d="M25.97,57.8079c.0007,2.7924-.0483,5.586.0245,8.3765.0326,1.2467-.3378,1.7386-1.6456,1.6986-2.7247-.0834-5.4536-.03-8.1809-.0327-.0117-2.186-.0671-4.3728-.0231-6.5576a3.2257,3.2257,0,0,1,3.4622-3.5235C21.7265,57.7168,23.8489,57.79,25.97,57.8079Z"/><path class="aa864125-9f31-4d6b-9e40-cf56ce532a74" d="M152.5953,124.3785c0,1.0384.082,2.0846-.017,3.1135a3.7147,3.7147,0,0,1-3.525,3.49,3.6217,3.6217,0,0,1-3.3793-3.4216,47.871,47.871,0,0,1,.0076-6.42,3.374,3.374,0,0,1,3.4969-3.392c1.8523.0191,3.2038,1.3675,3.4,3.5159C152.673,122.2946,152.595,123.34,152.5953,124.3785Z"/><path class="f5c7e6ac-ae59-4d10-9d68-4fc6563d086f" d="M99.2243,124.2912c.0013,1.1629.0685,2.3307-.0145,3.4877a3.5782,3.5782,0,0,1-3.3089,3.2166,3.5318,3.5318,0,0,1-3.27-3.2474c-.0844-2.3874-.0966-4.7834.0059-7.1695a2.9841,2.9841,0,0,1,3.2943-2.8282,3.02,3.02,0,0,1,3.274,2.86C99.297,121.8306,99.2231,123.0637,99.2243,124.2912Z"/><path class="f5c7e6ac-ae59-4d10-9d68-4fc6563d086f" d="M19.3443,124.4206c0,1.0391.018,2.0786-.0044,3.1172a3.6072,3.6072,0,0,1-3.2507,3.4564,3.5241,3.5241,0,0,1-3.342-3.2025c-.0979-2.2688-.118-4.55.0014-6.8165a3.1124,3.1124,0,0,1,3.58-3.2226c1.9352.12,2.9757,1.3366,3.013,3.5508C19.3591,122.3422,19.3446,123.3815,19.3443,124.4206Z"/><path class="f5c7e6ac-ae59-4d10-9d68-4fc6563d086f" d="M112.484,124.3672c-.0007,1.0388.0342,2.079-.0083,3.116a3.6106,3.6106,0,0,1-3.24,3.5109,3.5544,3.5544,0,0,1-3.3588-3.3891c-.07-2.2051-.1-4.4184.0108-6.62a3.0526,3.0526,0,0,1,3.5313-3.2327c1.9459.0994,3.0227,1.32,3.0626,3.4989C112.5005,122.2894,112.4848,123.3285,112.484,124.3672Z"/><path class="b2377b9b-c2c1-4e9f-8708-5282792d435a" d="M138.9979,124.27c-.0014,1.164-.0279,2.3288.0046,3.4919a3.2173,3.2173,0,0,1-6.2628.9763,22.1869,22.1869,0,0,1-.1773-8.4564,3.3006,3.3006,0,0,1,3.9907-2.4957,2.9092,2.9092,0,0,1,2.4559,3.38C138.9548,122.198,138.9992,123.2351,138.9979,124.27Z"/><path class="b2377b9b-c2c1-4e9f-8708-5282792d435a" d="M159.2328,124.2273c0-1.0347-.0092-2.07.0021-3.1041.0218-1.986,1.0161-3.231,2.6753-3.3688a3.4863,3.4863,0,0,1,3.8818,2.94,48.1367,48.1367,0,0,1-.03,7.1672,3.3592,3.3592,0,0,1-3.5793,3.1141c-1.8582-.17-2.9218-1.4771-2.9481-3.6441C159.2222,126.2968,159.2326,125.262,159.2328,124.2273Z"/><path class="b2377b9b-c2c1-4e9f-8708-5282792d435a" d="M85.8857,147.3992c-1.0982.0006-2.2-.0549-3.2937.013a2.885,2.885,0,0,1-3.181-2.4893,3.0908,3.0908,0,0,1,2.0379-3.7242,18.3635,18.3635,0,0,1,8.9784-.0188,3.107,3.107,0,0,1,2.1279,3.6733,3.0034,3.0034,0,0,1-3.1813,2.5444C88.2112,147.4028,87.0484,147.3986,85.8857,147.3992Z"/><path class="f5c7e6ac-ae59-4d10-9d68-4fc6563d086f" d="M85.9738,124.4975c-.001,1.0382.0493,2.0794-.0119,3.114a3.563,3.563,0,0,1-3.592,3.3711,3.6834,3.6834,0,0,1-3.0163-3.479q-.0345-3.1143-.0005-6.2292c.0283-2.2741,1.1649-3.4917,3.229-3.5233,2.0443-.0313,3.2585,1.1731,3.3822,3.4376C86.0244,122.2886,85.9747,123.3944,85.9738,124.4975Z"/><path class="b2377b9b-c2c1-4e9f-8708-5282792d435a" d="M105.7645,147.3987c-1.1028,0-2.2057.0056-3.3085-.0013a2.9969,2.9969,0,0,1-3.1811-2.5646,3.1038,3.1038,0,0,1,2.1684-3.6642,18.7623,18.7623,0,0,1,8.83-.0012,3.093,3.093,0,0,1,2.1695,3.662,2.9848,2.9848,0,0,1-3.1748,2.5676C108.1,147.4057,106.9322,147.3987,105.7645,147.3987Z"/><path class="b2377b9b-c2c1-4e9f-8708-5282792d435a" d="M32.5992,124.3872c-.0014,1.1672-.01,2.3345,0,3.5016a2.9145,2.9145,0,0,1-2.755,3.0029,2.8685,2.8685,0,0,1-3.423-1.9316,19.7033,19.7033,0,0,1-.1862-8.8364,3.0772,3.0772,0,0,1,3.72-2.3422,3.0057,3.0057,0,0,1,2.645,3.2986C32.5985,122.1825,32.6,123.2848,32.5992,124.3872Z"/><path class="b2377b9b-c2c1-4e9f-8708-5282792d435a" d="M45.8579,124.3252c0,.9737.0081,1.9476-.0016,2.9213-.0225,2.2418-.9963,3.4921-2.8849,3.72a3.5816,3.5816,0,0,1-3.6751-3.2858,40.0158,40.0158,0,0,1,.0421-6.8031,3.3081,3.3081,0,0,1,3.9077-3.1215c1.6954.1684,2.5994,1.4285,2.611,3.6483C45.8622,122.3776,45.858,123.3514,45.8579,124.3252Z"/><path class="b2377b9b-c2c1-4e9f-8708-5282792d435a" d="M52.8349,124.231c.0005-1.1036.0337-2.2084-.0072-3.31a2.8529,2.8529,0,0,1,2.33-3.1249,3.0853,3.0853,0,0,1,3.8821,2.0635,18.3321,18.3321,0,0,1,.087,8.64,3.0165,3.0165,0,0,1-3.4961,2.4255c-1.8636-.1747-2.7657-1.44-2.7935-3.5777C52.8232,126.3085,52.8344,125.27,52.8349,124.231Z"/><path class="a2811e88-df33-468a-8322-de64450ef087" d="M105.978,14.4743c-2.2,0-4.4008.033-6.6-.01-2.11-.0409-3.2863-1.2311-3.2676-3.2.0207-2.188,1.1365-3.3876,3.3162-3.4059q6.4058-.0539,12.8121-.0022a3.5662,3.5662,0,0,1,3.6948,3.233,3.57,3.57,0,0,1-3.7436,3.3785C110.12,14.4961,108.0487,14.4745,105.978,14.4743Z"/><path class="a2811e88-df33-468a-8322-de64450ef087" d="M89.0985,11.2569a3.03,3.03,0,0,1-3.1248,3.2152,3.5792,3.5792,0,0,1-3.4522-3.2929,3.563,3.563,0,0,1,3.4177-3.32A3.0559,3.0559,0,0,1,89.0985,11.2569Z"/><path class="ad4102ed-b2bb-4e29-8df8-53eddc5cff1a" d="M99.3125,180.8906q9.7373-.0008,19.4746.0029c1.9941.0027,3.744,1.4549,3.7893,3.1018a3.5574,3.5574,0,0,1-3.48,3.5034c-.7721.0743-1.5568.0207-2.3358.0207q-18.0139.0009-36.0278,0c-.4544,0-.91.02-1.3631-.0057a3.3156,3.3156,0,1,1,.0788-6.617C86.07,180.882,92.6912,180.8911,99.3125,180.8906Z"/><path class="be968fb2-ec46-426a-8b4f-56a6fce7d616" d="M139.0038,19.3558c.0049-3.0544,1.21-4.8359,3.2914-4.8661,2.3135-.0337,3.5837,1.6035,3.6649,4.7715a8.0312,8.0312,0,0,1-.1384,1.7356c-.4546,2.3207-1.9282,3.758-3.5965,3.5585-1.9222-.23-3.1749-1.8723-3.22-4.2259C138.9986,20.005,139.004,19.68,139.0038,19.3558Z"/><path class="be968fb2-ec46-426a-8b4f-56a6fce7d616" d="M59.436,19.6036a4.8429,4.8429,0,0,1-.6954,3.358,3.0926,3.0926,0,0,1-3.13,1.5307,3.0317,3.0317,0,0,1-2.7714-2.6,10.8189,10.8189,0,0,1-.0668-4.2147c.5274-2.1893,1.528-3.2548,3.4507-3.1856a3.61,3.61,0,0,1,3.2007,3.3644A14.3018,14.3018,0,0,1,59.436,19.6036Z"/></svg>