<svg id="b0cd9c75-4edb-4df9-b13c-8352e0ddd93a" data-name="Capa 1" xmlns="http://www.w3.org/2000/svg" viewBox="0 0 200 200"><defs><style>.b8afa9c9-6686-4885-a81f-1a87e64779da{fill:#5aa9fe;}.a59bc059-8dd7-4009-b28e-78ffd5b2ac67{fill:#449cdf;}.f52b9304-ac45-400f-95ec-d338d0875443{fill:#fedd39;}.a9ccc968-512e-43ae-943f-9fdf11f5c177{fill:#fefefe;}.b2912045-1ad9-4058-a4a4-8f44ea3540b8{fill:#fcfdfe;}.f9ada33d-3398-4592-b198-f0888b09aa2c{fill:#fcfdfd;}.a575440d-ab29-4935-b670-1e607e9568d9{fill:#fefdfa;}</style></defs><path class="b8afa9c9-6686-4885-a81f-1a87e64779da" d="M125.2622,140.3327q-46.5453.0105-93.09-.0017c-7.9578-.0125-14.9983-6.52-15.1344-14.3939-.2334-13.4982-.0391-27.0038-.0244-40.5062a4.0071,4.0071,0,0,0,3.9008,1.97q70.8231-.0478,141.6463,0a3.9985,3.9985,0,0,0,3.8988-1.9723q.0276,7.5918.0553,15.1837a43.5156,43.5156,0,0,1-9.9508-3.15,5.9883,5.9883,0,0,0-4.83-.0892,77.7666,77.7666,0,0,1-22.6215,5.1019c-.4894-1.9494-1.8015-2.67-3.7349-2.6468-3.7555.0446-7.512-.0016-11.2679.0186-2.2936.0124-3.66,1.1961-3.6653,3.1039s1.3656,3.1034,3.65,3.1215c2.914.0231,5.8283.0076,8.7424.0087q.0319,4.0734.0642,8.147C122.9745,122.9937,122.1829,131.8384,125.2622,140.3327ZM57.46,124.7757c6.0322,0,12.0643.0124,18.0964-.0058,2.5654-.0078,3.6977-1.1205,3.7074-3.6613q.0333-8.757.0019-17.5142c-.0076-2.6532-1.1208-3.7454-3.8164-3.7477q-17.999-.0147-35.9981,0c-2.6956.0023-3.7968,1.0909-3.8044,3.7578q-.0246,8.66-.0011,17.32c.0063,2.7836,1.0871,3.8434,3.9126,3.8484Q48.5086,124.7887,57.46,124.7757ZM94.9054,99.8432c-2.0721,0-4.1455-.0472-6.2158.014a3.1008,3.1008,0,1,0-.0111,6.2c4.0785.0587,8.1589.0513,12.2377.0043a3.1078,3.1078,0,1,0,.0108-6.2071C98.9211,99.8013,96.9127,99.8425,94.9054,99.8432Z"/><path class="b8afa9c9-6686-4885-a81f-1a87e64779da" d="M17.0121,64.3879c.0219-5.7658-.6182-11.5719.2991-17.2863A15.1506,15.1506,0,0,1,32.5488,34.4044q27.257-.0533,54.5142-.0125,31.443,0,62.886.0014c10.0023.0022,16.5779,6.5695,16.5768,16.5634-.0005,4.4769-.0435,8.9538-.0672,13.4306a4.0023,4.0023,0,0,0-3.9-1.9707q-70.8231.0478-141.6463,0A4.0059,4.0059,0,0,0,17.0121,64.3879Z"/><path class="a59bc059-8dd7-4009-b28e-78ffd5b2ac67" d="M17.0121,64.3879a4.0059,4.0059,0,0,1,3.9-1.9713q70.8231.0478,141.6463,0a4.0023,4.0023,0,0,1,3.9,1.9707q0,10.5209,0,21.0414A3.9985,3.9985,0,0,1,162.56,87.401q-70.8232-.0476-141.6463,0a4.0071,4.0071,0,0,1-3.9008-1.97Q17.0127,74.9093,17.0121,64.3879Z"/><path class="f52b9304-ac45-400f-95ec-d338d0875443" d="M129.1119,102.4746a77.7666,77.7666,0,0,0,22.6215-5.1019,5.9883,5.9883,0,0,1,4.83.0892,43.5156,43.5156,0,0,0,9.9508,3.15,52.3274,52.3274,0,0,0,13.7976,2.0065c4.1138.1226,4.9167.912,4.9166,4.9472,0,6.5565.05,13.1135-.013,19.6694a39.9744,39.9744,0,0,1-29.675,37.7786,5.5706,5.5706,0,0,1-3.0437-.03c-12.3771-3.5254-21.1287-11.2163-26.4142-22.9121-.264-.5841-.5465-1.16-.82-1.74-3.0792-8.4944-2.2876-17.3391-2.3614-26.1053q-.0344-4.0736-.0641-8.147c.5047-2.4661,1.3591-3.243,3.8048-3.4409C127.464,102.573,128.2883,102.529,129.1119,102.4746Zm42.0706,17.4436a6.4966,6.4966,0,0,0-.3223-1.0823c-.9893-2.1521-3.4283-2.4636-5.3136-.6014-4.5256,4.47-9.0557,8.9387-13.4712,13.5167-1.2071,1.2514-2.0519,1.3178-3.3768.28-1.5781-1.2366-3.31-2.28-5.0026-3.3663-1.8464-1.185-3.5765-.9568-4.6375.5552-1.1066,1.5769-.6652,3.3625,1.2159,4.6408q4.2657,2.8988,8.5791,5.7274c1.8407,1.2047,3.0761,1.08,4.6825-.5162q8.2184-8.1676,16.3946-16.378A3.7551,3.7551,0,0,0,171.1825,119.9182Z"/><path class="a9ccc968-512e-43ae-943f-9fdf11f5c177" d="M57.46,124.7758q-8.9508,0-17.9017-.0032c-2.8255-.005-3.9063-1.0648-3.9126-3.8484q-.02-8.66.0011-17.32c.0076-2.6669,1.1088-3.7555,3.8044-3.7578q17.9991-.015,35.9981,0c2.6956.0023,3.8088,1.0945,3.8164,3.7477q.0255,8.757-.0019,17.5142c-.01,2.5408-1.142,3.6535-3.7074,3.6613C69.5238,124.7881,63.4917,124.7757,57.46,124.7758Z"/><path class="b2912045-1ad9-4058-a4a4-8f44ea3540b8" d="M94.9054,99.8429c2.0073,0,4.0157-.0416,6.0216.0113a3.1078,3.1078,0,1,1-.0108,6.2071c-4.0788.047-8.1592.0544-12.2377-.0043a3.1008,3.1008,0,1,1,.0111-6.2C90.76,99.796,92.8333,99.8432,94.9054,99.8429Z"/><path class="f9ada33d-3398-4592-b198-f0888b09aa2c" d="M129.1119,102.4746c-.8236.0544-1.6479.0984-2.47.165-2.4457.1979-3.3.9748-3.8048,3.4409-2.9142-.0011-5.8285.0144-8.7425-.0087-2.2847-.0181-3.6552-1.2135-3.65-3.1215s1.3717-3.0915,3.6653-3.1039c3.7559-.02,7.5124.026,11.2679-.0186C127.31,99.8049,128.6225,100.5252,129.1119,102.4746Z"/><path class="a575440d-ab29-4935-b670-1e607e9568d9" d="M171.1825,119.9182a3.7551,3.7551,0,0,1-1.2519,2.7756q-8.1989,8.1876-16.3946,16.378c-1.6064,1.5965-2.8418,1.7209-4.6825.5162q-4.3154-2.8244-8.5791-5.7274c-1.8811-1.2783-2.3225-3.0639-1.2159-4.6408,1.061-1.512,2.7911-1.74,4.6375-.5552,1.6921,1.086,3.4245,2.13,5.0026,3.3663,1.3249,1.0381,2.17.9717,3.3768-.28,4.4155-4.578,8.9456-9.0463,13.4712-13.5167,1.8853-1.8622,4.3243-1.5507,5.3136.6014A6.4966,6.4966,0,0,1,171.1825,119.9182Z"/></svg>