<svg id="fcc618b6-d28d-419e-a8a8-feb8ebc4931e" data-name="Capa 1" xmlns="http://www.w3.org/2000/svg" viewBox="0 0 200 200"><defs><style>.f699dd5d-3d98-497e-bf58-c2060c7c734b{fill:#48b592;}.e4ea6af0-084b-4c14-810c-08b05abc3417{fill:#056766;}.ab9af1a8-f8cb-48ff-9e19-5e85c48e18b1{fill:#e1ac2f;}.be2296bd-adb5-433e-8cb3-0ca5d4ded331{fill:#f0ba34;}.f225b322-9c9a-4636-9865-ef581b19db36{fill:#f0bb34;}.af3bbb67-2a74-4749-83bf-7a86abc024b0{fill:#fdd34d;}.b2e1cecb-ce32-4fe8-a98f-c406999698eb{fill:#fcd048;}.a912ad7e-1954-40ff-ad0a-9e7a7557806b{fill:#fdd34c;}.b71a5a99-4126-45c4-b0a1-3a6f875fd8b0{fill:#fada80;}.f691fdd5-25b2-4343-8ad7-d1281e2aaf31{fill:#746c68;}.b1ee6afe-d110-4e60-9950-ed2c00164b9f{fill:#fceceb;}.ba820bc9-361d-4b3e-a263-1bdec0a4d7c9{fill:#cb4a46;}.a710e21b-8cad-4161-8e2c-5af0358732e8{fill:#f8c73a;}.b8e48cd0-7a0a-4a8b-8864-85f9302d925c{fill:#fefcf6;}.bd685b91-1e9b-4175-a444-7ec8ca7941dc{fill:#ed5651;}</style></defs><path class="f699dd5d-3d98-497e-bf58-c2060c7c734b" d="M4.2919,107.0633c-.387-1.7583.7178-2.5728,2.0268-3.3322Q27.2146,91.6092,48.0932,79.4573c7.1014-4.1286,14.2172-8.2328,21.2947-12.402a8.18,8.18,0,0,1,8.9611.0259c6.47,3.7938,12.992,7.4974,19.4924,11.2379a25.6335,25.6335,0,0,0-.3216,6.9527q-.0746,4.2782-.1489,8.5564c-3.5534-1.3971-7.0328-3.0209-10.87-3.55q.0912-.2083.1822-.4169c.2412.0081.4878.028.59-.269,1.6986-.9286,3.4032-1.8464,5.0936-2.79.9819-.548,1.1791-1.32.1556-1.92a66.7622,66.7622,0,0,0-8.6349-4.7766q-.2622-.1993-.5231-.4c-2.6614-1.5608-5.3276-3.1134-7.9822-4.6856-1.4411-.8535-2.7844-.911-4.0112.38l-.5354.4554a8.8981,8.8981,0,0,0-3.6951,1.9314l-.4994.3887a9.8386,9.8386,0,0,0-3.7392,2.0008q-.2368.1918-.4728.3837c-2.3167.97-2.3388,1.1491-.3357,2.73-.3906,1.24-1.4138.6259-2.1633.59-.1428.6809.9024.6659.6,1.29-.554.1747-.9617-.106-1.3945-.1495-.6292-.0631-1.1781.447-.7147.9162,1.649,1.6695-.2516,1.5117-1.3781,2.0443,1.6771,0,2.9043-.0323,4.1292.0075,1.9015.0617,4.2393,1.6263,4.4871,3.155.2115,1.3048-.494,2.5819-.3661,3.9557.0335.3595-.9986.9292-1.626,1.2187-2.0115.9283-1.7235,2.9735-2.3251,4.5839-.0583.1562-.0238.4755.2468.39,1.6058-.5079.7122.351.49.8648-.92,2.1248-.4328,3.4237,1.5323,4.1029l.9038,3.1226c1.898-.0417.3232-2.0477,1.4345-2.5552-.5814-.1848-1.16-.3808-1.7462-.5476a2.5773,2.5773,0,0,0-.58-.0326c.2273-1.9477,1.6652-2.2918,3.2208-2.3026a4.2664,4.2664,0,0,1,3.8645,2.9478c.6818-.2,1-1.0546,1.81-1.0139,2.9863.15,6.014-1.18,8.97.2488.1385.067.4892.0171.5209-.0643.8147-2.0867,2.1988-.57,3.3337-.527.5718.0218,1.7432.4973,1.5824.023-.3314-.977,1.3345-2.2043-.3859-2.8635a1.2755,1.2755,0,0,1-.7584-1.0247c-.4728-1.8163-1.8194-2.3117-3.0883-.8873-.858.963-2.0559.5817-2.8868,1.35-.3947.3648-.7644-.3075-.5363-.5851.9059-1.103-.0765-1.7394-.51-2.5068-.3749-.6637-.7346-1.4981.3061-1.6341,1.2337-.1613,2.6028-.4873,3.7659.3,1.3332.9028,2.1633.2177,2.9541-.7747A2.2733,2.2733,0,0,1,88.2362,98.12c.3534.5913.5369,1.3042-.4464,1.4776-.6209.11-1.1034.0394-.887.9746a1.1748,1.1748,0,0,0,1.5869.858c.8588-1.1639,1.7649-.1838,2.6175-.0984a10.3925,10.3925,0,0,0-.6961-4.1324c-.6221-1.6078-2.7-.7771-3.3405-2.3237-.1935-.4676-.9921.05-1.1754.5093a5.1137,5.1137,0,0,0-.128,1.53c-.992.1724-1.634-.2077-1.74-1.23-.095-.9154.7579-1.1851,1.3283-1.37a2.4873,2.4873,0,0,1,2.675.1832,3.1618,3.1618,0,0,0,2.8605.8347c2.1485-.6137,4.3283-.2409,6.4911-.349l.0227,1.9585c-.8449,1.0953-1.6865.4227-2.4969-.0341-.4779-.2694-.9061-.5689-1.3243.0431-.4254.6225-.1513,1.1078.363,1.4866a4.8623,4.8623,0,0,0,.8721.4074c1.6187.7452,1.7751,1.4659.4836,2.7a33.2668,33.2668,0,0,1-3.0712,2.6113,1.3993,1.3993,0,0,0-.4748,1.8662,1.3831,1.3831,0,0,0,1.8871.8936c1.4552-.6888,2.8255-.2229,4.2814-.143,1.5987.0877,3.09.7434,4.6877.6241l1.851,1.6515c-.4087,1.8046-.01,2.1292,2.746,2.2361l5.4377,3.0932a11.5347,11.5347,0,0,1-3.2534-.3071c-.5682-.0657-1.8679.1116-1.3349.8162,1.01,1.3355-.0292.852-.6015,1.1328-2.7213,1.3352-5.9423-1.7228-8.4735,1.0009-1.7193-1.2749-2.6684-.5811-4.3344.6685-1.4846,1.1135-4.24.6258-6.4376.6633a3.5249,3.5249,0,0,0-3.25,2.7256c-.6046,1.7464.4439,2.1507,1.6941,2.54.5509.1715,1.0847.4154,1.6458.5333,1.1181.2349.9689,1.4011,1.5566,2.0167-1.4515.9991-1.8077,3.378-3.6356,3.6136-1.9063.2457-2.47,1.7231-3.4954,2.7411-1.4427,1.4332-1.1435,2.0243.67,2.8632,1.9475.901,3.6528-.2583,5.4735-.3616,1.5433,2.0046,4.3347,2.1649,6.7529.4231,1.1706-.843,1.4985-1.7082.2479-2.7437,1.54-.7754,3.1872-.2679,4.7816-.3886,1.1486-.0869,2.3626.2,3.41-.6462-2.507-1.1368-2.236-3.6081.6455-5.78a4.7133,4.7133,0,0,1-.0148,1.1647c-.3047,1.1045-1.6169,2.21-.9185,3.2249.6534.95,2.237.7812,3.4226,1.0623a3.6109,3.6109,0,0,0,1.14.1639c.65-.0629,1.5682.3906,1.8436-.5664.2829-.9831-.6655-.8637-1.21-1.0979-.3827-.1645-.6646-.48-.4258-.9154a1.5156,1.5156,0,0,1,.67-.6618c.5629-.2288.5123.3112.6972.6224a6.073,6.073,0,0,0,2.4467,2.34,2.0272,2.0272,0,0,1,.4218,3.4392,12.9947,12.9947,0,0,0-.9582.9644c-.2749.2966-.492.6583-.2214,1.0361.2443.341.6072.1287.8766-.0054,1.6229-.8077,3.3481-.489,5.0381-.4588,1.95.0349,2.0887.3427,1.6254,2.2741a2.7027,2.7027,0,0,0,1.3324,2.9169c1.0587.6738,1.8292-.038,2.2307-1.078.3388-.8774,1.0359-.6633,1.632-.5272.8156.1863,1.588.5576,2.4017.7564,2.1456.5241,4.1953.6585,5.62-1.5452.3253-.5031,1.0206-.9488,1.4543-.431,1.4378,1.7168,3.4938.8578,5.205,1.396,1.7366.5462,3.4225-.3127,5.1162-.67,1.2324-.26-.113-.9118.2151-1.2951.0765-.0894.2023-.2036.2992-.1981.9973.0563,1.8882-.5692,3.01-.0866,1.7426.7494,3.22,2.1757,5.3435,2.0845.6531-.028,1.83.4813,1.9122.9091.3,1.5615,1.461,1.3805,2.4984,1.7414,1.9265.67,4.3431-.8371,5.9143,1.3533.0783.1093.5111.0814.6922-.0272.2831-.17.1041-.4395-.0207-.6678-.8291-1.5161-1.5283-3.0883-3.5327-3.5132a4.0091,4.0091,0,0,1-2.3081-1.3371,14.4286,14.4286,0,0,0-7.5787-5.4251c-.5068-.1671-.9258-.1593-.57-.979.27-.623-.4764-.9962-1.0614-1.0727-1.6218-.2119-2.0759-1.9247-3.536-2.3588.65-.739,1.6013.022,2.0093-.8252-1.9121-2.3207-4.7355-2.8707-7.3606-3.3182-1.7585-.3-3.5146-.76-5.3065-.9549-.653-.0709-1.0542-1.0635-1.93-.7342l-.0116-.0111c-.0411-.2563.9823-.878-.0464-.7094a5.5711,5.5711,0,0,1-4.51-.8758.3994.3994,0,0,0-.1861-.043c-3.02-.3321-5.621-2.26-8.7242-2.2929-.2992-.0032-.7211-.1624-.6429-.5529.1225-.6109.5742-.3512.8905-.1775.6582.3614,1.21.4333,1.5623-.3846a77.2239,77.2239,0,0,0,21.79,2.291c.7179-.0325,1.3525.65,2.044.2326,1.63-.9844,3.4849-.5366,5.2093-.8955l-3.4956,2.2637c.8349.4382,1.2713,1.0814,2.07.772l-.0236-.0176c1.4207,1.1363,3.7793,1.0778,4.6708-.311,1.181-1.84-1.0537-1.8725-1.67-2.7732l11.2885-3.1377q15.0434,8.7079,30.0847,17.4194c1.3693.7938,2.8091,1.5839,1.8573,3.5928a16.3231,16.3231,0,0,1-1.5461,1.1541q-12.1347,7.0618-24.2851,14.0966-18.8322,10.9524-37.6472,21.9345c-3.3448,1.9569-6.5694,3.0189-10.33.7725-7.8694-4.7-15.869-9.1825-23.807-13.7682q-14.4217-8.3316-28.8318-16.6835-13.1661-7.6025-26.3493-15.1757c-9.7866-5.6437-19.5913-11.2567-29.336-16.972C9.96,110.643,6.8782,109.249,4.2919,107.0633Zm170.103,25.616.0251.02c-.1093-.6387-.6407-.9444-1.099-.7228-1.371.663-2.672,1.4709-4,2.2222l.0836.6125c1.9671-1.2435,2.9968-.8416,2.9755,1.7.5876-.9828,1.1072-1.5873,2.1471-1.5192.6771.0444,1.6441-.3056,1.6437-1.0285C176.17,133.0715,175.3536,132.6135,174.3949,132.6793ZM73.6687,119.884l-.007.0546c.2322-.7811-.3183-1.1312-.7853-1.6-.5553-.557-1.44-1.2984-1.3766-1.87.2677-2.4111-.1539-3.6989-2.1657-4.8107a5.5771,5.5771,0,0,0-5.2761-.1165c-3.1205,1.2512-3.6019,1.23-3.9785,4.592-.0809.7217-.5941.9694-1.1289,1.1856-3.0952,1.2516-6.1988,2.4824-9.3,3.72-1.3786-.5908-5.82.173-7.525,1.3157a1.5863,1.5863,0,0,0,.5317.2009c1.66-.0688,3.3367-.35,3.6863,2.0923.0983.687.8173.1442,1.2077-.1618l.98.4691c-.1464.2-.4487.4422-.4086.5931.1017.3833.4521.3854.7738.2142.8485-.4517,1.6922-.9123,2.5378-1.3694l.3761.315c-.1617.74-.9,1.2526-.8553,2.0985,1.4184.4166,2.7455-.7109,4.3481-.1453l-2.4775,1.5813.3214.49a28.3876,28.3876,0,0,0,4.8972-2.8358c-1.9633-1.3413-3.7142.393-5.533.0393.1034-.2559.18-.4985.2964-.7207.1491-.2853.3533-.5428.4921-.8323.5986-1.2482.1925-1.5683-1.5453-1.2257a2.2566,2.2566,0,0,1,2.8639-1.5491c2.3977.9109,4.7127-.1483,7.0369.1833a4.7074,4.7074,0,0,0,3.12-.6653l1.8185-.3368.6293,1.2249c-.0081,1.8291,1.4486,1.94,2.6687,2.0991,1.0975.1428,2.4067-.0793,2.7343-1.2942.36-1.3348-1.0825-1.312-1.8639-1.75-.0878-.0491-.1307-.1784-.23-.3227a2.9023,2.9023,0,0,1,3.0684.2452c.3492.2779.79.7829,1.1357.3318.457-.5967-.3681-.7883-.6485-1.15Zm48.9063,31.2007-2.2636-.5542c.2316-.9013-.2977-.8718-.84-.614-.6455.307-1.0785.2518-1.373-.5177,1.4-.6082,3.0069-.2663,4.769-1.1557a20.8434,20.8434,0,0,0-6.61.6648c-.7006.1466-.2132.5491-.07.85-1.7585.2073-2.5272,1.7237-4.0013,2.819,1.38.43,2.4764.742,3.5518,1.1138,1.6515.5711,3.43,1.0634,2.7787,3.4921-.0922.3439.1189.5573.4459.7372,1.6106.8857,5.2309.4553,6.9152-.8538a7.3762,7.3762,0,0,0,2.2383.5368c1.09-.0612,2.25-.2584,2.5164-1.3817.28-1.1792-1.0267-1.2395-1.7624-1.6612-.0759-.0435-.0835-.2061-.1362-.35a2.5629,2.5629,0,0,1,3.1426.5331c.3048.3213.7288.48.997.1217.3026-.4046-.1474-.6908-.4443-.8907-1.7592-1.1842-3.5468-.8229-5.333-.0547-.4211-.9977-1.1089-.1431-1.66-.239.2948-1.1976-.7446-1.596-1.41-2.1777,1.4055-1.7886,2.6291,1.13,4.15.15C125.2728,149.7726,125.2728,149.7726,122.575,151.0847ZM39.5693,106.6859a6.2966,6.2966,0,0,0,4.3218-1.4065c1.2525-.9816,1.1624-1.9385-.2187-2.7059-2.0156-1.12-3.87-.4343-5.647.6288-.6643.3974-1.3533.89-1.2187,1.8052.1315.8933.9311,1.1894,1.6475,1.46A4.697,4.697,0,0,0,39.5693,106.6859Zm57.9434,33.4417a7.59,7.59,0,0,0,4.198-1.6484c1.1288-.9638,1.0214-1.809-.315-2.5151-2.1029-1.111-4.001-.3749-5.7637.8055-1.581,1.0589-1.418,2.1379.3695,2.8985A13.039,13.039,0,0,0,97.5127,140.1276ZM80.055,129.9769a2.6418,2.6418,0,0,0,2.2831-1.004c.276-.44.4423-.9144,1.0982-.9157.6322-.0012,1.1895-.27,1.2508-.9618.0687-.7757-.55-1.15-1.1548-1.3785-1.2988-.49-2.632-.8928-3.6416.5591-.31.4455-.7858.3969-1.213.4657-.7982.1286-1.6784.33-1.7327,1.2285-.052.8607.7971,1.2654,1.5159,1.5627A12.4334,12.4334,0,0,0,80.055,129.9769Zm33.3669,16.3378c.2067.6425,1.3166.8636.6873,1.6317-.4531.5528-1.224.39-1.8127.167a4.4556,4.4556,0,0,1-1.214-.91c-.4333-.3789-.7757-.326-1.1221.149a3.8537,3.8537,0,0,0,3.51,1.66c.8976-.045,2.2056-.3122,2.109-1.2488-.1523-1.4776.6815-1.0914,1.3977-1.1806.4751-.0592,1.028.0582,1.4248-.6336-1.1021-.58-2.006-1.4938-3.3474-1.5957-.2117.8579.9216.7242.8353,1.4121C115.1453,146.1176,114.2279,145.6368,113.4219,146.3147Zm-64.1675-39.058c.2225.2343.2908.3607.3946.4067.6872.304,2.06-.1576,1.9081,1.0363-.133,1.0482-1.3935.5186-2.1621.6551-.2509.0445-.5187-.0133-.7734.0185-1.2723.1592-2.6455-.3916-4.05.5656,1.4688.7819,2.6063,1.7968,4.3456,2.2268-.2991-1.3033-1.4951-1.1057-1.6734-2.0642A23.4574,23.4574,0,0,0,50,110.08c1.16-.14,3.0228.0257,2.9518-1.4261-.0748-1.529-1.869-1.6382-3.2657-1.6047C49.5749,107.0519,49.4663,107.1514,49.2544,107.2567Zm57.57,38.0648c-.4606-1.0137-1.5455-.8955-1.7067-1.7536,1.2626-.0971,2.48-.1705,3.6926-.2912.829-.0825,1.8474-.1345,1.922-1.1961.0827-1.1775-1.0484-1.3336-1.8756-1.568a1.6016,1.6016,0,0,0-1.5786.1516c.0321.4146.3469.3484.5717.4189.6167.1932,1.6944-.0162,1.5169,1-.1423.8156-1.1205.673-1.8105.6842-1.3511.0219-2.703-.002-4.0541.0224-.4241.0076-1.2284.2973-.7626.627C103.8722,144.2183,105.0036,145.3129,106.8247,145.3215Zm-66.2692-27.619c.2869.9232-.233,1.6241-.2747,2.3909-.0237.4357-.2085.9532.2549,1.25.4357.2794.865.04,1.2666-.1972,1.2492-.7379,2.5031-1.468,4.17-2.444-2.0836-.2557-2.9573,1.2852-4.361,1.46-.3562-1.01.3577-1.8818.3146-2.8465-.0338-.7556-.2957-1.2406-1.0231-.8373a17.2246,17.2246,0,0,0-4.4134,2.8636C38.32,119.27,39.1953,117.999,40.5555,117.7025Zm12.7937-6.3139c.1529.8868,1.3685,1.072.742,1.84-.5775.708-1.418.4794-2.1157.08a12.0721,12.0721,0,0,1-1.1872-.9665.4424.4424,0,0,0-.6667.1224.56.56,0,0,0,.01.5214,3.7182,3.7182,0,0,0,3.2669,1.3348c.9544-.0874,2.2041-.1852,2.09-1.7-.0539-.7142.4313-.6685.8613-.7246.652-.0851,1.3068-.1481,2.18-.2448-1.9785-1.6346-2.3217-1.7917-3.6809-1.7881-.0289.742,1.1925.5147,1.0839,1.3585ZM19.783,109.02a2.0457,2.0457,0,0,0,1.9051-.6959c.3514-.4851-.0059-.8229-.2423-1.2032-.2317-.3728-1.0075-.6922-.3409-1.2179.4388-.3461.9681-.0537,1.418.2492.4551.3065.9,1.3675,1.4534.496.3628-.5716-.5843-.9967-1.1378-1.2934a3.1259,3.1259,0,0,0-2.4325-.2769c-.9571.29-1.5053.7821-.6852,1.8054.2745.3425,1.0579.6915.4685,1.1933-.5374.4576-1.2091.1177-1.7308-.3519-.3815-.3433-.46-1.1963-1.28-.8188a.5356.5356,0,0,0-.2132.4657,1.9793,1.9793,0,0,0,1.1581,1.2155A3.1207,3.1207,0,0,0,19.783,109.02Zm154.0559,28.03c1.74,1.3559,3.39,2.2195,5.4281,1.4811.9376-.34,2.1-.675,1.6645-2.1-.2976-.975-2.4846-2.0013-3.3247-1.563C176.3717,135.5124,175.1905,136.26,173.8389,137.05ZM26.79,113.4662c1.1662.2734,1.6487-.8106,2.4994-.4662,1.0777.4363.3049,1.3749.5739,2.017.1458.3479.66.709.814.1405.3235-1.1923,1.181-1.0349,2.0558-1.1751.71-.1138,1.62-.3077,1.6655-1.3043.0291-.6393-2.6672-2.3139-3.2769-1.9748A16.866,16.866,0,0,0,26.79,113.4662Zm13.0048,2.0966c-3.0287-2.43-4.752-2.2043-7.7306,1.0047l3.5292,1.8405c-.1208-.91-.6345-.9012-.8693-1.1838-.3116-.3748-1.3717-.2859-.898-1.1094.4015-.698,1.0672-.3963,1.6874-.0657.5657.3015,1.0587,1.0067,1.9759.5028a6.6837,6.6837,0,0,1-.8075-.5956c-.32-.3212-1.237-.3128-.8861-.9725.3235-.6081.995-.6206,1.68-.2013A2.827,2.827,0,0,0,39.7951,115.5628Zm15.1766,14.1895c1.28.6234,2.2217,1.5264,3.6778,1.7836-.3917-1.1132-1.6455-1.0235-1.9793-1.9141,1.2914-1.68,2.3927.8783,3.8622.1673l-1.9742-1.2554c1.6583-1.799,2.7067.7758,4.1215.44C60.4721,126.4167,59.0243,126.5462,54.9717,129.7523Zm17.2991-4.2569.0828.5862a32.8822,32.8822,0,0,0,8.1473-1.8889c-1.691-.51-2.7589-3.0983-5.0642-1.2275,1.1329.0386,2.2949-.0221,3.1349,1.1583Zm92.625,5.4807c1.5983.4726,2.9072,1.0541,3.292,3.1694.78-1.1533,1.3611-1.9846,1.9093-2.8372.23-.3586.67-.7793.2977-1.184a1.3718,1.3718,0,0,0-1.0835-.1571C167.8322,130.2677,166.3664,130.6339,164.8958,130.9761ZM26.44,107.4106c-1.4716.06-2.2733.88-3.1977,1.385-.6063.3313-1.3571.7331-1.1291,1.5945a2.0735,2.0735,0,0,0,1.6118,1.27,5.8017,5.8017,0,0,0,5.794-2.2189c-.5964-.2617-.9843.201-1.4146.425a9.1293,9.1293,0,0,1-2.9632,1.3723,1.6361,1.6361,0,0,1-1.8177-.8249c-.3256-.7231.44-.958.8784-1.2907C24.8529,108.6286,25.7294,108.447,26.44,107.4106Zm137.4265,22.7219c-.8832-.3273-2.0805-.1017-2.3071-1.3174a.993.993,0,0,1,.63-1.08,3.012,3.012,0,0,1,3.1157.0275,2.9537,2.9537,0,0,1,.6812.6591c.2806.3149.5606.54.9635.1871a3.72,3.72,0,0,0-4.7274-1.6167c-.8385.2848-1.8464.612-1.7744,1.7382.0678,1.0609,1.0127,1.4247,1.8983,1.6185C162.7717,130.4424,163.3091,130.765,163.8663,130.1325ZM42.5292,108.4049l.3861.7619,5.8041-3.37a17.889,17.889,0,0,0-1.6634-1.03c-.2317-.11-.87-.0921-.6585.28.8153,1.4343-.6381,1.3334-1.1542,1.7365A23.429,23.429,0,0,1,42.5292,108.4049Zm64.0528,30.6927a20.0738,20.0738,0,0,0-1.8243-.963c-.2421-.0966-.8571.0052-.5351.381.8416.982-.1877,1.0163-.58,1.28-.8.5368-1.694.9341-2.481,1.4863-.2663.1868-1.0857.15-.6748.8422.28.4724.684.1261,1.001-.0569C103.0982,141.1372,104.702,140.1952,106.582,139.0976ZM155.08,126.3665a27.81,27.81,0,0,0,4.5731-2.409,3.4,3.4,0,0,0-2.077-1.0944C158.5476,125.3633,155.2473,124.575,155.08,126.3665Zm-1.2087,14.853a6.7337,6.7337,0,0,0-3.1023-.3514.7942.7942,0,0,0-.9273.7592c-.0289.539.5394.4627.8466.5567C151.8333,142.5344,152.7518,141.999,153.8712,141.22Zm2.4642-19.2225a9.89,9.89,0,0,0-4.2734,2.4579A8.8733,8.8733,0,0,0,156.3354,121.997Z"/><path class="e4ea6af0-084b-4c14-810c-08b05abc3417" d="M4.2919,107.0633c2.5863,2.1857,5.6683,3.58,8.5547,5.2726,9.7447,5.7153,19.5494,11.3283,29.336,16.972q13.17,7.5952,26.3493,15.1757,14.4236,8.3286,28.8318,16.6835c7.938,4.5857,15.9376,9.0678,23.807,13.7682,3.7609,2.2464,6.9855,1.1844,10.33-.7725q18.8038-11.0011,37.6472-21.9345,12.1368-7.0582,24.2851-14.0966a16.3231,16.3231,0,0,0,1.5461-1.1541c.7075,3.9964-.5842,6.4627-4.416,8.6287-20.3236,11.4884-40.4468,23.3317-60.6148,35.0943a8.0118,8.0118,0,0,1-8.7628-.0125Q64.3358,147.7955,7.4164,115.023c-2.3684-1.3622-3.7145-2.8427-3.24-5.6405A18.8413,18.8413,0,0,0,4.2919,107.0633Z"/><path class="ab9af1a8-f8cb-48ff-9e19-5e85c48e18b1" d="M189.909,67.3927c.0106,3.6857.2362,7.3864-.02,11.0534-.3539,5.0625-3.1722,8.91-6.8512,12.1921a6.4986,6.4986,0,0,0-1.6506,1.6162q-4.074,2.2995-8.1478,4.6c-.8047.2307-1.628.41-2.4113.6984a67.9064,67.9064,0,0,1-24.2576,4.0289,59.2824,59.2824,0,0,1-9.0266-.7748c-8.3533-1.3582-16.2963-3.76-23.168-8.9952-4.3153-3.2873-7.4028-7.3111-8.398-12.75l-.014-3.546.032-4.6376,3.0786,1.94.416.4-.01-.0052c1.313,3.3518,4.2752,5.1251,7.03,6.9412,8.0145,5.2826,17.0916,7.5371,26.509,8.1427,10.3267.664,20.5087-.4488,30.1277-4.6352C180.7486,80.3534,187.24,75.8212,189.909,67.3927Z"/><path class="be2296bd-adb5-433e-8cb3-0ca5d4ded331" d="M173.2391,96.8535l8.1479-4.5991c.8944,7.4541-2.2212,13.0863-7.886,17.6343-3.1918,2.5625-6.8872,4.2044-10.4632,6.077q-5.6448,1.5684-11.2881,3.1379-.7749.0333-1.5515.0656c-1.7244.3589-3.58-.0889-5.2093.8955-.6915.4178-1.3261-.2651-2.044-.2326a77.22,77.22,0,0,1-21.79-2.2911l-8.5075-3.1626q-2.7189-1.5466-5.438-3.093a14.2318,14.2318,0,0,0-2.7457-2.2363q-.9255-.8257-1.8521-1.6515c-2.5666-3.0714-4.6165-6.4-5.2066-10.4548q-.0112-.9792-.0224-1.9586-.0054-.5783-.0115-1.156.0744-4.2781.1484-8.5565c1.0741,1.478,1.2219,3.358,2.2444,4.8963a30.5384,30.5384,0,0,0,11.6449,10.2326c11.3569,5.9048,23.6386,6.8884,36.0674,6.0964a48.5863,48.5863,0,0,0,20.7817-6.1315C170.02,99.3762,172.0449,98.68,173.2391,96.8535Z"/><path class="f225b322-9c9a-4636-9865-ef581b19db36" d="M109.0743,72.8178l-3.0787-1.94c-.4594-.7991-1.3264-1.0778-2.0177-1.5807-.9236-.9821-1.8739-1.9407-2.7659-2.9507a16.917,16.917,0,0,1-4.4855-11.8134c.0433-2.7059.072-5.4121.1072-8.1181.6159.0622.5728.6072.734,1.0025a23.2849,23.2849,0,0,0,9.7473,11.1363,53.7283,53.7283,0,0,0,16.6095,6.6,64.8519,64.8519,0,0,0,25.4384.8754c.637.1338.6977.4773.356.9714-.4123.5964-.8221,1.1946-1.3318,1.9355,1.3742-.0253,1.93-1.1738,3.1344-1.3872.546,2.9014,1.0924,5.8042,1.7476,9.2859.6635-3.4659,1.2231-6.3893,1.78-9.2977,1.195.1716,1.7155,1.4021,2.9842,1.2957a8.686,8.686,0,0,0-.6752-1.09c-1.2022-1.3916-.7607-1.82.9331-2.0156,2.2777-.2632,4.5226-.8108,6.7817-1.2362l.0339-.2938-3.9018-.7807c.68-.3573,1.3393-.7634,2.0435-1.0646,7.4233-3.1748,13.91-7.3887,17.1294-15.2794.0544-.1334.3152-.1827.48-.2712l.1767,2.2812c-.005,1.9911-.0041,3.9823-.0183,5.9733a2.2737,2.2737,0,0,0,.5449,1.7758,10.1171,10.1171,0,0,1,2.9564,8.5953c-.8778-1.6324-1.5573-3.38-2.9425-4.7068-.8212-.7865-1.3357-.9039-1.766.36a15.8069,15.8069,0,0,1-2.4881,4.3447c-3.7,4.9065-8.8652,7.7855-14.3753,10.0934a55.1223,55.1223,0,0,1-16.8262,3.9651,87.7,87.7,0,0,1-14.4619.044c-1.39-.1122-2.8467-1.0791-4.2827-.1081-3.485-1.0453-7.0023-1.9956-10.4442-3.1674-2.5344-.8629-4.97-2.0155-7.45-3.039l.01.0051Z"/><path class="af3bbb67-2a74-4749-83bf-7a86abc024b0" d="M180.8575,46.8016c-.1645.0885-.4253.1378-.48.2712-3.2189,7.8907-9.7061,12.1046-17.1294,15.2794-.7042.3012-1.3634.7073-2.0434,1.0647-.5049-.091-1.01-.1842-1.5149-.2729-3.3214-.5833-3.32-.5822-1.5414-3.4179.0439-.07-.0187-.207-.0435-.41-.6143.4139-1.2258.76-1.7607,1.2-1.1579.9519-1.5311.56-1.4279-.77.266-.5907.8541-.4773,1.3312-.6164A36.8906,36.8906,0,0,0,168.43,53.415c3.4195-2.5918,6.4938-5.5471,7.146-10.1441a9.3888,9.3888,0,0,0-1.12-5.0329,17.858,17.858,0,0,0-6.0323-6.6763c-7.6947-5.5742-16.6215-7.4565-25.8512-8.0589a60.6514,60.6514,0,0,0-14.09.6726c-7.4867,1.2654-14.5633,3.4623-20.597,8.2553-3.3492,2.66-5.7988,5.891-5.7755,10.4506a9.93,9.93,0,0,0,.181,1.137c1.7473,6.3242,6.667,9.6848,12.0689,12.295,8.4463,4.0812,17.5472,5.44,26.85,5.1524,2.4948-.0771,5.1567.1653,7.5383-1.0715.5289.6668,1.2331,1.2395,1.29,2.1983l-9.17,1.7363,8.4943,1.7011a64.8519,64.8519,0,0,1-25.4384-.8754,53.7283,53.7283,0,0,1-16.6095-6.6,23.2849,23.2849,0,0,1-9.7473-11.1363c-.1612-.3953-.1181-.94-.734-1.0025-1.1309-9.27,3.3442-15.6256,10.7391-20.3558,7.295-4.6664,15.4332-6.8194,23.9718-7.6756a67.3647,67.3647,0,0,1,28.8892,3.113,39.6723,39.6723,0,0,1,14.2035,8.1551C179.7113,34.296,181.64,40.0492,180.8575,46.8016Z"/><path class="b2e1cecb-ce32-4fe8-a98f-c406999698eb" d="M103.9779,69.2975c.6913.5029,1.5583.7816,2.0177,1.5807q-.0159,2.3187-.0316,4.6378c-2.1667,1.23-3.43,4.6735-2.8442,7.7532.7879-1.5144,1.3549-3.1789,2.8579-4.2074.9952,5.4388,4.0827,9.4626,8.398,12.75,6.8717,5.2348,14.8147,7.637,23.168,8.9952a59.2824,59.2824,0,0,0,9.0266.7748,67.9064,67.9064,0,0,0,24.2576-4.0289c.7833-.2884,1.6066-.4677,2.4113-.6984-1.1943,1.8256-3.2193,2.5218-4.9815,3.5111a48.5863,48.5863,0,0,1-20.7817,6.1315c-12.4288.792-24.71-.1916-36.0674-6.0964A30.5384,30.5384,0,0,1,99.7637,90.168c-1.0225-1.5383-1.17-3.4183-2.2444-4.8963a25.6532,25.6532,0,0,1,.3221-6.9526A21.8044,21.8044,0,0,1,103.9779,69.2975Z"/><path class="a912ad7e-1954-40ff-ad0a-9e7a7557806b" d="M109.4805,73.2127c2.48,1.0235,4.9154,2.1761,7.45,3.039,3.4419,1.1718,6.9592,2.1221,10.4442,3.1675a7.93,7.93,0,0,0,3.03,1.16,65.3511,65.3511,0,0,0,24.8789,1.9922c8.135-.88,15.8936-2.82,22.5293-7.8153,3.1348-2.36,6.151-5.0153,6.7044-9.3286a10.1171,10.1171,0,0,0-2.9564-8.5953,2.2737,2.2737,0,0,1-.5449-1.7758c.0142-1.991.0133-3.9822.0183-5.9733,6.3238,4.4721,9.7757,10.3363,8.8749,18.31-2.6687,8.4284-9.16,12.9606-16.7615,16.2686-9.619,4.1864-19.801,5.2992-30.1277,4.6352-9.4174-.6056-18.4945-2.86-26.509-8.1427C113.7557,78.3378,110.7935,76.5645,109.4805,73.2127Z"/><path class="e4ea6af0-084b-4c14-810c-08b05abc3417" d="M112.6472,114.3784l8.5075,3.1626c-.3519.818-.9041.7461-1.5623.3847-.3163-.1737-.768-.4334-.8905.1775-.0782.3905.3437.55.6429.5529,3.1032.0331,5.7042,1.9608,8.7242,2.2929a.3994.3994,0,0,1,.1861.043,5.5711,5.5711,0,0,0,4.51.8758c1.0287-.1686.0053.4531.0465.7095-1.1092.1-1.5877,1.4107-3.235,1.2182,2.2181.9385,2.8238.6267,3.2465-1.2072.876-.3293,1.2772.6633,1.93.7342,1.7919.1946,3.548.655,5.3065.9549,2.6251.4475,5.4485.9975,7.3606,3.3182-.408.8472-1.3588.0862-2.0093.8252,1.46.4341,1.9142,2.1469,3.536,2.3588.585.0765,1.3318.45,1.0614,1.0727-.3558.82.0632.8119.57.979a14.4286,14.4286,0,0,1,7.5787,5.4251,4.0091,4.0091,0,0,0,2.3081,1.3371c2.0044.4249,2.7036,1.9971,3.5327,3.5132.1248.2283.3038.4982.0207.6678-.1811.1086-.6139.1365-.6922.0272-1.5712-2.19-3.9878-.6831-5.9143-1.3533-1.0374-.3609-2.198-.18-2.4984-1.7414-.0822-.4278-1.2591-.9371-1.9122-.9091-2.1236.0912-3.6009-1.3351-5.3435-2.0845-1.1221-.4826-2.013.1429-3.01.0866-.0969-.0055-.2227.1087-.2992.1981-.3281.3833,1.0173,1.0348-.2151,1.2951-1.6937.3577-3.38,1.2166-5.1162.67-1.7112-.5382-3.7672.3208-5.205-1.396-.4337-.5178-1.129-.0721-1.4543.431-1.4251,2.2037-3.4748,2.0693-5.62,1.5452-.8137-.1988-1.5861-.57-2.4017-.7564-.5961-.1361-1.2932-.35-1.632.5272-.4015,1.04-1.172,1.7518-2.2307,1.078a2.7027,2.7027,0,0,1-1.3324-2.9169c.4633-1.9314.3242-2.2392-1.6254-2.2741-1.69-.03-3.4152-.3489-5.0381.4588-.2694.1341-.6323.3464-.8766.0054-.2706-.3778-.0535-.7395.2214-1.0361a12.9947,12.9947,0,0,1,.9582-.9644,2.0272,2.0272,0,0,0-.4218-3.4392,6.073,6.073,0,0,1-2.4467-2.34c-.1849-.3112-.1343-.8512-.6972-.6224a1.5156,1.5156,0,0,0-.67.6618c-.2388.4359.0431.7509.4258.9154.5449.2342,1.4933.1148,1.21,1.0979-.2754.957-1.194.5035-1.8436.5664a3.6109,3.6109,0,0,1-1.14-.1639c-1.1856-.2811-2.7692-.1125-3.4226-1.0623-.6984-1.0153.6138-2.12.9185-3.2249a4.7133,4.7133,0,0,0,.0148-1.1647c-2.8815,2.1721-3.1525,4.6434-.6455,5.78-1.0472.8463-2.2612.5593-3.41.6462-1.5944.1207-3.2413-.3868-4.7817.3886a8.7849,8.7849,0,0,0-2.0114-.3917c-1.2659.045-2.6034.1569-2.64,1.9428l-1.1594.725-1.19.0446c-1.8207.1032-3.526,1.2625-5.4735.3615-1.8133-.8389-2.1125-1.43-.67-2.8632,1.0249-1.018,1.5891-2.4954,3.4954-2.7411,1.8279-.2356,2.1841-2.6145,3.6356-3.6136-.5877-.6156-.4385-1.7818-1.5566-2.0167-.5611-.1179-1.0949-.3618-1.6458-.5333-1.25-.389-2.2987-.7933-1.6941-2.54a3.5249,3.5249,0,0,1,3.25-2.7256c2.1976-.0375,4.953.45,6.4376-.6633,1.666-1.25,2.6151-1.9434,4.3344-.6685,2.5312-2.7237,5.7522.3343,8.4735-1.0009.5723-.2808,1.6119.2027.6015-1.1328-.533-.7046.7667-.8819,1.3349-.8162A11.5347,11.5347,0,0,0,112.6472,114.3784Z"/><path class="e4ea6af0-084b-4c14-810c-08b05abc3417" d="M97.3709,93.8282q.0058.578.0115,1.156c-2.1631.1082-4.3429-.2646-6.4914.3491a3.1618,3.1618,0,0,1-2.8605-.8347,2.4873,2.4873,0,0,0-2.675-.1832c-.57.1846-1.4233.4543-1.3283,1.37.106,1.0222.748,1.4023,1.74,1.23l.0184.0186c-.7909.9922-1.621,1.6773-2.9542.7745-1.1631-.7877-2.5322-.4617-3.7659-.3-1.0407.136-.681.97-.3061,1.6341.4336.7674,1.416,1.4038.51,2.5068-.2281.2776.1416.95.5363.5851.8309-.7681,2.0288-.3868,2.8868-1.35,1.2689-1.4244,2.6155-.929,3.0883.8873a1.2755,1.2755,0,0,0,.7584,1.0247c1.72.6592.0545,1.8865.3859,2.8635.1608.4743-1.0106-.0012-1.5824-.023-1.1349-.0433-2.519-1.56-3.3337.527-.0317.0814-.3824.1313-.5209.0643-2.9561-1.4292-5.9838-.0986-8.97-.2488-.81-.0407-1.1279.8135-1.81,1.0139a4.2664,4.2664,0,0,0-3.8645-2.9478c-1.5556.0108-2.9935.3549-3.2208,2.3026l-.0126.0129c-1.965-.6793-2.4525-1.9782-1.5322-4.103.2225-.5138,1.1161-1.3727-.49-.8648-.2706.0857-.3051-.2336-.2468-.39.6016-1.61.3136-3.6556,2.3251-4.5839.6274-.29,1.66-.8592,1.626-1.2187-.1279-1.3738.5776-2.6509.3661-3.9557-.2478-1.5287-2.5856-3.0933-4.4871-3.155-1.2249-.04-2.4521-.0075-4.1292-.0075,1.1265-.5326,3.0271-.3748,1.3781-2.0443-.4634-.4692.0855-.9793.7147-.9162.4328.0435.84.3242,1.3945.1495.3027-.6244-.7425-.6094-.6-1.29.7495.0363,1.7727.65,2.1633-.5895q4.0226,2.13,8.0454,4.2606l.4186.4066c2.501,1.7935,5.2666,3.1455,7.8872,4.7388a3.1462,3.1462,0,0,0,4.1818-.39l.4773-.39c1.2836-.233,2.173-1.2831,3.3973-1.6389C90.3381,90.8073,93.8175,92.4311,97.3709,93.8282Z"/><path class="e4ea6af0-084b-4c14-810c-08b05abc3417" d="M48.5319,124.9552l-.98-.469q1.05-1.7235,2.0993-3.4472c3.1008-1.2378,6.2044-2.4686,9.3-3.72.5348-.2162,1.048-.4639,1.1289-1.1856.3766-3.3617.858-3.3408,3.9785-4.592a5.5771,5.5771,0,0,1,5.2761.1165c2.0118,1.1118,2.4334,2.4,2.1657,4.8107-.0635.5721.8213,1.3135,1.3766,1.87.467.4685,1.0175.8186.7854,1.5994a6.4353,6.4353,0,0,0-6.4384,2.0761q-.3145-.6124-.6291-1.2248c2.1528-1.3686.1753-1.9607-.551-2.7593,1.4216-1.8664,2.6343,1.2245,4.0842.1711-3.2087-2.249-3.4139-2.25-5.7195-.037.226.1424.44.2746.6519.4114.4956.32,1.4308.4388.9966,1.3-.3284.6515-1.1111.4937-1.7609.3875a2.1025,2.1025,0,0,1-1.2581-.8387.8115.8115,0,0,0-1.2978-.0891c.6156,1.3637,1.8,1.6217,3.0359,1.7907a4.7074,4.7074,0,0,1-3.12.6653c-2.3242-.3316-4.6392.7276-7.0369-.1833a2.2577,2.2577,0,0,0-2.8646,1.5482l-.1-.0487c-.9937.1628-2.9069-1.2015-2.4038,1.4473Z"/><path class="b71a5a99-4126-45c4-b0a1-3a6f875fd8b0" d="M83.8883,80.1055a66.8707,66.8707,0,0,1,8.6343,4.7772c1.0235.6.8263,1.3721-.1556,1.92-1.69.9435-3.395,1.8613-5.0934,2.79-.4826-.3149-.808-.9107-1.5049-.8434l.0192.0167-4.277-2.854c.4177-.606.99-1.094,1.1074-1.6743.2882-1.4187.8629-1.2079,1.8346-.6336A13.1824,13.1824,0,0,0,88.65,85.645a52.6318,52.6318,0,0,0-5.7236-3.4968c-.7832-.4089-.956-.824-.6384-1.5635l-.0223.0166C82.9524,80.9145,83.3631,80.3224,83.8883,80.1055Z"/><path class="e4ea6af0-084b-4c14-810c-08b05abc3417" d="M120.3114,150.5305q1.1317.2771,2.2635.554c-.4563.5942.0419.7479.4362.9639.5245.2873,1.4534.4383,1.0029,1.2773-.3739.6963-1.2134.5547-1.9286.3548a2.06,2.06,0,0,1-1.0535-.7967c-.326-.4087-.8628-.592-1.1512-.1856-.28.3944.18.7866.53,1.0764a4.3592,4.3592,0,0,0,5.0261-.0941c.5509.0959,1.2387-.7587,1.66.2388-.9537.8369-2.9126,1.2848-1.2184,3.147-1.6843,1.3091-5.3046,1.7395-6.9152.8538-.327-.18-.5381-.3933-.4459-.7372.6518-2.4287-1.1272-2.921-2.7787-3.4921-1.0754-.3718-2.1717-.6837-3.5518-1.1138,1.4741-1.0953,2.2428-2.6117,4.0011-2.819.5427.4392,2.3153.2427.8752,1.7173-.163.1669.2056.4032.2677.3515C118.2012,151.1007,119.838,152.1342,120.3114,150.5305Z"/><path class="e4ea6af0-084b-4c14-810c-08b05abc3417" d="M97.4048,96.9428c.59,4.0551,2.64,7.3834,5.2066,10.4548-1.5964.1193-3.0879-.5364-4.6866-.6241-1.4559-.08-2.8262-.5458-4.2814.143a1.3831,1.3831,0,0,1-1.8871-.8936,1.3993,1.3993,0,0,1,.4748-1.8662,33.2668,33.2668,0,0,0,3.0712-2.6113c1.2915-1.2337,1.1351-1.9544-.4836-2.7a4.8623,4.8623,0,0,1-.8721-.4074c-.5143-.3788-.7884-.8641-.363-1.4866.4182-.612.8464-.3125,1.3243-.0431C95.7183,97.3655,96.56,98.0381,97.4048,96.9428Z"/><path class="f691fdd5-25b2-4343-8ad7-d1281e2aaf31" d="M82.2876,80.5847c-.3176.74-.1448,1.1546.6384,1.5635A52.6318,52.6318,0,0,1,88.65,85.645a13.1824,13.1824,0,0,1-4.1967-2.041c-.9717-.5743-1.5464-.7851-1.8346.6336-.1178.58-.69,1.0683-1.1074,1.6743l4.277,2.8541a1.3831,1.3831,0,0,1-1.5635-.4543c-2.8095-2.6-5.8822-1.45-8.9349-.7117-1.6229-.482-3.28-1.4142-4.7319.3585q-.2092-.2033-.4181-.4068c.5964-.4415,1.1923-.8829,1.8761-1.3893-.7435-.4406-1.4049-.82-2.054-1.2194-2.3753-1.4612-4.9548-2.588-7.1406-4.3595.732-.1944,1.2005.3413,1.7426.6468,2.0671,1.1649,4.1238,2.3481,6.2342,3.5529.0832-.27.135-.4416.1885-.6122a7.9657,7.9657,0,0,0-.7706-4.3632c2.47,1.6725,4.9853,1.2136,7.6591.1048l-7.039-4.0561q.2676-.2277.536-.4548c2.7687,1.5875,5.5592,3.1369,8.2917,4.7828A2.5537,2.5537,0,0,0,82.2876,80.5847Zm-5.8047,6.1969a8.8,8.8,0,0,0,4.471-1.5692c1.4686-1.2459,1.3-2.9134-.439-3.7151a7.25,7.25,0,0,0-5.12-.2364c-2.3457.66-3.77,2.0154-3.527,3.2984C72.0983,85.7724,74.1623,86.82,76.4829,86.7816Z"/><path class="b71a5a99-4126-45c4-b0a1-3a6f875fd8b0" d="M70.2157,79.8078a7.9657,7.9657,0,0,1,.7706,4.3632c-.0535.1706-.1053.3418-.1885.6122-2.11-1.2048-4.1671-2.388-6.2342-3.5529-.5421-.3055-1.0106-.8412-1.7426-.6468l.0255.0232.056-.4293a9.8218,9.8218,0,0,1,3.74-2c1.222.4988,2.1251,1.692,3.5953,1.6467Z"/><path class="b71a5a99-4126-45c4-b0a1-3a6f875fd8b0" d="M75.29,87.6c3.0527-.738,6.1254-1.8882,8.9349.7117a1.3831,1.3831,0,0,0,1.5635.4543l-.0192-.0168c-.1385.7355.6565.7033.9148,1.1125q-.091.2085-.1822.4169c-1.2244.3556-2.1138,1.4057-3.3978,1.6384q-.222-.028-.4432-.0555l.0169.0143a2.5564,2.5564,0,0,0-1.9643-1.1821l.0219.0153a4.7956,4.7956,0,0,0-2.7435-1.57l.0218.0154a4.6388,4.6388,0,0,0-2.7433-1.57Z"/><path class="b71a5a99-4126-45c4-b0a1-3a6f875fd8b0" d="M70.8358,75.8565l7.039,4.0561c-2.6738,1.1088-5.1895,1.5677-7.6591-.1048l.0217.0161c-.783-1.0577-2.1044-1.2966-3.0967-2.036A8.8981,8.8981,0,0,1,70.8358,75.8565Z"/><path class="b71a5a99-4126-45c4-b0a1-3a6f875fd8b0" d="M62.821,80.5835c2.1858,1.7715,4.7653,2.8983,7.1406,4.3595.6491.3993,1.31.7788,2.054,1.2194-.6838.5064-1.28.9478-1.8761,1.3893q-4.0236-2.13-8.0459-4.26c-2.0031-1.5811-1.981-1.7605.336-2.73l.4169.0454Z"/><path class="b71a5a99-4126-45c4-b0a1-3a6f875fd8b0" d="M82.2876,80.5847a2.5537,2.5537,0,0,1-2.6241-.4c-2.7325-1.6459-5.523-3.1953-8.2917-4.7828,1.2262-1.292,2.57-1.2345,4.0106-.381,2.6546,1.5722,5.3208,3.1248,7.9826,4.6858-.4137.24-.9206.3659-1.1.8948Z"/><path class="e4ea6af0-084b-4c14-810c-08b05abc3417" d="M85.7672,96.915a5.1137,5.1137,0,0,1,.128-1.53c.1833-.4589.9819-.9769,1.1754-.5093.64,1.5466,2.7184.7159,3.3405,2.3237a10.3925,10.3925,0,0,1,.6961,4.1324c-.8526-.0854-1.7587-1.0655-2.6175.0984a1.1748,1.1748,0,0,1-1.5869-.858c-.2164-.9352.2661-.865.887-.9746.9833-.1734.8-.8863.4464-1.4776a2.2733,2.2733,0,0,0-2.4507-1.1865Z"/><path class="b1ee6afe-d110-4e60-9950-ed2c00164b9f" d="M48.5319,124.9552l.7191-.4a6.9167,6.9167,0,0,0,2.4038-1.4473l.1.0487c1.7385-.3417,2.1446-.0216,1.546,1.2266-.1388.29-.343.547-.4921.8323-.116.2222-.193.4648-.2964.7207,1.8188.3537,3.57-1.3806,5.533-.0393a28.3876,28.3876,0,0,1-4.8972,2.8358l-.3214-.49,2.4775-1.5813c-1.6026-.5656-2.93.5619-4.3481.1453-.045-.8459.6936-1.3581.8539-2.0987.0208-.1475.0431-.2946.0653-.4418l-.44.127c-.8456.4571-1.6893.9177-2.5378,1.3694-.3217.1712-.6721.1691-.7738-.2142C48.0832,125.3974,48.3855,125.1556,48.5319,124.9552Z"/><path class="b1ee6afe-d110-4e60-9950-ed2c00164b9f" d="M39.5693,106.6859a4.697,4.697,0,0,1-1.1151-.2182c-.7164-.2708-1.516-.5669-1.6475-1.46-.1346-.9148.5544-1.4078,1.2187-1.8052,1.7769-1.0631,3.6314-1.7486,5.647-.6288,1.3811.7674,1.4712,1.7243.2187,2.7059A6.2966,6.2966,0,0,1,39.5693,106.6859Zm.5-.7962a4.6655,4.6655,0,0,0,3.172-1.6865c.2926-.3691.0607-.74-.3045-.9719-1.3185-.8377-2.4722-.1489-3.6374.4089a.8434.8434,0,0,0-.1633.1041c-.4436.3567-1.0794.662-.86,1.3559C38.5114,105.8461,39.2248,105.8724,40.07,105.89Z"/><path class="b1ee6afe-d110-4e60-9950-ed2c00164b9f" d="M125.8778,157.0663c-1.6942-1.8622.2647-2.31,1.2184-3.147,1.7862-.768,3.5738-1.1293,5.333.0549.2969.2.7469.4861.4443.8907-.2682.3586-.6922.2-.997-.1217a2.5629,2.5629,0,0,0-3.1426-.5331c.0527.144.06.3066.1362.35.7357.4217,2.0424.482,1.7624,1.6612-.2667,1.1233-1.4266,1.3205-2.5164,1.3817A7.3762,7.3762,0,0,1,125.8778,157.0663Zm1.965-1.9039c-.4538.1119-1.2243-.0584-1.2388.7671-.013.7444.6665.8585,1.258.8976.5855.0386,1.3354.04,1.4186-.6577C129.3856,155.2885,128.5533,155.2855,127.8428,155.1624Z"/><path class="b1ee6afe-d110-4e60-9950-ed2c00164b9f" d="M67.2234,122.0144a6.4353,6.4353,0,0,1,6.4384-2.0761l.0071-.0542.4188.29c.28.362,1.1055.5536.6485,1.15-.3453.4511-.7865-.0539-1.1357-.3318a2.9023,2.9023,0,0,0-3.0684-.2452c.1.1443.1426.2736.23.3227.7814.4376,2.2239.4148,1.8639,1.75-.3276,1.2149-1.6368,1.437-2.7343,1.2942C68.672,123.9546,67.2153,123.8435,67.2234,122.0144Zm2.6576-.3266c-.4342.1415-1.2312-.0879-1.2413.76-.0086.7282.65.8835,1.2554.9231.5922.0387,1.3407.029,1.43-.659C71.4405,121.8218,70.5846,121.8408,69.881,121.6878Z"/><path class="b1ee6afe-d110-4e60-9950-ed2c00164b9f" d="M97.5127,140.1276a13.039,13.039,0,0,1-1.5112-.4595c-1.7875-.7606-1.95-1.84-.3695-2.8985,1.7627-1.18,3.6608-1.9165,5.7637-.8055,1.3364.7061,1.4438,1.5513.315,2.5151A7.59,7.59,0,0,1,97.5127,140.1276Zm-1.5308-1.6138c.3254.8741,1.0818.8051,1.7819.7718a4.4525,4.4525,0,0,0,3.3375-1.6806.6265.6265,0,0,0-.23-.9859,3.039,3.039,0,0,0-3.5861.2592C96.666,137.2763,95.84,137.51,95.9819,138.5138Z"/><path class="b1ee6afe-d110-4e60-9950-ed2c00164b9f" d="M80.055,129.9769a12.4334,12.4334,0,0,1-1.5941-.444c-.7188-.2973-1.5679-.702-1.5159-1.5627.0543-.8981.9345-1.1,1.7327-1.2285.4272-.0688.9032-.02,1.213-.4657,1.01-1.4519,2.3428-1.0491,3.6416-.5591.6044.228,1.2235.6028,1.1548,1.3785-.0613.6921-.6186.9606-1.2508.9618-.6559.0013-.8222.4758-1.0982.9157A2.6418,2.6418,0,0,1,80.055,129.9769Zm1.0621-2.3319c-.7219.1537-1.3217-.6072-2.0422-.3026-.4745.2005-1.3007.3154-.7112,1.1465a2.0035,2.0035,0,0,0,2.0955.6632c.9923-.1477.6132-.9332.6443-1.52.3031-.013.6065-.0422.9092-.0356.5705.0123,1.2087.1632,1.4834-.5318a.81.81,0,0,0-.2658-.6593,1.7306,1.7306,0,0,0-1.813-.2542C80.5813,126.4442,81.3773,127.1726,81.1171,127.645Z"/><path class="b1ee6afe-d110-4e60-9950-ed2c00164b9f" d="M91.22,134.2551c.0362-1.7859,1.3737-1.8978,2.64-1.9428a8.7849,8.7849,0,0,1,2.0114.3917c1.2507,1.0355.9228,1.9007-.2478,2.7437-2.4182,1.7418-5.21,1.5815-6.7529-.4231l1.19-.0444c1.3554,1.34,1.5306,1.3657,3.4993.364A4.9462,4.9462,0,0,1,91.22,134.2551Zm2.8088.425c.5595-.0581,1.3087-.0118,1.3251-.7544.0189-.8549-.7766-.89-1.4106-.8957-.6283-.0061-1.4676.0032-1.4245.8466C92.5594,134.6721,93.3953,134.63,94.0288,134.68Z"/><path class="b1ee6afe-d110-4e60-9950-ed2c00164b9f" d="M113.4219,146.3147c.806-.6779,1.7234-.1971,2.468-.5492.0863-.6879-1.047-.5542-.8353-1.4121,1.3414.1019,2.2453,1.0159,3.3474,1.5957-.3968.6918-.95.5744-1.4248.6336-.7162.0892-1.55-.297-1.3977,1.1806.0966.9366-1.2114,1.2038-2.109,1.2488a3.8537,3.8537,0,0,1-3.51-1.66c.3464-.475.6888-.5279,1.1221-.149a4.4556,4.4556,0,0,0,1.214.91c.5887.2226,1.36.3858,1.8127-.167C114.7385,147.1783,113.6286,146.9572,113.4219,146.3147Z"/><path class="b1ee6afe-d110-4e60-9950-ed2c00164b9f" d="M125.4364,153.6805a4.3592,4.3592,0,0,1-5.0261.0941c-.3494-.29-.8094-.682-.53-1.0764.2884-.4064.8252-.2231,1.1512.1856a2.06,2.06,0,0,0,1.0535.7967c.7152.2,1.5547.3415,1.9286-.3548.4505-.839-.4784-.99-1.0029-1.2773-.3943-.216-.8925-.37-.4362-.9639,2.6979-1.3119,2.6979-1.3119,5.6021.5688-1.5213.98-2.7449-1.9391-4.15-.15C124.6918,152.0845,125.7312,152.4829,125.4364,153.6805Z"/><path class="b1ee6afe-d110-4e60-9950-ed2c00164b9f" d="M49.2544,107.2567c.2119-.1053.3205-.2048.4314-.2074,1.3967-.0335,3.1909.0757,3.2657,1.6047.071,1.4518-1.7918,1.286-2.9518,1.4261a23.4574,23.4574,0,0,1-2.7558.0214c.1783.9585,1.3743.7609,1.6734,2.0642-1.7393-.43-2.8768-1.4449-4.3456-2.2268,1.4044-.9572,2.7776-.4064,4.05-.5656.2547-.0318.5225.026.7734-.0185.7686-.1365,2.0291.3931,2.1621-.6551.1515-1.1939-1.2209-.7323-1.9081-1.0363C49.5452,107.6174,49.4769,107.491,49.2544,107.2567Z"/><path class="b1ee6afe-d110-4e60-9950-ed2c00164b9f" d="M64.7756,121.1263c-1.2364-.169-2.42-.427-3.0359-1.7907a.8115.8115,0,0,1,1.2978.0891,2.1025,2.1025,0,0,0,1.2581.8387c.65.1062,1.4325.264,1.7609-.3875.4342-.8613-.501-.98-.9966-1.3-.2115-.1368-.4259-.269-.6519-.4114,2.3056-2.2128,2.5108-2.212,5.7195.037-1.45,1.0534-2.6626-2.0375-4.0842-.1711.7263.7986,2.7038,1.3907.551,2.7593Q65.6847,120.9578,64.7756,121.1263Z"/><path class="b1ee6afe-d110-4e60-9950-ed2c00164b9f" d="M106.8247,145.3215c-1.8211-.0086-2.9525-1.1032-4.0849-1.9047-.4658-.33.3385-.6194.7626-.627,1.3511-.0244,2.703-.0005,4.0541-.0224.69-.0112,1.6682.1314,1.8105-.6842.1775-1.0163-.9-.8069-1.5169-1-.2248-.0705-.54-.0043-.5717-.4189a1.6016,1.6016,0,0,1,1.5786-.1516c.8272.2344,1.9583.3905,1.8756,1.568-.0746,1.0616-1.093,1.1136-1.922,1.1961-1.2126.1207-2.43.1941-3.6926.2912C105.2792,144.426,106.3641,144.3078,106.8247,145.3215Z"/><path class="b1ee6afe-d110-4e60-9950-ed2c00164b9f" d="M40.5555,117.7025c-1.36.2965-2.2355,1.5679-4.0663,1.64a17.2246,17.2246,0,0,1,4.4134-2.8636c.7274-.4033.9893.0817,1.0231.8373.0431.9647-.6708,1.8368-.3146,2.8465,1.4037-.1752,2.2774-1.7161,4.361-1.46-1.6667.976-2.9206,1.7061-4.17,2.444-.4016.2372-.8309.4766-1.2666.1972-.4634-.2971-.2786-.8146-.2549-1.25C40.3225,119.3266,40.8424,118.6257,40.5555,117.7025Z"/><path class="b1ee6afe-d110-4e60-9950-ed2c00164b9f" d="M53.3492,111.3886l2.5836-.1664c.1086-.8438-1.1128-.6165-1.0839-1.3585,1.3592-.0036,1.7024.1535,3.6809,1.7881-.8736.0967-1.5284.16-2.18.2448-.43.0561-.9152.01-.8613.7246.1144,1.5147-1.1353,1.6125-2.09,1.7a3.7182,3.7182,0,0,1-3.2669-1.3348.56.56,0,0,1-.01-.5214.4424.4424,0,0,1,.6667-.1224,12.0721,12.0721,0,0,0,1.1872.9665c.6977.399,1.5382.6276,2.1157-.08C54.7177,112.4606,53.5021,112.2754,53.3492,111.3886Z"/><path class="b1ee6afe-d110-4e60-9950-ed2c00164b9f" d="M19.7845,109.0187a3.1115,3.1115,0,0,1-1.6608-.4318,1.9793,1.9793,0,0,1-1.1581-1.2155.5356.5356,0,0,1,.2132-.4657c.8193-.3775.8982.4755,1.28.8188.5217.47,1.1934.8095,1.7308.3519.5894-.5018-.194-.8508-.4685-1.1933-.82-1.0233-.2719-1.5158.6852-1.8054a3.1259,3.1259,0,0,1,2.4325.2769c.5535.2967,1.5006.7218,1.1378,1.2934-.5531.8715-.9983-.1895-1.4534-.496-.45-.3029-.9792-.5953-1.418-.2492-.6666.5257.1092.8451.3409,1.2179.2364.38.5937.7181.2423,1.2032A2.041,2.041,0,0,1,19.7845,109.0187Z"/><path class="b1ee6afe-d110-4e60-9950-ed2c00164b9f" d="M49.651,121.039q-1.05,1.7237-2.0993,3.4472c-.39.3059-1.1094.8487-1.2077.1617-.35-2.4421-2.0266-2.1611-3.6863-2.0923a1.5863,1.5863,0,0,1-.5317-.2009C43.8309,121.212,48.2724,120.4482,49.651,121.039ZM45.5,121.97c1.6821,1.0911,1.6821,1.0911,2.2905-.5245Z"/><path class="b1ee6afe-d110-4e60-9950-ed2c00164b9f" d="M173.8389,137.05c1.3516-.79,2.5328-1.5376,3.7679-2.1821.84-.4383,3.0271.588,3.3247,1.563.4351,1.4252-.7269,1.76-1.6645,2.1C177.2291,139.27,175.579,138.4059,173.8389,137.05Zm1.7269.1851a3.1226,3.1226,0,0,0,3.0534.7336c.62-.2334,1.5736-.4849,1.17-1.4042a1.3951,1.3951,0,0,0-2.0037-.8768A5.5358,5.5358,0,0,0,175.5658,137.2351Z"/><path class="b1ee6afe-d110-4e60-9950-ed2c00164b9f" d="M26.79,113.4662a16.866,16.866,0,0,1,4.3317-2.7629c.61-.3391,3.306,1.3355,3.2769,1.9748-.0453.9966-.955,1.1905-1.6655,1.3043-.8748.14-1.7323-.0172-2.0558,1.1751-.1543.5685-.6682.2074-.814-.1405-.269-.6421.5038-1.5807-.5739-2.017C28.439,112.6556,27.9565,113.74,26.79,113.4662Zm3.0728-1.0254c.9848.72,1.8852,1.46,3.1169.7088.4273-.2606.3164-.6487-.0229-.9473A1.8841,1.8841,0,0,0,29.8631,112.4408Z"/><path class="b1ee6afe-d110-4e60-9950-ed2c00164b9f" d="M39.7951,115.5628a2.827,2.827,0,0,1-2.3188-.78c-.6852-.4193-1.3567-.4068-1.68.2013-.3509.66.5665.6513.8861.9725a6.6837,6.6837,0,0,0,.8075.5956c-.9172.5039-1.41-.2013-1.9759-.5028-.62-.3306-1.2859-.6323-1.6874.0657-.4737.8235.5864.7346.898,1.1094.2348.2826.7485.2733.8693,1.1838l-3.5292-1.8405C35.0431,113.3585,36.7664,113.1325,39.7951,115.5628Z"/><path class="b1ee6afe-d110-4e60-9950-ed2c00164b9f" d="M54.9717,129.7523c4.0526-3.2061,5.5-3.3356,7.708-.7789-1.4148.3361-2.4632-2.2387-4.1215-.44l1.9742,1.2554c-1.47.711-2.5708-1.8469-3.8622-.1673.3338.8906,1.5876.8009,1.9793,1.9141C57.1934,131.2787,56.2513,130.3757,54.9717,129.7523Z"/><path class="b1ee6afe-d110-4e60-9950-ed2c00164b9f" d="M72.2708,125.4954l6.3008-1.3719c-.84-1.18-2.002-1.12-3.1349-1.1583,2.3053-1.8708,3.3732.7178,5.0642,1.2275a32.8822,32.8822,0,0,1-8.1473,1.8889Z"/><path class="b1ee6afe-d110-4e60-9950-ed2c00164b9f" d="M164.8958,130.9761c1.4706-.3422,2.9364-.7084,4.4155-1.0089a1.3718,1.3718,0,0,1,1.0835.1571c.372.4047-.0672.8254-.2977,1.184-.5482.8526-1.13,1.6839-1.9093,2.8372C167.803,132.03,166.4941,131.4487,164.8958,130.9761Z"/><path class="b1ee6afe-d110-4e60-9950-ed2c00164b9f" d="M120.3114,150.5305c-.4734,1.6037-2.11.57-2.9812,1.2963-.0621.0517-.4307-.1846-.2677-.3515,1.44-1.4746-.3325-1.2781-.8752-1.7173-.1427-.301-.63-.7035.0705-.85a20.8434,20.8434,0,0,1,6.61-.6648c-1.7621.8894-3.3686.5475-4.769,1.1557.2945.7695.7275.8247,1.373.5177C120.0137,149.6587,120.543,149.6292,120.3114,150.5305Z"/><path class="b1ee6afe-d110-4e60-9950-ed2c00164b9f" d="M174.3949,132.6793c.9587-.0658,1.7752.3922,1.7757,1.2839,0,.7229-.9666,1.0729-1.6437,1.0285-1.04-.0681-1.56.5364-2.1471,1.5192.0213-2.5411-1.0084-2.943-2.9755-1.7l-.0836-.6125c1.3283-.7513,2.6293-1.5592,4-2.2222.4583-.2216.99.0841,1.0992.7227-.8734-.0116-1.7521-.0342-2.2073.9594,1.6077.9418,2.1894,1.0658,2.6826.5639C175.7029,133.4012,174.31,133.2768,174.3949,132.6793Z"/><path class="b1ee6afe-d110-4e60-9950-ed2c00164b9f" d="M26.44,107.4106c-.71,1.0364-1.5869,1.218-2.2381,1.7124-.4384.3327-1.204.5676-.8784,1.2907a1.6361,1.6361,0,0,0,1.8177.8249,9.1293,9.1293,0,0,0,2.9632-1.3723c.43-.224.8182-.6867,1.4146-.425a5.8017,5.8017,0,0,1-5.794,2.2189,2.0735,2.0735,0,0,1-1.6118-1.27c-.228-.8614.5228-1.2632,1.1291-1.5945C24.1665,108.2905,24.9682,107.4707,26.44,107.4106Z"/><path class="b1ee6afe-d110-4e60-9950-ed2c00164b9f" d="M150.1982,119.1692q.7761-.0326,1.5515-.0656c.6159.9,2.8506.9329,1.67,2.7727-.8915,1.3888-3.25,1.4473-4.6709.3111a5.96,5.96,0,0,0,1.8722.2684c.8761-.1575,2.2193-.1971,1.9783-1.5323a1.3435,1.3435,0,0,0-2.0766-.963c-.7.5372-2.8993.2086-1.75,2.2444-.7982.3094-1.2346-.3338-2.07-.772Z"/><path class="b1ee6afe-d110-4e60-9950-ed2c00164b9f" d="M163.8663,130.1325c-.5572.6325-1.0946.31-1.52.2166-.8856-.1938-1.8305-.5576-1.8983-1.6185-.072-1.1262.9359-1.4534,1.7744-1.7382a3.72,3.72,0,0,1,4.7274,1.6167c-.4029.353-.6829.1278-.9635-.1871a2.9537,2.9537,0,0,0-.6812-.6591,3.012,3.012,0,0,0-3.1157-.0275.993.993,0,0,0-.63,1.08C161.7858,130.0308,162.9831,129.8052,163.8663,130.1325Z"/><path class="b1ee6afe-d110-4e60-9950-ed2c00164b9f" d="M42.5292,108.4049a23.429,23.429,0,0,0,2.7141-1.6217c.5161-.4031,1.97-.3022,1.1542-1.7365-.2113-.3717.4268-.3894.6585-.28a17.889,17.889,0,0,1,1.6634,1.03l-5.8041,3.37Z"/><path class="b1ee6afe-d110-4e60-9950-ed2c00164b9f" d="M106.582,139.0976c-1.88,1.0976-3.4838,2.04-5.0945,2.97-.317.183-.7206.5293-1.001.0569-.4109-.6925.4085-.6554.6748-.8422.787-.5522,1.6815-.95,2.481-1.4863.3926-.2636,1.4219-.2979.58-1.28-.322-.3758.293-.4776.5351-.381A20.0738,20.0738,0,0,1,106.582,139.0976Z"/><path class="b1ee6afe-d110-4e60-9950-ed2c00164b9f" d="M155.08,126.3665c.1674-1.7915,3.4677-1.0032,2.4961-3.5034a3.4,3.4,0,0,1,2.077,1.0944A27.81,27.81,0,0,1,155.08,126.3665Z"/><path class="e4ea6af0-084b-4c14-810c-08b05abc3417" d="M153.8712,141.22c-1.1194.7795-2.0379,1.3149-3.183.9645-.3072-.094-.8755-.0177-.8466-.5567a.7942.7942,0,0,1,.9273-.7592A6.7337,6.7337,0,0,1,153.8712,141.22Z"/><path class="e4ea6af0-084b-4c14-810c-08b05abc3417" d="M63.6231,106.2476a2.5773,2.5773,0,0,1,.58.0326c.5865.1668,1.1648.3628,1.7462.5476-1.1113.5075.4635,2.5135-1.4345,2.5552l-.9038-3.1226Z"/><path class="b1ee6afe-d110-4e60-9950-ed2c00164b9f" d="M156.3354,121.997a8.8733,8.8733,0,0,1-4.2734,2.4579A9.89,9.89,0,0,1,156.3354,121.997Z"/><path class="e4ea6af0-084b-4c14-810c-08b05abc3417" d="M104.4635,109.0491a14.2318,14.2318,0,0,1,2.7457,2.2363C104.4535,111.1783,104.0548,110.8537,104.4635,109.0491Z"/><path class="f691fdd5-25b2-4343-8ad7-d1281e2aaf31" d="M67.1407,77.7879c.9923.7394,2.3137.9783,3.0967,2.036-1.47.0453-2.3733-1.1479-3.5953-1.6467Q66.8906,77.9819,67.1407,77.7879Z"/><path class="f691fdd5-25b2-4343-8ad7-d1281e2aaf31" d="M86.6835,89.8617c-.2583-.4092-1.0533-.377-.9148-1.1125.6969-.0673,1.0223.5285,1.5049.8434C87.1713,89.89,86.9247,89.87,86.6835,89.8617Z"/><path class="f691fdd5-25b2-4343-8ad7-d1281e2aaf31" d="M82.2653,80.6013c.1791-.5289.686-.6548,1.1-.8948q.2607.2.5227.4C83.3631,80.3224,82.9524,80.9145,82.2653,80.6013Z"/><path class="ba820bc9-361d-4b3e-a263-1bdec0a4d7c9" d="M74.0877,120.1737l-.4188-.29Z"/><path class="f691fdd5-25b2-4343-8ad7-d1281e2aaf31" d="M62.8465,80.6067l-.4169-.0454q.2358-.1922.4725-.3839Q62.8748,80.392,62.8465,80.6067Z"/><path class="f225b322-9c9a-4636-9865-ef581b19db36" d="M105.9777,79.0618c-1.503,1.0285-2.07,2.693-2.8579,4.2074-.5863-3.08.6775-6.5229,2.8442-7.7532Q105.9706,77.2887,105.9777,79.0618Z"/><path class="a912ad7e-1954-40ff-ad0a-9e7a7557806b" d="M109.0743,72.8178l.4159.4Z"/><path class="a710e21b-8cad-4161-8e2c-5af0358732e8" d="M184.5172,65.4272c-.5534,4.3133-3.57,6.9688-6.7044,9.3286-6.6357,4.9951-14.3943,6.935-22.5293,7.8153a65.3511,65.3511,0,0,1-24.8789-1.9922,7.93,7.93,0,0,1-3.03-1.16c1.436-.9711,2.8928-.0042,4.2827.108a87.7,87.7,0,0,0,14.4619-.044,55.1223,55.1223,0,0,0,16.8262-3.9651c5.51-2.3079,10.6753-5.1869,14.3753-10.0934a15.8069,15.8069,0,0,0,2.4881-4.3447c.43-1.2635.9448-1.1461,1.766-.36C182.96,62.047,183.6394,63.7948,184.5172,65.4272Z"/><path class="b8e48cd0-7a0a-4a8b-8864-85f9302d925c" d="M149.3629,66.03l-8.4943-1.7011,9.17-1.7363c-.0568-.9588-.761-1.5315-1.29-2.1983.007-.2841-.64-1.0492.3721-.6122a19.7346,19.7346,0,0,1,2.3506,1.4488c.5829-3.0185,1.1261-5.8313,1.6692-8.6441l.2469.0227,1.5291,7.1365c-.1032,1.33.27,1.7219,1.4279.77.5349-.44,1.1464-.7861,1.7607-1.2.0248.2032.0874.34.0435.41-1.7789,2.8357-1.78,2.8346,1.5414,3.4179.5054.0887,1.01.1819,1.5149.2729l3.9017.7806-.0339.2938c-2.2591.4254-4.504.973-6.7817,1.2362-1.6938.1958-2.1353.624-.9331,2.0156a8.686,8.686,0,0,1,.6752,1.09c-1.2687.1064-1.7892-1.1241-2.9842-1.2957-.5568,2.9084-1.1164,5.8318-1.78,9.2977-.6552-3.4817-1.2016-6.3845-1.7476-9.2859-1.2046.2134-1.76,1.3619-3.1344,1.3872.51-.7409.9195-1.3391,1.3318-1.9355C150.0606,66.5072,150,66.1637,149.3629,66.03Z"/><path class="a710e21b-8cad-4161-8e2c-5af0358732e8" d="M154.9166,59.7459l-1.5291-7.1365-.2469-.0227c-.5431,2.8128-1.0863,5.6256-1.6692,8.6441a19.7346,19.7346,0,0,0-2.3506-1.4488c-1.0125-.437-.3651.3281-.3721.6122-2.3816,1.2368-5.0435.9944-7.5383,1.0715-9.3031.2876-18.404-1.0712-26.85-5.1524-5.4019-2.61-10.3216-5.9708-12.0689-12.295a9.952,9.952,0,0,1-.1811-1.137.9724.9724,0,0,0,.8866-.6344c2.1424-4.6,6.12-7.247,10.3973-9.4379a51.148,51.148,0,0,1,18.4633-5.1474,69.9353,69.9353,0,0,1,15.7985.188,48.593,48.593,0,0,1,15.8571,4.6193c3.5021,1.7619,6.8272,3.816,9.3363,7.0039.9707,1.2332,1.3967,2.8425,2.7268,3.7981-.6522,4.597-3.7265,7.5523-7.146,10.1441A36.8906,36.8906,0,0,1,156.2478,59.13C155.7707,59.2686,155.1826,59.1552,154.9166,59.7459ZM115.3309,44.4283c-.66.5027-.1733,1-.035,1.5389.5931,2.309,2.703,3.6912,3.5257,5.8517-.2266.41-.8413.5627-.7731,1.1677a1.2519,1.2519,0,0,0-.0305,1.8775,3.0617,3.0617,0,0,0,4.3313.5614,2.296,2.296,0,0,1,2.62-.3712,21.1233,21.1233,0,0,0,11.2179,2.1814c3.5739-.3246,6.9687-1.3093,9.4975-4.112.8118-.9,1.5792-1.9089.744-3.2338a3.19,3.19,0,0,0,.1274-2.5625c-.5066-1.7964-1.8025-3.0271-2.859-4.4364,1.5195-.8326,3.0666-1.6191,4.5525-2.5079,2.7582-1.65,2.8213-1.6651,4.8111.8082a3.3539,3.3539,0,0,1,.6181.9707c.7381,2.2124,2.3321,2.1665,4.1552,1.6611a3.976,3.976,0,0,1,1.5214-.143c1.8548.2365,2.4712-.633,2.2293-2.35a13.8016,13.8016,0,0,0-5.691-7.3052c.3186-.8945,1.9944-.8314,1.37-1.6279-.5756-.7351-1.5853-2.1428-3.0513-1.0266-1.089.8291-2.0682.5162-3.2328.0292-5.2562-2.1982-10.61-2.5637-15.9434-.2835-2.8964,1.2384-5.1774,3.0234-4.55,6.7121-.6318.8568.1277,1.51.35,2.2272.4122,1.3288,1.66,2.2115,1.98,3.6005-1.5152.9526-2.9989,1.9606-4.5529,2.8451-2.4871,1.4155-3.88,1.2588-4.7448-1.5052-1.1433-3.6543-3.2243-4.2562-6.5572-3.7279-2.1788.3454-2.2519.1222-1.7054,2.3939A5.3265,5.3265,0,0,1,115.3309,44.4283Z"/><path class="f225b322-9c9a-4636-9865-ef581b19db36" d="M175.576,43.2709c-1.33-.9556-1.7561-2.5649-2.7268-3.7981-2.5091-3.1879-5.8342-5.242-9.3363-7.0039A48.593,48.593,0,0,0,147.6558,27.85a69.9353,69.9353,0,0,0-15.7985-.188A51.148,51.148,0,0,0,113.394,32.809c-4.2768,2.1909-8.2549,4.8379-10.3973,9.4379a.9724.9724,0,0,1-.8866.6344c-.0232-4.56,2.4264-7.79,5.7756-10.4506,6.0337-4.793,13.11-6.99,20.597-8.2553a60.6514,60.6514,0,0,1,14.09-.6726c9.23.6024,18.1565,2.4847,25.8512,8.0589a17.858,17.858,0,0,1,6.0323,6.6763A9.3888,9.3888,0,0,1,175.576,43.2709Z"/><path class="f699dd5d-3d98-497e-bf58-c2060c7c734b" d="M91.22,134.2551a4.9462,4.9462,0,0,0,2.34,1.0891c-1.9687,1.0017-2.1439.9765-3.4993-.3641Z"/><path class="f699dd5d-3d98-497e-bf58-c2060c7c734b" d="M132.8228,122.5883c-.4227,1.8339-1.0284,2.1457-3.2465,1.2072,1.6473.1925,2.1258-1.1183,3.235-1.2182Z"/><path class="b71a5a99-4126-45c4-b0a1-3a6f875fd8b0" d="M70.5576,87.9585c1.4521-1.7727,3.109-.8405,4.7319-.3585l-.02-.0158a3.07,3.07,0,0,0,2.7433,1.57l-.0218-.0154a2.9849,2.9849,0,0,0,2.7435,1.57l-.0219-.0153a1.7213,1.7213,0,0,0,1.9643,1.1821l-.0169-.0143-.0337.446a3.1462,3.1462,0,0,1-4.1818.39C75.8242,91.104,73.0586,89.752,70.5576,87.9585Z"/><path class="f691fdd5-25b2-4343-8ad7-d1281e2aaf31" d="M82.6266,92.3075l.0337-.446q.2214.0276.4432.0555Q82.8655,92.1126,82.6266,92.3075Z"/><path class="e4ea6af0-084b-4c14-810c-08b05abc3417" d="M51.6548,123.1078a6.9167,6.9167,0,0,1-2.4038,1.4473C48.7479,121.9063,50.6611,123.2706,51.6548,123.1078Z"/><path class="b71a5a99-4126-45c4-b0a1-3a6f875fd8b0" d="M76.4829,86.7816c-2.3206.0379-4.3846-1.0092-4.6146-2.2223-.2433-1.283,1.1813-2.6379,3.527-3.2984a7.25,7.25,0,0,1,5.12.2364c1.74.8017,1.9076,2.4692.439,3.7151A8.8,8.8,0,0,1,76.4829,86.7816Z"/><path class="f691fdd5-25b2-4343-8ad7-d1281e2aaf31" d="M80.7348,90.709a2.9849,2.9849,0,0,1-2.7435-1.57A4.7956,4.7956,0,0,1,80.7348,90.709Z"/><path class="f691fdd5-25b2-4343-8ad7-d1281e2aaf31" d="M78.0131,89.1543a3.07,3.07,0,0,1-2.7433-1.57A4.6388,4.6388,0,0,1,78.0131,89.1543Z"/><path class="f691fdd5-25b2-4343-8ad7-d1281e2aaf31" d="M82.6772,91.8758a1.7213,1.7213,0,0,1-1.9643-1.1821A2.5564,2.5564,0,0,1,82.6772,91.8758Z"/><path class="bd685b91-1e9b-4175-a444-7ec8ca7941dc" d="M51.4349,124.3931l.44-.127c-.0222.1472-.0445.2943-.0653.4418C51.6856,124.6031,51.56,124.4981,51.4349,124.3931Z"/><path class="f699dd5d-3d98-497e-bf58-c2060c7c734b" d="M40.07,105.89c-.8447-.0173-1.5581-.0436-1.7935-.79-.2191-.6939.4167-.9992.86-1.3559A.8434.8434,0,0,1,39.3,103.64c1.1652-.5578,2.3189-1.2466,3.6374-.4089.3652.2321.5971.6028.3045.9719A4.6655,4.6655,0,0,1,40.07,105.89Z"/><path class="f699dd5d-3d98-497e-bf58-c2060c7c734b" d="M127.8428,155.1624c.7105.1231,1.5428.1261,1.4378,1.007-.0832.6976-.8331.6963-1.4186.6577-.5915-.0391-1.271-.1532-1.258-.8976C126.6185,155.104,127.389,155.2743,127.8428,155.1624Z"/><path class="f699dd5d-3d98-497e-bf58-c2060c7c734b" d="M69.881,121.6878c.7036.153,1.56.134,1.4441,1.0245-.0893.688-.8378.6977-1.43.659-.6055-.04-1.264-.1949-1.2554-.9231C68.65,121.6,69.4468,121.8293,69.881,121.6878Z"/><path class="f699dd5d-3d98-497e-bf58-c2060c7c734b" d="M97.2851,136.8783a3.039,3.039,0,0,1,3.5861-.2592.6265.6265,0,0,1,.23.9859,4.4525,4.4525,0,0,1-3.3375,1.6806c-.7.0333-1.4565.1023-1.7819-.7719,1.2979-.1163,2.6432-.1085,3.8636-1.4006Z"/><path class="e4ea6af0-084b-4c14-810c-08b05abc3417" d="M97.2851,136.8783l2.56.2348c-1.22,1.2921-2.5657,1.2843-3.8636,1.4006C95.84,137.51,96.666,137.2763,97.2851,136.8783Z"/><path class="f699dd5d-3d98-497e-bf58-c2060c7c734b" d="M81.1035,127.6323c-.0311.5866.348,1.3721-.6443,1.52a2.0035,2.0035,0,0,1-2.0955-.6632c-.59-.8311.2367-.946.7112-1.1465.7205-.3046,1.32.4563,2.0422.3026Z"/><path class="f699dd5d-3d98-497e-bf58-c2060c7c734b" d="M81.1171,127.645c.26-.4724-.5358-1.2008.3-1.4937a1.7306,1.7306,0,0,1,1.813.2542.81.81,0,0,1,.2658.6593c-.2747.695-.9129.5441-1.4834.5318-.3027-.0066-.6061.0226-.9092.0356Z"/><path class="e4ea6af0-084b-4c14-810c-08b05abc3417" d="M94.0261,134.68c-.6308-.05-1.4667-.0077-1.5073-.8032-.0431-.8434.7962-.8527,1.4245-.8466.634.0061,1.43.0408,1.4106.8957C95.3375,134.6683,94.5883,134.622,94.0261,134.68Z"/><path class="f699dd5d-3d98-497e-bf58-c2060c7c734b" d="M45.5,121.97l2.2905-.5245C47.1821,123.0609,47.1821,123.0609,45.5,121.97Z"/><path class="f699dd5d-3d98-497e-bf58-c2060c7c734b" d="M175.5658,137.2351a5.5358,5.5358,0,0,1,2.22-1.5474,1.3951,1.3951,0,0,1,2.0037.8768c.4037.9193-.55,1.1708-1.17,1.4042A3.1226,3.1226,0,0,1,175.5658,137.2351Z"/><path class="f699dd5d-3d98-497e-bf58-c2060c7c734b" d="M29.8631,112.4408a1.8841,1.8841,0,0,1,3.094-.2385c.3393.2986.45.6867.0229.9473C31.7483,113.9006,30.8479,113.1608,29.8631,112.4408Z"/><path class="f699dd5d-3d98-497e-bf58-c2060c7c734b" d="M174.3949,132.6793c-.0853.5975,1.308.7219.5006,1.5434-.4932.5019-1.0749.3779-2.6826-.5639.4552-.9936,1.3339-.971,2.2073-.9594Z"/><path class="f699dd5d-3d98-497e-bf58-c2060c7c734b" d="M148.7721,122.2049c-1.1491-2.0358,1.05-1.7072,1.75-2.2444a1.3435,1.3435,0,0,1,2.0766.963c.241,1.3352-1.1022,1.3748-1.9783,1.5323a5.96,5.96,0,0,1-1.8722-.2684Z"/><path class="a912ad7e-1954-40ff-ad0a-9e7a7557806b" d="M118.0485,52.9866c-.0682-.605.5465-.7579.7731-1.1676,2.0909-.8884,2.1251-.9268.6-2.2889a23.0474,23.0474,0,0,1-4.09-5.1018,5.3265,5.3265,0,0,0-.074-.7667c-.5465-2.2717-.4734-2.0485,1.7054-2.3939,3.3329-.5283,5.4139.0736,6.5572,3.7279.8647,2.764,2.2577,2.9207,4.7448,1.5052,1.554-.8845,3.0377-1.8925,4.5529-2.845,1.1525-.2755,1.8515-.61.7042-1.87-1.1148-1.2251-2.031-2.6309-3.0345-3.9574-.6274-3.6887,1.6536-5.4737,4.55-6.7121,5.3334-2.28,10.6872-1.9147,15.9434.2835,1.1646.487,2.1438.8,3.2328-.0292,1.466-1.1162,2.4757.2915,3.0513,1.0266.6239.7965-1.0519.7334-1.37,1.6279a13.8016,13.8016,0,0,1,5.691,7.3052c-.5694.0826-1.1363.201-1.7087.2415-2.6161.1854-5.6016,1.44-6.8542-2.3785a4.8158,4.8158,0,0,0-.8793-1.26,1.8249,1.8249,0,0,0-2.7118-.4381c-1.8645,1.1435-3.6982,2.3517-5.6361,3.3567-1.43.7418-1.4078,1.2938-.0975,2.0395,1.0565,1.4093,2.3524,2.64,2.859,4.4364a3.1892,3.1892,0,0,1-.1275,2.5624c-.6055,1.6418-1.9918,2.4839-3.4172,3.24-5.8494,3.1023-11.7265,2.5389-17.5952.046-.8254-.3506-1.6342-.9613-2.4932-.1823C121.2785,54.4847,119.6713,54.0966,118.0485,52.9866Zm27.2126-16.7039a3.68,3.68,0,0,0,2.3339-1.33,9.1438,9.1438,0,0,0-6.6493-.6819c-1.6486.4672-2.5825,1.3466-2.2933,3.1662.7257.5249.6012,2.2811,2.0953,1.6366A13.3356,13.3356,0,0,0,145.2611,36.2827Zm-6.6175,12.43a2.8294,2.8294,0,0,0-.4561-2.0364c-.5284-.6832-1.0441-1.8454-2.0831-1.2819a42.5251,42.5251,0,0,0-7.01,4.2363,3.3531,3.3531,0,0,0,2.5548.6519Q135.9809,51.8807,138.6436,48.7127Z"/><path class="f225b322-9c9a-4636-9865-ef581b19db36" d="M118.0485,52.9866c1.6228,1.11,3.23,1.4981,4.8747.0068.859-.779,1.6678-.1683,2.4932.1823,5.8687,2.4929,11.7458,3.0563,17.5952-.046,1.4254-.756,2.8117-1.5981,3.4172-3.24.8353,1.325.0679,2.3342-.7439,3.2339-2.5288,2.8027-5.9236,3.7874-9.4975,4.112A21.1233,21.1233,0,0,1,124.97,55.0543a2.296,2.296,0,0,0-2.62.3712,3.0617,3.0617,0,0,1-4.3313-.5614A1.2519,1.2519,0,0,1,118.0485,52.9866Z"/><path class="f225b322-9c9a-4636-9865-ef581b19db36" d="M143.6973,42.891c-1.31-.7457-1.3329-1.2977.0975-2.0395,1.9379-1.005,3.7716-2.2132,5.6361-3.3567a1.8249,1.8249,0,0,1,2.7118.4381,4.8158,4.8158,0,0,1,.8793,1.26c1.2526,3.818,4.2381,2.5639,6.8542,2.3785.5724-.04,1.1393-.1589,1.7087-.2415.2419,1.7172-.3745,2.5867-2.2293,2.35a3.976,3.976,0,0,0-1.5214.143c-1.8231.5054-3.4171.5513-4.1552-1.6611a3.3539,3.3539,0,0,0-.6181-.9707c-1.99-2.4733-2.0529-2.4581-4.8111-.8082C146.7639,41.2719,145.2168,42.0584,143.6973,42.891Z"/><path class="f225b322-9c9a-4636-9865-ef581b19db36" d="M115.3309,44.4283a23.0474,23.0474,0,0,0,4.09,5.1018c1.5255,1.3621,1.4913,1.4005-.6,2.2889-.8227-2.1606-2.9326-3.5428-3.5257-5.8518C115.1576,45.4287,114.6706,44.931,115.3309,44.4283Z"/><path class="f225b322-9c9a-4636-9865-ef581b19db36" d="M130.4869,37.828c1.0035,1.3265,1.92,2.7323,3.0345,3.9574,1.1473,1.2608.4483,1.5949-.7042,1.87-.3206-1.3891-1.5679-2.2718-1.98-3.6006C130.6146,39.3382,129.8551,38.6848,130.4869,37.828Z"/><path class="f225b322-9c9a-4636-9865-ef581b19db36" d="M131.65,50.2826a3.3531,3.3531,0,0,1-2.5548-.6519,42.5251,42.5251,0,0,1,7.01-4.2363c1.039-.5635,1.5547.5987,2.0831,1.2819a2.8294,2.8294,0,0,1,.4561,2.0364c-1.0725.0563-1.0672-1.9818-2.4758-1.2737A15.2384,15.2384,0,0,0,131.65,50.2826Z"/><path class="f225b322-9c9a-4636-9865-ef581b19db36" d="M138.6524,37.4373c-.2892-1.82.6447-2.699,2.2933-3.1662a9.1438,9.1438,0,0,1,6.6493.6819,3.6792,3.6792,0,0,1-2.3339,1.33C142.7986,35.1823,140.742,36.4043,138.6524,37.4373Z"/><path class="a710e21b-8cad-4161-8e2c-5af0358732e8" d="M131.65,50.2826a15.2384,15.2384,0,0,1,4.5183-2.8436c1.4086-.7081,1.4033,1.33,2.4758,1.2737Q135.987,51.8794,131.65,50.2826Z"/><path class="a710e21b-8cad-4161-8e2c-5af0358732e8" d="M138.6524,37.4373c2.09-1.033,4.1462-2.255,6.6087-1.1547a13.3343,13.3343,0,0,1-4.5134,2.7913C139.2536,39.7184,139.3781,37.9622,138.6524,37.4373Z"/></svg>